<?xml version="1.0" encoding="UTF-8"?>
<svg id="_圖層_2" data-name="圖層 2" xmlns="http://www.w3.org/2000/svg" viewBox="0 0 367.1 119.43">
  <g id="_圖層_1-2" data-name="圖層 1">
    <g>
      <path d="M35.2,119.43c-.13,0-.24-.08-.29-.21-.99-3-2.34-11.45-4.51-28.23-1.99-16.22-5.45-22.15-13.22-22.66h-7.88v50.8c0,.17-.13,.3-.3,.3H.3c-.17,0-.3-.13-.3-.3V2.75c0-.13,.08-.24,.2-.28C4.51,.92,10.8,0,17,0c9.4,0,15.49,3.01,19.75,9.76,3.45,5.32,5.35,13.34,5.35,22.56,0,14.17-4.74,25.46-12.7,30.27v.19c4.96,3.12,8.2,10.95,9.9,23.93,2.14,16.01,3.77,27.71,5.19,32.33,.03,.09,.01,.19-.05,.27-.06,.08-.15,.12-.24,.12h-9ZM17.9,56.18c9.05,0,14.9-8.67,14.9-22.1s-5.4-21.56-15.2-21.75c-4.05,0-6.91,.65-8.3,1.29V56.18h8.6Z" fill="#b8c598"/>
      <path d="M49.1,119.43c-.17,0-.3-.13-.3-.3V1.17c0-.17,.13-.3,.3-.3h36.4c.17,0,.3,.13,.3,.3V13.95c0,.17-.13,.3-.3,.3h-27.4V50.93h25.9c.17,0,.3,.13,.3,.3v12.6c0,.17-.13,.3-.3,.3h-25.9v41.93h28.9c.17,0,.3,.13,.3,.3v12.78c0,.17-.13,.3-.3,.3H49.1Z" fill="#b8c598"/>
      <path d="M135.1,119.43c-.13,0-.24-.08-.28-.2l-21.4-59.85c-5.43-15.17-9.35-27.34-12.28-38.18,.47,14.37,.66,28.25,.66,47.53v50.4c0,.17-.13,.3-.3,.3h-8.2c-.17,0-.3-.13-.3-.3V1.17c0-.17,.13-.3,.3-.3h9.5c.13,0,.24,.08,.28,.2l21.6,59.68c4.66,12.89,8.47,24.88,11.64,36.58-.76-15.69-.92-30.12-.92-46.81V1.17c0-.17,.13-.3,.3-.3h8.2c.17,0,.3,.13,.3,.3V119.13c0,.17-.13,.3-.3,.3h-8.8Z" fill="#b8c598"/>
      <path d="M154.1,119.43c-.17,0-.3-.13-.3-.3V1.17c0-.17,.13-.3,.3-.3h36.4c.17,0,.3,.13,.3,.3V13.95c0,.17-.13,.3-.3,.3h-27.4V50.93h25.9c.17,0,.3,.13,.3,.3v12.6c0,.17-.13,.3-.3,.3h-25.9v41.93h28.9c.17,0,.3,.13,.3,.3v12.78c0,.17-.13,.3-.3,.3h-37.9Z" fill="#b8c598"/>
      <path d="M247.2,119.43c-.15,0-.28-.11-.3-.26l-8.5-61.43c-1.84-13.18-3.27-24.5-4.23-36.34-1.26,11.87-2.77,22.88-4.98,36.34l-9.6,61.42c-.02,.15-.15,.25-.3,.25h-9.1c-.15,0-.28-.11-.3-.26L192.8,1.22c-.01-.09,.01-.17,.07-.24,.06-.07,.14-.1,.23-.1h9.2c.15,0,.28,.11,.3,.26l8,59.68c1.87,13.74,3.6,27.75,4.79,38.84,1.18-11.64,3.28-25.55,5.31-39.02L229.7,1.13c.02-.15,.15-.25,.3-.25h9.1c.15,0,.28,.11,.3,.26l8.2,59.85c1.75,12.87,3.5,26.37,4.53,38.38,1.3-11.6,2.95-23.19,4.85-36.49l.32-2.25L266.2,1.13c.02-.15,.15-.26,.3-.26h8.9c.09,0,.17,.04,.23,.11,.06,.07,.08,.16,.07,.24l-19.1,117.95c-.02,.15-.15,.25-.3,.25h-9.1Z" fill="#b8c598"/>
      <path d="M315.1,119.43c-.14,0-.27-.1-.29-.24l-7.15-36.86h-23.41l-6.95,36.86c-.03,.14-.15,.24-.29,.24h-9c-.09,0-.17-.04-.23-.11-.06-.07-.08-.16-.06-.25L290.6,1.12c.03-.14,.15-.24,.29-.24h10.5c.14,0,.27,.1,.29,.24l23,117.95c.02,.09,0,.18-.06,.25-.06,.07-.14,.11-.23,.11h-9.3Zm-9.37-49.6l-6.53-33.59c-1.4-7.2-2.37-13.8-3.3-20.18-1.11,7.71-2.14,14.1-3.21,20l-6.53,33.77h19.57Z" fill="#b8c598"/>
      <path d="M329.29,119.43c-.17,0-.3-.13-.3-.3V1.17c0-.17,.13-.3,.3-.3h8.7c.17,0,.3,.13,.3,.3V106.05h28.5c.17,0,.3,.13,.3,.3v12.78c0,.17-.13,.3-.3,.3h-37.5Z" fill="#b8c598"/>
    </g>
  </g>
</svg>