<?xml version="1.0" encoding="UTF-8"?>
<svg id="_圖層_2" data-name="圖層 2" xmlns="http://www.w3.org/2000/svg" viewBox="0 0 456.59 128.35">
  <g id="_圖層_1-2" data-name="圖層 1">
    <g>
      <path d="M47.42,128.35c-.08,0-.16-.03-.22-.09l-.73-.77c-.05-.06-.08-.13-.08-.21,0-.76-.27-1.92-.81-3.45-.55-1.55-1.23-3.33-2.02-5.28-.8-1.97-2.22-5.53-4.27-10.68-2.05-5.16-8.59-21.08-19.97-48.66-.01-.04-.02-.08-.02-.11v-2.82c0-.14,.1-.27,.24-.29,3.2-.61,5.97-1.75,8.23-3.37,2.26-1.62,4.16-3.71,5.63-6.23,1.47-2.52,2.57-5.54,3.26-8.97,.69-3.44,1.04-7.33,1.04-11.56-.1-3.37-.38-6.26-.85-8.57-.46-2.28-1.24-4.15-2.31-5.56-1.07-1.4-2.51-2.43-4.28-3.06-1.8-.64-4.13-.97-6.91-.97-1.04,0-2.14,.04-3.27,.13-1.06,.08-2.2,.17-3.42,.27,.17,1.29,.25,2.66,.25,4.09V110.19c0,2.31,.12,4.31,.36,5.94,.24,1.61,.65,2.99,1.21,4.09,.56,1.09,1.33,1.99,2.28,2.67,.96,.69,2.19,1.27,3.65,1.71,.15,.04,.24,.2,.21,.35l-.44,2.05c-.02,.08-.06,.15-.13,.19-.05,.03-.1,.05-.16,.05-.02,0-.04,0-.07,0-1.97-.45-3.69-.8-5.11-1.02-1.41-.22-2.59-.34-3.52-.34-.86,0-1.86,.11-2.97,.34-1.12,.22-2.37,.56-3.72,1.02-.03,.01-.06,.02-.09,.02-.12,0-.24-.08-.28-.2l-.29-.86c-.02-.07-.02-.14,0-.21,.63-1.61,.96-4.62,.96-8.95V27.22c0-3.73-.1-6.9-.29-9.42-.19-2.5-.55-4.53-1.06-6.04-.5-1.47-1.2-2.52-2.08-3.14-.82-.56-2.26-.85-4.31-.85-.18,0-.55,0-.55,0-.16,0-.29-.12-.3-.28L0,5.02c-.01-.15,.09-.28,.23-.32,2.18-.51,4.11-.97,5.79-1.37,1.74-.41,3.31-.76,4.79-1.07,1.52-.31,3.04-.59,4.51-.82,1.49-.23,2.93-.42,4.29-.56,1.37-.14,2.47-.24,3.31-.3,.85-.06,1.65-.09,2.39-.09,2.98,0,5.77,.39,8.31,1.17,2.56,.78,4.8,2.16,6.67,4.1,1.86,1.93,3.33,4.57,4.37,7.85,1.03,3.26,1.55,7.43,1.55,12.4,0,3.71-.47,7.28-1.4,10.59-.93,3.31-2.2,6.38-3.79,9.13-1.58,2.74-3.46,5.19-5.57,7.28-2.06,2.04-4.29,3.71-6.62,4.97v.7l19.85,49.59c1.7,4.32,3.92,7.7,6.61,10.05,2.62,1.96,4.25,3.13,4.82,3.47,.57,.34,1.23,.74,1.98,1.2,.09,.05,.14,.15,.14,.26v1.62c0,.17-.13,.3-.3,.3-5.69,0-10.52,1.05-14.36,3.12-.04,.02-.09,.04-.14,.04Z" fill="#b8c598"/>
      <path d="M74.69,125.87c-.14,0-.25-.09-.29-.22-.62-2.35-.94-5.19-.94-8.45V26.36c0-3.73-.1-6.84-.29-9.25-.19-2.38-.55-4.31-1.06-5.73-.5-1.38-1.18-2.35-2.05-2.88-.88-.54-2.03-.81-3.43-.81h-.71c-.22,0-.45,.03-.69,.08-.02,0-.04,0-.06,0-.06,0-.13-.02-.18-.06-.07-.05-.11-.13-.12-.22l-.2-2.48c-.01-.14,.08-.27,.22-.31,9.26-2.56,19.6-3.86,30.74-3.86,5.68,0,11.72,.35,17.95,1.03,.13,.01,.23,.11,.26,.23l.34,1.45s.01,.09,0,.13l-4.64,21.28c-.02,.09-.08,.17-.17,.21-.04,.02-.08,.03-.12,.03-.05,0-.1-.01-.14-.04l-1.56-.85c-.11-.06-.17-.18-.15-.3,.26-2.15,.46-4.16,.58-5.97,.13-1.81,.19-3.6,.19-5.32,0-1.63-.12-3.19-.35-4.65-2.35-.38-4.69-.67-6.97-.86-2.34-.2-4.71-.3-7.03-.3-4.14,0-8.26,.33-12.25,.98V55.6s26.4-2.53,26.41-2.53c.11,0,.21,.06,.27,.16l.49,.94c.04,.07,.04,.16,.02,.23l-2.29,7.01c-.04,.12-.16,.21-.29,.21,0,0-.02,0-.02,0-1.46-.11-2.95-.2-4.43-.26-1.51-.06-3.05-.08-4.58-.08-2.53,0-5.13,.09-7.74,.26-2.52,.16-5.15,.38-7.83,.65v57.86l16.87-.92c2.32-.11,4.3-.59,5.88-1.42,1.58-.83,2.96-2.02,4.1-3.54,1.15-1.54,2.17-3.47,3.04-5.74,.87-2.29,1.76-4.98,2.63-7.97,.03-.09,.1-.17,.19-.2,.03-.01,.07-.02,.1-.02,.06,0,.12,.02,.18,.06l1.42,1.03c.1,.07,.14,.19,.12,.31l-4.83,22.81s-.02,.07-.04,.1l-.78,1.2c-.05,.08-.15,.14-.25,.14h-35.5Z" fill="#b8c598"/>
      <path d="M145.54,126.38c-3.05-.34-5.84-.51-8.28-.51s-4.6,.17-6.43,.51c-.02,0-.04,0-.05,0-.06,0-.12-.02-.18-.06-.07-.05-.11-.12-.12-.2-.2-1.54-.29-3.08-.29-4.57V23.2c-.1-4-.5-7.63-1.21-10.79-.83-3.91-2.56-5.81-5.29-5.81-.28,0-.57,.02-.87,.06-.01,0-.03,0-.04,0-.07,0-.14-.03-.2-.07-.07-.06-.1-.14-.1-.23v-1.71c0-.12,.07-.23,.18-.27,4.58-2,9.13-3.02,13.55-3.02,.12,0,.23,.07,.27,.18l36.77,82.29c1.72,3.81,3.11,7.28,4.14,10.32,.82,2.43,1.63,5.38,2.42,8.78V16.71c0-3.88-.83-6.67-2.47-8.29-1.28-1.26-3.17-1.9-5.62-1.9-.67,0-1.4,.05-2.16,.14-.01,0-.03,0-.04,0-.15,0-.28-.11-.3-.26l-.24-1.71c-.02-.13,.05-.26,.18-.32,4.25-1.83,9.03-2.84,14.22-3.02h0c.12,0,.24,.08,.28,.2,.56,1.51,.85,3.07,.85,4.63V125.57c0,.17-.13,.3-.3,.3h-2c-.12,0-.23-.07-.28-.18-2.2-5.21-8.61-19.54-19.04-42.59-10.42-23.02-17.98-39.94-22.46-50.29-1.84-4.19-3.64-9.13-5.33-14.7V114.55c0,2.1,.39,3.74,1.15,4.87,.76,1.14,1.6,1.93,2.51,2.33,.94,.42,2.27,.89,3.94,1.4,1.71,.52,2.69,.83,3,.95,.12,.04,.19,.16,.19,.28v1.71c0,.08-.04,.17-.1,.22-.06,.05-.13,.08-.2,.08-.01,0-.02,0-.03,0Z" fill="#b8c598"/>
      <path d="M206.39,125.87c-.14,0-.25-.09-.29-.22-.62-2.35-.94-5.19-.94-8.45V26.36c0-3.73-.1-6.84-.29-9.25-.19-2.38-.55-4.31-1.06-5.73-.5-1.38-1.18-2.35-2.05-2.88-.88-.54-2.03-.81-3.43-.81h-.71c-.22,0-.45,.03-.69,.08-.02,0-.04,0-.06,0-.06,0-.13-.02-.18-.06-.07-.05-.11-.13-.12-.22l-.2-2.48c-.01-.14,.08-.27,.22-.31,9.26-2.56,19.6-3.86,30.74-3.86,5.68,0,11.72,.35,17.95,1.03,.13,.01,.23,.11,.26,.23l.34,1.45s.01,.09,0,.13l-4.64,21.28c-.02,.09-.08,.17-.17,.21-.04,.02-.08,.03-.12,.03-.05,0-.1-.01-.14-.04l-1.56-.85c-.11-.06-.17-.18-.15-.3,.26-2.15,.46-4.16,.58-5.97,.13-1.81,.19-3.6,.19-5.32,0-1.63-.12-3.19-.35-4.65-2.35-.38-4.69-.67-6.97-.86-2.34-.2-4.71-.3-7.03-.3-4.14,0-8.26,.33-12.25,.98V55.6s26.4-2.53,26.41-2.53c.11,0,.21,.06,.27,.16l.49,.94c.04,.07,.04,.16,.02,.23l-2.29,7.01c-.04,.12-.16,.21-.29,.21,0,0-.02,0-.02,0-1.46-.11-2.95-.2-4.43-.26-1.51-.06-3.05-.08-4.58-.08-2.53,0-5.13,.09-7.74,.26-2.52,.16-5.15,.38-7.83,.65v57.86l16.87-.92c2.32-.11,4.3-.59,5.88-1.42,1.58-.83,2.96-2.02,4.1-3.54,1.15-1.54,2.17-3.47,3.04-5.74,.87-2.29,1.76-4.98,2.63-7.97,.03-.09,.1-.17,.19-.2,.03-.01,.07-.02,.1-.02,.06,0,.12,.02,.18,.06l1.42,1.03c.1,.07,.14,.19,.12,.31l-4.83,22.81s-.02,.07-.04,.1l-.78,1.2c-.05,.08-.15,.14-.25,.14h-35.5Z" fill="#b8c598"/>
      <path d="M279.86,127.58s-.09-.01-.14-.03l-3.37-1.71c-.08-.04-.14-.12-.16-.22l-18.41-104.33c-.67-3.82-1.52-6.63-2.53-8.36-.96-1.66-1.99-2.5-3.06-2.5-1.16,0-2.2,.07-3.08,.21-1.22,.19-1.52,.22-1.63,.22-.13,0-.25-.09-.29-.22l-.49-1.71c-.03-.11,0-.23,.09-.31,5.5-4.81,10.51-7.25,14.89-7.25,.15,0,.27,.1,.3,.25l14.99,85.36c1.15,6.81,1.79,13.05,1.9,18.55h.04L298.17,2.13c.03-.14,.15-.25,.29-.25,.01,0,.02,0,.04,0,1.91,.24,3.23,.95,3.93,2.11,.02,.03,.03,.07,.04,.1l16.11,89.21c.98,5.59,1.55,10.22,1.7,13.77h.04l16.17-95.62c.18-2.01-.33-3.44-1.51-4.23-.78-.52-1.91-.79-3.34-.79-.78,0-1.66,.08-2.63,.23-.02,0-.03,0-.05,0-.14,0-.27-.1-.29-.24l-.29-1.54c-.02-.13,.04-.26,.16-.32,4.22-2.12,8.64-3.19,13.12-3.19,.26,0,.6,.13,.8,.77,.13,.41,.15,.85,.08,1.29-2.59,16.02-10.05,57.71-22.17,123.91-.02,.09-.08,.17-.16,.21-.04,.02-.09,.03-.13,.03s-.09-.01-.13-.03l-3.42-1.71c-.08-.04-.14-.12-.16-.22l-17.81-98.96h-.15l-18.27,100.67c-.02,.09-.08,.17-.16,.21-.04,.02-.09,.03-.13,.03Z" fill="#b8c598"/>
      <path d="M392.58,127.41c-.12,0-.22-.07-.27-.17l-.39-.85c-.04-.08-.04-.17,0-.25,.63-1.43,.77-3.88,.44-7.28-.34-3.44-1.35-8.75-3-15.77l-8.01-35.15c-3.88-.11-7.52-.17-10.84-.17-4.66,0-8.83,.11-12.41,.33l-11.23,45.67c-.66,2.53-.42,4.66,.71,6.34,1.14,1.7,3.45,3.16,6.86,4.33,.13,.05,.22,.18,.2,.32l-.2,1.54c-.01,.08-.05,.15-.11,.2-.05,.04-.12,.06-.18,.06-.01,0-.03,0-.04,0-4.06-.53-7.63-.8-10.6-.8-1.14,0-2.22,.04-3.2,.12,0,0-.02,0-.02,0-.11,0-.21-.06-.26-.15-.21-.37-.43-.95-.66-1.78-.01-.05-.02-.1,0-.16L369.2,7.06s.04-.09,.07-.13c1.08-1.16,2.34-3.44,3.75-6.75,.05-.11,.16-.18,.28-.18h.49c.14,0,.26,.1,.29,.23l26.9,113.39c1.18,4.96,3.61,8.49,7.23,10.49,.09,.05,.15,.15,.15,.26v1.54c0,.09-.04,.17-.11,.23-.05,.05-.12,.07-.19,.07-.02,0-.04,0-.06,0-1.27-.24-2.71-.36-4.29-.36-1.01,0-2.11,.05-3.25,.15-2.93,.26-5.56,.73-7.8,1.4-.03,0-.06,.01-.09,.01Zm-33.02-64.92c2.28,.1,5.13,.15,8.46,.15s7.45-.05,11.98-.16l-9.84-43.02-10.6,43.02Z" fill="#b8c598"/>
      <path d="M416.2,125.87c-.14,0-.26-.09-.29-.22-.62-2.4-.94-5.25-.94-8.45V27.22c0-7.96-.54-13.38-1.62-16.13-.9-2.29-2.62-3.41-5.26-3.41-.43,0-.9,.03-1.38,.09-.01,0-.03,0-.04,0-.07,0-.13-.02-.18-.06-.06-.05-.1-.12-.11-.2l-.2-1.62c-.01-.12,.05-.25,.16-.3,5.39-2.8,10.6-4.22,15.47-4.22,.14,0,.26,.1,.29,.24,.65,3.14,.98,6.47,.98,9.89V120.04l15.89-.92c2.33-.11,4.32-.57,5.94-1.38,1.6-.8,3.01-2.09,4.18-3.83,1.18-1.76,2.17-3.64,2.92-5.58,.76-1.95,1.62-4.6,2.55-7.88,.03-.09,.1-.17,.19-.2,.03-.01,.06-.02,.1-.02,.06,0,.12,.02,.18,.06l1.42,1.03c.1,.07,.14,.19,.12,.3l-4.79,22.81s-.02,.08-.05,.11l-.83,1.2c-.06,.08-.15,.13-.25,.13h-34.47Z" fill="#b8c598"/>
    </g>
  </g>
</svg>