<?xml version="1.0" encoding="UTF-8"?>
<svg id="_圖層_2" data-name="圖層 2" xmlns="http://www.w3.org/2000/svg" viewBox="0 0 265.7 132.58">
  <defs>
    <style>
      .cls-1 {
        fill: #b6c396;
      }
    </style>
  </defs>
  <g id="_圖層_5" data-name="圖層 5">
    <g>
      <path class="cls-1" d="M23.35,129.56c-3.09-.34-5.91-.52-8.38-.52s-4.66,.17-6.51,.51c-.02,0-.04,0-.05,0-.06,0-.13-.02-.18-.06-.07-.05-.11-.12-.12-.2-.2-1.56-.3-3.12-.3-4.62V25.12c-.1-4.04-.51-7.72-1.23-10.92-.84-3.96-2.59-5.88-5.36-5.88-.28,0-.58,.02-.88,.06-.01,0-.03,0-.04,0-.07,0-.14-.03-.2-.07-.07-.06-.1-.14-.1-.23v-1.73c0-.12,.07-.23,.18-.27,4.63-2.03,9.24-3.05,13.71-3.05,.12,0,.23,.07,.27,.18L51.38,86.5c1.74,3.85,3.15,7.37,4.19,10.45,.83,2.47,1.65,5.46,2.46,8.92V18.55c0-3.93-.84-6.76-2.51-8.39-1.3-1.27-3.21-1.92-5.69-1.92-.68,0-1.42,.05-2.19,.15-.01,0-.03,0-.04,0-.15,0-.28-.11-.3-.26l-.25-1.73c-.02-.13,.05-.26,.18-.32,4.3-1.85,9.14-2.88,14.39-3.05h0c.12,0,.24,.08,.28,.19,.57,1.53,.86,3.1,.86,4.69v120.83c0,.17-.13,.3-.3,.3h-2.03c-.12,0-.23-.07-.28-.18-2.23-5.27-8.71-19.78-19.27-43.11-10.56-23.34-18.21-40.46-22.74-50.9-1.87-4.25-3.69-9.26-5.4-14.9V117.58c0,2.12,.39,3.78,1.16,4.94,.77,1.16,1.63,1.95,2.54,2.36,.95,.42,2.3,.9,3.99,1.41,1.73,.52,2.73,.84,3.04,.96,.12,.04,.19,.16,.19,.28v1.73c0,.09-.04,.17-.1,.22-.06,.05-.13,.08-.2,.08-.01,0-.02,0-.03,0Z"/>
      <path class="cls-1" d="M84.94,129.04c-.14,0-.26-.09-.29-.22-.63-2.38-.95-5.25-.95-8.55V28.32c0-3.78-.1-6.93-.3-9.36-.19-2.41-.55-4.36-1.07-5.8-.5-1.4-1.2-2.38-2.07-2.92-.89-.54-2.06-.82-3.48-.82h-.72c-.22,0-.46,.03-.7,.08-.02,0-.04,0-.06,0-.06,0-.13-.02-.18-.06-.07-.05-.11-.13-.12-.22l-.2-2.51c-.01-.14,.08-.27,.22-.31,9.37-2.59,19.84-3.9,31.12-3.9,5.75,0,11.87,.35,18.17,1.04,.13,.01,.23,.11,.26,.23l.35,1.47s.01,.09,0,.13l-4.7,21.54c-.02,.09-.08,.17-.17,.21-.04,.02-.08,.03-.12,.03-.05,0-.1-.01-.14-.04l-1.58-.86c-.11-.06-.17-.18-.15-.3,.26-2.18,.46-4.21,.59-6.04,.13-1.84,.2-3.65,.2-5.38s-.12-3.24-.36-4.71c-2.38-.38-4.75-.68-7.05-.87-2.38-.2-4.77-.3-7.12-.3-4.19,0-8.37,.33-12.4,.99V57.92s26.72-2.56,26.73-2.56c.11,0,.21,.06,.27,.16l.49,.95c.04,.07,.04,.15,.02,.23l-2.32,7.09c-.04,.12-.16,.21-.28,.21,0,0-.02,0-.02,0-1.48-.12-2.99-.2-4.49-.26-1.54-.06-3.1-.09-4.63-.09-2.55,0-5.18,.09-7.84,.26-2.55,.17-5.22,.39-7.92,.66v58.57l17.08-.93c2.35-.11,4.35-.6,5.96-1.44,1.6-.84,3-2.05,4.15-3.59,1.16-1.55,2.2-3.51,3.07-5.81,.88-2.32,1.78-5.03,2.66-8.06,.03-.09,.1-.17,.19-.2,.03-.01,.06-.02,.1-.02,.06,0,.12,.02,.18,.06l1.43,1.04c.1,.07,.14,.19,.12,.31l-4.89,23.09s-.02,.07-.04,.1l-.79,1.21c-.06,.08-.15,.14-.25,.14h-35.93Z"/>
      <path class="cls-1" d="M159.3,130.77s-.09-.01-.14-.03l-3.41-1.73c-.08-.04-.14-.12-.16-.22l-18.63-105.61c-.68-3.87-1.54-6.71-2.56-8.46-.98-1.68-2.02-2.53-3.1-2.53-1.18,0-2.22,.07-3.12,.21-1.23,.2-1.53,.22-1.65,.22-.13,0-.25-.09-.29-.22l-.49-1.73c-.03-.11,0-.23,.09-.31,5.57-4.87,10.64-7.34,15.07-7.34,.15,0,.27,.1,.3,.25l15.17,86.4c1.16,6.9,1.81,13.21,1.93,18.78h.05L177.84,3.79c.03-.14,.15-.25,.29-.25,.01,0,.02,0,.04,0,1.93,.24,3.27,.96,3.98,2.13,.02,.03,.03,.07,.04,.1l16.31,90.3c.99,5.66,1.57,10.35,1.72,13.94h.05L216.64,13.22c.19-2.07-.31-3.48-1.53-4.28-.8-.53-1.93-.8-3.38-.8-.79,0-1.68,.08-2.66,.24-.02,0-.03,0-.05,0-.14,0-.27-.1-.29-.24l-.3-1.56c-.03-.13,.04-.26,.16-.32,4.27-2.14,8.74-3.23,13.28-3.23,.26,0,.61,.13,.81,.77,.13,.42,.16,.86,.08,1.3-2.63,16.25-10.18,58.45-22.44,125.42-.02,.09-.08,.17-.16,.21-.04,.02-.09,.03-.13,.03s-.09-.01-.13-.03l-3.46-1.73c-.08-.04-.14-.12-.16-.22l-18.03-100.17h-.15l-18.49,101.9c-.02,.09-.08,.17-.16,.21-.04,.02-.09,.03-.13,.03Z"/>
      <path class="cls-1" d="M242.61,132.58c-5.6,0-11.41-2-17.27-5.93-.09-.06-.14-.17-.13-.28,1.02-9.25,2.65-18.03,4.85-26.08,.03-.1,.11-.18,.21-.21,.03,0,.05-.01,.08-.01,.08,0,.15,.03,.21,.08l1.33,1.3c.07,.07,.1,.16,.09,.25-.39,3.2-.59,7.18-.59,11.81s.15,7.36,.46,8.48c3.53,3.12,7.05,4.71,10.46,4.71,2.08,0,4.03-.55,5.8-1.64,1.78-1.09,3.34-2.76,4.64-4.96,1.31-2.21,2.36-4.99,3.1-8.26,.75-3.28,1.13-7.14,1.13-11.48,0-3.25-.2-6.13-.59-8.56-.39-2.41-1.15-4.8-2.25-7.1-1.11-2.3-2.67-4.8-4.66-7.43-2-2.64-4.66-5.83-7.89-9.5-5.2-5.94-9.05-11.72-11.44-17.2-2.39-5.49-3.61-11.15-3.61-16.81s.67-10.47,1.99-14.66c1.32-4.19,3.09-7.75,5.26-10.56,2.17-2.82,4.67-4.97,7.41-6.4,2.75-1.43,5.58-2.15,8.42-2.15,5.1,0,9.73,2.07,13.76,6.14,.06,.06,.09,.15,.08,.24-.92,8.91-2.55,17.69-4.85,26.08-.03,.1-.11,.18-.21,.21-.03,0-.06,.01-.08,.01-.07,0-.15-.03-.2-.08l-1.33-1.21c-.07-.06-.11-.16-.1-.25,.19-2.16,.35-4.26,.47-6.26,.11-1.98,.17-3.87,.17-5.6s-.05-3.37-.15-4.82c-.1-1.42-.22-2.79-.38-4.08-2.55-2.59-5.31-3.9-8.22-3.9-1.85,0-3.63,.5-5.31,1.47-1.68,.98-3.19,2.45-4.47,4.36-1.29,1.92-2.34,4.32-3.12,7.13-.78,2.81-1.18,6.09-1.18,9.74,0,2.56,.26,4.98,.78,7.2,.52,2.22,1.34,4.47,2.42,6.68,1.09,2.22,2.48,4.57,4.13,6.97,1.65,2.4,3.63,5.1,5.9,8.03,1.35,1.73,2.63,3.31,3.8,4.7,1.19,1.41,2.29,2.76,3.32,4.03,1.03,1.28,1.99,2.53,2.85,3.73,.87,1.21,1.7,2.53,2.47,3.92,3.66,6.76,5.52,14.72,5.52,23.67,0,5.99-.61,11.23-1.81,15.56-1.21,4.34-2.88,7.95-4.97,10.74-2.1,2.79-4.58,4.88-7.38,6.19-2.79,1.31-5.8,1.97-8.92,1.97Z"/>
    </g>
  </g>
</svg>