<?xml version="1.0" encoding="UTF-8"?>
<svg id="_圖層_2" data-name="圖層 2" xmlns="http://www.w3.org/2000/svg" viewBox="0 0 460.83 456.52">
  <defs>
    <style>
      .cls-1 {
        fill: #595959;
        font-family: NotoSerifTC-SemiBold-90ms-RKSJ-H, 'Noto Serif TC';
        font-size: 24px;
      }
    </style>
  </defs>
  <g id="_圖層_5" data-name="圖層 5">
    <g>
      <text class="cls-1" transform="translate(21.52 260.84) rotate(42.1)"><tspan x="0" y="0">2</tspan></text>
      <text class="cls-1" transform="translate(33.86 271.87) rotate(38.65)"><tspan x="0" y="0">0</tspan></text>
      <text class="cls-1" transform="translate(46.88 282.17) rotate(35.17)"><tspan x="0" y="0">2</tspan></text>
      <text class="cls-1" transform="translate(60.48 291.64) rotate(31.62)"><tspan x="0" y="0">3</tspan></text>
      <text class="cls-1" transform="translate(74.62 300.16) rotate(28.6)"><tspan x="0" y="0">.</tspan></text>
      <text class="cls-1" transform="translate(84.23 305.4) rotate(25.47)"><tspan x="0" y="0">1</tspan></text>
      <text class="cls-1" transform="translate(99.31 312.47) rotate(21.5)"><tspan x="0" y="0">1</tspan></text>
      <text class="cls-1" transform="translate(114.8 318.38) rotate(18.04)"><tspan x="0" y="0">.</tspan></text>
      <text class="cls-1" transform="translate(125.29 321.79) rotate(14.4)"><tspan x="0" y="0">3</tspan></text>
      <text class="cls-1" transform="translate(141.59 325.85) rotate(9.72)"><tspan x="0" y="0">0</tspan></text>
      <text class="cls-1" transform="translate(158.01 328.44) rotate(5.92)"><tspan x="0" y="0"> </tspan></text>
      <text class="cls-1" transform="translate(167.54 329.71) rotate(.15)"><tspan x="0" y="0">森</tspan></text>
      <text class="cls-1" transform="translate(195.72 329.47) rotate(-9.21)"><tspan x="0" y="0">鉅</tspan></text>
      <text class="cls-1" transform="translate(222.01 324.84) rotate(-13.49)"><tspan x="0" y="0">旭</tspan></text>
      <text class="cls-1" transform="translate(248.23 318.51) rotate(-17.67)"><tspan x="0" y="0">接</tspan></text>
      <text class="cls-1" transform="translate(274.46 310.04) rotate(-23.9)"><tspan x="0" y="0">待</tspan></text>
      <text class="cls-1" transform="translate(299.98 298.5) rotate(-32.32)"><tspan x="0" y="0">中</tspan></text>
      <text class="cls-1" transform="translate(323 283.45) rotate(-38.3)"><tspan x="0" y="0">心</tspan></text>
    </g>
  </g>
</svg>