<?xml version="1.0" encoding="UTF-8"?>
<svg id="_圖層_2" data-name="圖層 2" xmlns="http://www.w3.org/2000/svg" viewBox="0 0 48.07 14.64">
  <defs>
    <style>
      .cls-1 {
        fill: #748442;
      }
    </style>
  </defs>
  <g id="_圖層_3" data-name="圖層 3">
    <g>
      <path class="cls-1" d="M5.93,14.4s-.08-.02-.09-.06l-.04-.09c.07-.24,.11-.57,.11-1.03V7.12c-.75-.03-1.46-.04-2.11-.04s-1.25,.01-1.8,.04v6.07c0,.42,.05,.73,.15,.91,.01,.02-.02,.15-.02,.18-.01,.04-.05,.07-.09,.07,0,0-.02,0-.03,0-.2-.05-.41-.08-.6-.08-.24,0-.47,.04-.7,.12-.01,0-.02,0-.03,0-.04,0-.08-.02-.09-.06l-.04-.09c.18-.36,.3-.61,.35-.82,.05-.22,.08-.54,.08-.96V3.33c0-.87-.06-1.46-.17-1.75-.09-.23-.25-.33-.52-.33-.05,0-.15,.01-.16,.01-.02,0-.04,0-.06-.02-.02-.02-.03-.04-.04-.07L0,1s.02-.08,.05-.1c.6-.31,1.18-.47,1.73-.47,.05,0,.09,.03,.1,.08,.08,.34,.12,.71,.12,1.1V6.27c.65,.04,1.3,.06,1.95,.06s1.31-.02,1.96-.06V3.33c0-.87-.06-1.45-.18-1.75-.09-.23-.25-.33-.52-.33-.04,0-.15,.01-.15,.01-.02,0-.04,0-.06-.02-.02-.02-.03-.04-.04-.07l-.02-.18s.02-.08,.05-.1c.6-.31,1.18-.47,1.73-.47,.05,0,.09,.03,.1,.08,.07,.35,.11,.72,.11,1.1V12.46c0,.49,.06,.85,.17,1.06,.11,.21,.31,.36,.61,.46,.05,.02,.08,.06,.07,.11l-.04,.23s-.02,.05-.04,.07c-.02,.01-.04,.02-.05,.02,0,0-.02,0-.02,0-.39-.09-.69-.14-.89-.15h0c-.22,0-.47,.05-.76,.15-.01,0-.02,0-.03,0Z"/>
      <path class="cls-1" d="M9.89,14.4s-.08-.02-.09-.06l-.04-.09c.07-.24,.11-.57,.11-1.03V3.33c0-.87-.06-1.45-.18-1.75-.09-.23-.25-.33-.52-.33-.04,0-.15,.01-.15,.01-.02,0-.04,0-.06-.02-.02-.02-.03-.04-.04-.07l-.02-.18s.02-.08,.05-.1c.6-.31,1.18-.47,1.73-.47,.05,0,.09,.03,.1,.08,.07,.35,.11,.72,.11,1.1V12.46c0,.49,.06,.85,.17,1.06,.11,.21,.31,.36,.61,.46,.05,.02,.08,.06,.07,.11l-.04,.23s-.02,.05-.04,.07c-.02,.01-.04,.02-.05,.02,0,0-.02,0-.02,0-.39-.09-.69-.14-.89-.15h0c-.22,0-.47,.05-.76,.15-.01,0-.02,0-.03,0Z"/>
      <path class="cls-1" d="M15.05,14.64c-.62,0-1.27-.22-1.91-.66-.03-.02-.05-.06-.04-.09,.11-1.01,.29-1.96,.53-2.84,0-.03,.04-.06,.07-.07,0,0,.02,0,.03,0,.03,0,.05,0,.07,.03l.15,.14c-.01,.43-.03,.86-.03,1.36,0,.62,.03,.84,.05,.91,.34,.29,.71,.46,1.07,.46,.22,0,.41-.06,.6-.17,.18-.11,.35-.29,.48-.52,.14-.23,.25-.53,.33-.88,.08-.35,.12-.77,.12-1.23,0-.35-.02-.66-.06-.92-.04-.26-.12-.51-.24-.75-.12-.25-.29-.51-.5-.8-.22-.29-.5-.63-.85-1.03-.57-.65-.99-1.28-1.26-1.89-.26-.61-.4-1.23-.4-1.85s.07-1.15,.22-1.61c.15-.46,.34-.86,.58-1.17,.24-.31,.52-.55,.83-.71,.31-.16,.63-.24,.95-.24,.57,0,1.09,.23,1.54,.69-.07,1.05-.25,2.01-.5,2.93,0,.03-.04,.06-.07,.07,0,0-.02,0-.03,0-.02,0-.05,0-.07-.03l-.15-.13c-.01-.32,0-.55,.02-.76,.01-.21,.02-.42,.02-.61s0-.36-.02-.52c-.01-.16-.02-.31-.04-.45-.24-.22-.52-.35-.82-.35-.19,0-.37,.05-.54,.15-.17,.1-.33,.25-.46,.45-.14,.2-.25,.46-.33,.76-.08,.3-.12,.65-.12,1.04,0,.27,.03,.53,.08,.77,.06,.23,.14,.47,.26,.71,.12,.24,.27,.49,.44,.75,.18,.26,.39,.55,.64,.87,.15,.19,.28,.36,.41,.51,.13,.15,.25,.3,.36,.44,.11,.14,.22,.28,.31,.41,.1,.14,.19,.28,.27,.43,.4,.74,.61,1.62,.61,2.6,0,.66-.07,1.23-.2,1.71-.13,.48-.32,.88-.55,1.19-.23,.31-.51,.55-.83,.69-.31,.15-.65,.22-1,.22Z"/>
      <path class="cls-1" d="M21.39,14.4s-.08-.03-.09-.07c0-.02-.04-.14-.03-.16,.07-.17,.1-.49,.1-.96V1.14c-.25,0-.53,.02-.85,.04-.34,.02-.73,.06-1.17,.1-.02,.18-.02,.37-.02,.57,0,.33,.02,.7,.07,1.12,0,.04-.02,.08-.05,.1l-.18,.09s-.03,.01-.05,.01c-.01,0-.03,0-.04,0-.03-.01-.05-.04-.06-.07l-.5-2.28,.07-.27s.04-.06,.08-.07c.53-.08,1.03-.14,1.53-.17,.49-.03,.98-.05,1.46-.05s1.01,.02,1.57,.06c.56,.04,1.18,.1,1.85,.18,.04,0,.07,.03,.08,.07l.06,.2-.5,2.34s-.03,.06-.06,.07c-.01,0-.03,0-.04,0-.02,0-.03,0-.05-.01l-.18-.09s-.06-.06-.05-.1c.02-.22,.04-.42,.06-.61,.01-.19,.02-.37,.02-.53,0-.2,0-.38-.02-.54-.42-.05-.8-.08-1.14-.1-.32-.02-.61-.04-.86-.04V12.46c0,.25,.01,.47,.04,.64,.02,.17,.07,.31,.13,.43,.06,.11,.13,.2,.23,.27,.1,.07,.23,.13,.38,.18,.05,.01,.08,.06,.07,.11l-.04,.23s-.02,.05-.04,.07c-.02,.01-.04,.02-.05,.02,0,0-.02,0-.02,0-.21-.05-.4-.09-.55-.11-.15-.02-.28-.04-.38-.04-.09,0-.2,.01-.32,.04-.12,.02-.25,.06-.4,.11-.01,0-.02,0-.03,0Z"/>
      <path class="cls-1" d="M29.79,14.64c-.55,0-1.07-.17-1.54-.51-.47-.34-.87-.82-1.21-1.44-.34-.61-.61-1.4-.8-2.33-.19-.93-.29-1.97-.29-3.1,0-1,.1-1.96,.31-2.85,.2-.9,.48-1.67,.82-2.3,.34-.64,.75-1.15,1.23-1.53,.48-.38,.99-.58,1.51-.58,1.23,0,2.19,.69,2.85,2.04,.65,1.33,.98,3.19,.98,5.53,0,.99-.1,1.94-.3,2.81-.2,.88-.48,1.63-.82,2.24-.35,.62-.76,1.11-1.23,1.46-.48,.36-.98,.54-1.51,.54Zm-.09-13.86c-.42,0-.78,.16-1.12,.5-.34,.34-.62,.81-.84,1.4-.22,.59-.39,1.28-.51,2.04-.12,.77-.18,1.59-.18,2.45,0,.91,.06,1.76,.17,2.52,.11,.76,.26,1.4,.45,1.92,.19,.52,.41,.96,.66,1.31,.25,.35,.51,.61,.78,.77,.27,.16,.54,.24,.83,.24,.42,0,.78-.16,1.12-.48,.34-.33,.62-.78,.83-1.35,.21-.58,.38-1.25,.49-2,.11-.75,.17-1.57,.17-2.43,0-1.12-.08-2.15-.24-3.05-.16-.9-.38-1.63-.65-2.18-.27-.55-.58-.97-.91-1.25-.33-.28-.68-.42-1.04-.42Z"/>
      <path class="cls-1" d="M40.22,14.52s-.05-.01-.07-.03l-.08-.08c-.03-.12-.04-.23-.11-.43-.06-.17-.13-.36-.22-.58l-.47-1.18c-.23-.57-.96-2.35-2.2-5.35v-.35s.03-.09,.07-.1c.34-.07,.64-.19,.88-.36,.24-.17,.44-.4,.6-.66,.16-.27,.28-.6,.35-.97,.08-.37,.11-.8,.11-1.26-.01-.37-.04-.68-.09-.93-.05-.24-.13-.44-.24-.58-.11-.14-.26-.25-.44-.31-.19-.07-.44-.1-.74-.1-.11,0-.23,0-.36,.01l-.31,.02c.01,.12,.02,.25,.02,.39V12.46c0,.25,.01,.47,.04,.64,.02,.17,.07,.31,.13,.43,.06,.11,.13,.2,.23,.27,.1,.07,.23,.13,.38,.18,.05,.02,.08,.07,.07,.12l-.05,.23s-.02,.05-.04,.06c-.02,.01-.03,.02-.05,.02,0,0-.02,0-.02,0-.22-.05-.4-.09-.56-.11-.15-.02-.28-.04-.38-.04-.09,0-.2,.01-.31,.04-.12,.02-.26,.06-.4,.11-.01,0-.02,0-.03,0-.04,0-.08-.03-.09-.07,0-.02-.04-.14-.03-.16,.07-.17,.1-.49,.1-.96V3.33c0-.41-.01-.75-.03-1.03-.02-.27-.06-.49-.11-.65-.05-.15-.12-.25-.2-.31-.05-.04-.17-.08-.43-.08-.05,0-.16-.04-.16-.09l-.02-.27s.03-.09,.08-.11l.64-.15c.19-.04,.36-.08,.53-.12,.17-.03,.33-.06,.5-.09,.16-.03,.32-.05,.48-.06,.15-.02,.27-.03,.37-.03,.09,0,.18,0,.27,0,.33,0,.65,.04,.93,.13,.29,.09,.55,.25,.76,.47,.21,.22,.38,.52,.5,.89,.12,.36,.17,.83,.17,1.38,0,.41-.05,.81-.16,1.18-.1,.37-.25,.71-.42,1.02-.18,.31-.39,.58-.62,.82-.22,.22-.46,.4-.71,.54v.04l2.18,5.42c.18,.47,.42,.83,.71,1.08,.28,.21,.46,.34,.52,.37l.16,.1s.1,.08,.1,.12v.18c0,.06-.04,.1-.1,.1-.61,0-1.13,.11-1.55,.34-.01,0-.03,.01-.05,.01Z"/>
      <path class="cls-1" d="M44.69,14.4s-.08-.03-.09-.07c0-.02-.04-.14-.03-.16,.07-.17,.1-.49,.1-.96v-5.14l-1.7-5.37c-.14-.41-.26-.7-.37-.88-.09-.15-.19-.25-.29-.27-.04,0-.08-.01-.13-.01-.08,0-.16,.01-.26,.04,0,0-.02,0-.03,0-.04,0-.07-.02-.09-.06l-.08-.17s0-.09,.02-.12c.55-.48,.98-.74,1.32-.79,0,0,0,0,0,0,.3,0,.4,.36,.43,.47l1.85,5.98c1.06-2.91,1.67-4.69,1.81-5.31,.04-.2,0-.35-.1-.46-.11-.12-.31-.2-.59-.25-.04,0-.08-.04-.08-.09l-.02-.18c0-.05,.03-.1,.08-.11,.25-.04,.48-.06,.69-.06,.33,0,.61,.06,.81,.17,.08,.07,.14,.17,.09,.35-.06,.22-.13,.44-.2,.67-.07,.23-.82,2.35-2.17,6.12v4.72c0,.49,.06,.85,.17,1.06,.1,.21,.31,.36,.61,.46,.05,.02,.08,.06,.07,.11l-.04,.23s-.02,.05-.04,.07c-.02,.01-.04,.02-.05,.02,0,0-.02,0-.02,0-.39-.09-.69-.14-.89-.15h0c-.22,0-.47,.05-.76,.15-.01,0-.02,0-.03,0Z"/>
    </g>
  </g>
</svg>