<?xml version="1.0" encoding="UTF-8"?>
<svg id="_圖層_2" data-name="圖層 2" xmlns="http://www.w3.org/2000/svg" viewBox="0 0 63.68 14.64">
  <defs>
    <style>
      .cls-1 {
        fill: #748442;
      }
    </style>
  </defs>
  <g id="refer">
    <g>
      <path class="cls-1" d="M3.83,14.64c-.55,0-1.07-.17-1.54-.51-.46-.34-.87-.82-1.21-1.44-.34-.61-.61-1.4-.8-2.33-.19-.93-.29-1.97-.29-3.1,0-1,.1-1.96,.31-2.85,.2-.89,.48-1.67,.82-2.3,.34-.64,.76-1.15,1.23-1.53,.48-.38,.99-.58,1.51-.58,1.23,0,2.19,.69,2.85,2.04,.65,1.33,.98,3.19,.98,5.53,0,.99-.1,1.94-.3,2.81-.2,.88-.48,1.63-.82,2.24-.35,.62-.76,1.11-1.23,1.46-.48,.36-.98,.54-1.51,.54Zm-.09-13.86c-.41,0-.79,.17-1.12,.5-.34,.34-.62,.81-.84,1.4-.22,.59-.39,1.28-.51,2.04-.12,.77-.18,1.59-.18,2.45,0,.91,.06,1.76,.17,2.52,.11,.76,.26,1.4,.45,1.92,.19,.52,.41,.96,.66,1.31,.25,.35,.51,.61,.78,.77,.27,.16,.55,.24,.83,.24,.41,0,.79-.16,1.11-.48,.34-.33,.61-.78,.83-1.35,.21-.58,.38-1.25,.49-2,.11-.75,.17-1.57,.17-2.43,0-1.12-.08-2.15-.24-3.05-.16-.9-.38-1.63-.65-2.18-.27-.55-.58-.97-.91-1.25-.33-.28-.68-.42-1.04-.42Z"/>
      <path class="cls-1" d="M9.92,14.25s-.09-.03-.1-.07c-.07-.27-.11-.59-.11-.95V3.33c0-.87-.06-1.46-.17-1.75-.09-.23-.25-.33-.52-.33-.05,0-.15,.01-.16,.01-.02,0-.04,0-.06-.02-.02-.02-.03-.04-.04-.07l-.02-.18s.02-.08,.05-.1c.6-.31,1.19-.47,1.73-.47,.05,0,.09,.03,.1,.08,.07,.35,.11,.72,.11,1.1V13.47l1.68-.1c.25-.01,.46-.06,.63-.14,.17-.08,.31-.22,.43-.4,.13-.19,.23-.39,.31-.6,.08-.21,.18-.5,.28-.86,0-.03,.03-.06,.06-.07,.01,0,.02,0,.03,0,.02,0,.04,0,.06,.02l.16,.11s.05,.06,.04,.1l-.53,2.51-.11,.17s-.05,.04-.08,.04h-3.79Z"/>
      <path class="cls-1" d="M16.33,14.4s-.08-.02-.09-.06l-.04-.09c.07-.24,.11-.57,.11-1.03V3.33c0-.87-.06-1.46-.18-1.75-.09-.23-.25-.33-.52-.33-.04,0-.15,.01-.15,.01-.02,0-.04,0-.06-.02-.02-.02-.03-.04-.04-.07l-.02-.18s.02-.08,.05-.1c.6-.31,1.18-.47,1.73-.47,.05,0,.09,.03,.1,.08,.07,.35,.11,.72,.11,1.1V12.46c0,.49,.06,.85,.17,1.06,.11,.21,.31,.36,.61,.46,.05,.02,.08,.06,.07,.11l-.04,.23s-.02,.05-.04,.07c-.02,.01-.04,.02-.05,.02,0,0-.02,0-.02,0-.39-.09-.69-.14-.89-.15h0c-.22,0-.47,.05-.76,.15-.01,0-.02,0-.03,0Z"/>
      <path class="cls-1" d="M22.81,14.43l-.43-.19c-.41-2.03-.79-3.91-1.2-5.67-.41-1.76-.91-3.76-1.48-5.95-.11-.42-.22-.72-.33-.9-.07-.11-.17-.24-.28-.24-.12,0-.27,.01-.44,.04,0,0,0,0-.01,0-.04,0-.08-.03-.1-.07l-.05-.19s0-.08,.03-.1c.63-.55,1.16-.81,1.62-.81,.04,0,.08,.03,.1,.07,.19,.67,.38,1.33,.55,2,.18,.67,.36,1.42,.56,2.24l.44,1.89c.1,.44,.95,4.23,.95,4.23,.08,.34,.14,.71,.18,1.1,.01-.07,.03-.15,.04-.24,.07-.4,.15-.79,.24-1.19L25.19,1.58c.02-.19-.03-.32-.14-.39-.08-.05-.19-.08-.33-.08-.08,0-.18,0-.28,.02,0,0-.01,0-.02,0-.05,0-.09-.03-.1-.08l-.03-.17s.01-.09,.05-.11c.47-.24,.99-.36,1.53-.36,.04,0,.14,.09,.16,.13,.02,.06,.02,.11,.01,.17l-.13,.72c-.05,.25-1.02,4.47-2.98,12.92,0,.03-.03,.05-.05,.07-.01,0-.03,.01-.04,.01-.01,0-.03,0-.04,0Z"/>
      <path class="cls-1" d="M27.87,14.25s-.09-.03-.1-.07c-.07-.26-.11-.58-.11-.95V3.24c0-.41-.01-.75-.03-1.01-.02-.26-.06-.46-.11-.61-.05-.14-.12-.23-.2-.28-.09-.05-.2-.08-.34-.08,0,0-.02,0-.04,0-.04,0-.09,0-.11-.02-.02-.02-.11-.04-.11-.07l-.02-.27s.03-.09,.07-.1c1.03-.28,2.17-.43,3.4-.43,.63,0,1.29,.04,1.98,.11,.04,0,.08,.04,.09,.08l.04,.16-.51,2.38s-.03,.06-.06,.07c-.01,0-.03,0-.04,0-.02,0-.03,0-.05-.01l-.17-.09s-.06-.06-.05-.1c.03-.24,.05-.45,.06-.65,.01-.2,.02-.39,.02-.58,0-.16-.01-.31-.03-.45-.24-.04-.48-.07-.71-.09-.26-.02-.51-.03-.77-.03-.43,0-.86,.03-1.28,.1V6.38s2.83-.27,2.84-.27c.04,0,.07,.02,.09,.05l.05,.1-.25,.85s-.05,.07-.09,.07c0,0-.33-.02-.49-.03-.16,0-.33,0-.5,0-.28,0-.56,0-.85,.03-.26,.02-.53,.04-.8,.07v6.23l1.79-.1c.25-.01,.45-.06,.62-.15,.17-.09,.31-.21,.43-.37,.12-.16,.23-.37,.32-.61,.1-.25,.19-.54,.29-.87,0-.03,.03-.06,.06-.07,.01,0,.02,0,.03,0,.02,0,.04,0,.06,.02l.16,.11s.05,.06,.04,.1l-.53,2.51-.1,.17s-.05,.05-.08,.05h-3.9Z"/>
      <path class="cls-1" d="M38.79,14.4s-.08-.03-.09-.07c0-.02-.04-.14-.03-.16,.07-.17,.1-.49,.1-.96V1.14c-.25,0-.53,.02-.85,.04-.34,.02-.73,.06-1.17,.1-.02,.18-.02,.37-.02,.57,0,.33,.03,.7,.07,1.12,0,.04-.02,.08-.05,.1l-.18,.09s-.03,.01-.05,.01c-.01,0-.03,0-.04,0-.03-.01-.05-.04-.06-.07l-.5-2.28,.07-.27s.04-.06,.08-.07c.53-.08,1.04-.14,1.53-.17,.49-.03,.98-.05,1.46-.05s1.01,.02,1.57,.06c.56,.04,1.18,.1,1.85,.18,.04,0,.07,.03,.08,.07l.06,.2-.5,2.34s-.03,.06-.06,.07c-.01,0-.03,0-.04,0-.02,0-.03,0-.05-.01l-.18-.09s-.06-.06-.05-.1c.02-.22,.04-.42,.06-.61,.01-.19,.02-.37,.02-.53,0-.2,0-.38-.02-.54-.42-.05-.8-.08-1.14-.1-.32-.02-.61-.04-.86-.04V12.46c0,.25,.01,.47,.04,.64,.03,.17,.07,.31,.13,.43,.06,.11,.13,.2,.23,.27,.1,.07,.23,.13,.38,.18,.05,.01,.08,.06,.07,.11l-.04,.23s-.02,.05-.04,.06c-.02,.01-.04,.02-.05,.02,0,0-.02,0-.02,0-.21-.05-.4-.09-.55-.11-.15-.02-.28-.04-.38-.04-.09,0-.2,.01-.32,.04-.12,.02-.25,.06-.4,.11-.01,0-.02,0-.03,0Z"/>
      <path class="cls-1" d="M48.6,14.52s-.05-.01-.07-.03l-.08-.08c-.03-.12-.04-.23-.11-.43-.06-.17-.13-.36-.22-.58l-.47-1.18c-.23-.57-.96-2.35-2.2-5.35v-.35s.03-.09,.07-.1c.34-.07,.64-.19,.88-.36,.24-.17,.44-.4,.6-.66,.16-.27,.28-.6,.35-.97,.08-.37,.11-.8,.11-1.26-.01-.36-.04-.68-.09-.93-.05-.24-.13-.44-.24-.58-.11-.15-.25-.25-.44-.31-.19-.07-.44-.1-.74-.1-.11,0-.23,0-.36,.01l-.31,.02c.01,.12,.02,.25,.02,.39V12.46c0,.25,.01,.47,.04,.64,.03,.17,.07,.31,.13,.43,.06,.11,.13,.2,.23,.27,.1,.07,.23,.13,.38,.18,.05,.02,.08,.07,.07,.12l-.05,.23s-.02,.05-.04,.06c-.02,.01-.03,.02-.05,.02,0,0-.02,0-.02,0-.22-.05-.4-.09-.56-.11-.15-.02-.28-.04-.38-.04-.09,0-.2,.01-.31,.04-.12,.02-.26,.06-.4,.11-.01,0-.02,0-.03,0-.04,0-.08-.03-.09-.07,0-.02-.04-.14-.03-.16,.07-.17,.1-.49,.1-.96V3.33c0-.41-.01-.75-.03-1.03-.02-.27-.06-.49-.11-.65-.05-.15-.12-.25-.2-.31-.05-.04-.17-.08-.44-.08-.05,0-.16-.04-.16-.09l-.02-.27s.03-.09,.08-.11l.64-.15c.19-.04,.36-.08,.53-.12,.17-.03,.33-.06,.5-.09,.16-.03,.32-.05,.47-.06,.15-.02,.27-.03,.37-.03,.09,0,.18,0,.27,0,.33,0,.65,.04,.93,.13,.29,.09,.55,.25,.76,.47,.21,.22,.38,.52,.5,.89,.12,.36,.17,.83,.17,1.38,0,.41-.05,.81-.16,1.18-.1,.37-.25,.71-.42,1.02-.18,.31-.39,.58-.62,.82-.22,.22-.46,.4-.71,.54v.04l2.18,5.42c.18,.47,.42,.83,.71,1.08,.28,.21,.46,.34,.52,.38l.22,.13,.05,.26c0,.06-.04,.1-.1,.1-.61,0-1.13,.11-1.55,.34-.02,0-.03,.01-.05,.01Z"/>
      <path class="cls-1" d="M52.15,14.25s-.09-.03-.1-.07c-.07-.26-.11-.58-.11-.95V3.24c0-.41-.01-.75-.03-1.01-.02-.26-.06-.46-.11-.61-.05-.14-.12-.23-.2-.28-.09-.05-.2-.08-.34-.08,0,0-.02,0-.04,0-.04,0-.09,0-.11-.02-.02-.02-.11-.04-.11-.07l-.02-.27s.03-.09,.07-.1c1.03-.28,2.17-.43,3.4-.43,.63,0,1.29,.04,1.98,.11,.04,0,.08,.04,.09,.08l.04,.16-.51,2.38s-.03,.06-.06,.07c-.01,0-.03,0-.04,0-.02,0-.03,0-.05-.01l-.17-.09s-.06-.06-.05-.1c.03-.24,.05-.45,.06-.65,.01-.2,.02-.39,.02-.58,0-.16-.01-.31-.03-.45-.24-.04-.48-.07-.71-.09-.26-.02-.51-.03-.77-.03-.43,0-.86,.03-1.28,.1V6.38s2.83-.27,2.84-.27c.04,0,.07,.02,.09,.05l.05,.1-.25,.85s-.05,.07-.09,.07c0,0-.33-.02-.49-.03-.16,0-.33,0-.5,0-.28,0-.56,0-.85,.03-.26,.02-.53,.04-.8,.07v6.23l1.79-.1c.25-.01,.45-.06,.62-.15,.17-.09,.31-.21,.43-.37,.12-.16,.23-.37,.32-.61,.1-.25,.19-.54,.29-.87,0-.03,.03-.06,.06-.07,.01,0,.02,0,.03,0,.02,0,.04,0,.06,.02l.16,.11s.05,.06,.04,.1l-.53,2.51-.1,.17s-.05,.05-.08,.05h-3.9Z"/>
      <path class="cls-1" d="M59.05,14.25s-.09-.03-.1-.07c-.07-.26-.11-.58-.11-.95V3.24c0-.41-.01-.75-.03-1.01-.02-.26-.06-.46-.11-.61-.05-.14-.12-.23-.2-.28-.09-.05-.2-.08-.34-.08,0,0-.02,0-.04,0-.04,0-.09,0-.11-.02-.02-.02-.11-.04-.11-.07l-.02-.27s.03-.09,.07-.1c1.03-.28,2.17-.43,3.4-.43,.63,0,1.29,.04,1.98,.11,.04,0,.08,.04,.09,.08l.04,.16-.51,2.38s-.03,.06-.06,.07c-.01,0-.03,0-.04,0-.02,0-.03,0-.05-.01l-.17-.09s-.06-.06-.05-.1c.03-.24,.05-.45,.06-.65,.01-.2,.02-.39,.02-.58,0-.16-.01-.31-.03-.45-.24-.04-.48-.07-.71-.09-.26-.02-.51-.03-.77-.03-.43,0-.86,.03-1.28,.1V6.38s2.83-.27,2.84-.27c.04,0,.07,.02,.09,.05l.05,.1-.25,.85s-.05,.07-.09,.07c0,0-.33-.02-.49-.03-.16,0-.33,0-.5,0-.28,0-.56,0-.85,.03-.26,.02-.53,.04-.8,.07v6.23l1.79-.1c.25-.01,.45-.06,.62-.15,.17-.09,.31-.21,.43-.37,.12-.16,.23-.37,.32-.61,.1-.25,.19-.54,.29-.87,0-.03,.03-.06,.06-.07,.01,0,.02,0,.03,0,.02,0,.04,0,.06,.02l.16,.11s.05,.06,.04,.1l-.53,2.51-.1,.17s-.05,.05-.08,.05h-3.9Z"/>
    </g>
  </g>
</svg>