<?xml version="1.0" encoding="UTF-8"?>
<svg id="_圖層_2" data-name="圖層 2" xmlns="http://www.w3.org/2000/svg" viewBox="0 0 17 22.53">
  <defs>
    <style>
      .cls-1 {
        fill: #969696;
      }
    </style>
  </defs>
  <g id="_圖層_2-2" data-name="圖層 2">
    <g>
      <path class="cls-1" d="M1.08,7.21c-.05-.01-.11,.03-.11,.08-.03,1.1,.3,2.21,1.01,3.15,.71,.94,1.69,1.56,2.76,1.83,.05,.01,.11-.03,.11-.08,.03-1.1-.3-2.21-1.01-3.15-.71-.94-1.69-1.56-2.76-1.83Z"/>
      <path class="cls-1" d="M.06,12.69c-.05,.01-.08,.08-.05,.13,.52,.97,1.36,1.77,2.45,2.23s2.25,.51,3.3,.22c.05-.01,.08-.08,.05-.13-.52-.97-1.36-1.77-2.45-2.23-1.09-.46-2.25-.51-3.3-.22Z"/>
      <path class="cls-1" d="M10.27,11.54c0-.06-.06-.09-.11-.08-.99,.32-1.88,.96-2.5,1.9-.62,.93-.87,2.01-.78,3.04,0,.06,.06,.09,.11,.08,.99-.32,1.88-.96,2.5-1.9,.62-.93,.87-2.01,.78-3.04Z"/>
      <path class="cls-1" d="M10.4,5.71c.02-.05-.01-.11-.07-.12-1.03-.16-2.12,.02-3.09,.58s-1.67,1.41-2.06,2.37c-.02,.05,.01,.11,.07,.12,1.03,.16,2.12-.02,3.09-.58,.97-.56,1.67-1.41,2.06-2.37Z"/>
      <path class="cls-1" d="M8.72,0c-.91,.42-1.69,1.16-2.15,2.14-.46,.98-.54,2.05-.28,3.02,.91-.42,1.69-1.16,2.15-2.14s.54-2.05,.28-3.02Z"/>
      <path class="cls-1" d="M7.24,11.35c0,.52-.42,.94-.94,.94s-.94-.42-.94-.94,.42-.94,.94-.94,.94,.42,.94,.94Z"/>
      <path class="cls-1" d="M5.21,6.4c0,.52-.42,.94-.94,.94s-.94-.42-.94-.94,.42-.94,.94-.94,.94,.42,.94,.94Z"/>
      <path class="cls-1" d="M6.15,16.96c0,.52-.42,.94-.94,.94s-.94-.42-.94-.94,.42-.94,.94-.94,.94,.42,.94,.94Z"/>
      <path class="cls-1" d="M16.44,22.51s-.02,0-.07-.02c-.04-.01-.11-.03-.2-.06-.17-.05-.42-.13-.73-.24-.62-.21-1.5-.54-2.51-1.02-.51-.24-1.05-.51-1.61-.83-.56-.32-1.14-.68-1.71-1.09-.29-.2-.57-.42-.85-.65-.28-.23-.56-.47-.82-.73-.54-.51-1.04-1.07-1.48-1.68l-.16-.23-.08-.12-.08-.12-.15-.24-.14-.24-.07-.12-.06-.12-.13-.25-.12-.25c-.04-.08-.08-.17-.11-.26-.28-.68-.48-1.39-.57-2.09-.1-.7-.1-1.38-.05-2.01,.05-.64,.17-1.23,.31-1.77,.08-.27,.14-.52,.23-.76,.04-.12,.08-.24,.12-.35,.04-.11,.08-.22,.13-.33,.08-.21,.16-.4,.24-.58,.07-.18,.15-.34,.22-.49,.14-.29,.26-.51,.34-.67,.08-.15,.12-.23,.12-.23,0,0-.04,.08-.12,.24-.08,.16-.19,.38-.31,.68-.07,.15-.14,.31-.21,.49-.07,.18-.15,.37-.22,.59-.04,.11-.07,.21-.11,.33-.03,.11-.07,.23-.1,.35-.08,.24-.13,.5-.2,.76-.12,.54-.21,1.13-.24,1.75-.03,.63,0,1.29,.12,1.96,.11,.67,.33,1.34,.62,1.99,.03,.08,.07,.16,.11,.24l.12,.24,.13,.23,.07,.12,.07,.11,.14,.23,.15,.22,.08,.11,.08,.11,.16,.22c.45,.57,.95,1.09,1.48,1.56,.26,.24,.54,.46,.82,.67,.28,.21,.56,.41,.84,.6,.57,.38,1.14,.7,1.69,.99,.55,.29,1.09,.54,1.59,.75,1,.43,1.86,.72,2.47,.9,.3,.09,.54,.16,.7,.2,.08,.02,.14,.04,.18,.05,.04,0,.06,.01,.06,.01h0c.23,.06,.38,.29,.32,.53-.06,.23-.29,.38-.53,.32,0,0-.01,0-.02,0Z"/>
    </g>
  </g>
</svg>