<?xml version="1.0" encoding="UTF-8"?>
<svg id="_圖層_2" data-name="圖層 2" xmlns="http://www.w3.org/2000/svg" viewBox="0 0 532.65 131.85">
  <defs>
    <style>
      .cls-1 {
        fill: #b7c497;
      }
    </style>
  </defs>
  <g id="_圖層_5" data-name="圖層 5">
    <g>
      <path class="cls-1" d="M34.24,131.85c-4.86,0-9.44-1.53-13.6-4.54-4.15-3-7.8-7.34-10.85-12.87-3.04-5.52-5.46-12.58-7.18-20.98-1.72-8.38-2.59-17.81-2.59-28.05,0-9.04,.93-17.71,2.77-25.79,1.84-8.08,4.33-15.07,7.4-20.8,3.08-5.73,6.78-10.35,10.99-13.72C25.39,1.72,29.89,0,34.53,0c10.95,0,19.48,6.12,25.37,18.2,5.85,12.01,8.82,28.84,8.82,50.03,0,8.98-.92,17.54-2.74,25.45-1.82,7.91-4.31,14.72-7.4,20.25-3.1,5.54-6.8,9.95-10.99,13.12-4.22,3.19-8.7,4.8-13.34,4.8Zm-.83-126.04c-3.9,0-7.47,1.59-10.6,4.74-3.16,3.17-5.77,7.52-7.77,12.92-2,5.42-3.56,11.71-4.62,18.7-1.07,6.99-1.61,14.52-1.61,22.38,0,8.32,.52,16.05,1.54,22.99,1.02,6.93,2.4,12.85,4.11,17.59,1.71,4.74,3.74,8.8,6.04,12.06,2.29,3.25,4.73,5.65,7.26,7.13,2.51,1.48,5.15,2.22,7.86,2.22,3.9,0,7.46-1.52,10.56-4.53,3.13-3.03,5.71-7.23,7.67-12.49,1.97-5.28,3.49-11.43,4.53-18.27,1.03-6.85,1.56-14.31,1.56-22.17,0-10.24-.75-19.6-2.22-27.8-1.47-8.2-3.47-14.91-5.96-19.96-2.48-5.04-5.32-8.93-8.44-11.57-3.1-2.62-6.43-3.95-9.89-3.95Z"/>
      <path class="cls-1" d="M84.61,128.35c-.14,0-.26-.09-.29-.22-.62-2.41-.94-5.25-.94-8.45V29.69c0-7.96-.54-13.38-1.62-16.13-.9-2.29-2.62-3.41-5.26-3.41-.43,0-.9,.03-1.38,.09-.01,0-.03,0-.04,0-.07,0-.13-.02-.18-.06-.06-.05-.1-.12-.11-.2l-.2-1.62c-.02-.12,.05-.24,.16-.3,5.39-2.8,10.6-4.22,15.47-4.22,.14,0,.26,.1,.29,.24,.65,3.14,.98,6.47,.98,9.89V122.52l15.89-.92c2.33-.11,4.32-.58,5.94-1.38,1.6-.8,3.01-2.09,4.18-3.83,1.19-1.77,2.17-3.65,2.92-5.58,.76-1.95,1.62-4.6,2.55-7.88,.03-.09,.1-.17,.19-.2,.03-.01,.07-.02,.1-.02,.06,0,.12,.02,.18,.06l1.42,1.03c.1,.07,.14,.19,.12,.3l-4.79,22.81s-.02,.08-.05,.11l-.83,1.2c-.06,.08-.15,.13-.25,.13h-34.47Z"/>
      <path class="cls-1" d="M137.81,129.71c-.12,0-.23-.07-.28-.19l-.34-.85c-.03-.07-.03-.15,0-.23,.67-1.61,1-4.62,1-8.94V29.69c0-7.95-.55-13.38-1.64-16.12-.91-2.29-2.63-3.41-5.25-3.41-.43,0-.89,.03-1.37,.09-.01,0-.03,0-.04,0-.07,0-.13-.02-.18-.06-.06-.05-.1-.12-.11-.2l-.2-1.62c-.02-.12,.05-.24,.16-.3,5.39-2.8,10.58-4.22,15.42-4.22,.14,0,.26,.1,.29,.24,.65,3.14,.98,6.47,.98,9.89V112.67c0,4.55,.53,7.89,1.58,9.95,1.03,2.03,3.03,3.53,5.93,4.46,.14,.05,.23,.19,.2,.34l-.39,2.05c-.02,.08-.06,.15-.13,.2-.05,.03-.11,.05-.16,.05-.02,0-.05,0-.07,0-3.58-.85-6.34-1.3-8.19-1.36h-.31c-1.8,0-4.09,.45-6.82,1.35-.03,.01-.06,.02-.09,.02Z"/>
      <path class="cls-1" d="M192.09,130.06s-.08,0-.12-.02l-3.91-1.71c-.09-.04-.16-.12-.18-.22-3.18-17.81-6.67-34.93-10.37-50.87-3.72-15.99-8.26-34.2-13.5-54.12-1-3.88-2.04-6.7-3.09-8.38-1.01-1.61-2.05-2.42-3.09-2.42-1.13,0-2.51,.11-4.08,.34-.01,0-.03,0-.04,0-.13,0-.25-.09-.29-.22l-.49-1.71c-.03-.11,0-.23,.09-.31,5.5-4.81,10.33-7.25,14.36-7.25,.13,0,.25,.09,.29,.22,1.75,6.02,3.44,12.13,5.03,18.17,1.59,6.04,3.29,12.9,5.06,20.39,1.77,7.52,3.12,13.26,4.03,17.22,.93,4.06,2.47,10.89,4.57,20.3,2.13,9.57,3.47,15.61,4.03,18.12,.99,4.07,1.63,8.62,1.9,13.52h.3c.14-.7,.48-2.62,1.02-5.73,.62-3.58,1.36-7.21,2.2-10.78L214.01,13.91c.18-2.03-.31-3.42-1.51-4.21-.78-.52-1.91-.79-3.34-.79-.78,0-1.66,.08-2.63,.23-.02,0-.03,0-.05,0-.14,0-.27-.1-.29-.24l-.29-1.54c-.02-.13,.04-.26,.16-.32,4.22-2.12,8.8-3.19,13.61-3.19,.28,0,.65,.13,.85,.77,.13,.41,.15,.85,.08,1.29-.36,2.11-.74,4.28-1.15,6.5-.41,2.23-9.52,41.74-27.08,117.42-.02,.09-.08,.16-.16,.2-.04,.02-.09,.03-.13,.03Z"/>
      <path class="cls-1" d="M232.79,128.35c-.14,0-.26-.09-.29-.22-.62-2.35-.94-5.19-.94-8.45V28.84c0-3.73-.1-6.84-.29-9.25-.19-2.38-.55-4.31-1.06-5.73-.49-1.38-1.18-2.35-2.05-2.88-.88-.54-2.03-.81-3.43-.81h-.71c-.22,0-.45,.03-.69,.08-.02,0-.04,0-.06,0-.06,0-.13-.02-.18-.06-.07-.05-.11-.13-.12-.22l-.2-2.48c-.01-.14,.08-.27,.22-.31,9.26-2.56,19.6-3.86,30.74-3.86,5.68,0,11.72,.35,17.95,1.03,.13,.01,.23,.11,.26,.23l.34,1.45s.01,.09,0,.13l-4.64,21.28c-.02,.09-.08,.17-.17,.21-.04,.02-.08,.03-.12,.03-.05,0-.1-.01-.14-.04l-1.56-.85c-.11-.06-.17-.18-.15-.3,.26-2.15,.46-4.16,.58-5.97,.13-1.82,.19-3.61,.19-5.32s-.12-3.2-.35-4.65c-2.35-.38-4.69-.67-6.97-.86-2.35-.2-4.71-.3-7.03-.3-4.14,0-8.26,.33-12.25,.98V58.08s26.4-2.53,26.41-2.53c.11,0,.21,.06,.27,.16l.49,.94c.04,.07,.04,.15,.02,.23l-2.29,7.01c-.04,.12-.16,.21-.29,.21,0,0-.02,0-.02,0-1.45-.11-2.94-.2-4.43-.26-1.51-.06-3.05-.09-4.58-.09-2.52,0-5.13,.09-7.74,.26-2.52,.16-5.15,.38-7.83,.66v57.86l16.87-.92c2.32-.11,4.3-.59,5.88-1.42,1.58-.83,2.96-2.02,4.1-3.55,1.15-1.54,2.17-3.47,3.04-5.74,.87-2.29,1.76-4.97,2.63-7.97,.03-.09,.1-.17,.19-.2,.03-.01,.06-.02,.1-.02,.06,0,.12,.02,.18,.06l1.42,1.03c.1,.07,.14,.19,.12,.31l-4.83,22.81s-.02,.07-.04,.1l-.78,1.2c-.06,.08-.15,.14-.25,.14h-35.5Z"/>
      <path class="cls-1" d="M322.06,129.71c-.12,0-.24-.08-.28-.2l-.29-.85c-.02-.07-.02-.14,0-.21,.63-1.61,.96-4.62,.96-8.95V9.15c-2.39,.06-5.2,.2-8.37,.42-3.24,.22-6.98,.56-11.12,1-.18,1.79-.27,3.71-.27,5.71,0,3,.23,6.44,.68,10.22,.01,.12-.05,.24-.16,.3l-1.61,.85s-.09,.03-.14,.03c-.04,0-.09,0-.13-.03-.08-.04-.15-.12-.17-.21l-4.59-20.76s0-.1,0-.15l.59-1.97c.03-.11,.13-.19,.24-.21,4.74-.74,9.4-1.27,13.84-1.58,4.46-.31,8.92-.47,13.25-.47s9.13,.19,14.23,.56c5.1,.37,10.74,.93,16.76,1.67,.12,.01,.21,.09,.25,.2l.59,1.79c.02,.05,.02,.11,0,.16l-4.59,20.76c-.02,.09-.08,.17-.17,.21-.04,.02-.08,.03-.13,.03-.05,0-.1-.01-.14-.03l-1.61-.85c-.11-.06-.17-.18-.16-.3,.23-1.98,.4-3.86,.51-5.58,.11-1.73,.17-3.37,.17-4.89,0-1.99-.09-3.82-.26-5.45-4.02-.44-7.68-.78-10.91-1-3.16-.22-6.01-.36-8.49-.42V112.67c0,2.31,.12,4.31,.36,5.94,.24,1.61,.65,2.99,1.21,4.09,.56,1.09,1.32,1.99,2.25,2.67,.94,.69,2.16,1.26,3.62,1.71,.15,.04,.24,.19,.21,.34l-.39,2.05c-.02,.08-.06,.15-.13,.2-.05,.03-.11,.05-.16,.05-.02,0-.05,0-.07,0-1.94-.45-3.64-.8-5.06-1.02-1.41-.22-2.61-.34-3.57-.34-.89,0-1.9,.11-2.99,.34-1.11,.22-2.35,.57-3.7,1.02-.03,.01-.06,.02-.1,.02Z"/>
      <path class="cls-1" d="M406.17,130.82c-.08,0-.16-.03-.22-.09l-.73-.77c-.05-.06-.08-.13-.08-.21,0-.76-.27-1.92-.81-3.45-.56-1.57-1.24-3.35-2.02-5.28-.8-1.97-2.22-5.53-4.27-10.68-2.04-5.14-8.58-21.05-19.97-48.66-.02-.04-.02-.08-.02-.11v-2.82c0-.14,.1-.27,.24-.29,3.2-.62,5.97-1.75,8.23-3.37,2.26-1.62,4.16-3.71,5.63-6.23,1.47-2.52,2.57-5.54,3.26-8.97,.69-3.44,1.04-7.33,1.04-11.56-.1-3.37-.38-6.26-.85-8.57-.46-2.28-1.24-4.15-2.31-5.56-1.07-1.4-2.51-2.43-4.28-3.06-1.8-.64-4.12-.97-6.91-.97-1.03,0-2.14,.04-3.27,.13-1.06,.08-2.2,.17-3.42,.27,.17,1.29,.25,2.66,.25,4.09V112.67c0,2.31,.12,4.31,.36,5.94,.24,1.61,.65,2.99,1.21,4.09,.56,1.09,1.33,1.99,2.28,2.67,.96,.69,2.19,1.27,3.65,1.71,.15,.05,.24,.2,.21,.35l-.44,2.05c-.02,.08-.06,.15-.13,.19-.05,.03-.1,.05-.16,.05-.02,0-.04,0-.07,0-1.97-.45-3.69-.8-5.11-1.02-1.41-.22-2.59-.34-3.52-.34-.86,0-1.86,.11-2.97,.34-1.12,.22-2.37,.56-3.72,1.02-.03,.01-.06,.02-.1,.02-.12,0-.24-.08-.28-.2l-.29-.85c-.02-.07-.02-.14,0-.21,.63-1.61,.96-4.62,.96-8.95V29.69c0-3.73-.1-6.9-.29-9.42-.19-2.5-.55-4.53-1.06-6.04-.5-1.47-1.2-2.52-2.08-3.14-.81-.56-2.26-.85-4.3-.85-.18,0-.55,0-.56,0-.16,0-.29-.12-.3-.28l-.2-2.48c-.01-.15,.09-.28,.23-.32,2.18-.51,4.11-.97,5.79-1.37,1.69-.4,3.3-.76,4.79-1.07,1.52-.31,3.04-.59,4.51-.81,1.49-.23,2.93-.42,4.29-.56,1.37-.14,2.47-.24,3.31-.3,.85-.06,1.65-.09,2.39-.09,2.98,0,5.77,.39,8.31,1.17,2.56,.78,4.81,2.16,6.67,4.1,1.86,1.94,3.33,4.58,4.37,7.85,1.03,3.26,1.55,7.43,1.55,12.4,0,3.71-.47,7.28-1.4,10.59-.93,3.31-2.2,6.38-3.79,9.13-1.59,2.75-3.46,5.2-5.57,7.28-2.06,2.04-4.29,3.71-6.62,4.97v.7l19.85,49.59c1.7,4.32,3.92,7.7,6.61,10.05,2.62,1.96,4.25,3.13,4.81,3.47,.57,.34,1.23,.74,1.98,1.2,.09,.05,.14,.15,.14,.26v1.62c0,.17-.13,.3-.3,.3-5.69,0-10.52,1.05-14.36,3.13-.04,.02-.09,.04-.14,.04Z"/>
      <path class="cls-1" d="M433.44,128.35c-.14,0-.26-.09-.29-.22-.62-2.35-.94-5.19-.94-8.45V28.84c0-3.73-.1-6.84-.29-9.25-.19-2.38-.55-4.31-1.06-5.73-.49-1.38-1.18-2.35-2.05-2.88-.88-.54-2.03-.81-3.43-.81h-.71c-.22,0-.45,.03-.69,.08-.02,0-.04,0-.06,0-.06,0-.13-.02-.18-.06-.07-.05-.11-.13-.12-.22l-.2-2.48c-.01-.14,.08-.27,.22-.31,9.26-2.56,19.6-3.86,30.74-3.86,5.68,0,11.72,.35,17.95,1.03,.13,.01,.23,.11,.26,.23l.34,1.45s.01,.09,0,.13l-4.64,21.28c-.02,.09-.08,.17-.17,.21-.04,.02-.08,.03-.12,.03-.05,0-.1-.01-.14-.04l-1.56-.85c-.11-.06-.17-.18-.15-.3,.26-2.15,.46-4.16,.58-5.97,.13-1.82,.19-3.61,.19-5.32s-.12-3.2-.35-4.65c-2.35-.38-4.69-.67-6.97-.86-2.35-.2-4.71-.3-7.03-.3-4.14,0-8.26,.33-12.25,.98V58.08s26.4-2.53,26.41-2.53c.11,0,.21,.06,.27,.16l.49,.94c.04,.07,.04,.15,.02,.23l-2.29,7.01c-.04,.12-.16,.21-.29,.21,0,0-.02,0-.02,0-1.45-.11-2.94-.2-4.43-.26-1.51-.06-3.05-.09-4.58-.09-2.52,0-5.13,.09-7.74,.26-2.52,.16-5.15,.38-7.83,.66v57.86l16.87-.92c2.32-.11,4.3-.59,5.88-1.42,1.58-.83,2.96-2.02,4.1-3.55,1.15-1.54,2.17-3.47,3.04-5.74,.87-2.29,1.76-4.97,2.63-7.97,.03-.09,.1-.17,.19-.2,.03-.01,.06-.02,.1-.02,.06,0,.12,.02,.18,.06l1.42,1.03c.1,.07,.14,.19,.12,.31l-4.83,22.81s-.02,.07-.04,.1l-.78,1.2c-.06,.08-.15,.14-.25,.14h-35.5Z"/>
      <path class="cls-1" d="M491.24,128.35c-.14,0-.26-.09-.29-.22-.62-2.35-.94-5.19-.94-8.45V28.84c0-3.73-.1-6.84-.29-9.25-.19-2.38-.55-4.31-1.06-5.73-.49-1.38-1.18-2.35-2.05-2.88-.88-.54-2.03-.81-3.43-.81h-.71c-.22,0-.45,.03-.69,.08-.02,0-.04,0-.06,0-.06,0-.13-.02-.18-.06-.07-.05-.11-.13-.12-.22l-.2-2.48c-.01-.14,.08-.27,.22-.31,9.26-2.56,19.6-3.86,30.74-3.86,5.68,0,11.72,.35,17.95,1.03,.13,.01,.23,.11,.26,.23l.34,1.45s.01,.09,0,.13l-4.64,21.28c-.02,.09-.08,.17-.17,.21-.04,.02-.08,.03-.12,.03-.05,0-.1-.01-.14-.04l-1.56-.85c-.11-.06-.17-.18-.15-.3,.26-2.15,.46-4.16,.58-5.97,.13-1.82,.19-3.61,.19-5.32s-.12-3.2-.35-4.65c-2.35-.38-4.69-.67-6.97-.86-2.35-.2-4.71-.3-7.03-.3-4.14,0-8.26,.33-12.25,.98V58.08s26.4-2.53,26.41-2.53c.11,0,.21,.06,.27,.16l.49,.94c.04,.07,.04,.15,.02,.23l-2.29,7.01c-.04,.12-.16,.21-.29,.21,0,0-.02,0-.02,0-1.45-.11-2.94-.2-4.43-.26-1.51-.06-3.05-.09-4.58-.09-2.52,0-5.13,.09-7.74,.26-2.52,.16-5.15,.38-7.83,.66v57.86l16.87-.92c2.32-.11,4.3-.59,5.88-1.42,1.58-.83,2.96-2.02,4.1-3.55,1.15-1.54,2.17-3.47,3.04-5.74,.87-2.29,1.76-4.97,2.63-7.97,.03-.09,.1-.17,.19-.2,.03-.01,.06-.02,.1-.02,.06,0,.12,.02,.18,.06l1.42,1.03c.1,.07,.14,.19,.12,.31l-4.83,22.81s-.02,.07-.04,.1l-.78,1.2c-.06,.08-.15,.14-.25,.14h-35.5Z"/>
    </g>
  </g>
</svg>