<?xml version="1.0" encoding="UTF-8"?>
<svg id="_圖層_2" data-name="圖層 2" xmlns="http://www.w3.org/2000/svg" viewBox="0 0 190.72 47.77">
  <defs>
    <style>
      .cls-1 {
        fill: #b6c396;
      }
    </style>
  </defs>
  <g id="_1" data-name="1">
    <g>
      <path class="cls-1" d="M3.7,46.51c-.09,0-.17-.06-.19-.15-.23-.85-.34-1.89-.34-3.07V10.6c0-1.34-.04-2.46-.1-3.32-.07-.85-.19-1.54-.38-2.04-.17-.48-.41-.81-.7-.99-.3-.18-.7-.28-1.19-.28h-.25c-.07,0-.15,0-.23,.03-.01,0-.03,0-.04,0-.04,0-.08-.01-.12-.04-.05-.03-.08-.09-.08-.14L0,2.92c0-.1,.05-.18,.15-.21,3.34-.92,7.07-1.39,11.09-1.39,2.05,0,4.23,.12,6.47,.37,.08,0,.15,.07,.17,.15l.12,.52-1.67,7.75c-.01,.06-.05,.11-.11,.14-.03,.01-.05,.02-.08,.02-.03,0-.07,0-.1-.02l-.56-.31c-.07-.04-.11-.12-.1-.2,.09-.78,.16-1.49,.21-2.14,.05-.65,.07-1.29,.07-1.91,0-.56-.04-1.09-.12-1.59-.82-.13-1.64-.23-2.44-.3-.84-.07-1.69-.11-2.52-.11-1.46,0-2.91,.11-4.32,.34V21.02s9.41-.9,9.42-.9c.07,0,.14,.04,.18,.11l.18,.34s.03,.1,.01,.15l-.83,2.52c-.03,.08-.1,.14-.19,.14,0,0-.01,0-.02,0-.52-.04-1.06-.07-1.59-.09-.54-.02-1.08-.03-1.64-.03-.91,0-1.84,.03-2.78,.09-.89,.06-1.8,.13-2.73,.23v20.65l5.98-.33c.82-.04,1.52-.21,2.08-.5,.56-.29,1.04-.71,1.44-1.25,.41-.55,.77-1.23,1.08-2.04,.31-.82,.63-1.79,.94-2.86,.02-.06,.07-.11,.13-.13,.02,0,.04-.01,.06-.01,.04,0,.08,.01,.12,.04l.51,.37c.06,.05,.09,.13,.08,.2l-1.74,8.21-.31,.5c-.04,.06-.1,.09-.17,.09H3.7Z"/>
      <path class="cls-1" d="M29.19,46.7c-1.09-.12-2.09-.18-2.97-.18s-1.64,.06-2.3,.18c-.01,0-.02,0-.04,0-.04,0-.08-.01-.12-.04-.04-.03-.07-.08-.08-.14-.07-.56-.11-1.12-.11-1.66V9.46c-.03-1.43-.18-2.73-.43-3.86-.29-1.36-.88-2.02-1.81-2.02-.1,0-.2,0-.3,.02,0,0-.02,0-.03,0-.05,0-.09-.02-.13-.05-.04-.04-.07-.09-.07-.15v-.62c0-.08,.05-.15,.12-.18,1.66-.73,3.31-1.09,4.91-1.09,.08,0,.15,.05,.18,.12l13.24,29.62c.62,1.37,1.12,2.63,1.49,3.72,.23,.69,.46,1.5,.69,2.41V7.12c0-1.37-.29-2.35-.86-2.92-.44-.44-1.1-.66-1.96-.66-.24,0-.5,.02-.77,.05,0,0-.02,0-.03,0-.1,0-.18-.07-.2-.17l-.09-.62c-.01-.09,.04-.18,.12-.21,1.54-.66,3.27-1.03,5.15-1.09h0c.08,0,.16,.05,.19,.13,.21,.55,.31,1.13,.31,1.7V46.31c0,.11-.09,.2-.2,.2h-.72c-.08,0-.15-.05-.18-.12-.79-1.87-3.1-7.03-6.85-15.33-3.76-8.3-6.48-14.39-8.09-18.11-.6-1.36-1.18-2.95-1.74-4.72V42.34c0,.74,.13,1.31,.4,1.7,.26,.4,.55,.67,.86,.81,.34,.15,.81,.32,1.41,.5,.62,.19,.98,.3,1.09,.34,.08,.03,.13,.1,.13,.19v.62c0,.06-.02,.11-.07,.15-.04,.03-.08,.05-.13,.05,0,0-.01,0-.02,0Z"/>
      <path class="cls-1" d="M51.11,46.51c-.09,0-.17-.06-.19-.15-.23-.85-.34-1.89-.34-3.07V10.6c0-1.34-.04-2.46-.1-3.32-.07-.85-.19-1.54-.38-2.04-.17-.48-.41-.81-.7-.99-.3-.18-.7-.28-1.19-.28h-.25c-.07,0-.15,0-.23,.03-.01,0-.03,0-.04,0-.04,0-.08-.01-.12-.04-.05-.03-.08-.09-.08-.14l-.07-.89c0-.1,.05-.18,.15-.21,3.34-.92,7.07-1.39,11.09-1.39,2.05,0,4.23,.12,6.47,.37,.08,0,.15,.07,.17,.15l.12,.52-1.67,7.75c-.01,.06-.05,.11-.11,.14-.03,.01-.05,.02-.08,.02-.03,0-.07,0-.1-.02l-.56-.31c-.07-.04-.11-.12-.1-.2,.09-.78,.16-1.49,.21-2.14,.05-.65,.07-1.29,.07-1.91,0-.56-.04-1.09-.12-1.59-.82-.13-1.64-.23-2.44-.3-.84-.07-1.69-.11-2.52-.11-1.46,0-2.91,.11-4.32,.34V21.02s9.41-.9,9.42-.9c.07,0,.14,.04,.18,.11l.18,.34s.03,.1,.01,.15l-.83,2.52c-.03,.08-.1,.14-.19,.14,0,0-.01,0-.02,0-.52-.04-1.06-.07-1.59-.09-.54-.02-1.08-.03-1.64-.03-.91,0-1.84,.03-2.78,.09-.89,.06-1.8,.13-2.73,.23v20.65l5.98-.33c.82-.04,1.52-.21,2.08-.5,.56-.29,1.04-.71,1.44-1.25,.41-.55,.77-1.23,1.08-2.04,.31-.82,.63-1.79,.94-2.86,.02-.06,.07-.11,.13-.13,.02,0,.04-.01,.06-.01,.04,0,.08,.01,.12,.04l.51,.37c.06,.05,.09,.13,.08,.2l-1.74,8.21-.31,.5c-.04,.06-.1,.09-.17,.09h-12.78Z"/>
      <path class="cls-1" d="M85.38,47.4c-.05,0-.11-.02-.14-.06l-.26-.28s-.06-.09-.06-.14c0-.26-.1-.67-.29-1.21-.2-.56-.44-1.19-.73-1.9-.29-.71-.8-1.99-1.54-3.85-.73-1.84-3.15-7.74-7.19-17.52l-.02-1.09c0-.1,.07-.18,.16-.2,1.14-.22,2.12-.62,2.93-1.2,.81-.58,1.48-1.32,2-2.21,.53-.9,.92-1.98,1.16-3.2,.25-1.23,.37-2.63,.37-4.14-.03-1.21-.14-2.24-.3-3.07-.16-.81-.44-1.47-.82-1.96-.37-.49-.88-.85-1.5-1.07-.64-.23-1.46-.34-2.46-.34-.37,0-.76,.02-1.17,.05-.35,.03-.73,.06-1.13,.09,.05,.44,.08,.9,.08,1.39V40.77c0,.83,.04,1.54,.13,2.12,.08,.57,.23,1.06,.43,1.45,.2,.38,.46,.69,.79,.93,.34,.24,.77,.45,1.29,.6,.1,.03,.16,.13,.14,.23l-.16,.74c-.01,.05-.04,.1-.09,.13-.03,.02-.07,.03-.11,.03-.01,0-.03,0-.04,0-.71-.16-1.32-.29-1.83-.37-.5-.08-.92-.12-1.25-.12-.3,0-.66,.04-1.05,.12-.4,.08-.85,.2-1.33,.36-.02,0-.04,.01-.06,.01-.08,0-.16-.05-.19-.14l-.11-.31s-.01-.09,0-.14c.22-.57,.34-1.64,.34-3.19V10.91c0-1.34-.04-2.48-.1-3.38-.07-.89-.2-1.62-.38-2.15-.17-.51-.41-.87-.72-1.08-.28-.19-.78-.29-1.5-.29,0,0-.2,0-.2,0-.1,0-.19-.08-.2-.18l-.07-.89c0-.1,.06-.19,.15-.21l2.08-.49c.61-.14,1.18-.27,1.73-.39,.55-.11,1.09-.21,1.63-.29,.54-.08,1.05-.15,1.55-.2s.89-.09,1.19-.11c.3-.02,.59-.03,.87-.03,1.08,0,2.1,.14,3.02,.42,.94,.29,1.76,.79,2.44,1.5,.68,.71,1.22,1.67,1.59,2.86,.37,1.18,.56,2.69,.56,4.49,0,1.35-.17,2.64-.51,3.84-.34,1.2-.8,2.31-1.37,3.31-.57,1-1.25,1.88-2.02,2.64-.74,.73-1.53,1.33-2.36,1.78v.22l7.14,17.8c.61,1.54,1.4,2.75,2.35,3.58,1.17,.87,1.58,1.16,1.72,1.24l.71,.43c.06,.04,.1,.1,.1,.17v.58c0,.11-.09,.2-.2,.2-2.03,0-3.76,.38-5.13,1.11-.03,.02-.06,.02-.09,.02Z"/>
      <path class="cls-1" d="M104.27,47.77c-1.81,0-3.51-.59-5.06-1.75-1.54-1.15-2.88-2.77-3.99-4.82-1.1-2.04-1.98-4.58-2.6-7.56-.63-2.97-.94-6.26-.94-9.76,0-3.22,.25-6.18,.75-8.82,.5-2.64,1.19-4.9,2.06-6.71,.87-1.82,1.92-3.37,3.14-4.62,1.22-1.25,2.55-2.18,3.96-2.75,1.41-.57,2.93-.86,4.51-.86,2.72,0,5.3,.99,7.69,2.94,.05,.05,.08,.12,.07,.19-.41,2.56-1,5.3-1.76,8.14-.02,.06-.06,.11-.12,.14-.02,0-.05,.01-.07,.01-.04,0-.08-.01-.11-.03l-.47-.31c-.06-.04-.1-.11-.09-.18,.18-2.38,.23-4.37,.13-5.93-.49-.48-.97-.88-1.45-1.2-.49-.33-1.01-.59-1.55-.78-.55-.19-1.14-.32-1.78-.39-.64-.07-1.37-.11-2.17-.11-1.04,0-2.02,.24-2.92,.7-.9,.47-1.75,1.25-2.54,2.32-.79,1.09-1.48,2.47-2.05,4.11-.57,1.65-1.02,3.74-1.34,6.21-.33,2.47-.49,5.3-.49,8.42s.29,5.84,.87,8.48c.58,2.64,1.36,4.89,2.31,6.69,.95,1.79,2.06,3.23,3.3,4.26,1.22,1.02,2.5,1.54,3.79,1.54s2.41-.21,3.28-.61c.86-.4,1.79-1.21,2.76-2.4v-4.97c0-2.85-.2-4.79-.58-5.76-.32-.79-.93-1.18-1.87-1.18-.14,0-.29,0-.44,.03,0,0-.02,0-.02,0-.1,0-.19-.07-.2-.18l-.07-.58c-.01-.08,.03-.16,.11-.2,1.95-1.02,3.84-1.53,5.61-1.53,.09,0,.18,.07,.2,.16,.24,1.14,.36,2.34,.36,3.58v8.83c0,1.89,.11,3.11,.32,3.61,.02,.04,.02,.09,0,.14l-.11,.34c-.03,.08-.1,.14-.19,.14-.89,0-1.87,.25-2.92,.73-1.06,.5-2.23,1.01-3.47,1.51-1.25,.51-2.54,.77-3.84,.77Z"/>
      <path class="cls-1" d="M120.65,46.51c-.09,0-.17-.06-.19-.15-.23-.85-.34-1.89-.34-3.07V10.6c0-1.34-.04-2.46-.1-3.32-.07-.85-.19-1.54-.38-2.04-.17-.48-.41-.81-.7-.99-.3-.18-.7-.28-1.19-.28h-.25c-.07,0-.15,0-.23,.03-.01,0-.03,0-.04,0-.04,0-.08-.01-.12-.04-.05-.03-.08-.09-.08-.14l-.07-.89c0-.1,.05-.18,.15-.21,3.34-.92,7.07-1.39,11.09-1.39,2.05,0,4.23,.12,6.47,.37,.08,0,.15,.07,.17,.15l.12,.52-1.67,7.75c-.01,.06-.05,.11-.11,.14-.03,.01-.05,.02-.08,.02-.03,0-.07,0-.1-.02l-.56-.31c-.07-.04-.11-.12-.1-.2,.09-.78,.16-1.49,.21-2.14,.05-.65,.07-1.29,.07-1.91,0-.56-.04-1.09-.12-1.59-.82-.13-1.64-.23-2.44-.3-.84-.07-1.69-.11-2.52-.11-1.46,0-2.91,.11-4.32,.34V21.02s9.41-.9,9.42-.9c.07,0,.14,.04,.18,.11l.18,.34s.03,.1,.01,.15l-.83,2.52c-.03,.08-.1,.14-.19,.14,0,0-.01,0-.02,0-.52-.04-1.06-.07-1.59-.09-.54-.02-1.08-.03-1.64-.03-.91,0-1.84,.03-2.78,.09-.89,.06-1.8,.13-2.73,.23v20.65l5.98-.33c.82-.04,1.52-.21,2.08-.5,.56-.29,1.04-.71,1.44-1.25,.41-.55,.77-1.23,1.08-2.04,.31-.82,.63-1.79,.94-2.86,.02-.06,.07-.11,.13-.13,.02,0,.04-.01,.06-.01,.04,0,.08,.01,.12,.04l.51,.37c.06,.05,.09,.13,.08,.2l-1.74,8.21-.31,.5c-.04,.06-.1,.09-.17,.09h-12.78Z"/>
      <path class="cls-1" d="M145.23,47c-.08,0-.16-.05-.19-.14l-.11-.31s-.01-.09,0-.14c.22-.57,.34-1.64,.34-3.19V3.6c-.83,.02-1.81,.07-2.92,.15-1.15,.08-2.47,.2-3.93,.35-.06,.62-.09,1.28-.09,1.97,0,1.07,.08,2.31,.24,3.67,.01,.08-.03,.16-.1,.2l-.58,.31s-.06,.02-.09,.02c-.03,0-.06,0-.08-.02-.06-.03-.1-.08-.11-.14l-1.65-7.48s0-.07,0-.1l.21-.71c.02-.07,.08-.13,.16-.14,1.71-.27,3.39-.46,4.99-.57,1.61-.11,3.22-.17,4.78-.17s3.29,.07,5.13,.2c1.83,.13,3.86,.33,6.04,.6,.08,0,.14,.06,.17,.14l.21,.65s.01,.07,0,.11l-1.65,7.48c-.01,.06-.05,.11-.11,.14-.03,.01-.06,.02-.08,.02-.03,0-.06,0-.09-.02l-.58-.31c-.07-.04-.11-.12-.1-.2,.08-.71,.14-1.38,.18-2.01,.04-.62,.06-1.21,.06-1.76,0-.68-.03-1.31-.09-1.88-1.42-.15-2.71-.27-3.85-.35-1.1-.08-2.1-.13-2.96-.15V40.77c0,.83,.04,1.54,.13,2.12,.08,.57,.23,1.06,.43,1.45,.2,.38,.46,.69,.78,.93,.33,.24,.76,.44,1.28,.6,.1,.03,.16,.13,.14,.23l-.14,.74c-.01,.05-.04,.1-.09,.13-.03,.02-.07,.03-.11,.03-.02,0-.03,0-.05,0-.69-.16-1.31-.29-1.81-.37-.5-.08-.93-.12-1.27-.12-.31,0-.67,.04-1.06,.12-.39,.08-.84,.2-1.32,.36-.02,0-.04,.01-.06,.01Z"/>
      <path class="cls-1" d="M161.11,47c-.08,0-.15-.05-.19-.13l-.12-.31s-.02-.1,0-.15c.23-.57,.35-1.64,.35-3.18V10.91c0-2.85-.2-4.79-.58-5.77-.31-.79-.9-1.17-1.8-1.17-.15,0-.31,.01-.48,.03,0,0-.02,0-.03,0-.04,0-.09-.01-.12-.04-.04-.03-.07-.08-.08-.13l-.07-.58c-.01-.08,.03-.16,.11-.2,1.95-1.02,3.84-1.53,5.59-1.53,.09,0,.18,.07,.2,.16,.24,1.14,.36,2.34,.36,3.58V40.77c0,1.62,.19,2.81,.56,3.54,.36,.71,1.06,1.23,2.08,1.56,.1,.03,.15,.13,.14,.23l-.14,.74c-.01,.05-.04,.1-.09,.13-.03,.02-.07,.03-.11,.03-.02,0-.03,0-.05,0-1.28-.3-2.27-.47-2.93-.49h-.11c-.64,0-1.46,.16-2.43,.48-.02,0-.04,.01-.06,.01Z"/>
      <path class="cls-1" d="M181.92,47.77c-1.82,0-3.52-.58-5.07-1.73-1.53-1.14-2.87-2.77-3.99-4.85-1.11-2.07-1.98-4.6-2.6-7.53-.62-2.92-.94-6.21-.94-9.78s.35-6.98,1.03-9.9c.69-2.93,1.65-5.46,2.86-7.52,1.22-2.07,2.67-3.68,4.33-4.79,1.67-1.11,3.5-1.68,5.44-1.68,2.46,0,4.83,1.07,7.06,3.19,.05,.04,.07,.11,.06,.17-.37,3.32-.96,6.44-1.75,9.29-.02,.07-.07,.12-.14,.14-.02,0-.04,0-.05,0-.05,0-.1-.02-.14-.05l-.46-.43s-.07-.1-.06-.16c.14-1.48,.21-2.98,.21-4.44,0-1.24-.05-2.15-.16-2.69-1.82-1.59-3.65-2.4-5.44-2.4-1.43,0-2.73,.41-3.88,1.21-1.15,.81-2.15,2.1-2.97,3.84-.83,1.76-1.47,4.04-1.91,6.78-.44,2.75-.67,6.09-.67,9.94,0,1.95,.11,3.85,.33,5.64,.22,1.79,.54,3.48,.95,5.03,.41,1.55,.92,2.98,1.52,4.24,.59,1.26,1.27,2.35,2.02,3.25,.74,.89,1.57,1.59,2.45,2.08,.87,.48,1.81,.73,2.79,.73,.72,0,1.39-.06,1.97-.18,.58-.12,1.14-.33,1.65-.64,.52-.31,1.04-.74,1.56-1.29,.52-.55,1.08-1.27,1.67-2.14,.04-.05,.1-.09,.17-.09,0,0,0,0,.01,0,.07,0,.13,.05,.17,.11l.72,1.45c.03,.07,.03,.15-.02,.21-.69,.91-1.37,1.68-2.02,2.3-.65,.62-1.33,1.14-2.01,1.55-.69,.41-1.43,.71-2.19,.88-.76,.18-1.61,.27-2.52,.27Z"/>
    </g>
  </g>
</svg>