<?xml version="1.0" encoding="UTF-8"?>
<svg id="marketing-svg" data-name="圖層 2" xmlns="http://www.w3.org/2000/svg" viewBox="0 0 208.7 71.8">
  <defs>
    <style>
      .marketing-cls-1,
      .cls-2 {
        fill: #b6c396;
      }

      .cls-2 {
        font-family: Junge-Regular, Junge;
        font-size: 36px;
        letter-spacing: -.05em;
      }
    </style>
  </defs>
  <g id="_1" data-name="1">
    <g>

      <g>
        <path class="marketing-cls-1"
          d="M17.14,55.21c-.07,0-.14-.02-.19-.07l-1.23-1.01c-.07-.05-.11-.14-.11-.22-.05-1.43-.38-3.49-.99-6.13L7.05,18.51l-1.94,30.94c-.04,.68-.01,1.24,.09,1.65,.1,.38,.34,.74,.72,1.08,.4,.35,1,.67,1.8,.94,.13,.05,.22,.18,.2,.32l-.07,.55c-.01,.08-.05,.15-.11,.2-.05,.04-.12,.06-.18,.06-.01,0-.03,0-.04,0-1.42-.18-2.62-.27-3.57-.27-.31,0-.6,.01-.86,.03,0,0-.02,0-.02,0-.11,0-.21-.06-.26-.15-.11-.19-.19-.43-.25-.71L5.2,12.92c-.26-.34-.57-.52-.93-.54-.06,0-.13,0-.19,0-.36,0-.71,.07-1.05,.21-.04,.02-.08,.02-.12,.02s-.08,0-.12-.03c-.08-.03-.13-.1-.16-.18l-.21-.62c-.04-.11,0-.23,.07-.31,1.8-1.77,3.48-2.67,4.99-2.67,.14,0,.26,.09,.29,.23,.28,1.11,1.86,7.26,4.74,18.46,2.48,9.65,4.06,15.78,4.81,18.61L25.41,10.85s.03-.08,.06-.12c.88-1.13,1.85-1.86,2.9-2.16,.03,0,.06-.01,.08-.01,.06,0,.12,.02,.17,.05,.07,.05,.12,.14,.13,.23l2.34,39.31c.07,1.61,.3,2.74,.69,3.38,.37,.6,1.07,.97,2.07,1.1,.08,.01,.15,.05,.2,.12s.07,.14,.06,.22l-.11,.77c-.02,.15-.15,.26-.3,.26h-.01c-.5-.02-.96-.03-1.38-.03-.69,0-1.26,.03-1.72,.09-.71,.1-1.48,.38-2.28,.85-.05,.03-.1,.04-.15,.04-.03,0-.07,0-.1-.02-.08-.03-.15-.1-.18-.18l-.12-.34c-.02-.06-.02-.13,0-.2,.21-.62,.27-1.67,.18-3.15l-1.94-33.67-8.56,37.56c-.02,.1-.1,.18-.2,.22-.03,.01-.06,.02-.1,.02Z" />
        <path class="marketing-cls-1"
          d="M54.47,54.56c-.11,0-.22-.07-.27-.18l-.14-.31c-.04-.08-.04-.17,0-.25,.21-.48,.26-1.33,.14-2.53-.12-1.23-.48-3.13-1.07-5.65l-2.85-12.51c-1.34-.04-2.6-.06-3.75-.06-1.61,0-3.06,.04-4.31,.11l-4.01,16.3c-.23,.87-.15,1.56,.23,2.13,.39,.58,1.19,1.08,2.37,1.48,.13,.05,.22,.18,.2,.32l-.07,.55c-.01,.08-.05,.15-.11,.2-.05,.04-.12,.06-.18,.06-.01,0-.03,0-.04,0-1.45-.19-2.73-.29-3.79-.29-.41,0-.79,.01-1.14,.04,0,0-.02,0-.02,0-.11,0-.21-.06-.26-.15-.08-.15-.17-.37-.26-.68-.01-.05-.02-.11,0-.16L45.86,11s.04-.09,.07-.13c.37-.4,.82-1.2,1.32-2.38,.05-.11,.16-.18,.28-.18h.18c.14,0,.26,.1,.29,.23l9.69,40.82c.41,1.73,1.25,2.96,2.51,3.65,.1,.05,.16,.15,.16,.26v.55c0,.09-.04,.17-.11,.23-.05,.04-.12,.07-.19,.07-.02,0-.04,0-.06,0-.44-.08-.95-.13-1.51-.13-.36,0-.75,.02-1.16,.05-1.04,.09-1.97,.26-2.77,.5-.03,0-.06,.01-.09,.01Zm-11.64-23.75c.78,.03,1.72,.05,2.8,.05,1.18,0,2.53-.02,4.07-.05l-3.31-14.47-3.57,14.48Z" />
        <path class="marketing-cls-1"
          d="M77.15,54.9c-.08,0-.16-.03-.22-.09l-.26-.28c-.05-.06-.08-.13-.08-.21,0-.25-.09-.65-.28-1.18-.2-.56-.44-1.19-.72-1.89-.29-.71-.8-1.99-1.54-3.85-.74-1.85-3.16-7.75-7.19-17.52-.01-.04-.02-.08-.02-.11v-1.02c0-.14,.1-.27,.24-.29,1.13-.22,2.1-.61,2.89-1.18,.79-.57,1.46-1.3,1.97-2.18,.52-.89,.91-1.96,1.15-3.17,.25-1.23,.37-2.61,.37-4.12-.03-1.2-.14-2.23-.3-3.05-.16-.79-.43-1.44-.8-1.92-.36-.47-.85-.82-1.45-1.04-.63-.22-1.44-.34-2.42-.34-.37,0-.76,.02-1.16,.05-.32,.02-.67,.05-1.03,.08,.05,.41,.07,.85,.07,1.3V48.17c0,.82,.04,1.53,.13,2.11,.08,.56,.22,1.03,.42,1.41,.19,.37,.44,.67,.76,.89,.33,.24,.75,.43,1.26,.59,.15,.05,.24,.2,.21,.35l-.16,.74c-.02,.08-.06,.15-.13,.19-.05,.03-.1,.05-.16,.05-.02,0-.05,0-.07,0-.7-.16-1.32-.29-1.82-.37-.5-.08-.91-.12-1.24-.12-.3,0-.64,.04-1.03,.12-.4,.08-.84,.2-1.32,.36-.03,.01-.06,.02-.1,.02-.12,0-.24-.08-.28-.2l-.11-.31c-.02-.07-.02-.14,0-.21,.22-.56,.33-1.62,.33-3.15V18.3c0-1.34-.04-2.48-.1-3.38-.07-.88-.19-1.6-.37-2.13-.17-.49-.39-.84-.68-1.03-.18-.12-.57-.27-1.44-.27,0,0-.2,0-.2,0-.16,0-.29-.12-.3-.28l-.07-.89c-.01-.15,.09-.28,.23-.32l2.08-.49c.61-.14,1.18-.27,1.73-.39,.55-.11,1.09-.21,1.63-.3,.54-.08,1.06-.15,1.55-.2,.5-.05,.9-.09,1.2-.11,.31-.02,.6-.03,.87-.03,1.09,0,2.12,.14,3.05,.43,.95,.29,1.79,.8,2.48,1.53,.69,.72,1.24,1.69,1.62,2.9,.38,1.19,.57,2.71,.57,4.52,0,1.35-.17,2.65-.51,3.87-.34,1.21-.8,2.33-1.38,3.33-.58,1-1.26,1.9-2.03,2.66-.73,.72-1.51,1.31-2.33,1.77v.1l7.13,17.82c.6,1.53,1.38,2.72,2.33,3.55,1.16,.87,1.57,1.15,1.71,1.23l.71,.43c.09,.05,.14,.15,.14,.26v.58c0,.17-.13,.3-.3,.3-2.01,0-3.72,.37-5.08,1.1-.04,.02-.09,.04-.14,.04Z" />
        <path class="marketing-cls-1"
          d="M101.62,54.56c-.08,0-.15-.03-.21-.09l-.25-.25c-.06-.06-.09-.14-.09-.23,.02-.4-.12-.92-.41-1.55l-11.01-22.49v18.21c0,1.61,.18,2.78,.55,3.49,.35,.68,1.03,1.19,2.02,1.51,.15,.05,.23,.2,.2,.35l-.16,.74c-.02,.08-.06,.15-.13,.19-.05,.03-.1,.05-.16,.05-.02,0-.05,0-.07,0-1.29-.3-2.27-.47-2.91-.48h-.1c-.62,0-1.42,.16-2.39,.48-.03,.01-.06,.02-.09,.02-.12,0-.24-.08-.28-.2l-.11-.31c-.02-.07-.02-.14,0-.21,.22-.56,.33-1.62,.33-3.15V18.3c0-2.84-.19-4.77-.57-5.74-.29-.74-.85-1.1-1.71-1.1-.15,0-.31,.01-.47,.03-.01,0-.03,0-.04,0-.07,0-.13-.02-.18-.06-.06-.05-.1-.12-.11-.2l-.07-.58c-.01-.12,.05-.24,.16-.3,1.97-1.02,3.87-1.54,5.64-1.54,.14,0,.26,.1,.29,.23,.25,1.1,.38,2.32,.38,3.6V28.95l9.44-17.04c.1-.17,.06-.27,.05-.3-.05-.16-.26-.33-.58-.48-.49-.23-1.02-.35-1.57-.35-.08,0-.25,0-.26,0-.15,0-.28-.11-.3-.26l-.11-.83c-.02-.15,.08-.3,.23-.33,1.23-.28,2.37-.42,3.36-.42,.64,0,1.24,.06,1.79,.17,.1,.02,.18,.09,.22,.18,.13,.32,.14,.72,.05,1.18l-9.45,16.97v.34l10.15,20.18c1.35,2.64,2.75,4.4,4.17,5.23,.09,.05,.15,.15,.15,.26v.55c0,.09-.04,.17-.11,.23-.05,.05-.12,.07-.19,.07-.02,0-.03,0-.05,0-.8-.14-1.41-.23-1.8-.27-.15-.02-.32-.02-.51-.02-.29,0-.62,.02-.99,.05-.59,.06-1.13,.21-1.59,.46-.04,.02-.09,.03-.14,.03Z" />
        <path class="marketing-cls-1"
          d="M110.19,54.01c-.14,0-.26-.09-.29-.22-.23-.86-.34-1.9-.34-3.09V18c0-1.34-.04-2.45-.1-3.31-.07-.84-.19-1.52-.37-2.01-.16-.46-.38-.77-.66-.94-.29-.17-.67-.26-1.14-.26h-.25c-.06,0-.13,0-.21,.02-.02,0-.04,0-.06,0-.06,0-.13-.02-.18-.06-.07-.05-.11-.13-.12-.22l-.07-.89c-.01-.14,.08-.27,.22-.31,3.35-.93,7.09-1.39,11.12-1.39,2.05,0,4.23,.12,6.48,.37,.13,.01,.23,.11,.26,.23l.12,.52s.01,.09,0,.13l-1.67,7.66c-.02,.09-.08,.17-.17,.21-.04,.02-.08,.03-.12,.03-.05,0-.1-.01-.14-.04l-.56-.31c-.11-.06-.17-.18-.15-.3,.09-.77,.16-1.49,.21-2.14,.05-.65,.07-1.29,.07-1.9,0-.53-.03-1.03-.1-1.51-.79-.12-1.58-.22-2.36-.29-.84-.07-1.69-.11-2.51-.11-1.42,0-2.84,.11-4.22,.32V28.31s9.31-.89,9.32-.89c.11,0,.21,.06,.27,.16l.18,.34c.04,.07,.04,.15,.02,.23l-.83,2.52c-.04,.12-.16,.21-.28,.21,0,0-.02,0-.02,0-.52-.04-1.05-.07-1.59-.09-.53-.02-1.08-.03-1.64-.03-.91,0-1.84,.03-2.78,.09-.86,.06-1.74,.13-2.64,.22v20.45l5.87-.32c.81-.04,1.49-.2,2.04-.49,.54-.29,1.02-.7,1.41-1.22,.4-.54,.76-1.22,1.07-2.02,.31-.82,.63-1.78,.94-2.85,.03-.09,.1-.17,.19-.2,.03-.01,.06-.02,.1-.02,.06,0,.12,.02,.18,.06l.51,.37c.1,.07,.14,.19,.12,.31l-1.74,8.21s-.02,.07-.04,.1l-.28,.43c-.06,.08-.15,.14-.25,.14h-12.78Z" />
        <path class="marketing-cls-1"
          d="M134.77,54.5c-.12,0-.24-.08-.28-.2l-.11-.31c-.02-.07-.02-.14,0-.21,.22-.56,.33-1.62,.33-3.15V11.1c-.81,.02-1.75,.07-2.81,.15-1.12,.08-2.41,.19-3.84,.34-.05,.59-.08,1.23-.08,1.88,0,1.07,.08,2.3,.24,3.66,.01,.12-.05,.24-.16,.3l-.58,.31s-.09,.03-.14,.03c-.04,0-.09,0-.13-.03-.09-.04-.15-.12-.17-.21l-1.65-7.48s0-.1,0-.15l.21-.71c.03-.11,.13-.19,.24-.21,1.71-.27,3.39-.46,5-.57,1.61-.11,3.22-.17,4.78-.17s3.3,.07,5.14,.2c1.83,.13,3.86,.33,6.04,.6,.12,.01,.21,.09,.25,.2l.21,.65c.02,.05,.02,.11,0,.16l-1.65,7.48c-.02,.09-.08,.17-.17,.21-.04,.02-.08,.03-.13,.03-.05,0-.1-.01-.14-.03l-.58-.31c-.11-.06-.17-.18-.16-.3,.08-.71,.14-1.38,.18-2,.04-.62,.06-1.2,.06-1.75,0-.65-.03-1.25-.08-1.79-1.38-.15-2.65-.26-3.76-.34-1.06-.07-2.01-.12-2.85-.15V48.17c0,.82,.04,1.53,.13,2.11,.08,.56,.22,1.03,.42,1.41,.19,.37,.44,.67,.75,.89,.32,.24,.74,.43,1.25,.59,.15,.04,.24,.19,.21,.34l-.14,.74c-.02,.08-.06,.15-.13,.2-.05,.03-.11,.05-.16,.05-.02,0-.05,0-.07,0-.69-.16-1.3-.29-1.81-.36-.5-.08-.92-.12-1.25-.12-.31,0-.66,.04-1.04,.12-.39,.08-.83,.2-1.31,.36-.03,.01-.06,.02-.1,.02Z" />
        <path class="marketing-cls-1"
          d="M150.66,54.5c-.12,0-.23-.07-.28-.19l-.12-.31c-.03-.07-.03-.15,0-.23,.23-.56,.35-1.61,.35-3.15V18.3c0-2.84-.19-4.77-.58-5.73-.3-.74-.85-1.11-1.71-1.11-.15,0-.3,.01-.47,.03-.01,0-.03,0-.04,0-.07,0-.13-.02-.18-.06-.06-.05-.1-.12-.11-.2l-.07-.58c-.01-.12,.05-.24,.16-.3,1.97-1.02,3.87-1.54,5.64-1.54,.14,0,.26,.1,.29,.24,.24,1.14,.36,2.35,.36,3.6V48.17c0,1.61,.18,2.78,.55,3.49,.35,.68,1.03,1.19,2.02,1.51,.14,.05,.23,.19,.2,.34l-.14,.74c-.02,.08-.06,.15-.13,.2-.05,.03-.11,.05-.16,.05-.02,0-.05,0-.07,0-1.28-.3-2.26-.47-2.91-.48h-.11c-.63,0-1.43,.16-2.39,.48-.03,.01-.06,.02-.09,.02Z" />
        <path class="marketing-cls-1"
          d="M167.07,54.19c-1.09-.12-2.09-.18-2.96-.18s-1.63,.06-2.28,.18c-.02,0-.04,0-.05,0-.06,0-.13-.02-.18-.06-.07-.05-.11-.12-.12-.2-.07-.56-.11-1.12-.11-1.67V16.86c-.03-1.42-.18-2.72-.43-3.84-.28-1.31-.84-1.94-1.72-1.94-.09,0-.19,0-.29,.02-.01,0-.03,0-.04,0-.07,0-.14-.03-.2-.07-.07-.06-.1-.14-.1-.23v-.62c0-.12,.07-.23,.18-.27,1.67-.73,3.34-1.1,4.95-1.1,.12,0,.23,.07,.27,.18l13.24,29.62c.62,1.37,1.12,2.63,1.5,3.73,.17,.5,.33,1.05,.5,1.66V14.52c0-1.35-.28-2.3-.83-2.85-.42-.42-1.06-.63-1.89-.63-.24,0-.49,.02-.75,.05-.01,0-.03,0-.04,0-.15,0-.28-.11-.3-.26l-.09-.62c-.02-.13,.05-.26,.18-.32,1.55-.67,3.3-1.04,5.19-1.1h.01c.12,0,.24,.08,.28,.19,.21,.56,.32,1.15,.32,1.73V53.71c0,.17-.13,.3-.3,.3h-.72c-.12,0-.23-.07-.28-.18-.79-1.87-3.1-7.03-6.85-15.33-3.76-8.31-6.48-14.4-8.09-18.11-.53-1.21-1.05-2.59-1.55-4.12V49.74c0,.72,.13,1.27,.38,1.65,.25,.38,.53,.64,.82,.77,.33,.15,.8,.31,1.4,.49,.62,.19,.99,.3,1.09,.35,.12,.04,.19,.16,.19,.28v.62c0,.09-.04,.17-.1,.22-.06,.05-.13,.08-.2,.08-.01,0-.02,0-.03,0Z" />
        <path class="marketing-cls-1"
          d="M198.07,55.27c-1.83,0-3.55-.59-5.12-1.77-1.55-1.16-2.9-2.79-4.01-4.85-1.1-2.05-1.98-4.6-2.61-7.59-.63-2.98-.95-6.27-.95-9.78,0-3.22,.25-6.2,.75-8.84,.5-2.65,1.19-4.91,2.06-6.73,.87-1.83,1.94-3.39,3.16-4.65,1.23-1.27,2.57-2.2,4-2.78,1.42-.58,2.95-.87,4.55-.87,2.74,0,5.35,1,7.75,2.96,.08,.07,.12,.17,.11,.28-.41,2.56-1,5.31-1.76,8.15-.02,.09-.09,.17-.18,.2-.03,.01-.07,.02-.11,.02-.06,0-.11-.02-.16-.05l-.47-.31c-.09-.06-.14-.17-.14-.27,.18-2.36,.22-4.33,.13-5.87-.47-.46-.95-.85-1.4-1.16-.48-.32-.99-.58-1.53-.77-.54-.19-1.13-.32-1.75-.38-.64-.07-1.36-.11-2.16-.11-1.02,0-1.99,.23-2.88,.69-.89,.46-1.73,1.23-2.51,2.29-.79,1.08-1.47,2.45-2.03,4.09-.57,1.65-1.02,3.73-1.34,6.19-.32,2.47-.49,5.29-.49,8.4s.29,5.82,.87,8.46c.58,2.63,1.35,4.87,2.3,6.66,.94,1.78,2.05,3.21,3.28,4.23,1.2,1,2.46,1.51,3.73,1.51s2.38-.2,3.24-.6c.84-.39,1.75-1.18,2.7-2.34v-4.94c0-2.84-.19-4.76-.58-5.72-.3-.75-.88-1.11-1.77-1.11-.14,0-.28,0-.43,.03-.01,0-.02,0-.03,0-.15,0-.28-.11-.3-.26l-.07-.58c-.01-.12,.05-.24,.16-.3,1.97-1.02,3.87-1.54,5.66-1.54,.14,0,.26,.1,.29,.24,.24,1.14,.36,2.35,.36,3.6v8.83c0,2.34,.17,3.24,.31,3.58,.03,.07,.03,.14,0,.21l-.11,.34c-.04,.13-.16,.21-.29,.21-.88,0-1.84,.24-2.88,.73-1.07,.5-2.24,1.01-3.48,1.51-1.26,.51-2.56,.77-3.88,.77Z" />
      </g>
    </g>
  </g>
</svg>