<?xml version="1.0" encoding="UTF-8"?>
<svg id="_圖層_2" data-name="圖層 2" xmlns="http://www.w3.org/2000/svg" viewBox="0 0 184.59 47.85">
  <defs>
    <style>
      .cls-1 {
        fill: #b6c396;
      }
    </style>
  </defs>
  <g id="_圖層_5" data-name="圖層 5">
    <g>
      <path class="cls-1" d="M12.52,47.85c-1.79,0-3.48-.56-5.01-1.67-1.52-1.1-2.85-2.68-3.96-4.7-1.11-2.01-1.98-4.56-2.61-7.61-.62-3.03-.94-6.44-.94-10.14,0-3.27,.34-6.41,1-9.33,.67-2.92,1.57-5.46,2.68-7.54,1.12-2.09,2.47-3.77,4.01-5,1.56-1.25,3.22-1.88,4.93-1.88,4.02,0,7.15,2.24,9.3,6.66,2.12,4.35,3.19,10.44,3.19,18.1,0,3.25-.33,6.34-.99,9.2-.66,2.87-1.56,5.33-2.68,7.34-1.13,2.02-2.48,3.63-4.01,4.78-1.55,1.17-3.21,1.77-4.92,1.77Zm-.3-45.37c-1.35,0-2.59,.56-3.68,1.65-1.12,1.12-2.04,2.66-2.75,4.58-.72,1.94-1.27,4.19-1.65,6.69-.38,2.51-.58,5.21-.58,8.03,0,2.99,.19,5.76,.55,8.25,.36,2.48,.86,4.6,1.47,6.29,.61,1.69,1.33,3.14,2.15,4.3,.81,1.15,1.67,1.99,2.55,2.51,.87,.51,1.79,.77,2.73,.77,1.35,0,2.59-.53,3.67-1.58,1.1-1.07,2.02-2.56,2.71-4.43,.7-1.89,1.25-4.09,1.62-6.54,.37-2.45,.56-5.13,.56-7.95,0-3.68-.27-7.03-.8-9.98-.53-2.93-1.24-5.33-2.13-7.13-.88-1.79-1.89-3.17-2.99-4.1-1.08-.91-2.24-1.38-3.44-1.38Z"/>
      <path class="cls-1" d="M30.65,46.59c-.14,0-.26-.09-.29-.22-.23-.88-.34-1.92-.34-3.09V10.88c0-2.84-.19-4.77-.57-5.74-.29-.74-.85-1.1-1.71-1.1-.15,0-.31,.01-.47,.03-.01,0-.03,0-.04,0-.07,0-.13-.02-.18-.06-.06-.05-.1-.12-.11-.2l-.07-.58c-.01-.12,.05-.24,.16-.3,1.97-1.02,3.87-1.54,5.66-1.54,.14,0,.26,.1,.29,.24,.24,1.14,.36,2.35,.36,3.6V44.09l5.52-.32c.81-.04,1.51-.2,2.06-.48,.55-.27,1.03-.71,1.43-1.31,.42-.62,.77-1.29,1.03-1.97,.27-.69,.58-1.64,.91-2.82,.03-.09,.1-.17,.19-.2,.03-.01,.07-.02,.1-.02,.06,0,.12,.02,.18,.06l.51,.37c.1,.07,.14,.19,.12,.3l-1.72,8.21s-.02,.08-.05,.11l-.3,.43c-.06,.08-.15,.13-.25,.13h-12.41Z"/>
      <path class="cls-1" d="M49.8,47.08c-.12,0-.23-.07-.28-.19l-.12-.31c-.03-.07-.03-.15,0-.23,.23-.56,.35-1.61,.35-3.15V10.88c0-2.84-.19-4.77-.58-5.73-.3-.74-.85-1.11-1.71-1.11-.15,0-.3,.01-.47,.03-.01,0-.03,0-.04,0-.07,0-.13-.02-.18-.06-.06-.05-.1-.12-.11-.2l-.07-.58c-.01-.12,.05-.24,.16-.3,1.97-1.02,3.87-1.54,5.64-1.54,.14,0,.26,.1,.29,.24,.24,1.14,.36,2.35,.36,3.6V40.75c0,1.61,.18,2.78,.55,3.49,.35,.68,1.03,1.19,2.02,1.51,.14,.05,.23,.19,.2,.34l-.14,.74c-.02,.08-.06,.15-.13,.2-.05,.03-.11,.05-.16,.05-.02,0-.05,0-.07,0-1.28-.3-2.26-.47-2.91-.48h-.1c-.63,0-1.43,.16-2.39,.48-.03,.01-.06,.02-.09,.02Z"/>
      <path class="cls-1" d="M69.34,47.2s-.08,0-.12-.03l-1.41-.62c-.09-.04-.16-.12-.18-.22-1.14-6.4-2.4-12.56-3.73-18.3-1.34-5.74-2.97-12.3-4.86-19.48-.35-1.38-.72-2.38-1.09-2.96-.33-.52-.65-.78-.95-.78-.4,0-.88,.04-1.44,.12-.01,0-.03,0-.04,0-.13,0-.25-.09-.29-.22l-.18-.62c-.03-.11,0-.23,.09-.31,2.02-1.76,3.8-2.66,5.3-2.66,.13,0,.25,.09,.29,.22,.63,2.17,1.24,4.37,1.81,6.54,.57,2.17,1.18,4.64,1.82,7.34,.64,2.71,1.12,4.77,1.45,6.2,.33,1.43,.88,3.86,1.64,7.31,.77,3.45,1.25,5.62,1.45,6.52,.28,1.17,.49,2.45,.61,3.81,.05-.27,.1-.6,.17-1,.22-1.29,.49-2.6,.79-3.89l6.56-29.04c.05-.63-.09-1.07-.46-1.31-.25-.17-.62-.25-1.09-.25-.27,0-.58,.03-.92,.08-.02,0-.03,0-.05,0-.14,0-.27-.1-.29-.24l-.11-.55c-.03-.13,.04-.26,.16-.32,1.55-.78,3.23-1.17,4.99-1.17,.11,0,.37,.04,.49,.41,.05,.18,.07,.36,.04,.55-.13,.76-.27,1.54-.41,2.34-.15,.81-3.34,14.64-9.75,42.28-.02,.09-.08,.16-.16,.2-.04,.02-.09,.03-.13,.03Z"/>
      <path class="cls-1" d="M84,46.59c-.14,0-.26-.09-.29-.22-.23-.86-.34-1.9-.34-3.09V10.57c0-1.34-.04-2.45-.1-3.31-.07-.84-.19-1.52-.37-2.01-.16-.45-.38-.77-.66-.94-.29-.17-.67-.26-1.14-.26h-.25c-.06,0-.13,0-.21,.02-.02,0-.04,0-.06,0-.06,0-.13-.02-.18-.06-.07-.05-.11-.13-.12-.22l-.07-.89c-.01-.14,.08-.27,.22-.31,3.35-.93,7.09-1.4,11.12-1.4,2.05,0,4.23,.12,6.48,.37,.13,.01,.23,.11,.26,.23l.12,.52s.01,.09,0,.13l-1.67,7.66c-.02,.09-.08,.17-.17,.21-.04,.02-.08,.03-.12,.03-.05,0-.1-.01-.14-.04l-.56-.31c-.11-.06-.17-.18-.15-.3,.09-.77,.16-1.49,.21-2.14,.05-.65,.07-1.29,.07-1.9,0-.53-.03-1.03-.1-1.51-.8-.12-1.59-.22-2.36-.29-.84-.07-1.69-.11-2.51-.11-1.42,0-2.84,.11-4.22,.32V20.89s9.31-.89,9.32-.89c.11,0,.21,.06,.27,.16l.18,.34c.04,.07,.04,.16,.02,.23l-.83,2.52c-.04,.12-.16,.21-.28,.21,0,0-.02,0-.02,0-.52-.04-1.05-.07-1.59-.09-.54-.02-1.08-.03-1.64-.03-.9,0-1.84,.03-2.78,.09-.86,.06-1.74,.13-2.64,.22v20.45l5.87-.32c.81-.04,1.49-.2,2.04-.49,.54-.29,1.02-.7,1.41-1.22,.4-.54,.76-1.22,1.07-2.02,.31-.82,.63-1.78,.94-2.85,.03-.09,.1-.17,.19-.2,.03-.01,.06-.02,.1-.02,.06,0,.12,.02,.18,.06l.51,.37c.1,.07,.14,.19,.12,.31l-1.74,8.21s-.02,.07-.04,.1l-.28,.43c-.06,.08-.15,.14-.25,.14h-12.78Z"/>
      <path class="cls-1" d="M108.58,47.08c-.12,0-.24-.08-.28-.2l-.11-.31c-.02-.07-.02-.14,0-.21,.22-.56,.33-1.62,.33-3.15V3.68c-.81,.02-1.75,.07-2.81,.15-1.12,.08-2.41,.19-3.84,.34-.05,.59-.08,1.23-.08,1.88,0,1.07,.08,2.3,.24,3.66,.01,.12-.05,.24-.16,.3l-.58,.31s-.09,.03-.14,.03c-.04,0-.09,0-.13-.03-.09-.04-.15-.12-.17-.21l-1.65-7.48s0-.1,0-.15l.21-.71c.03-.11,.13-.19,.24-.21,1.71-.27,3.4-.46,5-.57,1.61-.11,3.22-.17,4.78-.17s3.3,.07,5.14,.2c1.83,.13,3.86,.33,6.04,.6,.12,.01,.21,.09,.25,.2l.21,.65c.02,.05,.02,.11,0,.16l-1.65,7.48c-.02,.09-.08,.17-.17,.21-.04,.02-.08,.03-.13,.03-.05,0-.1-.01-.14-.03l-.58-.31c-.11-.06-.17-.18-.16-.3,.08-.71,.14-1.38,.18-2,.04-.62,.06-1.2,.06-1.75,0-.65-.03-1.25-.08-1.79-1.38-.15-2.65-.26-3.76-.34-1.06-.07-2.02-.12-2.85-.15V40.75c0,.82,.04,1.53,.13,2.11,.08,.56,.22,1.03,.42,1.41,.19,.37,.44,.67,.75,.89,.32,.24,.74,.43,1.25,.59,.15,.04,.24,.19,.21,.34l-.14,.74c-.02,.08-.06,.15-.13,.2-.05,.03-.11,.05-.16,.05-.02,0-.05,0-.07,0-.69-.16-1.3-.28-1.81-.36-.5-.08-.92-.12-1.25-.12-.31,0-.66,.04-1.04,.12-.39,.08-.83,.2-1.31,.36-.03,.01-.06,.02-.1,.02Z"/>
      <path class="cls-1" d="M138.86,47.48c-.08,0-.16-.03-.22-.09l-.26-.28c-.05-.06-.08-.13-.08-.21,0-.25-.09-.65-.28-1.18-.2-.56-.44-1.19-.72-1.89-.29-.71-.8-1.99-1.54-3.85-.73-1.84-3.15-7.73-7.19-17.51-.01-.04-.02-.08-.02-.11v-1.02c0-.14,.1-.27,.24-.29,1.12-.22,2.1-.61,2.89-1.18,.79-.57,1.46-1.3,1.97-2.18,.52-.89,.91-1.96,1.15-3.17,.25-1.23,.37-2.61,.37-4.12-.03-1.2-.14-2.23-.3-3.05-.16-.79-.43-1.44-.8-1.92-.36-.47-.85-.82-1.45-1.04-.63-.22-1.44-.34-2.42-.34-.37,0-.76,.01-1.16,.05-.32,.02-.67,.05-1.03,.08,.05,.41,.07,.85,.07,1.3V40.75c0,.82,.04,1.53,.13,2.11,.08,.56,.22,1.03,.42,1.41,.19,.37,.44,.67,.76,.89,.33,.24,.75,.43,1.26,.59,.15,.05,.24,.2,.21,.35l-.16,.74c-.02,.08-.06,.15-.13,.19-.05,.03-.1,.05-.16,.05-.02,0-.04,0-.07,0-.71-.16-1.32-.28-1.83-.36-.5-.08-.91-.12-1.24-.12-.3,0-.64,.04-1.03,.12-.4,.08-.84,.2-1.32,.36-.03,.01-.06,.02-.1,.02-.12,0-.24-.08-.28-.2l-.11-.31c-.02-.07-.02-.14,0-.21,.22-.56,.33-1.62,.33-3.15V10.88c0-1.34-.04-2.48-.1-3.38-.07-.88-.19-1.6-.37-2.13-.17-.49-.39-.84-.68-1.03-.18-.12-.57-.27-1.44-.27,0,0-.2,0-.2,0-.16,0-.29-.12-.3-.28l-.07-.89c-.01-.15,.09-.28,.23-.32l2.08-.49c.61-.14,1.18-.27,1.73-.39,.55-.11,1.09-.21,1.63-.3,.54-.08,1.06-.15,1.55-.2,.5-.05,.9-.09,1.2-.11,.31-.02,.6-.03,.87-.03,1.09,0,2.12,.14,3.05,.43,.95,.29,1.79,.8,2.48,1.53,.69,.72,1.24,1.69,1.62,2.9,.38,1.19,.57,2.71,.57,4.52,0,1.35-.17,2.66-.51,3.86-.34,1.21-.8,2.33-1.38,3.33-.58,1-1.26,1.9-2.03,2.66-.73,.72-1.51,1.31-2.33,1.77v.1l7.13,17.82c.6,1.53,1.38,2.72,2.33,3.55,1.16,.87,1.57,1.15,1.71,1.23l.71,.43c.09,.05,.14,.15,.14,.26v.58c0,.17-.13,.3-.3,.3-2.01,0-3.72,.37-5.08,1.1-.04,.02-.09,.04-.14,.04Z"/>
      <path class="cls-1" d="M148.68,46.59c-.14,0-.26-.09-.29-.22-.23-.86-.34-1.9-.34-3.09V10.57c0-1.34-.04-2.45-.1-3.31-.07-.84-.19-1.52-.37-2.01-.16-.45-.38-.77-.66-.94-.29-.17-.67-.26-1.14-.26h-.25c-.06,0-.13,0-.21,.02-.02,0-.04,0-.06,0-.06,0-.13-.02-.18-.06-.07-.05-.11-.13-.12-.22l-.07-.89c-.01-.14,.08-.27,.22-.31,3.35-.93,7.09-1.4,11.12-1.4,2.05,0,4.23,.12,6.48,.37,.13,.01,.23,.11,.26,.23l.12,.52s.01,.09,0,.13l-1.67,7.66c-.02,.09-.08,.17-.17,.21-.04,.02-.08,.03-.12,.03-.05,0-.1-.01-.14-.04l-.56-.31c-.11-.06-.17-.18-.15-.3,.09-.77,.16-1.49,.21-2.14,.05-.65,.07-1.29,.07-1.9,0-.53-.03-1.03-.1-1.51-.8-.12-1.59-.22-2.36-.29-.84-.07-1.69-.11-2.51-.11-1.42,0-2.84,.11-4.22,.32V20.89s9.31-.89,9.32-.89c.11,0,.21,.06,.27,.16l.18,.34c.04,.07,.04,.16,.02,.23l-.83,2.52c-.04,.12-.16,.21-.28,.21,0,0-.02,0-.02,0-.52-.04-1.05-.07-1.59-.09-.54-.02-1.08-.03-1.64-.03-.9,0-1.84,.03-2.78,.09-.86,.06-1.74,.13-2.64,.22v20.45l5.87-.32c.81-.04,1.49-.2,2.04-.49,.54-.29,1.02-.7,1.41-1.22,.4-.54,.76-1.22,1.07-2.02,.31-.82,.63-1.78,.94-2.85,.03-.09,.1-.17,.19-.2,.03-.01,.06-.02,.1-.02,.06,0,.12,.02,.18,.06l.51,.37c.1,.07,.14,.19,.12,.31l-1.74,8.21s-.02,.07-.04,.1l-.28,.43c-.06,.08-.15,.14-.25,.14h-12.78Z"/>
      <path class="cls-1" d="M169.49,46.59c-.14,0-.26-.09-.29-.22-.23-.86-.34-1.9-.34-3.09V10.57c0-1.34-.04-2.45-.1-3.31-.07-.84-.19-1.52-.37-2.01-.16-.45-.38-.77-.66-.94-.29-.17-.67-.26-1.14-.26h-.25c-.06,0-.13,0-.21,.02-.02,0-.04,0-.06,0-.06,0-.13-.02-.18-.06-.07-.05-.11-.13-.12-.22l-.07-.89c-.01-.14,.08-.27,.22-.31,3.35-.93,7.09-1.4,11.12-1.4,2.05,0,4.23,.12,6.48,.37,.13,.01,.23,.11,.26,.23l.12,.52s.01,.09,0,.13l-1.67,7.66c-.02,.09-.08,.17-.17,.21-.04,.02-.08,.03-.12,.03-.05,0-.1-.01-.14-.04l-.56-.31c-.11-.06-.17-.18-.15-.3,.09-.77,.16-1.49,.21-2.14,.05-.65,.07-1.29,.07-1.9,0-.53-.03-1.03-.1-1.51-.8-.12-1.59-.22-2.36-.29-.84-.07-1.69-.11-2.51-.11-1.42,0-2.84,.11-4.22,.32V20.89s9.31-.89,9.32-.89c.11,0,.21,.06,.27,.16l.18,.34c.04,.07,.04,.16,.02,.23l-.83,2.52c-.04,.12-.16,.21-.28,.21,0,0-.02,0-.02,0-.52-.04-1.05-.07-1.59-.09-.54-.02-1.08-.03-1.64-.03-.9,0-1.84,.03-2.78,.09-.86,.06-1.74,.13-2.64,.22v20.45l5.87-.32c.81-.04,1.49-.2,2.04-.49,.54-.29,1.02-.7,1.41-1.22,.4-.54,.76-1.22,1.07-2.02,.31-.82,.63-1.78,.94-2.85,.03-.09,.1-.17,.19-.2,.03-.01,.06-.02,.1-.02,.06,0,.12,.02,.18,.06l.51,.37c.1,.07,.14,.19,.12,.31l-1.74,8.21s-.02,.07-.04,.1l-.28,.43c-.06,.08-.15,.14-.25,.14h-12.78Z"/>
    </g>
  </g>
</svg>