<?xml version="1.0" encoding="UTF-8"?>
<svg id="_圖層_2" data-name="圖層 2" xmlns="http://www.w3.org/2000/svg" viewBox="0 0 299.56 47.97">
  <defs>
    <style>
      .cls-1 {
        fill: #b7c497;
      }

      .cls-2 {
        fill: none;
        stroke: #b7c497;
        stroke-linecap: round;
        stroke-miterlimit: 10;
      }
    </style>
  </defs>
  <g id="_1" data-name="1">
    <g>
      <g>
        <path class="cls-1" d="M8.72,47.2c-1.31-.32-2.35-.48-3.09-.48-.65,0-1.43,.16-2.31,.47-.03,.01-.07,.02-.1,.02-.04,0-.09,0-.13-.03-.07-.03-.13-.1-.15-.17l-.11-.31c-.02-.07-.02-.14,0-.21,.22-.56,.33-1.62,.33-3.15V11c0-2.86-.18-4.75-.55-5.62-.33-.8-1.07-1.19-2.25-1.19-.16,0-.29-.12-.3-.28L0,3.03c-.01-.15,.08-.28,.22-.31,3.27-.84,5.94-1.27,7.93-1.27,1.39,0,2.63,.18,3.71,.54,1.09,.36,2.08,.97,2.95,1.81,.88,.84,1.56,2.02,2.02,3.5,.46,1.46,.69,3.24,.69,5.29,0,2.27-.43,4.36-1.27,6.23-.84,1.87-1.91,3.32-3.17,4.3-1.27,.99-2.6,1.49-3.94,1.49-.54,0-.94-.04-1.22-.14-.12-.04-.21-.16-.21-.28v-1.08c0-.17,.13-.3,.3-.3,.84,0,1.62-.19,2.33-.58,.71-.39,1.36-.98,1.92-1.76,.57-.79,1.02-1.84,1.34-3.14,.33-1.31,.49-2.85,.49-4.56,0-2.75-.4-4.95-1.18-6.54-.76-1.54-1.91-2.29-3.53-2.29-1.12,0-2.14,.11-3.01,.33,.05,.55,.08,1.12,.08,1.71V40.87c0,1.61,.18,2.78,.55,3.49,.35,.68,1.03,1.19,2.02,1.51,.15,.05,.23,.2,.2,.35l-.16,.74c-.02,.08-.07,.15-.13,.19-.05,.03-.1,.05-.16,.05-.02,0-.05,0-.07,0Z"/>
        <path class="cls-1" d="M22.88,46.71c-.14,0-.26-.09-.29-.22-.23-.86-.34-1.9-.34-3.09V10.7c0-1.34-.04-2.45-.1-3.31-.07-.84-.19-1.52-.37-2.01-.16-.45-.38-.77-.66-.94-.29-.17-.67-.26-1.14-.26h-.25c-.06,0-.13,0-.21,.02-.02,0-.04,0-.06,0-.06,0-.13-.02-.18-.06-.07-.05-.11-.13-.12-.22l-.07-.89c-.01-.14,.08-.27,.22-.31,3.35-.93,7.09-1.4,11.12-1.4,2.05,0,4.23,.12,6.48,.37,.13,.01,.23,.11,.26,.23l.12,.52s.01,.09,0,.13l-1.67,7.66c-.02,.09-.08,.17-.17,.21-.04,.02-.08,.03-.12,.03-.05,0-.1-.01-.14-.04l-.56-.31c-.11-.06-.17-.18-.15-.3,.09-.77,.16-1.49,.21-2.14,.05-.65,.07-1.29,.07-1.9,0-.53-.03-1.03-.1-1.51-.8-.12-1.59-.22-2.36-.29-.84-.07-1.69-.11-2.51-.11-1.42,0-2.84,.11-4.22,.32V21.01s9.31-.89,9.32-.89c.11,0,.21,.06,.27,.16l.18,.34c.04,.07,.04,.15,.02,.23l-.83,2.52c-.04,.12-.16,.21-.28,.21,0,0-.02,0-.02,0-.52-.04-1.05-.07-1.59-.09-.54-.02-1.08-.03-1.64-.03-.9,0-1.84,.03-2.78,.09-.86,.06-1.74,.13-2.64,.22v20.45l5.87-.32c.81-.04,1.49-.2,2.04-.49,.54-.29,1.02-.7,1.41-1.22,.4-.54,.76-1.22,1.07-2.02,.31-.82,.63-1.78,.94-2.85,.03-.09,.1-.17,.19-.2,.03-.01,.06-.02,.1-.02,.06,0,.12,.02,.18,.06l.51,.37c.1,.07,.14,.19,.12,.31l-1.74,8.21s-.02,.07-.04,.1l-.28,.43c-.06,.08-.15,.14-.25,.14h-12.78Z"/>
        <path class="cls-1" d="M57.98,47.27c-.11,0-.22-.07-.27-.18l-.14-.31c-.04-.08-.04-.17,0-.25,.21-.48,.26-1.33,.14-2.53-.12-1.23-.48-3.13-1.07-5.65l-2.85-12.51c-1.34-.04-2.59-.06-3.75-.06-1.61,0-3.06,.04-4.31,.11l-4.01,16.3c-.23,.87-.15,1.56,.23,2.13,.39,.58,1.19,1.08,2.37,1.48,.13,.05,.22,.18,.2,.32l-.07,.55c-.01,.08-.05,.15-.11,.2-.05,.04-.12,.06-.18,.06-.01,0-.03,0-.04,0-1.46-.19-2.73-.29-3.79-.29-.41,0-.79,.01-1.14,.04,0,0-.02,0-.02,0-.11,0-.21-.06-.26-.15-.08-.15-.17-.37-.26-.68-.01-.05-.02-.1,0-.16L49.37,3.7s.04-.09,.07-.13c.37-.4,.82-1.2,1.32-2.38,.05-.11,.16-.18,.28-.18h.18c.14,0,.26,.1,.29,.23l9.69,40.82c.41,1.73,1.25,2.96,2.51,3.65,.1,.05,.15,.15,.15,.26v.55c0,.09-.04,.17-.11,.23-.05,.04-.12,.07-.19,.07-.02,0-.04,0-.06,0-.44-.08-.95-.13-1.51-.13-.36,0-.75,.02-1.15,.05-1.04,.09-1.97,.26-2.77,.5-.03,0-.06,.01-.09,.01Zm-11.64-23.75c.78,.03,1.72,.05,2.8,.05,1.18,0,2.53-.02,4.07-.05l-3.31-14.47-3.57,14.48Z"/>
        <path class="cls-1" d="M76.27,47.97c-1.84,0-3.56-.59-5.13-1.75-1.55-1.15-2.9-2.79-4.01-4.88-1.11-2.08-1.99-4.62-2.61-7.55-.62-2.93-.94-6.22-.94-9.8s.35-7,1.04-9.93c.69-2.94,1.66-5.48,2.87-7.54,1.22-2.08,2.69-3.7,4.36-4.82,1.68-1.13,3.53-1.7,5.49-1.7,2.48,0,4.88,1.08,7.13,3.22,.07,.06,.1,.16,.09,.25-.38,3.32-.96,6.45-1.75,9.31-.03,.1-.11,.18-.21,.21-.03,0-.05,.01-.08,.01-.08,0-.15-.03-.21-.08l-.46-.43c-.07-.06-.1-.15-.09-.25,.14-1.48,.21-2.97,.21-4.43,0-1.21-.05-2.1-.15-2.64-1.8-1.56-3.6-2.35-5.35-2.35-1.41,0-2.69,.4-3.82,1.19-1.14,.8-2.12,2.08-2.93,3.8-.82,1.75-1.46,4.02-1.9,6.75-.44,2.74-.66,6.08-.66,9.92,0,1.95,.11,3.84,.33,5.62,.22,1.78,.54,3.47,.95,5.02,.41,1.54,.92,2.97,1.51,4.23,.59,1.25,1.27,2.34,2.01,3.23,.73,.88,1.55,1.57,2.42,2.05,.86,.48,1.78,.72,2.75,.72,.71,0,1.37-.06,1.95-.18,.57-.12,1.11-.33,1.62-.63,.51-.3,1.03-.73,1.53-1.27,.51-.55,1.07-1.27,1.66-2.13,.06-.08,.15-.13,.25-.13,0,0,.01,0,.02,0,.11,0,.2,.07,.25,.17l.72,1.45c.05,.1,.04,.23-.03,.32-.7,.91-1.38,1.69-2.03,2.31-.66,.63-1.34,1.15-2.03,1.56-.7,.41-1.44,.71-2.22,.9-.77,.18-1.63,.27-2.55,.27Z"/>
        <path class="cls-1" d="M90.85,46.71c-.14,0-.26-.09-.29-.22-.23-.86-.34-1.9-.34-3.09V10.7c0-1.34-.04-2.45-.1-3.31-.07-.84-.19-1.52-.37-2.01-.16-.45-.38-.77-.66-.94-.29-.17-.67-.26-1.14-.26h-.25c-.06,0-.13,0-.21,.02-.02,0-.04,0-.06,0-.06,0-.13-.02-.18-.06-.07-.05-.11-.13-.12-.22l-.07-.89c-.01-.14,.08-.27,.22-.31,3.35-.93,7.09-1.4,11.12-1.4,2.05,0,4.23,.12,6.48,.37,.13,.01,.23,.11,.26,.23l.12,.52s.01,.09,0,.13l-1.67,7.66c-.02,.09-.08,.17-.17,.21-.04,.02-.08,.03-.12,.03-.05,0-.1-.01-.14-.04l-.56-.31c-.11-.06-.17-.18-.15-.3,.09-.77,.16-1.49,.21-2.14,.05-.65,.07-1.29,.07-1.9,0-.53-.03-1.03-.1-1.51-.8-.12-1.59-.22-2.36-.29-.84-.07-1.69-.11-2.51-.11-1.42,0-2.84,.11-4.22,.32V21.01s9.31-.89,9.32-.89c.11,0,.21,.06,.27,.16l.18,.34c.04,.07,.04,.15,.02,.23l-.83,2.52c-.04,.12-.16,.21-.28,.21,0,0-.02,0-.02,0-.52-.04-1.05-.07-1.59-.09-.54-.02-1.08-.03-1.64-.03-.9,0-1.84,.03-2.78,.09-.86,.06-1.74,.13-2.64,.22v20.45l5.87-.32c.81-.04,1.49-.2,2.04-.49,.54-.29,1.02-.7,1.41-1.22,.4-.54,.76-1.22,1.07-2.02,.31-.82,.63-1.78,.94-2.85,.03-.09,.1-.17,.19-.2,.03-.01,.06-.02,.1-.02,.06,0,.12,.02,.18,.06l.51,.37c.1,.07,.14,.19,.12,.31l-1.74,8.21s-.02,.07-.04,.1l-.28,.43c-.06,.08-.15,.14-.25,.14h-12.78Z"/>
        <path class="cls-1" d="M164.77,47.33s-.08,0-.12-.02l-1.41-.62c-.09-.04-.16-.12-.18-.22-1.14-6.41-2.4-12.57-3.73-18.3-1.34-5.75-2.97-12.31-4.86-19.48-.35-1.38-.72-2.38-1.09-2.96-.33-.52-.65-.78-.95-.78-.4,0-.88,.04-1.44,.12-.01,0-.03,0-.04,0-.13,0-.25-.09-.29-.22l-.18-.62c-.03-.11,0-.23,.09-.31,2.02-1.76,3.8-2.66,5.3-2.66,.13,0,.25,.09,.29,.22,.63,2.17,1.24,4.37,1.81,6.54,.57,2.17,1.18,4.64,1.82,7.34,.64,2.71,1.12,4.77,1.45,6.2,.33,1.43,.88,3.86,1.64,7.31,.77,3.45,1.25,5.62,1.45,6.52,.28,1.17,.49,2.45,.61,3.81,.05-.27,.1-.6,.17-1,.22-1.29,.49-2.6,.79-3.89l6.56-29.04c.05-.63-.1-1.07-.46-1.31-.25-.17-.62-.25-1.09-.25-.27,0-.58,.03-.92,.08-.02,0-.03,0-.05,0-.14,0-.27-.1-.29-.24l-.11-.55c-.03-.13,.04-.26,.16-.32,1.55-.78,3.23-1.17,4.99-1.17,.11,0,.37,.04,.49,.41,.05,.18,.07,.36,.04,.55-.13,.76-.27,1.54-.41,2.34-.15,.81-3.43,15.03-9.75,42.28-.02,.09-.08,.16-.16,.2-.04,.02-.09,.03-.13,.03Z"/>
        <path class="cls-1" d="M178.49,47.2c-.12,0-.23-.07-.28-.19l-.12-.31c-.03-.07-.03-.15,0-.23,.23-.56,.35-1.61,.35-3.15V11c0-2.84-.19-4.77-.58-5.73-.3-.74-.85-1.11-1.71-1.11-.15,0-.3,.01-.47,.03-.01,0-.03,0-.04,0-.07,0-.13-.02-.18-.06-.06-.05-.1-.12-.11-.2l-.07-.58c-.01-.12,.05-.24,.16-.3,1.97-1.02,3.87-1.54,5.64-1.54,.14,0,.26,.1,.29,.24,.24,1.14,.36,2.35,.36,3.6V40.87c0,1.61,.18,2.78,.55,3.49,.35,.68,1.03,1.19,2.02,1.51,.14,.05,.23,.19,.2,.34l-.14,.74c-.02,.08-.06,.15-.13,.2-.05,.03-.11,.05-.16,.05-.02,0-.05,0-.07,0-1.28-.3-2.26-.46-2.91-.48h-.1c-.63,0-1.43,.16-2.39,.48-.03,.01-.06,.02-.09,.02Z"/>
        <path class="cls-1" d="M199.3,47.97c-1.84,0-3.56-.59-5.13-1.75-1.55-1.15-2.9-2.79-4.01-4.88-1.11-2.08-1.99-4.62-2.61-7.55-.62-2.93-.94-6.22-.94-9.8s.35-7,1.04-9.93c.69-2.94,1.66-5.48,2.87-7.54,1.22-2.08,2.69-3.7,4.36-4.82,1.68-1.13,3.53-1.7,5.49-1.7,2.48,0,4.88,1.08,7.13,3.22,.07,.06,.1,.16,.09,.25-.38,3.32-.96,6.45-1.75,9.31-.03,.1-.11,.18-.21,.21-.03,0-.05,.01-.08,.01-.08,0-.15-.03-.21-.08l-.46-.43c-.07-.06-.1-.15-.09-.25,.14-1.48,.21-2.97,.21-4.43,0-1.21-.05-2.1-.15-2.64-1.8-1.56-3.6-2.35-5.35-2.35-1.41,0-2.69,.4-3.82,1.19-1.14,.8-2.12,2.08-2.93,3.8-.82,1.75-1.46,4.02-1.9,6.75-.44,2.74-.66,6.08-.66,9.92,0,1.95,.11,3.84,.33,5.62,.22,1.78,.54,3.47,.95,5.02,.41,1.54,.92,2.97,1.51,4.23,.59,1.25,1.26,2.34,2.01,3.23,.73,.88,1.55,1.57,2.42,2.05,.86,.48,1.78,.72,2.75,.72,.71,0,1.37-.06,1.95-.18,.57-.12,1.11-.33,1.62-.63,.51-.3,1.03-.73,1.53-1.27,.51-.55,1.07-1.27,1.66-2.13,.06-.08,.15-.13,.25-.13,0,0,.01,0,.02,0,.11,0,.2,.07,.25,.17l.72,1.45c.05,.1,.04,.23-.03,.32-.7,.91-1.38,1.69-2.03,2.31-.66,.63-1.34,1.15-2.03,1.56-.7,.41-1.44,.71-2.22,.9-.77,.18-1.63,.27-2.55,.27Z"/>
        <path class="cls-1" d="M217.66,47.2c-.12,0-.24-.08-.28-.2l-.11-.31c-.02-.07-.02-.14,0-.21,.22-.56,.33-1.62,.33-3.15V3.81c-.81,.02-1.75,.07-2.81,.15-1.12,.08-2.41,.19-3.84,.34-.05,.59-.08,1.23-.08,1.88,0,1.07,.08,2.3,.24,3.66,.01,.12-.05,.24-.16,.3l-.58,.31s-.09,.03-.14,.03c-.04,0-.09,0-.13-.03-.09-.04-.15-.12-.17-.21l-1.65-7.48s0-.1,0-.15l.21-.71c.03-.11,.13-.19,.24-.21,1.71-.27,3.4-.46,5-.57,1.61-.11,3.22-.17,4.78-.17s3.3,.07,5.14,.2c1.83,.13,3.86,.33,6.04,.6,.12,.01,.21,.09,.25,.2l.21,.65c.02,.05,.02,.11,0,.16l-1.65,7.48c-.02,.09-.08,.17-.17,.21-.04,.02-.08,.03-.13,.03-.05,0-.1-.01-.14-.03l-.58-.31c-.11-.06-.17-.18-.16-.3,.08-.71,.14-1.38,.18-2,.04-.62,.06-1.2,.06-1.75,0-.65-.03-1.25-.08-1.79-1.38-.15-2.65-.26-3.76-.34-1.06-.07-2.02-.12-2.85-.15V40.87c0,.82,.04,1.53,.13,2.11,.08,.56,.22,1.04,.42,1.41,.19,.37,.44,.67,.75,.89,.32,.24,.74,.43,1.25,.59,.15,.04,.24,.19,.21,.34l-.14,.74c-.02,.08-.06,.15-.13,.2-.05,.03-.11,.05-.16,.05-.02,0-.05,0-.07,0-.69-.16-1.3-.28-1.81-.36-.5-.08-.92-.12-1.25-.12-.31,0-.66,.04-1.04,.12-.39,.08-.83,.2-1.31,.36-.03,.01-.06,.02-.1,.02Z"/>
        <path class="cls-1" d="M243.37,47.97c-1.79,0-3.48-.56-5.01-1.67-1.52-1.1-2.85-2.68-3.96-4.7-1.1-2-1.98-4.56-2.61-7.6-.62-3.03-.94-6.44-.94-10.14,0-3.27,.34-6.41,1-9.33,.66-2.92,1.57-5.46,2.68-7.54,1.12-2.09,2.47-3.77,4.01-5,1.56-1.25,3.22-1.88,4.93-1.88,4.02,0,7.15,2.24,9.3,6.66,2.12,4.35,3.19,10.44,3.19,18.1,0,3.25-.33,6.34-.99,9.2-.66,2.87-1.56,5.34-2.68,7.34-1.13,2.02-2.48,3.63-4.01,4.78-1.55,1.17-3.21,1.77-4.92,1.77Zm-.3-45.37c-1.35,0-2.59,.56-3.68,1.65-1.12,1.12-2.04,2.66-2.75,4.58-.72,1.94-1.27,4.19-1.65,6.69-.38,2.51-.58,5.21-.58,8.03,0,2.99,.19,5.76,.55,8.25,.36,2.48,.86,4.6,1.47,6.29,.61,1.69,1.33,3.14,2.15,4.3,.81,1.15,1.67,1.99,2.55,2.51,.87,.51,1.79,.77,2.73,.77,1.35,0,2.59-.53,3.67-1.58,1.1-1.07,2.02-2.56,2.71-4.43,.7-1.89,1.25-4.09,1.62-6.54,.37-2.45,.56-5.13,.56-7.95,0-3.68-.27-7.03-.8-9.98-.53-2.93-1.24-5.33-2.13-7.13-.88-1.79-1.89-3.17-2.99-4.1-1.08-.91-2.24-1.38-3.44-1.38Z"/>
        <path class="cls-1" d="M275.69,47.6c-.08,0-.16-.03-.22-.09l-.26-.28c-.05-.06-.08-.13-.08-.21,0-.25-.09-.65-.28-1.18-.2-.56-.44-1.19-.72-1.89-.29-.71-.8-1.99-1.54-3.85-.74-1.85-3.09-7.58-7.19-17.52-.01-.04-.02-.08-.02-.11v-1.02c0-.14,.1-.27,.24-.29,1.12-.22,2.1-.61,2.89-1.18,.79-.57,1.46-1.3,1.97-2.18,.52-.89,.91-1.96,1.15-3.17,.25-1.23,.37-2.61,.37-4.12-.03-1.2-.14-2.23-.3-3.05-.16-.79-.43-1.44-.8-1.92-.36-.47-.85-.82-1.45-1.04-.63-.22-1.44-.34-2.42-.34-.37,0-.76,.02-1.16,.05-.32,.02-.67,.05-1.03,.08,.05,.41,.07,.85,.07,1.3V40.87c0,.82,.04,1.53,.13,2.11,.08,.56,.22,1.04,.42,1.41,.19,.37,.44,.67,.76,.89,.33,.24,.75,.43,1.26,.59,.15,.05,.24,.2,.21,.35l-.16,.74c-.02,.08-.06,.15-.13,.19-.05,.03-.1,.05-.16,.05-.02,0-.05,0-.07,0-.71-.16-1.32-.28-1.83-.37-.5-.08-.91-.12-1.24-.12-.3,0-.64,.04-1.03,.12-.4,.08-.84,.2-1.32,.36-.03,.01-.06,.02-.1,.02-.12,0-.24-.08-.28-.2l-.11-.31c-.02-.07-.02-.14,0-.21,.22-.56,.33-1.62,.33-3.15V11c0-1.34-.04-2.48-.1-3.38-.07-.88-.19-1.6-.37-2.13-.17-.49-.39-.84-.68-1.03-.18-.12-.57-.27-1.44-.27,0,0-.2,0-.2,0-.16,0-.29-.12-.3-.28l-.07-.89c-.01-.15,.09-.28,.23-.32l2.08-.49c.61-.14,1.18-.27,1.73-.39,.55-.11,1.09-.21,1.63-.29s1.06-.15,1.55-.2c.5-.05,.9-.09,1.2-.11,.31-.02,.6-.03,.87-.03,1.09,0,2.12,.14,3.05,.43,.95,.29,1.79,.8,2.48,1.53,.69,.72,1.24,1.69,1.62,2.9,.38,1.19,.57,2.71,.57,4.52,0,1.35-.17,2.65-.51,3.86-.34,1.21-.8,2.33-1.38,3.33-.58,1-1.26,1.9-2.04,2.66-.73,.72-1.51,1.31-2.33,1.77v.1l7.13,17.82c.6,1.53,1.38,2.72,2.33,3.55,1.16,.86,1.57,1.15,1.71,1.23l.71,.43c.09,.05,.14,.15,.14,.26v.58c0,.17-.13,.3-.3,.3-2.01,0-3.72,.37-5.08,1.1-.04,.02-.09,.04-.14,.04Z"/>
        <path class="cls-1" d="M288.53,47.2c-.12,0-.24-.08-.28-.2l-.11-.31c-.02-.07-.02-.14,0-.21,.22-.56,.33-1.62,.33-3.15V26.51l-5.56-17.57c-.46-1.34-.87-2.31-1.22-2.89-.32-.52-.64-.82-.95-.9-.13-.03-.28-.05-.43-.05-.25,0-.54,.04-.85,.12-.03,0-.05,0-.08,0-.11,0-.22-.06-.27-.17l-.26-.55c-.06-.12-.03-.27,.07-.35,1.78-1.57,3.19-2.42,4.3-2.59,.04,0,.1-.01,.15-.01,.81,0,1.15,1.17,1.26,1.55l6.08,19.63c3.49-9.56,5.49-15.43,5.94-17.46,.13-.66,.02-1.16-.33-1.53-.37-.39-1.03-.67-1.94-.82-.13-.02-.23-.13-.25-.26l-.07-.58c-.02-.16,.09-.31,.25-.33,.83-.14,1.59-.21,2.25-.21,1.08,0,1.98,.18,2.65,.55,.25,.21,.44,.53,.29,1.11-.2,.7-.42,1.43-.65,2.18-.24,.75-2.61,7.47-7.07,19.97v15.51c0,1.61,.18,2.78,.54,3.5,.34,.68,1.02,1.19,2.01,1.51,.14,.05,.23,.19,.2,.34l-.14,.74c-.02,.08-.06,.15-.13,.2-.05,.03-.11,.05-.16,.05-.02,0-.05,0-.07,0-1.28-.3-2.26-.46-2.91-.48h-.1c-.63,0-1.43,.16-2.39,.48-.03,.01-.06,.02-.09,.02Z"/>
      </g>
      <g>
        <line class="cls-2" x1="122.53" y1="18.02" x2="137.99" y2="33.47"/>
        <line class="cls-2" x1="137.99" y1="18.02" x2="122.53" y2="33.47"/>
      </g>
    </g>
  </g>
</svg>