<?xml version="1.0" encoding="UTF-8"?>
<svg id="peace-svg" data-name="圖層 2" xmlns="http://www.w3.org/2000/svg" viewBox="0 0 132.29 59.82">
  <defs>
    <style>
      .cls-1 {
        fill: #b6c396;
      }
    </style>
  </defs>
  <g id="_圖層_2-2" data-name="圖層 2">
    <g>
      <path class="peace-cls-1"
        d="M3.95,58.85s-.09,0-.13-.03c-.07-.03-.13-.1-.15-.17l-.13-.38c-.02-.07-.02-.14,0-.21,.28-.7,.42-2.04,.42-3.97V13.68c0-3.58-.23-5.96-.69-7.06-.43-1.03-1.37-1.53-2.88-1.53-.16,0-.29-.12-.3-.28L0,3.71c-.01-.15,.08-.28,.22-.31,4.08-1.05,7.41-1.59,9.9-1.59,1.72,0,3.27,.23,4.61,.67,1.35,.45,2.58,1.2,3.66,2.24,1.09,1.04,1.93,2.5,2.51,4.34,.57,1.82,.86,4.03,.86,6.59,0,2.82-.53,5.43-1.58,7.76-1.05,2.33-2.37,4.13-3.93,5.34-1.58,1.23-3.22,1.85-4.88,1.85-.67,0-1.16-.06-1.5-.17-.12-.04-.21-.16-.21-.28v-1.35c0-.17,.13-.3,.3-.3,1.06,0,2.05-.25,2.94-.73,.9-.49,1.72-1.23,2.43-2.22,.71-.99,1.28-2.32,1.69-3.95,.41-1.65,.62-3.57,.62-5.71,0-3.45-.5-6.21-1.49-8.21-.96-1.96-2.43-2.91-4.48-2.91-1.44,0-2.73,.14-3.85,.42,.07,.7,.11,1.44,.11,2.2V51.02c0,2.02,.23,3.5,.69,4.4,.44,.87,1.31,1.52,2.57,1.93,.15,.05,.23,.2,.2,.35l-.2,.92c-.02,.08-.07,.15-.13,.19-.05,.03-.1,.05-.16,.05-.02,0-.05,0-.07,0-1.64-.4-2.95-.61-3.88-.61-.83,0-1.8,.2-2.91,.6-.03,.01-.07,.02-.1,.02Z" />
      <path class="peace-cls-1"
        d="M28.53,58.24c-.14,0-.26-.09-.29-.22-.28-1.07-.43-2.36-.43-3.85V13.3c0-1.68-.04-3.07-.13-4.15-.09-1.06-.24-1.91-.47-2.54-.21-.58-.5-.99-.85-1.21-.37-.23-.86-.34-1.46-.34h-.32c-.09,0-.18,.01-.28,.03-.02,0-.04,0-.06,0-.06,0-.13-.02-.18-.06-.07-.05-.11-.13-.12-.22l-.09-1.12c-.01-.14,.08-.27,.22-.31,4.18-1.16,8.85-1.74,13.88-1.74,2.56,0,5.29,.16,8.1,.46,.13,.01,.23,.11,.26,.23l.15,.65s.01,.09,0,.13l-2.09,9.57c-.02,.09-.08,.17-.17,.21-.04,.02-.08,.03-.12,.03-.05,0-.1-.01-.14-.04l-.7-.38c-.11-.06-.17-.18-.15-.3,.12-.97,.2-1.86,.26-2.68,.06-.81,.09-1.61,.09-2.38,0-.68-.05-1.34-.14-1.95-1.02-.16-2.03-.28-3-.37-1.05-.09-2.11-.13-3.15-.13-1.81,0-3.6,.14-5.35,.42V26.27s11.71-1.12,11.72-1.12c.11,0,.21,.06,.27,.16l.22,.42c.04,.07,.04,.15,.02,.23l-1.03,3.15c-.04,.12-.16,.21-.28,.21,0,0-.02,0-.02,0-.66-.05-1.32-.09-1.99-.11-.67-.03-1.35-.04-2.05-.04-1.13,0-2.3,.04-3.47,.11-1.09,.07-2.22,.17-3.37,.28v25.71l7.42-.41c1.02-.05,1.89-.26,2.58-.62,.69-.36,1.29-.88,1.79-1.55,.51-.68,.96-1.53,1.34-2.54,.39-1.03,.79-2.23,1.18-3.57,.03-.09,.1-.17,.19-.2,.03-.01,.06-.02,.1-.02,.06,0,.12,.02,.18,.06l.64,.46c.1,.07,.14,.19,.12,.31l-2.18,10.27s-.02,.07-.04,.1l-.35,.54c-.06,.08-.15,.14-.25,.14h-15.97Z" />
      <path class="peace-cls-1"
        d="M72.4,58.93c-.11,0-.22-.07-.27-.18l-.18-.38c-.04-.08-.04-.17,0-.25,.27-.62,.33-1.69,.18-3.2-.15-1.54-.6-3.92-1.34-7.07l-3.57-15.69c-1.7-.05-3.29-.07-4.75-.07-2.04,0-3.87,.05-5.45,.14l-5.02,20.44c-.29,1.11-.19,2,.3,2.72,.5,.74,1.51,1.37,3,1.88,.13,.05,.22,.18,.2,.32l-.09,.69c-.01,.08-.05,.15-.11,.2-.05,.04-.12,.06-.18,.06-.01,0-.03,0-.04,0-1.82-.24-3.42-.36-4.75-.36-.51,0-.99,.02-1.43,.05,0,0-.02,0-.02,0-.11,0-.21-.06-.26-.15-.1-.18-.2-.45-.31-.84-.01-.05-.02-.1,0-.16L61.71,4.57s.04-.09,.07-.13c.47-.51,1.03-1.52,1.66-2.99,.05-.11,.16-.18,.28-.18h.22c.14,0,.26,.1,.29,.23l12.11,51.03c.52,2.19,1.59,3.74,3.17,4.61,.1,.05,.16,.15,.16,.26v.69c0,.09-.04,.17-.11,.23-.05,.04-.12,.07-.19,.07-.02,0-.04,0-.06,0-.56-.11-1.2-.16-1.9-.16-.45,0-.94,.02-1.45,.07-1.31,.11-2.48,.32-3.48,.62-.03,0-.06,.01-.09,.01Zm-14.65-29.54c.99,.04,2.2,.06,3.6,.06,1.49,0,3.23-.02,5.18-.07l-4.23-18.48-4.55,18.49Z" />
      <path class="peace-cls-1"
        d="M95.26,59.82c-2.28,0-4.42-.73-6.36-2.17-1.92-1.43-3.6-3.47-5-6.08-1.38-2.59-2.48-5.76-3.26-9.42-.78-3.66-1.17-7.77-1.17-12.23s.44-8.73,1.29-12.39c.86-3.67,2.06-6.83,3.58-9.41,1.52-2.59,3.35-4.61,5.43-6,2.09-1.4,4.39-2.11,6.82-2.11,3.08,0,6.06,1.35,8.86,4,.07,.06,.1,.16,.09,.25-.47,4.15-1.2,8.06-2.18,11.62-.03,.1-.11,.18-.21,.21-.03,0-.05,.01-.08,.01-.08,0-.15-.03-.21-.08l-.57-.54c-.07-.06-.1-.15-.09-.25,.17-1.85,.26-3.72,.26-5.55,0-1.54-.07-2.66-.19-3.34-2.27-1.97-4.54-2.97-6.76-2.97-1.77,0-3.39,.51-4.82,1.5-1.43,1-2.67,2.61-3.69,4.78-1.03,2.19-1.83,5.04-2.38,8.46-.55,3.43-.83,7.6-.83,12.41,0,2.44,.14,4.81,.42,7.04,.27,2.23,.68,4.34,1.19,6.29,.51,1.93,1.15,3.72,1.89,5.29,.74,1.57,1.59,2.94,2.52,4.05,.92,1.11,1.95,1.98,3.05,2.58,1.08,.6,2.25,.9,3.47,.9,.9,0,1.73-.08,2.46-.22,.72-.15,1.41-.41,2.05-.79,.65-.38,1.3-.92,1.93-1.6,.64-.69,1.34-1.59,2.08-2.67,.06-.08,.15-.13,.25-.13,0,0,.01,0,.02,0,.11,0,.2,.07,.25,.17l.9,1.81c.05,.1,.04,.23-.03,.32-.87,1.13-1.72,2.1-2.54,2.88-.82,.78-1.67,1.44-2.53,1.94-.86,.51-1.79,.89-2.75,1.11-.96,.22-2.02,.33-3.17,.33Z" />
      <path class="peace-cls-1"
        d="M113.49,58.24c-.14,0-.26-.09-.29-.22-.28-1.07-.43-2.36-.43-3.85V13.3c0-1.68-.04-3.07-.13-4.15-.09-1.06-.24-1.91-.47-2.54-.21-.58-.5-.99-.85-1.21-.37-.23-.86-.34-1.46-.34h-.32c-.09,0-.18,.01-.28,.03-.02,0-.04,0-.06,0-.06,0-.13-.02-.18-.06-.07-.05-.11-.13-.12-.22l-.09-1.12c-.01-.14,.08-.27,.22-.31,4.18-1.16,8.85-1.74,13.88-1.74,2.56,0,5.29,.16,8.1,.46,.13,.01,.23,.11,.26,.23l.15,.65s.01,.09,0,.13l-2.09,9.57c-.02,.09-.08,.17-.17,.21-.04,.02-.08,.03-.12,.03-.05,0-.1-.01-.14-.04l-.7-.38c-.11-.06-.17-.18-.15-.3,.12-.97,.2-1.86,.26-2.68,.06-.81,.09-1.61,.09-2.38,0-.68-.05-1.34-.14-1.95-1.02-.16-2.03-.28-3-.37-1.05-.09-2.11-.13-3.15-.13-1.81,0-3.6,.14-5.35,.42V26.27s11.71-1.12,11.72-1.12c.11,0,.21,.06,.27,.16l.22,.42c.04,.07,.04,.15,.02,.23l-1.03,3.15c-.04,.12-.16,.21-.28,.21,0,0-.02,0-.02,0-.66-.05-1.32-.09-1.99-.11-.67-.03-1.35-.04-2.05-.04-1.13,0-2.3,.04-3.47,.11-1.09,.07-2.22,.17-3.37,.28v25.71l7.42-.41c1.02-.05,1.89-.26,2.58-.62,.69-.36,1.29-.88,1.79-1.55,.51-.68,.96-1.53,1.34-2.54,.39-1.03,.79-2.23,1.18-3.57,.03-.09,.1-.17,.19-.2,.03-.01,.06-.02,.1-.02,.06,0,.12,.02,.18,.06l.64,.46c.1,.07,.14,.19,.12,.31l-2.18,10.27s-.02,.07-.04,.1l-.35,.54c-.06,.08-.15,.14-.25,.14h-15.97Z" />
    </g>
  </g>
</svg>