<?xml version="1.0" encoding="UTF-8"?>
<svg id="_圖層_2" data-name="圖層 2" xmlns="http://www.w3.org/2000/svg" viewBox="0 0 88.57 71.8">
  <defs>
    <style>
      .cls-1 {
        fill: #fff;
      }

      .cls-2 {
        fill: #b6c396;
        font-family: Junge-Regular, Junge;
        font-size: 36px;
        letter-spacing: -.05em;
      }
    </style>
  </defs>
  <g id="_1" data-name="1">
    <g>
      <text class="cls-2" transform="translate(0 53.71) scale(1 1.75)"><tspan x="0" y="0">PLAN</tspan></text>
      <g>
        <path class="cls-1" d="M10.76,54.49c-1.31-.32-2.35-.48-3.09-.48-.65,0-1.43,.16-2.31,.47-.03,.01-.07,.02-.1,.02-.04,0-.09,0-.13-.03-.07-.03-.13-.1-.15-.17l-.11-.31c-.02-.07-.02-.14,0-.21,.22-.56,.33-1.62,.33-3.15V18.3c0-2.86-.18-4.75-.55-5.62-.33-.8-1.07-1.19-2.25-1.19-.16,0-.29-.12-.3-.28l-.07-.89c-.01-.15,.08-.28,.22-.31,3.27-.84,5.94-1.27,7.93-1.27,1.39,0,2.63,.18,3.71,.54,1.09,.36,2.08,.97,2.95,1.81,.88,.84,1.56,2.02,2.02,3.5,.46,1.46,.69,3.24,.69,5.29,0,2.27-.43,4.36-1.27,6.23-.84,1.87-1.91,3.32-3.17,4.3-1.27,.99-2.6,1.49-3.94,1.49-.54,0-.94-.04-1.22-.14-.12-.04-.21-.16-.21-.28v-1.08c0-.17,.13-.3,.3-.3,.84,0,1.62-.19,2.33-.58,.71-.39,1.36-.98,1.92-1.76,.57-.79,1.02-1.84,1.34-3.14,.33-1.31,.49-2.85,.49-4.56,0-2.75-.4-4.95-1.18-6.54-.76-1.54-1.91-2.29-3.53-2.29-1.12,0-2.14,.11-3.01,.33,.05,.55,.08,1.12,.08,1.71V48.17c0,1.61,.18,2.78,.55,3.49,.35,.68,1.03,1.19,2.02,1.51,.15,.05,.23,.2,.2,.35l-.16,.74c-.02,.08-.07,.15-.13,.19-.05,.03-.1,.05-.16,.05-.02,0-.05,0-.07,0Z"/>
        <path class="cls-1" d="M24.2,54.01c-.14,0-.26-.09-.29-.22-.23-.88-.34-1.92-.34-3.09V18.3c0-2.84-.19-4.77-.57-5.74-.29-.74-.85-1.1-1.71-1.1-.15,0-.31,.01-.47,.03-.01,0-.03,0-.04,0-.07,0-.13-.02-.18-.06-.06-.05-.1-.12-.11-.2l-.07-.58c-.01-.12,.05-.24,.16-.3,1.97-1.02,3.87-1.54,5.66-1.54,.14,0,.26,.1,.29,.24,.24,1.14,.36,2.35,.36,3.6V51.52l5.52-.32c.81-.04,1.51-.2,2.06-.48,.55-.27,1.03-.71,1.43-1.31,.42-.62,.77-1.29,1.03-1.97,.27-.69,.58-1.64,.91-2.82,.03-.09,.1-.17,.19-.2,.03-.01,.07-.02,.1-.02,.06,0,.12,.02,.18,.06l.51,.37c.1,.07,.14,.19,.12,.3l-1.72,8.21s-.02,.08-.05,.11l-.3,.43c-.06,.08-.15,.13-.25,.13h-12.41Z"/>
        <path class="cls-1" d="M58.57,54.56c-.11,0-.22-.07-.27-.18l-.14-.31c-.04-.08-.04-.17,0-.25,.21-.48,.26-1.33,.14-2.53-.12-1.23-.48-3.13-1.07-5.65l-2.85-12.51c-1.34-.04-2.59-.06-3.75-.06-1.61,0-3.06,.04-4.31,.11l-4.01,16.3c-.23,.87-.15,1.56,.23,2.13,.39,.58,1.19,1.08,2.37,1.48,.13,.05,.22,.18,.2,.32l-.07,.55c-.01,.08-.05,.15-.11,.2-.05,.04-.12,.06-.18,.06-.01,0-.03,0-.04,0-1.46-.19-2.73-.29-3.79-.29-.41,0-.79,.01-1.14,.04,0,0-.02,0-.02,0-.11,0-.21-.06-.26-.15-.08-.15-.17-.37-.26-.68-.01-.05-.02-.11,0-.16L49.97,11s.04-.09,.07-.13c.37-.4,.82-1.2,1.32-2.38,.05-.11,.16-.18,.28-.18h.18c.14,0,.26,.1,.29,.23l9.69,40.82c.41,1.73,1.25,2.96,2.51,3.65,.1,.05,.16,.15,.16,.26v.55c0,.09-.04,.17-.11,.23-.05,.04-.12,.07-.19,.07-.02,0-.04,0-.06,0-.44-.08-.95-.13-1.51-.13-.36,0-.75,.02-1.15,.05-1.04,.09-1.97,.26-2.77,.5-.03,0-.06,.01-.09,.01Zm-11.64-23.75c.78,.03,1.72,.05,2.8,.05,1.18,0,2.53-.02,4.07-.05l-3.31-14.47-3.57,14.48Z"/>
        <path class="cls-1" d="M72.47,54.19c-1.09-.12-2.09-.18-2.96-.18s-1.63,.06-2.28,.18c-.02,0-.04,0-.05,0-.06,0-.13-.02-.18-.06-.07-.05-.11-.12-.12-.2-.07-.56-.11-1.12-.11-1.67V16.86c-.03-1.42-.18-2.72-.43-3.84-.28-1.31-.84-1.94-1.72-1.94-.09,0-.19,0-.29,.02-.01,0-.03,0-.04,0-.07,0-.14-.03-.2-.07-.07-.06-.1-.14-.1-.23v-.62c0-.12,.07-.23,.18-.27,1.67-.73,3.34-1.1,4.95-1.1,.12,0,.23,.07,.27,.18l13.24,29.62c.62,1.37,1.12,2.63,1.5,3.73,.17,.5,.33,1.05,.5,1.66V14.52c0-1.35-.28-2.3-.83-2.85-.42-.42-1.06-.63-1.89-.63-.24,0-.49,.02-.75,.05-.01,0-.03,0-.04,0-.15,0-.28-.11-.3-.26l-.09-.62c-.02-.13,.05-.26,.18-.32,1.55-.67,3.3-1.04,5.19-1.1h.01c.12,0,.24,.08,.28,.19,.21,.56,.32,1.15,.32,1.74V53.71c0,.17-.13,.3-.3,.3h-.72c-.12,0-.23-.07-.28-.18-.79-1.87-3.1-7.03-6.85-15.33-3.76-8.3-6.48-14.39-8.09-18.11-.53-1.21-1.05-2.59-1.55-4.12V49.74c0,.72,.13,1.27,.38,1.65,.25,.38,.53,.64,.82,.77,.33,.15,.8,.31,1.4,.49,.62,.19,.99,.3,1.09,.35,.12,.04,.19,.16,.19,.28v.62c0,.09-.04,.17-.1,.22-.06,.05-.13,.08-.2,.08-.01,0-.02,0-.03,0Z"/>
      </g>
    </g>
  </g>
</svg>