<?xml version="1.0" encoding="UTF-8"?>
<svg id="position-svg" data-name="圖層 2" xmlns="http://www.w3.org/2000/svg" viewBox="0 0 161.89 71.8">
  <defs>
    <style>
      .position-cls-1,
      .cls-2 {
        fill: #b6c396;
      }

      .cls-2 {
        font-family: Junge-Regular, Junge;
        font-size: 36px;
        letter-spacing: -.05em;
      }
    </style>
  </defs>
  <g id="_1" data-name="1">
    <g>

      <g>
        <path class="position-cls-1"
          d="M10.76,54.49c-1.31-.32-2.35-.48-3.09-.48-.65,0-1.43,.16-2.31,.47-.03,.01-.07,.02-.1,.02-.04,0-.09,0-.13-.03-.07-.03-.13-.1-.15-.17l-.11-.31c-.02-.07-.02-.14,0-.21,.22-.56,.33-1.62,.33-3.15V18.3c0-2.86-.18-4.75-.55-5.62-.33-.8-1.07-1.19-2.25-1.19-.16,0-.29-.12-.3-.28l-.07-.89c-.01-.15,.08-.28,.22-.31,3.27-.84,5.94-1.27,7.93-1.27,1.39,0,2.63,.18,3.71,.54,1.09,.36,2.08,.97,2.95,1.81,.88,.84,1.56,2.02,2.02,3.5,.46,1.46,.69,3.24,.69,5.29,0,2.27-.43,4.36-1.27,6.23-.84,1.87-1.91,3.32-3.17,4.3-1.27,.99-2.6,1.49-3.94,1.49-.54,0-.94-.04-1.22-.14-.12-.04-.21-.16-.21-.28v-1.08c0-.17,.13-.3,.3-.3,.84,0,1.62-.19,2.33-.58,.71-.39,1.36-.98,1.92-1.76,.57-.79,1.02-1.84,1.34-3.14,.33-1.31,.49-2.85,.49-4.56,0-2.75-.4-4.95-1.18-6.54-.76-1.54-1.91-2.29-3.53-2.29-1.12,0-2.14,.11-3.01,.33,.05,.55,.08,1.12,.08,1.71V48.17c0,1.61,.18,2.78,.55,3.49,.35,.68,1.03,1.19,2.02,1.51,.15,.05,.23,.2,.2,.35l-.16,.74c-.02,.08-.07,.15-.13,.19-.05,.03-.1,.05-.16,.05-.02,0-.05,0-.07,0Z" />
        <path class="position-cls-1"
          d="M33.81,55.27c-1.79,0-3.48-.56-5.01-1.67-1.52-1.1-2.85-2.68-3.96-4.7-1.11-2.01-1.98-4.56-2.61-7.6-.62-3.03-.94-6.44-.94-10.14,0-3.27,.34-6.41,1-9.33,.67-2.92,1.57-5.46,2.68-7.54,1.12-2.09,2.47-3.77,4.01-5,1.56-1.25,3.22-1.88,4.93-1.88,4.02,0,7.15,2.24,9.3,6.66,2.12,4.35,3.19,10.44,3.19,18.1,0,3.25-.33,6.34-.99,9.2-.66,2.87-1.56,5.33-2.68,7.34-1.13,2.02-2.48,3.63-4.01,4.78-1.55,1.17-3.21,1.77-4.92,1.77Zm-.3-45.37c-1.35,0-2.59,.56-3.68,1.65-1.12,1.12-2.04,2.66-2.75,4.58-.72,1.94-1.27,4.19-1.65,6.69-.38,2.51-.58,5.21-.58,8.03,0,2.99,.19,5.76,.55,8.25,.36,2.48,.86,4.6,1.47,6.29,.61,1.69,1.33,3.14,2.15,4.3,.81,1.15,1.67,1.99,2.55,2.51,.87,.51,1.79,.77,2.73,.77,1.35,0,2.59-.53,3.67-1.58,1.1-1.07,2.02-2.56,2.71-4.43,.7-1.89,1.25-4.09,1.62-6.54,.37-2.45,.56-5.13,.56-7.95,0-3.68-.27-7.03-.8-9.98-.53-2.93-1.24-5.33-2.13-7.13-.88-1.79-1.89-3.17-2.99-4.1-1.08-.91-2.24-1.38-3.44-1.38Z" />
        <path class="position-cls-1"
          d="M56.01,55.27c-2.03,0-4.13-.72-6.25-2.14-.09-.06-.14-.17-.13-.28,.36-3.3,.95-6.43,1.73-9.31,.03-.1,.11-.18,.21-.21,.03,0,.05-.01,.08-.01,.08,0,.15,.03,.21,.08l.47,.46c.07,.07,.1,.16,.09,.25-.14,1.13-.21,2.54-.21,4.18,0,1.84,.07,2.6,.14,2.91,1.2,1.05,2.4,1.59,3.55,1.59,.7,0,1.36-.19,1.96-.56,.61-.37,1.14-.94,1.59-1.7,.46-.77,.82-1.74,1.08-2.88,.26-1.15,.4-2.51,.4-4.04,0-1.15-.07-2.16-.21-3.01-.14-.84-.4-1.67-.78-2.47-.39-.81-.94-1.69-1.64-2.61-.71-.94-1.65-2.07-2.8-3.37-1.86-2.13-3.24-4.2-4.1-6.17-.86-1.98-1.3-4.02-1.3-6.06s.24-3.76,.72-5.27c.48-1.51,1.12-2.8,1.9-3.81,.79-1.02,1.7-1.81,2.7-2.33,1.01-.52,2.04-.79,3.08-.79,1.87,0,3.56,.75,5.03,2.24,.06,.06,.09,.15,.08,.24-.33,3.18-.91,6.31-1.73,9.31-.03,.1-.11,.18-.21,.21-.03,0-.06,.01-.08,.01-.07,0-.15-.03-.2-.08l-.47-.43c-.07-.06-.11-.16-.1-.25,.07-.78,.13-1.52,.17-2.22,.04-.7,.06-1.36,.06-1.98s-.02-1.19-.05-1.7c-.03-.48-.07-.94-.13-1.37-.85-.85-1.78-1.28-2.74-1.28-.62,0-1.23,.17-1.79,.5-.57,.33-1.09,.84-1.53,1.49-.45,.67-.81,1.5-1.08,2.48-.27,.98-.41,2.13-.41,3.41,0,.9,.09,1.74,.27,2.52,.18,.77,.47,1.56,.85,2.34,.38,.78,.87,1.61,1.45,2.45,.59,.85,1.29,1.81,2.09,2.85,.48,.61,.93,1.17,1.35,1.67,.42,.5,.82,.98,1.18,1.44,.37,.46,.71,.9,1.02,1.34,.32,.44,.62,.91,.89,1.42,1.32,2.43,1.99,5.3,1.99,8.51,0,2.15-.22,4.03-.65,5.59-.44,1.57-1.04,2.87-1.8,3.88-.76,1.02-1.67,1.78-2.7,2.26-1.02,.48-2.12,.72-3.26,.72Z" />
        <path class="position-cls-1"
          d="M70.24,54.5c-.12,0-.23-.07-.28-.19l-.12-.31c-.03-.07-.03-.15,0-.23,.23-.56,.35-1.61,.35-3.15V18.3c0-2.84-.19-4.77-.58-5.73-.3-.74-.85-1.11-1.71-1.11-.15,0-.3,.01-.47,.03-.01,0-.03,0-.04,0-.07,0-.13-.02-.18-.06-.06-.05-.1-.12-.11-.2l-.07-.58c-.01-.12,.05-.24,.16-.3,1.97-1.02,3.87-1.54,5.64-1.54,.14,0,.26,.1,.29,.24,.24,1.14,.36,2.35,.36,3.6V48.17c0,1.61,.18,2.78,.55,3.49,.35,.68,1.03,1.19,2.02,1.51,.14,.05,.23,.19,.2,.34l-.14,.74c-.02,.08-.06,.15-.13,.2-.05,.03-.11,.05-.16,.05-.02,0-.05,0-.07,0-1.28-.3-2.26-.46-2.91-.48h-.1c-.63,0-1.43,.16-2.39,.48-.03,.01-.06,.02-.09,.02Z" />
        <path class="position-cls-1"
          d="M85.75,54.5c-.12,0-.24-.08-.28-.2l-.11-.31c-.02-.07-.02-.14,0-.21,.22-.56,.33-1.62,.33-3.15V11.11c-.81,.02-1.75,.07-2.81,.15-1.12,.08-2.41,.19-3.84,.34-.05,.59-.08,1.23-.08,1.88,0,1.07,.08,2.3,.24,3.66,.01,.12-.05,.24-.16,.3l-.58,.31s-.09,.03-.14,.03c-.04,0-.09,0-.13-.03-.09-.04-.15-.12-.17-.21l-1.65-7.48s0-.1,0-.15l.21-.71c.03-.11,.13-.19,.24-.21,1.71-.27,3.4-.46,5-.57,1.61-.11,3.22-.17,4.78-.17s3.3,.07,5.14,.2c1.83,.13,3.86,.33,6.04,.6,.12,.01,.21,.09,.25,.2l.21,.65c.02,.05,.02,.11,0,.16l-1.65,7.48c-.02,.09-.08,.17-.17,.21-.04,.02-.08,.03-.13,.03-.05,0-.1-.01-.14-.03l-.58-.31c-.11-.06-.17-.18-.16-.3,.08-.71,.14-1.38,.18-2,.04-.62,.06-1.2,.06-1.75,0-.65-.03-1.25-.08-1.79-1.38-.15-2.65-.26-3.76-.34-1.06-.07-2.02-.12-2.85-.15V48.17c0,.82,.04,1.53,.13,2.11,.08,.56,.22,1.04,.42,1.41,.19,.37,.44,.67,.75,.89,.32,.24,.74,.43,1.25,.59,.15,.04,.24,.19,.21,.34l-.14,.74c-.02,.08-.06,.15-.13,.2-.05,.03-.11,.05-.16,.05-.02,0-.05,0-.07,0-.69-.16-1.3-.28-1.81-.36-.5-.08-.92-.12-1.25-.12-.31,0-.66,.04-1.04,.12-.39,.08-.83,.2-1.31,.36-.03,.01-.06,.02-.1,.02Z" />
        <path class="position-cls-1"
          d="M101.64,54.5c-.12,0-.23-.07-.28-.19l-.12-.31c-.03-.07-.03-.15,0-.23,.23-.56,.35-1.61,.35-3.15V18.3c0-2.84-.19-4.77-.58-5.73-.3-.74-.85-1.11-1.71-1.11-.15,0-.3,.01-.47,.03-.01,0-.03,0-.04,0-.07,0-.13-.02-.18-.06-.06-.05-.1-.12-.11-.2l-.07-.58c-.01-.12,.05-.24,.16-.3,1.97-1.02,3.87-1.54,5.64-1.54,.14,0,.26,.1,.29,.24,.24,1.14,.36,2.35,.36,3.6V48.17c0,1.61,.18,2.78,.55,3.49,.35,.68,1.03,1.19,2.02,1.51,.14,.05,.23,.19,.2,.34l-.14,.74c-.02,.08-.06,.15-.13,.2-.05,.03-.11,.05-.16,.05-.02,0-.05,0-.07,0-1.28-.3-2.26-.46-2.91-.48h-.1c-.63,0-1.43,.16-2.39,.48-.03,.01-.06,.02-.09,.02Z" />
        <path class="position-cls-1"
          d="M122.27,55.27c-1.79,0-3.48-.56-5.01-1.67-1.52-1.1-2.85-2.68-3.96-4.7-1.11-2.01-1.98-4.56-2.61-7.6-.62-3.03-.94-6.44-.94-10.14,0-3.27,.34-6.41,1-9.33,.67-2.92,1.57-5.46,2.68-7.54,1.12-2.09,2.47-3.77,4.01-5,1.56-1.25,3.22-1.88,4.93-1.88,4.02,0,7.15,2.24,9.3,6.66,2.12,4.35,3.19,10.44,3.19,18.1,0,3.25-.33,6.34-.99,9.2-.66,2.87-1.56,5.33-2.68,7.34-1.13,2.02-2.48,3.63-4.01,4.78-1.55,1.17-3.21,1.77-4.92,1.77Zm-.3-45.37c-1.35,0-2.59,.56-3.68,1.65-1.12,1.12-2.04,2.66-2.75,4.58-.72,1.94-1.27,4.19-1.65,6.69-.38,2.51-.58,5.21-.58,8.03,0,2.99,.19,5.76,.55,8.25,.36,2.48,.86,4.6,1.47,6.29,.61,1.69,1.33,3.14,2.15,4.3,.81,1.15,1.67,1.99,2.55,2.51,.87,.51,1.79,.77,2.73,.77,1.35,0,2.59-.53,3.67-1.58,1.1-1.07,2.02-2.56,2.71-4.43,.7-1.89,1.25-4.09,1.62-6.54,.37-2.45,.56-5.13,.56-7.95,0-3.68-.27-7.03-.8-9.98-.53-2.93-1.24-5.33-2.13-7.13-.88-1.79-1.89-3.17-2.99-4.1-1.08-.91-2.24-1.38-3.44-1.38Z" />
        <path class="position-cls-1"
          d="M145.8,54.19c-1.09-.12-2.09-.18-2.96-.18s-1.63,.06-2.28,.18c-.02,0-.04,0-.05,0-.06,0-.13-.02-.18-.06-.07-.05-.11-.12-.12-.2-.07-.56-.11-1.12-.11-1.67V16.86c-.03-1.42-.18-2.72-.43-3.84-.28-1.31-.84-1.94-1.72-1.94-.09,0-.19,0-.29,.02-.01,0-.03,0-.04,0-.07,0-.14-.03-.2-.07-.07-.06-.1-.14-.1-.23v-.62c0-.12,.07-.23,.18-.27,1.67-.73,3.34-1.1,4.95-1.1,.12,0,.23,.07,.27,.18l13.24,29.62c.62,1.37,1.12,2.63,1.5,3.73,.17,.5,.33,1.05,.5,1.66V14.52c0-1.35-.28-2.3-.83-2.85-.42-.42-1.06-.63-1.89-.63-.24,0-.49,.02-.75,.05-.01,0-.03,0-.04,0-.15,0-.28-.11-.3-.26l-.09-.62c-.02-.13,.05-.26,.18-.32,1.55-.67,3.3-1.04,5.19-1.1h.01c.12,0,.24,.08,.28,.19,.21,.56,.32,1.15,.32,1.74V53.71c0,.17-.13,.3-.3,.3h-.72c-.12,0-.23-.07-.28-.18-.79-1.87-3.1-7.03-6.85-15.33-3.76-8.3-6.48-14.39-8.09-18.11-.53-1.21-1.05-2.59-1.55-4.12V49.74c0,.72,.13,1.27,.38,1.65,.25,.38,.53,.64,.82,.77,.33,.15,.8,.31,1.4,.49,.62,.19,.99,.3,1.09,.35,.12,.04,.19,.16,.19,.28v.62c0,.09-.04,.17-.1,.22-.06,.05-.13,.08-.2,.08-.01,0-.02,0-.03,0Z" />
      </g>
    </g>
  </g>
</svg>