<?xml version="1.0" encoding="UTF-8"?>
<svg id="_圖層_2" data-name="圖層 2" xmlns="http://www.w3.org/2000/svg" viewBox="0 0 181.53 71.8">
  <defs>
    <style>
      .research-cls-1,
      .cls-2 {
        fill: #b6c396;
      }

      .cls-2 {
        font-family: Junge-Regular, Junge;
        font-size: 36px;
        letter-spacing: -.05em;
      }
    </style>
  </defs>
  <g id="_1" data-name="1">
    <g>

      <g>
        <path class="research-cls-1"
          d="M19.3,54.9c-.08,0-.16-.03-.22-.09l-.26-.28c-.05-.06-.08-.13-.08-.21,0-.25-.09-.65-.28-1.18-.2-.56-.44-1.19-.72-1.89-.29-.71-.8-1.99-1.54-3.85-.73-1.84-3.15-7.73-7.19-17.52-.01-.04-.02-.08-.02-.11v-1.02c0-.14,.1-.27,.24-.29,1.12-.22,2.1-.61,2.89-1.18,.79-.57,1.46-1.3,1.97-2.18,.52-.89,.91-1.96,1.15-3.17,.25-1.23,.37-2.61,.37-4.12-.03-1.2-.14-2.23-.3-3.05-.16-.79-.43-1.44-.8-1.92-.36-.47-.85-.82-1.45-1.04-.63-.22-1.44-.34-2.42-.34-.37,0-.76,.02-1.16,.05-.32,.02-.67,.05-1.03,.08,.05,.41,.07,.85,.07,1.3V48.17c0,.82,.04,1.53,.13,2.11,.08,.56,.22,1.04,.42,1.41,.19,.37,.44,.67,.76,.89,.33,.24,.75,.43,1.26,.59,.15,.05,.24,.2,.21,.35l-.16,.74c-.02,.08-.06,.15-.13,.19-.05,.03-.1,.05-.16,.05-.02,0-.05,0-.07,0-.71-.16-1.32-.28-1.83-.37-.5-.08-.91-.12-1.24-.12-.3,0-.64,.04-1.03,.12-.4,.08-.84,.2-1.32,.36-.03,.01-.06,.02-.1,.02-.12,0-.24-.08-.28-.2l-.11-.31c-.02-.07-.02-.14,0-.21,.22-.56,.33-1.62,.33-3.15V18.3c0-1.34-.04-2.48-.1-3.38-.07-.88-.19-1.6-.37-2.13-.17-.49-.39-.84-.68-1.03-.18-.12-.57-.27-1.44-.27,0,0-.2,0-.2,0-.16,0-.29-.12-.3-.28l-.07-.89c-.01-.15,.09-.28,.23-.32l2.08-.49c.61-.14,1.18-.27,1.73-.39,.55-.11,1.09-.21,1.63-.29,.54-.08,1.06-.15,1.55-.2,.5-.05,.9-.09,1.2-.11,.31-.02,.6-.03,.87-.03,1.09,0,2.12,.14,3.05,.43,.95,.29,1.79,.8,2.48,1.53,.69,.72,1.24,1.69,1.62,2.9,.38,1.19,.57,2.71,.57,4.52,0,1.35-.17,2.65-.51,3.86-.34,1.21-.8,2.33-1.38,3.33-.58,1-1.26,1.9-2.04,2.66-.73,.72-1.51,1.31-2.33,1.77v.1l7.13,17.82c.6,1.53,1.38,2.72,2.33,3.55,1.16,.87,1.57,1.15,1.71,1.23l.71,.43c.09,.05,.14,.15,.14,.26v.58c0,.17-.13,.3-.3,.3-2.01,0-3.72,.37-5.08,1.1-.04,.02-.09,.04-.14,.04Z" />
        <path class="research-cls-1"
          d="M29.12,54.01c-.14,0-.26-.09-.29-.22-.23-.86-.34-1.9-.34-3.09V18c0-1.34-.04-2.45-.1-3.31-.07-.84-.19-1.52-.37-2.01-.16-.46-.38-.77-.66-.94-.29-.17-.67-.26-1.14-.26h-.25c-.06,0-.13,0-.21,.02-.02,0-.04,0-.06,0-.06,0-.13-.02-.18-.06-.07-.05-.11-.13-.12-.22l-.07-.89c-.01-.14,.08-.27,.22-.31,3.35-.93,7.09-1.4,11.12-1.4,2.05,0,4.23,.12,6.48,.37,.13,.01,.23,.11,.26,.23l.12,.52s.01,.09,0,.13l-1.67,7.66c-.02,.09-.08,.17-.17,.21-.04,.02-.08,.03-.12,.03-.05,0-.1-.01-.14-.04l-.56-.31c-.11-.06-.17-.18-.15-.3,.09-.77,.16-1.49,.21-2.14,.05-.65,.07-1.29,.07-1.9,0-.53-.03-1.03-.1-1.51-.8-.12-1.59-.22-2.36-.29-.84-.07-1.69-.11-2.51-.11-1.42,0-2.84,.11-4.22,.32V28.31s9.31-.89,9.32-.89c.11,0,.21,.06,.27,.16l.18,.34c.04,.07,.04,.15,.02,.23l-.83,2.52c-.04,.12-.16,.21-.29,.21,0,0-.02,0-.02,0-.52-.04-1.05-.07-1.59-.09-.54-.02-1.08-.03-1.64-.03-.9,0-1.84,.03-2.78,.09-.86,.06-1.74,.13-2.64,.22v20.45l5.87-.32c.81-.04,1.49-.2,2.04-.49,.54-.29,1.02-.7,1.41-1.22,.4-.54,.76-1.22,1.07-2.02,.31-.82,.63-1.78,.94-2.85,.03-.09,.1-.17,.19-.2,.03-.01,.06-.02,.1-.02,.06,0,.12,.02,.18,.06l.51,.37c.1,.07,.14,.19,.12,.31l-1.74,8.21s-.02,.07-.04,.1l-.28,.43c-.06,.08-.15,.14-.25,.14h-12.78Z" />
        <path class="research-cls-1"
          d="M53.27,55.27c-2.03,0-4.13-.72-6.25-2.14-.09-.06-.14-.17-.13-.28,.36-3.3,.95-6.43,1.73-9.31,.03-.1,.11-.18,.21-.21,.03,0,.05-.01,.08-.01,.08,0,.15,.03,.21,.08l.47,.46c.07,.07,.1,.16,.09,.25-.14,1.13-.21,2.54-.21,4.18,0,1.84,.07,2.6,.14,2.91,1.2,1.05,2.4,1.59,3.55,1.59,.7,0,1.36-.19,1.96-.56,.61-.37,1.14-.94,1.59-1.7,.46-.77,.82-1.74,1.08-2.88,.26-1.15,.4-2.51,.4-4.04,0-1.15-.07-2.16-.21-3.01-.14-.84-.4-1.67-.78-2.47-.39-.81-.94-1.69-1.64-2.61-.71-.94-1.65-2.07-2.8-3.37-1.86-2.13-3.24-4.2-4.1-6.17-.86-1.98-1.3-4.02-1.3-6.06s.24-3.76,.72-5.27c.48-1.51,1.12-2.8,1.9-3.81,.79-1.02,1.7-1.81,2.7-2.33,1.01-.52,2.04-.79,3.08-.79,1.87,0,3.56,.75,5.03,2.24,.06,.06,.09,.15,.09,.24-.33,3.18-.91,6.31-1.73,9.31-.03,.1-.11,.18-.21,.21-.03,0-.06,.01-.08,.01-.07,0-.15-.03-.2-.08l-.47-.43c-.07-.06-.11-.16-.1-.25,.07-.78,.13-1.52,.17-2.22,.04-.7,.06-1.36,.06-1.98s-.02-1.19-.05-1.7c-.03-.48-.07-.94-.13-1.37-.85-.85-1.78-1.28-2.74-1.28-.62,0-1.23,.17-1.79,.5-.57,.33-1.09,.84-1.53,1.49-.45,.67-.81,1.5-1.08,2.48-.27,.98-.41,2.13-.41,3.41,0,.9,.09,1.74,.27,2.52s.47,1.56,.85,2.34c.38,.78,.87,1.61,1.45,2.45,.59,.85,1.29,1.81,2.09,2.85,.48,.61,.93,1.17,1.35,1.67,.42,.5,.82,.98,1.18,1.44,.37,.46,.71,.9,1.02,1.34,.32,.44,.62,.91,.89,1.42,1.32,2.43,1.99,5.3,1.99,8.51,0,2.15-.22,4.03-.65,5.59-.44,1.57-1.04,2.87-1.8,3.88-.76,1.02-1.67,1.78-2.7,2.26-1.02,.48-2.12,.72-3.26,.72Z" />
        <path class="research-cls-1"
          d="M68.43,54.01c-.14,0-.26-.09-.29-.22-.23-.86-.34-1.9-.34-3.09V18c0-1.34-.04-2.45-.1-3.31-.07-.84-.19-1.52-.37-2.01-.16-.46-.38-.77-.66-.94-.29-.17-.67-.26-1.14-.26h-.25c-.06,0-.13,0-.21,.02-.02,0-.04,0-.06,0-.06,0-.13-.02-.18-.06-.07-.05-.11-.13-.12-.22l-.07-.89c-.01-.14,.08-.27,.22-.31,3.35-.93,7.09-1.4,11.12-1.4,2.05,0,4.23,.12,6.48,.37,.13,.01,.23,.11,.26,.23l.12,.52s.01,.09,0,.13l-1.67,7.66c-.02,.09-.08,.17-.17,.21-.04,.02-.08,.03-.12,.03-.05,0-.1-.01-.14-.04l-.56-.31c-.11-.06-.17-.18-.15-.3,.09-.77,.16-1.49,.21-2.14,.05-.65,.07-1.29,.07-1.9,0-.53-.03-1.03-.1-1.51-.8-.12-1.59-.22-2.36-.29-.84-.07-1.69-.11-2.51-.11-1.42,0-2.84,.11-4.22,.32V28.31s9.31-.89,9.32-.89c.11,0,.21,.06,.27,.16l.18,.34c.04,.07,.04,.15,.02,.23l-.83,2.52c-.04,.12-.16,.21-.29,.21,0,0-.02,0-.02,0-.52-.04-1.05-.07-1.59-.09-.54-.02-1.08-.03-1.64-.03-.9,0-1.84,.03-2.78,.09-.86,.06-1.74,.13-2.64,.22v20.45l5.87-.32c.81-.04,1.49-.2,2.04-.49,.54-.29,1.02-.7,1.41-1.22,.4-.54,.76-1.22,1.07-2.02,.31-.82,.63-1.78,.94-2.85,.03-.09,.1-.17,.19-.2,.03-.01,.06-.02,.1-.02,.06,0,.12,.02,.18,.06l.51,.37c.1,.07,.14,.19,.12,.31l-1.74,8.21s-.02,.07-.04,.1l-.28,.43c-.06,.08-.15,.14-.25,.14h-12.78Z" />
        <path class="research-cls-1"
          d="M103.52,54.56c-.11,0-.22-.07-.27-.18l-.14-.31c-.04-.08-.04-.17,0-.25,.21-.48,.26-1.33,.14-2.53-.12-1.23-.48-3.13-1.07-5.65l-2.85-12.51c-1.34-.04-2.59-.06-3.75-.06-1.61,0-3.06,.04-4.31,.11l-4.01,16.3c-.23,.87-.15,1.56,.23,2.13,.39,.58,1.19,1.08,2.37,1.48,.13,.05,.22,.18,.2,.32l-.07,.55c-.01,.08-.05,.15-.11,.2-.05,.04-.12,.06-.18,.06-.01,0-.03,0-.04,0-1.46-.19-2.73-.29-3.79-.29-.41,0-.79,.01-1.14,.04,0,0-.02,0-.02,0-.11,0-.21-.06-.26-.15-.08-.15-.17-.37-.26-.68-.01-.05-.02-.11,0-.16l10.74-42.02s.04-.09,.07-.13c.37-.4,.82-1.2,1.32-2.38,.05-.11,.16-.18,.28-.18h.18c.14,0,.26,.1,.29,.23l9.69,40.82c.41,1.73,1.25,2.96,2.51,3.65,.1,.05,.15,.15,.15,.26v.55c0,.09-.04,.17-.11,.23-.05,.04-.12,.07-.19,.07-.02,0-.04,0-.06,0-.44-.08-.95-.13-1.51-.13-.36,0-.75,.02-1.15,.05-1.04,.09-1.97,.26-2.77,.5-.03,0-.06,.01-.09,.01Zm-11.64-23.75c.78,.03,1.72,.05,2.8,.05,1.18,0,2.53-.02,4.07-.05l-3.31-14.47-3.57,14.48Z" />
        <path class="research-cls-1"
          d="M126.21,54.9c-.08,0-.16-.03-.22-.09l-.26-.28c-.05-.06-.08-.13-.08-.21,0-.25-.09-.65-.28-1.18-.2-.56-.44-1.19-.72-1.89-.29-.71-.8-1.99-1.54-3.85-.73-1.84-3.15-7.73-7.19-17.52-.01-.04-.02-.08-.02-.11v-1.02c0-.14,.1-.27,.24-.29,1.12-.22,2.1-.61,2.89-1.18,.79-.57,1.46-1.3,1.97-2.18,.52-.89,.91-1.96,1.15-3.17,.25-1.23,.37-2.61,.37-4.12-.03-1.2-.14-2.23-.3-3.05-.16-.79-.43-1.44-.8-1.92-.36-.47-.85-.82-1.45-1.04-.63-.22-1.44-.34-2.42-.34-.37,0-.76,.02-1.16,.05-.32,.02-.67,.05-1.03,.08,.05,.41,.07,.85,.07,1.3V48.17c0,.82,.04,1.53,.13,2.11,.08,.56,.22,1.04,.42,1.41,.19,.37,.44,.67,.76,.89,.33,.24,.75,.43,1.26,.59,.15,.05,.24,.2,.21,.35l-.16,.74c-.02,.08-.06,.15-.13,.19-.05,.03-.1,.05-.16,.05-.02,0-.05,0-.07,0-.71-.16-1.32-.28-1.83-.37-.5-.08-.91-.12-1.24-.12-.3,0-.64,.04-1.03,.12-.4,.08-.84,.2-1.32,.36-.03,.01-.06,.02-.1,.02-.12,0-.24-.08-.28-.2l-.11-.31c-.02-.07-.02-.14,0-.21,.22-.56,.33-1.62,.33-3.15V18.3c0-1.34-.04-2.48-.1-3.38-.07-.88-.19-1.6-.37-2.13-.17-.49-.39-.84-.68-1.03-.18-.12-.57-.27-1.44-.27,0,0-.2,0-.2,0-.16,0-.29-.12-.3-.28l-.07-.89c-.01-.15,.09-.28,.23-.32l2.08-.49c.61-.14,1.18-.27,1.73-.39,.55-.11,1.09-.21,1.63-.29,.54-.08,1.06-.15,1.55-.2,.5-.05,.9-.09,1.2-.11,.31-.02,.6-.03,.87-.03,1.09,0,2.12,.14,3.05,.43,.95,.29,1.79,.8,2.48,1.53,.69,.72,1.24,1.69,1.62,2.9,.38,1.19,.57,2.71,.57,4.52,0,1.35-.17,2.65-.51,3.86-.34,1.21-.8,2.33-1.38,3.33-.58,1-1.26,1.9-2.04,2.66-.73,.72-1.51,1.31-2.33,1.77v.1l7.13,17.82c.6,1.53,1.38,2.72,2.33,3.55,1.16,.87,1.57,1.15,1.71,1.23l.71,.43c.09,.05,.14,.15,.14,.26v.58c0,.17-.13,.3-.3,.3-2.01,0-3.72,.37-5.08,1.1-.04,.02-.09,.04-.14,.04Z" />
        <path class="research-cls-1"
          d="M145.1,55.27c-1.84,0-3.56-.59-5.13-1.75-1.55-1.15-2.9-2.79-4.01-4.88-1.11-2.08-1.99-4.62-2.61-7.55-.62-2.93-.94-6.23-.94-9.8s.35-7,1.04-9.93c.69-2.94,1.66-5.48,2.87-7.54,1.22-2.08,2.69-3.7,4.36-4.82,1.68-1.13,3.53-1.7,5.49-1.7,2.48,0,4.88,1.08,7.13,3.22,.07,.06,.1,.16,.09,.25-.38,3.32-.96,6.45-1.75,9.31-.03,.1-.11,.18-.21,.21-.03,0-.05,.01-.08,.01-.08,0-.15-.03-.21-.08l-.46-.43c-.07-.06-.1-.15-.09-.25,.14-1.48,.21-2.97,.21-4.43,0-1.21-.05-2.1-.15-2.64-1.8-1.56-3.6-2.35-5.35-2.35-1.41,0-2.69,.4-3.82,1.19-1.13,.8-2.12,2.08-2.93,3.8-.82,1.75-1.46,4.02-1.9,6.75-.44,2.74-.66,6.08-.66,9.92,0,1.95,.11,3.84,.33,5.62,.22,1.78,.54,3.47,.95,5.02,.41,1.54,.92,2.97,1.51,4.23,.59,1.25,1.27,2.34,2.01,3.23,.73,.88,1.55,1.57,2.42,2.05,.86,.48,1.78,.72,2.75,.72,.71,0,1.37-.06,1.95-.18,.57-.12,1.11-.33,1.62-.63,.51-.3,1.03-.73,1.53-1.27,.51-.55,1.07-1.27,1.66-2.13,.06-.08,.15-.13,.25-.13,0,0,.01,0,.02,0,.11,0,.2,.07,.25,.17l.72,1.45c.05,.1,.04,.23-.03,.32-.7,.91-1.38,1.69-2.03,2.31-.66,.63-1.34,1.15-2.03,1.56-.7,.41-1.44,.71-2.22,.9-.77,.18-1.63,.27-2.55,.27Z" />
        <path class="research-cls-1"
          d="M175.27,54.5c-.12,0-.23-.07-.28-.19l-.12-.31c-.03-.07-.03-.15,0-.23,.23-.56,.35-1.61,.35-3.15V30.68c-2.46-.09-4.8-.14-6.94-.14s-4.11,.05-5.92,.14v19.9c0,1.4,.17,2.4,.51,2.99,.04,.07,.05,.16,.02,.25l-.11,.31c-.04,.12-.16,.2-.28,.2-.03,0-.05,0-.08-.01-.67-.18-1.34-.27-1.99-.27-.78,0-1.55,.13-2.3,.39-.03,.01-.06,.02-.1,.02-.12,0-.23-.07-.28-.19l-.12-.31c-.04-.09-.03-.19,.03-.27,.58-.89,.96-1.7,1.13-2.4,.17-.71,.26-1.77,.26-3.16V18.3c0-2.84-.19-4.77-.57-5.74-.29-.74-.85-1.1-1.71-1.1-.15,0-.31,.01-.47,.03-.01,0-.03,0-.04,0-.07,0-.13-.02-.18-.06-.06-.05-.1-.12-.11-.2l-.07-.58c-.01-.12,.05-.24,.16-.3,1.97-1.02,3.87-1.54,5.64-1.54,.14,0,.26,.1,.29,.23,.25,1.1,.38,2.32,.38,3.6v15.29c2.12,.14,4.28,.21,6.41,.21s4.3-.07,6.45-.21v-9.62c0-2.84-.19-4.77-.58-5.73-.3-.74-.85-1.11-1.71-1.11-.15,0-.3,.01-.47,.03-.01,0-.03,0-.04,0-.07,0-.13-.02-.18-.06-.06-.05-.1-.12-.11-.2l-.07-.58c-.01-.12,.05-.24,.16-.3,1.97-1.02,3.87-1.54,5.64-1.54,.14,0,.26,.1,.29,.24,.24,1.14,.36,2.35,.36,3.6V48.17c0,1.61,.18,2.78,.55,3.49,.35,.68,1.03,1.19,2.02,1.51,.14,.05,.23,.19,.2,.34l-.14,.74c-.02,.08-.06,.15-.13,.2-.05,.03-.11,.05-.16,.05-.02,0-.05,0-.07,0-1.28-.3-2.26-.46-2.91-.48h-.1c-.63,0-1.43,.16-2.39,.48-.03,.01-.06,.02-.09,.02Z" />
      </g>
    </g>
  </g>
</svg>