<?xml version="1.0" encoding="UTF-8"?>
<svg id="_圖層_2" data-name="圖層 2" xmlns="http://www.w3.org/2000/svg" viewBox="0 0 280.05 53.85">
  <defs>
    <style>
      .cls-1 {
        fill: #879683;
      }
    </style>
  </defs>
  <g id="_1" data-name="1">
    <g>
      <path class="cls-1" d="M7.14,53.85c-2.28,0-4.63-.81-7-2.4-.09-.06-.14-.17-.13-.28,.41-3.71,1.06-7.22,1.95-10.45,.03-.1,.11-.18,.21-.21,.03,0,.05-.01,.08-.01,.08,0,.15,.03,.21,.08l.53,.52c.07,.07,.1,.16,.09,.25-.16,1.27-.23,2.85-.23,4.7,0,2.1,.09,2.95,.16,3.29,1.36,1.2,2.72,1.8,4.02,1.8,.8,0,1.54-.21,2.22-.63,.69-.42,1.29-1.07,1.8-1.92,.52-.87,.93-1.96,1.22-3.25,.3-1.3,.45-2.83,.45-4.55,0-1.29-.08-2.43-.23-3.39-.15-.95-.45-1.88-.88-2.79-.44-.91-1.06-1.9-1.85-2.94-.8-1.05-1.86-2.33-3.15-3.79-2.09-2.39-3.64-4.72-4.6-6.93-.97-2.22-1.46-4.5-1.46-6.79s.27-4.23,.8-5.92c.53-1.7,1.25-3.14,2.13-4.28,.88-1.15,1.9-2.02,3.02-2.61,1.13-.58,2.29-.88,3.45-.88,2.09,0,3.98,.84,5.63,2.51,.06,.06,.09,.15,.09,.24-.37,3.57-1.02,7.09-1.95,10.46-.03,.1-.11,.18-.21,.21-.03,0-.06,.01-.08,.01-.07,0-.15-.03-.2-.08l-.53-.48c-.07-.06-.11-.16-.1-.25,.08-.87,.14-1.71,.19-2.5,.05-.79,.07-1.53,.07-2.23s-.02-1.33-.06-1.92c-.04-.54-.08-1.06-.14-1.56-.97-.97-2.02-1.46-3.11-1.46-.71,0-1.39,.19-2.03,.56-.65,.38-1.23,.95-1.73,1.69-.51,.75-.92,1.69-1.22,2.8-.31,1.11-.46,2.4-.46,3.84,0,1.01,.1,1.97,.31,2.84,.21,.87,.53,1.76,.96,2.63,.43,.88,.98,1.81,1.64,2.76,.66,.96,1.45,2.04,2.35,3.2,.54,.69,1.04,1.31,1.51,1.88,.48,.57,.92,1.1,1.33,1.61,.41,.51,.79,1.01,1.15,1.5,.35,.49,.69,1.03,1,1.59,1.48,2.73,2.23,5.94,2.23,9.55,0,2.41-.25,4.52-.73,6.27-.49,1.76-1.17,3.22-2.01,4.35-.86,1.14-1.87,1.99-3.02,2.53-1.14,.54-2.37,.81-3.64,.81Z"/>
      <path class="cls-1" d="M24.18,52.43c-.14,0-.26-.09-.29-.22-.26-.97-.39-2.13-.39-3.47V11.99c0-1.51-.04-2.76-.12-3.73-.08-.95-.22-1.71-.42-2.27-.19-.52-.44-.88-.75-1.07-.33-.2-.76-.3-1.3-.3h-.29c-.07,0-.15,0-.24,.03-.02,0-.04,0-.06,0-.06,0-.13-.02-.18-.06-.07-.05-.11-.13-.12-.22l-.08-1c-.01-.14,.08-.27,.22-.31,3.77-1.04,7.97-1.57,12.49-1.57,2.3,0,4.75,.14,7.28,.42,.13,.01,.23,.11,.26,.23l.14,.59s.01,.09,0,.13l-1.88,8.61c-.02,.09-.08,.17-.17,.21-.04,.02-.08,.03-.12,.03-.05,0-.1-.01-.14-.04l-.63-.35c-.11-.06-.17-.18-.15-.3,.1-.87,.18-1.67,.24-2.41,.05-.73,.08-1.45,.08-2.14,0-.6-.04-1.18-.12-1.73-.91-.14-1.81-.25-2.68-.33-.94-.08-1.89-.12-2.83-.12-1.62,0-3.22,.12-4.78,.37V23.62s10.5-1.01,10.51-1.01c.11,0,.21,.06,.27,.16l.2,.38c.04,.07,.04,.16,.02,.23l-.93,2.84c-.04,.12-.16,.21-.28,.21,0,0-.02,0-.02,0-.59-.05-1.18-.08-1.79-.1-.6-.02-1.22-.04-1.85-.04-1.01,0-2.06,.03-3.12,.1-.98,.06-1.98,.15-3,.25v23.06l6.64-.36c.92-.04,1.69-.23,2.31-.55,.62-.32,1.15-.79,1.6-1.38,.45-.61,.86-1.37,1.21-2.28,.35-.92,.71-2,1.06-3.21,.03-.09,.1-.17,.19-.2,.03-.01,.06-.02,.1-.02,.06,0,.12,.02,.18,.06l.57,.42c.1,.07,.14,.19,.12,.31l-1.96,9.23s-.02,.07-.04,.1l-.32,.48c-.06,.08-.15,.14-.25,.14h-14.37Z"/>
      <path class="cls-1" d="M62.71,53.44c-.08,0-.16-.03-.22-.09l-.3-.31c-.05-.06-.08-.13-.08-.21,0-.29-.11-.74-.32-1.33-.22-.63-.49-1.34-.81-2.13-.32-.79-.9-2.24-1.73-4.32-.83-2.09-3.55-8.71-8.08-19.69-.01-.04-.02-.08-.02-.11v-1.14c0-.14,.1-.27,.24-.29,1.27-.24,2.37-.69,3.26-1.33,.9-.64,1.65-1.47,2.23-2.47,.59-1,1.02-2.21,1.3-3.57,.28-1.38,.42-2.94,.42-4.64-.04-1.35-.15-2.51-.34-3.43-.18-.9-.49-1.63-.9-2.18-.41-.54-.97-.93-1.65-1.18-.71-.25-1.63-.38-2.73-.38-.41,0-.85,.02-1.31,.05-.38,.03-.77,.06-1.2,.09,.05,.47,.08,.97,.08,1.49V45.91c0,.93,.05,1.73,.14,2.38,.09,.63,.25,1.17,.47,1.6,.21,.42,.51,.76,.87,1.02,.37,.27,.85,.49,1.42,.67,.15,.05,.24,.2,.21,.35l-.18,.83c-.02,.08-.06,.15-.13,.19-.05,.03-.1,.05-.16,.05-.02,0-.05,0-.07,0-.78-.18-1.47-.32-2.05-.41-.56-.09-1.03-.14-1.4-.14-.34,0-.73,.04-1.17,.13-.45,.09-.95,.23-1.49,.41-.03,.01-.06,.02-.1,.02-.12,0-.24-.08-.28-.2l-.12-.35c-.02-.07-.02-.14,0-.21,.25-.63,.37-1.83,.37-3.55V12.33c0-1.51-.04-2.78-.12-3.8-.08-1-.22-1.8-.42-2.4-.19-.56-.45-.95-.78-1.18-.21-.14-.66-.31-1.64-.31,0,0-.22,0-.22,0-.16,0-.29-.12-.3-.28l-.08-1c-.01-.15,.09-.28,.23-.32l2.34-.55c.68-.16,1.33-.31,1.95-.43,.62-.13,1.23-.24,1.83-.33,.6-.09,1.19-.17,1.74-.23,.56-.06,1.01-.1,1.34-.12,.34-.02,.67-.03,.98-.03,1.22,0,2.37,.16,3.42,.48,1.07,.33,2,.9,2.78,1.7,.77,.8,1.38,1.9,1.81,3.25,.42,1.34,.64,3.04,.64,5.07,0,1.52-.19,2.98-.57,4.33-.38,1.35-.9,2.61-1.55,3.73-.65,1.12-1.42,2.13-2.28,2.99-.82,.81-1.7,1.48-2.63,1.99v.14l8.02,20.04c.68,1.72,1.56,3.07,2.63,4,1.05,.78,1.7,1.25,1.92,1.39l.8,.49c.09,.05,.14,.15,.14,.26v.66c0,.17-.13,.3-.3,.3-2.27,0-4.2,.42-5.73,1.24-.04,.02-.09,.04-.14,.04Z"/>
      <path class="cls-1" d="M82.52,53.13s-.08,0-.12-.02l-1.58-.69c-.09-.04-.16-.12-.18-.22-1.28-7.2-2.7-14.12-4.2-20.58-1.5-6.47-3.34-13.84-5.46-21.9-.4-1.56-.81-2.68-1.23-3.34-.37-.6-.74-.9-1.1-.9-.45,0-1,.05-1.63,.13-.01,0-.03,0-.04,0-.13,0-.25-.09-.29-.22l-.2-.69c-.03-.11,0-.23,.09-.31,2.26-1.98,4.25-2.98,5.93-2.98,.13,0,.25,.09,.29,.22,.71,2.42,1.39,4.9,2.04,7.36,.64,2.45,1.33,5.22,2.05,8.25,.72,3.04,1.26,5.37,1.63,6.97,.37,1.6,.98,4.34,1.85,8.21,.86,3.87,1.41,6.32,1.63,7.33,.34,1.39,.58,2.93,.71,4.57,.06-.35,.14-.8,.25-1.41,.25-1.45,.55-2.92,.89-4.37l7.37-32.64c.06-.73-.11-1.23-.54-1.52-.29-.19-.71-.29-1.25-.29-.31,0-.65,.03-1.03,.09-.02,0-.03,0-.05,0-.14,0-.27-.1-.29-.24l-.12-.62c-.03-.13,.04-.26,.16-.32,1.73-.87,3.61-1.31,5.59-1.31,.11,0,.39,.04,.51,.44,.06,.19,.07,.4,.04,.6-.15,.86-.3,1.73-.47,2.63-.17,.91-3.85,16.9-10.96,47.53-.02,.09-.08,.16-.16,.2-.04,.02-.09,.03-.13,.03Z"/>
      <path class="cls-1" d="M97.94,52.99c-.12,0-.23-.07-.28-.19l-.14-.35c-.03-.07-.03-.15,0-.23,.26-.63,.39-1.82,.39-3.55V12.33c0-3.2-.22-5.37-.65-6.46-.34-.85-.98-1.27-1.96-1.27-.17,0-.35,.01-.53,.04-.01,0-.03,0-.04,0-.07,0-.13-.02-.18-.06-.06-.05-.1-.12-.11-.2l-.08-.66c-.01-.12,.05-.24,.16-.3,2.21-1.15,4.33-1.73,6.32-1.73,.14,0,.26,.1,.29,.24,.27,1.28,.4,2.64,.4,4.04V45.91c0,1.81,.21,3.14,.62,3.94,.4,.78,1.17,1.35,2.3,1.72,.14,.05,.23,.19,.2,.34l-.16,.83c-.02,.08-.06,.15-.13,.2-.05,.03-.11,.05-.16,.05-.02,0-.05,0-.07,0-1.44-.34-2.54-.52-3.28-.55h-.12c-.71,0-1.62,.18-2.7,.54-.03,.01-.06,.02-.09,.02Z"/>
      <path class="cls-1" d="M121.33,53.85c-2.06,0-3.99-.66-5.74-1.96-1.73-1.29-3.25-3.13-4.5-5.48-1.25-2.33-2.23-5.18-2.93-8.48-.7-3.29-1.05-6.99-1.05-11.01s.39-7.86,1.16-11.15c.78-3.3,1.86-6.15,3.22-8.47,1.37-2.33,3.02-4.15,4.89-5.41,1.89-1.26,3.96-1.9,6.15-1.9,2.78,0,5.47,1.21,7.99,3.61,.07,.06,.1,.16,.09,.25-.42,3.73-1.08,7.25-1.96,10.45-.03,.1-.11,.18-.21,.21-.03,0-.05,.01-.08,.01-.08,0-.15-.03-.21-.08l-.51-.48c-.07-.06-.1-.15-.09-.25,.16-1.67,.24-3.34,.24-4.99,0-1.37-.06-2.38-.17-2.99-2.03-1.77-4.06-2.66-6.05-2.66-1.59,0-3.04,.45-4.31,1.35-1.28,.9-2.39,2.34-3.31,4.29-.93,1.97-1.65,4.53-2.14,7.6-.5,3.08-.75,6.83-.75,11.16,0,2.19,.13,4.32,.37,6.33,.25,2.01,.61,3.91,1.07,5.65,.46,1.74,1.03,3.34,1.7,4.76,.66,1.41,1.43,2.64,2.26,3.64,.83,.99,1.75,1.77,2.73,2.32,.97,.54,2.02,.81,3.11,.81,.81,0,1.55-.07,2.2-.2,.64-.13,1.26-.37,1.83-.71,.58-.34,1.16-.82,1.73-1.43,.58-.62,1.21-1.43,1.87-2.4,.06-.08,.15-.13,.25-.13,0,0,.01,0,.02,0,.11,0,.2,.07,.25,.17l.81,1.62c.05,.1,.04,.23-.03,.32-.78,1.02-1.55,1.89-2.28,2.59-.74,.7-1.5,1.29-2.28,1.75-.78,.46-1.62,.8-2.49,1-.86,.2-1.82,.3-2.85,.3Z"/>
      <path class="cls-1" d="M137.72,52.43c-.14,0-.26-.09-.29-.22-.26-.97-.39-2.13-.39-3.47V11.99c0-1.51-.04-2.76-.12-3.73-.08-.95-.22-1.71-.42-2.27-.19-.52-.44-.88-.75-1.07-.33-.2-.76-.3-1.3-.3h-.29c-.07,0-.15,0-.24,.03-.02,0-.04,0-.06,0-.06,0-.13-.02-.18-.06-.07-.05-.11-.13-.12-.22l-.08-1c-.01-.14,.08-.27,.22-.31,3.77-1.04,7.97-1.57,12.49-1.57,2.3,0,4.75,.14,7.28,.42,.13,.01,.23,.11,.26,.23l.14,.59s.01,.09,0,.13l-1.88,8.61c-.02,.09-.08,.17-.17,.21-.04,.02-.08,.03-.12,.03-.05,0-.1-.01-.14-.04l-.63-.35c-.11-.06-.17-.18-.15-.3,.1-.87,.18-1.67,.24-2.41,.05-.73,.08-1.45,.08-2.14,0-.6-.04-1.18-.12-1.73-.91-.14-1.81-.25-2.68-.33-.94-.08-1.89-.12-2.83-.12-1.62,0-3.22,.12-4.78,.37V23.62s10.5-1.01,10.51-1.01c.11,0,.21,.06,.27,.16l.2,.38c.04,.07,.04,.16,.02,.23l-.93,2.84c-.04,.12-.16,.21-.28,.21,0,0-.02,0-.02,0-.59-.05-1.18-.08-1.79-.1-.6-.02-1.22-.04-1.85-.04-1.01,0-2.06,.03-3.12,.1-.98,.06-1.98,.15-3,.25v23.06l6.64-.36c.92-.04,1.69-.23,2.31-.55,.62-.32,1.15-.79,1.6-1.38,.45-.61,.86-1.37,1.21-2.28,.35-.92,.71-2,1.06-3.21,.03-.09,.1-.17,.19-.2,.03-.01,.06-.02,.1-.02,.06,0,.12,.02,.18,.06l.57,.42c.1,.07,.14,.19,.12,.31l-1.96,9.23s-.02,.07-.04,.1l-.32,.48c-.06,.08-.15,.14-.25,.14h-14.37Z"/>
      <path class="cls-1" d="M168.55,52.99c-.12,0-.23-.07-.28-.19l-.14-.35c-.03-.07-.03-.15,0-.23,.26-.63,.39-1.82,.39-3.55V12.33c0-3.2-.22-5.37-.65-6.46-.34-.85-.98-1.27-1.96-1.27-.17,0-.35,.01-.53,.04-.01,0-.03,0-.04,0-.07,0-.13-.02-.18-.06-.06-.05-.1-.12-.11-.2l-.08-.66c-.01-.12,.05-.24,.16-.3,2.21-1.15,4.33-1.73,6.32-1.73,.14,0,.26,.1,.29,.24,.27,1.28,.4,2.64,.4,4.04V45.91c0,1.81,.21,3.14,.62,3.94,.4,.78,1.17,1.35,2.3,1.72,.14,.05,.23,.19,.2,.34l-.16,.83c-.02,.08-.06,.15-.13,.2-.05,.03-.11,.05-.16,.05-.02,0-.05,0-.07,0-1.44-.34-2.54-.52-3.28-.55h-.12c-.71,0-1.62,.18-2.7,.54-.03,.01-.06,.02-.09,.02Z"/>
      <path class="cls-1" d="M185.99,52.99c-.12,0-.24-.08-.28-.2l-.12-.35c-.02-.07-.02-.14,0-.21,.25-.63,.37-1.83,.37-3.55V4.2c-.93,.03-2,.08-3.2,.16-1.26,.09-2.73,.22-4.35,.39-.06,.68-.09,1.4-.09,2.15,0,1.2,.09,2.59,.27,4.11,.01,.12-.05,.24-.16,.3l-.65,.35s-.09,.03-.14,.03c-.04,0-.09,0-.13-.03-.09-.04-.15-.12-.17-.21l-1.86-8.4s0-.1,0-.15l.24-.8c.03-.11,.13-.19,.24-.21,1.93-.3,3.82-.52,5.62-.64,1.81-.13,3.62-.19,5.38-.19s3.71,.08,5.77,.23c2.04,.15,4.33,.38,6.79,.68,.12,.01,.21,.09,.25,.2l.24,.73c.02,.05,.02,.11,0,.16l-1.86,8.4c-.02,.09-.08,.17-.17,.21-.04,.02-.08,.03-.13,.03-.05,0-.1-.01-.14-.03l-.65-.35c-.11-.06-.17-.18-.16-.3,.09-.8,.16-1.55,.21-2.25,.05-.7,.07-1.35,.07-1.97,0-.74-.03-1.43-.09-2.05-1.57-.17-3.01-.3-4.26-.39-1.2-.08-2.29-.14-3.25-.16V45.91c0,.93,.05,1.73,.14,2.38,.09,.63,.25,1.17,.47,1.6,.21,.42,.5,.76,.86,1.02,.37,.27,.84,.49,1.41,.66,.15,.04,.24,.19,.21,.34l-.16,.83c-.02,.08-.06,.15-.13,.2-.05,.03-.11,.05-.16,.05-.02,0-.05,0-.07,0-.77-.18-1.46-.32-2.03-.41-.56-.09-1.04-.14-1.42-.14-.35,0-.74,.04-1.17,.13-.45,.09-.94,.23-1.48,.41-.03,.01-.06,.02-.1,.02Z"/>
      <path class="cls-1" d="M204.89,52.43c-.14,0-.26-.09-.29-.22-.26-.97-.39-2.13-.39-3.47V11.99c0-1.51-.04-2.76-.12-3.73-.08-.95-.22-1.71-.42-2.27-.19-.52-.44-.88-.75-1.07-.33-.2-.76-.3-1.3-.3h-.29c-.07,0-.15,0-.24,.03-.02,0-.04,0-.06,0-.06,0-.13-.02-.18-.06-.07-.05-.11-.13-.12-.22l-.08-1c-.01-.14,.08-.27,.22-.31,3.77-1.04,7.97-1.57,12.49-1.57,2.3,0,4.75,.14,7.28,.42,.13,.01,.23,.11,.26,.23l.14,.59s.01,.09,0,.13l-1.88,8.61c-.02,.09-.08,.17-.17,.21-.04,.02-.08,.03-.12,.03-.05,0-.1-.01-.14-.04l-.63-.35c-.11-.06-.17-.18-.15-.3,.1-.87,.18-1.67,.24-2.41,.05-.73,.08-1.45,.08-2.14,0-.6-.04-1.18-.12-1.73-.91-.14-1.81-.25-2.68-.33-.94-.08-1.89-.12-2.83-.12-1.62,0-3.22,.12-4.78,.37V23.62s10.5-1.01,10.51-1.01c.11,0,.21,.06,.27,.16l.2,.38c.04,.07,.04,.16,.02,.23l-.93,2.84c-.04,.12-.16,.21-.28,.21,0,0-.02,0-.02,0-.59-.05-1.18-.08-1.79-.1-.6-.02-1.22-.04-1.85-.04-1.01,0-2.06,.03-3.12,.1-.98,.06-1.98,.15-3,.25v23.06l6.64-.36c.92-.04,1.69-.23,2.31-.55,.62-.32,1.15-.79,1.6-1.38,.45-.61,.86-1.37,1.21-2.28,.35-.92,.71-2,1.06-3.21,.03-.09,.1-.17,.19-.2,.03-.01,.06-.02,.1-.02,.06,0,.12,.02,.18,.06l.57,.42c.1,.07,.14,.19,.12,.31l-1.96,9.23s-.02,.07-.04,.1l-.32,.48c-.06,.08-.15,.14-.25,.14h-14.37Z"/>
      <path class="cls-1" d="M240.99,53.78c-.07,0-.14-.02-.19-.07l-1.38-1.14c-.07-.05-.11-.14-.11-.22-.05-1.61-.43-3.93-1.12-6.89l-8.56-33.13-2.19,35.01c-.05,.77-.02,1.4,.1,1.86,.11,.43,.38,.85,.82,1.23,.45,.4,1.14,.76,2.04,1.06,.14,.05,.22,.18,.2,.32l-.08,.62c-.01,.08-.05,.15-.11,.2-.05,.04-.12,.06-.18,.06-.01,0-.03,0-.04,0-1.6-.2-2.95-.31-4.02-.31-.35,0-.68,.01-.97,.03,0,0-.02,0-.02,0-.11,0-.21-.06-.26-.15-.12-.21-.21-.48-.27-.78l2.97-45.23c-.3-.4-.66-.61-1.08-.64-.07,0-.14,0-.21,0-.41,0-.82,.08-1.19,.24-.04,.02-.08,.02-.12,.02s-.08,0-.12-.03c-.08-.03-.13-.1-.16-.18l-.24-.69c-.04-.11,0-.23,.07-.31,2.01-1.98,3.89-2.99,5.59-2.99,.14,0,.26,.09,.29,.23,.32,1.25,2.09,8.16,5.33,20.75,2.79,10.86,4.62,17.93,5.45,21.06L250.32,3.97s.03-.08,.06-.12c.98-1.27,2.07-2.08,3.24-2.42,.03,0,.06-.01,.08-.01,.06,0,.12,.02,.17,.05,.07,.05,.12,.14,.13,.23l2.63,44.19c.08,1.81,.34,3.1,.79,3.82,.42,.69,1.21,1.11,2.35,1.26,.08,.01,.15,.05,.2,.12,.05,.06,.07,.14,.06,.22l-.12,.86c-.02,.15-.15,.26-.3,.26h-.01c-.56-.03-1.08-.04-1.55-.04-.77,0-1.42,.04-1.94,.11-.8,.11-1.67,.43-2.58,.96-.05,.03-.1,.04-.15,.04-.03,0-.07,0-.1-.02-.08-.03-.15-.1-.18-.18l-.14-.38c-.02-.06-.02-.13,0-.2,.24-.7,.3-1.89,.2-3.55l-2.19-38.1-9.69,42.48c-.02,.1-.1,.18-.2,.22-.03,.01-.06,.02-.1,.02Z"/>
      <path class="cls-1" d="M270.64,53.85c-2.28,0-4.63-.81-7-2.4-.09-.06-.14-.17-.13-.28,.41-3.71,1.06-7.22,1.95-10.45,.03-.1,.11-.18,.21-.21,.03,0,.05-.01,.08-.01,.08,0,.15,.03,.21,.08l.53,.52c.07,.07,.1,.16,.09,.25-.16,1.27-.23,2.85-.23,4.7,0,2.1,.09,2.95,.16,3.29,1.36,1.2,2.72,1.8,4.02,1.8,.8,0,1.54-.21,2.22-.63,.69-.42,1.29-1.07,1.8-1.92,.52-.87,.93-1.96,1.22-3.25,.3-1.3,.45-2.83,.45-4.55,0-1.29-.08-2.43-.23-3.39-.15-.95-.45-1.88-.88-2.79-.44-.91-1.06-1.9-1.85-2.94-.8-1.05-1.86-2.33-3.15-3.79-2.09-2.39-3.64-4.72-4.6-6.93-.97-2.22-1.46-4.5-1.46-6.79s.27-4.23,.8-5.92c.53-1.7,1.25-3.14,2.13-4.28,.88-1.15,1.9-2.02,3.02-2.61,1.13-.58,2.29-.88,3.45-.88,2.09,0,3.98,.84,5.63,2.51,.06,.06,.09,.15,.09,.24-.37,3.57-1.02,7.09-1.95,10.46-.03,.1-.11,.18-.21,.21-.03,0-.06,.01-.08,.01-.07,0-.15-.03-.2-.08l-.53-.48c-.07-.06-.11-.16-.1-.25,.08-.87,.14-1.71,.19-2.5,.05-.79,.07-1.53,.07-2.23s-.02-1.33-.06-1.92c-.04-.54-.08-1.06-.14-1.56-.97-.97-2.02-1.46-3.11-1.46-.71,0-1.39,.19-2.03,.56-.65,.38-1.23,.95-1.73,1.69-.51,.75-.92,1.69-1.22,2.8-.31,1.11-.46,2.4-.46,3.84,0,1.01,.1,1.97,.31,2.84,.21,.87,.53,1.76,.96,2.63,.43,.88,.98,1.81,1.64,2.76,.66,.96,1.45,2.04,2.35,3.2,.54,.69,1.04,1.31,1.51,1.88,.48,.57,.92,1.1,1.33,1.61,.41,.51,.79,1.01,1.15,1.5,.35,.49,.69,1.03,1,1.59,1.48,2.73,2.23,5.94,2.23,9.55,0,2.41-.25,4.52-.73,6.27-.49,1.76-1.17,3.22-2.01,4.35-.86,1.14-1.87,1.99-3.02,2.53-1.14,.54-2.37,.81-3.64,.81Z"/>
    </g>
  </g>
</svg>