<?xml version="1.0" encoding="UTF-8"?>
<svg id="_圖層_2" data-name="圖層 2" xmlns="http://www.w3.org/2000/svg" viewBox="0 0 142.39 46.48">
  <defs>
    <style>
      .cls-1 {
        fill: #b6c396;
      }
    </style>
  </defs>
  <g id="_1" data-name="1">
    <g>
      <path class="cls-1" d="M10.15,46.48c-.83,0-1.67-.17-2.5-.51-.84-.34-1.6-.93-2.26-1.75-.66-.82-1.2-1.91-1.61-3.25-.41-1.34-.62-3.03-.62-5.03V9.61c0-1.34-.04-2.48-.1-3.38-.07-.89-.2-1.61-.38-2.15-.17-.51-.41-.87-.72-1.08-.31-.21-.63-.32-.98-.32-.5,0-.64,.02-.68,.03-.01,0-.03,0-.04,0-.04,0-.08-.01-.12-.04-.05-.03-.08-.08-.08-.14L0,1.95c-.01-.08,.03-.16,.11-.2C2.04,.73,3.93,.22,5.72,.22c.1,0,.18,.07,.2,.16,.24,1.18,.36,2.38,.36,3.58v28.11c0,2.24,.12,4.13,.37,5.62,.24,1.48,.58,2.68,1.01,3.56,.42,.86,.93,1.48,1.51,1.84,.58,.36,1.23,.54,1.93,.54s1.38-.17,2.11-.49c.74-.33,1.48-.8,2.22-1.39,.74-.6,1.48-1.31,2.19-2.13,.7-.81,1.37-1.69,1.98-2.62V9.62c0-1.34-.04-2.48-.1-3.39-.07-.89-.2-1.62-.38-2.15-.17-.51-.41-.88-.72-1.09-.31-.21-.63-.32-.98-.32-.5,0-.64,.02-.68,.03-.01,0-.03,0-.04,0-.04,0-.08-.01-.12-.04-.05-.03-.08-.08-.08-.14l-.07-.58c-.01-.08,.03-.16,.11-.2,1.93-1.02,3.81-1.53,5.59-1.53,.09,0,.17,.06,.2,.16,.25,1.1,.37,2.3,.37,3.58V39.48c0,.83,.04,1.54,.13,2.12,.08,.57,.23,1.06,.43,1.45,.2,.38,.46,.69,.79,.93,.34,.24,.77,.45,1.29,.6,.1,.03,.16,.13,.14,.23l-.16,.74c-.01,.05-.04,.1-.09,.13-.03,.02-.07,.03-.11,.03-.02,0-.03,0-.05,0-.7-.16-1.31-.29-1.81-.37-.5-.08-.93-.12-1.27-.12-.31,0-.67,.04-1.06,.12-.39,.08-.84,.2-1.32,.36-.02,0-.04,.01-.06,.01-.08,0-.16-.05-.19-.14l-.11-.31s-.01-.09,0-.14c.22-.57,.34-1.64,.34-3.19v-1.96c-1.8,2.2-3.46,3.83-4.93,4.84-1.59,1.09-3.11,1.65-4.5,1.65Z"/>
      <path class="cls-1" d="M36.33,45.4c-1.09-.12-2.09-.18-2.97-.18s-1.64,.06-2.3,.18c-.01,0-.02,0-.04,0-.04,0-.08-.01-.12-.04-.04-.03-.07-.08-.08-.14-.07-.56-.11-1.12-.11-1.66V8.17c-.03-1.43-.18-2.73-.43-3.86-.29-1.36-.88-2.02-1.81-2.02-.1,0-.2,0-.3,.02,0,0-.02,0-.03,0-.05,0-.09-.02-.13-.05-.04-.04-.07-.09-.07-.15v-.62c0-.08,.05-.15,.12-.18,1.66-.73,3.31-1.09,4.91-1.09,.08,0,.15,.05,.18,.12l13.24,29.62c.62,1.37,1.12,2.63,1.49,3.72,.23,.69,.46,1.5,.69,2.41V5.83c0-1.37-.29-2.35-.86-2.92-.44-.44-1.1-.66-1.96-.66-.24,0-.5,.02-.77,.05,0,0-.02,0-.03,0-.1,0-.18-.07-.2-.17l-.09-.62c-.01-.09,.04-.18,.12-.21,1.54-.66,3.27-1.03,5.15-1.09h0c.08,0,.16,.05,.19,.13,.21,.55,.31,1.13,.31,1.7V45.02c0,.11-.09,.2-.2,.2h-.72c-.08,0-.15-.05-.18-.12-.79-1.87-3.1-7.03-6.85-15.33-3.76-8.3-6.48-14.39-8.09-18.11-.6-1.37-1.19-2.95-1.74-4.72V41.05c0,.74,.13,1.31,.4,1.7,.26,.4,.56,.67,.86,.81,.34,.15,.81,.32,1.41,.5,.62,.19,.98,.3,1.09,.34,.08,.03,.13,.1,.13,.19v.62c0,.06-.02,.11-.07,.15-.04,.03-.08,.05-.13,.05,0,0-.01,0-.02,0Z"/>
      <path class="cls-1" d="M57.31,45.71c-.08,0-.15-.05-.19-.13l-.12-.31s-.02-.1,0-.15c.23-.57,.35-1.64,.35-3.18V9.61c0-2.85-.2-4.79-.58-5.77-.31-.79-.9-1.17-1.8-1.17-.15,0-.31,.01-.48,.03,0,0-.02,0-.03,0-.04,0-.09-.01-.12-.04-.04-.03-.07-.08-.08-.13l-.07-.58c-.01-.08,.03-.16,.11-.2,1.95-1.02,3.84-1.53,5.59-1.53,.09,0,.18,.07,.2,.16,.24,1.14,.36,2.34,.36,3.58V39.48c0,1.62,.19,2.81,.56,3.54,.36,.71,1.06,1.23,2.08,1.56,.1,.03,.15,.13,.14,.23l-.14,.74c-.01,.05-.04,.1-.09,.13-.03,.02-.07,.03-.11,.03-.02,0-.03,0-.05,0-1.28-.3-2.27-.47-2.93-.49h-.11c-.64,0-1.46,.16-2.43,.48-.02,0-.04,.01-.06,.01Z"/>
      <path class="cls-1" d="M68.47,45.71c-.08,0-.16-.05-.19-.14l-.11-.31s-.01-.09,0-.14c.22-.57,.34-1.64,.34-3.19V9.31c0-1.34-.04-2.46-.1-3.32-.07-.85-.19-1.54-.38-2.04-.17-.48-.41-.81-.7-.99-.3-.18-.7-.28-1.19-.28h-.25c-.07,0-.15,0-.23,.03-.01,0-.03,0-.04,0-.04,0-.08-.01-.12-.04-.05-.03-.08-.09-.08-.14l-.07-.89c0-.1,.05-.18,.15-.21C68.84,.5,72.57,.03,76.59,.03c2.05,0,4.23,.12,6.47,.37,.08,0,.15,.07,.17,.15l.12,.52-1.67,7.75c-.01,.06-.05,.11-.11,.14-.03,.01-.05,.02-.08,.02-.03,0-.07,0-.1-.02l-.56-.31c-.07-.04-.11-.12-.1-.2,.09-.78,.16-1.49,.21-2.14,.05-.65,.07-1.29,.07-1.91,0-.56-.04-1.09-.12-1.59-.82-.13-1.64-.23-2.44-.3-.84-.07-1.69-.11-2.52-.11-1.46,0-2.91,.11-4.32,.34V19.67s8.69-.9,8.69-.9c.08,0,.15,.05,.18,.12l.18,.4s.02,.1,0,.14l-.83,2.52c-.03,.08-.1,.14-.19,.14,0,0-.01,0-.02,0-.47-.04-.95-.07-1.45-.09-.5-.02-1.03-.03-1.57-.03-.79,0-1.62,.02-2.48,.06-.8,.04-1.65,.09-2.53,.17v17.29c0,.83,.04,1.54,.13,2.12,.08,.57,.23,1.06,.43,1.45,.2,.38,.46,.69,.79,.93,.34,.24,.77,.45,1.29,.6,.1,.03,.16,.13,.14,.23l-.16,.74c-.01,.05-.04,.1-.09,.13-.03,.02-.07,.03-.11,.03-.01,0-.03,0-.04,0-.71-.16-1.32-.29-1.83-.37-.5-.08-.92-.12-1.23-.12s-.67,.04-1.07,.12c-.4,.08-.85,.2-1.33,.36-.02,0-.04,.01-.06,.01Z"/>
      <path class="cls-1" d="M88.24,45.71c-.08,0-.15-.05-.19-.13l-.12-.31s-.02-.1,0-.15c.23-.57,.35-1.64,.35-3.18V9.61c0-2.85-.2-4.79-.58-5.77-.31-.79-.9-1.17-1.8-1.17-.15,0-.31,.01-.48,.03,0,0-.02,0-.03,0-.04,0-.09-.01-.12-.04-.04-.03-.07-.08-.08-.13l-.07-.58c-.01-.08,.03-.16,.11-.2,1.95-1.02,3.84-1.53,5.59-1.53,.09,0,.18,.07,.2,.16,.24,1.14,.36,2.34,.36,3.58V39.48c0,1.62,.19,2.81,.56,3.54,.36,.71,1.06,1.23,2.08,1.56,.1,.03,.15,.13,.14,.23l-.14,.74c-.01,.05-.04,.1-.09,.13-.03,.02-.07,.03-.11,.03-.02,0-.03,0-.05,0-1.28-.3-2.27-.47-2.93-.49h-.11c-.64,0-1.46,.16-2.43,.48-.02,0-.04,.01-.06,.01Z"/>
      <path class="cls-1" d="M99.97,45.22c-.09,0-.17-.06-.19-.15-.23-.85-.34-1.89-.34-3.07V9.31c0-1.34-.04-2.46-.1-3.32-.07-.85-.19-1.54-.38-2.04-.17-.48-.41-.81-.7-.99-.3-.18-.7-.28-1.19-.28h-.25c-.07,0-.15,0-.23,.03-.01,0-.03,0-.04,0-.04,0-.08-.01-.12-.04-.05-.03-.08-.09-.08-.14l-.07-.89c0-.1,.05-.18,.15-.21C99.76,.5,103.5,.03,107.51,.03c2.05,0,4.23,.12,6.47,.37,.08,0,.15,.07,.17,.15l.12,.52-1.67,7.75c-.01,.06-.05,.11-.11,.14-.03,.01-.05,.02-.08,.02-.03,0-.07,0-.1-.02l-.56-.31c-.07-.04-.11-.12-.1-.2,.09-.78,.16-1.49,.21-2.14,.05-.65,.07-1.29,.07-1.91,0-.56-.04-1.09-.12-1.59-.82-.13-1.64-.23-2.44-.3-.84-.07-1.69-.11-2.52-.11-1.46,0-2.91,.11-4.32,.34V19.73s9.41-.9,9.42-.9c.07,0,.14,.04,.18,.11l.18,.34s.03,.1,.01,.15l-.83,2.52c-.03,.08-.1,.14-.19,.14,0,0-.01,0-.02,0-.52-.04-1.06-.07-1.59-.09-.54-.02-1.08-.03-1.64-.03-.91,0-1.84,.03-2.78,.09-.89,.06-1.8,.13-2.73,.23v20.65l5.98-.33c.82-.04,1.52-.21,2.08-.5,.56-.29,1.04-.71,1.44-1.25,.41-.55,.77-1.23,1.08-2.04,.31-.82,.63-1.79,.94-2.86,.02-.06,.07-.11,.13-.13,.02,0,.04-.01,.06-.01,.04,0,.08,.01,.12,.04l.51,.37c.06,.05,.09,.13,.08,.2l-1.74,8.21-.31,.5c-.04,.06-.1,.09-.17,.09h-12.78Z"/>
      <path class="cls-1" d="M120.2,45.77c-.08,0-.16-.05-.19-.14l-.11-.31s-.01-.09,0-.14c.22-.57,.34-1.64,.34-3.19V9.61c0-1.34-.04-2.48-.1-3.38-.07-.89-.2-1.61-.38-2.15-.17-.51-.41-.87-.72-1.08-.3-.21-.59-.32-.85-.32h-.58c-.07,0-.14,0-.22,.03-.01,0-.03,0-.04,0-.04,0-.08-.01-.12-.04-.05-.03-.08-.09-.08-.14l-.07-.89c0-.1,.06-.19,.16-.21,1.02-.23,1.93-.43,2.74-.6,.81-.17,1.6-.32,2.37-.45,.76-.12,1.56-.22,2.37-.28,.81-.06,1.74-.09,2.76-.09,.88,0,1.7,.04,2.43,.12,.73,.08,1.44,.23,2.1,.42,.66,.2,1.31,.46,1.95,.78,.63,.32,1.3,.71,2,1.16,.94,.63,1.82,1.47,2.61,2.52,.79,1.05,1.47,2.34,2.04,3.85,.56,1.5,1.01,3.28,1.32,5.27,.31,1.99,.47,4.29,.47,6.83-.01,3.01-.24,5.74-.67,8.1-.43,2.36-1.05,4.47-1.82,6.26-.78,1.79-1.71,3.34-2.78,4.6-1.07,1.26-2.25,2.3-3.5,3.09-1.25,.79-2.6,1.36-3.99,1.72-1.39,.35-2.82,.53-4.25,.53-.12,0-.5,0-1.15,.02-.64,.01-1.33,.07-2.06,.17-.73,.1-1.37,.21-1.92,.34-.01,0-.03,0-.04,0Zm3.15-3.62c.57,.12,1.13,.22,1.65,.29,.57,.07,1.15,.11,1.7,.11,1.94,0,3.69-.44,5.23-1.31,1.53-.87,2.85-2.21,3.92-3.99,1.07-1.79,1.91-4.06,2.48-6.74,.57-2.69,.87-5.9,.87-9.54-.01-2.4-.19-4.55-.52-6.39-.34-1.84-.81-3.47-1.41-4.83-.6-1.36-1.31-2.51-2.12-3.42-.81-.91-1.7-1.67-2.64-2.24-.94-.57-1.95-.98-3-1.22-1.05-.24-2.13-.36-3.22-.36-.52,0-1.04,.03-1.56,.09-.47,.05-.94,.12-1.43,.21,.02,.22,.03,.42,.04,.61,.01,.24,.02,.44,.02,.61V42.15Z"/>
    </g>
  </g>
</svg>