<?xml version="1.0" encoding="UTF-8"?>
<svg id="victory-svg" data-name="圖層 2" xmlns="http://www.w3.org/2000/svg" viewBox="0 0 186.21 59.82">
  <defs>
    <style>
      .victory-cls-1 {
        fill: #b6c396;
      }
    </style>
  </defs>
  <g id="_圖層_2-2" data-name="圖層 2">
    <g>
      <path class="victory-cls-1"
        d="M17.79,59.01s-.08,0-.12-.02l-1.76-.77c-.09-.04-.16-.12-.18-.22-1.43-8.01-3-15.71-4.67-22.88-1.67-7.19-3.71-15.38-6.07-24.35-.44-1.73-.91-2.98-1.37-3.72-.42-.67-.84-1.01-1.25-1.01-.5,0-1.11,.05-1.81,.15-.01,0-.03,0-.04,0-.13,0-.25-.09-.29-.22L.01,5.19c-.03-.11,0-.23,.09-.31C2.61,2.69,4.82,1.58,6.67,1.58c.13,0,.25,.09,.29,.22,.79,2.71,1.55,5.46,2.27,8.18,.71,2.72,1.48,5.81,2.28,9.18,.8,3.38,1.4,5.97,1.81,7.75,.41,1.78,1.1,4.83,2.05,9.13,.96,4.31,1.56,7.02,1.81,8.15,.39,1.62,.66,3.42,.81,5.34,.07-.4,.17-.99,.32-1.82,.28-1.61,.61-3.25,.99-4.86L27.49,6.54c.07-.82-.13-1.4-.61-1.72-.33-.22-.8-.33-1.41-.33-.34,0-.73,.03-1.16,.1-.02,0-.03,0-.05,0-.14,0-.27-.1-.29-.24l-.13-.69c-.03-.13,.04-.26,.16-.32,1.92-.97,4.01-1.45,6.2-1.45,.12,0,.41,.04,.54,.46,.06,.21,.08,.43,.04,.66-.16,.95-.33,1.93-.52,2.93-.18,1.01-4.28,18.79-12.19,52.85-.02,.09-.08,.16-.16,.2-.04,.02-.09,.03-.13,.03Z" />
      <path class="victory-cls-1"
        d="M34.94,58.85c-.12,0-.23-.07-.28-.19l-.15-.38c-.03-.07-.03-.15,0-.23,.29-.7,.44-2.04,.44-3.96V13.68c0-3.56-.24-5.98-.73-7.2-.38-.96-1.1-1.43-2.21-1.43-.19,0-.39,.01-.6,.04-.01,0-.03,0-.04,0-.07,0-.13-.02-.18-.06-.06-.05-.1-.12-.11-.2l-.09-.73c-.01-.12,.05-.24,.16-.3,2.45-1.27,4.81-1.92,7.02-1.92,.14,0,.26,.1,.29,.24,.3,1.42,.45,2.93,.45,4.48V51.02c0,2.02,.23,3.5,.69,4.4,.44,.87,1.31,1.52,2.57,1.93,.14,.05,.23,.19,.2,.34l-.18,.92c-.02,.08-.06,.15-.13,.2-.05,.03-.11,.05-.16,.05-.02,0-.05,0-.07,0-1.6-.38-2.83-.58-3.65-.61h-.13c-.79,0-1.81,.2-3.01,.6-.03,.01-.06,.02-.09,.02Z" />
      <path class="victory-cls-1"
        d="M60.95,59.82c-2.28,0-4.42-.73-6.36-2.17-1.92-1.43-3.6-3.47-5-6.08-1.38-2.59-2.48-5.76-3.26-9.42-.78-3.66-1.17-7.77-1.17-12.23s.44-8.73,1.29-12.39c.86-3.67,2.06-6.83,3.58-9.41,1.52-2.59,3.35-4.61,5.43-6,2.09-1.4,4.39-2.11,6.82-2.11,3.08,0,6.06,1.35,8.86,4,.07,.06,.1,.16,.09,.25-.47,4.15-1.2,8.06-2.18,11.62-.03,.1-.11,.18-.21,.21-.03,0-.05,.01-.08,.01-.08,0-.15-.03-.21-.08l-.57-.54c-.07-.06-.1-.15-.09-.25,.17-1.85,.26-3.72,.26-5.55,0-1.54-.07-2.66-.19-3.34-2.27-1.97-4.54-2.97-6.76-2.97-1.77,0-3.39,.51-4.82,1.5-1.43,1-2.67,2.61-3.69,4.78-1.03,2.19-1.83,5.04-2.38,8.46-.55,3.43-.83,7.6-.83,12.41,0,2.44,.14,4.81,.42,7.04,.27,2.23,.68,4.34,1.19,6.29,.51,1.93,1.15,3.72,1.89,5.29,.74,1.57,1.59,2.94,2.52,4.05,.92,1.11,1.95,1.98,3.05,2.58,1.08,.6,2.25,.9,3.47,.9,.9,0,1.73-.08,2.46-.22,.72-.15,1.41-.41,2.05-.79,.65-.38,1.3-.92,1.93-1.6,.64-.69,1.34-1.59,2.08-2.67,.06-.08,.15-.13,.25-.13,0,0,.01,0,.02,0,.11,0,.2,.07,.25,.17l.9,1.81c.05,.1,.04,.23-.03,.32-.87,1.13-1.72,2.1-2.54,2.88-.82,.78-1.67,1.44-2.53,1.94-.86,.51-1.79,.89-2.75,1.11-.96,.22-2.02,.33-3.17,.33Z" />
      <path class="victory-cls-1"
        d="M83.9,58.85c-.12,0-.24-.08-.28-.2l-.13-.38c-.02-.07-.02-.14,0-.21,.28-.7,.42-2.04,.42-3.97V4.61c-1.04,.03-2.25,.09-3.59,.18-1.42,.1-3.05,.24-4.87,.43-.07,.76-.11,1.58-.11,2.42,0,1.34,.1,2.88,.31,4.58,.01,.12-.05,.24-.16,.3l-.73,.38s-.09,.03-.14,.03c-.04,0-.09,0-.13-.03-.08-.04-.15-.12-.17-.21l-2.07-9.34s0-.1,0-.15l.26-.88c.03-.11,.13-.19,.24-.21,2.14-.33,4.24-.57,6.24-.71,2.01-.14,4.02-.21,5.98-.21s4.12,.08,6.42,.25c2.29,.17,4.83,.42,7.55,.75,.12,.01,.21,.09,.25,.2l.26,.81c.02,.05,.02,.11,0,.16l-2.07,9.34c-.02,.09-.08,.17-.17,.21-.04,.02-.08,.03-.13,.03-.05,0-.1-.01-.14-.03l-.73-.38c-.11-.06-.17-.18-.16-.3,.1-.89,.18-1.73,.23-2.5,.05-.77,.08-1.51,.08-2.19,0-.84-.04-1.61-.1-2.3-1.76-.19-3.36-.34-4.77-.43-1.34-.09-2.57-.15-3.65-.18V51.02c0,1.03,.05,1.92,.16,2.65,.1,.71,.28,1.31,.53,1.79,.24,.47,.57,.85,.96,1.14,.41,.3,.94,.55,1.58,.74,.15,.04,.24,.19,.21,.34l-.18,.92c-.02,.08-.06,.15-.13,.2-.05,.03-.11,.05-.16,.05-.02,0-.05,0-.07,0-.87-.2-1.63-.36-2.26-.46-.63-.1-1.16-.15-1.58-.15-.39,0-.83,.05-1.31,.15-.49,.1-1.04,.25-1.65,.45-.03,.01-.06,.02-.09,.02Z" />
      <path class="victory-cls-1"
        d="M116.04,59.82c-2.22,0-4.31-.7-6.22-2.08-1.89-1.37-3.55-3.33-4.93-5.85-1.38-2.5-2.47-5.69-3.25-9.49-.78-3.78-1.17-8.04-1.17-12.65,0-4.08,.42-8,1.25-11.64,.83-3.65,1.96-6.81,3.35-9.4,1.4-2.6,3.07-4.69,4.99-6.23,1.94-1.55,3.99-2.33,6.12-2.33,4.99,0,8.88,2.79,11.56,8.28,2.64,5.43,3.99,13.02,3.99,22.59,0,4.05-.42,7.92-1.24,11.49-.82,3.58-1.95,6.66-3.35,9.15-1.41,2.51-3.08,4.51-4.99,5.96-1.93,1.46-3.98,2.19-6.1,2.19Zm-.37-56.72c-1.71,0-3.28,.7-4.65,2.08-1.41,1.41-2.57,3.35-3.46,5.76-.9,2.43-1.59,5.25-2.07,8.38-.48,3.14-.72,6.52-.72,10.05,0,3.74,.23,7.21,.69,10.32,.46,3.11,1.08,5.76,1.84,7.88,.76,2.12,1.67,3.93,2.7,5.39,1.02,1.44,2.1,2.51,3.21,3.16,1.11,.65,2.27,.98,3.45,.98,1.71,0,3.27-.67,4.64-1.99,1.39-1.35,2.54-3.22,3.41-5.56,.88-2.37,1.56-5.12,2.03-8.19,.46-3.07,.7-6.42,.7-9.95,0-4.6-.33-8.8-.99-12.48-.66-3.67-1.56-6.68-2.67-8.94-1.1-2.25-2.37-3.98-3.76-5.15-1.37-1.15-2.83-1.74-4.34-1.74Z" />
      <path class="victory-cls-1"
        d="M156.44,59.35c-.08,0-.16-.03-.22-.09l-.33-.35c-.05-.06-.08-.13-.08-.21,0-.32-.12-.83-.36-1.5-.25-.7-.55-1.49-.91-2.37-.36-.88-1-2.49-1.92-4.81-.92-2.31-3.86-9.48-8.99-21.9-.01-.04-.02-.08-.02-.11v-1.27c0-.14,.1-.27,.24-.29,1.42-.27,2.64-.77,3.64-1.49,1-.71,1.84-1.64,2.49-2.75,.65-1.12,1.14-2.46,1.45-3.98,.31-1.54,.47-3.28,.47-5.17-.04-1.5-.17-2.79-.38-3.82-.2-1-.54-1.82-1.01-2.44-.46-.6-1.08-1.05-1.85-1.32-.79-.28-1.82-.42-3.05-.42-.46,0-.95,.02-1.46,.06-.43,.03-.88,.07-1.37,.11,.06,.54,.09,1.1,.09,1.69V51.02c0,1.03,.05,1.92,.16,2.65,.1,.71,.28,1.31,.53,1.79,.24,.47,.57,.85,.97,1.14,.42,.3,.95,.55,1.59,.74,.15,.05,.24,.2,.21,.35l-.2,.92c-.02,.08-.06,.15-.13,.19-.05,.03-.1,.05-.16,.05-.02,0-.04,0-.07,0-.88-.2-1.65-.36-2.29-.46-.63-.1-1.15-.15-1.56-.15-.37,0-.81,.05-1.3,.15-.5,.1-1.05,.25-1.66,.45-.03,.01-.06,.02-.09,.02-.12,0-.24-.08-.28-.2l-.13-.38c-.02-.07-.02-.14,0-.21,.28-.7,.42-2.04,.42-3.97V13.68c0-1.68-.04-3.1-.13-4.23-.09-1.11-.24-2.01-.47-2.68-.21-.63-.51-1.07-.88-1.33-.34-.23-.96-.35-1.84-.35,0,0-.25,0-.25,0-.16,0-.29-.12-.3-.28l-.09-1.12c-.01-.15,.09-.28,.23-.32l2.6-.62c.76-.18,1.48-.34,2.16-.48,.69-.14,1.36-.26,2.04-.37,.67-.1,1.32-.19,1.94-.25,.62-.06,1.12-.11,1.49-.14,.38-.03,.74-.04,1.09-.04,1.36,0,2.63,.18,3.79,.53,1.18,.36,2.21,.99,3.07,1.89,.86,.89,1.53,2.1,2,3.6,.47,1.48,.71,3.38,.71,5.63,0,1.69-.21,3.3-.64,4.81-.42,1.5-1,2.9-1.72,4.15-.72,1.25-1.57,2.36-2.53,3.31-.91,.91-1.9,1.65-2.93,2.22v.19l8.92,22.29c.76,1.92,1.74,3.42,2.93,4.46,1.45,1.09,1.97,1.44,2.14,1.54l.89,.54c.09,.05,.14,.15,.14,.26v.73c0,.17-.13,.3-.3,.3-2.53,0-4.68,.47-6.38,1.39-.04,.02-.09,.04-.14,.04Z" />
      <path class="victory-cls-1"
        d="M172.49,58.85c-.12,0-.24-.08-.28-.2l-.13-.38c-.02-.07-.02-.14,0-.21,.28-.7,.42-2.04,.42-3.97v-21.03l-6.95-21.98c-.57-1.68-1.09-2.9-1.53-3.63-.41-.67-.83-1.06-1.24-1.15-.17-.04-.36-.06-.56-.06-.32,0-.68,.05-1.08,.15-.03,0-.05,0-.08,0-.11,0-.22-.06-.27-.17l-.33-.69c-.06-.12-.03-.27,.07-.35,2.22-1.95,3.96-3.01,5.34-3.22,.05,0,.11-.02,.17-.02,.64,0,1.13,.62,1.5,1.88l7.67,24.76c4.41-12.07,6.94-19.49,7.51-22.04,.17-.85,.03-1.5-.43-1.98-.48-.5-1.31-.85-2.47-1.05-.13-.02-.23-.13-.25-.26l-.09-.73c-.02-.16,.09-.31,.25-.33,1.03-.17,1.97-.26,2.8-.26,1.34,0,2.44,.23,3.28,.67,.28,.24,.51,.61,.32,1.3-.25,.88-.52,1.78-.82,2.72-.29,.94-3.27,9.34-8.84,24.98v19.4c0,2.02,.23,3.5,.68,4.4,.44,.87,1.3,1.52,2.56,1.93,.14,.05,.23,.19,.2,.34l-.18,.92c-.02,.08-.06,.15-.13,.2-.05,.03-.11,.05-.16,.05-.02,0-.05,0-.07,0-1.6-.38-2.83-.58-3.65-.61h-.13c-.79,0-1.81,.2-3.01,.6-.03,.01-.06,.02-.09,.02Z" />
    </g>
  </g>
</svg>