<?xml version="1.0" encoding="UTF-8"?>
<svg id="_圖層_2" data-name="圖層 2" xmlns="http://www.w3.org/2000/svg" viewBox="0 0 105.84 46.16">
  <defs>
    <style>
      .cls-1 {
        fill: #b7c497;
      }
    </style>
  </defs>
  <g id="_1" data-name="1">
    <g>
      <path class="cls-1" d="M11.66,45.53s-.06,0-.09-.02l-1.17-.6c-.06-.03-.09-.08-.11-.14L3.87,8.4c-.23-1.32-.53-2.29-.87-2.88-.32-.55-.65-.82-.98-.82-.4,0-.76,.02-1.06,.07-.33,.05-.52,.08-.58,.08-.09,0-.17-.06-.19-.15L0,4.1c-.02-.07,0-.15,.06-.21C2,2.2,3.77,1.34,5.32,1.34c.1,0,.18,.07,.2,.17l5.23,29.76c.35,2.05,.56,3.95,.64,5.67L17.95,1.68c.02-.1,.1-.16,.2-.16,0,0,.02,0,.02,0,.7,.09,1.18,.35,1.44,.78l5.64,31.17c.28,1.58,.46,2.93,.55,4.05L31.31,4.93c.06-.67-.1-1.12-.48-1.38-.26-.17-.63-.26-1.11-.26-.27,0-.57,.03-.9,.08-.01,0-.02,0-.03,0-.09,0-.18-.07-.2-.16l-.1-.54c-.02-.09,.03-.18,.11-.22,1.49-.75,3.04-1.12,4.62-1.12,.1,0,.28,.04,.37,.33,.05,.16,.06,.33,.03,.49-.9,5.59-3.5,20.13-7.73,43.2-.01,.06-.05,.11-.11,.14-.03,.01-.06,.02-.09,.02s-.06,0-.09-.02l-1.19-.6c-.06-.03-.1-.08-.11-.14L18.15,10.65l-6.3,34.72c-.01,.06-.05,.12-.11,.14-.03,.01-.06,.02-.09,.02Z"/>
      <path class="cls-1" d="M45.73,46.16c-1.72,0-3.33-.54-4.8-1.6-1.46-1.06-2.74-2.58-3.81-4.52-1.07-1.93-1.91-4.4-2.52-7.34-.6-2.93-.91-6.22-.91-9.8,0-3.15,.33-6.19,.97-9.01,.64-2.83,1.51-5.27,2.59-7.27,1.08-2.01,2.38-3.63,3.86-4.81,1.49-1.2,3.08-1.8,4.72-1.8,3.86,0,6.86,2.15,8.93,6.4,2.05,4.2,3.08,10.08,3.08,17.49,0,3.14-.32,6.13-.96,8.89-.64,2.77-1.51,5.15-2.59,7.08-1.09,1.94-2.38,3.49-3.86,4.6-1.49,1.12-3.07,1.69-4.71,1.69Zm-.29-43.94c-1.33,0-2.56,.55-3.63,1.62-1.09,1.1-2,2.6-2.69,4.47-.69,1.88-1.24,4.07-1.61,6.5-.37,2.43-.56,5.05-.56,7.79,0,2.9,.18,5.59,.53,8,.35,2.41,.83,4.46,1.43,6.11,.59,1.64,1.3,3.05,2.09,4.18,.79,1.12,1.63,1.95,2.5,2.46,.86,.51,1.76,.76,2.69,.76,1.34,0,2.55-.52,3.61-1.55,1.08-1.05,1.97-2.5,2.65-4.32,.68-1.83,1.21-3.97,1.57-6.35,.36-2.38,.54-4.98,.54-7.72,0-3.56-.26-6.82-.77-9.68-.51-2.85-1.21-5.18-2.07-6.93-.86-1.74-1.84-3.09-2.92-4-1.06-.9-2.2-1.35-3.39-1.35Z"/>
      <path class="cls-1" d="M77.03,45.8c-.05,0-.11-.02-.14-.06l-.25-.27s-.06-.09-.06-.14c0-.25-.09-.65-.28-1.17-.19-.54-.43-1.16-.7-1.84-.28-.69-.77-1.93-1.49-3.73-.71-1.77-2.98-7.32-6.96-16.96l-.02-1.06c0-.1,.07-.18,.16-.2,1.1-.21,2.05-.6,2.83-1.16,.78-.56,1.43-1.28,1.94-2.14,.51-.87,.89-1.91,1.12-3.1,.24-1.19,.36-2.54,.36-4.01-.03-1.17-.13-2.17-.29-2.97-.16-.78-.42-1.42-.79-1.9-.36-.47-.85-.82-1.45-1.03-.62-.22-1.42-.33-2.38-.33-.36,0-.74,.02-1.13,.04-.34,.03-.71,.05-1.09,.09,.05,.42,.08,.87,.08,1.34V39.37c0,.8,.04,1.49,.13,2.06,.08,.55,.22,1.02,.41,1.4,.19,.37,.45,.67,.76,.9,.33,.23,.74,.43,1.24,.58,.1,.03,.16,.13,.14,.23l-.15,.71c-.01,.05-.04,.1-.09,.13-.03,.02-.07,.03-.11,.03-.01,0-.03,0-.04,0-.69-.16-1.28-.28-1.77-.35-.49-.08-.89-.12-1.21-.12-.29,0-.63,.04-1.02,.12-.39,.08-.82,.2-1.29,.35-.02,0-.04,.01-.06,.01-.08,0-.16-.05-.19-.14l-.1-.3s-.01-.09,0-.14c.22-.55,.33-1.59,.33-3.08V10.45c0-1.3-.03-2.4-.1-3.28-.07-.86-.19-1.56-.36-2.08-.17-.49-.4-.84-.69-1.05-.27-.19-.75-.28-1.45-.28,0,0-.19,0-.19,0-.1,0-.19-.08-.2-.18l-.07-.86c0-.1,.06-.19,.15-.21l2.02-.48c.59-.14,1.14-.26,1.67-.37,.53-.11,1.06-.2,1.58-.29,.52-.08,1.02-.14,1.5-.19,.48-.05,.86-.08,1.16-.11,.29-.02,.57-.03,.84-.03,1.05,0,2.03,.14,2.93,.41,.91,.28,1.7,.77,2.37,1.45,.66,.69,1.18,1.62,1.54,2.78,.36,1.15,.55,2.61,.55,4.35,0,1.3-.17,2.55-.49,3.72-.33,1.16-.77,2.24-1.33,3.2-.56,.97-1.22,1.83-1.96,2.56-.71,.7-1.48,1.28-2.28,1.72v.21l6.91,17.23c.59,1.49,1.35,2.66,2.28,3.47,.91,.68,1.47,1.09,1.67,1.2l.68,.41c.06,.04,.11,.11,.11,.18v.57c0,.11-.09,.2-.2,.2-1.97,0-3.64,.36-4.96,1.08-.03,.02-.06,.02-.09,.02Z"/>
      <path class="cls-1" d="M100.72,45.47c-.05,0-.1-.02-.14-.06l-.24-.24s-.06-.1-.06-.15c.02-.4-.12-.92-.41-1.54l-10.69-21.83-.02-.71s0-.07,.03-.1l9.16-16.53c.07-.14,.09-.26,.06-.37-.06-.18-.27-.36-.62-.52-.49-.23-1.01-.35-1.56-.35-.08,0-.25,0-.25,0-.1,0-.19-.07-.2-.17l-.1-.8c-.01-.1,.05-.2,.15-.22,1.19-.27,2.28-.41,3.24-.41,.62,0,1.19,.06,1.72,.17,.07,.01,.12,.06,.14,.12,.12,.29,.13,.66,.04,1.1l-9.15,16.43v.43l9.83,19.51c1.31,2.57,2.69,4.29,4.08,5.1,.06,.04,.1,.1,.1,.17v.54c0,.06-.03,.12-.07,.15-.04,.03-.08,.05-.13,.05-.01,0-.02,0-.04,0-.78-.14-1.36-.23-1.75-.27-.15-.02-.32-.02-.5-.02-.28,0-.6,.02-.96,.05-.58,.06-1.12,.21-1.58,.45-.03,.02-.06,.02-.09,.02Zm-14.74-.06c-.08,0-.16-.05-.19-.14l-.1-.3s-.01-.09,0-.14c.22-.55,.33-1.59,.33-3.08V10.45c0-2.76-.19-4.64-.56-5.59-.3-.76-.87-1.13-1.74-1.13-.15,0-.3,.01-.47,.03,0,0-.02,0-.03,0-.04,0-.09-.01-.12-.04-.04-.03-.07-.08-.08-.13l-.07-.57c-.01-.08,.03-.16,.11-.2,1.89-.98,3.72-1.48,5.42-1.48,.09,0,.17,.06,.2,.16,.24,1.06,.36,2.23,.36,3.47V39.37c0,1.57,.18,2.72,.54,3.42,.35,.68,1.02,1.19,2.01,1.51,.1,.03,.16,.13,.13,.23l-.15,.71c-.01,.05-.04,.1-.09,.13-.03,.02-.07,.03-.11,.03-.02,0-.03,0-.05,0-1.25-.29-2.21-.45-2.84-.47h-.1c-.61,0-1.4,.16-2.35,.47-.02,0-.04,.01-.06,.01Z"/>
    </g>
  </g>
</svg>