<?xml version="1.0" encoding="UTF-8"?>
<svg id="_圖層_2" data-name="圖層 2" xmlns="http://www.w3.org/2000/svg" xmlns:xlink="http://www.w3.org/1999/xlink" viewBox="0 0 857.26 756.25">
  <defs>
    <style>
      .cls-1 {
        fill: url(#_未命名漸層_469-2);
      }

      .cls-1, .cls-2, .cls-3, .cls-4, .cls-5, .cls-6, .cls-7, .cls-8, .cls-9, .cls-10, .cls-11, .cls-12, .cls-13, .cls-14, .cls-15, .cls-16, .cls-17, .cls-18, .cls-19, .cls-20, .cls-21 {
        opacity: .5;
      }

      .cls-22 {
        fill: #84bf79;
      }

      .cls-2 {
        fill: url(#_未命名漸層_94-7);
      }

      .cls-3 {
        fill: url(#_未命名漸層_94-4);
      }

      .cls-5 {
        fill: url(#_未命名漸層_94-3);
      }

      .cls-6 {
        fill: url(#_未命名漸層_41-4);
      }

      .cls-7 {
        fill: url(#_未命名漸層_94-2);
      }

      .cls-8 {
        fill: url(#_未命名漸層_94-9);
      }

      .cls-9 {
        fill: url(#_未命名漸層_41-5);
      }

      .cls-10 {
        fill: url(#_未命名漸層_94-6);
      }

      .cls-23 {
        fill: #fff;
        opacity: .7;
      }

      .cls-24 {
        fill: #768672;
      }

      .cls-25 {
        fill: url(#_未命名漸層_31);
      }

      .cls-11 {
        fill: url(#_未命名漸層_94);
      }

      .cls-12 {
        fill: url(#_未命名漸層_94-8);
      }

      .cls-13 {
        fill: url(#_未命名漸層_469-3);
      }

      .cls-26 {
        clip-path: url(#clippath);
      }

      .cls-27 {
        fill: none;
      }

      .cls-14 {
        fill: url(#_未命名漸層_41-2);
      }

      .cls-15 {
        fill: url(#_未命名漸層_469-4);
      }

      .cls-16 {
        fill: url(#_未命名漸層_94-5);
      }

      .cls-28 {
        fill: #427251;
      }

      .cls-17 {
        fill: url(#_未命名漸層_469);
      }

      .cls-18 {
        fill: url(#_未命名漸層_41);
      }

      .cls-19 {
        fill: url(#_未命名漸層_94-10);
      }

      .cls-20 {
        fill: url(#_未命名漸層_469-5);
      }

      .cls-21 {
        fill: url(#_未命名漸層_41-3);
      }
    </style>
    <linearGradient id="_未命名漸層_31" data-name="未命名漸層 31" x1="424.62" y1="756.25" x2="424.62" y2="0" gradientUnits="userSpaceOnUse">
      <stop offset="0" stop-color="#fafbfa"/>
      <stop offset="1" stop-color="#dcecdc"/>
    </linearGradient>
    <linearGradient id="_未命名漸層_41" data-name="未命名漸層 41" x1="316.41" y1="-34.78" x2="284.87" y2="28.3" gradientTransform="translate(-75.48 276.51) rotate(-2.16) scale(1 1.01) skewX(-.46)" gradientUnits="userSpaceOnUse">
      <stop offset=".44" stop-color="#bbc191"/>
      <stop offset="1" stop-color="#cedbf5"/>
    </linearGradient>
    <linearGradient id="_未命名漸層_41-2" data-name="未命名漸層 41" x1="2098.57" y1="-2080.49" x2="2066.84" y2="-2017.02" gradientTransform="translate(-982.23 3207.31) rotate(-19.58) scale(1.01) skewX(-.03)" xlink:href="#_未命名漸層_41"/>
    <linearGradient id="_未命名漸層_41-3" data-name="未命名漸層 41" x1="821.17" y1="-1147.69" x2="789.18" y2="-1083.71" gradientTransform="translate(-500.35 1372.91) rotate(-8.62)" xlink:href="#_未命名漸層_41"/>
    <linearGradient id="_未命名漸層_41-4" data-name="未命名漸層 41" x1="1952.06" y1="-2242.07" x2="1920.07" y2="-2178.09" gradientTransform="translate(-839.55 3124.78) rotate(-19.05)" xlink:href="#_未命名漸層_41"/>
    <linearGradient id="_未命名漸層_41-5" data-name="未命名漸層 41" x1="1160.98" y1="-1874.8" x2="1129.04" y2="-1810.92" gradientTransform="translate(-678.06 2103.59) rotate(-13.03)" xlink:href="#_未命名漸層_41"/>
    <linearGradient id="_未命名漸層_469" data-name="未命名漸層 469" x1="273.76" y1="441.28" x2="358.57" y2="441.28" gradientUnits="userSpaceOnUse">
      <stop offset="0" stop-color="#cedbf5"/>
      <stop offset=".92" stop-color="#f7ffff"/>
    </linearGradient>
    <linearGradient id="_未命名漸層_94" data-name="未命名漸層 94" x1="-3863.16" y1="-14.68" x2="-3822.74" y2="-14.68" gradientTransform="translate(1888.68 3900.55) rotate(65.1)" gradientUnits="userSpaceOnUse">
      <stop offset="0" stop-color="#fff" stop-opacity="0"/>
      <stop offset=".37" stop-color="#faffd0" stop-opacity=".54"/>
      <stop offset=".92" stop-color="#f7ffaf"/>
    </linearGradient>
    <linearGradient id="_未命名漸層_469-2" data-name="未命名漸層 469" x1="310.49" y1="578.41" x2="395.3" y2="578.41" xlink:href="#_未命名漸層_469"/>
    <linearGradient id="_未命名漸層_94-2" data-name="未命名漸層 94" x1="-3723.3" y1="9.73" x2="-3682.88" y2="9.73" xlink:href="#_未命名漸層_94"/>
    <linearGradient id="_未命名漸層_469-3" data-name="未命名漸層 469" x1="21.52" y1="89.52" x2="106.33" y2="89.52" xlink:href="#_未命名漸層_469"/>
    <linearGradient id="_未命名漸層_94-3" data-name="未命名漸層 94" x1="-4288.41" y1="66.04" x2="-4247.99" y2="66.04" xlink:href="#_未命名漸層_94"/>
    <linearGradient id="_未命名漸層_469-4" data-name="未命名漸層 469" x1="126.83" y1="191.95" x2="211.63" y2="191.95" xlink:href="#_未命名漸層_469"/>
    <linearGradient id="_未命名漸層_94-4" data-name="未命名漸層 94" x1="-4151.17" y1="13.64" x2="-4110.75" y2="13.64" xlink:href="#_未命名漸層_94"/>
    <linearGradient id="_未命名漸層_469-5" data-name="未命名漸層 469" x1="217.43" y1="309.04" x2="302.24" y2="309.04" xlink:href="#_未命名漸層_469"/>
    <linearGradient id="_未命名漸層_94-5" data-name="未命名漸層 94" x1="-4006.82" y1="-19.26" x2="-3966.4" y2="-19.26" xlink:href="#_未命名漸層_94"/>
    <clipPath id="clippath">
      <polygon class="cls-27" points="503.6 747.97 520.03 747.97 857.26 493.68 807.72 369.81 558.66 558.89 503.6 747.97"/>
    </clipPath>
    <linearGradient id="_未命名漸層_94-6" data-name="未命名漸層 94" x1="682.09" y1="826.49" x2="755.26" y2="826.49" gradientTransform="translate(-729.69 -509.05) rotate(-11.8)" xlink:href="#_未命名漸層_94"/>
    <linearGradient id="_未命名漸層_94-7" data-name="未命名漸層 94" x1="598.8" y1="706.77" x2="671.97" y2="706.77" gradientTransform="translate(-729.69 -509.05) rotate(-11.8)" xlink:href="#_未命名漸層_94"/>
    <linearGradient id="_未命名漸層_94-8" data-name="未命名漸層 94" x1="752.03" y1="958.69" x2="825.21" y2="958.69" gradientTransform="translate(-729.69 -509.05) rotate(-11.8)" xlink:href="#_未命名漸層_94"/>
    <linearGradient id="_未命名漸層_94-9" data-name="未命名漸層 94" x1="769.53" y1="1102.44" x2="842.7" y2="1102.44" gradientTransform="translate(-729.69 -509.05) rotate(-11.8)" xlink:href="#_未命名漸層_94"/>
    <linearGradient id="_未命名漸層_94-10" data-name="未命名漸層 94" x1="779.33" y1="1247.09" x2="852.5" y2="1247.09" gradientTransform="translate(-729.69 -509.05) rotate(-11.8)" xlink:href="#_未命名漸層_94"/>
  </defs>
  <g id="BG">
    <g>
      <path class="cls-27" d="M524.35,461.92c2.41-10.02,4.95-19.87,7.61-29.54-2.77,9.91-5.41,20-7.9,30.24,.1-.23,.2-.47,.29-.7Z"/>
      <g>
        <path class="cls-25" d="M834.1,214.11c-106.2,19.76-180.99,66.52-233.59,124.59,33.23-96.13,68.13-188.68,93.82-235.73-162.11,69.03-211.19,206.98-219.7,327.8-8.4-29.63-18.23-58.21-29.41-85.52C384.13,194.4,283.39,81.15,171.45,11.92c-1.21-.75-2.39-1.36-3.54-1.87-.25-.3-.49-.6-.74-.87-5.37-5.91-12.8-7.04-20.36-8.27-23.67-3.84-47.01,4.71-63.24,21.46-21.15-9.7-48.29-3.2-61.41,19.51h0c-9.16,15.87-8.04,33.71-.07,47.62l-6.96,19.85c.35,.83,.4,.96,.75,1.8,3.75,.5,8.16-3.56,10.36-9.79,.37,.85,.76,1.68,1.16,2.51l-6.34,18.08c.26,.65,.36,.9,.55,1.38l-.2,.64c.31,.83,.35,.96,.66,1.8,1.97,.3,4.14-1.06,5.99-3.53,1.46-.95,2.88-2.29,4.17-3.95l-5.61,18.27c.28,.81,.34,.98,.63,1.79,4.59,1.14,10.16-4.5,12.88-13.33,.46-1.49,.8-2.98,1.04-4.44,.41,.3,.82,.62,1.25,.91l-2.63,10.9c.35,.79,.41,.91,.76,1.71,1.77,.04,3.63-1.27,5.22-3.48,.28,.39,.42,.6,.8,1.13,1.07-.14,2.13-.59,3.15-1.27l-1.65,14.4c.41,.67,.5,.81,.91,1.48,4.53-.69,8.85-8.16,9.92-17.56,.04-.34,.06-.66,.09-1,.41,.05,.83,.11,1.25,.15l-.18,10.47c.5,.58,.58,.67,1.08,1.26,2.72-1.3,4.94-5.98,5.58-11.66,.72-.05,1.43-.15,2.13-.24,1.24,8.97,5.41,16,9.8,16.67,.41-.67,.5-.81,.91-1.48l-1.6-14.03c.8,.44,1.62,.79,2.45,.9,.47-.67,.57-.81,1.04-1.48l-.04-.27c1.68,2.59,3.72,4.15,5.66,4.1,.35-.79,.41-.91,.76-1.71l-2.23-9.26c.4-.28,.79-.57,1.18-.87,.2,.92,.43,1.84,.72,2.77,2.71,8.83,8.29,14.47,12.88,13.33,.28-.81,.34-.98,.63-1.79l-5.24-17.05c1.38,1.52,2.86,2.69,4.37,3.44,1.71,2,3.65,3.09,5.42,2.82,.31-.83,.35-.96,.66-1.8l-.48-1.55c.05-.13,.11-.28,.19-.47l-2.68-7.65-2.77-9.02c.35-.72,.67-1.46,.99-2.2,2.35,5.24,6.26,8.52,9.65,8.07,.35-.83,.4-.96,.75-1.8l-6.55-18.69c7.59-13.8,8.52-31.28-.47-46.86h0c-2.78-4.81-6.19-8.88-10.03-12.23,5.54-3.66,11.7-6.39,18.19-7.83,12.43-2.76,25.79-1.04,37.18,4.67,2.86,1.44,5.65,3.08,8.68,4.07,2.31,2.9,5.21,5.61,8.44,7.74,29.47,19.23,58.13,41.79,85.38,67.49-24.71-4.54-50.68,1.25-71.14,16.37-6.73-1.83-13.8-2.18-20.66-1.05-2.13-1.2-4.43-2.22-6.9-3.02-26.8-8.65-52.92,14.96-47,42.5h0c2.28,10.62,8.68,18.74,16.86,23.64,.96,2.66,2.14,5.24,3.55,7.69l-6.96,19.85c.35,.83,.4,.96,.75,1.8,3.75,.5,8.17-3.56,10.36-9.79,.37,.85,.76,1.68,1.16,2.51l-6.34,18.08c.26,.65,.36,.9,.55,1.38l-.2,.64c.31,.83,.35,.96,.66,1.8,1.97,.3,4.14-1.06,5.99-3.53,1.46-.95,2.88-2.29,4.17-3.95l-5.61,18.27c.28,.81,.34,.98,.63,1.79,4.59,1.14,10.16-4.5,12.88-13.33,.46-1.49,.8-2.98,1.04-4.44,.41,.3,.82,.62,1.25,.91l-2.63,10.9c.35,.79,.41,.91,.76,1.71,1.77,.04,3.63-1.27,5.22-3.48,.28,.39,.42,.6,.8,1.13,1.07-.14,2.13-.59,3.15-1.27l-1.65,14.4c.41,.67,.5,.81,.91,1.48,4.54-.69,8.85-8.16,9.93-17.56,.04-.34,.06-.66,.09-1,.41,.05,.83,.11,1.25,.15l-.18,10.47c.5,.58,.58,.67,1.08,1.26,2.72-1.3,4.94-5.98,5.58-11.66,.72-.05,1.43-.15,2.13-.24,1.24,8.97,5.41,16,9.8,16.67,.41-.67,.5-.81,.91-1.48l-1.6-14.03c.8,.44,1.62,.79,2.46,.9,.47-.67,.57-.81,1.04-1.48l-.04-.27c1.68,2.59,3.72,4.15,5.66,4.1,.35-.79,.41-.91,.76-1.71l-2.23-9.26c.4-.28,.79-.57,1.18-.87,.2,.92,.43,1.84,.72,2.77,2.71,8.83,8.29,14.47,12.88,13.33,.28-.81,.34-.98,.63-1.79l-5.24-17.05c1.38,1.52,2.86,2.69,4.37,3.44,1.71,2,3.65,3.09,5.42,2.82,.31-.83,.35-.96,.66-1.8l-.48-1.55c.05-.13,.11-.28,.19-.47l-2.68-7.65-2.77-9.02c.35-.72,.67-1.46,.99-2.2,2.35,5.24,6.26,8.52,9.65,8.07,.35-.83,.4-.96,.75-1.8l-6.55-18.69c7.59-13.8,8.52-31.28-.47-46.86h0c-4.33-7.5-10.2-13.21-16.86-17.17,22.7-14.17,51.64-16.27,76.34-4.76,31.69,32.16,61.18,68.74,87.47,109.46-25.9-10.04-54.64-6.1-76.83,10.41-6.8-3.27-14.24-4.83-21.67-4.71-2.72-1.8-5.76-3.28-9.11-4.36h0c-26.8-8.65-52.92,14.96-47,42.5h0c1.59,7.4,5.18,13.57,9.97,18.3,1.01,5.3,2.88,10.38,5.54,15.02l-6.96,19.85c.35,.83,.4,.96,.75,1.8,3.75,.5,8.16-3.56,10.36-9.79,.37,.85,.76,1.68,1.16,2.51l-6.34,18.08c.26,.65,.36,.9,.55,1.38l-.2,.64c.31,.83,.35,.96,.66,1.8,1.97,.3,4.14-1.06,5.99-3.53,1.46-.95,2.88-2.29,4.17-3.95l-5.61,18.27c.28,.81,.34,.98,.63,1.79,4.59,1.14,10.16-4.5,12.88-13.33,.46-1.49,.8-2.98,1.04-4.44,.41,.3,.82,.62,1.25,.91l-2.63,10.9c.35,.79,.41,.91,.76,1.71,1.77,.04,3.63-1.27,5.22-3.48,.28,.39,.42,.6,.8,1.13,1.07-.14,2.13-.59,3.15-1.27l-1.65,14.4c.41,.67,.5,.81,.91,1.48,4.53-.69,8.85-8.16,9.92-17.56,.04-.34,.06-.66,.09-1,.41,.05,.83,.11,1.25,.15l-.18,10.47c.5,.58,.58,.67,1.08,1.26,2.72-1.3,4.94-5.98,5.58-11.66,.72-.05,1.43-.15,2.13-.24,1.24,8.97,5.41,16,9.8,16.67,.41-.67,.5-.81,.91-1.48l-1.6-14.03c.8,.44,1.62,.79,2.45,.9,.47-.67,.57-.81,1.04-1.48l-.04-.27c1.68,2.59,3.72,4.15,5.66,4.1,.35-.79,.41-.91,.76-1.71l-2.23-9.26c.4-.28,.79-.57,1.18-.87,.2,.92,.43,1.84,.72,2.77,2.71,8.83,8.29,14.48,12.88,13.33,.28-.81,.34-.98,.63-1.79l-5.24-17.05c1.38,1.52,2.86,2.69,4.37,3.44,1.71,2,3.65,3.09,5.42,2.82,.31-.83,.35-.96,.66-1.8l-.48-1.55c.05-.13,.11-.28,.19-.47l-2.68-7.65-2.77-9.02c.35-.72,.67-1.46,.99-2.2,2.35,5.24,6.27,8.52,9.65,8.07,.35-.83,.4-.96,.75-1.8l-6.55-18.69c7.59-13.8,8.52-31.28-.47-46.86h0c-2.91-5.04-6.52-9.28-10.6-12.73,22.01-14.24,50.23-15.26,73.94-1.46,1.02,.59,2.13,.9,3.21,.94,21.95,36.11,41.41,75.28,57.7,117.35-29.05-12.95-62.04-9.16-87.2,9.62-11.49-5.95-25-6.95-37.16-2.96-1.48-.7-3.02-1.32-4.64-1.84h0c-26.8-8.65-52.92,14.96-47,42.5h0c2.96,13.81,12.87,23.4,24.63,27.17,.23,.42,.44,.85,.67,1.26l-6.96,19.85c.35,.83,.4,.96,.75,1.8,3.75,.5,8.16-3.56,10.36-9.79,.37,.85,.76,1.68,1.16,2.51l-6.34,18.08c.26,.65,.36,.9,.55,1.38l-.2,.64c.31,.83,.35,.96,.66,1.8,1.97,.3,4.14-1.06,5.99-3.53,1.46-.95,2.88-2.29,4.17-3.95l-5.61,18.27c.28,.81,.34,.98,.63,1.79,4.59,1.14,10.16-4.5,12.88-13.33,.46-1.49,.8-2.98,1.04-4.44,.41,.3,.82,.62,1.25,.91l-2.63,10.9c.35,.79,.41,.91,.76,1.71,1.77,.04,3.63-1.27,5.22-3.48,.28,.39,.42,.6,.8,1.13,1.07-.14,2.13-.59,3.15-1.27l-1.65,14.4c.41,.67,.5,.81,.91,1.48,4.53-.69,8.85-8.16,9.92-17.56,.04-.34,.06-.66,.09-1,.41,.05,.83,.11,1.25,.15l-.18,10.47c.5,.58,.58,.67,1.08,1.26,2.72-1.3,4.94-5.98,5.58-11.66,.72-.05,1.43-.15,2.13-.24,1.24,8.97,5.41,16,9.8,16.67,.41-.67,.5-.81,.91-1.48l-1.6-14.03c.8,.44,1.62,.79,2.46,.9,.47-.67,.57-.81,1.04-1.48l-.04-.27c1.68,2.59,3.72,4.15,5.66,4.1,.35-.79,.41-.91,.76-1.71l-2.23-9.26c.4-.28,.79-.57,1.18-.87,.2,.92,.43,1.84,.72,2.77,2.71,8.83,8.29,14.48,12.88,13.33,.28-.81,.34-.98,.63-1.79l-5.24-17.05c1.38,1.52,2.86,2.69,4.37,3.44,1.71,2,3.65,3.09,5.42,2.82,.31-.83,.35-.96,.66-1.8l-.48-1.55c.05-.13,.11-.28,.19-.47l-2.68-7.65-2.77-9.02c.35-.72,.67-1.46,.99-2.2,2.35,5.24,6.27,8.52,9.65,8.07,.35-.83,.4-.96,.75-1.8l-6.55-18.69c7.59-13.8,8.52-31.28-.47-46.86h0c-2.52-4.36-5.57-8.1-8.98-11.27,23.85-15.71,54.59-16.97,80.4-1.94,.8,.46,1.65,.76,2.5,.91,15.4,42,27.65,86.74,36.3,133.52-27.22-13.19-58.27-11.37-83.22,3.96-13.47-11.97-32.45-14.91-48.63-8.81-.09-.03-.17-.06-.25-.09h0c-26.8-8.65-52.92,14.96-47,42.5h0c2.8,13.04,11.78,22.31,22.68,26.48l-6.78,19.35c.35,.83,.4,.96,.75,1.8,3.75,.5,8.16-3.56,10.36-9.79,.37,.85,.76,1.68,1.16,2.51l-6.34,18.08c.26,.65,.36,.9,.55,1.38l-.2,.64c.31,.83,.35,.96,.66,1.8,1.97,.3,4.14-1.06,5.99-3.53,1.46-.95,2.88-2.29,4.17-3.95l-5.61,18.27c.28,.81,.34,.98,.63,1.79,4.59,1.14,10.16-4.5,12.88-13.33,.46-1.49,.8-2.98,1.04-4.44,.41,.3,.82,.62,1.25,.91l-2.63,10.9c.35,.79,.41,.91,.76,1.71,1.77,.04,3.63-1.27,5.22-3.48,.28,.39,.42,.6,.8,1.13,1.07-.14,2.13-.59,3.15-1.27l-1.65,14.4c.41,.67,.5,.81,.91,1.48,4.53-.69,8.85-8.16,9.92-17.56,.04-.34,.06-.66,.09-1,.42,.05,.83,.11,1.25,.15l-.18,10.47c.5,.58,.58,.67,1.08,1.26,2.72-1.3,4.94-5.98,5.58-11.66,.72-.05,1.43-.15,2.13-.24,1.24,8.97,5.41,16,9.8,16.67,.41-.67,.5-.81,.91-1.48l-1.6-14.03c.8,.44,1.62,.79,2.45,.9,.47-.67,.57-.81,1.04-1.48l-.04-.27c1.68,2.59,3.72,4.15,5.66,4.1,.35-.79,.41-.91,.76-1.71l-2.23-9.26c.4-.28,.79-.57,1.18-.87,.2,.92,.43,1.84,.72,2.77,2.71,8.83,8.29,14.47,12.88,13.33,.28-.81,.34-.98,.63-1.79l-5.24-17.05c1.38,1.52,2.86,2.69,4.37,3.44,1.71,2,3.65,3.09,5.42,2.82,.31-.83,.35-.96,.66-1.8l-.48-1.55c.05-.13,.11-.28,.19-.47l-2.68-7.65-2.77-9.02c.35-.72,.67-1.46,.99-2.2,2.35,5.24,6.27,8.52,9.65,8.07,.35-.83,.4-.96,.75-1.8l-6.55-18.69c7.59-13.8,8.52-31.28-.47-46.86h0c-.56-.98-1.15-1.92-1.77-2.84,23.18-13.2,51.84-13.51,76.14,.63,.53,.31,1.09,.52,1.64,.69,5.77,34.48,9.61,70,11.31,106.3-6.44,63.42-2.56,108.88-2.64,112.01h1.14c0,.12-.01,.24-.02,.36h25.89c0-.07,0-.14,.01-.22l5.07,.03h2.51c-1.59,2.83-3.18,5.66-4.74,8.52,1.59-2.86,3.2-5.69,4.81-8.51l34.84,.18c4.57-17.13,10.4-35.15,17.22-53.77,70.81-76.56,188.97-201.6,242.39-242.69-63.49-.99-115.03,23.11-156.3,58.12,74.9-138.26,161.95-265.45,179.57-290.87,2.09-3.02,3.21-4.61,3.21-4.61Zm-310.65,248.01c-.11,.26-.21,.51-.32,.76,2.51-10.3,5.16-20.45,7.95-30.41-2.67,9.71-5.21,19.6-7.63,29.65Z"/>
        <path class="cls-18" d="M225.52,253.93c9-10.48,20.92-15.76,32.89-16.42-1.04-.74-2.09-1.47-3.24-2.12l-.29-.16c-24.13-13.53-53.79,4.67-53.39,32.76v.34c.17,11.77,5.6,21.54,13.56,27.89-3.22-14.1-.28-29.78,10.46-42.29Z"/>
        <path class="cls-14" d="M308.48,535.68c5.55-12.81,15.55-21.52,27.02-25.83-1.24-.39-2.49-.77-3.81-1.04l-.33-.07c-27.7-5.57-51.02,20.97-41.98,47.78l.11,.32c3.79,11.23,12.09,18.93,21.81,22.57-7.49-12.52-9.45-28.45-2.82-43.74Z"/>
        <path class="cls-21" d="M129.29,140.98c7.85-11.46,19.27-18.08,31.3-20.11-1.14-.61-2.29-1.22-3.53-1.73l-.31-.13c-26.03-10.67-53.85,10.84-50.08,38.71l.05,.34c1.58,11.69,8.25,20.76,17.06,26.16-4.95-13.64-3.86-29.57,5.51-43.24Z"/>
        <path class="cls-6" d="M268.62,395.75c5.65-12.69,15.68-21.27,27.15-25.44-1.23-.4-2.47-.79-3.78-1.07l-.33-.07c-27.53-5.79-51,20.4-42.24,47.14l.11,.32c3.67,11.21,11.87,18.93,21.51,22.64-7.34-12.52-9.14-28.38-2.4-43.53Z"/>
        <path class="cls-9" d="M22.07,41.84c6.93-12.01,17.79-19.48,29.62-22.42-1.18-.52-2.37-1.04-3.64-1.45l-.32-.1C20.99,9.23-5.05,32.78,.84,60.24l.07,.33c2.47,11.51,9.8,20.04,18.99,24.73-5.98-13.2-6.11-29.14,2.17-43.47Z"/>
        <path class="cls-24" d="M333.81,394.59c24.7-26.63,63.41-32.39,94.8-14.12,3.05,1.77,6.81,1.25,8.52-1.48h0c1.7-2.72,.29-6.92-3.27-8.99-35.8-20.84-79.94-14.27-108.11,16.1-2.81,3.02-2.93,7.44-.51,9.55h0c2.42,2.12,6.17,1.51,8.58-1.07Z"/>
        <g>
          <path class="cls-17" d="M352.82,455.16c6.65-13.8,7.47-31.28-.42-46.86h0c-16.11-31.83-56.38-31.83-72.49,0h0c-8.03,15.87-7.05,33.71-.06,47.62l-6.1,19.85c.31,.83,.35,.96,.66,1.8,3.29,.5,7.17-3.57,9.09-9.82,.46-1.49,.75-2.97,.92-4.42,.52,.69,1.05,1.36,1.61,2.01l-7.07,23.02c.28,.81,.34,.98,.63,1.79,4.59,1.14,10.16-4.5,12.88-13.33,.46-1.49,.8-2.98,1.04-4.44,.41,.3,.82,.62,1.25,.91l-2.63,10.9c.35,.79,.41,.91,.76,1.71,3,.07,6.27-3.67,8.01-9.2,.56,.25,1.13,.49,1.71,.72l-2.2,19.27c.41,.67,.5,.81,.91,1.48,4.53-.69,8.85-8.16,9.92-17.56,.04-.34,.06-.66,.09-1,.42,.05,.83,.11,1.25,.15l-.18,10.47c.5,.58,.58,.67,1.08,1.26,2.72-1.3,4.94-5.98,5.58-11.66,.72-.05,1.43-.15,2.13-.24,1.24,8.97,5.41,16,9.8,16.67,.41-.67,.5-.81,.91-1.48l-1.99-17.43c.71-.28,1.4-.58,2.08-.9,1.83,4.61,4.74,7.61,7.43,7.55,.35-.79,.41-.91,.76-1.71l-2.23-9.26c.4-.28,.79-.57,1.18-.87,.2,.92,.43,1.84,.72,2.77,2.71,8.83,8.29,14.47,12.88,13.33,.28-.81,.34-.98,.63-1.79l-6.65-21.63c.49-.6,.96-1.2,1.42-1.83,.17,.94,.39,1.89,.68,2.85,1.92,6.25,5.8,10.32,9.09,9.82,.31-.83,.35-.96,.66-1.8l-5.74-18.69Z"/>
          <path class="cls-23" d="M357.66,440.55c7.59-13.8,8.52-31.28-.47-46.86h0c-18.38-31.83-64.32-31.83-82.7,0h0c-9.16,15.87-8.04,33.71-.07,47.62l-6.96,19.85c.35,.83,.4,.96,.75,1.8,3.75,.5,8.18-3.57,10.37-9.82,.52-1.49,.86-2.97,1.05-4.42,.59,.69,1.2,1.36,1.83,2.01l-8.07,23.02c.32,.81,.39,.98,.72,1.79,5.23,1.14,11.6-4.5,14.69-13.33,.52-1.49,.91-2.98,1.19-4.44,.47,.3,.94,.62,1.42,.91l-3,10.9c.4,.79,.46,.91,.87,1.71,3.42,.07,7.15-3.67,9.14-9.2,.64,.25,1.29,.49,1.95,.72l-2.51,19.27c.47,.67,.57,.81,1.04,1.48,5.17-.69,10.1-8.16,11.32-17.56,.04-.34,.07-.66,.1-1,.47,.05,.95,.11,1.43,.15l-.2,10.47c.57,.58,.66,.67,1.23,1.26,3.1-1.3,5.64-5.98,6.36-11.66,.82-.05,1.63-.15,2.43-.24,1.41,8.97,6.18,16,11.18,16.67,.47-.67,.57-.81,1.04-1.48l-2.27-17.43c.8-.28,1.59-.58,2.37-.9,2.09,4.61,5.41,7.61,8.48,7.55,.4-.79,.46-.91,.87-1.71l-2.55-9.26c.46-.28,.9-.57,1.34-.87,.23,.92,.49,1.84,.82,2.77,3.1,8.83,9.46,14.47,14.69,13.33,.32-.81,.39-.98,.72-1.79l-7.58-21.63c.55-.6,1.1-1.2,1.62-1.83,.2,.94,.44,1.89,.78,2.85,2.19,6.25,6.62,10.32,10.37,9.82,.35-.83,.4-.96,.75-1.8l-6.55-18.69Z"/>
          <path class="cls-11" d="M285.8,424.37c9.22-13.12,10.74-28.46,6.47-41.84-9.83,7.65-16.83,19.19-18.09,33.32h0c-.59,6.63,.17,12.93,1.99,18.7,3.56-2.8,6.82-6.18,9.63-10.18h0Z"/>
        </g>
        <path class="cls-24" d="M373.5,542.74c24.7-26.63,63.41-32.39,94.8-14.12,3.05,1.77,6.81,1.25,8.52-1.48h0c1.7-2.72,.29-6.92-3.27-8.99-35.8-20.84-79.94-14.27-108.11,16.1-2.81,3.02-2.93,7.44-.51,9.55h0c2.42,2.12,6.17,1.51,8.58-1.07Z"/>
        <g>
          <path class="cls-1" d="M389.56,592.29c6.65-13.8,7.47-31.28-.42-46.86h0c-16.11-31.83-56.38-31.83-72.49,0h0c-8.03,15.87-7.05,33.71-.06,47.62l-6.1,19.85c.31,.83,.35,.96,.66,1.8,3.29,.5,7.17-3.57,9.09-9.82,.46-1.49,.75-2.97,.92-4.42,.52,.69,1.05,1.36,1.61,2.01l-7.07,23.02c.28,.81,.34,.98,.63,1.79,4.59,1.14,10.16-4.5,12.88-13.33,.46-1.49,.8-2.98,1.04-4.44,.41,.3,.82,.62,1.25,.91l-2.63,10.9c.35,.79,.41,.91,.76,1.71,3,.07,6.27-3.67,8.01-9.2,.56,.25,1.13,.49,1.71,.72l-2.2,19.27c.41,.67,.5,.81,.91,1.48,4.53-.69,8.85-8.16,9.92-17.56,.04-.34,.06-.66,.09-1,.42,.05,.83,.11,1.25,.15l-.18,10.47c.5,.58,.58,.67,1.08,1.26,2.72-1.3,4.94-5.98,5.58-11.66,.72-.05,1.43-.15,2.13-.24,1.24,8.97,5.41,16,9.8,16.67,.41-.67,.5-.81,.91-1.48l-1.99-17.43c.71-.28,1.4-.58,2.08-.9,1.83,4.61,4.74,7.61,7.43,7.55,.35-.79,.41-.91,.76-1.71l-2.23-9.26c.4-.28,.79-.57,1.18-.87,.2,.92,.43,1.84,.72,2.77,2.71,8.83,8.29,14.47,12.88,13.33,.28-.81,.34-.98,.63-1.79l-6.65-21.63c.49-.6,.96-1.2,1.42-1.83,.17,.94,.39,1.89,.68,2.85,1.92,6.25,5.8,10.32,9.09,9.82,.31-.83,.35-.96,.66-1.8l-5.74-18.69Z"/>
          <path class="cls-23" d="M394.39,577.68c7.59-13.8,8.52-31.28-.47-46.86h0c-18.38-31.83-64.32-31.83-82.7,0h0c-9.16,15.87-8.04,33.71-.07,47.62l-6.96,19.85c.35,.83,.4,.96,.75,1.8,3.75,.5,8.18-3.57,10.37-9.82,.52-1.49,.86-2.97,1.05-4.42,.59,.69,1.2,1.36,1.83,2.01l-8.07,23.02c.32,.81,.39,.98,.72,1.79,5.23,1.14,11.6-4.5,14.69-13.33,.52-1.49,.91-2.98,1.19-4.44,.47,.3,.94,.62,1.42,.91l-3,10.9c.4,.79,.46,.91,.87,1.71,3.42,.07,7.15-3.67,9.14-9.2,.64,.25,1.29,.49,1.95,.72l-2.51,19.27c.47,.67,.57,.81,1.04,1.48,5.17-.69,10.1-8.16,11.32-17.56,.04-.34,.07-.66,.1-1,.47,.05,.95,.11,1.43,.15l-.2,10.47c.57,.58,.66,.67,1.23,1.26,3.1-1.3,5.64-5.98,6.36-11.66,.82-.05,1.63-.15,2.43-.24,1.41,8.97,6.18,16,11.18,16.67,.47-.67,.57-.81,1.04-1.48l-2.27-17.43c.8-.28,1.59-.58,2.37-.9,2.09,4.61,5.41,7.61,8.48,7.55,.4-.79,.46-.91,.87-1.71l-2.55-9.26c.46-.28,.9-.57,1.34-.87,.23,.92,.49,1.84,.82,2.77,3.1,8.83,9.46,14.47,14.69,13.33,.32-.81,.39-.98,.72-1.79l-7.58-21.63c.55-.6,1.1-1.2,1.62-1.83,.2,.94,.44,1.89,.78,2.85,2.19,6.25,6.62,10.32,10.37,9.82,.35-.83,.4-.96,.75-1.8l-6.55-18.69Z"/>
          <path class="cls-7" d="M322.53,561.51c9.22-13.12,10.74-28.46,6.47-41.84-9.83,7.65-16.83,19.19-18.09,33.32h0c-.59,6.63,.17,12.93,1.99,18.7,3.56-2.8,6.82-6.18,9.63-10.18h0Z"/>
        </g>
        <path class="cls-24" d="M82.93,40.31c.32-.34,.62-.68,.91-1.01,2.55-2.95,5.44-5.6,8.57-7.93,6.14-4.56,13.23-7.84,20.7-9.5,12.43-2.76,25.79-1.04,37.18,4.67,3.3,1.66,6.49,3.65,10.07,4.51,3.59,.86,7.8,.32,10.24-2.45,4.96-5.64,.94-14.67-3.33-19.37-5.37-5.91-12.8-7.04-20.36-8.27-28.4-4.61-56.39,8.59-72.11,32.45-2.02,3.07-1.54,7.13,.83,8.79,2.92,2.04,5.36,.18,7.3-1.89Z"/>
        <path class="cls-24" d="M179.85,137.79c24.55-24.13,62.55-29.79,93.06-13.86,2.96,1.54,6.66,1.03,8.36-1.43h0c1.7-2.45,.37-6.19-3.09-7.99-34.8-18.16-78.13-11.71-106.12,15.8-2.79,2.74-2.97,6.69-.63,8.55h0c2.35,1.86,6.03,1.27,8.42-1.07Z"/>
        <path class="cls-24" d="M276.45,260.33c22.87-24.65,58.7-29.99,87.76-13.07,2.82,1.64,6.31,1.16,7.88-1.37h0c1.57-2.52,.27-6.4-3.03-8.32-33.14-19.29-74-13.21-100.07,14.9-2.6,2.79-2.71,6.89-.47,8.84h0c2.24,1.96,5.72,1.4,7.94-.99Z"/>
        <g class="cls-4">
          <path class="cls-22" d="M498.42,655.83S627.59,225.43,694.43,103.02c0,0-189.53,222.95-196.01,552.81Z"/>
          <path class="cls-28" d="M498.42,655.83S369.81,241.24,694.43,103.02c0,0-192.14,232.38-196.01,552.81Z"/>
        </g>
        <path class="cls-28" d="M445.32,345.3C384.22,194.45,283.48,81.2,171.55,11.97c-9.04-5.59-16.99-4.39-17.78,2.23-.1,.78-.19,1.55-.29,2.33-.8,6.63,5.43,16.22,13.92,21.81,106.02,69.18,201.63,181.32,258.36,328.84,43.29,111.14,64.17,242.64,53.96,380.79h25.89c10.93-147.59-12.75-286.44-60.3-402.68Z"/>
        <path class="cls-28" d="M830.99,218.77c2.09-3.02,3.21-4.61,3.21-4.61-396.27,73.72-355.32,523.37-355.59,533.46l32.09,.16c14.34-324.76,260.71-492.97,320.3-529.02Z"/>
        <path class="cls-24" d="M830.99,218.77c-59.59,36.04-305.95,204.26-320.3,529.02l37.41,.19c50.83-190.41,254.83-488.74,282.88-529.21Z"/>
        <g>
          <path class="cls-13" d="M100.59,103.4c6.65-13.8,7.47-31.28-.42-46.86h0c-16.11-31.83-56.38-31.83-72.49,0h0c-8.03,15.87-7.05,33.71-.06,47.62l-6.1,19.85c.31,.83,.35,.96,.66,1.8,3.29,.5,7.17-3.57,9.09-9.82,.46-1.49,.75-2.97,.92-4.42,.52,.69,1.05,1.36,1.61,2.01l-7.07,23.02c.28,.81,.34,.98,.63,1.79,4.59,1.14,10.16-4.5,12.88-13.33,.46-1.49,.8-2.98,1.04-4.44,.41,.3,.82,.62,1.25,.91l-2.63,10.9c.35,.79,.41,.91,.76,1.71,3,.07,6.27-3.67,8.01-9.2,.56,.25,1.13,.49,1.71,.72l-2.2,19.27c.41,.67,.5,.81,.91,1.48,4.53-.69,8.85-8.16,9.92-17.56,.04-.34,.06-.66,.09-1,.42,.05,.83,.11,1.25,.15l-.18,10.47c.5,.58,.58,.67,1.08,1.26,2.72-1.3,4.94-5.98,5.58-11.66,.72-.05,1.43-.15,2.13-.24,1.24,8.97,5.41,16,9.8,16.67,.41-.67,.5-.81,.91-1.48l-1.99-17.43c.71-.28,1.4-.58,2.08-.9,1.83,4.61,4.74,7.61,7.43,7.55,.35-.79,.41-.91,.76-1.71l-2.23-9.26c.4-.28,.79-.57,1.18-.87,.2,.92,.43,1.84,.72,2.77,2.71,8.83,8.29,14.47,12.88,13.33,.28-.81,.34-.98,.63-1.79l-6.65-21.63c.49-.6,.96-1.2,1.42-1.83,.17,.94,.39,1.89,.68,2.85,1.92,6.25,5.8,10.32,9.09,9.82,.31-.83,.35-.96,.66-1.8l-5.74-18.69Z"/>
          <path class="cls-23" d="M105.43,88.79c7.59-13.8,8.52-31.28-.47-46.86h0c-18.38-31.83-64.32-31.83-82.7,0h0c-9.16,15.87-8.04,33.71-.07,47.62l-6.96,19.85c.35,.83,.4,.96,.75,1.8,3.75,.5,8.18-3.57,10.37-9.82,.52-1.49,.86-2.97,1.05-4.42,.59,.69,1.2,1.36,1.83,2.01l-8.07,23.02c.32,.81,.39,.98,.72,1.79,5.23,1.14,11.6-4.5,14.69-13.33,.52-1.49,.91-2.98,1.19-4.44,.47,.3,.94,.62,1.42,.91l-3,10.9c.4,.79,.46,.91,.87,1.71,3.42,.07,7.15-3.67,9.14-9.2,.64,.25,1.29,.49,1.95,.72l-2.51,19.27c.47,.67,.57,.81,1.04,1.48,5.17-.69,10.1-8.16,11.32-17.56,.04-.34,.07-.66,.1-1,.47,.05,.95,.11,1.43,.15l-.2,10.47c.57,.58,.66,.67,1.23,1.26,3.1-1.3,5.64-5.98,6.36-11.66,.82-.05,1.63-.15,2.43-.24,1.41,8.97,6.18,16,11.18,16.67,.47-.67,.57-.81,1.04-1.48l-2.27-17.43c.8-.28,1.59-.58,2.37-.9,2.09,4.61,5.41,7.61,8.48,7.55,.4-.79,.46-.91,.87-1.71l-2.55-9.26c.46-.28,.9-.57,1.34-.87,.23,.92,.49,1.84,.82,2.77,3.1,8.83,9.46,14.47,14.69,13.33,.32-.81,.39-.98,.72-1.79l-7.58-21.63c.55-.6,1.1-1.2,1.62-1.83,.2,.94,.44,1.89,.78,2.85,2.19,6.25,6.62,10.32,10.37,9.82,.35-.83,.4-.96,.75-1.8l-6.55-18.69Z"/>
          <path class="cls-5" d="M33.56,72.61c9.22-13.12,10.74-28.46,6.47-41.84-9.83,7.65-16.83,19.19-18.09,33.32h0c-.59,6.63,.17,12.93,1.99,18.7,3.56-2.8,6.82-6.18,9.63-10.18h0Z"/>
        </g>
        <g>
          <path class="cls-15" d="M205.89,205.83c6.65-13.8,7.47-31.28-.42-46.86h0c-16.11-31.83-56.38-31.83-72.49,0h0c-8.03,15.87-7.05,33.71-.06,47.62l-6.1,19.85c.31,.83,.35,.96,.66,1.8,3.29,.5,7.17-3.57,9.09-9.82,.46-1.49,.75-2.97,.92-4.42,.52,.69,1.05,1.36,1.61,2.01l-7.07,23.02c.28,.81,.34,.98,.63,1.79,4.59,1.14,10.16-4.5,12.88-13.33,.46-1.49,.8-2.98,1.04-4.44,.41,.3,.82,.62,1.25,.91l-2.63,10.9c.35,.79,.41,.91,.76,1.71,3,.07,6.27-3.67,8.01-9.2,.56,.25,1.13,.49,1.71,.72l-2.2,19.27c.41,.67,.5,.81,.91,1.48,4.53-.69,8.85-8.16,9.92-17.56,.04-.34,.06-.66,.09-1,.42,.05,.83,.11,1.25,.15l-.18,10.47c.5,.58,.58,.67,1.08,1.26,2.72-1.3,4.94-5.98,5.58-11.66,.72-.05,1.43-.15,2.13-.24,1.24,8.97,5.41,16,9.8,16.67,.41-.67,.5-.81,.91-1.48l-1.99-17.43c.71-.28,1.4-.58,2.08-.9,1.83,4.61,4.74,7.61,7.43,7.55,.35-.79,.41-.91,.76-1.71l-2.23-9.26c.4-.28,.79-.57,1.18-.87,.2,.92,.43,1.84,.72,2.77,2.71,8.83,8.29,14.47,12.88,13.33,.28-.81,.34-.98,.63-1.79l-6.65-21.63c.49-.6,.96-1.2,1.42-1.83,.17,.94,.39,1.89,.68,2.85,1.92,6.25,5.8,10.32,9.09,9.82,.31-.83,.35-.96,.66-1.8l-5.74-18.69Z"/>
          <path class="cls-23" d="M210.73,191.22c7.59-13.8,8.52-31.28-.47-46.86h0c-18.38-31.83-64.32-31.83-82.7,0h0c-9.16,15.87-8.04,33.71-.07,47.62l-6.96,19.85c.35,.83,.4,.96,.75,1.8,3.75,.5,8.18-3.57,10.37-9.82,.52-1.49,.86-2.97,1.05-4.42,.59,.69,1.2,1.36,1.83,2.01l-8.07,23.02c.32,.81,.39,.98,.72,1.79,5.23,1.14,11.6-4.5,14.69-13.33,.52-1.49,.91-2.98,1.19-4.44,.47,.3,.94,.62,1.42,.91l-3,10.9c.4,.79,.46,.91,.87,1.71,3.42,.07,7.15-3.67,9.14-9.2,.64,.25,1.29,.49,1.95,.72l-2.51,19.27c.47,.67,.57,.81,1.04,1.48,5.17-.69,10.1-8.16,11.32-17.56,.04-.34,.07-.66,.1-1,.47,.05,.95,.11,1.43,.15l-.2,10.47c.57,.58,.66,.67,1.23,1.26,3.1-1.3,5.64-5.98,6.36-11.66,.82-.05,1.63-.15,2.43-.24,1.41,8.97,6.18,16,11.18,16.67,.47-.67,.57-.81,1.04-1.48l-2.27-17.43c.8-.28,1.59-.58,2.37-.9,2.09,4.61,5.41,7.61,8.48,7.55,.4-.79,.46-.91,.87-1.71l-2.55-9.26c.46-.28,.9-.57,1.34-.87,.23,.92,.49,1.84,.82,2.77,3.1,8.83,9.46,14.47,14.69,13.33,.32-.81,.39-.98,.72-1.79l-7.58-21.63c.55-.6,1.1-1.2,1.62-1.83,.2,.94,.44,1.89,.78,2.85,2.19,6.25,6.62,10.32,10.37,9.82,.35-.83,.4-.96,.75-1.8l-6.55-18.69Z"/>
          <path class="cls-3" d="M138.87,175.05c9.22-13.12,10.74-28.46,6.47-41.84-9.83,7.65-16.83,19.19-18.09,33.32h0c-.59,6.63,.17,12.93,1.99,18.7,3.56-2.8,6.82-6.18,9.63-10.18h0Z"/>
        </g>
        <g>
          <path class="cls-20" d="M296.5,322.92c6.65-13.8,7.47-31.28-.42-46.86h0c-16.11-31.83-56.38-31.83-72.49,0h0c-8.03,15.87-7.05,33.71-.06,47.62l-6.1,19.85c.31,.83,.35,.96,.66,1.8,3.29,.5,7.17-3.57,9.09-9.82,.46-1.49,.75-2.97,.92-4.42,.52,.69,1.05,1.36,1.61,2.01l-7.07,23.02c.28,.81,.34,.98,.63,1.79,4.59,1.14,10.16-4.5,12.88-13.33,.46-1.49,.8-2.98,1.04-4.44,.41,.3,.82,.62,1.25,.91l-2.63,10.9c.35,.79,.41,.91,.76,1.71,3,.07,6.27-3.67,8.01-9.2,.56,.25,1.13,.49,1.71,.72l-2.2,19.27c.41,.67,.5,.81,.91,1.48,4.53-.69,8.85-8.16,9.92-17.56,.04-.34,.06-.66,.09-1,.42,.05,.83,.11,1.25,.15l-.18,10.47c.5,.58,.58,.67,1.08,1.26,2.72-1.3,4.94-5.98,5.58-11.66,.72-.05,1.43-.15,2.13-.24,1.24,8.97,5.41,16,9.8,16.67,.41-.67,.5-.81,.91-1.48l-1.99-17.43c.71-.28,1.4-.58,2.08-.9,1.83,4.61,4.74,7.61,7.43,7.55,.35-.79,.41-.91,.76-1.71l-2.23-9.26c.4-.28,.79-.57,1.18-.87,.2,.92,.43,1.84,.72,2.77,2.71,8.83,8.29,14.47,12.88,13.33,.28-.81,.34-.98,.63-1.79l-6.65-21.63c.49-.6,.96-1.2,1.42-1.83,.17,.94,.39,1.89,.68,2.85,1.92,6.25,5.8,10.32,9.09,9.82,.31-.83,.35-.96,.66-1.8l-5.74-18.69Z"/>
          <path class="cls-23" d="M301.34,308.31c7.59-13.8,8.52-31.28-.47-46.86h0c-18.38-31.83-64.32-31.83-82.7,0h0c-9.16,15.87-8.04,33.71-.07,47.62l-6.96,19.85c.35,.83,.4,.96,.75,1.8,3.75,.5,8.18-3.57,10.37-9.82,.52-1.49,.86-2.97,1.05-4.42,.59,.69,1.2,1.36,1.83,2.01l-8.07,23.02c.32,.81,.39,.98,.72,1.79,5.23,1.14,11.6-4.5,14.69-13.33,.52-1.49,.91-2.98,1.19-4.44,.47,.3,.94,.62,1.42,.91l-3,10.9c.4,.79,.46,.91,.87,1.71,3.42,.07,7.15-3.67,9.14-9.2,.64,.25,1.29,.49,1.95,.72l-2.51,19.27c.47,.67,.57,.81,1.04,1.48,5.17-.69,10.1-8.16,11.32-17.56,.04-.34,.07-.66,.1-1,.47,.05,.95,.11,1.43,.15l-.2,10.47c.57,.58,.66,.67,1.23,1.26,3.1-1.3,5.64-5.98,6.36-11.66,.82-.05,1.63-.15,2.43-.24,1.41,8.97,6.18,16,11.18,16.67,.47-.67,.57-.81,1.04-1.48l-2.27-17.43c.8-.28,1.59-.58,2.37-.9,2.09,4.61,5.41,7.61,8.48,7.55,.4-.79,.46-.91,.87-1.71l-2.55-9.26c.46-.28,.9-.57,1.34-.87,.23,.92,.49,1.84,.82,2.77,3.1,8.83,9.46,14.47,14.69,13.33,.32-.81,.39-.98,.72-1.79l-7.58-21.63c.55-.6,1.1-1.2,1.62-1.83,.2,.94,.44,1.89,.78,2.85,2.19,6.25,6.62,10.32,10.37,9.82,.35-.83,.4-.96,.75-1.8l-6.55-18.69Z"/>
          <path class="cls-16" d="M229.47,292.13c9.22-13.12,10.74-28.46,6.47-41.84-9.83,7.65-16.83,19.19-18.09,33.32h0c-.59,6.63,.17,12.93,1.99,18.7,3.56-2.8,6.82-6.18,9.63-10.18h0Z"/>
        </g>
        <g class="cls-26">
          <g class="cls-4">
            <path class="cls-22" d="M508.46,756.3s220.32-244.07,299.26-304.79c0,0-180.44,90.98-299.26,304.79Z"/>
            <path class="cls-28" d="M508.46,756.3s75.38-308.27,299.26-304.79c0,0-185.15,96.39-299.26,304.79Z"/>
          </g>
        </g>
        <path class="cls-10" d="M107.08,160.64h0c5.91,27.54,39.42,38.35,60.31,19.46h0c20.89-18.89,13.5-53.31-13.3-61.96h0c-26.8-8.65-52.92,14.96-47,42.5Z"/>
        <path class="cls-2" d="M1.06,60.5h0c5.91,27.54,39.42,38.35,60.31,19.46h0c20.89-18.89,13.5-53.31-13.3-61.96h0C21.26,9.35-4.85,32.96,1.06,60.5Z"/>
        <path class="cls-12" d="M202.58,275.74h0c5.91,27.54,39.42,38.35,60.31,19.46h0c20.89-18.89,13.5-53.31-13.3-61.96h0c-26.8-8.65-52.92,14.96-47,42.5Z"/>
        <path class="cls-8" d="M249.11,412.87h0c5.91,27.54,39.42,38.35,60.31,19.46h0c20.89-18.89,13.5-53.31-13.3-61.96h0c-26.8-8.65-52.92,14.96-47,42.5Z"/>
        <path class="cls-19" d="M288.29,552.46h0c5.91,27.54,39.42,38.35,60.31,19.46h0c20.89-18.89,13.5-53.31-13.3-61.96h0c-26.8-8.65-52.92,14.96-47,42.5Z"/>
      </g>
    </g>
  </g>
</svg>