<?xml version="1.0" encoding="UTF-8"?>
<svg id="_圖層_2" data-name="圖層 2" xmlns="http://www.w3.org/2000/svg" xmlns:xlink="http://www.w3.org/1999/xlink" viewBox="0 0 592.66 808.99">
  <defs>
    <style>
      .cls-1 {
        fill: url(#_未命名漸層_469-2);
      }

      .cls-1, .cls-2, .cls-3, .cls-4, .cls-5, .cls-6, .cls-7, .cls-8, .cls-9, .cls-10, .cls-11, .cls-12, .cls-13, .cls-14, .cls-15, .cls-16, .cls-17, .cls-18, .cls-19, .cls-20, .cls-21, .cls-22, .cls-23, .cls-24, .cls-25, .cls-26, .cls-27, .cls-28, .cls-29, .cls-30, .cls-31, .cls-32, .cls-33, .cls-34, .cls-35 {
        opacity: .5;
      }

      .cls-2 {
        fill: url(#_未命名漸層_94-14);
      }

      .cls-3 {
        fill: url(#_未命名漸層_94-13);
      }

      .cls-4 {
        fill: url(#_未命名漸層_94-7);
      }

      .cls-5 {
        fill: url(#_未命名漸層_94-4);
      }

      .cls-6 {
        fill: url(#_未命名漸層_469-7);
      }

      .cls-7 {
        fill: url(#_未命名漸層_94-3);
      }

      .cls-8 {
        fill: url(#_未命名漸層_94-12);
      }

      .cls-9 {
        fill: url(#_未命名漸層_469-8);
      }

      .cls-10 {
        fill: url(#_未命名漸層_469-15);
      }

      .cls-11 {
        fill: url(#_未命名漸層_94-2);
      }

      .cls-12 {
        fill: url(#_未命名漸層_469-16);
      }

      .cls-13 {
        fill: url(#_未命名漸層_94-9);
      }

      .cls-36 {
        fill: url(#_未命名漸層_18);
      }

      .cls-14 {
        fill: url(#_未命名漸層_469-11);
      }

      .cls-15 {
        fill: #fff;
      }

      .cls-16 {
        fill: url(#_未命名漸層_94-6);
      }

      .cls-17 {
        fill: url(#_未命名漸層_94-16);
      }

      .cls-18 {
        fill: url(#_未命名漸層_469-13);
      }

      .cls-19 {
        fill: url(#_未命名漸層_469-14);
      }

      .cls-37 {
        fill: #768672;
      }

      .cls-20 {
        fill: #836e57;
      }

      .cls-21 {
        fill: url(#_未命名漸層_94);
      }

      .cls-22 {
        fill: #ffe772;
      }

      .cls-23 {
        fill: url(#_未命名漸層_94-15);
      }

      .cls-24 {
        fill: url(#_未命名漸層_94-11);
      }

      .cls-25 {
        fill: url(#_未命名漸層_94-8);
      }

      .cls-26 {
        fill: url(#_未命名漸層_469-6);
      }

      .cls-27 {
        fill: url(#_未命名漸層_469-3);
      }

      .cls-28 {
        fill: url(#_未命名漸層_469-10);
      }

      .cls-29 {
        fill: url(#_未命名漸層_469-4);
      }

      .cls-30 {
        fill: url(#_未命名漸層_94-5);
      }

      .cls-31 {
        fill: url(#_未命名漸層_469-12);
      }

      .cls-38 {
        fill: #427251;
      }

      .cls-32 {
        fill: url(#_未命名漸層_469);
      }

      .cls-33 {
        fill: url(#_未命名漸層_469-9);
      }

      .cls-34 {
        fill: url(#_未命名漸層_94-10);
      }

      .cls-35 {
        fill: url(#_未命名漸層_469-5);
      }
    </style>
    <linearGradient id="_未命名漸層_18" data-name="未命名漸層 18" x1="296.33" y1="808.99" x2="296.33" y2="0" gradientUnits="userSpaceOnUse">
      <stop offset="0" stop-color="#e9ecdc"/>
      <stop offset="1" stop-color="#d7e2ba"/>
    </linearGradient>
    <linearGradient id="_未命名漸層_94" data-name="未命名漸層 94" x1="890.81" y1="4860.13" x2="957.05" y2="4860.13" gradientTransform="translate(-3644.46 -2818.79) rotate(-41.04)" gradientUnits="userSpaceOnUse">
      <stop offset="0" stop-color="#fff" stop-opacity="0"/>
      <stop offset=".37" stop-color="#faffd0" stop-opacity=".54"/>
      <stop offset=".92" stop-color="#f7ffaf"/>
    </linearGradient>
    <linearGradient id="_未命名漸層_94-2" data-name="未命名漸層 94" x1="943.78" y1="4874.37" x2="1009.91" y2="4874.37" xlink:href="#_未命名漸層_94"/>
    <linearGradient id="_未命名漸層_94-3" data-name="未命名漸層 94" x1="951.29" y1="4820.43" x2="1017.53" y2="4820.43" xlink:href="#_未命名漸層_94"/>
    <linearGradient id="_未命名漸層_94-4" data-name="未命名漸層 94" x1="898.43" y1="4806.19" x2="964.56" y2="4806.19" xlink:href="#_未命名漸層_94"/>
    <linearGradient id="_未命名漸層_469" data-name="未命名漸層 469" x1="149.51" y1="344.14" x2="176.14" y2="326.62" gradientTransform="translate(-13.78 -67.71) rotate(-.79)" gradientUnits="userSpaceOnUse">
      <stop offset="0" stop-color="#cedbf5"/>
      <stop offset=".92" stop-color="#f7ffff"/>
    </linearGradient>
    <linearGradient id="_未命名漸層_469-2" data-name="未命名漸層 469" x1="-2455.75" y1="9489.65" x2="-2429.83" y2="9472.59" gradientTransform="translate(-9211.87 -1970.1) rotate(-91.1)" xlink:href="#_未命名漸層_469"/>
    <linearGradient id="_未命名漸層_469-3" data-name="未命名漸層 469" x1="-11957.35" y1="5682.41" x2="-11931.47" y2="5665.39" gradientTransform="translate(-10246.24 8052.23) rotate(168.65)" xlink:href="#_未命名漸層_469"/>
    <linearGradient id="_未命名漸層_469-4" data-name="未命名漸層 469" x1="-7971.64" y1="-2610.2" x2="-7945.22" y2="-2627.58" gradientTransform="translate(-1330.52 8360.86) rotate(82.23)" xlink:href="#_未命名漸層_469"/>
    <linearGradient id="_未命名漸層_94-5" data-name="未命名漸層 94" x1="809.99" y1="1890.58" x2="879.47" y2="1890.58" gradientTransform="translate(-801.72 -1129.78) rotate(-11.8)" xlink:href="#_未命名漸層_94"/>
    <linearGradient id="_未命名漸層_94-6" data-name="未命名漸層 94" x1="865.88" y1="1902.21" x2="935.25" y2="1902.21" gradientTransform="translate(-801.72 -1129.78) rotate(-11.8)" xlink:href="#_未命名漸層_94"/>
    <linearGradient id="_未命名漸層_94-7" data-name="未命名漸層 94" x1="877.45" y1="1846.37" x2="946.93" y2="1846.37" gradientTransform="translate(-801.72 -1129.78) rotate(-11.8)" xlink:href="#_未命名漸層_94"/>
    <linearGradient id="_未命名漸層_94-8" data-name="未命名漸層 94" x1="821.67" y1="1834.75" x2="891.04" y2="1834.75" gradientTransform="translate(-801.72 -1129.78) rotate(-11.8)" xlink:href="#_未命名漸層_94"/>
    <linearGradient id="_未命名漸層_469-5" data-name="未命名漸層 469" x1="-1825.98" y1="-1872.53" x2="-1798.59" y2="-1890.55" gradientTransform="translate(1022.93 3044.07) rotate(28.45)" xlink:href="#_未命名漸層_469"/>
    <linearGradient id="_未命名漸層_469-6" data-name="未命名漸層 469" x1="-237.11" y1="7527.01" x2="-209.72" y2="7508.99" gradientTransform="translate(-6074.49 -3108.21) rotate(-61.87)" xlink:href="#_未命名漸層_469"/>
    <linearGradient id="_未命名漸層_469-7" data-name="未命名漸層 469" x1="-10418.64" y1="8230.58" x2="-10391.25" y2="8212.57" gradientTransform="translate(-11871.85 5132.4) rotate(-162.12)" xlink:href="#_未命名漸層_469"/>
    <linearGradient id="_未命名漸層_469-8" data-name="未命名漸層 469" x1="-10426.21" y1="-914.9" x2="-10398.82" y2="-932.91" gradientTransform="translate(-4242.47 9756) rotate(111.46)" xlink:href="#_未命名漸層_469"/>
    <linearGradient id="_未命名漸層_94-9" data-name="未命名漸層 94" x1="1012.05" y1="5085.77" x2="1082.94" y2="5085.77" gradientTransform="translate(-3700.41 -2811.25) rotate(-41.42)" xlink:href="#_未命名漸層_94"/>
    <linearGradient id="_未命名漸層_94-10" data-name="未命名漸層 94" x1="1008.78" y1="5110.57" x2="1079.68" y2="5110.57" gradientTransform="translate(-3700.41 -2811.25) rotate(-41.42)" xlink:href="#_未命名漸層_94"/>
    <linearGradient id="_未命名漸層_469-9" data-name="未命名漸層 469" x1="-10763.9" y1="8051.77" x2="-10735.96" y2="8033.39" gradientTransform="translate(-11901.76 5351.83) rotate(-165.3)" xlink:href="#_未命名漸層_469"/>
    <linearGradient id="_未命名漸層_469-10" data-name="未命名漸層 469" x1="-11397.76" y1="197.75" x2="-11369.82" y2="179.36" gradientTransform="translate(-5969.14 9621.18) rotate(125.36)" xlink:href="#_未命名漸層_469"/>
    <linearGradient id="_未命名漸層_94-11" data-name="未命名漸層 94" x1="-6977.41" y1="-2676.43" x2="-6906.52" y2="-2676.43" gradientTransform="translate(-6254.47 -2998.71) rotate(-129.46) scale(1 -1)" xlink:href="#_未命名漸層_94"/>
    <linearGradient id="_未命名漸層_94-12" data-name="未命名漸層 94" x1="-6980.68" y1="-2651.63" x2="-6909.78" y2="-2651.63" gradientTransform="translate(-6254.47 -2998.71) rotate(-129.46) scale(1 -1)" xlink:href="#_未命名漸層_94"/>
    <linearGradient id="_未命名漸層_469-11" data-name="未命名漸層 469" x1="134.15" y1="5746.16" x2="162.09" y2="5727.78" gradientTransform="translate(549.36 6361.09) rotate(-5.58) scale(1 -1)" xlink:href="#_未命名漸層_469"/>
    <linearGradient id="_未命名漸層_469-12" data-name="未命名漸層 469" x1="-5395.54" y1="9581.6" x2="-5367.6" y2="9563.22" gradientTransform="translate(-5984.96 9636.15) rotate(63.76) scale(1 -1)" xlink:href="#_未命名漸層_469"/>
    <linearGradient id="_未命名漸層_94-13" data-name="未命名漸層 94" x1="-6803.12" y1="9874.13" x2="-6707.4" y2="9874.13" gradientTransform="translate(-11819.81 1019.24) rotate(-126.98)" xlink:href="#_未命名漸層_94"/>
    <linearGradient id="_未命名漸層_94-14" data-name="未命名漸層 94" x1="-6807.52" y1="9907.61" x2="-6711.81" y2="9907.61" gradientTransform="translate(-11819.81 1019.24) rotate(-126.98)" xlink:href="#_未命名漸層_94"/>
    <linearGradient id="_未命名漸層_469-13" data-name="未命名漸層 469" x1="-11110.82" y1="-215.43" x2="-11073.09" y2="-240.24" gradientTransform="translate(-5397.77 9961.14) rotate(118.82)" xlink:href="#_未命名漸層_469"/>
    <linearGradient id="_未命名漸層_469-14" data-name="未命名漸層 469" x1="-3790.62" y1="-3001.6" x2="-3752.9" y2="-3026.42" gradientTransform="translate(189.67 5249.04) rotate(49.47)" xlink:href="#_未命名漸層_469"/>
    <linearGradient id="_未命名漸層_94-15" data-name="未命名漸層 94" x1="-400.59" y1="7833.88" x2="-304.88" y2="7833.88" gradientTransform="translate(-6564.23 -3380.57) rotate(-65.87)" xlink:href="#_未命名漸層_94"/>
    <linearGradient id="_未命名漸層_94-16" data-name="未命名漸層 94" x1="-405" y1="7867.35" x2="-309.28" y2="7867.35" gradientTransform="translate(-6564.23 -3380.57) rotate(-65.87)" xlink:href="#_未命名漸層_94"/>
    <linearGradient id="_未命名漸層_469-15" data-name="未命名漸層 469" x1="-11875.47" y1="6460.67" x2="-11837.74" y2="6435.85" gradientTransform="translate(-11290.18 6562.55) rotate(179.92)" xlink:href="#_未命名漸層_469"/>
    <linearGradient id="_未命名漸層_469-16" data-name="未命名漸層 469" x1="-10307.2" y1="-1361.73" x2="-10269.48" y2="-1386.55" gradientTransform="translate(-4464.93 9177.77) rotate(110.58)" xlink:href="#_未命名漸層_469"/>
  </defs>
  <g id="BG">
    <g>
      <path class="cls-36" d="M527.03,461.11c-7.46-2.96-15.55-4.37-23.75-3.96l16.65-16.7s-.03-.05-.04-.07c-3.11-5.28-14.91-.25-26.35,11.22-.61,.61-1.21,1.23-1.79,1.86-.05-11.47-3.65-22.51-9.94-31.76-5.01-23.26-26.81-41.37-52.93-38.82,6.36-6.46,12.06-13.86,16.95-22.12,4.63,2.68,9.83,4.31,15.18,4.74,.85,.45,1.71,.88,2.59,1.29h0c23.3,10.84,48.33,4.81,64.62-10.74,22.22-9.19,36.67-34,29.36-60.15-.99-3.54-2.33-6.85-3.93-9.92,.09-1.6,.12-3.23,.08-4.87h0c-.8-30.88-24.54-53.15-51.7-56.2-5.53-6.62-12.8-11.9-21.43-14.96,1.42,.33,2.86,.65,4.33,.91h0c34.16,6.13,64.75-10.36,80.66-36.27,25.84-19.65,36.17-57.01,17.62-88.63-2.51-4.29-5.4-8.13-8.54-11.6-.44-2.12-.96-4.25-1.58-6.39h0c-11.68-40.04-50.32-60.92-86.82-55.56-13.85-9.84-31.56-14.65-50.61-11.38-32.9,5.64-54.01,32.66-56.3,61.93-11.6,23.28-11.86,52.24,4.23,77.24h0c3.03,4.71,6.43,8.95,10.13,12.73,1.25,6.73,4.01,13.37,8.48,19.49h0c3.28,4.49,7.12,8.17,11.31,11.1-3.56-.68-7.99,2.14-11.19,7.71-39.55,68.75-73.72,141.93-101.93,217.65-36.51-25.21-54.51-69.38-46.89-112.32,4.61,3.41,9.73,6.1,15.18,7.93,15.2,10.02,37.13,11.9,56.32,1.19,28.38-15.85,32.6-49.1,12.71-68.26-1.53-5.15-3.82-10.1-6.88-14.65,1.97,.27,4.03,.46,6.14,.54,16.81,.64,31.14-5.43,32.01-13.56,0-.04,0-.07,0-.11l-22.29-.85c5.97-5.25,10.69-11.74,13.89-18.93,18.68-16.1,22.77-43.25,4.36-61.67-11.57-11.58-27.99-15.66-43.56-13.44-13.3-2.54-27.38-.13-39.13,7.25l4.86-14.25s-.05-.03-.07-.04c-5.3-2.65-13.51,6.69-18.34,20.85-.35,1.03-.67,2.06-.97,3.08-6.03-10.65-15.53-18.84-26.6-23.43-16.59-14.01-44.23-16.42-65.55-1.36-24.78,17.51-26.07,48.06-7.4,65.64,1.25,4.68,3.12,9.21,5.61,13.45l-30.01-11.61s-.04,.06-.06,.1c-4.02,7.49,5.01,18.32,20.19,24.2,.18,.07,.36,.13,.54,.2-5.58,3.87-10.33,8.73-14.06,14.26-20.67,13.18-29.65,38.88-15.8,59.77,8.79,13.26,23.74,19.98,39.22,20.43,16.86,7.2,36.75,5.47,52.13-5.13l-4.93,16.03s.05,.02,.07,.03c5.4,2.32,13.36-7.43,17.78-21.79,.15-.47,.28-.94,.42-1.41,.35,.58,.72,1.16,1.09,1.73-14.33,52.94,6.69,109.61,52.61,140.3,.6,.4,1.22,.74,1.84,1.01-17.01,47.18-31.72,95.28-43.99,143.86-7.69-6.52-17.52-10.86-28.87-11.67-10.48-.75-20.1,1.67-28.24,6.27-12.39-14.38-22.14-30.98-27.87-48.3,2.9-.86,6.56-3.86,10.49-8.44,14.44-4.8,24.93-15.96,29.69-29.22,1.84-1.86,3.61-3.83,5.31-5.92h0c21.87-26.94,22.22-61.7,7.22-88.15-4.72-32.12-32.44-59.21-69.08-58.25-4.98,.13-9.77,.77-14.34,1.86-2.05-.63-4.15-1.2-6.3-1.69h0c-40.7-9.12-77.65,14.62-90.6,49.17-15.3,7.37-28.07,20.55-34.42,38.81-10.95,31.53,2.5,63.07,27.01,79.22,14.78,21.41,40.01,35.62,69.67,33.62h0c5.59-.38,10.95-1.31,16.04-2.72,6.49,2.16,13.64,2.95,21.16,1.99h0c6.4-.82,12.22-2.8,17.35-5.67,6.51,17.67,16.64,34.57,29.24,49.46-26.89-.71-53.15,17.41-58.75,47.34h0c-.3,1.62-.53,3.23-.7,4.82-2.07,2.78-3.91,5.83-5.45,9.17-11.36,24.66-1.02,51.45,19.46,64.04,13.62,17.94,37.37,27.86,62.1,20.85h0c.94-.27,1.86-.56,2.77-.86,6.32,.5,12.71-.69,18.43-3.44-4.97,32.97-8.78,65.96-11.38,98.84h20.9c3.2-40.45,8.33-81.29,15.27-122.17,4.21-3.64,7.67-8.39,9.88-14.19h0c.02-.06,.04-.12,.06-.18,5.39-4.68,10.05-10.51,13.61-17.49h0c7.44-14.54,8.09-30.02,3.76-43.71,32.94-1.92,66.08-12.52,95.47-29.55,3.15,.28,6.33,.29,9.53,.02l-17.21,18.26s.03,.05,.04,.07c3.37,5.01,15.17-.55,26.36-12.42,.18-.19,.35-.38,.52-.57,.38,11.77,4.48,23.04,11.36,32.28,6.3,20.01,25.12,35.55,48.97,34.64,25.49-.97,43.83-20.24,47-42.53,5.05-9.74,7.33-20.91,6.13-32.16,13.83,8.96,28.95,10.17,33.87,2.67,.02-.03,.04-.07,.06-.1l-18.62-12.21c9.41-2,18.17-6.37,25.43-12.57,22.24-7.79,37.74-31.27,32.01-57.26-5.33-24.17-26.41-38.66-48.21-38.73Zm-109.86-253.49c4.12-7.17,4.57-16.39,.92-20.66-.36-.41-.71-.83-1.07-1.24,2.32,1.33,4.73,2.44,7.2,3.34l-.89,.04s0,.06,0,.09c.16,3.42,5.53,6.25,13.95,8,5.39,4.97,11.62,8.42,18.2,10.42-18.81,2.96-33.59,16.36-39.51,33.27-12.73,14.48-18.39,35.19-11.59,56.15h0c2.42,7.45,6.1,13.95,10.67,19.42,.01,.06,.02,.12,.03,.18h0c1.96,9.42,7.26,16.82,14.18,21.69,1,4.27,2.7,8.11,4.92,11.47-.18,.25-.35,.51-.51,.78-22.26,38.21-64.36,55.42-105.89,44.51,25.46-65.35,55.4-128.39,89.38-187.46Zm-148.94,386.15c-.35,0-.71,.02-1.06,.04-.21-.8-.44-1.6-.69-2.39,14.67-61.45,33.32-122.35,55.63-181.48,23.44,6.92,47.18,5.92,68.38-2.01-3.34,6.03-5.43,12.71-6.08,19.6-3.98,7.67-6.25,16.23-6.44,25.01l-13.93-19.09s-.07,.04-.1,.07c-7.29,5.32-5.26,20.53,4.55,33.96,.22,.31,.45,.6,.68,.9-7.71,.75-15.12,3.09-21.81,6.75-23.39,3.48-43.06,23.77-42.19,50.45,.77,23.48,17.09,40.98,37.06,46.18,1.69,1.16,3.44,2.24,5.24,3.21-25.02,12-52.36,18.82-79.22,18.8Z"/>
      <g>
        <path class="cls-37" d="M316.95,391.61c44.87,17.26,92.52,.51,116.72-41.03,2.36-4.03,6.96-5.71,10.62-3.43h0c3.65,2.27,4.68,8.25,1.94,12.96-27.59,47.37-81.94,66.47-133.1,46.79-5.09-1.95-8.02-7.27-6.6-11.32h0c1.42-4.07,6.07-5.63,10.43-3.97Z"/>
        <path class="cls-37" d="M301.8,409.84c-41.56-27.77-59.86-79.83-44.82-127.5,1.45-4.63-.27-9.7-4.3-11.4h0c-4.02-1.7-9.09,1.24-10.79,6.65-17.16,54.36,3.71,113.73,51.11,145.4,4.71,3.15,10.51,2.28,12.58-1.56h0c2.08-3.85,.25-8.88-3.78-11.58Z"/>
        <path class="cls-37" d="M428.71,502.53c-32.11,54.02-97.65,91.28-160.49,91.24-6.1,0-12.5,3.57-14.33,8.47h0c-1.83,4.89,2.42,9.34,9.55,9.34,71.67,.04,146.4-42.44,183.02-104.04,3.65-6.13,2-12.06-3.14-12.98h0c-5.15-.93-11.48,2.74-14.61,7.98Z"/>
        <path class="cls-37" d="M163.46,505.91c10.85,42.85,47.01,82.83,88.55,97.93,4.03,1.47,7.57,5.33,7.84,8.95h0c.27,3.62-3.39,5.49-8.1,3.77-47.37-17.22-88.6-62.82-100.98-111.68-1.24-4.86,.99-8.32,4.57-7.68h0c3.58,.63,7.06,4.54,8.12,8.7Z"/>
        <path class="cls-38" d="M210.82,808.99h20.9c16.3-205.89,82.24-421.95,185.45-601.36,4.12-7.17,4.57-16.39,.92-20.66-.43-.5-.86-.99-1.29-1.49-3.65-4.27-10.17-1.74-14.46,5.74-106.99,185.99-174.62,404.35-191.52,617.78Z"/>
        <g>
          <g>
            <path class="cls-20" d="M308.1,207.39c-.87,8.13,12.06,15.25,28.87,15.89,16.81,.64,31.14-5.43,32.01-13.56,0-.04,0-.07,0-.11l-60.87-2.33s-.01,.07-.01,.11Z"/>
            <path class="cls-20" d="M221.11,304.16c5.4,2.32,13.36-7.43,17.78-21.79,4.42-14.36,3.62-27.88-1.78-30.2-.02-.01-.05-.02-.07-.03l-16,51.99s.05,.02,.07,.03Z"/>
            <path class="cls-20" d="M143.75,174.37c-4.02,7.49,5.01,18.32,20.19,24.2,15.17,5.87,30.74,4.56,34.76-2.93,.02-.03,.03-.07,.05-.1l-54.94-21.27s-.04,.06-.06,.1Z"/>
            <path class="cls-20" d="M287.05,107.66c-5.3-2.65-13.51,6.69-18.34,20.85-4.83,14.16-4.45,27.79,.84,30.44,.02,.01,.05,.02,.07,.03l17.5-51.29s-.05-.03-.07-.04Z"/>
            <g>
              <path class="cls-15" d="M193.01,189.31h0c-42.16,1.75-66.22,48.89-42.9,84.05h0c21.64,32.63,69.68,32.23,90.77-.75h0c23.6-36.91-4.1-85.12-47.88-83.3Z"/>
              <path class="cls-15" d="M231.66,252.75h0c-.24,41.37,44.12,67.73,80.34,47.74h0c38.69-21.35,36.91-77.55-3.05-96.41h0c-35.81-16.9-77.06,9.08-77.29,48.67Z"/>
              <path class="cls-15" d="M313.32,222h0c42.16-1.75,66.22-48.89,42.9-84.05h0c-21.64-32.63-69.68-32.23-90.77,.75h0c-23.6,36.91,4.1,85.12,47.88,83.3Z"/>
              <path class="cls-15" d="M274.67,158.56h0c.24-41.37-44.12-67.73-80.34-47.74h0c-38.69,21.35-36.91,77.55,3.05,96.41h0c35.81,16.9,77.06-9.08,77.29-48.67Z"/>
            </g>
            <g>
              <path class="cls-21" d="M222.92,214.51h0c-21.26,16.77-14.45,50.58,11.64,57.82h0c23.75,6.59,46.1-14.18,41.27-38.34h0c-4.84-24.2-33.53-34.77-52.9-19.48Z"/>
              <path class="cls-11" d="M269.14,239.73h0c16.71,16.92,45.28,11.19,54.18-10.86h0c9.86-24.41-11.38-50-37.19-44.79h0c-25.77,5.2-35.47,36.94-16.99,55.65Z"/>
              <path class="cls-7" d="M283.41,196.8h0c21.26-16.77,14.45-50.58-11.64-57.82h0c-23.75-6.59-46.1,14.18-41.27,38.34h0c4.84,24.2,33.53,34.77,52.9,19.48Z"/>
              <path class="cls-5" d="M237.19,171.58h0c-16.71-16.92-45.28-11.19-54.18,10.86h0c-9.86,24.41,11.38,50,37.19,44.79h0c25.77-5.2,35.47-36.94,16.99-55.65Z"/>
            </g>
            <g>
              <path class="cls-20" d="M242.86,213.64c6.6-2,9.68-10.47,6.88-18.93-2.8-8.46-10.42-13.69-17.02-11.7-.03,0-.06,.02-.09,.03l10.15,30.62s.06-.02,.09-.02Z"/>
              <path class="cls-22" d="M244.76,212.14c6.85,.18,13.07-6.92,13.89-15.87,.82-8.95-4.06-16.35-10.91-16.53-.03,0-.06,0-.09,0l-2.99,32.39s.06,0,.09,0Z"/>
              <path class="cls-22" d="M249.55,213.38c5.21,3.73,14.76,1.02,21.33-6.06,6.57-7.08,7.68-15.84,2.47-19.58-.02-.02-.05-.03-.07-.05l-23.8,25.63s.04,.03,.07,.05Z"/>
              <path class="cls-20" d="M247.29,212.42c6.34,2.06,14.63-3.1,18.52-11.53,3.89-8.42,1.9-16.92-4.44-18.98-.03,0-.06-.02-.08-.03l-14.08,30.51s.06,.02,.08,.03Z"/>
            </g>
          </g>
          <path class="cls-32" d="M151.36,238.71h0c.07-13.03,6.21-24.44,15.6-32.71-31.67,7.73-49.48,40.96-32.34,66.81h0c16.67,25.14,55.49,26.82,78.04,6.63-30.16,7.64-61.47-11.06-61.3-40.73Z"/>
          <path class="cls-1" d="M287.33,292.73h0c-14.69,.68-27.27-4.12-36.17-11.99,7.25,27.72,43.9,41.64,73.85,24.92h0c29.13-16.27,32.82-50.87,11.1-69.76,7.22,26.38-15.32,55.28-48.77,56.83Z"/>
          <path class="cls-27" d="M355.39,164.07h0c2.62,12.7-1.11,24.8-8.72,34.39,29.84-12.69,40.64-47.94,18.28-70.31h0c-21.75-21.76-60.63-17.07-78.83,6.26,28.36-12.35,63.3,.74,69.27,29.66Z"/>
          <path class="cls-29" d="M214.94,115.67h0c14.59-2.19,27.79,1.25,37.71,8.11-10.87-26.61-49.32-36.57-77.06-16.98h0c-26.98,19.06-26.14,53.61-1.96,70.01-10.66-25.3,8.07-56.16,41.3-61.14Z"/>
        </g>
        <g>
          <g>
            <path class="cls-20" d="M486,548.95c-4.95,7.55,2.3,21.07,16.21,30.19,13.9,9.12,29.19,10.39,34.14,2.84,.02-.03,.04-.07,.06-.1l-50.35-33.03s-.05,.06-.07,.1Z"/>
            <path class="cls-20" d="M362.13,600.06c3.37,5.01,15.17-.55,26.36-12.42,11.19-11.87,17.52-25.55,14.15-30.56-.01-.02-.03-.04-.05-.06l-40.51,42.98s.03,.05,.04,.07Z"/>
            <path class="cls-20" d="M363.93,433.52c-7.29,5.32-5.26,20.53,4.55,33.96,9.8,13.43,23.67,20,30.96,14.68,.03-.02,.06-.05,.09-.07l-35.5-48.63s-.07,.04-.1,.07Z"/>
            <path class="cls-20" d="M519.89,440.38c-3.11-5.28-14.91-.26-26.35,11.22-11.44,11.47-18.19,25.05-15.08,30.32,.01,.02,.03,.04,.04,.07l41.42-41.54s-.03-.05-.04-.07Z"/>
            <g>
              <path class="cls-15" d="M401.33,474.91h0c-38.58-20.62-85.01,8.25-83.59,51.97h0c1.43,43.72,49.65,69.5,86.8,46.41h0c37.15-23.1,35.37-77.75-3.21-98.37Z"/>
              <path class="cls-15" d="M395.78,558.54h0c-20.62,38.58,8.25,85.01,51.97,83.59h0c43.72-1.43,69.5-49.65,46.41-86.8h0c-23.1-37.15-77.75-35.37-98.37,3.21Z"/>
              <path class="cls-15" d="M479.41,564.09h0c38.58,20.62,85.01-8.25,83.59-51.97h0c-1.43-43.72-49.65-69.5-86.8-46.41h0c-37.15,23.1-35.37,77.75,3.21,98.37Z"/>
              <path class="cls-15" d="M484.96,480.46h0c20.62-38.58-8.25-85.01-51.97-83.59h0c-43.72,1.43-69.5,49.65-46.41,86.8h0c23.1,37.15,77.75,35.37,98.37-3.21Z"/>
            </g>
            <g>
              <path class="cls-30" d="M404.59,514.12h0c-26.11,5.61-36.36,37.37-18.45,57.18h0c17.91,19.81,50.54,12.8,58.74-12.61h0c8.2-25.41-14.19-50.17-40.3-44.57Z"/>
              <path class="cls-16" d="M434.99,555.28h0c5.61,26.11,37.37,36.36,57.18,18.45h0c19.81-17.91,12.8-50.54-12.61-58.74h0c-25.41-8.2-50.17,14.19-44.57,40.3Z"/>
              <path class="cls-4" d="M476.14,524.88h0c26.11-5.61,36.36-37.37,18.45-57.18h0c-17.91-19.81-50.54-12.8-58.74,12.61h0c-8.2,25.41,14.19,50.17,40.3,44.57Z"/>
              <path class="cls-25" d="M445.75,483.73h0c-5.61-26.11-37.37-36.36-57.18-18.45h0c-19.81,17.91-12.8,50.54,12.61,58.74h0c25.41,8.2,50.17-14.19,44.57-40.3Z"/>
            </g>
            <g>
              <path class="cls-20" d="M427.5,522.14c6.63,1.37,13.63-5.4,15.64-15.12,2.01-9.72-1.73-18.71-8.35-20.08-.03,0-.06-.01-.09-.02l-7.29,35.2s.06,.01,.09,.02Z"/>
              <path class="cls-22" d="M429.89,521.63c5.7,3.64,14.66-.2,19.99-8.57,5.34-8.37,5.04-18.1-.66-21.74-.03-.02-.05-.03-.08-.05l-19.33,30.3s.05,.03,.07,.05Z"/>
              <path class="cls-22" d="M433.3,525.26c2.48,6.3,11.97,8.46,21.21,4.82,9.24-3.63,14.72-11.68,12.24-17.98-.01-.03-.02-.05-.03-.08l-33.45,13.15s.02,.06,.03,.08Z"/>
              <path class="cls-20" d="M431.88,523.18c4.3,5.22,14,4.34,21.66-1.97,7.66-6.31,10.39-15.66,6.09-20.88-.02-.02-.04-.05-.06-.07l-27.75,22.85s.04,.05,.06,.07Z"/>
            </g>
          </g>
          <path class="cls-35" d="M337.01,500.55h0c6.82-12.76,17.93-20.86,30.18-24.25-30.83-8.4-63.15,15.24-62.04,49.28h0c1.08,33.11,33.09,54.36,62.65,45.92-29.51-7.73-46.33-41.9-30.79-70.95Z"/>
          <path class="cls-26" d="M424.14,622.27h0c-12.79-6.75-20.96-17.82-24.41-30.05-8.23,30.88,15.59,63.06,49.62,61.77h0c33.11-1.26,54.18-33.39,45.58-62.9-7.57,29.55-41.65,46.56-70.78,31.18Z"/>
          <path class="cls-6" d="M548.51,530.29h0c-4.37,13.79-13.8,23.8-25.22,29.37,31.85,2.61,59.28-26.56,51.95-59.82h0c-7.13-32.35-42.49-47.38-70.01-33.66,30.43,2.19,53.22,32.7,43.28,64.11Z"/>
          <path class="cls-9" d="M454.66,411.82h0c13.49,5.22,22.89,15.26,27.74,27.01,4.59-31.63-22.8-60.83-56.45-55.59h0c-32.74,5.1-49.94,39.45-37.97,67.77,4.09-30.23,35.96-51.08,66.68-39.19Z"/>
        </g>
        <g>
          <path class="cls-15" d="M463.6,366.79h0c40.47,18.83,86.14-13.22,82.21-57.68h0c-3.93-44.46-54.52-67.99-91.06-42.36h0c-36.54,25.63-31.63,81.21,8.84,100.04Z"/>
          <path class="cls-15" d="M553.74,281.1h0c-1.16-44.62-50.18-71.25-88.25-47.94h0c-38.06,23.31-36.62,79.09,2.61,100.39h0c39.22,21.31,86.8-7.83,85.64-52.45Z"/>
          <path class="cls-13" d="M473.29,335.85h0c20.33-18.14,13.4-51.48-12.47-60.02h0c-25.87-8.54-51.29,14.13-45.75,40.81h0c5.54,26.68,37.88,37.35,58.22,19.21Z"/>
          <path class="cls-34" d="M487.24,356.6h0c20.33-18.14,13.4-51.48-12.47-60.02h0c-25.87-8.54-51.29,14.13-45.75,40.81h0c5.54,26.68,37.88,37.35,58.22,19.21Z"/>
          <path class="cls-33" d="M532.09,328.43h0c-3.67,14.3-12.71,25.03-24.03,31.35,32.6,.85,58.89-30.42,49.54-63.88h0c-9.1-32.56-45.98-45.86-73.23-30.32,31.12,.51,56.08,30.3,47.73,62.86Z"/>
          <path class="cls-15" d="M502.59,317.95h0c29.88-33.16,12.66-86.23-30.99-95.53h0c-43.66-9.3-81.01,32.15-67.23,74.6h0c13.78,42.46,68.34,54.08,98.22,20.92Z"/>
          <path class="cls-28" d="M489.4,242.54h0c12.09,8.48,18.93,20.73,20.86,33.55,12.3-30.2-7.68-65.84-42.3-68.89h0c-33.68-2.97-59.13,26.84-54.21,57.82,11.45-28.94,48.13-41.78,75.65-22.48Z"/>
          <path class="cls-20" d="M483.8,305.26c-3.32-2.85-14.98,5.27-26.03,18.15-11.05,12.88-17.31,25.63-13.99,28.48,.01,.01,.03,.02,.05,.04l40.01-46.63s-.03-.03-.04-.04Z"/>
          <path class="cls-20" d="M446.67,354.5c-.27,4.76,13.25,9.4,30.19,10.36,16.94,.96,30.89-2.13,31.16-6.89,0-.02,0-.04,0-.06l-61.34-3.47s0,.04,0,.06Z"/>
          <path class="cls-20" d="M437.51,342.15c-4.68,.97-11.27-11.71-14.72-28.32s-2.46-30.87,2.22-31.84c.02,0,.04,0,.06-.01l12.5,60.16s-.04,.01-.06,.02Z"/>
        </g>
        <g>
          <path class="cls-15" d="M201,714.45h0c-42.94,12.17-82.96-26.7-72.03-69.98h0c10.93-43.28,64.61-58.49,96.62-27.39h0c32.01,31.1,18.35,85.2-24.59,97.37Z"/>
          <path class="cls-15" d="M125.58,615.56h0c8.22-43.87,60.84-62.4,94.73-33.35h0c33.89,29.05,23.62,83.89-18.48,98.71h0c-42.1,14.82-84.46-21.49-76.24-65.36Z"/>
          <path class="cls-24" d="M196.34,682.37h0c-17.2-21.13-5.07-52.96,21.83-57.29h0c26.9-4.33,48.4,22.08,38.7,47.55h0c-9.7,25.46-43.33,30.87-60.53,9.74Z"/>
          <path class="cls-8" d="M179.27,700.65h0c-17.2-21.13-5.07-52.96,21.83-57.29h0c26.9-4.33,48.4,22.08,38.7,47.55h0c-9.7,25.46-43.33,30.87-60.53,9.74Z"/>
          <path class="cls-14" d="M139.46,665.73h0c1.35,14.7,8.59,26.73,18.76,34.76-32.32-4.33-53.33-39.37-38.79-70.93h0c14.15-30.7,52.66-37.99,77.11-18.33-30.81-4.43-60.17,21.03-57.08,54.5Z"/>
          <path class="cls-15" d="M170.24,660.06h0c-24.25-37.47,1.17-87.14,45.74-89.4h0c44.58-2.26,74.89,44.58,54.55,84.32h0c-20.33,39.74-76.05,42.56-100.3,5.09Z"/>
          <path class="cls-31" d="M195.22,587.69h0c-13.28,6.45-21.98,17.46-25.91,29.82-7.36-31.77,18.02-63.79,52.68-61.32h0c33.72,2.4,54.13,35.87,44.36,65.68-6.72-30.39-40.9-48.88-71.13-34.19Z"/>
          <path class="cls-20" d="M190.8,650.5c3.73-2.29,13.95,7.58,22.82,22.05,8.87,14.47,13.03,28.05,9.3,30.34-.02,.01-.03,.02-.05,.03l-32.11-52.38s.03-.02,.05-.03Z"/>
          <path class="cls-20" d="M219.66,705.01c-.49,4.74-14.57,7.18-31.45,5.44s-30.16-7-29.68-11.74c0-.02,0-.04,0-.06l61.12,6.3s0,.04,0,.06Z"/>
          <path class="cls-20" d="M230.66,694.26c4.47,1.7,12.98-9.77,19.03-25.63,6.04-15.86,7.32-30.09,2.85-31.79-.02,0-.04-.01-.06-.02l-21.87,57.41s.04,.02,.06,.03Z"/>
        </g>
        <g>
          <path class="cls-15" d="M211.37,470.58h0c37.98-46.79,11.06-117.14-48.44-126.63h0c-59.51-9.49-106.98,48.99-85.45,105.27h0c21.53,56.28,95.91,68.15,133.89,21.36Z"/>
          <path class="cls-15" d="M128.87,324.35h0c-58.8-13.18-109.82,42.24-91.83,99.75h0c17.99,57.51,91.49,73.98,132.3,29.65h0c40.81-44.34,18.33-116.23-40.48-129.4Z"/>
          <path class="cls-3" d="M169.69,448.09h0c-22.29-29.27-67.9-23.43-82.1,10.5h0c-14.2,33.93,13.66,70.52,50.14,65.85h0c36.49-4.67,54.24-47.08,31.95-76.35Z"/>
          <path class="cls-2" d="M199.08,431.48h0c-22.29-29.27-67.9-23.43-82.1,10.5h0c-14.2,33.93,13.66,70.52,50.14,65.85h0c36.49-4.67,54.24-47.08,31.95-76.35Z"/>
          <path class="cls-18" d="M183.7,368.29h0c17.51,9.51,28.58,24.89,33.13,41.79,11.85-42.4-20.43-87.12-67.33-85.9h0c-45.63,1.19-75.18,45.1-63.82,85.89,10.91-40.58,58.13-63.44,98.01-41.79Z"/>
          <path class="cls-15" d="M160.28,403.45h0c-33.57-50.04-108.73-44.97-135.28,9.13h0c-26.55,54.1,15.42,116.65,75.54,112.59h0c60.12-4.06,93.31-71.68,59.74-121.72Z"/>
          <path class="cls-19" d="M57.19,395.89h0c15.08-13.03,33.37-17.96,50.79-16.26-35.49-26.05-88.73-11.62-104.13,32.7h0c-14.98,43.11,15.67,86.26,57.86,90.02-34.12-24.53-38.85-76.78-4.52-106.45Z"/>
          <path class="cls-20" d="M122.64,436.96c-4.69,2.46,.11,20.9,10.73,41.2,10.62,20.3,23.03,34.76,27.72,32.31,.02-.01,.04-.02,.06-.04l-38.45-73.5s-.04,.02-.06,.03Z"/>
          <path class="cls-20" d="M162.64,514.06c5.79,2.85,18.69-11.49,28.81-32.04,10.13-20.55,13.65-39.52,7.86-42.37-.03-.01-.05-.02-.08-.03l-36.67,74.4s.05,.03,.07,.04Z"/>
          <path class="cls-20" d="M158.56,513.31c-1.37,6.13-20.61,7.04-42.96,2.03-22.35-5.01-39.36-14.04-37.99-20.17,0-.03,.02-.05,.02-.08l80.94,18.14s0,.05-.01,.08Z"/>
        </g>
        <g>
          <path class="cls-15" d="M484.94,210.85h0c59.31,10.64,107.9-46.91,87.46-103.6h0c-20.44-56.69-94.58-69.99-133.45-23.95h0c-38.87,46.04-13.32,116.9,45.99,127.55Z"/>
          <path class="cls-15" d="M573.1,67.96h0c-16.87-57.85-90.04-75.74-131.71-32.2h0c-41.66,43.54-20.57,115.85,37.97,130.16h0c58.54,14.31,110.61-40.11,93.74-97.96Z"/>
          <path class="cls-23" d="M484.49,163.49h0c14.85-33.65-12.29-70.77-48.86-66.8h0c-36.57,3.96-55.14,46.03-33.42,75.72h0c21.72,29.69,67.43,24.74,82.29-8.91Z"/>
          <path class="cls-17" d="M513.24,181.2h0c14.85-33.65-12.29-70.77-48.86-66.8h0c-36.57,3.96-55.14,46.03-33.42,75.72h0c21.72,29.69,67.43,24.74,82.29-8.91Z"/>
          <path class="cls-10" d="M561.13,137.2h0c.14,19.93-7.98,37.05-20.58,49.2,42.85-10.11,66.41-59.98,42.67-100.45h0c-23.09-39.37-75.81-44.03-106.04-14.37,40.8-10.05,83.63,20.24,83.94,65.62Z"/>
          <path class="cls-15" d="M519.03,133.68h0c27.59-53.57-13.16-116.92-73.35-114.03h0c-60.19,2.89-94.68,69.86-62.08,120.54h0c32.6,50.68,107.84,47.06,135.43-6.51Z"/>
          <path class="cls-12" d="M475.84,39.77h0c18.69,6.9,31.85,20.54,38.78,36.61,5.66-43.66-32.7-83.3-78.94-75.37h0c-44.98,7.72-67.95,55.4-50.86,94.15,4.99-41.72,48.45-71.11,91.02-55.39Z"/>
          <path class="cls-20" d="M471.5,116.92c-4.42-2.92-18.24,10.2-30.88,29.3-12.64,19.1-19.31,36.96-14.89,39.88,.02,.01,.04,.02,.06,.04l45.77-69.18s-.04-.03-.06-.04Z"/>
          <path class="cls-20" d="M423.32,189.19c.3,6.44,19.09,10.81,41.97,9.74,22.88-1.06,41.19-7.15,40.89-13.59,0-.03,0-.06,0-.08l-82.86,3.84s0,.06,0,.09Z"/>
          <path class="cls-20" d="M422.01,185.25c-6.03,1.76-16.12-14.64-22.54-36.63-6.41-21.99-6.72-41.24-.69-43,.03,0,.05-.01,.08-.02l23.23,79.63s-.05,.02-.08,.03Z"/>
        </g>
      </g>
    </g>
  </g>
</svg>