<?xml version="1.0" encoding="UTF-8"?>
<svg xmlns="http://www.w3.org/2000/svg" xmlns:xlink="http://www.w3.org/1999/xlink" viewBox="0 0 710.22 826.38">
  <defs>
    <style>
      .cls-1, .cls-2 {
        fill: #fff;
      }

      .cls-3 {
        fill: #eaefeb;
      }

      .cls-4 {
        fill: #a5d09f;
      }

      .cls-5 {
        isolation: isolate;
      }

      .cls-2, .cls-6 {
        opacity: .5;
      }

      .cls-7 {
        fill: url(#_未命名漸層_577);
      }

      .cls-8 {
        fill: #779a83;
      }

      .cls-9 {
        fill: #768672;
      }

      .cls-10 {
        fill: url(#_未命名漸層_477-3);
      }

      .cls-11 {
        fill: url(#_未命名漸層_477);
      }

      .cls-12 {
        fill: #c3d186;
      }

      .cls-12, .cls-13 {
        mix-blend-mode: multiply;
      }

      .cls-14 {
        fill: url(#_未命名漸層_577-2);
      }

      .cls-13 {
        fill: #ffe772;
      }

      .cls-15 {
        fill: url(#_未命名漸層_576);
      }

      .cls-16 {
        fill: url(#_未命名漸層_477-2);
      }

      .cls-6 {
        fill: #a07635;
      }

      .cls-17 {
        fill: #427251;
      }

      .cls-18 {
        fill: url(#_未命名漸層_469);
      }
    </style>
    <linearGradient id="_未命名漸層_469" data-name="未命名漸層 469" x1="-1050.31" y1="1159.74" x2="-1050.31" y2="730.45" gradientTransform="translate(1692.67 -161.51) rotate(21.05)" gradientUnits="userSpaceOnUse">
      <stop offset="0" stop-color="#cedbf5"/>
      <stop offset=".92" stop-color="#f7ffff"/>
    </linearGradient>
    <linearGradient id="_未命名漸層_477" data-name="未命名漸層 477" x1="330.28" y1="453.95" x2="435.25" y2="453.95" gradientTransform="translate(-171.93 242.07) rotate(-28.96)" gradientUnits="userSpaceOnUse">
      <stop offset="0" stop-color="#fff" stop-opacity="0"/>
      <stop offset=".5" stop-color="#fcffff" stop-opacity=".19"/>
      <stop offset=".92" stop-color="#f7ffff"/>
    </linearGradient>
    <linearGradient id="_未命名漸層_477-2" data-name="未命名漸層 477" x1="352.6" y1="397.8" x2="416.48" y2="397.8" gradientTransform="translate(-118.45 167.33) rotate(-21.35)" xlink:href="#_未命名漸層_477"/>
    <linearGradient id="_未命名漸層_477-3" data-name="未命名漸層 477" x1="319.28" y1="440.17" x2="373.7" y2="440.17" gradientTransform="translate(-96.12 96.8) rotate(-13.99)" xlink:href="#_未命名漸層_477"/>
    <radialGradient id="_未命名漸層_576" data-name="未命名漸層 576" cx="-1281.03" cy="-462.68" fx="-1281.03" fy="-462.68" r="84.5" gradientTransform="translate(95.12 1502.6) rotate(90) scale(1 .7)" gradientUnits="userSpaceOnUse">
      <stop offset="0" stop-color="#c8ddff"/>
      <stop offset=".12" stop-color="#cee1ff"/>
      <stop offset=".4" stop-color="#dce9ff"/>
      <stop offset=".73" stop-color="#e7f0ff"/>
      <stop offset="1" stop-color="#fff"/>
    </radialGradient>
    <linearGradient id="_未命名漸層_577" data-name="未命名漸層 577" x1="-1025.93" y1="-2808.8" x2="-876.13" y2="-2808.8" gradientTransform="translate(691.74 1862.62) rotate(3.79) scale(.99 .57) skewX(-6.62)" gradientUnits="userSpaceOnUse">
      <stop offset="0" stop-color="#c8ebfa"/>
      <stop offset=".92" stop-color="#f7ffff"/>
    </linearGradient>
    <linearGradient id="_未命名漸層_577-2" data-name="未命名漸層 577" x1="-1682.65" y1="-2308.07" x2="-1570.84" y2="-2308.07" gradientTransform="translate(1181.72 1807.16) rotate(14.54) scale(.99 .57) skewX(-6.62)" xlink:href="#_未命名漸層_577"/>
  </defs>
  <g class="cls-5">
    <g id="_圖層_2" data-name="圖層 2">
      <g id="BG">
        <g>
          <path class="cls-3" d="M350.82,168.49c5.43,2.91,10.6,6.52,13.7,8.72,14.75,10.46,28.75,25.41,42.37,39.09,38.56,38.71,57.92,104.78,43.99,150.16,0,0-33.69,109.79-33.7,109.82-2.12,6.9-8.92,8.33-14.95,5.08-15.85-8.53-15.34-34.31-16.56-50.04-1.61-20.8-3.23-41.59-4.84-62.39-1.59-20.46-3.17-40.93-4.76-61.39-1.42-18.35-7.51-37.64-17.2-54.5,0,0-18.48-32.16-18.52-32.23-6.54-11.39-13.52-26.43-14.81-39.41-2-20.01,13.71-19.12,25.28-12.92Z"/>
          <g>
            <path class="cls-9" d="M335.26,700.24s158.26-115.85,216.5-146.43c0,0-135.87,50.39-216.5,146.43Z"/>
            <path class="cls-17" d="M335.26,700.24s41.24-131.44,216.5-146.43c0,0-139.24,52.94-216.5,146.43Z"/>
            <path class="cls-4" d="M0,571.92s259.25,173.61,327.79,237.52c0,0-113.16-149.19-327.79-237.52Z"/>
            <path class="cls-8" d="M0,571.92s293.34,44.94,327.79,237.52c0,0-118.87-152.88-327.79-237.52Z"/>
            <path class="cls-17" d="M320.19,536.64h16.31c2.47,0,4.47,2,4.47,4.47v285.27h-25.24v-285.27c0-2.47,2-4.47,4.47-4.47Z"/>
          </g>
          <g>
            <path class="cls-18" d="M352.07,348.49c-6.5,60.77-20.33,121.02-37.14,179.45-1.28,4.44-2.57,9.01-2.17,13.62,1.13,13.01,17.51,17.13,27.05,10.1,5.41-3.98,8.8-10.05,12.03-15.94,14.88-27.08,29.76-54.16,44.64-81.24,14.35-26.12,27.46-53.43,45.06-77.39,36.83-50.11,73.73-100.17,110.6-150.26,7.9-10.74,17.35-21.4,23.91-32.93-6.27-3.55-14.86-4.96-21.72-8.33-9.05-4.43-18.21-8.62-27.47-12.58-19.07-8.15-38.56-15.31-58.37-21.43-38.49-11.9-78.19-19.89-118.3-23.76-15.26-1.47-44.4-.42-46.56,19.46-1.3,11.94,25.1,46.04,29.94,59.21,14.76,40.12,23.54,87.98,19.6,130.85-.34,3.72-.71,7.44-1.11,11.16Z"/>
            <rect class="cls-11" x="380.36" y="349.26" width="4.8" height="209.38" rx=".85" ry=".85" transform="translate(267.64 -128.56) rotate(28.96)"/>
            <rect class="cls-16" x="382.45" y="314.85" width="4.18" height="165.9" rx=".7" ry=".7" transform="translate(171.24 -112.71) rotate(21.35)"/>
            <rect class="cls-10" x="344.36" y="335.48" width="4.26" height="209.38" rx=".75" ry=".75" transform="translate(116.67 -70.7) rotate(13.99)"/>
          </g>
          <path class="cls-3" d="M402.28,239.74c-5.25-2.82-10.98-5.1-14.45-6.45-16.47-6.43-36.43-10.06-55.09-14.03-52.84-11.22-119.44,5.99-151.38,39.12-25.58,26.54-45.61,52.64-52.79,81.57-1.08,4.33-1.77,8.77,.2,12.67,1.97,3.89,7.1,7.17,14.24,7.47,9.59,.4,19.07-4.36,26.55-8.93,17.29-10.57,29.79-23.16,45.91-34.25,16.76-11.53,34.6-19.32,54.49-28.81,16.5-7.88,36.16-12.56,55.57-13.23,0,0,37.02-1.28,37.1-1.29,13.11-.46,29.58-2.37,41.39-7.71,18.21-8.24,9.48-20.1-1.73-26.13Z"/>
          <path class="cls-3" d="M367.12,259.55c4.96-6.22,10.45-11.59,13.78-14.8,15.8-15.26,35.34-26.5,53.56-38,51.58-32.56,119.63-18.91,154.66,31.03,0,0,84.76,120.81,84.78,120.85,5.33,7.59,3.7,18.65-1.84,25.55-14.53,18.13-37.61,.79-52.36-7.5-19.49-10.97-38.99-21.95-58.48-32.92-19.18-10.8-38.36-21.59-57.54-32.39-17.2-9.68-37.26-13.02-56.67-9.42,0,0-37.02,6.86-37.1,6.87-13.11,2.43-29.71,3.14-42-3.27-18.95-9.89-11.39-32.72-.8-45.99Z"/>
          <path class="cls-2" d="M350.82,168.49c5.43,2.91,10.6,6.52,13.7,8.72,14.75,10.46,28.75,25.41,42.37,39.09,38.56,38.71,57.92,104.78,43.99,150.16,0,0-33.69,109.79-33.7,109.82-2.12,6.9-8.92,8.33-14.95,5.08-15.85-8.53-15.34-34.31-16.56-50.04-1.61-20.8-3.23-41.59-4.84-62.39-1.59-20.46-3.17-40.93-4.76-61.39-1.42-18.35-7.51-37.64-17.2-54.5,0,0-18.48-32.16-18.52-32.23-6.54-11.39-13.52-26.43-14.81-39.41-2-20.01,13.71-19.12,25.28-12.92Z"/>
          <path class="cls-3" d="M317.94,224.46c-8.72-6.01-16.33-13.16-24.09-19.99-26.86-23.64-56.81-44.83-89.12-63.1-17.05-9.59-35.19-17.45-52.59-26.48-17.52-9.1-38.41-14.94-57.53-21.77-7.12-2.54-15.27-6.2-16.1-12.62-.58-4.53,3.06-8.87,7.74-11.22,4.68-2.36,10.23-3.12,15.65-3.72,34.59-3.84,69.9-3.02,104.19,2.38,30.12,4.75,61.2,7.39,86.12,23.88,34.71,22.98,63.06,52.1,84.45,84.41,11,16.63,5.94,37.46-12.14,49.01-10.89,6.96-26.24,10.91-38.24,4.37-2.9-1.58-5.67-3.31-8.33-5.15Z"/>
          <path class="cls-3" d="M447.91,202.35c21.49-22.73,50.04-43.44,84.85-59.4,23.38-10.72,42.65-16.21,72.23-17.07,28.82-.85,57.96,2.07,84.65,8.61,5.01,1.23,10.05,2.62,13.84,4.92,3.79,2.3,6.14,5.68,4.7,8.78-1.51,3.24-6.57,5.38-11.28,7.24-58.25,23-113.77,44.86-163.91,74.28-13.26,7.78-22,15.15-42.14,15.35-15.2,.15-29.93-4.04-39.18-11.22-11.74-9.11-13.22-21.48-3.76-31.48Z"/>
          <path class="cls-3" d="M361.81,187.03c-9.42-38.78-12.71-78.86-7.57-116.81,2.59-19.12,3.29-48.8,16.3-63,11.36-12.39,34.34-6.17,49.39-.94,21.7,7.54,30.64,14.04,34.93,37.75,9.82,54.25,6.7,107.67-9.32,157.3-6.47,20.03-26.93,30.16-48.28,23.64-17.2-5.24-31.13-20.15-35.45-37.94Z"/>
          <g>
            <path class="cls-1" d="M384.83,227.87c-2.12-7.67-5.06-14.77-6.85-19.03-8.54-20.24-22.09-38.25-34.32-55.98-34.64-50.2-102.59-64.38-154.42-32.23-41.51,25.75-78.14,54.26-106.42,95.12-4.24,6.12-8.24,12.65-9.64,19.96-1.4,7.31,.27,15.61,5.89,20.49,7.56,6.56,19.01,4.95,28.69,2.41,22.36-5.87,42.35-17.86,64.15-25.28,22.67-7.71,43.32-8.88,66.98-11.47,19.62-2.15,39.38,2.66,55.81,13.59,0,0,31.35,20.85,31.42,20.89,11.1,7.38,26.09,14.56,39.91,13.49,21.31-1.66,23.33-25.62,18.8-41.97Z"/>
            <path class="cls-1" d="M356.63,231.02c7.02-3.75,14.18-6.52,18.5-8.16,20.54-7.78,42.94-10.39,64.21-13.75,60.25-9.54,117.37,29.89,129.83,89.6,0,0,30.14,144.47,30.15,144.51,1.89,9.08-3.97,18.59-11.78,22.75-20.51,10.92-34.87-14.13-45.13-27.57-13.57-17.78-27.15-35.56-40.72-53.34-13.36-17.5-26.71-34.99-40.07-52.49-11.98-15.69-29.08-26.68-48.34-31.04,0,0-36.72-8.33-36.8-8.34-13-2.95-28.54-8.85-37.29-19.6-13.5-16.57,2.46-34.56,17.43-42.56Z"/>
            <path class="cls-1" d="M368.27,212.75c-7-8.14-12.64-17.16-18.51-25.9-20.3-30.25-44.21-58.75-71.12-84.86-14.22-13.72-29.92-25.95-44.61-39.19-14.79-13.33-33.66-24.17-50.57-35.59-6.29-4.25-13.32-9.87-12.55-16.56,.55-4.72,5.15-8.25,10.27-9.53,5.12-1.28,10.71-.74,16.12-.07,34.55,4.27,68.67,13.42,100.67,26.97,28.1,11.9,57.67,21.9,77.83,44.46,28.1,31.44,48.5,67.58,61.35,105.31,6.61,19.42-3.42,39.3-23.82,46.73-12.29,4.47-28.18,4.86-38.23-4.59-2.43-2.29-4.7-4.69-6.83-7.17Z"/>
            <path class="cls-1" d="M441.36,208.6c39.99-18.08,83.65-29.26,127.61-30.27,29.53-.68,50.52,3.3,75.21,19.65,24.06,15.93,44.62,37.16,59.6,61.84,2.81,4.63,5.48,9.51,6.24,14.87,.77,5.36-.72,11.34-4.97,14.69-4.45,3.5-10.65,3.4-16.31,3.13-69.87-3.34-136.4-6.59-206.14,3.59-18.44,2.69-32.84,7.5-49.26-4.15-12.4-8.8-20.07-23.22-20.36-38.43-.37-19.31,10.78-36.97,28.38-44.92Z"/>
            <path class="cls-1" d="M390.71,174.59c-42.71,12.61-163.28,64.69-179.31,253.31-2.09,24.55,28.83,37.09,44.65,18.2,49.12-58.66,131.47-141.59,213.46-154.94,20.26-3.3,28.09-28.33,13.57-42.84l-67.4-67.34c-6.54-6.53-16.11-9.02-24.98-6.4Z"/>
            <path class="cls-1" d="M386.3,191.04c13.55-38.8,33.89-75.85,61.24-107,13.78-15.7,31.92-41.64,53.04-48.02,18.43-5.57,37.34,10.85,49.05,22.63,16.87,16.98,21.83,26.98,12.1,50.01-22.26,52.68-56.73,98.5-101.63,134.82-18.13,14.66-44.17,13.9-61.31-2.01-13.8-12.81-18.72-32.63-12.5-50.43Z"/>
          </g>
          <ellipse class="cls-15" cx="419.98" cy="221.57" rx="51.21" ry="94.66" transform="translate(41.74 508.64) rotate(-65.01)"/>
          <path class="cls-13" d="M402.45,234.93c44.13-24.3,67-75,56-124.17-1.06-4.77,1.11-9.72,5.3-11.08h0c4.18-1.36,9.02,2.03,10.26,7.61,12.54,56.07-13.53,113.89-63.86,141.6-5.01,2.76-10.75,1.38-12.5-2.65h0c-1.76-4.04,.52-8.94,4.8-11.31Z"/>
          <path class="cls-12" d="M400.98,237.57c31.01-39.71,32.09-95.32,2.63-136.19-2.85-3.97-2.81-9.37,.51-12.27h0c3.31-2.9,9.09-1.68,12.43,2.96,33.59,46.61,32.36,110.02-3,155.3-3.51,4.51-9.34,5.5-12.53,2.48h0c-3.21-3.03-3.04-8.42-.04-12.28Z"/>
          <path class="cls-12" d="M395.4,243.97c3.67-41.27-22.38-70.42-63.8-71.4-4.02-.1-6.59-2.89-5.55-6.62h0c1.04-3.72,5.88-7.01,10.58-6.89,47.24,1.11,76.94,34.35,72.75,81.42-.41,4.68-4.22,9.13-8.04,9.74h0c-3.82,.62-6.3-2.25-5.96-6.25Z"/>
          <path class="cls-13" d="M398.35,241.43c18.65-40.86,4.65-84.49-34.29-106.87-3.77-2.18-5.19-6.4-2.83-9.72h0c2.35-3.31,8.16-4.22,12.57-1.68,44.4,25.52,60.37,75.29,39.1,121.88-2.11,4.64-7.36,7.28-11.2,5.95h0c-3.85-1.33-5.15-5.58-3.35-9.55Z"/>
          <path class="cls-12" d="M413.5,245.43c37.16-13.52,62.19-50.14,61.3-89.68-.08-3.84,2.31-7.42,5.7-7.97h0c3.38-.55,6.53,2.67,6.63,7.16,1.01,45.08-27.53,86.84-69.91,102.26-4.22,1.54-8.36-.23-9.08-3.58h0c-.72-3.35,1.75-6.88,5.35-8.2Z"/>
          <path class="cls-13" d="M407.64,241.86c41.49,4.12,80.55-19.85,95.65-58.72,1.47-3.77,5.24-6.14,8.74-5.1h0c3.5,1.04,5.26,5.64,3.54,10.05-17.22,44.32-61.76,71.67-109.08,66.96-4.71-.46-8.02-4.12-7.36-7.7h0c.66-3.6,4.48-5.88,8.5-5.49Z"/>
          <path class="cls-13" d="M448.85,86.9c-1.92-8.86-21.05-12.25-42.73-7.57-21.69,4.69-37.71,15.67-35.8,24.53,0,.04,.02,.08,.03,.12l78.52-16.97s-.01-.08-.02-.12Z"/>
          <path class="cls-6" d="M346.76,148.15c-4.72-3.03-14.56,3.89-21.97,15.44-7.41,11.56-9.59,23.38-4.86,26.41,.02,.01,.04,.03,.06,.04l26.83-41.85s-.04-.03-.06-.04Z"/>
          <path class="cls-6" d="M507.04,155.54c.72-5.57-9.74-11.5-23.36-13.25-13.62-1.75-25.24,1.34-25.95,6.91,0,.02,0,.05,0,.07l49.31,6.34s0-.05,.01-.07Z"/>
          <path class="cls-6" d="M388.48,115.51c-2.76-4.89-14.69-3.38-26.64,3.36-11.96,6.74-19.42,16.17-16.66,21.06,.01,.02,.03,.04,.04,.06l43.3-24.42s-.02-.04-.03-.07Z"/>
          <path class="cls-6" d="M533.31,180.18c-.54-5.59-12.06-9.04-25.72-7.72-13.67,1.32-24.3,6.93-23.76,12.51,0,.02,0,.05,0,.07l49.48-4.8s0-.05,0-.07Z"/>
          <path class="cls-6" d="M489.55,103.96c0-5.61-11.13-10.16-24.86-10.16s-24.86,4.55-24.86,10.16c0,.02,0,.05,0,.07h49.71s0-.05,0-.07Z"/>
          <path class="cls-6" d="M407.29,152.94c-2.86-4.83-14.76-3.06-26.56,3.95-11.81,7.01-19.06,16.6-16.19,21.42,.01,.02,.03,.04,.04,.06l42.75-25.37s-.02-.04-.04-.06Z"/>
          <g>
            <path class="cls-7" d="M98.72,239.35s42.06-49.45,163.45-47.36c0,0-100.77,14.36-163.45,47.36Z"/>
            <path class="cls-14" d="M147.98,195.12s37.72-30.4,126.45-11.98c0,0-75.89-3.49-126.45,11.98Z"/>
          </g>
        </g>
      </g>
    </g>
  </g>
</svg>