<?xml version="1.0" encoding="UTF-8"?>
<svg id="_圖層_2" data-name="圖層 2" xmlns="http://www.w3.org/2000/svg" xmlns:xlink="http://www.w3.org/1999/xlink" viewBox="0 0 155.92 214.97">
  <defs>
    <style>
      .cls-1 {
        fill: url(#_未命名漸層_469-2);
      }

      .cls-1, .cls-2, .cls-3, .cls-4, .cls-5, .cls-6, .cls-7, .cls-8, .cls-9, .cls-10, .cls-11, .cls-12, .cls-13, .cls-14, .cls-15, .cls-16, .cls-17, .cls-18 {
        opacity: .5;
      }

      .cls-2 {
        fill: url(#_未命名漸層_94-7);
      }

      .cls-3 {
        fill: url(#_未命名漸層_94-4);
      }

      .cls-4 {
        fill: url(#_未命名漸層_469-7);
      }

      .cls-5 {
        fill: url(#_未命名漸層_94-3);
      }

      .cls-6 {
        fill: url(#_未命名漸層_469-8);
      }

      .cls-7 {
        fill: url(#_未命名漸層_94-2);
      }

      .cls-8 {
        fill: #fff;
      }

      .cls-9 {
        fill: url(#_未命名漸層_94-6);
      }

      .cls-19 {
        fill: #768672;
      }

      .cls-10 {
        fill: #836e57;
      }

      .cls-11 {
        fill: url(#_未命名漸層_94);
      }

      .cls-12 {
        fill: url(#_未命名漸層_94-8);
      }

      .cls-13 {
        fill: url(#_未命名漸層_469-6);
      }

      .cls-14 {
        fill: url(#_未命名漸層_469-3);
      }

      .cls-15 {
        fill: url(#_未命名漸層_469-4);
      }

      .cls-16 {
        fill: url(#_未命名漸層_94-5);
      }

      .cls-20 {
        fill: #427251;
      }

      .cls-17 {
        fill: url(#_未命名漸層_469);
      }

      .cls-18 {
        fill: url(#_未命名漸層_469-5);
      }
    </style>
    <linearGradient id="_未命名漸層_94" data-name="未命名漸層 94" x1="-1558.22" y1="1598.66" x2="-1538.92" y2="1598.66" gradientTransform="translate(223.58 -2141.8) rotate(-41.42)" gradientUnits="userSpaceOnUse">
      <stop offset="0" stop-color="#fff" stop-opacity="0"/>
      <stop offset=".37" stop-color="#faffd0" stop-opacity=".54"/>
      <stop offset=".92" stop-color="#f7ffaf"/>
    </linearGradient>
    <linearGradient id="_未命名漸層_94-2" data-name="未命名漸層 94" x1="-1559.09" y1="1605.28" x2="-1539.79" y2="1605.28" xlink:href="#_未命名漸層_94"/>
    <linearGradient id="_未命名漸層_469" data-name="未命名漸層 469" x1="-5947.15" y1="-2114.2" x2="-5939.69" y2="-2119.11" gradientTransform="translate(-5068.48 -3476.33) rotate(-165.3)" gradientUnits="userSpaceOnUse">
      <stop offset="0" stop-color="#cedbf5"/>
      <stop offset=".92" stop-color="#f7ffff"/>
    </linearGradient>
    <linearGradient id="_未命名漸層_469-2" data-name="未命名漸層 469" x1="-2873.21" y1="-4775.88" x2="-2865.75" y2="-4780.79" gradientTransform="translate(-5433.47 -365.04) rotate(125.36)" xlink:href="#_未命名漸層_469"/>
    <linearGradient id="_未命名漸層_94-3" data-name="未命名漸層 94" x1="-5564.34" y1="-2429.07" x2="-5545.04" y2="-2429.07" gradientTransform="translate(-5345.77 -2569.75) rotate(-129.46) scale(1 -1)" xlink:href="#_未命名漸層_94"/>
    <linearGradient id="_未命名漸層_94-4" data-name="未命名漸層 94" x1="-5565.21" y1="-2422.45" x2="-5545.91" y2="-2422.45" gradientTransform="translate(-5345.77 -2569.75) rotate(-129.46) scale(1 -1)" xlink:href="#_未命名漸層_94"/>
    <linearGradient id="_未命名漸層_469-3" data-name="未命名漸層 469" x1="-370.04" y1="-3194.72" x2="-362.58" y2="-3199.62" gradientTransform="translate(90.92 -3048.62) rotate(-5.58) scale(1 -1)" xlink:href="#_未命名漸層_469"/>
    <linearGradient id="_未命名漸層_469-4" data-name="未命名漸層 469" x1="105.45" y1="61.39" x2="112.91" y2="56.48" gradientTransform="translate(-41.84 81.2) rotate(63.76) scale(1 -1)" xlink:href="#_未命名漸層_469"/>
    <linearGradient id="_未命名漸層_94-5" data-name="未命名漸層 94" x1="-5748.59" y1="-41.65" x2="-5722.54" y2="-41.65" gradientTransform="translate(-3381.46 -4480.74) rotate(-126.98)" xlink:href="#_未命名漸層_94"/>
    <linearGradient id="_未命名漸層_94-6" data-name="未命名漸層 94" x1="-5749.77" y1="-32.71" x2="-5723.72" y2="-32.71" gradientTransform="translate(-3381.46 -4480.74) rotate(-126.98)" xlink:href="#_未命名漸層_94"/>
    <linearGradient id="_未命名漸層_469-5" data-name="未命名漸層 469" x1="-2798.6" y1="-4704.31" x2="-2788.53" y2="-4710.94" gradientTransform="translate(-5431.63 271.67) rotate(118.82)" xlink:href="#_未命名漸層_469"/>
    <linearGradient id="_未命名漸層_469-6" data-name="未命名漸層 469" x1="659.55" y1="-2732.39" x2="669.63" y2="-2739.01" gradientTransform="translate(-2503.33 1384.51) rotate(49.47)" xlink:href="#_未命名漸層_469"/>
    <linearGradient id="_未命名漸層_94-7" data-name="未命名漸層 94" x1="-3149.59" y1="2025.15" x2="-3123.54" y2="2025.15" gradientTransform="translate(-450.57 -3651.98) rotate(-65.87)" xlink:href="#_未命名漸層_94"/>
    <linearGradient id="_未命名漸層_94-8" data-name="未命名漸層 94" x1="-3150.76" y1="2034.08" x2="-3124.71" y2="2034.08" gradientTransform="translate(-450.57 -3651.98) rotate(-65.87)" xlink:href="#_未命名漸層_94"/>
    <linearGradient id="_未命名漸層_469-7" data-name="未命名漸層 469" x1="-5749.39" y1="-3181.41" x2="-5739.32" y2="-3188.03" gradientTransform="translate(-5602.02 -3150.75) rotate(179.92)" xlink:href="#_未命名漸層_469"/>
    <linearGradient id="_未命名漸層_469-8" data-name="未命名漸層 469" x1="-1806.48" y1="-4956.15" x2="-1796.41" y2="-4962.78" gradientTransform="translate(-5161.47 -49.24) rotate(110.58)" xlink:href="#_未命名漸層_469"/>
  </defs>
  <g id="_花" data-name="花">
    <g>
      <path class="cls-19" d="M84.63,103.53c11.98,4.61,24.7,.14,31.16-10.95,.63-1.07,1.86-1.53,2.83-.92h0c.97,.61,1.25,2.2,.52,3.46-7.37,12.65-21.88,17.75-35.54,12.49-1.36-.52-2.14-1.94-1.76-3.02h0c.38-1.09,1.62-1.5,2.78-1.06Z"/>
      <path class="cls-19" d="M80.58,108.4c-11.1-7.41-15.98-21.31-11.97-34.04,.39-1.24-.07-2.59-1.15-3.04h0c-1.07-.45-2.43,.33-2.88,1.78-4.58,14.51,.99,30.37,13.65,38.82,1.26,.84,2.81,.61,3.36-.42h0c.56-1.03,.07-2.37-1.01-3.09Z"/>
      <path class="cls-19" d="M114.47,133.14c-8.57,14.42-26.07,24.37-42.85,24.36-1.63,0-3.34,.95-3.83,2.26h0c-.49,1.31,.65,2.49,2.55,2.49,19.14,.01,39.09-11.33,48.87-27.78,.97-1.64,.53-3.22-.84-3.47h0c-1.38-.25-3.07,.73-3.9,2.13Z"/>
      <path class="cls-19" d="M43.64,134.05c2.9,11.44,12.55,22.12,23.64,26.15,1.08,.39,2.02,1.42,2.09,2.39h0c.07,.97-.91,1.47-2.16,1.01-12.65-4.6-23.66-16.77-26.96-29.82-.33-1.3,.27-2.22,1.22-2.05h0c.96,.17,1.89,1.21,2.17,2.32Z"/>
      <path class="cls-20" d="M56.29,214.97h5.58c4.35-54.97,21.96-112.66,49.51-160.56,1.1-1.91,1.22-4.38,.25-5.52-.11-.13-.23-.27-.34-.4-.97-1.14-2.71-.46-3.86,1.53-28.57,49.66-46.62,107.96-51.14,164.95Z"/>
      <g>
        <path class="cls-8" d="M123.14,96.6l1.29,.6c10.52,4.89,22.39-3.44,21.37-14.99l-.13-1.42c-1.02-11.56-14.17-17.67-23.67-11.01l-1.16,.82c-9.5,6.66-8.22,21.11,2.3,26Z"/>
        <path class="cls-8" d="M147.87,74.73l-.04-1.42c-.3-11.6-13.04-18.52-22.94-12.46l-1.21,.74c-9.89,6.06-9.52,20.56,.68,26.09l1.25,.68c10.19,5.54,22.56-2.04,22.26-13.63Z"/>
        <path class="cls-11" d="M126.04,88.93l.65-.58c5.28-4.71,3.48-13.38-3.24-15.6l-.82-.27c-6.73-2.22-13.33,3.67-11.89,10.61l.18,.85c1.44,6.93,9.85,9.71,15.13,4.99Z"/>
        <path class="cls-7" d="M129.77,94.47l.65-.58c5.28-4.71,3.48-13.38-3.24-15.6l-.82-.27c-6.73-2.22-13.33,3.67-11.89,10.61l.18,.85c1.44,6.93,9.85,9.71,15.13,4.99Z"/>
        <path class="cls-17" d="M142.07,86.66h0c-.98,3.82-3.39,6.68-6.42,8.37,8.7,.23,15.72-8.12,13.23-17.06h0c-2.43-8.69-12.28-12.24-19.55-8.1,8.31,.14,14.97,8.09,12.74,16.78Z"/>
        <path class="cls-8" d="M133.72,84.39l.95-1.06c7.77-8.62,3.29-22.41-8.06-24.83l-1.39-.3c-11.35-2.42-21.05,8.36-17.47,19.39l.44,1.35c3.58,11.04,17.76,14.06,25.53,5.44Z"/>
        <path class="cls-1" d="M130.67,63.73h0c3.23,2.26,5.05,5.53,5.57,8.96,3.28-8.06-2.05-17.58-11.29-18.39h0c-8.99-.79-15.79,7.17-14.47,15.44,3.06-7.73,12.85-11.16,20.2-6Z"/>
        <path class="cls-10" d="M129.18,80.47c-.89-.76-4,1.41-6.95,4.85-2.95,3.44-4.62,6.84-3.73,7.6,0,0,0,0,.01,0l10.68-12.45s0,0-.01-.01Z"/>
        <path class="cls-10" d="M119.26,93.62c-.07,1.27,3.54,2.51,8.06,2.77,4.52,.26,8.25-.57,8.32-1.84,0,0,0-.01,0-.02l-16.38-.93s0,.01,0,.02Z"/>
        <path class="cls-10" d="M116.82,90.32c-1.25,.26-3.01-3.13-3.93-7.56-.92-4.44-.66-8.24,.59-8.5,0,0,.01,0,.02,0l3.34,16.06s-.01,0-.02,0Z"/>
      </g>
      <g>
        <path class="cls-8" d="M54.35,189.53l-1.37,.39c-11.16,3.16-21.56-6.94-18.72-18.19l.35-1.38c2.84-11.25,16.79-15.2,25.11-7.12l1.02,.99c8.32,8.08,4.77,22.14-6.39,25.31Z"/>
        <path class="cls-8" d="M33.4,164.02l.26-1.4c2.14-11.4,15.81-16.22,24.62-8.67l1.08,.93c8.81,7.55,6.14,21.8-4.8,25.66l-1.34,.47c-10.94,3.85-21.95-5.59-19.82-16.99Z"/>
        <path class="cls-5" d="M52.7,181.5l-.55-.67c-4.47-5.49-1.32-13.77,5.67-14.89l.86-.14c6.99-1.13,12.58,5.74,10.06,12.36l-.31,.81c-2.52,6.62-11.26,8.02-15.73,2.53Z"/>
        <path class="cls-3" d="M48.14,186.38l-.55-.67c-4.47-5.49-1.32-13.77,5.67-14.89l.86-.14c6.99-1.13,12.58,5.74,10.06,12.36l-.31,.81c-2.52,6.62-11.26,8.02-15.73,2.53Z"/>
        <path class="cls-14" d="M37.24,176.72h0c.36,3.92,2.29,7.14,5.01,9.28-8.63-1.15-14.24-10.51-10.36-18.94h0c3.78-8.2,14.06-10.14,20.59-4.89-8.23-1.18-16.06,5.61-15.24,14.55Z"/>
        <path class="cls-8" d="M45.84,175.8l-.77-1.19c-6.3-9.74,.3-22.65,11.89-23.24l1.42-.07c11.59-.59,19.46,11.59,14.18,21.92l-.65,1.27c-5.28,10.33-19.77,11.06-26.07,1.32Z"/>
        <path class="cls-15" d="M52.12,155.88h0c-3.54,1.72-5.87,4.66-6.92,7.96-1.96-8.48,4.81-17.03,14.07-16.37h0c9,.64,14.45,9.58,11.84,17.54-1.8-8.11-10.92-13.05-18.99-9.13Z"/>
        <path class="cls-10" d="M50.94,172.65c1-.61,3.72,2.02,6.09,5.89s3.48,7.49,2.48,8.1c0,0,0,0-.01,0l-8.57-13.99s0,0,.01,0Z"/>
        <path class="cls-10" d="M58.65,187.2c-.13,1.27-3.89,1.92-8.4,1.45s-8.05-1.87-7.92-3.13c0,0,0-.01,0-.02l16.32,1.68s0,.01,0,.02Z"/>
        <path class="cls-10" d="M61.59,184.34c1.19,.45,3.47-2.61,5.08-6.84,1.61-4.23,1.95-8.03,.76-8.49,0,0-.01,0-.02,0l-5.84,15.33s.01,0,.02,0Z"/>
      </g>
      <g>
        <path class="cls-8" d="M55.83,125.36l1.21-1.49c9.87-12.16,2.88-30.45-12.59-32.91l-1.9-.3c-15.47-2.47-27.81,12.73-22.21,27.36l.69,1.79c5.6,14.63,24.93,17.71,34.8,5.55Z"/>
        <path class="cls-8" d="M35.34,85.78l-1.87-.42c-15.28-3.43-28.54,10.98-23.87,25.93l.57,1.83c4.68,14.95,23.78,19.23,34.39,7.71l1.3-1.41c10.61-11.52,4.76-30.21-10.52-33.63Z"/>
        <path class="cls-16" d="M45.66,119.07l-.71-.93c-5.79-7.61-17.65-6.09-21.34,2.73l-.45,1.08c-3.69,8.82,3.55,18.33,13.03,17.12l1.16-.15c9.48-1.21,14.1-12.24,8.31-19.84Z"/>
        <path class="cls-9" d="M53.51,114.64l-.71-.93c-5.79-7.61-17.65-6.09-21.34,2.73l-.45,1.08c-3.69,8.82,3.55,18.33,13.03,17.12l1.16-.15c9.48-1.21,14.1-12.24,8.31-19.84Z"/>
        <path class="cls-18" d="M49.05,97.3h0c4.68,2.54,7.63,6.65,8.85,11.16,3.16-11.32-5.46-23.26-17.98-22.93h0c-12.18,.32-20.07,12.04-17.04,22.93,2.91-10.83,15.52-16.94,26.17-11.16Z"/>
        <path class="cls-8" d="M43.33,107.49l-1.07-1.59c-8.73-13.01-28.26-11.69-35.16,2.37l-.85,1.72c-6.9,14.06,4.01,30.32,19.63,29.26l1.92-.13c15.63-1.05,24.25-18.63,15.53-31.64Z"/>
        <path class="cls-13" d="M15.27,104.67h0c4.03-3.48,8.91-4.8,13.56-4.34-9.48-6.95-23.69-3.1-27.8,8.73h0c-4,11.51,4.18,23.03,15.45,24.03-9.11-6.55-10.37-20.5-1.21-28.42Z"/>
        <path class="cls-10" d="M32.75,115.64c-1.25,.66,.03,5.58,2.87,11,2.84,5.42,6.15,9.28,7.4,8.63,0,0,.01,0,.02,0l-10.27-19.62s-.01,0-.02,0Z"/>
        <path class="cls-10" d="M43.42,136.22c1.54,.76,4.99-3.07,7.69-8.56,2.7-5.49,3.64-10.55,2.1-11.31,0,0-.01,0-.02,0l-9.79,19.87s.01,0,.02,.01Z"/>
        <path class="cls-10" d="M42.33,136.02c-.37,1.64-5.5,1.88-11.47,.54-5.97-1.34-10.51-3.75-10.14-5.39,0,0,0-.01,0-.02l21.61,4.84s0,.01,0,.02Z"/>
      </g>
      <g>
        <path class="cls-8" d="M126.21,56.13l1.89,.34c15.42,2.77,28.05-12.19,22.73-26.93l-.65-1.81c-5.31-14.73-24.58-18.19-34.69-6.22l-1.24,1.47c-10.1,11.97-3.46,30.39,11.95,33.15Z"/>
        <path class="cls-8" d="M150.96,19.07l-.54-1.84c-4.39-15.04-23.4-19.69-34.23-8.37l-1.33,1.39c-10.83,11.32-5.35,30.11,9.87,33.83l1.86,.46c15.21,3.72,28.75-10.43,24.36-25.46Z"/>
        <path class="cls-2" d="M126.8,44.19l.47-1.07c3.86-8.75-3.19-18.39-12.7-17.36l-1.17,.13c-9.51,1.03-14.33,11.96-8.69,19.68l.69,.95c5.64,7.72,17.53,6.43,21.39-2.32Z"/>
        <path class="cls-12" d="M134.48,48.92l.47-1.07c3.86-8.75-3.19-18.39-12.7-17.36l-1.17,.13c-9.51,1.03-14.33,11.96-8.69,19.68l.69,.95c5.64,7.72,17.53,6.43,21.39-2.32Z"/>
        <path class="cls-4" d="M147.5,36.63h0c.04,5.32-2.13,9.89-5.49,13.14,11.44-2.7,17.73-16.02,11.39-26.82h0c-6.17-10.51-20.24-11.76-28.31-3.84,10.89-2.68,22.33,5.4,22.41,17.52Z"/>
        <path class="cls-8" d="M135.82,36.55l.88-1.71c7.17-13.92-3.42-30.39-19.07-29.64l-1.92,.09c-15.64,.75-24.61,18.16-16.14,31.33l1.04,1.61c8.47,13.17,28.03,12.23,35.2-1.69Z"/>
        <path class="cls-6" d="M124.73,10.62h0c4.99,1.84,8.5,5.48,10.35,9.78,1.51-11.66-8.73-22.24-21.08-20.12h0c-12.01,2.06-18.14,14.79-13.58,25.14,1.33-11.14,12.94-18.99,24.3-14.79Z"/>
        <path class="cls-10" d="M123.57,31.22c-1.18-.78-4.87,2.72-8.25,7.82-3.37,5.1-5.15,9.87-3.98,10.65,0,0,.01,0,.02,0l12.22-18.47s0,0-.02-.01Z"/>
        <path class="cls-10" d="M110.7,50.51c.08,1.72,5.1,2.89,11.21,2.6s11-1.91,10.92-3.63c0,0,0-.02,0-.02l-22.12,1.03s0,.02,0,.02Z"/>
        <path class="cls-10" d="M110.35,49.46c-1.61,.47-4.3-3.91-6.02-9.78-1.71-5.87-1.8-11.01-.18-11.48,0,0,.01,0,.02,0l6.2,21.26s-.01,0-.02,0Z"/>
      </g>
    </g>
  </g>
</svg>