<?xml version="1.0" encoding="UTF-8"?>
<svg id="_圖層_2" data-name="圖層 2" xmlns="http://www.w3.org/2000/svg" xmlns:xlink="http://www.w3.org/1999/xlink" viewBox="0 0 2188.45 1391">
  <defs>
    <style>
      .cls-1 {
        fill: url(#_未命名漸層_49-5);
      }

      .cls-1, .cls-2, .cls-3, .cls-4, .cls-5, .cls-6, .cls-7, .cls-8, .cls-9, .cls-10, .cls-11, .cls-12, .cls-13, .cls-14 {
        opacity: .7;
      }

      .cls-2 {
        fill: url(#_未命名漸層_49-12);
      }

      .cls-15 {
        fill: url(#_未命名漸層_469-2);
      }

      .cls-15, .cls-16, .cls-17, .cls-18, .cls-19, .cls-20, .cls-21, .cls-22, .cls-23, .cls-24, .cls-25, .cls-26, .cls-27, .cls-28, .cls-29, .cls-30, .cls-31, .cls-32, .cls-33, .cls-34, .cls-35, .cls-36, .cls-37, .cls-38, .cls-39, .cls-40, .cls-41 {
        opacity: .5;
      }

      .cls-42, .cls-43, .cls-8 {
        fill: #fff;
      }

      .cls-16 {
        fill: url(#_未命名漸層_94-14);
      }

      .cls-17 {
        fill: url(#_未命名漸層_94-13);
      }

      .cls-18 {
        fill: url(#_未命名漸層_94-7);
      }

      .cls-19 {
        fill: url(#_未命名漸層_94-4);
      }

      .cls-3 {
        fill: url(#_未命名漸層_49-8);
      }

      .cls-4 {
        fill: url(#_未命名漸層_49-13);
      }

      .cls-20 {
        fill: url(#_未命名漸層_469-7);
      }

      .cls-21 {
        fill: url(#_未命名漸層_94-3);
      }

      .cls-22 {
        fill: url(#_未命名漸層_94-12);
      }

      .cls-43 {
        opacity: .4;
      }

      .cls-44 {
        opacity: .6;
      }

      .cls-5 {
        fill: url(#_未命名漸層_49-3);
      }

      .cls-6 {
        fill: url(#_未命名漸層_49-4);
      }

      .cls-7 {
        fill: url(#_未命名漸層_49-7);
      }

      .cls-23 {
        fill: url(#_未命名漸層_94-2);
      }

      .cls-24 {
        fill: url(#_未命名漸層_94-9);
      }

      .cls-25 {
        fill: url(#_未命名漸層_94-18);
      }

      .cls-26 {
        fill: url(#_未命名漸層_94-6);
      }

      .cls-27 {
        fill: url(#_未命名漸層_94-16);
      }

      .cls-45 {
        fill: #768672;
      }

      .cls-9 {
        fill: url(#_未命名漸層_49-6);
      }

      .cls-28 {
        fill: url(#_未命名漸層_94);
      }

      .cls-29 {
        fill: url(#_未命名漸層_94-20);
      }

      .cls-30 {
        fill: url(#_未命名漸層_94-17);
      }

      .cls-10 {
        fill: url(#_未命名漸層_49);
      }

      .cls-11 {
        fill: url(#_未命名漸層_49-11);
      }

      .cls-31 {
        fill: url(#_未命名漸層_94-15);
      }

      .cls-12 {
        fill: url(#_未命名漸層_49-9);
      }

      .cls-32 {
        fill: url(#_未命名漸層_94-11);
      }

      .cls-33 {
        fill: url(#_未命名漸層_94-8);
      }

      .cls-34 {
        fill: url(#_未命名漸層_469-6);
      }

      .cls-35 {
        fill: url(#_未命名漸層_469-3);
      }

      .cls-46 {
        fill: url(#_未命名漸層_35);
      }

      .cls-36 {
        fill: url(#_未命名漸層_94-19);
      }

      .cls-13 {
        fill: url(#_未命名漸層_49-2);
      }

      .cls-37 {
        fill: url(#_未命名漸層_469-4);
      }

      .cls-38 {
        fill: url(#_未命名漸層_94-5);
      }

      .cls-47 {
        fill: #427251;
      }

      .cls-48 {
        fill: #8da995;
      }

      .cls-39 {
        fill: url(#_未命名漸層_469);
      }

      .cls-14 {
        fill: url(#_未命名漸層_49-10);
      }

      .cls-40 {
        fill: url(#_未命名漸層_94-10);
      }

      .cls-41 {
        fill: url(#_未命名漸層_469-5);
      }
    </style>
    <linearGradient id="_未命名漸層_94" data-name="未命名漸層 94" x1="-17119.92" y1="7877.06" x2="-16783.7" y2="7877.06" gradientTransform="translate(-14570.6 -7838.43) rotate(-126.98)" gradientUnits="userSpaceOnUse">
      <stop offset="0" stop-color="#fff" stop-opacity="0"/>
      <stop offset=".37" stop-color="#faffd0" stop-opacity=".54"/>
      <stop offset=".92" stop-color="#f7ffaf"/>
    </linearGradient>
    <linearGradient id="_未命名漸層_94-2" data-name="未命名漸層 94" x1="-16479.71" y1="7378.5" x2="-16143.49" y2="7378.5" xlink:href="#_未命名漸層_94"/>
    <linearGradient id="_未命名漸層_94-3" data-name="未命名漸層 94" x1="-16156.24" y1="6770.9" x2="-15820.02" y2="6770.9" xlink:href="#_未命名漸層_94"/>
    <linearGradient id="_未命名漸層_94-4" data-name="未命名漸層 94" x1="-16407.38" y1="7763.94" x2="-16071.17" y2="7763.94" xlink:href="#_未命名漸層_94"/>
    <linearGradient id="_未命名漸層_94-5" data-name="未命名漸層 94" x1="-15989.88" y1="7376.88" x2="-15653.66" y2="7376.88" xlink:href="#_未命名漸層_94"/>
    <linearGradient id="_未命名漸層_94-6" data-name="未命名漸層 94" x1="-16809.17" y1="7944.93" x2="-16542.36" y2="7944.93" xlink:href="#_未命名漸層_94"/>
    <linearGradient id="_未命名漸層_49" data-name="未命名漸層 49" x1="1343.27" y1="346.83" x2="1531.51" y2="346.83" gradientUnits="userSpaceOnUse">
      <stop offset="0" stop-color="#84bf79" stop-opacity=".46"/>
      <stop offset=".47" stop-color="#96c981" stop-opacity=".53"/>
      <stop offset=".92" stop-color="#f7ffaf"/>
    </linearGradient>
    <linearGradient id="_未命名漸層_49-2" data-name="未命名漸層 49" x1="1261.43" y1="696.1" x2="1261.43" y2="495.45" xlink:href="#_未命名漸層_49"/>
    <linearGradient id="_未命名漸層_49-3" data-name="未命名漸層 49" x1="-288.76" y1="-3340.83" x2="-288.76" y2="-3541.48" gradientTransform="translate(268.69 4228.93) rotate(24.99)" xlink:href="#_未命名漸層_49"/>
    <linearGradient id="_未命名漸層_469" data-name="未命名漸層 469" x1="880.76" y1="595.78" x2="973.29" y2="595.78" gradientUnits="userSpaceOnUse">
      <stop offset="0" stop-color="#cedbf5"/>
      <stop offset=".92" stop-color="#f7ffff"/>
    </linearGradient>
    <linearGradient id="_未命名漸層_469-2" data-name="未命名漸層 469" x1="965.32" y1="1086.27" x2="1057.85" y2="1086.27" xlink:href="#_未命名漸層_469"/>
    <linearGradient id="_未命名漸層_469-3" data-name="未命名漸層 469" x1="-24443.44" y1="1080.63" x2="-24350.91" y2="1080.63" gradientTransform="translate(-23171.35) rotate(-180) scale(1 -1)" xlink:href="#_未命名漸層_469"/>
    <linearGradient id="_未命名漸層_49-4" data-name="未命名漸層 49" x1="889.91" y1="269.9" x2="1033.05" y2="269.9" xlink:href="#_未命名漸層_49"/>
    <linearGradient id="_未命名漸層_469-4" data-name="未命名漸層 469" x1="772.83" y1="145.99" x2="865.37" y2="145.99" xlink:href="#_未命名漸層_469"/>
    <linearGradient id="_未命名漸層_49-5" data-name="未命名漸層 49" x1="2021.49" y1="811.34" x2="2021.49" y2="699.67" xlink:href="#_未命名漸層_49"/>
    <linearGradient id="_未命名漸層_49-6" data-name="未命名漸層 49" x1="1663.1" y1="655.87" x2="1663.1" y2="338.48" xlink:href="#_未命名漸層_49"/>
    <linearGradient id="_未命名漸層_469-5" data-name="未命名漸層 469" x1="1554.51" y1="259.11" x2="1676.08" y2="259.11" xlink:href="#_未命名漸層_469"/>
    <linearGradient id="_未命名漸層_49-7" data-name="未命名漸層 49" x1="1147.71" y1="876.24" x2="1396.47" y2="876.24" xlink:href="#_未命名漸層_49"/>
    <linearGradient id="_未命名漸層_49-8" data-name="未命名漸層 49" x1="452.63" y1="1119.34" x2="452.63" y2="960.43" xlink:href="#_未命名漸層_49"/>
    <linearGradient id="_未命名漸層_469-6" data-name="未命名漸層 469" x1="1672.51" y1="1039.89" x2="1799.13" y2="1039.89" xlink:href="#_未命名漸層_469"/>
    <linearGradient id="_未命名漸層_49-9" data-name="未命名漸層 49" x1="136.57" y1="916.81" x2="411.98" y2="916.81" xlink:href="#_未命名漸層_49"/>
    <linearGradient id="_未命名漸層_49-10" data-name="未命名漸層 49" x1="282.02" y1="458.36" x2="419.59" y2="458.36" xlink:href="#_未命名漸層_49"/>
    <linearGradient id="_未命名漸層_49-11" data-name="未命名漸層 49" x1="674.14" y1="987.4" x2="811.7" y2="987.4" xlink:href="#_未命名漸層_49"/>
    <linearGradient id="_未命名漸層_49-12" data-name="未命名漸層 49" x1="571.55" y1="359.06" x2="571.55" y2="154.86" xlink:href="#_未命名漸層_49"/>
    <linearGradient id="_未命名漸層_49-13" data-name="未命名漸層 49" x1="651.03" y1="601.96" x2="839.26" y2="601.96" xlink:href="#_未命名漸層_49"/>
    <linearGradient id="_未命名漸層_469-7" data-name="未命名漸層 469" x1="82.34" y1="755.51" x2="251.56" y2="755.51" xlink:href="#_未命名漸層_469"/>
    <linearGradient id="_未命名漸層_94-7" data-name="未命名漸層 94" x1="-15985.23" y1="6941.57" x2="-15649.01" y2="6941.57" xlink:href="#_未命名漸層_94"/>
    <linearGradient id="_未命名漸層_94-8" data-name="未命名漸層 94" x1="-16134.5" y1="6516.6" x2="-15798.28" y2="6516.6" xlink:href="#_未命名漸層_94"/>
    <linearGradient id="_未命名漸層_94-9" data-name="未命名漸層 94" x1="-15862.17" y1="7333.28" x2="-15659.74" y2="7333.28" xlink:href="#_未命名漸層_94"/>
    <linearGradient id="_未命名漸層_94-10" data-name="未命名漸層 94" x1="-16581.23" y1="7078.46" x2="-16354.79" y2="7078.46" xlink:href="#_未命名漸層_94"/>
    <linearGradient id="_未命名漸層_94-11" data-name="未命名漸層 94" x1="-16037.21" y1="7924.66" x2="-15834.78" y2="7924.66" xlink:href="#_未命名漸層_94"/>
    <linearGradient id="_未命名漸層_94-12" data-name="未命名漸層 94" x1="-16950.88" y1="7618.24" x2="-16748.45" y2="7618.24" xlink:href="#_未命名漸層_94"/>
    <linearGradient id="_未命名漸層_94-13" data-name="未命名漸層 94" x1="-16307.92" y1="6679.8" x2="-16105.5" y2="6679.8" xlink:href="#_未命名漸層_94"/>
    <linearGradient id="_未命名漸層_94-14" data-name="未命名漸層 94" x1="-15696.77" y1="7155.81" x2="-15494.34" y2="7155.81" xlink:href="#_未命名漸層_94"/>
    <linearGradient id="_未命名漸層_94-15" data-name="未命名漸層 94" x1="-16698.93" y1="7550.58" x2="-16496.51" y2="7550.58" xlink:href="#_未命名漸層_94"/>
    <linearGradient id="_未命名漸層_94-16" data-name="未命名漸層 94" x1="-16753.01" y1="7263.51" x2="-16550.58" y2="7263.51" xlink:href="#_未命名漸層_94"/>
    <linearGradient id="_未命名漸層_94-17" data-name="未命名漸層 94" x1="-16275.61" y1="7926.41" x2="-16073.18" y2="7926.41" xlink:href="#_未命名漸層_94"/>
    <linearGradient id="_未命名漸層_94-18" data-name="未命名漸層 94" x1="-15979.76" y1="7637.34" x2="-15643.55" y2="7637.34" xlink:href="#_未命名漸層_94"/>
    <linearGradient id="_未命名漸層_94-19" data-name="未命名漸層 94" x1="-16684.76" y1="7900.04" x2="-16348.54" y2="7900.04" xlink:href="#_未命名漸層_94"/>
    <linearGradient id="_未命名漸層_94-20" data-name="未命名漸層 94" x1="-16339.54" y1="6995.36" x2="-16003.32" y2="6995.36" xlink:href="#_未命名漸層_94"/>
    <linearGradient id="_未命名漸層_35" data-name="未命名漸層 35" x1="1099.35" y1="1390.53" x2="1099.35" y2="1108.04" gradientUnits="userSpaceOnUse">
      <stop offset="0" stop-color="#b0ba77"/>
      <stop offset=".49" stop-color="#b0ba77" stop-opacity=".46"/>
      <stop offset="1" stop-color="#768672" stop-opacity="0"/>
    </linearGradient>
  </defs>
  <g id="txt">
    <g>
      <path class="cls-28" d="M2058.63,874.45h0c-75.92-115.57-251.19-94.9-298.15,35.16h0c-43.12,119.44,56.88,241.65,182.49,223.02h0c121.28-17.99,182.98-155.71,115.66-258.18Z"/>
      <path class="cls-23" d="M1275.26,662.86h0c-75.92-115.57-251.19-94.9-298.15,35.16h0c-43.12,119.44,56.88,241.65,182.49,223.02h0c121.28-17.99,182.98-155.71,115.66-258.18Z"/>
      <path class="cls-21" d="M595.29,769.89h0c-75.92-115.57-251.19-94.9-298.15,35.16h0c-43.12,119.44,56.88,241.65,182.49,223.02h0c121.28-17.99,182.98-155.71,115.66-258.18Z"/>
      <path class="cls-19" d="M1539.69,373.25h0c-75.92-115.57-251.19-94.9-298.15,35.16h0c-43.12,119.44,56.88,241.65,182.49,223.02h0c121.28-17.99,182.98-155.71,115.66-258.18Z"/>
      <path class="cls-38" d="M979.35,272.51h0c-75.92-115.57-251.19-94.9-298.15,35.16h0c-43.12,119.44,56.88,241.65,182.49,223.02h0c121.28-17.99,182.98-155.71,115.66-258.18Z"/>
      <path class="cls-26" d="M1917.84,632.12h0c-60.25-91.71-199.33-75.31-236.6,27.9h0c-34.22,94.78,45.14,191.76,144.82,176.98h0c96.24-14.27,145.2-123.56,91.78-204.88Z"/>
      <path class="cls-10" d="M1381.83,299.74c-31.68,47.81-42.76,105.69-37.17,161.23,3.4-5.43,5.61-10.73,9.26-16.26,25.59-38.6,53.19-68.94,75.63-85.21-7.8,29.43-25.78,68.26-51.29,106.86-3.53,5.53-7.41,9.43-10.94,14.6,47.61-8.23,92.81-35.68,124.59-83.55,36.22-54.63,46.96-122.41,34.79-184.75-55.1,2.57-108.82,32.46-144.87,87.06Z"/>
      <path class="cls-13" d="M1219.19,586.41c-8.53,36.75-3.06,73.43,11.9,104.29,.78-4.13,1.01-7.77,2.02-12.03,6.82-29.66,16.55-54.93,26.29-70.83,1.54,19.32-.81,46.96-7.71,76.62-.93,4.1-2.33,7.55-3.37,11.64,26.09-18.11,46.74-46.83,55.24-83.57,9.65-41.76,1.96-84.26-18.18-117.07-31.48,16.84-56.53,49.07-66.18,90.96Z"/>
      <path class="cls-5" d="M1426.28,961.56c-23.25,29.71-33.79,65.27-33.27,99.56,2.46-3.41,4.2-6.62,6.91-10.05,18.71-24,38.21-42.79,53.75-53.09-6.76,18.16-20.57,42.22-39.36,66.19-2.57,3.33-5.3,5.85-7.97,9.13,31.3-5.39,62.15-22.7,85.37-52.42,26.39-33.77,37.37-75.54,32.98-113.79-35.65,1.97-71.97,20.6-98.41,54.49Z"/>
      <path class="cls-42" d="M1134.22,319.52c-50.75,25.17-91.76,75.09-108.74,141.11-14.81,57.92-7.52,116.39,14.73,166.05,1.63-6.47,1.94-12.45,3.84-18.96,12.01-46.47,28.53-86.25,44.47-110.96,1.85,30.73-3.14,74.38-15.12,121.21-1.71,6.6-4.04,11.77-5.89,18.15,41.94-27.32,76.05-71.71,90.87-129.47,16.97-65.92,6.42-133.95-24.16-187.12Z"/>
      <path class="cls-8" d="M1238.69,431.19c-1.21-6.57-3.17-12.1-4.27-18.93-8.13-47.8-9.43-91.8-4.96-122.18,13.6,26.38,26.9,67.54,35.01,115.35,1.12,6.83,1.23,12.68,2.16,19.28,26.26-46.73,38.46-104.26,28.42-163.45-11.28-67.67-47.95-121.92-96.37-152.65-34.82,49.56-51.06,115.94-39.7,183.35,9.96,59.32,40.12,107.32,79.7,139.22Z"/>
      <path class="cls-39" d="M940.11,696.1c-1.01-4.1-2.44-7.54-3.34-11.64-6.93-29.66-9.23-57.3-7.72-76.62,9.74,15.9,19.47,41.17,26.29,70.83,1.01,4.26,1.21,7.9,2.02,12.03,14.92-30.86,20.42-67.55,11.89-104.29-9.65-41.88-34.73-74.11-66.21-90.96-20.11,32.81-27.8,75.32-18.15,117.07,8.53,36.75,29.12,65.46,55.21,83.57Z"/>
      <path class="cls-15" d="M1024.68,1186.59c-1.01-4.1-2.44-7.54-3.34-11.64-6.93-29.66-9.23-57.3-7.72-76.62,9.74,15.9,19.47,41.17,26.29,70.83,1.01,4.26,1.21,7.9,2.02,12.03,14.92-30.86,20.42-67.55,11.89-104.29-9.65-41.88-34.73-74.11-66.21-90.96-20.11,32.81-27.8,75.32-18.15,117.07,8.53,36.75,29.12,65.46,55.21,83.57Z"/>
      <path class="cls-35" d="M1212.74,1180.95c1.01-4.1,2.44-7.54,3.34-11.64,6.93-29.66,9.23-57.3,7.72-76.62-9.74,15.9-19.47,41.17-26.29,70.83-1.01,4.26-1.21,7.9-2.02,12.03-14.92-30.86-20.42-67.55-11.89-104.29,9.65-41.88,34.73-74.11,66.21-90.96,20.11,32.81,27.8,75.32,18.15,117.07-8.53,36.75-29.12,65.46-55.21,83.57Z"/>
      <path class="cls-6" d="M923.98,405.43c8.11-47.8,21.43-88.97,35.01-115.35,4.46,30.37,3.14,74.38-4.96,122.18-1.12,6.83-3.06,12.36-4.27,18.93,39.59-31.9,69.74-79.9,79.7-139.22,11.36-67.42-4.88-133.79-39.73-183.35-48.42,30.73-85.06,84.98-96.31,152.65-10.07,59.19,2.13,116.72,28.39,163.45,.93-6.6,1.04-12.45,2.16-19.28Z"/>
      <path class="cls-37" d="M832.18,246.31c-1.01-4.1-2.44-7.55-3.34-11.64-6.9-29.66-9.23-57.33-7.71-76.62,9.74,15.87,19.5,41.2,26.29,70.83,1.01,4.26,1.21,7.9,2.05,12.03,14.93-30.86,20.4-67.58,11.87-104.26-9.65-41.92-34.73-74.18-66.21-90.99-20.09,32.84-27.8,75.32-18.15,117.11,8.5,36.72,29.12,65.4,55.21,83.55Z"/>
      <path class="cls-42" d="M1084.59,192.65c0-30.6,3.84-58.02,9.62-76.26,5.89,18.24,9.65,45.66,9.65,76.26,0,4.36-.62,8-.7,12.23,21.21-25.17,34.7-59.06,34.7-97.21,0-43.32-16.95-81.89-43.65-107.67-26.71,25.79-43.66,64.36-43.66,107.67,0,38.15,13.49,72.03,34.73,97.21-.11-4.23-.7-7.87-.7-12.23Z"/>
      <path class="cls-42" d="M1776.25,507.35c19.81-20.72,39.7-35.77,55.44-42.86-7.8,17.2-22.84,38.86-42.45,59.32-2.83,2.96-5.67,4.94-8.3,7.68,30.35,1.27,61.1-9.79,85.54-35.22,27.74-28.91,41.27-69.43,39.81-109.66-34.37-5.79-70.61,5.4-98.36,34.47-24.35,25.43-37.03,59.67-39.08,94.96,2.75-3.06,4.68-5.89,7.41-8.68Z"/>
      <path class="cls-1" d="M1936.89,778.96c3.34-1.66,6.06-3.54,9.73-4.94,24.75-10.47,48.11-15.64,64.97-15.29-12.73,12.33-33.61,25.86-58.58,36.23-3.56,1.53-6.62,2.12-10.07,3.54,27.63,14.47,59.7,17.63,90.59,4.69,35.21-14.57,60.88-46.25,72.55-84.13-29.93-20.36-67.19-25.76-102.2-11.06-30.97,12.81-53.81,39.19-66.99,70.96Z"/>
      <path class="cls-9" d="M1596.36,480.98c-14.3,58.15-6.39,116.72,16.33,165.95,1.54-6.6,2.05-12.39,3.76-19.09,11.36-46.7,27.41-86.6,43.26-111.55,1.94,30.83-2.47,74.6-13.8,121.21-1.63,6.83-4.04,12.23-5.7,18.37,41.83-27.8,75.13-72.75,89.44-130.89,16.27-66.02,4.8-133.69-26.37-186.5-50.36,25.98-90.9,76.36-106.92,142.5Z"/>
      <path class="cls-41" d="M1561.59,326.82c16.36-25.74,34-46.59,48.72-58.45-5.03,18.43-16.48,43.73-33,69.54-2.22,3.63-4.72,6.34-6.98,9.99,30.84-8.99,60.16-29.87,80.56-61.81,23.2-36.3,30.12-78.78,21.8-115.78-35.76,6.33-70.45,29.1-93.53,65.48-20.43,32.02-27.6,68.26-23.57,101.71,2.1-3.58,3.62-7.04,6-10.69Z"/>
      <path class="cls-7" d="M1177.17,960.66c-5.08,3.77-9.85,5.66-14.84,8.94,46.8,12.95,97.58,6.96,142.46-23.77,51.17-35.06,82.93-93.21,91.68-156.39-51.98-21.43-111.37-16.94-162.46,18.24-44.66,30.57-73.59,79.68-86.29,133.69,4.88-3.77,8.64-7.68,13.83-11.19,36.13-24.84,71.46-40.97,97.54-46.5-16.64,24.03-45.78,52.29-81.92,76.98Z"/>
      <path class="cls-42" d="M1137.87,786.74c0-43.32-16.95-81.92-43.65-107.71-26.71,25.79-43.66,64.39-43.66,107.71,0,38.12,13.49,72,34.73,97.2-.11-4.26-.7-7.9-.7-12.26,0-30.6,3.84-58.02,9.62-76.26,5.89,18.24,9.65,45.66,9.65,76.26,0,4.36-.62,8-.7,12.26,21.21-25.2,34.7-59.09,34.7-97.2Z"/>
      <path class="cls-8" d="M1464.28,781.31c41.63,7.42,77.77,20.94,100.88,36.03-25.95,6.08-64.02,6.57-105.34-.85-6.09-1.04-10.89-3.06-16.58-4.23,28.95,44.59,71.6,77.3,123.07,86.6,58.66,10.5,115.19-11.15,156.55-53.53-28.34-54.6-76.79-94.86-135.23-105.21-51.48-9.21-100.74,7.16-140.1,39.41,5.81,.81,10.86,.59,16.75,1.76Z"/>
      <path class="cls-42" d="M595.63,958.09c1.35,3.51,3.25,6.8,4.66,10.83,10.69,28,16.66,55.06,17.7,74.24-11.78-13.76-24.69-37.3-35.13-65.3-1.63-4.03-2.36-7.55-3.68-11.32-10.86,32.75-11.59,70.15,1.83,104.98,14.84,39.54,43.76,67.32,77.18,78.41,15.63-35.81,17.76-79.12,2.72-119.13-13.1-34.6-37.25-59.55-65.28-72.72Z"/>
      <path class="cls-42" d="M1622.77,977.12c-1.27,3.54-1.96,7.28-3.52,11.25-10.13,28.21-23.23,52.63-34.94,67.86,.02-18.11,5.57-44.38,15.9-72.42,1.39-4.12,3.13-7.26,4.59-10.98-29.57,17.77-54.49,45.67-67.01,80.83-14.5,39.67-10.66,79.58,7.47,109.77,35.18-16.98,65.02-48.46,79.67-88.6,12.6-34.78,10.53-69.44-2.15-97.7Z"/>
      <path class="cls-3" d="M509.24,983.74c-17.67,22.8-36.55,40.23-51.17,49.17,5.98-18.11,19.19-41.43,36.86-63.9,2.52-3.42,5.08-5.63,7.49-8.59-30.13,2.02-59.89,16.59-81.92,44.95-24.97,32.03-34.93,74.05-29.93,113.82,34.62,1.85,69.52-13.66,94.82-46.02,21.91-28.03,31.56-63.81,30.44-98.86-2.24,2.93-4.07,6.24-6.59,9.43Z"/>
      <path class="cls-34" d="M1686.02,960.43c2.38,2.96,4.97,5.17,7.49,8.59,17.64,22.47,30.86,45.79,36.86,63.9-14.62-8.94-33.5-26.37-51.17-49.17-2.55-3.19-4.38-6.5-6.62-9.43-1.06,35.06,8.56,70.83,30.47,98.86,25.31,32.36,60.2,47.87,94.85,46.02,4.94-39.77-4.99-81.79-29.99-113.82-21.99-28.36-51.76-42.93-81.89-44.95Z"/>
      <path class="cls-42" d="M1926.28,838.97c-50.44-15.06-100.77-4.46-142.71,23.09,5.67,1.4,10.66,1.89,16.55,3.74,40.71,12,75.44,29.66,97.27,47.32-26.4,3.06-64.27-.68-104.9-12.94-5.86-1.66-10.44-4.23-16.05-6.11,25.08,47.77,64.67,85.2,115.16,100.36,57.34,17.2,115.5,2.24,160.28-35.15-23.51-57.69-68.23-103.35-125.6-120.29Z"/>
      <path class="cls-12" d="M395.93,900.17c-40.6,12.26-78.47,16-104.87,12.94,21.83-17.66,56.56-35.32,97.24-47.32,5.92-1.85,10.88-2.34,16.58-3.74-41.94-27.54-92.3-38.15-142.74-23.09-57.37,16.94-102.04,62.6-125.57,120.29,44.75,37.4,102.93,52.36,160.3,35.15,50.44-15.15,90.03-52.58,115.11-100.36-5.58,1.88-10.16,4.46-16.05,6.11Z"/>
      <path class="cls-14" d="M321.92,496.27c24.47,25.43,55.24,36.49,85.59,35.22-2.64-2.73-5.5-4.72-8.33-7.68-19.58-20.45-34.62-42.11-42.45-59.32,15.74,7.09,35.66,22.15,55.43,42.86,2.75,2.8,4.69,5.63,7.41,8.68-2.02-35.28-14.7-69.53-39.08-94.96-27.72-29.08-63.96-40.26-98.39-34.47-1.4,40.23,12.12,80.75,39.81,109.66Z"/>
      <path class="cls-11" d="M714.04,1025.31c24.47,25.43,55.24,36.49,85.59,35.22-2.64-2.73-5.5-4.72-8.33-7.68-19.58-20.45-34.62-42.11-42.45-59.32,15.74,7.09,35.66,22.15,55.43,42.86,2.75,2.8,4.69,5.63,7.41,8.68-2.02-35.28-14.7-69.53-39.08-94.96-27.72-29.08-63.96-40.26-98.39-34.47-1.4,40.23,12.12,80.75,39.81,109.66Z"/>
      <path class="cls-42" d="M548.24,655.87c-1.65-6.15-4.1-11.54-5.7-18.37-11.39-46.6-15.74-90.37-13.83-121.21,15.85,24.95,31.9,64.85,43.26,111.55,1.74,6.7,2.25,12.49,3.76,19.09,22.75-49.24,30.66-107.81,16.35-165.95-16.05-66.15-56.53-116.52-106.91-142.5-31.17,52.81-42.64,120.49-26.4,186.5,14.34,58.15,47.64,103.09,89.47,130.89Z"/>
      <path class="cls-2" d="M575.32,359.06c-.51-4.26-1.6-7.77-2.1-12-4.07-30.37-3.76-58.15-.51-76.97,8.31,16.97,15.52,43.32,19.5,73.56,.59,4.32,.48,8.09,.9,12.23,17.76-28.62,26.6-64.49,21.63-102.15-5.58-42.73-27.44-78.02-57.17-98.86-23.15,30.02-34.82,71.45-29.12,114.15,4.97,37.56,22.72,68.88,46.88,90.05Z"/>
      <path class="cls-42" d="M465.59,845.34c41.32,42.37,97.86,64.03,156.54,53.53,51.48-9.3,94.12-42.02,123.05-86.6-5.69,1.17-10.43,3.19-16.55,4.23-41.33,7.41-79.4,6.93-105.37,.85,23.15-15.09,59.28-28.62,100.91-36.03,5.86-1.17,10.94-.94,16.75-1.76-39.39-32.26-88.65-48.62-140.11-39.41-58.46,10.34-106.91,50.6-135.22,105.21Z"/>
      <path class="cls-4" d="M815.24,736.1c-3.56-5.17-7.4-9.17-10.97-14.7-25.47-38.6-43.46-77.43-51.29-106.86,22.44,16.36,50.05,46.6,75.66,85.33,3.65,5.4,5.86,10.7,9.23,16.23,5.58-55.54-5.5-113.43-37.17-161.33-36.02-54.6-89.75-84.39-144.88-86.96-12.17,62.37-1.4,130.15,34.84,184.75,31.76,47.77,76.95,75.32,124.56,83.55Z"/>
      <path class="cls-20" d="M154.94,803.19c30.83,12.94,62.93,9.79,90.53-4.69-3.45-1.43-6.48-2.01-10.04-3.54-24.97-10.37-45.9-23.9-58.58-36.23,16.86-.36,40.2,4.81,64.98,15.29,3.64,1.4,6.39,3.28,9.73,4.94-13.18-31.77-36.02-58.15-66.99-70.96-35.01-14.7-72.27-9.3-102.23,11.06,11.67,37.89,37.37,69.56,72.6,84.13Z"/>
      <path class="cls-8" d="M1341.04,228.88c6.79-29.63,16.55-54.96,26.29-70.83,1.51,19.28-.81,46.96-7.72,76.62-.93,4.1-2.36,7.55-3.34,11.64,26.09-18.15,46.65-46.83,55.21-83.55,9.65-41.79,1.91-84.26-18.15-117.11-31.51,16.81-56.56,49.08-66.21,90.99-8.56,36.68-3.06,73.4,11.87,104.26,.81-4.13,1.01-7.77,2.05-12.03Z"/>
      <path class="cls-8" d="M1040.74,941.37c-12.73-54.02-41.66-103.12-86.32-133.69-51.06-35.19-110.45-39.67-162.44-18.24,8.73,63.19,40.51,121.33,91.69,156.39,44.89,30.73,95.61,36.71,142.43,23.77-4.97-3.28-9.74-5.17-14.81-8.94-36.13-24.68-65.28-52.94-81.95-76.98,26.09,5.53,61.44,21.66,97.57,46.5,5.19,3.51,8.95,7.42,13.83,11.19Z"/>
      <path class="cls-8" d="M1736.7,713.99c38.74-18.7,75.72-28.94,102.31-29.89-19.5,20.72-51.79,44.03-90.56,62.6-5.58,2.73-10.55,3.87-15.94,6.37,44.77,20.72,95.83,23.06,143.95,0,54.82-26.37,93.51-78.86,109.86-139.84-48.73-29.76-108.01-35.06-162.77-8.68-48.11,23.06-82.82,66.73-102.01,117.92,5.27-2.83,9.51-5.89,15.15-8.49Z"/>
      <path class="cls-8" d="M1406.61,554.77c-31.67,47.9-42.76,105.79-37.14,161.33,3.34-5.53,5.58-10.83,9.23-16.23,25.59-38.73,53.22-68.98,75.63-85.33-7.83,29.43-25.78,68.26-51.28,106.86-3.5,5.53-7.41,9.53-10.94,14.7,47.61-8.23,92.78-35.77,124.56-83.55,36.25-54.6,47.02-122.37,34.79-184.75-55.07,2.57-108.8,32.36-144.84,86.96Z"/>
      <path class="cls-43" d="M2114.44,1018.44c-31.2-12.36-63.26-8.36-90.45,6.96,3.34,1.17,6.48,1.62,10.13,3.29,25,9.66,46.18,22.47,59.11,34.83-16.55,.45-40.32-4-65.39-13.89-3.54-1.4-6.51-3.29-9.74-4.49,13.78,31.32,37.23,56.97,68.23,69.2,35.6,13.92,72.66,7.77,102.12-13.53-12.37-37.53-38.8-68.59-74.01-82.38Z"/>
      <path class="cls-43" d="M1605.59,977.86c-10.46,28-23.34,51.54-35.12,65.3,1.04-19.18,7.01-46.24,17.65-74.24,1.43-4.03,3.34-7.32,4.71-10.83-28.03,13.17-52.24,38.12-65.31,72.72-15.01,40-12.91,83.32,2.75,119.13,33.41-11.09,62.34-38.86,77.15-78.41,13.41-34.83,12.68-72.23,1.85-104.98-1.32,3.77-2.05,7.29-3.68,11.32Z"/>
      <path class="cls-43" d="M95.22,1063.52c12.91-12.36,34.12-25.17,59.11-34.83,3.64-1.66,6.79-2.12,10.16-3.29-27.24-15.32-59.31-19.32-90.48-6.96-35.24,13.79-61.64,44.85-74.01,82.38,29.46,21.3,66.49,27.45,102.15,13.53,30.94-12.23,54.4-37.89,68.2-69.2-3.23,1.2-6.17,3.09-9.74,4.49-25.08,9.88-48.84,14.34-65.4,13.89Z"/>
      <path class="cls-8" d="M821.13,480.98c-3.56-5.17-7.41-9.07-10.97-14.6-25.48-38.6-43.46-77.43-51.26-106.86,22.42,16.26,50.02,46.6,75.61,85.21,3.68,5.53,5.89,10.83,9.26,16.26,5.58-55.55-5.47-113.43-37.17-161.23-36.02-54.6-89.72-84.49-144.87-87.06-12.18,62.34-1.41,130.12,34.82,184.75,31.79,47.87,76.98,75.32,124.59,83.55Z"/>
      <path class="cls-8" d="M330.88,753.08c48.11,23.06,99.17,20.72,143.95,0-5.39-2.5-10.35-3.64-15.94-6.37-38.8-18.57-71.06-41.89-90.56-62.6,26.6,.94,63.54,11.19,102.34,29.89,5.55,2.6,9.85,5.66,15.12,8.49-19.19-51.19-53.92-94.86-102.03-117.92-54.73-26.37-114.02-21.07-162.75,8.68,16.33,60.97,55.05,113.46,109.86,139.84Z"/>
      <g class="cls-44">
        <path class="cls-18" d="M628.79,530.62h0c-75.92-115.57-251.19-94.9-298.15,35.16h0c-43.12,119.44,56.88,241.65,182.49,223.02h0c121.28-17.99,182.98-155.71,115.66-258.18Z"/>
        <path class="cls-33" d="M379.06,905.48h0c-75.92-115.57-251.19-94.9-298.15,35.16h0c-43.12,119.44,56.88,241.65,182.49,223.02h0c121.28-17.99,182.98-155.71,115.66-258.18Z"/>
        <path class="cls-24" d="M852.1,286.8h0c-45.71-69.58-151.24-57.14-179.51,21.17h0c-25.96,71.91,34.25,145.49,109.87,134.28h0c73.02-10.83,110.17-93.75,69.63-155.45Z"/>
        <path class="cls-40" d="M1083.82,998.35h0c-51.13-77.83-169.17-63.91-200.8,23.68h0c-29.04,80.44,38.31,162.75,122.9,150.2h0c81.68-12.11,123.23-104.87,77.89-173.88Z"/>
        <path class="cls-32" d="M1429.84,70.94h0c-45.71-69.58-151.24-57.14-179.51,21.17h0c-25.96,71.91,34.25,145.49,109.87,134.28h0c73.02-10.83,110.17-93.75,69.63-155.45Z"/>
        <path class="cls-22" d="M1734.59,985.16h0c-45.71-69.58-151.24-57.14-179.51,21.17h0c-25.96,71.91,34.25,145.49,109.87,134.28h0c73.02-10.83,110.17-93.75,69.63-155.45Z"/>
        <path class="cls-17" d="M598.15,1035.95h0c-45.71-69.58-151.24-57.14-179.51,21.17h0c-25.96,71.91,34.25,145.49,109.87,134.28h0c73.02-10.83,110.17-93.75,69.63-155.45Z"/>
        <path class="cls-16" d="M610.85,261.4h0c-45.71-69.58-151.24-57.14-179.51,21.17h0c-25.96,71.91,34.25,145.49,109.87,134.28h0c73.02-10.83,110.17-93.75,69.63-155.45Z"/>
        <path class="cls-31" d="M1528.99,824.59h0c-45.71-69.58-151.24-57.14-179.51,21.17h0c-25.96,71.91,34.25,145.49,109.87,134.28h0c73.02-10.83,110.17-93.75,69.63-155.45Z"/>
        <path class="cls-27" d="M1332.18,1040.44h0c-45.71-69.58-151.24-57.14-179.51,21.17h0c-25.96,71.91,34.25,145.49,109.87,134.28h0c73.02-10.83,110.17-93.75,69.63-155.45Z"/>
        <path class="cls-30" d="M1574.63,260.35h0c-45.71-69.58-151.24-57.14-179.51,21.17h0c-25.96,71.91,34.25,145.49,109.87,134.28h0c73.02-10.83,110.17-93.75,69.63-155.45Z"/>
        <path class="cls-25" d="M1181.35,107.77h0c-75.92-115.57-251.19-94.9-298.15,35.16h0c-43.12,119.44,56.88,241.65,182.49,223.02h0c121.28-17.99,182.98-155.71,115.66-258.18Z"/>
        <path class="cls-36" d="M1815.25,512.99h0c-75.92-115.57-251.19-94.9-298.15,35.16h0c-43.12,119.44,56.88,241.65,182.49,223.02h0c121.28-17.99,182.98-155.71,115.66-258.18Z"/>
        <path class="cls-29" d="M884.86,781.33h0c-75.92-115.57-251.19-94.9-298.15,35.16h0c-43.12,119.44,56.88,241.65,182.49,223.02h0c121.28-17.99,182.98-155.71,115.66-258.18Z"/>
      </g>
      <g>
        <path class="cls-46" d="M943.05,1390.21h312.59s-49.48,21.17-45.43-282.17h-204.78s-1.21,85.37-62.38,282.17Z"/>
        <path class="cls-45" d="M988.07,1107.25s14.37,102.56-73.61,282.96h51.85s48.27-2.21,39.45-245.09c0,0,7.53-30.87-17.69-37.86Z"/>
        <path class="cls-45" d="M1210.22,1108.04s-14.37,102.56,73.61,282.96h-51.85s-48.27-2.21-39.45-245.09c0,0-7.53-30.87,17.69-37.86Z"/>
        <polygon class="cls-47" points="1101.2 1108.29 1115.52 1391 1084.17 1391 1101.2 1108.29"/>
        <g>
          <path class="cls-48" d="M966.89,1135.45c-106.11,0-81.28-99.48-81.28-148.88,0,0,10.11,102.32,57.16,102.32h30.81c18.06,0,33.89,7.8,47.41,18.82,33.28-14.01,60.86-70.94,60.86-70.94-9.39,26.25-17.99,69.12-41.1,94.35,8.17,13.94,14.12,29.64,14.12,47.47v212.41h-42.13v-212.41c0-23.81-17.52-43.14-39.17-43.14h-6.7Zm265.83,0h-6.71c-21.52,0-39.17,19.33-39.17,43.14v212.41h-42.11v-212.41c0-17.84,5.93-33.53,14.17-47.54-23.05-25.16-31.64-68.03-41.05-94.28,0,0,27.58,56.86,60.83,70.94,13.44-11.02,29.27-18.82,47.33-18.82h30.81c47.05,0,57.18-102.32,57.18-102.32,0,49.4,24.93,148.88-81.28,148.88Z"/>
          <path class="cls-48" d="M1013.75,1304.38s-8.86,22.7-24.79,86.62h23.79l1-86.62Z"/>
          <path class="cls-48" d="M1186.04,1391l-1-86.62s8.86,22.7,24.79,86.62"/>
        </g>
      </g>
    </g>
  </g>
</svg>