<?xml version="1.0" encoding="UTF-8"?>
<svg id="_圖層_2" data-name="圖層 2" xmlns="http://www.w3.org/2000/svg" xmlns:xlink="http://www.w3.org/1999/xlink" viewBox="0 0 216.26 195.45">
  <defs>
    <style>
      .cls-1 {
        fill: url(#_未命名漸層_469-2);
      }

      .cls-1, .cls-2, .cls-3, .cls-4, .cls-5, .cls-6, .cls-7, .cls-8, .cls-9, .cls-10, .cls-11, .cls-12, .cls-13, .cls-14, .cls-15, .cls-16, .cls-17, .cls-18, .cls-19, .cls-20, .cls-21 {
        opacity: .5;
      }

      .cls-22 {
        fill: #84bf79;
      }

      .cls-2 {
        fill: url(#_未命名漸層_94-7);
      }

      .cls-3 {
        fill: url(#_未命名漸層_94-4);
      }

      .cls-5 {
        fill: url(#_未命名漸層_94-3);
      }

      .cls-6 {
        fill: url(#_未命名漸層_41-4);
      }

      .cls-7 {
        fill: url(#_未命名漸層_94-2);
      }

      .cls-8 {
        fill: url(#_未命名漸層_94-9);
      }

      .cls-9 {
        fill: url(#_未命名漸層_41-5);
      }

      .cls-10 {
        fill: url(#_未命名漸層_94-6);
      }

      .cls-23 {
        fill: url(#_未命名漸層_31-3);
      }

      .cls-24 {
        fill: #fff;
        opacity: .7;
      }

      .cls-25 {
        fill: #768672;
      }

      .cls-26 {
        fill: url(#_未命名漸層_31);
      }

      .cls-11 {
        fill: url(#_未命名漸層_94);
      }

      .cls-27 {
        fill: url(#_未命名漸層_31-2);
      }

      .cls-12 {
        fill: url(#_未命名漸層_94-8);
      }

      .cls-28 {
        fill: url(#_未命名漸層_31-4);
      }

      .cls-13 {
        fill: url(#_未命名漸層_469-3);
      }

      .cls-29 {
        fill: url(#_未命名漸層_31-5);
      }

      .cls-14 {
        fill: url(#_未命名漸層_41-2);
      }

      .cls-15 {
        fill: url(#_未命名漸層_469-4);
      }

      .cls-16 {
        fill: url(#_未命名漸層_94-5);
      }

      .cls-30 {
        fill: #427251;
      }

      .cls-17 {
        fill: url(#_未命名漸層_469);
      }

      .cls-18 {
        fill: url(#_未命名漸層_41);
      }

      .cls-19 {
        fill: url(#_未命名漸層_94-10);
      }

      .cls-20 {
        fill: url(#_未命名漸層_469-5);
      }

      .cls-21 {
        fill: url(#_未命名漸層_41-3);
      }
    </style>
    <linearGradient id="_未命名漸層_31" data-name="未命名漸層 31" x1="122.41" y1="98.05" x2="179.56" y2="98.05" gradientUnits="userSpaceOnUse">
      <stop offset="0" stop-color="#fafbfa"/>
      <stop offset="1" stop-color="#dcecdc"/>
    </linearGradient>
    <linearGradient id="_未命名漸層_31-2" data-name="未命名漸層 31" x1="124.08" y1="124.32" x2="216.26" y2="124.32" xlink:href="#_未命名漸層_31"/>
    <linearGradient id="_未命名漸層_31-3" data-name="未命名漸層 31" x1="131.5" y1="156.06" x2="208.84" y2="156.06" xlink:href="#_未命名漸層_31"/>
    <linearGradient id="_未命名漸層_31-4" data-name="未命名漸層 31" x1="66.84" y1="195.44" x2="66.84" y2="0" xlink:href="#_未命名漸層_31"/>
    <linearGradient id="_未命名漸層_41" data-name="未命名漸層 41" x1="-25.71" y1="-271.86" x2="-33.86" y2="-255.56" gradientTransform="translate(95.58 333.5) rotate(-2.16) scale(1 1.01) skewX(-.46)" gradientUnits="userSpaceOnUse">
      <stop offset=".44" stop-color="#bbc191"/>
      <stop offset="1" stop-color="#cedbf5"/>
    </linearGradient>
    <linearGradient id="_未命名漸層_41-2" data-name="未命名漸層 41" x1="98.6" y1="-2797.69" x2="90.4" y2="-2781.29" gradientTransform="translate(936.08 2836.76) rotate(-19.58) scale(1.01) skewX(-.03)" xlink:href="#_未命名漸層_41"/>
    <linearGradient id="_未命名漸層_41-3" data-name="未命名漸層 41" x1="-126.55" y1="-1261.47" x2="-134.82" y2="-1244.94" gradientTransform="translate(350.35 1258) rotate(-8.62)" xlink:href="#_未命名漸層_41"/>
    <linearGradient id="_未命名漸層_41-4" data-name="未命名漸層 41" x1="-29.69" y1="-2768.75" x2="-37.96" y2="-2752.22" gradientTransform="translate(1002.48 2702.72) rotate(-19.05)" xlink:href="#_未命名漸層_41"/>
    <linearGradient id="_未命名漸層_41-5" data-name="未命名漸層 41" x1="-152.48" y1="-1961.73" x2="-160.73" y2="-1945.22" gradientTransform="translate(598.81 1880.78) rotate(-13.03)" xlink:href="#_未命名漸層_41"/>
    <linearGradient id="_未命名漸層_469" data-name="未命名漸層 469" x1="70.85" y1="114.04" x2="92.76" y2="114.04" gradientUnits="userSpaceOnUse">
      <stop offset="0" stop-color="#cedbf5"/>
      <stop offset=".92" stop-color="#f7ffff"/>
    </linearGradient>
    <linearGradient id="_未命名漸層_94" data-name="未命名漸層 94" x1="764.81" y1="-3558.07" x2="775.26" y2="-3558.07" gradientTransform="translate(-3478.04 904.95) rotate(65.1)" gradientUnits="userSpaceOnUse">
      <stop offset="0" stop-color="#fff" stop-opacity="0"/>
      <stop offset=".37" stop-color="#faffd0" stop-opacity=".54"/>
      <stop offset=".92" stop-color="#f7ffaf"/>
    </linearGradient>
    <linearGradient id="_未命名漸層_469-2" data-name="未命名漸層 469" x1="80.34" y1="149.48" x2="102.26" y2="149.48" xlink:href="#_未命名漸層_469"/>
    <linearGradient id="_未命名漸層_94-2" data-name="未命名漸層 94" x1="800.95" y1="-3551.76" x2="811.4" y2="-3551.76" xlink:href="#_未命名漸層_94"/>
    <linearGradient id="_未命名漸層_469-3" data-name="未命名漸層 469" x1="5.66" y1="23.13" x2="27.58" y2="23.13" xlink:href="#_未命名漸層_469"/>
    <linearGradient id="_未命名漸層_94-3" data-name="未命名漸層 94" x1="654.91" y1="-3537.21" x2="665.36" y2="-3537.21" xlink:href="#_未命名漸層_94"/>
    <linearGradient id="_未命名漸層_469-4" data-name="未命名漸層 469" x1="32.88" y1="49.61" x2="54.79" y2="49.61" xlink:href="#_未命名漸層_469"/>
    <linearGradient id="_未命名漸層_94-4" data-name="未命名漸層 94" x1="690.38" y1="-3550.75" x2="700.83" y2="-3550.75" xlink:href="#_未命名漸層_94"/>
    <linearGradient id="_未命名漸層_469-5" data-name="未命名漸層 469" x1="56.29" y1="79.86" x2="78.21" y2="79.86" xlink:href="#_未命名漸層_469"/>
    <linearGradient id="_未命名漸層_94-5" data-name="未命名漸層 94" x1="727.69" y1="-3559.26" x2="738.13" y2="-3559.26" xlink:href="#_未命名漸層_94"/>
    <linearGradient id="_未命名漸層_94-6" data-name="未命名漸層 94" x1="-544.54" y1="642.19" x2="-525.16" y2="642.19" gradientTransform="translate(429.42 -698.53) rotate(-11.8)" xlink:href="#_未命名漸層_94"/>
    <linearGradient id="_未命名漸層_94-7" data-name="未命名漸層 94" x1="-566.06" y1="611.25" x2="-546.69" y2="611.25" gradientTransform="translate(429.42 -698.53) rotate(-11.8)" xlink:href="#_未命名漸層_94"/>
    <linearGradient id="_未命名漸層_94-8" data-name="未命名漸層 94" x1="-526.47" y1="676.35" x2="-507.09" y2="676.35" gradientTransform="translate(429.42 -698.53) rotate(-11.8)" xlink:href="#_未命名漸層_94"/>
    <linearGradient id="_未命名漸層_94-9" data-name="未命名漸層 94" x1="-521.94" y1="713.5" x2="-502.57" y2="713.5" gradientTransform="translate(429.42 -698.53) rotate(-11.8)" xlink:href="#_未命名漸層_94"/>
    <linearGradient id="_未命名漸層_94-10" data-name="未命名漸層 94" x1="-519.41" y1="750.88" x2="-500.04" y2="750.88" gradientTransform="translate(429.42 -698.53) rotate(-11.8)" xlink:href="#_未命名漸層_94"/>
    <linearGradient id="_未命名漸層_31-5" data-name="未命名漸層 31" x1="128.91" y1="199.05" x2="128.91" y2="130.86" xlink:href="#_未命名漸層_31"/>
  </defs>
  <g id="_拆開的花" data-name="拆開的花">
    <g>
      <path class="cls-26" d="M128.91,169.48c.25-20.88,3.6-40.32,8.46-57.71-4.74,17.25-8.05,36.63-8.46,57.71,0,0,33.38-111.23,50.65-142.86-83.89,35.72-50.65,142.86-50.65,142.86Z"/>
      <g class="cls-4">
        <path class="cls-22" d="M128.91,169.48S162.29,58.26,179.56,26.62c0,0-48.98,57.62-50.65,142.86Z"/>
        <path class="cls-30" d="M128.91,169.48S95.67,62.34,179.56,26.62c0,0-49.65,60.05-50.65,142.86Z"/>
      </g>
    </g>
    <g>
      <path class="cls-27" d="M216.26,55.34c-102.41,19.05-91.82,135.25-91.89,137.86l7.72,.04h0s9.67,.05,9.67,.05c12.91-48.35,64.02-123.62,72.68-136.15,.35-.22,.69-.42,1-.61,.54-.78,.83-1.19,.83-1.19Z"/>
      <path class="cls-30" d="M214.85,56.54c.54-.78,.83-1.19,.83-1.19-102.41,19.05-91.82,135.25-91.89,137.86l8.29,.04c3.71-83.93,67.37-127.4,82.77-136.71Z"/>
      <path class="cls-25" d="M214.85,56.54c-15.4,9.31-79.07,52.79-82.77,136.71l9.67,.05c13.14-49.21,65.85-126.3,73.1-136.76Z"/>
    </g>
    <g>
      <path class="cls-23" d="M131.5,195.45c7.44-13.58,16.04-25.32,24.75-35.29-8.59,9.91-17.16,21.62-24.75,35.29,0,0,56.94-63.08,77.34-78.77-57.86-.9-77.34,78.77-77.34,78.77Z"/>
      <g class="cls-4">
        <path class="cls-22" d="M131.5,195.45s56.94-63.08,77.34-78.77c0,0-46.63,23.51-77.34,78.77Z"/>
        <path class="cls-30" d="M131.5,195.45s19.48-79.66,77.34-78.77c0,0-47.85,24.91-77.34,78.77Z"/>
      </g>
    </g>
    <g>
      <path class="cls-28" d="M121.49,107.06c-1.88-6.14-3.98-12.1-6.33-17.84C99.37,50.24,73.34,20.97,44.41,3.08c-.31-.19-.62-.35-.92-.48-.06-.08-.13-.15-.19-.22-1.39-1.53-3.31-1.82-5.26-2.14-6.12-.99-12.15,1.22-16.34,5.55-5.47-2.51-12.48-.83-15.87,5.04-2.37,4.1-2.08,8.71-.02,12.31l-1.8,5.13c.09,.22,.1,.25,.19,.46,.97,.13,2.11-.92,2.68-2.53,.09,.22,.2,.43,.3,.65l-1.64,4.67c.07,.17,.09,.23,.14,.36l-.05,.16c.08,.22,.09,.25,.17,.46,.51,.08,1.07-.27,1.55-.91,.38-.25,.74-.59,1.08-1.02l-1.45,4.72c.07,.21,.09,.25,.16,.46,1.19,.3,2.63-1.16,3.33-3.45,.12-.38,.21-.77,.27-1.15,.11,.08,.21,.16,.32,.23l-.68,2.82c.09,.2,.1,.24,.2,.44,.46,.01,.94-.33,1.35-.9,.07,.1,.11,.16,.21,.29,.28-.04,.55-.15,.81-.33l-.43,3.72c.11,.17,.13,.21,.24,.38,1.17-.18,2.29-2.11,2.56-4.54,0-.09,.02-.17,.02-.26,.11,.01,.21,.03,.32,.04l-.05,2.71c.13,.15,.15,.17,.28,.32,.7-.33,1.28-1.54,1.44-3.01,.19-.01,.37-.04,.55-.06,.32,2.32,1.4,4.13,2.53,4.31,.11-.17,.13-.21,.24-.38l-.41-3.62c.21,.11,.42,.2,.63,.23,.12-.17,.15-.21,.27-.38v-.07c.42,.67,.95,1.07,1.45,1.06,.09-.2,.11-.24,.2-.44l-.58-2.39c.1-.07,.2-.15,.3-.22,.05,.24,.11,.48,.19,.71,.7,2.28,2.14,3.74,3.33,3.45,.07-.21,.09-.25,.16-.46l-1.35-4.41c.36,.39,.74,.7,1.13,.89,.44,.52,.94,.8,1.4,.73,.08-.22,.09-.25,.17-.46l-.12-.4s.03-.07,.05-.12l-.69-1.98-.72-2.33c.09-.19,.17-.38,.25-.57,.61,1.35,1.62,2.2,2.49,2.09,.09-.22,.1-.25,.19-.46l-1.69-4.83c1.96-3.57,2.2-8.08-.12-12.11-.72-1.24-1.6-2.29-2.59-3.16,1.43-.95,3.02-1.65,4.7-2.02,3.21-.71,6.67-.27,9.61,1.21,.74,.37,1.46,.8,2.24,1.05,.6,.75,1.35,1.45,2.18,2,7.62,4.97,15.02,10.8,22.06,17.44-6.39-1.17-13.1,.32-18.38,4.23-1.74-.47-3.57-.56-5.34-.27-.55-.31-1.15-.57-1.78-.78-6.93-2.23-13.68,3.87-12.15,10.98,.59,2.75,2.24,4.84,4.36,6.11,.25,.69,.55,1.35,.92,1.99l-1.8,5.13c.09,.22,.1,.25,.19,.46,.97,.13,2.11-.92,2.68-2.53,.09,.22,.2,.43,.3,.65l-1.64,4.67c.07,.17,.09,.23,.14,.36l-.05,.16c.08,.22,.09,.25,.17,.46,.51,.08,1.07-.27,1.55-.91,.38-.25,.74-.59,1.08-1.02l-1.45,4.72c.07,.21,.09,.25,.16,.46,1.19,.3,2.63-1.16,3.33-3.45,.12-.38,.21-.77,.27-1.15,.11,.08,.21,.16,.32,.23l-.68,2.82c.09,.2,.1,.24,.2,.44,.46,.01,.94-.33,1.35-.9,.07,.1,.11,.16,.21,.29,.28-.04,.55-.15,.81-.33l-.43,3.72c.11,.17,.13,.21,.24,.38,1.17-.18,2.29-2.11,2.57-4.54,0-.09,.02-.17,.02-.26,.11,.01,.21,.03,.32,.04l-.05,2.71c.13,.15,.15,.17,.28,.32,.7-.33,1.28-1.54,1.44-3.01,.19-.01,.37-.04,.55-.06,.32,2.32,1.4,4.13,2.53,4.31,.11-.17,.13-.21,.24-.38l-.41-3.62c.21,.11,.42,.2,.63,.23,.12-.17,.15-.21,.27-.38v-.07c.42,.67,.95,1.07,1.45,1.06,.09-.2,.1-.24,.2-.44l-.58-2.39c.1-.07,.2-.15,.3-.22,.05,.24,.11,.48,.19,.71,.7,2.28,2.14,3.74,3.33,3.45,.07-.21,.09-.25,.16-.46l-1.35-4.41c.36,.39,.74,.7,1.13,.89,.44,.52,.94,.8,1.4,.73,.08-.22,.09-.25,.17-.46l-.12-.4s.03-.07,.05-.12l-.69-1.98-.72-2.33c.09-.19,.17-.38,.25-.57,.61,1.35,1.62,2.2,2.49,2.09,.09-.22,.1-.25,.19-.46l-1.69-4.83c1.96-3.57,2.2-8.08-.12-12.11-1.12-1.94-2.64-3.41-4.36-4.44,5.87-3.66,13.35-4.2,19.73-1.23,8.19,8.31,15.81,17.76,22.6,28.29-6.69-2.6-14.12-1.58-19.86,2.69-1.76-.85-3.68-1.25-5.6-1.22-.7-.47-1.49-.85-2.35-1.13-6.93-2.23-13.67,3.87-12.15,10.98,.41,1.91,1.34,3.51,2.58,4.73,.26,1.37,.75,2.68,1.43,3.88l-1.8,5.13c.09,.22,.1,.25,.19,.46,.97,.13,2.11-.92,2.68-2.53,.09,.22,.2,.43,.3,.65l-1.64,4.67c.07,.17,.09,.23,.14,.36l-.05,.16c.08,.22,.09,.25,.17,.46,.51,.08,1.07-.27,1.55-.91,.38-.25,.74-.59,1.08-1.02l-1.45,4.72c.07,.21,.09,.25,.16,.46,1.19,.3,2.63-1.16,3.33-3.45,.12-.38,.21-.77,.27-1.15,.11,.08,.21,.16,.32,.23l-.68,2.82c.09,.2,.1,.24,.2,.44,.46,.01,.94-.33,1.35-.9,.07,.1,.11,.16,.21,.29,.28-.04,.55-.15,.81-.33l-.43,3.72c.11,.17,.13,.21,.24,.38,1.17-.18,2.29-2.11,2.56-4.54,.01-.09,.02-.17,.02-.26,.11,.01,.21,.03,.32,.04l-.05,2.71c.13,.15,.15,.17,.28,.32,.7-.33,1.28-1.54,1.44-3.01,.19-.01,.37-.04,.55-.06,.32,2.32,1.4,4.13,2.53,4.31,.11-.17,.13-.21,.24-.38l-.41-3.62c.21,.11,.42,.2,.63,.23,.12-.17,.15-.21,.27-.38v-.07c.43,.67,.95,1.07,1.45,1.06,.09-.2,.1-.24,.2-.44l-.58-2.39c.1-.07,.2-.15,.3-.22,.05,.24,.11,.48,.19,.71,.7,2.28,2.14,3.74,3.33,3.45,.07-.21,.09-.25,.16-.46l-1.35-4.41c.36,.39,.74,.7,1.13,.89,.44,.52,.94,.8,1.4,.73,.08-.22,.09-.25,.17-.46l-.12-.4s.03-.07,.05-.12l-.69-1.98-.72-2.33c.09-.19,.17-.38,.25-.57,.61,1.35,1.62,2.2,2.49,2.09,.09-.22,.1-.25,.19-.46l-1.69-4.83c1.96-3.57,2.2-8.08-.12-12.11-.75-1.3-1.68-2.4-2.74-3.29,5.69-3.68,12.98-3.94,19.11-.38,.26,.15,.55,.23,.83,.24,5.67,9.33,10.7,19.45,14.91,30.33-7.51-3.35-16.03-2.37-22.53,2.49-2.97-1.54-6.46-1.8-9.6-.76-.38-.18-.78-.34-1.2-.48-6.93-2.23-13.68,3.87-12.15,10.98,.77,3.57,3.32,6.05,6.37,7.02,.06,.11,.11,.22,.17,.33l-1.8,5.13c.09,.22,.1,.25,.19,.46,.97,.13,2.11-.92,2.68-2.53,.09,.22,.2,.43,.3,.65l-1.64,4.67c.07,.17,.09,.23,.14,.36l-.05,.16c.08,.22,.09,.25,.17,.46,.51,.08,1.07-.27,1.55-.91,.38-.25,.74-.59,1.08-1.02l-1.45,4.72c.07,.21,.09,.25,.16,.46,1.19,.3,2.63-1.16,3.33-3.45,.12-.38,.21-.77,.27-1.15,.11,.08,.21,.16,.32,.23l-.68,2.82c.09,.2,.1,.24,.2,.44,.46,.01,.94-.33,1.35-.9,.07,.1,.11,.16,.21,.29,.28-.04,.55-.15,.81-.33l-.43,3.72c.11,.17,.13,.21,.24,.38,1.17-.18,2.29-2.11,2.56-4.54,0-.09,.02-.17,.02-.26,.11,.01,.21,.03,.32,.04l-.05,2.71c.13,.15,.15,.17,.28,.32,.7-.33,1.28-1.54,1.44-3.01,.19-.01,.37-.04,.55-.06,.32,2.32,1.4,4.13,2.53,4.31,.11-.17,.13-.21,.24-.38l-.41-3.62c.21,.11,.42,.2,.63,.23,.12-.17,.15-.21,.27-.38v-.07c.42,.67,.95,1.07,1.45,1.06,.09-.2,.1-.24,.2-.44l-.58-2.39c.1-.07,.2-.15,.3-.22,.05,.24,.11,.48,.19,.71,.7,2.28,2.14,3.74,3.33,3.45,.07-.21,.09-.25,.16-.46l-1.35-4.41c.36,.39,.74,.7,1.13,.89,.44,.52,.94,.8,1.4,.73,.08-.22,.09-.25,.17-.46l-.12-.4s.03-.07,.05-.12l-.69-1.98-.72-2.33c.09-.19,.17-.38,.25-.57,.61,1.35,1.62,2.2,2.49,2.09,.09-.22,.1-.25,.19-.46l-1.69-4.83c1.96-3.57,2.2-8.08-.12-12.11-.65-1.13-1.44-2.09-2.32-2.91,6.16-4.06,14.11-4.39,20.78-.5,.21,.12,.43,.2,.65,.24,3.98,10.85,7.15,22.42,9.38,34.51-7.03-3.41-15.06-2.94-21.51,1.02-3.48-3.09-8.39-3.85-12.57-2.28-.02,0-.04-.02-.07-.02-6.93-2.23-13.68,3.87-12.15,10.98,.72,3.37,3.05,5.77,5.86,6.84l-1.75,5c.09,.22,.1,.25,.19,.46,.97,.13,2.11-.92,2.68-2.53,.09,.22,.2,.43,.3,.65l-1.64,4.67c.07,.17,.09,.23,.14,.36l-.05,.16c.08,.22,.09,.25,.17,.46,.51,.08,1.07-.27,1.55-.91,.38-.25,.74-.59,1.08-1.02l-1.45,4.72c.07,.21,.09,.25,.16,.46,1.19,.3,2.63-1.16,3.33-3.45,.12-.38,.21-.77,.27-1.15,.11,.08,.21,.16,.32,.23l-.68,2.82c.09,.2,.1,.24,.2,.44,.46,.01,.94-.33,1.35-.9,.07,.1,.11,.16,.21,.29,.28-.04,.55-.15,.81-.33l-.43,3.72c.11,.17,.13,.21,.24,.38,1.17-.18,2.29-2.11,2.56-4.54,0-.09,.02-.17,.02-.26,.11,.01,.21,.03,.32,.04l-.05,2.71c.13,.15,.15,.17,.28,.32,.7-.33,1.28-1.54,1.44-3.01,.19-.01,.37-.04,.55-.06,.32,2.32,1.4,4.13,2.53,4.31,.11-.17,.13-.21,.24-.38l-.41-3.62c.21,.11,.42,.2,.63,.23,.12-.17,.15-.21,.27-.38v-.07c.42,.67,.95,1.07,1.45,1.06,.09-.2,.1-.24,.2-.44l-.58-2.39c.1-.07,.2-.15,.3-.22,.05,.24,.11,.48,.19,.71,.7,2.28,2.14,3.74,3.33,3.45,.07-.21,.09-.25,.16-.46l-1.35-4.41c.36,.39,.74,.7,1.13,.89,.44,.52,.94,.8,1.4,.73,.08-.22,.09-.25,.17-.46l-.12-.4s.03-.07,.05-.12l-.69-1.98-.72-2.33c.09-.19,.17-.38,.25-.57,.61,1.35,1.62,2.2,2.49,2.09,.09-.22,.1-.25,.19-.46l-1.69-4.83c1.96-3.57,2.2-8.08-.12-12.11-.15-.25-.3-.5-.46-.73,5.99-3.41,13.4-3.49,19.68,.16,.14,.08,.28,.13,.42,.18,.13,.04,.27,1.62,.3,1.82,.1,.63,.2,1.27,.29,1.9,.78,5.21,1.32,10.47,1.97,15.68,.79,6.35,.84,12.9,.65,19.29-.04,1.27,.12,2.56,.12,3.84,0,1.66-.21,3.3-.25,4.94-.04,1.79-.11,3.59-.24,5.38-.08,1.19-.19,2.39-.36,3.57h.05s0,.06,0,.09h5.63l-.77-53.13c-2.7-15.85-6.01-28.17-7.42-33.1Z"/>
      <path class="cls-25" d="M21.53,10.42c.08-.09,.16-.18,.23-.26,.66-.76,1.41-1.45,2.21-2.05,1.59-1.18,3.42-2.03,5.35-2.45,3.21-.71,6.67-.27,9.61,1.21,.85,.43,1.68,.94,2.6,1.17,.93,.22,2.02,.08,2.65-.63,1.28-1.46,.24-3.79-.86-5.01-1.39-1.53-3.31-1.82-5.26-2.14-7.34-1.19-14.57,2.22-18.63,8.39-.52,.79-.4,1.84,.21,2.27,.75,.53,1.39,.05,1.89-.49Z"/>
      <path class="cls-30" d="M115.18,89.23C99.4,50.25,73.36,20.98,44.43,3.09c-2.34-1.44-4.39-1.13-4.59,.58-.03,.2-.05,.4-.08,.6-.21,1.71,1.4,4.19,3.6,5.64,27.4,17.88,52.11,46.86,66.77,84.98,11.19,28.72,16.58,62.71,13.94,98.41h6.69c2.83-38.14-3.29-74.02-15.58-104.06Z"/>
      <path class="cls-18" d="M58.38,65.62c2.33-2.71,5.41-4.07,8.5-4.24-.27-.19-.54-.38-.84-.55l-.08-.04c-6.24-3.5-13.9,1.21-13.8,8.47v.09c.04,3.04,1.45,5.57,3.51,7.21-.83-3.64-.07-7.69,2.7-10.93Z"/>
      <path class="cls-14" d="M79.82,138.43c1.43-3.31,4.02-5.56,6.98-6.67-.32-.1-.64-.2-.98-.27l-.09-.02c-7.16-1.44-13.19,5.42-10.85,12.35l.03,.08c.98,2.9,3.13,4.89,5.64,5.83-1.93-3.24-2.44-7.35-.73-11.3Z"/>
      <path class="cls-21" d="M33.51,36.43c2.03-2.96,4.98-4.67,8.09-5.2-.3-.16-.59-.32-.91-.45l-.08-.03c-6.73-2.76-13.92,2.8-12.94,10v.09c.42,3.02,2.14,5.37,4.42,6.76-1.28-3.53-1-7.64,1.42-11.18Z"/>
      <path class="cls-6" d="M69.52,102.27c1.46-3.28,4.05-5.5,7.02-6.57-.32-.1-.64-.2-.98-.28l-.09-.02c-7.11-1.5-13.18,5.27-10.92,12.18l.03,.08c.95,2.9,3.07,4.89,5.56,5.85-1.9-3.24-2.36-7.33-.62-11.25Z"/>
      <path class="cls-9" d="M5.81,10.81c1.79-3.1,4.6-5.03,7.65-5.79-.31-.14-.61-.27-.94-.38l-.08-.03C5.53,2.39-1.2,8.47,.32,15.57l.02,.09c.64,2.97,2.53,5.18,4.91,6.39-1.54-3.41-1.58-7.53,.56-11.23Z"/>
      <path class="cls-25" d="M86.37,101.97c6.38-6.88,16.39-8.37,24.5-3.65,.79,.46,1.76,.32,2.2-.38h0c.44-.7,.07-1.79-.85-2.32-9.25-5.39-20.66-3.69-27.94,4.16-.72,.78-.76,1.92-.13,2.47h0c.63,.55,1.6,.39,2.22-.28Z"/>
      <g>
        <path class="cls-17" d="M91.28,117.62c1.72-3.57,1.93-8.08-.11-12.11h0c-4.16-8.23-14.57-8.23-18.73,0h0c-2.08,4.1-1.82,8.71-.02,12.31l-1.58,5.13c.08,.22,.09,.25,.17,.46,.85,.13,1.85-.92,2.35-2.54,.12-.38,.19-.77,.24-1.14,.13,.18,.27,.35,.41,.52l-1.83,5.95c.07,.21,.09,.25,.16,.46,1.19,.3,2.63-1.16,3.33-3.45,.12-.38,.21-.77,.27-1.15,.11,.08,.21,.16,.32,.23l-.68,2.82c.09,.2,.1,.24,.2,.44,.78,.02,1.62-.95,2.07-2.38,.15,.06,.29,.13,.44,.19l-.57,4.98c.11,.17,.13,.21,.24,.38,1.17-.18,2.29-2.11,2.56-4.54,0-.09,.02-.17,.02-.26,.11,.01,.21,.03,.32,.04l-.05,2.71c.13,.15,.15,.17,.28,.32,.7-.33,1.28-1.54,1.44-3.01,.19-.01,.37-.04,.55-.06,.32,2.32,1.4,4.13,2.53,4.31,.11-.17,.13-.21,.24-.38l-.51-4.5c.18-.07,.36-.15,.54-.23,.47,1.19,1.23,1.97,1.92,1.95,.09-.2,.11-.24,.2-.44l-.58-2.39c.1-.07,.2-.15,.3-.22,.05,.24,.11,.48,.19,.71,.7,2.28,2.14,3.74,3.33,3.45,.07-.21,.09-.25,.16-.46l-1.72-5.59c.13-.15,.25-.31,.37-.47,.04,.24,.1,.49,.18,.74,.5,1.62,1.5,2.67,2.35,2.54,.08-.22,.09-.25,.17-.46l-1.48-4.83Z"/>
        <path class="cls-24" d="M92.53,113.85c1.96-3.57,2.2-8.08-.12-12.11h0c-4.75-8.23-16.62-8.23-21.37,0h0c-2.37,4.1-2.08,8.71-.02,12.31l-1.8,5.13c.09,.22,.1,.25,.19,.46,.97,.13,2.11-.92,2.68-2.54,.13-.38,.22-.77,.27-1.14,.15,.18,.31,.35,.47,.52l-2.09,5.95c.08,.21,.1,.25,.19,.46,1.35,.3,3-1.16,3.8-3.45,.13-.38,.23-.77,.31-1.15,.12,.08,.24,.16,.37,.23l-.77,2.82c.1,.2,.12,.24,.22,.44,.88,.02,1.85-.95,2.36-2.38,.17,.06,.33,.13,.5,.19l-.65,4.98c.12,.17,.15,.21,.27,.38,1.34-.18,2.61-2.11,2.93-4.54,.01-.09,.02-.17,.03-.26,.12,.01,.24,.03,.37,.04l-.05,2.71c.15,.15,.17,.17,.32,.32,.8-.33,1.46-1.54,1.64-3.01,.21-.01,.42-.04,.63-.06,.36,2.32,1.6,4.13,2.89,4.31,.12-.17,.15-.21,.27-.38l-.59-4.5c.21-.07,.41-.15,.61-.23,.54,1.19,1.4,1.97,2.19,1.95,.1-.2,.12-.24,.22-.44l-.66-2.39c.12-.07,.23-.15,.35-.22,.06,.24,.13,.48,.21,.71,.8,2.28,2.44,3.74,3.8,3.45,.08-.21,.1-.25,.18-.46l-1.96-5.59c.14-.15,.28-.31,.42-.47,.05,.24,.11,.49,.2,.74,.57,1.62,1.71,2.67,2.68,2.54,.09-.22,.1-.25,.19-.46l-1.69-4.83Z"/>
        <path class="cls-11" d="M73.96,109.67c2.38-3.39,2.77-7.35,1.67-10.81-2.54,1.98-4.35,4.96-4.68,8.61h0c-.15,1.71,.04,3.34,.52,4.83,.92-.72,1.76-1.6,2.49-2.63h0Z"/>
      </g>
      <path class="cls-25" d="M96.62,140.26c6.38-6.88,16.39-8.37,24.5-3.65,.79,.46,1.76,.32,2.2-.38h0c.44-.7,.07-1.79-.85-2.32-9.25-5.39-20.66-3.69-27.94,4.16-.72,.78-.76,1.92-.13,2.47h0c.63,.55,1.6,.39,2.22-.28Z"/>
      <g>
        <path class="cls-1" d="M100.77,153.06c1.72-3.57,1.93-8.08-.11-12.11h0c-4.16-8.23-14.57-8.23-18.73,0h0c-2.08,4.1-1.82,8.71-.02,12.31l-1.58,5.13c.08,.22,.09,.25,.17,.46,.85,.13,1.85-.92,2.35-2.54,.12-.38,.19-.77,.24-1.14,.13,.18,.27,.35,.41,.52l-1.83,5.95c.07,.21,.09,.25,.16,.46,1.19,.3,2.63-1.16,3.33-3.45,.12-.38,.21-.77,.27-1.15,.11,.08,.21,.16,.32,.23l-.68,2.82c.09,.2,.1,.24,.2,.44,.78,.02,1.62-.95,2.07-2.38,.15,.06,.29,.13,.44,.19l-.57,4.98c.11,.17,.13,.21,.24,.38,1.17-.18,2.29-2.11,2.56-4.54,0-.09,.02-.17,.02-.26,.11,.01,.21,.03,.32,.04l-.05,2.71c.13,.15,.15,.17,.28,.32,.7-.33,1.28-1.54,1.44-3.01,.19-.01,.37-.04,.55-.06,.32,2.32,1.4,4.13,2.53,4.31,.11-.17,.13-.21,.24-.38l-.51-4.5c.18-.07,.36-.15,.54-.23,.47,1.19,1.23,1.97,1.92,1.95,.09-.2,.11-.24,.2-.44l-.58-2.39c.1-.07,.2-.15,.3-.22,.05,.24,.11,.48,.19,.71,.7,2.28,2.14,3.74,3.33,3.45,.07-.21,.09-.25,.16-.46l-1.72-5.59c.13-.15,.25-.31,.37-.47,.04,.24,.1,.49,.18,.74,.5,1.62,1.5,2.67,2.35,2.54,.08-.22,.09-.25,.17-.46l-1.48-4.83Z"/>
        <path class="cls-24" d="M102.02,149.29c1.96-3.57,2.2-8.08-.12-12.11h0c-4.75-8.23-16.62-8.23-21.37,0h0c-2.37,4.1-2.08,8.71-.02,12.31l-1.8,5.13c.09,.22,.1,.25,.19,.46,.97,.13,2.11-.92,2.68-2.54,.13-.38,.22-.77,.27-1.14,.15,.18,.31,.35,.47,.52l-2.09,5.95c.08,.21,.1,.25,.19,.46,1.35,.3,3-1.16,3.8-3.45,.13-.38,.23-.77,.31-1.15,.12,.08,.24,.16,.37,.23l-.77,2.82c.1,.2,.12,.24,.22,.44,.88,.02,1.85-.95,2.36-2.38,.17,.06,.33,.13,.5,.19l-.65,4.98c.12,.17,.15,.21,.27,.38,1.34-.18,2.61-2.11,2.93-4.54,.01-.09,.02-.17,.03-.26,.12,.01,.24,.03,.37,.04l-.05,2.71c.15,.15,.17,.17,.32,.32,.8-.33,1.46-1.54,1.64-3.01,.21-.01,.42-.04,.63-.06,.36,2.32,1.6,4.13,2.89,4.31,.12-.17,.15-.21,.27-.38l-.59-4.5c.21-.07,.41-.15,.61-.23,.54,1.19,1.4,1.97,2.19,1.95,.1-.2,.12-.24,.22-.44l-.66-2.39c.12-.07,.23-.15,.35-.22,.06,.24,.13,.48,.21,.71,.8,2.28,2.44,3.74,3.8,3.45,.08-.21,.1-.25,.18-.46l-1.96-5.59c.14-.15,.28-.31,.42-.47,.05,.24,.11,.49,.2,.74,.57,1.62,1.71,2.67,2.68,2.54,.09-.22,.1-.25,.19-.46l-1.69-4.83Z"/>
        <path class="cls-7" d="M83.45,145.11c2.38-3.39,2.77-7.35,1.67-10.81-2.54,1.98-4.35,4.96-4.68,8.61h0c-.15,1.71,.04,3.34,.52,4.83,.92-.72,1.76-1.6,2.49-2.63h0Z"/>
      </g>
      <path class="cls-25" d="M46.58,35.61c6.34-6.24,16.16-7.7,24.05-3.58,.77,.4,1.72,.27,2.16-.37h0c.44-.63,.1-1.6-.8-2.07-8.99-4.69-20.19-3.03-27.43,4.08-.72,.71-.77,1.73-.16,2.21h0c.61,.48,1.56,.33,2.18-.28Z"/>
      <path class="cls-25" d="M71.54,67.28c5.91-6.37,15.17-7.75,22.68-3.38,.73,.42,1.63,.3,2.04-.35h0c.41-.65,.07-1.65-.78-2.15-8.56-4.99-19.12-3.41-25.86,3.85-.67,.72-.7,1.78-.12,2.29h0c.58,.51,1.48,.36,2.05-.26Z"/>
      <g>
        <path class="cls-13" d="M26.1,26.72c1.72-3.57,1.93-8.08-.11-12.11h0c-4.16-8.23-14.57-8.23-18.73,0h0c-2.08,4.1-1.82,8.71-.02,12.31l-1.58,5.13c.08,.22,.09,.25,.17,.46,.85,.13,1.85-.92,2.35-2.54,.12-.38,.19-.77,.24-1.14,.13,.18,.27,.35,.41,.52l-1.83,5.95c.07,.21,.09,.25,.16,.46,1.19,.3,2.63-1.16,3.33-3.45,.12-.38,.21-.77,.27-1.15,.11,.08,.21,.16,.32,.23l-.68,2.82c.09,.2,.1,.24,.2,.44,.78,.02,1.62-.95,2.07-2.38,.15,.06,.29,.13,.44,.19l-.57,4.98c.11,.17,.13,.21,.24,.38,1.17-.18,2.29-2.11,2.56-4.54,0-.09,.02-.17,.02-.26,.11,.01,.21,.03,.32,.04l-.05,2.71c.13,.15,.15,.17,.28,.32,.7-.33,1.28-1.54,1.44-3.01,.19-.01,.37-.04,.55-.06,.32,2.32,1.4,4.13,2.53,4.31,.11-.17,.13-.21,.24-.38l-.51-4.5c.18-.07,.36-.15,.54-.23,.47,1.19,1.23,1.97,1.92,1.95,.09-.2,.11-.24,.2-.44l-.58-2.39c.1-.07,.2-.15,.3-.22,.05,.24,.11,.48,.19,.71,.7,2.28,2.14,3.74,3.33,3.45,.07-.21,.09-.25,.16-.46l-1.72-5.59c.13-.15,.25-.31,.37-.47,.04,.24,.1,.49,.18,.74,.5,1.62,1.5,2.67,2.35,2.54,.08-.22,.09-.25,.17-.46l-1.48-4.83Z"/>
        <path class="cls-24" d="M27.35,22.94c1.96-3.57,2.2-8.08-.12-12.11h0c-4.75-8.23-16.62-8.23-21.37,0h0c-2.37,4.1-2.08,8.71-.02,12.31l-1.8,5.13c.09,.22,.1,.25,.19,.46,.97,.13,2.11-.92,2.68-2.54,.13-.38,.22-.77,.27-1.14,.15,.18,.31,.35,.47,.52l-2.09,5.95c.08,.21,.1,.25,.19,.46,1.35,.3,3-1.16,3.8-3.45,.13-.38,.23-.77,.31-1.15,.12,.08,.24,.16,.37,.23l-.77,2.82c.1,.2,.12,.24,.22,.44,.88,.02,1.85-.95,2.36-2.38,.17,.06,.33,.13,.5,.19l-.65,4.98c.12,.17,.15,.21,.27,.38,1.34-.18,2.61-2.11,2.93-4.54,.01-.09,.02-.17,.03-.26,.12,.01,.24,.03,.37,.04l-.05,2.71c.15,.15,.17,.17,.32,.32,.8-.33,1.46-1.54,1.64-3.01,.21-.01,.42-.04,.63-.06,.36,2.32,1.6,4.13,2.89,4.31,.12-.17,.15-.21,.27-.38l-.59-4.5c.21-.07,.41-.15,.61-.23,.54,1.19,1.4,1.97,2.19,1.95,.1-.2,.12-.24,.22-.44l-.66-2.39c.12-.07,.23-.15,.35-.22,.06,.24,.13,.48,.21,.71,.8,2.28,2.44,3.74,3.8,3.45,.08-.21,.1-.25,.18-.46l-1.96-5.59c.14-.15,.28-.31,.42-.47,.05,.24,.11,.49,.2,.74,.57,1.62,1.71,2.67,2.68,2.54,.09-.22,.1-.25,.19-.46l-1.69-4.83Z"/>
        <path class="cls-5" d="M8.78,18.76c2.38-3.39,2.77-7.35,1.67-10.81-2.54,1.98-4.35,4.96-4.68,8.61h0c-.15,1.71,.04,3.34,.52,4.83,.92-.72,1.76-1.6,2.49-2.63h0Z"/>
      </g>
      <g>
        <path class="cls-15" d="M53.31,53.19c1.72-3.57,1.93-8.08-.11-12.11h0c-4.16-8.23-14.57-8.23-18.73,0h0c-2.08,4.1-1.82,8.71-.02,12.31l-1.58,5.13c.08,.22,.09,.25,.17,.46,.85,.13,1.85-.92,2.35-2.54,.12-.38,.19-.77,.24-1.14,.13,.18,.27,.35,.41,.52l-1.83,5.95c.07,.21,.09,.25,.16,.46,1.19,.3,2.63-1.16,3.33-3.45,.12-.38,.21-.77,.27-1.15,.11,.08,.21,.16,.32,.23l-.68,2.82c.09,.2,.1,.24,.2,.44,.78,.02,1.62-.95,2.07-2.38,.15,.06,.29,.13,.44,.19l-.57,4.98c.11,.17,.13,.21,.24,.38,1.17-.18,2.29-2.11,2.56-4.54,0-.09,.02-.17,.02-.26,.11,.01,.21,.03,.32,.04l-.05,2.71c.13,.15,.15,.17,.28,.32,.7-.33,1.28-1.54,1.44-3.01,.19-.01,.37-.04,.55-.06,.32,2.32,1.4,4.13,2.53,4.31,.11-.17,.13-.21,.24-.38l-.51-4.5c.18-.07,.36-.15,.54-.23,.47,1.19,1.23,1.97,1.92,1.95,.09-.2,.11-.24,.2-.44l-.58-2.39c.1-.07,.2-.15,.3-.22,.05,.24,.11,.48,.19,.71,.7,2.28,2.14,3.74,3.33,3.45,.07-.21,.09-.25,.16-.46l-1.72-5.59c.13-.15,.25-.31,.37-.47,.04,.24,.1,.49,.18,.74,.5,1.62,1.5,2.67,2.35,2.54,.08-.22,.09-.25,.17-.46l-1.48-4.83Z"/>
        <path class="cls-24" d="M54.56,49.42c1.96-3.57,2.2-8.08-.12-12.11h0c-4.75-8.23-16.62-8.23-21.37,0h0c-2.37,4.1-2.08,8.71-.02,12.31l-1.8,5.13c.09,.22,.1,.25,.19,.46,.97,.13,2.11-.92,2.68-2.54,.13-.38,.22-.77,.27-1.14,.15,.18,.31,.35,.47,.52l-2.09,5.95c.08,.21,.1,.25,.19,.46,1.35,.3,3-1.16,3.8-3.45,.13-.38,.23-.77,.31-1.15,.12,.08,.24,.16,.37,.23l-.77,2.82c.1,.2,.12,.24,.22,.44,.88,.02,1.85-.95,2.36-2.38,.17,.06,.33,.13,.5,.19l-.65,4.98c.12,.17,.15,.21,.27,.38,1.34-.18,2.61-2.11,2.93-4.54,.01-.09,.02-.17,.03-.26,.12,.01,.24,.03,.37,.04l-.05,2.71c.15,.15,.17,.17,.32,.32,.8-.33,1.46-1.54,1.64-3.01,.21-.01,.42-.04,.63-.06,.36,2.32,1.6,4.13,2.89,4.31,.12-.17,.15-.21,.27-.38l-.59-4.5c.21-.07,.41-.15,.61-.23,.54,1.19,1.4,1.97,2.19,1.95,.1-.2,.12-.24,.22-.44l-.66-2.39c.12-.07,.23-.15,.35-.22,.06,.24,.13,.48,.21,.71,.8,2.28,2.44,3.74,3.8,3.45,.08-.21,.1-.25,.18-.46l-1.96-5.59c.14-.15,.28-.31,.42-.47,.05,.24,.11,.49,.2,.74,.57,1.62,1.71,2.67,2.68,2.54,.09-.22,.1-.25,.19-.46l-1.69-4.83Z"/>
        <path class="cls-3" d="M35.99,45.24c2.38-3.39,2.77-7.35,1.67-10.81-2.54,1.98-4.35,4.96-4.68,8.61h0c-.15,1.71,.04,3.34,.52,4.83,.92-.72,1.76-1.6,2.49-2.63h0Z"/>
      </g>
      <g>
        <path class="cls-20" d="M76.72,83.45c1.72-3.57,1.93-8.08-.11-12.11h0c-4.16-8.23-14.57-8.23-18.73,0h0c-2.08,4.1-1.82,8.71-.02,12.31l-1.58,5.13c.08,.22,.09,.25,.17,.46,.85,.13,1.85-.92,2.35-2.54,.12-.38,.19-.77,.24-1.14,.13,.18,.27,.35,.41,.52l-1.83,5.95c.07,.21,.09,.25,.16,.46,1.19,.3,2.63-1.16,3.33-3.45,.12-.38,.21-.77,.27-1.15,.11,.08,.21,.16,.32,.23l-.68,2.82c.09,.2,.1,.24,.2,.44,.78,.02,1.62-.95,2.07-2.38,.15,.06,.29,.13,.44,.19l-.57,4.98c.11,.17,.13,.21,.24,.38,1.17-.18,2.29-2.11,2.56-4.54,0-.09,.02-.17,.02-.26,.11,.01,.21,.03,.32,.04l-.05,2.71c.13,.15,.15,.17,.28,.32,.7-.33,1.28-1.54,1.44-3.01,.19-.01,.37-.04,.55-.06,.32,2.32,1.4,4.13,2.53,4.31,.11-.17,.13-.21,.24-.38l-.51-4.5c.18-.07,.36-.15,.54-.23,.47,1.19,1.23,1.97,1.92,1.95,.09-.2,.11-.24,.2-.44l-.58-2.39c.1-.07,.2-.15,.3-.22,.05,.24,.11,.48,.19,.71,.7,2.28,2.14,3.74,3.33,3.45,.07-.21,.09-.25,.16-.46l-1.72-5.59c.13-.15,.25-.31,.37-.47,.04,.24,.1,.49,.18,.74,.5,1.62,1.5,2.67,2.35,2.54,.08-.22,.09-.25,.17-.46l-1.48-4.83Z"/>
        <path class="cls-24" d="M77.98,79.67c1.96-3.57,2.2-8.08-.12-12.11h0c-4.75-8.23-16.62-8.23-21.37,0h0c-2.37,4.1-2.08,8.71-.02,12.31l-1.8,5.13c.09,.22,.1,.25,.19,.46,.97,.13,2.11-.92,2.68-2.54,.13-.38,.22-.77,.27-1.14,.15,.18,.31,.35,.47,.52l-2.09,5.95c.08,.21,.1,.25,.19,.46,1.35,.3,3-1.16,3.8-3.45,.13-.38,.23-.77,.31-1.15,.12,.08,.24,.16,.37,.23l-.77,2.82c.1,.2,.12,.24,.22,.44,.88,.02,1.85-.95,2.36-2.38,.17,.06,.33,.13,.5,.19l-.65,4.98c.12,.17,.15,.21,.27,.38,1.34-.18,2.61-2.11,2.93-4.54,.01-.09,.02-.17,.03-.26,.12,.01,.24,.03,.37,.04l-.05,2.71c.15,.15,.17,.17,.32,.32,.8-.33,1.46-1.54,1.64-3.01,.21-.01,.42-.04,.63-.06,.36,2.32,1.6,4.13,2.89,4.31,.12-.17,.15-.21,.27-.38l-.59-4.5c.21-.07,.41-.15,.61-.23,.54,1.19,1.4,1.97,2.19,1.95,.1-.2,.12-.24,.22-.44l-.66-2.39c.12-.07,.23-.15,.35-.22,.06,.24,.13,.48,.21,.71,.8,2.28,2.44,3.74,3.8,3.45,.08-.21,.1-.25,.18-.46l-1.96-5.59c.14-.15,.28-.31,.42-.47,.05,.24,.11,.49,.2,.74,.57,1.62,1.71,2.67,2.68,2.54,.09-.22,.1-.25,.19-.46l-1.69-4.83Z"/>
        <path class="cls-16" d="M59.4,75.49c2.38-3.39,2.77-7.35,1.67-10.81-2.54,1.98-4.35,4.96-4.68,8.61h0c-.15,1.71,.04,3.34,.52,4.83,.92-.72,1.76-1.6,2.49-2.63h0Z"/>
      </g>
      <path class="cls-10" d="M27.6,40.73l.34,1.57c1.45,6.77,9.69,9.42,14.82,4.78l1.19-1.07c5.13-4.64,3.32-13.1-3.27-15.23l-1.52-.49c-6.59-2.13-13.01,3.68-11.55,10.45Z"/>
      <path class="cls-2" d="M.21,14.85l.34,1.57c1.45,6.77,9.69,9.42,14.82,4.78l1.19-1.07c5.13-4.64,3.32-13.1-3.27-15.23l-1.52-.49C5.17,2.28-1.25,8.08,.21,14.85Z"/>
      <path class="cls-12" d="M52.29,70.47l.34,1.57c1.45,6.77,9.69,9.42,14.82,4.78l1.19-1.07c5.13-4.64,3.32-13.1-3.27-15.23l-1.52-.49c-6.59-2.13-13.01,3.68-11.55,10.45Z"/>
      <path class="cls-8" d="M64.31,105.91l.34,1.57c1.45,6.77,9.69,9.42,14.82,4.78l1.19-1.07c5.13-4.64,3.32-13.1-3.27-15.23l-1.52-.49c-6.59-2.13-13.01,3.68-11.55,10.45Z"/>
      <path class="cls-19" d="M74.44,141.99l.34,1.57c1.45,6.77,9.69,9.42,14.82,4.78l1.19-1.07c5.13-4.64,3.32-13.1-3.27-15.23l-1.52-.49c-6.59-2.13-13.01,3.68-11.55,10.45Z"/>
      <path class="cls-29" d="M128.91,140.15h0s0,.04,0,.06c0-.04,0-.06,0-.06Z"/>
    </g>
  </g>
</svg>