<?xml version="1.0" encoding="UTF-8"?>
<svg id="_圖層_2" data-name="圖層 2" xmlns="http://www.w3.org/2000/svg" xmlns:xlink="http://www.w3.org/1999/xlink" viewBox="0 0 158.24 216.01">
  <defs>
    <style>
      .cls-1 {
        fill: url(#_未命名漸層_469-2);
      }

      .cls-1, .cls-2, .cls-3, .cls-4, .cls-5, .cls-6, .cls-7, .cls-8, .cls-9, .cls-10, .cls-11, .cls-12, .cls-13, .cls-14, .cls-15, .cls-16, .cls-17, .cls-18, .cls-19, .cls-20, .cls-21, .cls-22, .cls-23, .cls-24, .cls-25, .cls-26, .cls-27, .cls-28, .cls-29, .cls-30, .cls-31, .cls-32, .cls-33, .cls-34, .cls-35 {
        opacity: .5;
      }

      .cls-36, .cls-15 {
        fill: #fff;
      }

      .cls-2 {
        fill: url(#_未命名漸層_94-14);
      }

      .cls-3 {
        fill: url(#_未命名漸層_94-13);
      }

      .cls-4 {
        fill: url(#_未命名漸層_94-7);
      }

      .cls-5 {
        fill: url(#_未命名漸層_94-4);
      }

      .cls-6 {
        fill: url(#_未命名漸層_469-7);
      }

      .cls-7 {
        fill: url(#_未命名漸層_94-3);
      }

      .cls-8 {
        fill: url(#_未命名漸層_94-12);
      }

      .cls-9 {
        fill: url(#_未命名漸層_469-8);
      }

      .cls-10 {
        fill: url(#_未命名漸層_469-15);
      }

      .cls-11 {
        fill: url(#_未命名漸層_94-2);
      }

      .cls-12 {
        fill: url(#_未命名漸層_469-16);
      }

      .cls-13 {
        fill: url(#_未命名漸層_94-9);
      }

      .cls-14 {
        fill: url(#_未命名漸層_469-11);
      }

      .cls-16 {
        fill: url(#_未命名漸層_94-6);
      }

      .cls-17 {
        fill: url(#_未命名漸層_94-16);
      }

      .cls-18 {
        fill: url(#_未命名漸層_469-13);
      }

      .cls-19 {
        fill: url(#_未命名漸層_469-14);
      }

      .cls-37 {
        fill: #768672;
      }

      .cls-20 {
        fill: #836e57;
      }

      .cls-21 {
        fill: url(#_未命名漸層_94);
      }

      .cls-22 {
        fill: #ffe772;
      }

      .cls-23 {
        fill: url(#_未命名漸層_94-15);
      }

      .cls-24 {
        fill: url(#_未命名漸層_94-11);
      }

      .cls-25 {
        fill: url(#_未命名漸層_94-8);
      }

      .cls-26 {
        fill: url(#_未命名漸層_469-6);
      }

      .cls-27 {
        fill: url(#_未命名漸層_469-3);
      }

      .cls-28 {
        fill: url(#_未命名漸層_469-10);
      }

      .cls-29 {
        fill: url(#_未命名漸層_469-4);
      }

      .cls-30 {
        fill: url(#_未命名漸層_94-5);
      }

      .cls-31 {
        fill: url(#_未命名漸層_469-12);
      }

      .cls-38 {
        fill: #427251;
      }

      .cls-32 {
        fill: url(#_未命名漸層_469);
      }

      .cls-33 {
        fill: url(#_未命名漸層_469-9);
      }

      .cls-39 {
        fill: url(#_未命名漸層_25);
      }

      .cls-34 {
        fill: url(#_未命名漸層_94-10);
      }

      .cls-35 {
        fill: url(#_未命名漸層_469-5);
      }
    </style>
    <linearGradient id="_未命名漸層_25" data-name="未命名漸層 25" x1="79.12" y1="216.01" x2="79.12" y2="0" gradientUnits="userSpaceOnUse">
      <stop offset="0" stop-color="#f4f5ed"/>
      <stop offset="1" stop-color="#d8e2bc"/>
    </linearGradient>
    <linearGradient id="_未命名漸層_94" data-name="未命名漸層 94" x1="-2017.79" y1="1806.04" x2="-1999.73" y2="1806.04" gradientTransform="translate(394.42 -2616.82) rotate(-41.04)" gradientUnits="userSpaceOnUse">
      <stop offset="0" stop-color="#fff" stop-opacity="0"/>
      <stop offset=".37" stop-color="#faffd0" stop-opacity=".54"/>
      <stop offset=".92" stop-color="#f7ffaf"/>
    </linearGradient>
    <linearGradient id="_未命名漸層_94-2" data-name="未命名漸層 94" x1="-2003.46" y1="1809.72" x2="-1985.51" y2="1809.72" xlink:href="#_未命名漸層_94"/>
    <linearGradient id="_未命名漸層_94-3" data-name="未命名漸層 94" x1="-2001.58" y1="1795.25" x2="-1983.52" y2="1795.25" xlink:href="#_未命名漸層_94"/>
    <linearGradient id="_未命名漸層_94-4" data-name="未命名漸層 94" x1="-2015.8" y1="1791.56" x2="-1997.86" y2="1791.56" xlink:href="#_未命名漸層_94"/>
    <linearGradient id="_未命名漸層_469" data-name="未命名漸層 469" x1="-23.29" y1="109.65" x2="-16.18" y2="104.98" gradientTransform="translate(59.28 -36.72) rotate(-.79)" gradientUnits="userSpaceOnUse">
      <stop offset="0" stop-color="#cedbf5"/>
      <stop offset=".92" stop-color="#f7ffff"/>
    </linearGradient>
    <linearGradient id="_未命名漸層_469-2" data-name="未命名漸層 469" x1="-5190.04" y1="1571.3" x2="-5183.12" y2="1566.75" gradientTransform="translate(-1584.65 -5078.07) rotate(-91.1)" xlink:href="#_未命名漸層_469"/>
    <linearGradient id="_未命名漸層_469-3" data-name="未命名漸層 469" x1="-6141.96" y1="-4209.9" x2="-6135.06" y2="-4214.44" gradientTransform="translate(-6754.8 -2884.5) rotate(168.65)" xlink:href="#_未命名漸層_469"/>
    <linearGradient id="_未命名漸層_469-4" data-name="未命名漸層 469" x1="-842.81" y1="-4802.53" x2="-835.76" y2="-4807.17" gradientTransform="translate(-4596.96 1513.58) rotate(82.23)" xlink:href="#_未命名漸層_469"/>
    <linearGradient id="_未命名漸層_94-5" data-name="未命名漸層 94" x1="-412.74" y1="855.5" x2="-393.83" y2="855.5" gradientTransform="translate(329.76 -773.45) rotate(-11.8)" xlink:href="#_未命名漸層_94"/>
    <linearGradient id="_未命名漸層_94-6" data-name="未命名漸層 94" x1="-397.64" y1="858.48" x2="-378.87" y2="858.48" gradientTransform="translate(329.76 -773.45) rotate(-11.8)" xlink:href="#_未命名漸層_94"/>
    <linearGradient id="_未命名漸層_94-7" data-name="未命名漸層 94" x1="-394.73" y1="843.45" x2="-375.82" y2="843.45" gradientTransform="translate(329.76 -773.45) rotate(-11.8)" xlink:href="#_未命名漸層_94"/>
    <linearGradient id="_未命名漸層_94-8" data-name="未命名漸層 94" x1="-409.69" y1="840.47" x2="-390.92" y2="840.47" gradientTransform="translate(329.76 -773.45) rotate(-11.8)" xlink:href="#_未命名漸層_94"/>
    <linearGradient id="_未命名漸層_469-5" data-name="未命名漸層 469" x1="588.84" y1="-1653.53" x2="596.15" y2="-1658.34" gradientTransform="translate(-1222.78 1314.34) rotate(28.45)" xlink:href="#_未命名漸層_469"/>
    <linearGradient id="_未命名漸層_469-6" data-name="未命名漸層 469" x1="-3432.62" y1="2193.29" x2="-3425.31" y2="2188.48" gradientTransform="translate(-195.2 -3887.76) rotate(-61.87)" xlink:href="#_未命名漸層_469"/>
    <linearGradient id="_未命名漸層_469-7" data-name="未命名漸層 469" x1="-7066.16" y1="-2587" x2="-7058.85" y2="-2591.81" gradientTransform="translate(-5778.13 -4498.6) rotate(-162.12)" xlink:href="#_未命名漸層_469"/>
    <linearGradient id="_未命名漸層_469-8" data-name="未命名漸層 469" x1="-2522.31" y1="-5623.39" x2="-2515" y2="-5628.2" gradientTransform="translate(-6043.09 393.14) rotate(111.46)" xlink:href="#_未命名漸層_469"/>
    <linearGradient id="_未命名漸層_94-9" data-name="未命名漸層 94" x1="-1989.64" y1="1858.56" x2="-1970.35" y2="1858.56" gradientTransform="translate(375.16 -2621.08) rotate(-41.42)" xlink:href="#_未命名漸層_94"/>
    <linearGradient id="_未命名漸層_94-10" data-name="未命名漸層 94" x1="-1990.51" y1="1865.18" x2="-1971.22" y2="1865.18" gradientTransform="translate(375.16 -2621.08) rotate(-41.42)" xlink:href="#_未命名漸層_94"/>
    <linearGradient id="_未命名漸層_469-9" data-name="未命名漸層 469" x1="-7156.93" y1="-2839.39" x2="-7149.47" y2="-2844.3" gradientTransform="translate(-6054.67 -4483.72) rotate(-165.3)" xlink:href="#_未命名漸層_469"/>
    <linearGradient id="_未命名漸層_469-10" data-name="未命名漸層 469" x1="-3394.43" y1="-5926.37" x2="-3386.97" y2="-5931.28" gradientTransform="translate(-6673.39 -604.67) rotate(125.36)" xlink:href="#_未命名漸層_469"/>
    <linearGradient id="_未命名漸層_94-11" data-name="未命名漸層 94" x1="-6817.64" y1="-3019.67" x2="-6798.35" y2="-3019.67" gradientTransform="translate(-6598.27 -3161.01) rotate(-129.46) scale(1 -1)" xlink:href="#_未命名漸層_94"/>
    <linearGradient id="_未命名漸層_94-12" data-name="未命名漸層 94" x1="-6818.51" y1="-3013.06" x2="-6799.22" y2="-3013.06" gradientTransform="translate(-6598.27 -3161.01) rotate(-129.46) scale(1 -1)" xlink:href="#_未命名漸層_94"/>
    <linearGradient id="_未命名漸層_469-11" data-name="未命名漸層 469" x1="-415.57" y1="-4128.1" x2="-408.11" y2="-4133" gradientTransform="translate(45.5 -3980.97) rotate(-5.58) scale(1 -1)" xlink:href="#_未命名漸層_469"/>
    <linearGradient id="_未命名漸層_469-12" data-name="未命名漸層 469" x1="189.78" y1="-73.16" x2="197.24" y2="-78.07" gradientTransform="translate(41.57 -52.9) rotate(63.76) scale(1 -1)" xlink:href="#_未命名漸層_469"/>
    <linearGradient id="_未命名漸層_94-13" data-name="未命名漸層 94" x1="-6994.72" y1="-301.23" x2="-6968.67" y2="-301.23" gradientTransform="translate(-3923.58 -5631.37) rotate(-126.98)" xlink:href="#_未命名漸層_94"/>
    <linearGradient id="_未命名漸層_94-14" data-name="未命名漸層 94" x1="-6995.89" y1="-292.29" x2="-6969.84" y2="-292.29" gradientTransform="translate(-3923.58 -5631.37) rotate(-126.98)" xlink:href="#_未命名漸層_94"/>
    <linearGradient id="_未命名漸層_469-13" data-name="未命名漸層 469" x1="-3239.13" y1="-5845.98" x2="-3229.06" y2="-5852.61" gradientTransform="translate(-6644.27 108.4) rotate(118.82)" xlink:href="#_未命名漸層_469"/>
    <linearGradient id="_未命名漸層_469-14" data-name="未命名漸層 469" x1="799.42" y1="-3310.03" x2="809.49" y2="-3316.66" gradientTransform="translate(-3033.29 1654.58) rotate(49.47)" xlink:href="#_未命名漸層_469"/>
    <linearGradient id="_未命名漸層_94-15" data-name="未命名漸層 94" x1="-3880.16" y1="2276.39" x2="-3854.11" y2="2276.39" gradientTransform="translate(-378.83 -4421.43) rotate(-65.87)" xlink:href="#_未命名漸層_94"/>
    <linearGradient id="_未命名漸層_94-16" data-name="未命名漸層 94" x1="-3881.34" y1="2285.32" x2="-3855.29" y2="2285.32" gradientTransform="translate(-378.83 -4421.43) rotate(-65.87)" xlink:href="#_未命名漸層_94"/>
    <linearGradient id="_未命名漸層_469-15" data-name="未命名漸層 469" x1="-6867.24" y1="-4062.34" x2="-6857.17" y2="-4068.97" gradientTransform="translate(-6718.72 -4030.19) rotate(179.92)" xlink:href="#_未命名漸層_469"/>
    <linearGradient id="_未命名漸層_469-16" data-name="未命名漸層 469" x1="-2149.53" y1="-6075.57" x2="-2139.46" y2="-6082.2" gradientTransform="translate(-6327.72 -121.62) rotate(110.58)" xlink:href="#_未命名漸層_469"/>
  </defs>
  <g id="_花" data-name="花">
    <g>
      <g>
        <path class="cls-36" d="M140.71,123.12c-1.99-.79-4.15-1.16-6.34-1.05l4.45-4.47s0-.01-.01-.02c-.83-1.41-3.98-.07-7.03,2.99-.17,.17-.33,.33-.48,.5-.01-3.06-.97-6.01-2.65-8.47-1.33-6.22-7.16-11.06-14.14-10.38,1.7-1.73,3.22-3.7,4.53-5.91,1.24,.72,2.64,1.16,4.07,1.27,.22,.12,.44,.24,.68,.34h0c6.22,2.89,12.89,1.28,17.24-2.86,5.94-2.45,9.81-9.08,7.86-16.07-.27-.95-.62-1.83-1.05-2.65,.02-.43,.03-.86,.02-1.3h0c-.21-8.25-6.55-14.19-13.8-15-1.48-1.78-3.44-3.19-5.76-4.01,.39,.09,.78,.18,1.19,.25h0c9.11,1.64,17.27-2.76,21.52-9.67,6.91-5.24,9.68-15.23,4.72-23.68-.67-1.15-1.44-2.18-2.29-3.1-.12-.56-.25-1.13-.42-1.7h0c-3.12-10.69-13.44-16.26-23.18-14.83-3.7-2.63-8.42-3.91-13.51-3.04-8.78,1.51-14.41,8.72-15.03,16.53-3.1,6.22-3.17,13.95,1.12,20.63h0c.81,1.26,1.72,2.4,2.71,3.41,.33,1.79,1.07,3.57,2.26,5.2h0c.88,1.2,1.9,2.18,3.02,2.96-.95-.18-2.13,.57-2.99,2.06-10.56,18.36-19.68,37.9-27.21,58.11-9.75-6.73-14.56-18.53-12.52-30,1.22,.91,2.59,1.62,4.03,2.11,4.06,2.69,9.92,3.19,15.06,.33,7.58-4.23,8.71-13.11,3.39-18.23-.41-1.38-1.03-2.7-1.85-3.91,.53,.07,1.08,.12,1.65,.15,4.49,.17,8.32-1.45,8.55-3.62,0,0,0-.02,0-.03l-5.95-.23c1.59-1.4,2.85-3.13,3.7-5.05,4.99-4.3,6.08-11.55,1.17-16.47-3.09-3.09-7.47-4.18-11.63-3.59-3.55-.68-7.31-.03-10.45,1.93l1.3-3.81s-.01,0-.02-.01c-1.41-.71-3.61,1.79-4.9,5.57-.09,.28-.18,.55-.26,.83-1.61-2.84-4.14-5.03-7.09-6.25-4.43-3.75-11.82-4.4-17.51-.37-6.62,4.68-6.96,12.84-1.96,17.53,.33,1.25,.83,2.46,1.5,3.59l-8.02-3.11s-.01,.02-.01,.03c-1.07,2,1.34,4.89,5.39,6.46,.05,.02,.1,.04,.15,.05-1.49,1.03-2.76,2.33-3.76,3.81-5.52,3.52-7.92,10.38-4.22,15.96,2.34,3.53,6.31,5.31,10.43,5.44,4.51,1.94,9.84,1.49,13.96-1.35l-1.32,4.28s.01,0,.02,0c1.44,.62,3.57-1.98,4.75-5.82,.04-.13,.07-.26,.11-.38,.09,.16,.19,.31,.29,.46-3.83,14.14,1.78,29.27,14.04,37.46,.16,.11,.33,.2,.5,.27-4.54,12.6-8.48,25.44-11.75,38.41-2.05-1.74-4.68-2.9-7.71-3.12-2.8-.2-5.37,.45-7.54,1.68-3.31-3.84-5.91-8.28-7.45-12.9,.77-.23,1.75-1.02,2.8-2.25,3.87-1.28,6.67-4.27,7.94-7.82,.49-.49,.96-1.01,1.41-1.56h0c5.83-7.19,5.92-16.45,1.93-23.51-1.25-8.59-8.66-15.83-18.45-15.58-1.33,.03-2.6,.21-3.82,.5-.55-.17-1.11-.33-1.69-.46h0c-10.87-2.44-20.73,3.9-24.19,13.13-4.09,1.97-7.5,5.48-9.19,10.36-2.92,8.42,.67,16.83,7.21,21.15,3.95,5.72,10.68,9.52,18.6,8.98h0c1.5-.1,2.93-.35,4.29-.73,1.73,.57,3.64,.79,5.64,.53h0c1.71-.22,3.26-.75,4.63-1.52,1.74,4.72,4.44,9.24,7.81,13.21-7.18-.19-14.19,4.65-15.69,12.64h0c-.08,.43-.14,.86-.18,1.28-.55,.74-1.05,1.56-1.46,2.45-3.04,6.59-.27,13.75,5.21,17.11,3.64,4.78,9.97,7.43,16.57,5.56h0c.25-.07,.48-.15,.72-.23,1.69,.14,3.41-.18,4.94-.92-1.33,8.8-2.35,17.61-3.04,26.39h5.58c.86-10.8,2.23-21.71,4.08-32.62,1.12-.97,2.04-2.24,2.63-3.78h0s.01-.04,.02-.06c1.43-1.25,2.68-2.8,3.63-4.66h0c1.99-3.88,2.16-8.02,1-11.68,8.8-.51,17.65-3.34,25.5-7.89,.84,.07,1.69,.08,2.54,.01l-4.6,4.88s0,.01,.01,.02c.9,1.34,4.05-.15,7.04-3.32,.05-.05,.1-.11,.14-.16,.1,3.14,1.19,6.14,3.02,8.61,1.68,5.35,6.71,9.51,13.08,9.26,6.81-.26,11.71-5.41,12.55-11.37,1.34-2.6,1.95-5.58,1.63-8.58,3.7,2.4,7.74,2.72,9.05,.72,0,0,.01-.02,.02-.03l-4.98-3.27c2.51-.53,4.84-1.69,6.78-3.34,5.95-2.07,10.09-8.35,8.56-15.29-1.42-6.46-7.06-10.33-12.88-10.34Zm-29.33-67.68c1.1-1.91,1.22-4.37,.25-5.52-.1-.11-.19-.22-.29-.33,.62,.36,1.26,.65,1.92,.89h-.24s0,.03,0,.03c.04,.91,1.48,1.66,3.72,2.13,1.44,1.33,3.11,2.25,4.86,2.79-5.03,.79-8.97,4.37-10.55,8.89-3.39,3.87-4.91,9.39-3.09,14.98h0c.64,1.99,1.63,3.71,2.85,5.17,0,.02,0,.04,.01,.06h0c.52,2.51,1.94,4.49,3.79,5.79,.27,1.14,.72,2.17,1.32,3.07-.05,.07-.1,.13-.14,.2-5.94,10.2-17.18,14.79-28.26,11.89,6.8-17.45,14.78-34.28,23.86-50.05Zm-39.77,103.1c-.09,0-.19,.01-.28,.02-.06-.22-.12-.43-.19-.64,3.92-16.41,8.9-32.67,14.86-48.46,6.26,1.85,12.6,1.58,18.26-.55-.9,1.61-1.45,3.41-1.63,5.25-1.06,2.05-1.66,4.33-1.71,6.68l-3.73-5.11s-.02,.01-.03,.02c-1.95,1.42-1.4,5.48,1.21,9.07,.06,.08,.13,.16,.19,.24-2.06,.2-4.04,.82-5.83,1.8-6.25,.93-11.5,6.34-11.27,13.47,.2,6.27,4.57,10.95,9.9,12.33,.45,.31,.91,.6,1.39,.85-6.68,3.21-13.98,5.03-21.15,5.02Z"/>
        <path class="cls-39" d="M140.71,123.12c-1.99-.79-4.15-1.16-6.34-1.05l4.45-4.47s0-.01-.01-.02c-.83-1.41-3.98-.07-7.03,2.99-.17,.17-.33,.33-.48,.5-.01-3.06-.97-6.01-2.65-8.47-1.33-6.22-7.16-11.06-14.14-10.38,1.7-1.73,3.22-3.7,4.53-5.91,1.24,.72,2.64,1.16,4.07,1.27,.22,.12,.44,.24,.68,.34h0c6.22,2.89,12.89,1.28,17.24-2.86,5.94-2.45,9.81-9.08,7.86-16.07-.27-.95-.62-1.83-1.05-2.65,.02-.43,.03-.86,.02-1.3h0c-.21-8.25-6.55-14.19-13.8-15-1.48-1.78-3.44-3.19-5.76-4.01,.39,.09,.78,.18,1.19,.25h0c9.11,1.64,17.27-2.76,21.52-9.67,6.91-5.24,9.68-15.23,4.72-23.68-.67-1.15-1.44-2.18-2.29-3.1-.12-.56-.25-1.13-.42-1.7h0c-3.12-10.69-13.44-16.26-23.18-14.83-3.7-2.63-8.42-3.91-13.51-3.04-8.78,1.51-14.41,8.72-15.03,16.53-3.1,6.22-3.17,13.95,1.12,20.63h0c.81,1.26,1.72,2.4,2.71,3.41,.33,1.79,1.07,3.57,2.26,5.2h0c.88,1.2,1.9,2.18,3.02,2.96-.95-.18-2.13,.57-2.99,2.06-10.56,18.36-19.68,37.9-27.21,58.11-9.75-6.73-14.56-18.53-12.52-30,1.22,.91,2.59,1.62,4.03,2.11,4.06,2.69,9.92,3.19,15.06,.33,7.58-4.23,8.71-13.11,3.39-18.23-.41-1.38-1.03-2.7-1.85-3.91,.53,.07,1.08,.12,1.65,.15,4.49,.17,8.32-1.45,8.55-3.62,0,0,0-.02,0-.03l-5.95-.23c1.59-1.4,2.85-3.13,3.7-5.05,4.99-4.3,6.08-11.55,1.17-16.47-3.09-3.09-7.47-4.18-11.63-3.59-3.55-.68-7.31-.03-10.45,1.93l1.3-3.81s-.01,0-.02-.01c-1.41-.71-3.61,1.79-4.9,5.57-.09,.28-.18,.55-.26,.83-1.61-2.84-4.14-5.03-7.09-6.25-4.43-3.75-11.82-4.4-17.51-.37-6.62,4.68-6.96,12.84-1.96,17.53,.33,1.25,.83,2.46,1.5,3.59l-8.02-3.11s-.01,.02-.01,.03c-1.07,2,1.34,4.89,5.39,6.46,.05,.02,.1,.04,.15,.05-1.49,1.03-2.76,2.33-3.76,3.81-5.52,3.52-7.92,10.38-4.22,15.96,2.34,3.53,6.31,5.31,10.43,5.44,4.51,1.94,9.84,1.49,13.96-1.35l-1.32,4.28s.01,0,.02,0c1.44,.62,3.57-1.98,4.75-5.82,.04-.13,.07-.26,.11-.38,.09,.16,.19,.31,.29,.46-3.83,14.14,1.78,29.27,14.04,37.46,.16,.11,.33,.2,.5,.27-4.54,12.6-8.48,25.44-11.75,38.41-2.05-1.74-4.68-2.9-7.71-3.12-2.8-.2-5.37,.45-7.54,1.68-3.31-3.84-5.91-8.28-7.45-12.9,.77-.23,1.75-1.02,2.8-2.25,3.87-1.28,6.67-4.27,7.94-7.82,.49-.49,.96-1.01,1.41-1.56h0c5.83-7.19,5.92-16.45,1.93-23.51-1.25-8.59-8.66-15.83-18.45-15.58-1.33,.03-2.6,.21-3.82,.5-.55-.17-1.11-.33-1.69-.46h0c-10.87-2.44-20.73,3.9-24.19,13.13-4.09,1.97-7.5,5.48-9.19,10.36-2.92,8.42,.67,16.83,7.21,21.15,3.95,5.72,10.68,9.52,18.6,8.98h0c1.5-.1,2.93-.35,4.29-.73,1.73,.57,3.64,.79,5.64,.53h0c1.71-.22,3.26-.75,4.63-1.52,1.74,4.72,4.44,9.24,7.81,13.21-7.18-.19-14.19,4.65-15.69,12.64h0c-.08,.43-.14,.86-.18,1.28-.55,.74-1.05,1.56-1.46,2.45-3.04,6.59-.27,13.75,5.21,17.11,3.64,4.78,9.97,7.43,16.57,5.56h0c.25-.07,.48-.15,.72-.23,1.69,.14,3.41-.18,4.94-.92-1.33,8.8-2.35,17.61-3.04,26.39h5.58c.86-10.8,2.23-21.71,4.08-32.62,1.12-.97,2.04-2.24,2.63-3.78h0s.01-.04,.02-.06c1.43-1.25,2.68-2.8,3.63-4.66h0c1.99-3.88,2.16-8.02,1-11.68,8.8-.51,17.65-3.34,25.5-7.89,.84,.07,1.69,.08,2.54,.01l-4.6,4.88s0,.01,.01,.02c.9,1.34,4.05-.15,7.04-3.32,.05-.05,.1-.11,.14-.16,.1,3.14,1.19,6.14,3.02,8.61,1.68,5.35,6.71,9.51,13.08,9.26,6.81-.26,11.71-5.41,12.55-11.37,1.34-2.6,1.95-5.58,1.63-8.58,3.7,2.4,7.74,2.72,9.05,.72,0,0,.01-.02,.02-.03l-4.98-3.27c2.51-.53,4.84-1.69,6.78-3.34,5.95-2.07,10.09-8.35,8.56-15.29-1.42-6.46-7.06-10.33-12.88-10.34Zm-29.33-67.68c1.1-1.91,1.22-4.37,.25-5.52-.1-.11-.19-.22-.29-.33,.62,.36,1.26,.65,1.92,.89h-.24s0,.03,0,.03c.04,.91,1.48,1.66,3.72,2.13,1.44,1.33,3.11,2.25,4.86,2.79-5.03,.79-8.97,4.37-10.55,8.89-3.39,3.87-4.91,9.39-3.09,14.98h0c.64,1.99,1.63,3.71,2.85,5.17,0,.02,0,.04,.01,.06h0c.52,2.51,1.94,4.49,3.79,5.79,.27,1.14,.72,2.17,1.32,3.07-.05,.07-.1,.13-.14,.2-5.94,10.2-17.18,14.79-28.26,11.89,6.8-17.45,14.78-34.28,23.86-50.05Zm-39.77,103.1c-.09,0-.19,.01-.28,.02-.06-.22-.12-.43-.19-.64,3.92-16.41,8.9-32.67,14.86-48.46,6.26,1.85,12.6,1.58,18.26-.55-.9,1.61-1.45,3.41-1.63,5.25-1.06,2.05-1.66,4.33-1.71,6.68l-3.73-5.11s-.02,.01-.03,.02c-1.95,1.42-1.4,5.48,1.21,9.07,.06,.08,.13,.16,.19,.24-2.06,.2-4.04,.82-5.83,1.8-6.25,.93-11.5,6.34-11.27,13.47,.2,6.27,4.57,10.95,9.9,12.33,.45,.31,.91,.6,1.39,.85-6.68,3.21-13.98,5.03-21.15,5.02Z"/>
      </g>
      <path class="cls-37" d="M84.63,104.56c11.98,4.61,24.7,.14,31.16-10.95,.63-1.07,1.86-1.53,2.83-.92h0c.97,.61,1.25,2.2,.52,3.46-7.37,12.65-21.88,17.75-35.54,12.49-1.36-.52-2.14-1.94-1.76-3.02h0c.38-1.09,1.62-1.5,2.78-1.06Z"/>
      <path class="cls-37" d="M80.58,109.43c-11.1-7.41-15.98-21.31-11.97-34.04,.39-1.24-.07-2.59-1.15-3.04h0c-1.07-.45-2.43,.33-2.88,1.78-4.58,14.51,.99,30.37,13.65,38.82,1.26,.84,2.81,.61,3.36-.42h0c.56-1.03,.07-2.37-1.01-3.09Z"/>
      <path class="cls-37" d="M114.47,134.18c-8.57,14.42-26.07,24.37-42.85,24.36-1.63,0-3.34,.95-3.83,2.26h0c-.49,1.31,.65,2.49,2.55,2.49,19.14,.01,39.09-11.33,48.87-27.78,.97-1.64,.53-3.22-.84-3.47h0c-1.38-.25-3.07,.73-3.9,2.13Z"/>
      <path class="cls-37" d="M43.64,135.08c2.9,11.44,12.55,22.12,23.64,26.15,1.08,.39,2.02,1.42,2.09,2.39h0c.07,.97-.91,1.47-2.16,1.01-12.65-4.6-23.66-16.77-26.96-29.82-.33-1.3,.27-2.22,1.22-2.05h0c.96,.17,1.89,1.21,2.17,2.32Z"/>
      <path class="cls-38" d="M56.29,216h5.58c4.35-54.97,21.96-112.66,49.51-160.56,1.1-1.91,1.22-4.38,.25-5.52-.11-.13-.23-.27-.34-.4-.97-1.14-2.71-.46-3.86,1.53-28.57,49.66-46.62,107.96-51.14,164.95Z"/>
      <g>
        <g>
          <path class="cls-20" d="M82.26,55.37c-.23,2.17,3.22,4.07,7.71,4.24,4.49,.17,8.32-1.45,8.55-3.62,0,0,0-.02,0-.03l-16.25-.62s0,.02,0,.03Z"/>
          <path class="cls-20" d="M59.04,81.21c1.44,.62,3.57-1.98,4.75-5.82,1.18-3.83,.97-7.44-.48-8.06,0,0-.01,0-.02,0l-4.27,13.88s.01,0,.02,0Z"/>
          <path class="cls-20" d="M38.38,46.56c-1.07,2,1.34,4.89,5.39,6.46,4.05,1.57,8.21,1.22,9.28-.78,0,0,0-.02,.01-.03l-14.67-5.68s-.01,.02-.01,.03Z"/>
          <path class="cls-20" d="M76.64,28.75c-1.41-.71-3.61,1.79-4.9,5.57-1.29,3.78-1.19,7.42,.23,8.13,0,0,.01,0,.02,0l4.67-13.69s-.01,0-.02,0Z"/>
          <g>
            <path class="cls-15" d="M52.27,50.52l-1.42,.06c-10.96,.45-17.21,12.71-11.15,21.85l.7,1.06c5.62,8.48,18.11,8.38,23.59-.2l.71-1.12c6.14-9.59-1.07-22.12-12.44-21.65Z"/>
            <path class="cls-15" d="M61.86,66.88v1.26c-.07,10.75,11.46,17.6,20.87,12.41l1.23-.68c10.06-5.55,9.59-20.16-.79-25.06l-1.22-.58c-9.31-4.39-20.03,2.36-20.09,12.65Z"/>
            <path class="cls-15" d="M82.92,59.3l1.42-.06c10.96-.45,17.21-12.71,11.15-21.85l-.7-1.06c-5.62-8.48-18.11-8.38-23.59,.2l-.71,1.12c-6.14,9.59,1.07,22.12,12.44,21.65Z"/>
            <path class="cls-15" d="M73.33,42.94v-1.26c.07-10.75-11.46-17.6-20.87-12.41l-1.23,.68c-10.06,5.55-9.59,20.16,.79,25.06l1.22,.58c9.31,4.39,20.03-2.36,20.09-12.65Z"/>
          </g>
          <g>
            <path class="cls-21" d="M59.82,57.04l-.66,.52c-5.53,4.36-3.76,13.15,3.02,15.03l.81,.23c6.17,1.71,11.98-3.68,10.73-9.97l-.15-.75c-1.26-6.29-8.71-9.04-13.75-5.06Z"/>
            <path class="cls-11" d="M71.56,63.7l.55,.56c4.34,4.4,11.77,2.91,14.08-2.82l.3-.73c2.56-6.35-2.96-13-9.67-11.64l-.85,.17c-6.7,1.35-9.22,9.6-4.42,14.46Z"/>
            <path class="cls-7" d="M75.37,52.78l.66-.52c5.53-4.36,3.76-13.15-3.02-15.03l-.81-.23c-6.17-1.71-11.98,3.68-10.73,9.97l.15,.75c1.26,6.29,8.71,9.04,13.75,5.06Z"/>
            <path class="cls-5" d="M63.64,46.12l-.55-.56c-4.34-4.4-11.77-2.91-14.08,2.82l-.3,.73c-2.56,6.35,2.96,13,9.67,11.64l.85-.17c6.7-1.35,9.22-9.6,4.42-14.46Z"/>
          </g>
          <g>
            <path class="cls-20" d="M64.84,57.04c1.76-.53,2.58-2.8,1.84-5.05-.75-2.26-2.78-3.66-4.55-3.12,0,0-.02,0-.02,0l2.71,8.18s.02,0,.02,0Z"/>
            <path class="cls-22" d="M65.35,56.64c1.83,.05,3.49-1.85,3.71-4.24s-1.08-4.36-2.91-4.41c0,0-.02,0-.02,0l-.8,8.65s.02,0,.02,0Z"/>
            <path class="cls-22" d="M66.63,56.97c1.39,1,3.94,.27,5.7-1.62,1.75-1.89,2.05-4.23,.66-5.23,0,0-.01,0-.02-.01l-6.35,6.84s.01,0,.02,.01Z"/>
            <path class="cls-20" d="M66.03,56.72c1.69,.55,3.91-.83,4.94-3.08,1.04-2.25,.51-4.52-1.18-5.07,0,0-.02,0-.02,0l-3.76,8.15s.01,0,.02,0Z"/>
          </g>
        </g>
        <path class="cls-32" d="M40.41,63.73h0c.02-3.48,1.66-6.52,4.17-8.73-8.46,2.06-13.21,10.94-8.63,17.84h0c4.45,6.71,14.82,7.16,20.84,1.77-8.05,2.04-16.41-2.95-16.37-10.87Z"/>
        <path class="cls-1" d="M76.72,78.16h0c-3.92,.18-7.28-1.1-9.66-3.2,1.94,7.4,11.72,11.12,19.72,6.65h0c7.78-4.34,8.76-13.58,2.96-18.62,1.93,7.04-4.09,14.76-13.02,15.17Z"/>
        <path class="cls-27" d="M94.89,43.81h0c.7,3.39-.3,6.62-2.33,9.18,7.97-3.39,10.85-12.8,4.88-18.77h0c-5.81-5.81-16.19-4.56-21.05,1.67,7.57-3.3,16.9,.2,18.49,7.92Z"/>
        <path class="cls-29" d="M57.39,30.88h0c3.9-.58,7.42,.33,10.07,2.16-2.9-7.11-13.17-9.77-20.57-4.53h0c-7.2,5.09-6.98,14.31-.52,18.69-2.85-6.75,2.15-14.99,11.03-16.32Z"/>
      </g>
      <g>
        <g>
          <path class="cls-20" d="M129.76,146.57c-1.32,2.02,.61,5.62,4.33,8.06,3.71,2.44,7.79,2.78,9.12,.76,0,0,.01-.02,.02-.03l-13.44-8.82s-.01,.02-.02,.03Z"/>
          <path class="cls-20" d="M96.69,160.22c.9,1.34,4.05-.15,7.04-3.32,2.99-3.17,4.68-6.82,3.78-8.16,0,0,0-.01-.01-.02l-10.82,11.47s0,.01,.01,.02Z"/>
          <path class="cls-20" d="M97.17,115.75c-1.95,1.42-1.4,5.48,1.21,9.07,2.62,3.59,6.32,5.34,8.27,3.92,0,0,.02-.01,.03-.02l-9.48-12.99s-.02,.01-.03,.02Z"/>
          <path class="cls-20" d="M138.81,117.58c-.83-1.41-3.98-.07-7.03,2.99-3.05,3.06-4.86,6.69-4.03,8.1,0,0,0,.01,.01,.02l11.06-11.09s0-.01-.01-.02Z"/>
          <g>
            <path class="cls-15" d="M107.77,127.13l-1.23-.66c-10.03-5.36-22.1,2.14-21.73,13.51l.05,1.39c.37,11.36,12.9,18.06,22.56,12.06l1.18-.74c9.66-6,9.19-20.21-.83-25.57Z"/>
            <path class="cls-15" d="M106,148.52l-.66,1.23c-5.36,10.03,2.14,22.1,13.51,21.73l1.39-.05c11.36-.37,18.06-12.9,12.06-22.56l-.74-1.18c-6-9.66-20.21-9.19-25.57,.83Z"/>
            <path class="cls-15" d="M127.39,150.28l1.23,.66c10.03,5.36,22.1-2.14,21.73-13.51l-.05-1.39c-.37-11.36-12.9-18.06-22.56-12.06l-1.18,.74c-9.66,6-9.19,20.21,.83,25.57Z"/>
            <path class="cls-15" d="M129.16,128.9l.66-1.23c5.36-10.03-2.14-22.1-13.51-21.73l-1.39,.05c-11.36,.37-18.06,12.9-12.06,22.56l.74,1.18c6,9.66,20.21,9.19,25.57-.83Z"/>
          </g>
          <g>
            <path class="cls-30" d="M108.44,137.18l-.83,.18c-6.79,1.46-9.45,9.71-4.8,14.86l.57,.63c4.65,5.15,13.14,3.33,15.27-3.28l.26-.81c2.13-6.61-3.69-13.04-10.47-11.58Z"/>
            <path class="cls-16" d="M116.05,147.84l.18,.83c1.46,6.79,9.71,9.45,14.86,4.8l.63-.57c5.15-4.65,3.33-13.14-3.28-15.27l-.81-.26c-6.61-2.13-13.04,3.69-11.58,10.47Z"/>
            <path class="cls-4" d="M126.71,140.23l.83-.18c6.79-1.46,9.45-9.71,4.8-14.86l-.57-.63c-4.65-5.15-13.14-3.33-15.27,3.28l-.26,.81c-2.13,6.61,3.69,13.04,10.47,11.58Z"/>
            <path class="cls-25" d="M119.1,129.57l-.18-.83c-1.46-6.79-9.71-9.45-14.86-4.8l-.63,.57c-5.15,4.65-3.33,13.14,3.28,15.27l.81,.26c6.61,2.13,13.04-3.69,11.58-10.47Z"/>
          </g>
          <g>
            <path class="cls-20" d="M114.14,139.41c1.77,.37,3.64-1.44,4.18-4.04s-.46-5-2.23-5.36c0,0-.02,0-.02,0l-1.95,9.4s.02,0,.02,0Z"/>
            <path class="cls-22" d="M114.78,139.28c1.52,.97,3.91-.05,5.34-2.29s1.35-4.83-.18-5.81c0,0-.01,0-.02-.01l-5.16,8.09s.01,0,.02,.01Z"/>
            <path class="cls-22" d="M115.69,140.25c.66,1.68,3.2,2.26,5.66,1.29,2.47-.97,3.93-3.12,3.27-4.8,0,0,0-.01,0-.02l-8.93,3.51s0,.01,0,.02Z"/>
            <path class="cls-20" d="M115.31,139.69c1.15,1.39,3.74,1.16,5.78-.53,2.05-1.68,2.77-4.18,1.63-5.58,0,0-.01-.01-.02-.02l-7.41,6.1s0,.01,.01,.02Z"/>
          </g>
        </g>
        <path class="cls-35" d="M89.98,133.65h0c1.82-3.41,4.79-5.57,8.06-6.47-8.23-2.24-16.86,4.07-16.56,13.16h0c.29,8.84,8.83,14.52,16.73,12.26-7.88-2.06-12.37-11.19-8.22-18.94Z"/>
        <path class="cls-26" d="M113.24,166.15h0c-3.42-1.8-5.6-4.76-6.52-8.02-2.2,8.25,4.16,16.84,13.25,16.49h0c8.84-.34,14.47-8.91,12.17-16.8-2.02,7.89-11.12,12.43-18.9,8.33Z"/>
        <path class="cls-6" d="M146.45,141.59h0c-1.17,3.68-3.69,6.35-6.73,7.84,8.5,.7,15.83-7.09,13.87-15.97h0c-1.9-8.64-11.35-12.65-18.69-8.99,8.12,.58,14.21,8.73,11.56,17.12Z"/>
        <path class="cls-9" d="M121.39,109.96h0c3.6,1.39,6.11,4.08,7.41,7.21,1.23-8.44-6.09-16.24-15.07-14.84h0c-8.74,1.36-13.33,10.53-10.14,18.09,1.09-8.07,9.6-13.64,17.8-10.46Z"/>
      </g>
      <g>
        <path class="cls-15" d="M123.14,97.63l1.29,.6c10.52,4.89,22.39-3.44,21.37-14.99l-.13-1.42c-1.02-11.56-14.17-17.67-23.67-11.01l-1.16,.82c-9.5,6.66-8.22,21.11,2.3,26Z"/>
        <path class="cls-15" d="M147.87,75.77l-.04-1.42c-.3-11.6-13.04-18.52-22.94-12.46l-1.21,.74c-9.89,6.06-9.52,20.56,.68,26.09l1.25,.68c10.19,5.54,22.56-2.04,22.26-13.63Z"/>
        <path class="cls-13" d="M126.04,89.96l.65-.58c5.28-4.71,3.48-13.38-3.24-15.6l-.82-.27c-6.73-2.22-13.33,3.67-11.89,10.61l.18,.85c1.44,6.93,9.85,9.71,15.13,4.99Z"/>
        <path class="cls-34" d="M129.77,95.5l.65-.58c5.28-4.71,3.48-13.38-3.24-15.6l-.82-.27c-6.73-2.22-13.33,3.67-11.89,10.61l.18,.85c1.44,6.93,9.85,9.71,15.13,4.99Z"/>
        <path class="cls-33" d="M142.07,87.69h0c-.98,3.82-3.39,6.68-6.42,8.37,8.7,.23,15.72-8.12,13.23-17.06h0c-2.43-8.69-12.28-12.24-19.55-8.1,8.31,.14,14.97,8.09,12.74,16.78Z"/>
        <path class="cls-15" d="M133.72,85.42l.95-1.06c7.77-8.62,3.29-22.41-8.06-24.83l-1.39-.3c-11.35-2.42-21.05,8.36-17.47,19.39l.44,1.35c3.58,11.04,17.76,14.06,25.53,5.44Z"/>
        <path class="cls-28" d="M130.67,64.76h0c3.23,2.26,5.05,5.53,5.57,8.96,3.28-8.06-2.05-17.58-11.29-18.39h0c-8.99-.79-15.79,7.17-14.47,15.44,3.06-7.73,12.85-11.16,20.2-6Z"/>
        <path class="cls-20" d="M129.18,81.5c-.89-.76-4,1.41-6.95,4.85-2.95,3.44-4.62,6.84-3.73,7.6,0,0,0,0,.01,0l10.68-12.45s0,0-.01-.01Z"/>
        <path class="cls-20" d="M119.26,94.65c-.07,1.27,3.54,2.51,8.06,2.77,4.52,.26,8.25-.57,8.32-1.84,0,0,0-.01,0-.02l-16.38-.93s0,.01,0,.02Z"/>
        <path class="cls-20" d="M116.82,91.35c-1.25,.26-3.01-3.13-3.93-7.56-.92-4.44-.66-8.24,.59-8.5,0,0,.01,0,.02,0l3.34,16.06s-.01,0-.02,0Z"/>
      </g>
      <g>
        <path class="cls-15" d="M54.35,190.56l-1.37,.39c-11.16,3.16-21.56-6.94-18.72-18.19l.35-1.38c2.84-11.25,16.79-15.2,25.11-7.12l1.02,.99c8.32,8.08,4.77,22.14-6.39,25.31Z"/>
        <path class="cls-15" d="M33.4,165.05l.26-1.4c2.14-11.4,15.81-16.22,24.62-8.67l1.08,.93c8.81,7.55,6.14,21.8-4.8,25.66l-1.34,.47c-10.94,3.85-21.95-5.59-19.82-16.99Z"/>
        <path class="cls-24" d="M52.7,182.53l-.55-.67c-4.47-5.49-1.32-13.77,5.67-14.89l.86-.14c6.99-1.13,12.58,5.74,10.06,12.36l-.31,.81c-2.52,6.62-11.26,8.02-15.73,2.53Z"/>
        <path class="cls-8" d="M48.14,187.41l-.55-.67c-4.47-5.49-1.32-13.77,5.67-14.89l.86-.14c6.99-1.13,12.58,5.74,10.06,12.36l-.31,.81c-2.52,6.62-11.26,8.02-15.73,2.53Z"/>
        <path class="cls-14" d="M37.24,177.75h0c.36,3.92,2.29,7.14,5.01,9.28-8.63-1.15-14.24-10.51-10.36-18.94h0c3.78-8.2,14.06-10.14,20.59-4.89-8.23-1.18-16.06,5.61-15.24,14.55Z"/>
        <path class="cls-15" d="M45.84,176.83l-.77-1.19c-6.3-9.74,.3-22.65,11.89-23.24l1.42-.07c11.59-.59,19.46,11.59,14.18,21.92l-.65,1.27c-5.28,10.33-19.77,11.06-26.07,1.32Z"/>
        <path class="cls-31" d="M52.12,156.91h0c-3.54,1.72-5.87,4.66-6.92,7.96-1.96-8.48,4.81-17.03,14.07-16.37h0c9,.64,14.45,9.58,11.84,17.54-1.8-8.11-10.92-13.05-18.99-9.13Z"/>
        <path class="cls-20" d="M50.94,173.68c1-.61,3.72,2.02,6.09,5.89s3.48,7.49,2.48,8.1c0,0,0,0-.01,0l-8.57-13.99s0,0,.01,0Z"/>
        <path class="cls-20" d="M58.65,188.24c-.13,1.27-3.89,1.92-8.4,1.45s-8.05-1.87-7.92-3.13c0,0,0-.01,0-.02l16.32,1.68s0,.01,0,.02Z"/>
        <path class="cls-20" d="M61.59,185.37c1.19,.45,3.47-2.61,5.08-6.84,1.61-4.23,1.95-8.03,.76-8.49,0,0-.01,0-.02,0l-5.84,15.33s.01,0,.02,0Z"/>
      </g>
      <g>
        <path class="cls-15" d="M55.83,126.39l1.21-1.49c9.87-12.16,2.88-30.45-12.59-32.91l-1.9-.3c-15.47-2.47-27.81,12.73-22.21,27.36l.69,1.79c5.6,14.63,24.93,17.71,34.8,5.55Z"/>
        <path class="cls-15" d="M35.34,86.81l-1.87-.42c-15.28-3.43-28.54,10.98-23.87,25.93l.57,1.83c4.68,14.95,23.78,19.23,34.39,7.71l1.3-1.41c10.61-11.52,4.76-30.21-10.52-33.63Z"/>
        <path class="cls-3" d="M45.66,120.11l-.71-.93c-5.79-7.61-17.65-6.09-21.34,2.73l-.45,1.08c-3.69,8.82,3.55,18.33,13.03,17.12l1.16-.15c9.48-1.21,14.1-12.24,8.31-19.84Z"/>
        <path class="cls-2" d="M53.51,115.67l-.71-.93c-5.79-7.61-17.65-6.09-21.34,2.73l-.45,1.08c-3.69,8.82,3.55,18.33,13.03,17.12l1.16-.15c9.48-1.21,14.1-12.24,8.31-19.84Z"/>
        <path class="cls-18" d="M49.05,98.33h0c4.68,2.54,7.63,6.65,8.85,11.16,3.16-11.32-5.46-23.26-17.98-22.93h0c-12.18,.32-20.07,12.04-17.04,22.93,2.91-10.83,15.52-16.94,26.17-11.16Z"/>
        <path class="cls-15" d="M43.33,108.52l-1.07-1.59c-8.73-13.01-28.26-11.69-35.16,2.37l-.85,1.72c-6.9,14.06,4.01,30.32,19.63,29.26l1.92-.13c15.63-1.05,24.25-18.63,15.53-31.64Z"/>
        <path class="cls-19" d="M15.27,105.7h0c4.03-3.48,8.91-4.8,13.56-4.34-9.48-6.95-23.69-3.1-27.8,8.73h0c-4,11.51,4.18,23.03,15.45,24.03-9.11-6.55-10.37-20.5-1.21-28.42Z"/>
        <path class="cls-20" d="M32.75,116.67c-1.25,.66,.03,5.58,2.87,11,2.84,5.42,6.15,9.28,7.4,8.63,0,0,.01,0,.02,0l-10.27-19.62s-.01,0-.02,0Z"/>
        <path class="cls-20" d="M43.42,137.26c1.54,.76,4.99-3.07,7.69-8.56,2.7-5.49,3.64-10.55,2.1-11.31,0,0-.01,0-.02,0l-9.79,19.87s.01,0,.02,.01Z"/>
        <path class="cls-20" d="M42.33,137.05c-.37,1.64-5.5,1.88-11.47,.54-5.97-1.34-10.51-3.75-10.14-5.39,0,0,0-.01,0-.02l21.61,4.84s0,.01,0,.02Z"/>
      </g>
      <g>
        <path class="cls-15" d="M128.53,56.13l1.89,.34c15.42,2.77,28.05-12.19,22.73-26.93l-.65-1.81c-5.31-14.73-24.58-18.19-34.69-6.22l-1.24,1.47c-10.1,11.97-3.46,30.39,11.95,33.15Z"/>
        <path class="cls-15" d="M153.29,19.07l-.54-1.84c-4.39-15.04-23.4-19.69-34.23-8.37l-1.33,1.39c-10.83,11.32-5.35,30.11,9.87,33.83l1.86,.46c15.21,3.72,28.75-10.43,24.36-25.46Z"/>
        <path class="cls-23" d="M129.12,44.19l.47-1.07c3.86-8.75-3.19-18.39-12.7-17.36l-1.17,.13c-9.51,1.03-14.33,11.96-8.69,19.68l.69,.95c5.64,7.72,17.53,6.43,21.39-2.32Z"/>
        <path class="cls-17" d="M136.8,48.92l.47-1.07c3.86-8.75-3.19-18.39-12.7-17.36l-1.17,.13c-9.51,1.03-14.33,11.96-8.69,19.68l.69,.95c5.64,7.72,17.53,6.43,21.39-2.32Z"/>
        <path class="cls-10" d="M149.82,36.63h0c.04,5.32-2.13,9.89-5.49,13.14,11.44-2.7,17.73-16.02,11.39-26.82h0c-6.17-10.51-20.24-11.76-28.31-3.84,10.89-2.68,22.33,5.4,22.41,17.52Z"/>
        <path class="cls-15" d="M138.14,36.55l.88-1.71c7.17-13.92-3.42-30.39-19.07-29.64l-1.92,.09c-15.64,.75-24.61,18.16-16.14,31.33l1.04,1.61c8.47,13.17,28.03,12.23,35.2-1.69Z"/>
        <path class="cls-12" d="M127.05,10.62h0c4.99,1.84,8.5,5.48,10.35,9.78,1.51-11.66-8.73-22.24-21.08-20.12h0c-12.01,2.06-18.14,14.79-13.58,25.14,1.33-11.14,12.94-18.99,24.3-14.79Z"/>
        <path class="cls-20" d="M125.89,31.22c-1.18-.78-4.87,2.72-8.25,7.82-3.37,5.1-5.15,9.87-3.98,10.65,0,0,.01,0,.02,0l12.22-18.47s0,0-.02-.01Z"/>
        <path class="cls-20" d="M113.03,50.51c.08,1.72,5.1,2.89,11.21,2.6s11-1.91,10.92-3.63c0,0,0-.02,0-.02l-22.12,1.03s0,.02,0,.02Z"/>
        <path class="cls-20" d="M112.68,49.46c-1.61,.47-4.3-3.91-6.02-9.78-1.71-5.87-1.8-11.01-.18-11.48,0,0,.01,0,.02,0l6.2,21.26s-.01,0-.02,0Z"/>
      </g>
    </g>
  </g>
</svg>