<?xml version="1.0" encoding="UTF-8"?>
<svg id="_圖層_2" data-name="圖層 2" xmlns="http://www.w3.org/2000/svg" viewBox="0 0 48.94 19.7">
  <defs>
    <style>
      .cls-1 {
        fill: #d5d9c4;
      }
    </style>
  </defs>
  <g id="_花" data-name="花">
    <g>
      <path class="cls-1" d="M8,19.42c-.11,0-.22-.07-.27-.17l-.06-.12c-.04-.08-.04-.17,0-.25,.04-.09,.1-.34,.04-.93-.05-.49-.19-1.25-.43-2.26l-1.12-4.92c-.49-.01-.95-.02-1.37-.02-.59,0-1.13,.01-1.6,.04l-1.59,6.46c-.08,.3-.06,.53,.07,.72,.13,.2,.43,.38,.87,.53,.13,.05,.22,.18,.2,.32l-.03,.22c-.01,.08-.05,.15-.11,.2-.05,.04-.12,.06-.18,.06-.01,0-.03,0-.04,0-.58-.08-1.09-.11-1.51-.11-.16,0-.31,0-.44,.02,0,0-.02,0-.02,0-.11,0-.21-.06-.26-.15-.04-.07-.08-.17-.12-.32-.01-.05-.02-.11,0-.16L4.35,1.58s.04-.09,.07-.13c.09-.1,.26-.34,.5-.91,.05-.11,.16-.18,.28-.18,.14,0,.33,.1,.36,.23l3.92,16.5c.16,.66,.46,1.1,.93,1.36,.1,.05,.15,.15,.15,.26v.22c0,.09-.04,.17-.11,.23-.05,.05-.12,.07-.19,.07-.02,0-.04,0-.06,0-.17-.03-.36-.05-.58-.05-.14,0-.29,0-.45,.02-.41,.04-.77,.1-1.08,.19-.03,0-.06,.01-.09,.01ZM3.52,9.47c.26,0,.57,.01,.91,.01,.42,0,.89,0,1.42-.02l-1.12-4.9-1.21,4.91Z"/>
      <path class="cls-1" d="M11.5,19.44s-.09,0-.13-.03c-.07-.04-.13-.1-.15-.17l-.04-.12c-.02-.07-.02-.14,0-.21,.06-.14,.12-.46,.12-1.21V4.58c0-.55-.01-1.02-.04-1.38-.03-.34-.07-.62-.14-.81-.05-.15-.12-.26-.2-.31-.09-.06-.18-.08-.27-.08-.12,0-.2,0-.24,0-.02,0-.03,0-.05,0-.07,0-.14-.02-.19-.06-.07-.05-.11-.13-.12-.21l-.03-.36c-.01-.15,.09-.28,.23-.32,.58-.13,1.15-.25,1.71-.35,.57-.1,.95-.16,1.17-.17,.21-.01,.4-.02,.59-.02,.54,0,1.03,.06,1.46,.18,.45,.12,.83,.33,1.13,.62,.31,.29,.54,.67,.7,1.12,.15,.44,.23,.98,.23,1.61,0,.54-.06,1.05-.18,1.54-.12,.48-.29,.94-.5,1.36-.21,.42-.46,.8-.74,1.14-.18,.21-.36,.4-.56,.58,.23,.09,.46,.2,.69,.33,.39,.23,.73,.54,1.03,.94,.29,.39,.53,.89,.71,1.46,.17,.57,.26,1.25,.26,2.03,0,.91-.1,1.73-.3,2.43-.2,.7-.47,1.3-.8,1.78-.34,.49-.73,.86-1.16,1.11-.44,.25-.89,.38-1.35,.38l-1.65,.1c-.24,.01-.45,.04-.63,.08-.18,.04-.34,.08-.46,.13-.03,.01-.07,.02-.1,.02Zm2.44-1.53c.06,0,.11,0,.17,0,.6,0,1.07-.29,1.46-.87,.45-.68,.67-1.76,.67-3.2,0-.76-.08-1.43-.25-2.01-.16-.57-.39-1.02-.67-1.35-.28-.33-.6-.58-.96-.74-.33-.15-.69-.22-1.07-.22,0,0-.11,0-.11,0-.07,0-.13-.02-.18-.06v8.38l.95,.08Zm-.97-15.92c.01,.19,.02,.38,.02,.57v5.88s.11-.06,.17-.06c.39-.01,.74-.16,1.09-.44,.36-.29,.66-.75,.91-1.36,.25-.62,.38-1.35,.38-2.18,0-.71-.08-1.25-.24-1.62-.15-.34-.35-.58-.58-.72-.22-.12-.47-.19-.76-.19-.36,.01-.68,.05-.99,.12Z"/>
      <path class="cls-1" d="M23.53,19.7c-.76,0-1.48-.24-2.13-.71-.63-.46-1.19-1.12-1.65-1.96-.46-.83-.82-1.88-1.07-3.12-.25-1.24-.38-2.63-.38-4.13,0-1.33,.14-2.62,.41-3.81,.27-1.2,.64-2.24,1.1-3.09,.46-.87,1.02-1.56,1.67-2.08,.66-.53,1.37-.8,2.11-.8,1.7,0,3.02,.94,3.92,2.79,.87,1.78,1.31,4.27,1.31,7.4,0,1.33-.14,2.59-.41,3.76-.27,1.18-.64,2.19-1.1,3.01-.47,.84-1.03,1.51-1.67,1.99-.66,.5-1.36,.75-2.1,.75Zm-.12-18.34c-.5,0-.95,.2-1.36,.61-.43,.44-.79,1.04-1.07,1.79-.29,.77-.51,1.67-.66,2.67-.15,1.01-.23,2.09-.23,3.22,0,1.2,.07,2.31,.22,3.31,.15,.99,.34,1.84,.59,2.51,.24,.67,.53,1.24,.85,1.69,.31,.44,.64,.77,.98,.96,.33,.19,.67,.29,1.01,.29,.51,0,.95-.19,1.36-.59,.43-.41,.78-1,1.05-1.72,.28-.75,.5-1.63,.65-2.61,.15-.98,.22-2.06,.22-3.19,0-1.47-.11-2.82-.32-4-.21-1.17-.49-2.12-.84-2.84-.34-.7-.74-1.24-1.16-1.6-.41-.35-.83-.51-1.27-.51Z"/>
      <path class="cls-1" d="M33.47,19.7c-.36,0-.73-.07-1.09-.22-.37-.15-.71-.41-1-.77-.28-.35-.51-.82-.69-1.39-.17-.56-.26-1.27-.26-2.1V4.58c0-.54-.01-.99-.04-1.35-.03-.34-.07-.62-.14-.82-.05-.16-.12-.27-.21-.33-.09-.06-.18-.09-.27-.09-.12,0-.2,0-.24,0-.02,0-.03,0-.05,0-.07,0-.13-.02-.19-.06-.06-.05-.11-.12-.12-.2l-.03-.24c-.01-.12,.05-.24,.16-.3,.81-.43,1.61-.64,2.37-.64,.14,0,.27,.1,.29,.24,.1,.49,.15,.99,.15,1.49V13.65c0,.89,.05,1.64,.15,2.24,.09,.58,.23,1.04,.39,1.38,.15,.31,.33,.53,.53,.65,.2,.13,.42,.19,.66,.19s.5-.06,.76-.18c.28-.12,.57-.3,.85-.53,.29-.23,.58-.51,.86-.83,.26-.3,.51-.63,.75-.98V4.58c0-.54-.01-.99-.04-1.35-.03-.34-.07-.62-.14-.82-.05-.16-.12-.27-.21-.33-.09-.06-.17-.09-.27-.09-.12,0-.2,0-.24,0-.02,0-.03,0-.05,0-.07,0-.13-.02-.19-.06-.06-.05-.11-.12-.12-.2l-.03-.24c-.01-.12,.05-.24,.16-.3,.81-.43,1.61-.64,2.36-.64,.14,0,.26,.1,.29,.23,.1,.46,.16,.96,.16,1.5v14.37c0,.32,.02,.6,.05,.83,.03,.21,.08,.38,.15,.52,.06,.12,.15,.22,.25,.3,.12,.08,.27,.16,.46,.21,.15,.05,.24,.2,.21,.35l-.06,.3c-.02,.08-.06,.15-.13,.19-.05,.03-.1,.05-.16,.05-.02,0-.05,0-.07,0-.28-.06-.52-.11-.72-.15-.19-.03-.35-.05-.48-.05-.11,0-.24,.02-.38,.04-.15,.03-.32,.08-.51,.14-.03,.01-.06,.02-.09,.02-.12,0-.24-.08-.28-.2l-.04-.12c-.02-.07-.02-.14,0-.21,.06-.14,.12-.46,.12-1.21v-.19c-.59,.68-1.15,1.19-1.65,1.54-.68,.47-1.33,.71-1.94,.71Z"/>
      <path class="cls-1" d="M43.69,19.39c-.12,0-.24-.08-.28-.2l-.04-.12c-.02-.07-.02-.14,0-.21,.06-.14,.12-.46,.12-1.21V1.85c-.28,.01-.6,.03-.94,.05-.42,.03-.88,.07-1.4,.12-.01,.19-.02,.39-.02,.6,0,.43,.03,.92,.1,1.46,.01,.12-.05,.24-.16,.3l-.23,.12s-.09,.03-.14,.03c-.04,0-.09,0-.13-.03-.08-.04-.15-.12-.17-.21l-.67-3.02s0-.1,0-.15l.09-.29c.03-.11,.13-.19,.24-.21,.69-.11,1.38-.19,2.04-.23,.65-.05,1.3-.07,1.95-.07s1.35,.03,2.09,.08c.75,.05,1.57,.14,2.45,.24,.12,.01,.21,.09,.25,.21l.09,.26c.02,.05,.02,.11,0,.16l-.67,3.02c-.02,.09-.08,.17-.17,.21-.04,.02-.08,.03-.13,.03-.05,0-.1-.01-.14-.03l-.23-.12c-.11-.06-.17-.18-.16-.3,.03-.29,.06-.55,.07-.8,.02-.25,.02-.48,.02-.7,0-.2,0-.39-.02-.56-.5-.05-.96-.09-1.37-.12-.35-.02-.67-.04-.96-.05v14.8c0,.32,.02,.6,.05,.83,.03,.21,.08,.38,.15,.52,.06,.12,.15,.22,.25,.3,.11,.08,.27,.15,.45,.21,.15,.04,.24,.19,.21,.34l-.06,.3c-.02,.08-.06,.15-.13,.2-.05,.03-.11,.05-.16,.05-.02,0-.05,0-.07,0-.28-.06-.52-.11-.72-.15-.19-.03-.35-.05-.48-.05-.11,0-.24,.02-.38,.04-.15,.03-.32,.08-.51,.14-.03,.01-.06,.02-.09,.02Z"/>
    </g>
  </g>
</svg>