<?xml version="1.0" encoding="UTF-8"?>
<svg id="_圖層_2" data-name="圖層 2" xmlns="http://www.w3.org/2000/svg" viewBox="0 0 38.72 19.58">
  <defs>
    <style>
      .cls-1 {
        fill: #d5d9c4;
      }
    </style>
  </defs>
  <g id="txt">
    <g>
      <path class="cls-1" d="M1.47,19.14c-.06,0-.12-.02-.18-.06-.07-.05-.11-.12-.12-.2-.03-.24-.04-.47-.04-.7V3.87c-.01-.56-.07-1.07-.17-1.51-.14-.65-.42-.65-.52-.65-.01,0-.03,0-.05,0-.08,0-.18-.02-.24-.07-.07-.06-.15-.14-.15-.22v-.25c0-.12,.07-.23,.18-.27,.7-.31,1.4-.46,2.08-.46,.12,0,.23,.07,.27,.18L7.88,12.59c.18,.41,.34,.78,.46,1.11V2.92c0-.49-.1-.84-.28-1.02-.14-.14-.35-.2-.64-.2-.09,0-.18,0-.28,.02-.01,0-.03,0-.04,0-.15,0-.28-.11-.3-.26l-.04-.25c-.02-.13,.05-.26,.18-.32,.65-.28,1.38-.43,2.16-.46h0c.12,0,.24,.08,.28,.2,.09,.25,.14,.51,.14,.76V18.77c0,.17-.13,.3-.3,.3h-.29c-.12,0-.23-.07-.28-.18-.31-.74-1.22-2.77-2.77-6.19-1.55-3.43-2.62-5.82-3.27-7.32-.1-.22-.19-.45-.29-.7v12.49c0,.25,.04,.44,.12,.57,.08,.12,.17,.21,.25,.25,.13,.06,.31,.12,.55,.19,.26,.08,.41,.13,.46,.15,.11,.04,.19,.16,.19,.28v.25c0,.09-.04,.17-.1,.22-.06,.05-.13,.08-.2,.08-.01,0-.02,0-.03,0-.43-.05-.83-.07-1.18-.07s-.64,.02-.89,.07c-.02,0-.04,0-.05,0Z"/>
      <path class="cls-1" d="M12.47,19.07c-.14,0-.25-.09-.29-.22-.1-.36-.14-.8-.14-1.3V4.33c0-.54-.01-.98-.04-1.33-.03-.33-.07-.58-.14-.77-.05-.14-.12-.24-.19-.29-.09-.05-.21-.08-.37-.08h-.1s-.04,0-.07,0c-.07,0-.15-.02-.2-.06-.07-.05-.14-.13-.14-.21l-.03-.36c-.01-.14,.08-.27,.22-.31,1.37-.38,2.9-.57,4.54-.57,.84,0,1.73,.05,2.64,.15,.13,.01,.23,.11,.26,.23l.05,.21s.01,.09,0,.13l-.68,3.1c-.02,.09-.08,.17-.17,.21-.04,.02-.08,.03-.12,.03-.05,0-.1-.01-.14-.04l-.23-.12c-.11-.06-.17-.18-.15-.3,.04-.31,.07-.59,.08-.86,.02-.26,.03-.51,.03-.76,0-.16,0-.31-.02-.45-.27-.04-.54-.07-.81-.09-.33-.03-.67-.04-1-.04-.51,0-1.02,.04-1.53,.11v6.44s3.58-.34,3.59-.34c.11,0,.21,.06,.27,.16l.07,.14c.04,.07,.04,.16,.02,.23l-.33,1.02c-.04,.12-.16,.21-.29,.21,0,0-.02,0-.02,0-.21-.02-.42-.03-.63-.04-.21,0-.43-.01-.66-.01-.36,0-.73,.01-1.11,.04-.29,.02-.59,.04-.9,.07v7.92l2.19-.12c.3-.01,.55-.07,.75-.18,.2-.1,.37-.25,.51-.44,.15-.2,.29-.46,.41-.77,.12-.33,.25-.71,.38-1.14,.03-.09,.1-.17,.19-.2,.03-.01,.06-.02,.1-.02,.06,0,.12,.02,.18,.06l.21,.15c.1,.07,.14,.19,.12,.31l-.7,3.32s-.02,.07-.04,.1l-.11,.17c-.06,.08-.15,.14-.25,.14h-5.17Z"/>
      <path class="cls-1" d="M29.02,19.32s-.09-.01-.13-.03l-.5-.25c-.08-.04-.14-.12-.16-.21l-2.35-13.07-2.42,13.32c-.02,.09-.08,.17-.16,.21-.04,.02-.09,.03-.13,.03s-.09-.01-.14-.03l-.49-.25c-.08-.04-.14-.12-.16-.22l-2.68-15.19c-.12-.65-.25-.98-.34-1.13-.11-.19-.19-.24-.22-.24-.16,0-.29,0-.41,.03-.16,.02-.25,.03-.28,.03-.13,0-.25-.09-.29-.22l-.07-.25c-.03-.11,0-.23,.09-.31,.86-.75,1.62-1.12,2.34-1.12,.15,0,.27,.1,.3,.25l2.18,12.42c.05,.28,.09,.56,.12,.83L25.58,.75c.03-.14,.15-.25,.29-.25,.01,0,.02,0,.04,0,.36,.04,.61,.19,.76,.43,.02,.03,.03,.07,.04,.1,0,0,2.38,13.16,2.39,13.25l2.06-12.17c.02-.27-.08-.34-.11-.36-.05-.03-.15-.07-.35-.07-.1,0-.22,.01-.34,.03-.02,0-.03,0-.05,0-.14,0-.27-.1-.29-.24l-.04-.22c-.02-.13,.04-.26,.16-.32,.65-.33,1.33-.49,2.03-.49,.06,0,.27,.02,.36,.29,.03,.11,.04,.21,.02,.31-.38,2.35-1.46,8.42-3.23,18.04-.02,.09-.08,.17-.16,.21-.04,.02-.09,.03-.13,.03Z"/>
      <path class="cls-1" d="M35.14,19.58c-.86,0-1.74-.3-2.63-.9-.09-.06-.14-.17-.13-.28,.15-1.34,.38-2.62,.71-3.79,.03-.1,.11-.18,.21-.21,.03,0,.05-.01,.08-.01,.08,0,.15,.03,.21,.08l.19,.19c.07,.07,.1,.16,.09,.25-.05,.45-.08,1.01-.08,1.67s.03,.96,.04,1.08c.44,.37,.86,.56,1.27,.56,.25,0,.48-.07,.7-.2,.22-.14,.41-.34,.58-.62,.18-.29,.32-.67,.42-1.11,.1-.45,.16-.99,.16-1.59,0-.46-.03-.86-.08-1.19-.05-.32-.15-.64-.3-.95-.15-.31-.37-.66-.64-1.02-.29-.38-.66-.83-1.12-1.35-.77-.88-1.34-1.73-1.69-2.54-.36-.82-.54-1.67-.54-2.52s.1-1.56,.3-2.19c.2-.63,.47-1.17,.8-1.6,.34-.44,.72-.77,1.15-.99,.43-.22,.88-.34,1.33-.34,.8,0,1.53,.32,2.16,.96,.06,.06,.09,.15,.08,.24-.13,1.3-.37,2.58-.71,3.79-.03,.1-.11,.18-.21,.21-.03,0-.06,.01-.08,.01-.07,0-.15-.03-.2-.08l-.19-.17c-.07-.06-.11-.16-.1-.25,.03-.31,.05-.61,.07-.89,.02-.28,.03-.54,.03-.79s0-.47-.02-.68c-.01-.17-.03-.33-.04-.48-.3-.29-.61-.42-.94-.42-.22,0-.43,.06-.63,.18-.21,.12-.4,.3-.56,.55-.17,.25-.31,.57-.42,.95-.11,.38-.16,.83-.16,1.33,0,.35,.04,.68,.11,.98,.07,.3,.18,.6,.33,.91,.15,.31,.35,.64,.58,.97,.24,.34,.52,.73,.84,1.14,.19,.25,.37,.47,.54,.67,.17,.21,.33,.4,.48,.58,.15,.19,.29,.37,.42,.55,.13,.19,.26,.38,.37,.59,.55,1.01,.83,2.2,.83,3.53,0,.89-.09,1.66-.27,2.31-.18,.66-.44,1.2-.76,1.63-.33,.44-.72,.76-1.16,.97-.43,.2-.9,.31-1.39,.31Z"/>
    </g>
  </g>
</svg>