<?xml version="1.0" encoding="UTF-8"?>
<svg id="_圖層_2" data-name="圖層 2" xmlns="http://www.w3.org/2000/svg" viewBox="0 0 59.58 19.7">
  <defs>
    <style>
      .cls-1 {
        fill: #d5d9c4;
      }
    </style>
  </defs>
  <g id="txt">
    <g>
      <path class="cls-1" d="M8.02,19.39c-.12,0-.23-.07-.28-.19l-.05-.12c-.03-.07-.03-.15,0-.23,.06-.14,.13-.46,.13-1.2v-7.9c-.93-.03-1.81-.05-2.63-.05s-1.53,.02-2.22,.05v7.87c0,.66,.1,.98,.18,1.12,.04,.08,.05,.17,.02,.25l-.04,.12c-.04,.12-.16,.2-.28,.2-.03,0-.05,0-.08-.01-.26-.07-.51-.1-.76-.1-.29,0-.59,.05-.87,.15-.03,.01-.06,.02-.1,.02-.12,0-.23-.07-.28-.19l-.05-.12c-.04-.09-.03-.19,.03-.27,.22-.34,.37-.65,.43-.92,.07-.27,.1-.69,.1-1.23V4.58c0-1.4-.12-2-.22-2.25-.09-.23-.25-.33-.53-.33-.05,0-.11,0-.17,.01-.01,0-.03,0-.04,0-.07,0-.13-.02-.18-.06-.06-.05-.1-.12-.11-.2L0,1.5c-.01-.12,.05-.24,.16-.3,.82-.43,1.62-.64,2.36-.64,.14,0,.26,.1,.29,.23,.1,.46,.16,.96,.16,1.5v6.01c.8,.05,1.61,.07,2.42,.07s1.62-.02,2.43-.07v-3.72c0-1.4-.12-2-.22-2.25-.09-.23-.25-.33-.53-.33-.05,0-.11,0-.17,.01-.01,0-.03,0-.04,0-.07,0-.13-.02-.18-.06-.06-.05-.1-.12-.11-.2l-.03-.24c-.01-.12,.05-.24,.16-.3,.82-.43,1.62-.64,2.36-.64,.14,0,.26,.1,.29,.24,.1,.47,.15,.98,.15,1.49v14.37c0,.77,.11,1.15,.2,1.33,.12,.24,.35,.41,.71,.52,.14,.05,.23,.19,.2,.34l-.06,.3c-.02,.08-.06,.15-.13,.2-.05,.03-.11,.05-.16,.05-.02,0-.05,0-.07,0-.5-.12-.89-.18-1.14-.19h0c-.27,0-.58,.06-.95,.18-.03,.01-.06,.02-.09,.02Z"/>
      <path class="cls-1" d="M12.53,19.39c-.12,0-.23-.07-.28-.19l-.05-.12c-.03-.07-.03-.15,0-.23,.06-.14,.13-.46,.13-1.2V4.58c0-1.4-.12-2-.22-2.25-.09-.23-.25-.33-.53-.33-.05,0-.11,0-.17,.01-.01,0-.03,0-.04,0-.07,0-.13-.02-.18-.06-.06-.05-.1-.12-.11-.2l-.03-.24c-.01-.12,.05-.24,.16-.3,.82-.43,1.62-.64,2.36-.64,.14,0,.26,.1,.29,.24,.1,.47,.15,.98,.15,1.49v14.37c0,.77,.11,1.15,.2,1.33,.12,.24,.35,.41,.71,.52,.14,.05,.23,.19,.2,.34l-.06,.3c-.02,.08-.06,.15-.13,.2-.05,.03-.11,.05-.16,.05-.02,0-.05,0-.07,0-.5-.12-.89-.18-1.14-.19h0c-.27,0-.58,.06-.95,.18-.03,.01-.06,.02-.09,.02Z"/>
      <path class="cls-1" d="M18.62,19.7c-.86,0-1.74-.3-2.63-.9-.09-.06-.14-.17-.13-.28,.15-1.34,.38-2.62,.71-3.79,.03-.1,.11-.18,.21-.21,.03,0,.05-.01,.08-.01,.08,0,.15,.03,.21,.08l.19,.19c.07,.07,.1,.16,.09,.25-.06,.45-.08,1.01-.08,1.67s.02,.96,.04,1.08c.44,.37,.86,.56,1.27,.56,.25,0,.48-.06,.7-.2,.22-.14,.42-.35,.58-.62,.17-.29,.31-.67,.42-1.11,.1-.45,.16-.99,.16-1.59,0-.46-.03-.86-.08-1.19-.05-.32-.15-.64-.3-.95-.15-.32-.37-.66-.64-1.02-.28-.38-.66-.83-1.12-1.35-.77-.88-1.34-1.73-1.69-2.54-.36-.82-.54-1.67-.54-2.52s.1-1.56,.3-2.19c.2-.63,.47-1.17,.8-1.6,.33-.44,.72-.77,1.15-.99,.43-.22,.88-.34,1.33-.34,.8,0,1.53,.32,2.16,.96,.06,.06,.09,.15,.08,.24-.13,1.3-.37,2.57-.71,3.79-.03,.1-.1,.18-.21,.21-.03,0-.06,.01-.08,.01-.07,0-.15-.03-.2-.08l-.19-.17c-.07-.06-.11-.16-.1-.25,.03-.31,.05-.61,.07-.89,.02-.28,.02-.54,.02-.79s0-.47-.02-.68c-.01-.17-.03-.33-.04-.48-.3-.29-.61-.42-.94-.42-.22,0-.43,.06-.63,.18-.21,.12-.4,.31-.56,.55-.17,.25-.31,.57-.41,.95-.11,.38-.16,.83-.16,1.33,0,.35,.04,.68,.11,.98,.07,.3,.18,.6,.33,.91,.15,.31,.35,.64,.57,.97,.24,.34,.52,.72,.84,1.14,.19,.25,.37,.47,.54,.67,.17,.21,.33,.4,.48,.58,.15,.19,.29,.37,.42,.55,.13,.19,.26,.38,.37,.59,.55,1.01,.83,2.2,.83,3.53,0,.89-.09,1.66-.27,2.31-.18,.66-.44,1.2-.76,1.63-.33,.44-.72,.76-1.16,.97-.44,.2-.9,.31-1.39,.31Z"/>
      <path class="cls-1" d="M26.28,19.39c-.12,0-.24-.08-.28-.2l-.04-.12c-.02-.07-.02-.14,0-.21,.06-.14,.12-.46,.12-1.21V1.85c-.28,.01-.6,.03-.94,.05-.42,.03-.88,.07-1.4,.12-.01,.19-.02,.39-.02,.6,0,.43,.03,.92,.1,1.46,.01,.12-.05,.24-.16,.3l-.23,.12s-.09,.03-.14,.03c-.04,0-.09,0-.13-.03-.08-.04-.15-.12-.17-.21l-.67-3.02s0-.1,0-.15l.09-.29c.03-.11,.13-.19,.24-.21,.69-.11,1.38-.19,2.04-.23,.65-.05,1.3-.07,1.95-.07s1.35,.03,2.09,.08c.75,.06,1.57,.14,2.45,.24,.12,.01,.21,.09,.25,.21l.08,.26c.02,.05,.02,.1,0,.16l-.67,3.02c-.02,.09-.08,.17-.17,.21-.04,.02-.08,.03-.13,.03-.05,0-.1-.01-.14-.03l-.23-.12c-.11-.06-.17-.18-.16-.3,.03-.29,.06-.55,.07-.8,.02-.25,.02-.48,.02-.7,0-.2,0-.39-.02-.56-.5-.05-.96-.09-1.37-.12-.35-.02-.67-.04-.96-.05v14.8c0,.32,.02,.6,.05,.83,.03,.21,.08,.38,.15,.52,.06,.12,.15,.22,.25,.3,.11,.08,.27,.15,.45,.21,.15,.04,.24,.19,.21,.34l-.06,.3c-.02,.08-.06,.15-.13,.2-.05,.03-.11,.05-.16,.05-.02,0-.05,0-.07,0-.28-.06-.52-.11-.72-.15-.19-.03-.35-.05-.48-.05-.12,0-.24,.02-.38,.04-.15,.03-.32,.08-.51,.14-.03,.01-.06,.02-.1,.02Z"/>
      <path class="cls-1" d="M36.68,19.7c-.76,0-1.48-.24-2.13-.71-.64-.46-1.19-1.12-1.65-1.96-.46-.83-.82-1.88-1.07-3.13-.25-1.24-.38-2.63-.38-4.13,0-1.34,.14-2.62,.41-3.81,.27-1.2,.64-2.24,1.1-3.09,.46-.87,1.02-1.56,1.67-2.08,.66-.53,1.37-.8,2.11-.8,1.7,0,3.02,.94,3.92,2.79,.87,1.78,1.31,4.27,1.31,7.4,0,1.33-.14,2.59-.41,3.76-.27,1.18-.64,2.19-1.1,3.01-.47,.84-1.03,1.51-1.67,1.99-.66,.5-1.36,.75-2.1,.75Zm-.12-18.34c-.5,0-.95,.2-1.36,.61-.43,.44-.79,1.04-1.07,1.79-.29,.77-.51,1.67-.66,2.67-.15,1-.23,2.09-.23,3.22,0,1.2,.07,2.31,.22,3.31,.15,.99,.34,1.83,.59,2.51,.24,.67,.53,1.24,.85,1.69,.31,.44,.64,.77,.98,.96,.33,.19,.67,.29,1.01,.29,.51,0,.95-.19,1.36-.59,.43-.42,.78-1,1.05-1.72,.28-.75,.5-1.63,.65-2.61,.15-.99,.22-2.06,.22-3.19,0-1.48-.11-2.82-.32-4-.21-1.17-.49-2.12-.84-2.84-.34-.7-.74-1.24-1.16-1.6-.41-.35-.83-.51-1.27-.51Z"/>
      <path class="cls-1" d="M49.74,19.55c-.08,0-.16-.03-.22-.09l-.11-.11c-.05-.06-.08-.13-.08-.21,0-.04-.01-.15-.1-.42-.08-.22-.18-.48-.29-.76-.12-.29-.32-.81-.62-1.56-.29-.73-1.21-2.97-2.76-6.73v6.98c0,.32,.02,.6,.05,.83,.03,.21,.08,.38,.15,.52,.06,.12,.15,.22,.25,.3,.12,.08,.27,.16,.46,.21,.15,.05,.24,.2,.21,.35l-.06,.3c-.02,.08-.06,.15-.13,.19-.05,.03-.1,.05-.16,.05-.02,0-.04,0-.07,0-.28-.06-.52-.11-.73-.15-.19-.03-.35-.05-.47-.05-.11,0-.24,.02-.38,.04-.16,.03-.33,.08-.51,.14-.03,.01-.06,.02-.09,.02-.12,0-.24-.08-.28-.2l-.04-.12c-.02-.07-.02-.14,0-.21,.06-.14,.12-.46,.12-1.21V4.58c0-.54-.01-.99-.04-1.35-.03-.34-.07-.62-.14-.82-.05-.16-.12-.27-.21-.33-.03-.02-.14-.08-.48-.08-.16,0-.37-.12-.38-.28l-.03-.36c-.01-.15,.09-.28,.23-.32l.84-.2c.25-.06,.48-.11,.71-.16,.22-.05,.45-.09,.67-.12,.22-.03,.43-.06,.64-.08,.2-.02,.37-.04,.49-.04,.13,0,.25-.01,.37-.01,.46,0,.89,.06,1.29,.18,.41,.13,.78,.35,1.08,.66,.3,.31,.53,.73,.7,1.24,.16,.5,.24,1.13,.24,1.88,0,.56-.07,1.1-.21,1.61-.14,.5-.34,.97-.58,1.39-.24,.42-.53,.8-.85,1.11-.27,.27-.56,.49-.86,.67l2.84,7.09c.23,.59,.53,1.05,.89,1.37,.36,.27,.58,.43,.66,.48l.29,.17c.09,.05,.14,.15,.14,.26v.24c0,.17-.13,.3-.3,.3-.78,0-1.45,.14-1.97,.42-.04,.02-.09,.04-.14,.04ZM45.55,2.03c0,.12,.01,.24,.01,.36v6.15s.05-.02,.08-.03c.43-.08,.8-.23,1.1-.45,.3-.21,.55-.49,.75-.83,.2-.34,.35-.76,.45-1.23,.1-.48,.15-1.03,.15-1.63-.01-.47-.05-.88-.12-1.2-.06-.29-.16-.53-.29-.7-.13-.17-.29-.28-.5-.36-.24-.08-.54-.13-.92-.13-.15,0-.3,0-.46,.02l-.23,.02Z"/>
      <path class="cls-1" d="M54.94,19.39c-.12,0-.24-.08-.28-.2l-.04-.12c-.02-.07-.02-.14,0-.21,.06-.14,.12-.46,.12-1.21v-6.8l-2.24-7.05c-.18-.53-.34-.91-.47-1.13-.14-.24-.25-.27-.27-.28-.04,0-.09-.01-.13-.01-.09,0-.19,.01-.3,.04-.02,0-.05,0-.08,0-.11,0-.22-.06-.27-.17l-.11-.22c-.06-.12-.03-.27,.07-.35,.75-.66,1.35-1.02,1.83-1.09h.01c.54,0,.7,.56,.76,.75l2.3,7.43c1.3-3.56,2.04-5.76,2.21-6.54,.05-.27-.02-.39-.09-.46-.12-.13-.36-.22-.69-.28-.13-.02-.23-.13-.25-.26l-.03-.24c-.02-.16,.09-.31,.25-.33,.34-.06,.66-.09,.94-.09,.47,0,.86,.08,1.15,.24,.15,.12,.3,.31,.2,.65-.08,.29-.17,.58-.27,.89-.1,.31-1.03,2.94-2.85,8.05v6.24c0,.77,.11,1.15,.2,1.33,.12,.23,.35,.4,.71,.52,.14,.05,.23,.19,.2,.34l-.06,.3c-.02,.08-.06,.15-.13,.2-.05,.03-.11,.05-.16,.05-.02,0-.05,0-.07,0-.5-.12-.89-.18-1.14-.19h0c-.27,0-.58,.06-.95,.18-.03,.01-.06,.02-.09,.02Z"/>
    </g>
  </g>
</svg>