<?xml version="1.0" encoding="UTF-8"?>
<svg id="_圖層_2" data-name="圖層 2" xmlns="http://www.w3.org/2000/svg" viewBox="0 0 34.48 19.75">
  <defs>
    <style>
      .cls-1 {
        fill: #d5d9c4;
      }
    </style>
  </defs>
  <g id="txt">
    <g>
      <path class="cls-1" d="M5.31,19.75c-.78,0-1.52-.25-2.18-.74-.65-.48-1.21-1.17-1.67-2.03-.46-.85-.82-1.9-1.07-3.1-.25-1.19-.38-2.54-.38-4s.14-2.86,.42-4.05c.28-1.21,.68-2.25,1.18-3.1,.51-.86,1.12-1.54,1.82-2.01,.71-.47,1.49-.72,2.32-.72,1.05,0,2.06,.45,3.01,1.35,.07,.06,.1,.16,.09,.25-.15,1.35-.39,2.63-.71,3.79-.03,.1-.11,.18-.21,.21-.03,0-.05,.01-.08,.01-.08,0-.15-.03-.21-.08l-.19-.17c-.07-.06-.1-.15-.09-.25,.06-.59,.08-1.19,.08-1.78,0-.51-.02-.81-.05-.97-.68-.57-1.35-.86-2-.86-.54,0-1.01,.15-1.44,.45-.43,.3-.81,.8-1.13,1.47-.33,.69-.58,1.6-.75,2.68-.18,1.1-.27,2.44-.27,3.98,0,.78,.04,1.54,.13,2.25,.09,.71,.21,1.38,.38,2.01,.16,.62,.36,1.18,.6,1.68,.23,.49,.5,.92,.79,1.27,.28,.34,.59,.6,.93,.79,.32,.18,.67,.27,1.02,.27,.28,0,.53-.02,.75-.07,.21-.04,.41-.12,.6-.23,.19-.11,.39-.27,.58-.48,.2-.22,.42-.5,.65-.84,.06-.08,.15-.13,.25-.13,0,0,.01,0,.02,0,.11,0,.2,.07,.25,.17l.29,.58c.05,.1,.04,.23-.03,.32-.29,.37-.57,.7-.84,.96-.28,.26-.56,.48-.85,.66-.3,.18-.62,.31-.95,.38-.32,.08-.68,.11-1.07,.11Z"/>
      <path class="cls-1" d="M16.98,19.47c-.11,0-.22-.07-.27-.18l-.06-.12c-.04-.08-.04-.17,0-.25,.04-.09,.1-.34,.04-.93-.05-.49-.19-1.25-.43-2.26l-1.12-4.92c-.49-.01-.95-.02-1.37-.02-.59,0-1.13,.01-1.6,.04l-1.59,6.46c-.08,.3-.06,.53,.07,.72,.13,.2,.43,.38,.87,.53,.13,.05,.22,.18,.2,.32l-.03,.22c-.01,.08-.05,.15-.11,.2-.05,.04-.12,.06-.18,.06-.01,0-.03,0-.04,0-.58-.08-1.09-.11-1.51-.11-.16,0-.31,0-.44,.02,0,0-.02,0-.02,0-.11,0-.21-.06-.26-.15-.04-.07-.08-.17-.12-.31-.01-.05-.02-.11,0-.16L13.33,1.63s.04-.09,.07-.13c.09-.1,.26-.34,.5-.91,.05-.11,.16-.18,.28-.18,.14,0,.33,.1,.36,.23l3.92,16.5c.16,.66,.46,1.1,.93,1.36,.1,.05,.15,.15,.15,.26v.22c0,.09-.04,.17-.11,.23-.05,.04-.12,.07-.19,.07-.02,0-.04,0-.06,0-.17-.03-.36-.05-.58-.05-.14,0-.29,0-.45,.02-.41,.04-.77,.1-1.08,.19-.03,0-.06,.01-.09,.01Zm-4.48-9.95c.26,0,.57,.01,.91,.01,.42,0,.89,0,1.42-.02l-1.12-4.9-1.21,4.91Z"/>
      <path class="cls-1" d="M22.06,19.75c-.86,0-1.74-.3-2.63-.9-.09-.06-.14-.17-.13-.28,.15-1.34,.39-2.62,.71-3.79,.03-.1,.11-.18,.21-.21,.03,0,.05-.01,.08-.01,.08,0,.15,.03,.21,.08l.19,.19c.07,.07,.1,.16,.09,.25-.06,.45-.08,1.01-.08,1.67s.02,.96,.04,1.08c.44,.37,.86,.56,1.27,.56,.25,0,.48-.06,.7-.2,.22-.14,.42-.35,.58-.62,.17-.29,.31-.67,.42-1.11,.1-.45,.16-.99,.16-1.59,0-.46-.03-.86-.08-1.19-.05-.32-.15-.64-.3-.95-.15-.32-.37-.66-.64-1.02-.28-.37-.66-.83-1.12-1.35-.77-.88-1.33-1.73-1.69-2.54-.36-.82-.54-1.67-.54-2.52s.1-1.56,.3-2.19c.2-.63,.47-1.17,.8-1.6,.34-.44,.72-.77,1.15-.99,.43-.22,.88-.34,1.33-.34,.8,0,1.53,.32,2.16,.96,.06,.06,.09,.15,.08,.24-.13,1.3-.37,2.57-.71,3.79-.03,.1-.11,.18-.21,.21-.03,0-.06,.01-.08,.01-.07,0-.15-.03-.2-.08l-.19-.17c-.07-.06-.11-.16-.1-.25,.03-.31,.05-.61,.07-.89,.02-.28,.02-.54,.02-.79s0-.47-.02-.68c-.01-.17-.03-.33-.04-.48-.3-.29-.61-.42-.94-.42-.22,0-.43,.06-.63,.18-.21,.12-.4,.31-.56,.55-.17,.25-.31,.58-.42,.95-.11,.38-.16,.83-.16,1.33,0,.35,.04,.68,.11,.98,.07,.3,.18,.6,.33,.91,.15,.31,.35,.64,.58,.97,.24,.34,.52,.72,.84,1.14,.19,.25,.37,.47,.54,.67,.17,.21,.33,.4,.48,.58,.15,.19,.29,.37,.42,.55,.13,.19,.26,.38,.37,.59,.55,1.01,.83,2.2,.83,3.53,0,.88-.09,1.66-.27,2.31-.18,.65-.44,1.2-.76,1.63-.33,.44-.72,.76-1.16,.97-.44,.2-.9,.31-1.39,.31Z"/>
      <path class="cls-1" d="M28.19,19.24c-.14,0-.26-.09-.29-.22-.1-.36-.14-.8-.14-1.3V4.5c0-.54-.01-.98-.04-1.33-.03-.33-.07-.58-.14-.77-.05-.15-.12-.24-.19-.29-.09-.05-.21-.08-.37-.08h-.1s-.04,0-.07,0c-.07,0-.15-.02-.2-.06-.07-.05-.14-.13-.14-.21l-.03-.36c-.01-.14,.08-.27,.22-.31,1.37-.38,2.9-.57,4.54-.57,.84,0,1.73,.05,2.64,.15,.13,.01,.23,.11,.26,.23l.05,.21s.01,.09,0,.13l-.67,3.1c-.02,.09-.08,.17-.17,.21-.04,.02-.08,.03-.12,.03-.05,0-.1-.01-.14-.04l-.23-.12c-.11-.06-.17-.18-.15-.3,.04-.31,.07-.59,.08-.86,.02-.26,.03-.51,.03-.76,0-.16,0-.31-.02-.45-.27-.04-.54-.07-.81-.09-.33-.03-.67-.04-1-.04-.51,0-1.03,.04-1.53,.11v6.44s3.58-.34,3.59-.34c.11,0,.21,.06,.27,.16l.07,.14c.04,.07,.04,.15,.02,.23l-.33,1.02c-.04,.12-.16,.21-.29,.21,0,0-.02,0-.02,0-.21-.02-.42-.03-.64-.04-.21,0-.43-.01-.66-.01-.36,0-.73,.01-1.11,.04-.29,.02-.59,.04-.9,.07v7.92l2.19-.12c.3-.01,.55-.07,.75-.18,.2-.11,.37-.25,.51-.44,.15-.21,.29-.46,.41-.77,.13-.33,.25-.71,.38-1.14,.03-.09,.1-.17,.19-.2,.03-.01,.06-.02,.1-.02,.06,0,.12,.02,.18,.06l.21,.15c.1,.07,.14,.19,.12,.3l-.7,3.32s-.02,.07-.04,.1l-.11,.17c-.06,.08-.15,.14-.25,.14h-5.17Z"/>
    </g>
  </g>
</svg>