<?xml version="1.0" encoding="UTF-8"?>
<svg id="_圖層_2" data-name="圖層 2" xmlns="http://www.w3.org/2000/svg" viewBox="0 0 78.04 19.7">
  <defs>
    <style>
      .cls-1 {
        fill: #d5d9c4;
      }
    </style>
  </defs>
  <g id="txt">
    <g>
      <path class="cls-1" d="M5.24,19.7c-.76,0-1.48-.24-2.13-.71-.63-.46-1.19-1.12-1.65-1.96-.46-.83-.82-1.88-1.07-3.13-.25-1.24-.38-2.63-.38-4.13,0-1.33,.14-2.62,.41-3.81,.27-1.2,.64-2.24,1.1-3.09,.46-.86,1.02-1.56,1.66-2.08,.66-.53,1.37-.8,2.11-.8,1.7,0,3.02,.94,3.92,2.79,.87,1.78,1.31,4.27,1.31,7.4,0,1.33-.14,2.59-.41,3.76-.27,1.18-.64,2.19-1.1,3.01-.47,.84-1.03,1.51-1.67,1.99-.66,.5-1.36,.75-2.1,.75Zm-.12-18.34c-.5,0-.95,.2-1.36,.61-.43,.44-.79,1.04-1.07,1.79-.29,.77-.51,1.67-.66,2.67-.15,1.01-.23,2.09-.23,3.22,0,1.2,.07,2.31,.22,3.31,.15,.99,.34,1.84,.59,2.51,.24,.67,.53,1.24,.85,1.69,.31,.44,.64,.77,.98,.96,.33,.19,.67,.29,1.01,.29,.51,0,.95-.19,1.36-.59,.43-.42,.78-1,1.05-1.72,.28-.75,.5-1.63,.65-2.61,.15-.98,.22-2.06,.22-3.19,0-1.48-.11-2.82-.32-4-.21-1.17-.49-2.12-.84-2.84-.34-.7-.74-1.24-1.16-1.6-.41-.35-.83-.51-1.27-.51Z"/>
      <path class="cls-1" d="M12.57,19.19c-.14,0-.26-.09-.29-.23-.1-.37-.14-.81-.14-1.29V4.58c0-1.4-.12-2-.22-2.25-.09-.23-.25-.33-.53-.33-.05,0-.11,0-.17,.01-.01,0-.03,0-.04,0-.07,0-.13-.02-.18-.06-.06-.05-.1-.12-.11-.2l-.03-.24c-.01-.12,.05-.24,.16-.3,.82-.43,1.62-.64,2.37-.64,.14,0,.26,.1,.29,.24,.1,.48,.15,.98,.15,1.49v15.53l2.04-.12c.31-.01,.56-.07,.77-.17,.19-.1,.36-.25,.51-.47,.16-.24,.3-.5,.4-.76,.11-.28,.23-.65,.36-1.12,.03-.09,.1-.17,.19-.2,.03-.01,.07-.02,.1-.02,.06,0,.12,.02,.18,.06l.21,.15c.1,.07,.14,.19,.12,.3l-.7,3.32s-.02,.08-.05,.11l-.12,.17c-.06,.08-.15,.13-.25,.13h-5.02Z"/>
      <path class="cls-1" d="M20.31,19.39c-.12,0-.23-.07-.28-.19l-.05-.12c-.03-.07-.03-.15,0-.23,.06-.14,.13-.46,.13-1.2V4.58c0-1.4-.12-2-.22-2.25-.09-.23-.25-.33-.53-.33-.05,0-.11,0-.17,.01-.01,0-.03,0-.04,0-.07,0-.13-.02-.18-.06-.06-.05-.1-.12-.11-.2l-.03-.24c-.01-.12,.05-.24,.16-.3,.82-.43,1.62-.64,2.36-.64,.14,0,.26,.1,.29,.24,.1,.47,.15,.97,.15,1.49v14.37c0,.77,.11,1.15,.2,1.33,.12,.24,.35,.41,.71,.52,.14,.05,.23,.19,.2,.34l-.06,.3c-.02,.08-.06,.15-.13,.2-.05,.03-.11,.05-.16,.05-.02,0-.05,0-.07,0-.5-.12-.89-.18-1.14-.19h0c-.27,0-.58,.06-.95,.18-.03,.01-.06,.02-.09,.02Z"/>
      <path class="cls-1" d="M28.21,19.44s-.08,0-.12-.02l-.57-.25c-.09-.04-.16-.12-.18-.22-.46-2.59-.97-5.07-1.51-7.39-.54-2.33-1.2-4.98-1.96-7.87-.14-.54-.28-.93-.42-1.15-.12-.18-.2-.23-.23-.23-.16,0-.34,.02-.56,.05-.01,0-.03,0-.04,0-.13,0-.25-.09-.29-.22l-.07-.25c-.03-.11,0-.23,.09-.31,.86-.75,1.6-1.12,2.26-1.12,.13,0,.25,.09,.29,.22,.26,.88,.5,1.76,.73,2.65,.23,.89,.48,1.88,.74,2.97,.26,1.1,.45,1.93,.59,2.51,.13,.58,.35,1.56,.67,2.96l.59,2.64c.04,.14,.07,.29,.1,.44,.06-.29,.12-.59,.19-.88l2.65-11.74c.02-.26-.08-.32-.11-.34-.05-.03-.15-.07-.34-.07-.1,0-.22,.01-.34,.03-.02,0-.03,0-.05,0-.14,0-.27-.1-.29-.24l-.04-.22c-.02-.13,.04-.26,.16-.32,.65-.33,1.36-.49,2.1-.49,.13,0,.3,.08,.37,.29,.03,.1,.04,.2,.02,.31-.05,.31-.11,.62-.17,.95-.06,.33-1.31,5.76-3.94,17.1-.02,.09-.08,.16-.16,.2-.04,.02-.09,.03-.13,.03Z"/>
      <path class="cls-1" d="M34.14,19.19c-.14,0-.25-.09-.29-.22-.1-.36-.15-.8-.15-1.3V4.45c0-.54-.01-.98-.04-1.33-.03-.32-.07-.58-.14-.77-.05-.14-.12-.24-.19-.29-.09-.05-.21-.08-.37-.08h-.1s-.04,0-.07,0c-.07,0-.15-.02-.2-.06-.07-.05-.14-.13-.14-.21l-.03-.36c-.01-.14,.08-.27,.22-.31,1.37-.38,2.9-.57,4.54-.57,.84,0,1.73,.05,2.64,.15,.13,.01,.23,.11,.26,.23l.05,.21s.01,.09,0,.13l-.68,3.1c-.02,.09-.08,.17-.17,.21-.04,.02-.08,.03-.12,.03-.05,0-.1-.01-.14-.04l-.23-.12c-.11-.06-.17-.18-.15-.3,.04-.31,.07-.6,.08-.86,.02-.26,.03-.51,.03-.76,0-.16,0-.31-.02-.45-.27-.04-.54-.07-.81-.09-.33-.03-.67-.04-1-.04-.51,0-1.03,.04-1.53,.11v6.44s3.58-.34,3.59-.34c.11,0,.21,.06,.27,.16l.07,.14c.04,.07,.04,.15,.02,.23l-.33,1.02c-.04,.12-.16,.21-.29,.21,0,0-.02,0-.02,0-.21-.02-.42-.03-.64-.04-.21,0-.43-.01-.66-.01-.36,0-.73,.01-1.11,.04-.29,.02-.59,.04-.9,.07v7.92l2.19-.12c.3-.01,.55-.07,.75-.18,.2-.1,.37-.25,.51-.44,.15-.2,.29-.46,.41-.77,.13-.33,.25-.71,.38-1.14,.03-.09,.1-.17,.19-.2,.03-.01,.06-.02,.1-.02,.06,0,.12,.02,.18,.06l.21,.15c.1,.07,.14,.19,.12,.3l-.7,3.32s-.02,.07-.04,.1l-.11,.17c-.06,.08-.15,.14-.25,.14h-5.17Z"/>
      <path class="cls-1" d="M47.13,19.39c-.13,0-.24-.08-.28-.2l-.04-.12c-.02-.07-.02-.14,0-.21,.06-.14,.12-.46,.12-1.21V1.85c-.28,.01-.6,.03-.94,.05-.42,.03-.88,.07-1.4,.12-.01,.19-.02,.39-.02,.6,0,.43,.03,.92,.1,1.46,.01,.12-.05,.24-.16,.3l-.23,.12s-.09,.03-.14,.03c-.04,0-.09,0-.13-.03-.08-.04-.15-.12-.17-.21l-.67-3.02s0-.1,0-.15l.09-.29c.03-.11,.13-.19,.24-.21,.69-.11,1.38-.19,2.04-.23,.65-.05,1.3-.07,1.95-.07s1.35,.03,2.09,.08c.75,.06,1.57,.14,2.45,.24,.12,.01,.21,.09,.25,.2l.09,.26c.02,.05,.02,.11,0,.16l-.67,3.02c-.02,.09-.08,.17-.17,.21-.04,.02-.08,.03-.13,.03-.05,0-.1-.01-.14-.03l-.23-.12c-.11-.06-.17-.18-.16-.3,.03-.28,.06-.55,.07-.8,.02-.25,.02-.48,.02-.7,0-.2,0-.39-.02-.56-.5-.05-.96-.09-1.37-.12-.35-.02-.67-.04-.96-.05v14.8c0,.32,.02,.6,.05,.83,.03,.21,.08,.38,.15,.52,.06,.12,.15,.22,.25,.3,.11,.08,.27,.15,.45,.21,.15,.04,.24,.19,.21,.34l-.06,.3c-.02,.08-.06,.15-.13,.2-.05,.03-.11,.05-.16,.05-.02,0-.05,0-.07,0-.28-.06-.52-.11-.72-.15-.19-.03-.35-.05-.48-.05-.12,0-.24,.02-.38,.04-.15,.03-.32,.08-.51,.14-.03,.01-.06,.02-.09,.02Z"/>
      <path class="cls-1" d="M59.38,19.55c-.08,0-.16-.03-.22-.09l-.11-.11c-.05-.06-.08-.13-.08-.21,0-.05-.01-.16-.1-.42-.08-.22-.18-.48-.29-.76-.12-.29-.32-.81-.62-1.56-.29-.73-1.21-2.97-2.76-6.73v6.97c0,.32,.02,.6,.05,.83,.03,.21,.08,.38,.15,.52,.06,.12,.15,.22,.25,.3,.12,.08,.27,.16,.46,.21,.15,.05,.24,.2,.21,.35l-.06,.3c-.02,.08-.06,.15-.13,.19-.05,.03-.1,.05-.16,.05-.02,0-.04,0-.07,0-.28-.06-.52-.11-.73-.15-.19-.03-.35-.05-.47-.05-.11,0-.24,.02-.38,.04-.16,.03-.33,.08-.51,.14-.03,.01-.06,.02-.09,.02-.12,0-.24-.08-.28-.2l-.04-.12c-.02-.07-.02-.14,0-.21,.06-.14,.12-.46,.12-1.21V4.58c0-.54-.01-.99-.04-1.35-.03-.34-.07-.62-.14-.82-.05-.16-.12-.27-.21-.33-.03-.02-.14-.08-.48-.08-.16,0-.37-.12-.38-.28l-.03-.36c-.01-.15,.09-.28,.23-.32l.84-.2c.25-.06,.48-.11,.71-.16,.22-.05,.45-.09,.67-.12,.22-.03,.43-.06,.64-.08,.2-.02,.37-.04,.49-.04,.13,0,.25-.01,.37-.01,.46,0,.89,.06,1.29,.18,.41,.13,.78,.35,1.08,.66,.3,.31,.53,.73,.7,1.24,.16,.5,.24,1.13,.24,1.88,0,.56-.07,1.11-.21,1.61-.14,.5-.34,.97-.58,1.39-.24,.42-.53,.8-.85,1.11-.27,.27-.56,.49-.86,.67l2.84,7.09c.23,.59,.53,1.05,.89,1.37,.36,.27,.58,.43,.66,.48l.29,.17c.09,.05,.14,.15,.14,.26v.24c0,.17-.13,.3-.3,.3-.78,0-1.45,.14-1.97,.42-.04,.02-.09,.04-.14,.04ZM55.18,2.03c0,.12,.01,.24,.01,.36v6.15s.05-.02,.08-.03c.43-.08,.8-.23,1.1-.45,.3-.21,.55-.49,.75-.83,.2-.34,.35-.75,.44-1.23,.1-.48,.15-1.03,.15-1.63-.01-.47-.05-.87-.12-1.2-.06-.29-.16-.53-.29-.7-.13-.17-.29-.28-.51-.36-.23-.08-.54-.13-.92-.13-.15,0-.3,0-.46,.02l-.23,.02Z"/>
      <path class="cls-1" d="M63.34,19.19c-.14,0-.26-.09-.29-.22-.1-.36-.14-.8-.14-1.3V4.45c0-.54-.01-.98-.04-1.33-.03-.33-.07-.58-.14-.77-.05-.15-.12-.24-.19-.29-.09-.05-.21-.08-.37-.08h-.1s-.04,0-.07,0c-.07,0-.15-.02-.2-.06-.07-.05-.14-.13-.14-.21l-.03-.36c-.01-.14,.08-.27,.22-.31,1.37-.38,2.9-.57,4.54-.57,.84,0,1.73,.05,2.64,.15,.13,.01,.23,.11,.26,.23l.05,.21s.01,.09,0,.13l-.67,3.1c-.02,.09-.08,.17-.17,.21-.04,.02-.08,.03-.12,.03-.05,0-.1-.01-.14-.04l-.23-.12c-.11-.06-.17-.18-.15-.3,.04-.31,.07-.59,.08-.86,.02-.26,.03-.51,.03-.76,0-.16,0-.31-.02-.45-.27-.04-.54-.07-.81-.09-.33-.03-.67-.04-1-.04-.51,0-1.03,.04-1.53,.11v6.44s3.58-.34,3.59-.34c.11,0,.21,.06,.27,.16l.07,.14c.04,.07,.04,.15,.02,.23l-.33,1.02c-.04,.12-.16,.21-.29,.21,0,0-.02,0-.02,0-.21-.02-.42-.03-.64-.04-.21,0-.43-.01-.66-.01-.36,0-.73,.01-1.11,.04-.29,.02-.59,.04-.9,.07v7.92l2.19-.12c.3-.01,.55-.07,.75-.18,.2-.11,.37-.25,.51-.44,.15-.21,.29-.46,.41-.77,.13-.33,.25-.71,.38-1.14,.03-.09,.1-.17,.19-.2,.03-.01,.06-.02,.1-.02,.06,0,.12,.02,.18,.06l.21,.15c.1,.07,.14,.19,.12,.3l-.7,3.32s-.02,.07-.04,.1l-.11,.17c-.06,.08-.15,.14-.25,.14h-5.17Z"/>
      <path class="cls-1" d="M71.76,19.19c-.14,0-.26-.09-.29-.22-.1-.36-.14-.8-.14-1.3V4.45c0-.54-.01-.98-.04-1.33-.03-.32-.07-.58-.14-.77-.05-.14-.12-.24-.19-.29-.09-.05-.21-.08-.37-.08h-.1s-.05,0-.07,0c-.07,0-.15-.02-.2-.06-.07-.05-.14-.13-.14-.21l-.03-.36c-.01-.14,.08-.27,.22-.31,1.37-.38,2.9-.57,4.54-.57,.84,0,1.73,.05,2.64,.15,.13,.01,.23,.11,.26,.23l.05,.21s.01,.09,0,.13l-.68,3.1c-.02,.09-.08,.17-.17,.21-.04,.02-.08,.03-.12,.03-.05,0-.1-.01-.14-.04l-.23-.12c-.11-.06-.17-.18-.15-.3,.04-.31,.07-.6,.08-.86,.02-.26,.03-.51,.03-.76,0-.16,0-.31-.02-.45-.27-.04-.54-.07-.81-.09-.33-.03-.67-.04-1-.04-.51,0-1.03,.04-1.53,.11v6.44s3.58-.34,3.59-.34c.11,0,.21,.06,.27,.16l.07,.14c.04,.07,.04,.16,.02,.23l-.33,1.02c-.04,.12-.16,.21-.29,.21,0,0-.02,0-.02,0-.21-.02-.42-.03-.64-.04-.21,0-.43-.01-.66-.01-.36,0-.73,.01-1.11,.04-.29,.02-.59,.04-.9,.07v7.92l2.19-.12c.3-.01,.56-.07,.75-.18,.2-.1,.37-.25,.51-.44,.15-.2,.29-.46,.41-.77,.13-.33,.25-.71,.38-1.14,.03-.09,.1-.17,.19-.2,.03-.01,.06-.02,.1-.02,.06,0,.12,.02,.18,.06l.21,.15c.1,.07,.14,.19,.12,.3l-.7,3.32s-.02,.07-.04,.1l-.11,.17c-.06,.08-.15,.14-.25,.14h-5.17Z"/>
    </g>
  </g>
</svg>