<?xml version="1.0" encoding="UTF-8"?>
<svg xmlns="http://www.w3.org/2000/svg" xmlns:xlink="http://www.w3.org/1999/xlink" viewBox="0 0 185.77 218.59">
  <defs>
    <style>
      .cls-1, .cls-2 {
        fill: #fff;
      }

      .cls-3 {
        fill: url(#_未命名漸層_4-12);
      }

      .cls-4 {
        fill: url(#_未命名漸層_4-10);
      }

      .cls-5 {
        fill: url(#_未命名漸層_4-6);
      }

      .cls-6 {
        fill: url(#_未命名漸層_4-7);
      }

      .cls-7 {
        isolation: isolate;
      }

      .cls-8 {
        fill: url(#_未命名漸層_4-2);
      }

      .cls-9 {
        fill: url(#_未命名漸層_4-4);
      }

      .cls-10 {
        fill: url(#_未命名漸層_577-3);
      }

      .cls-11 {
        fill: url(#_未命名漸層_4-9);
      }

      .cls-12 {
        fill: url(#_未命名漸層_4);
      }

      .cls-2, .cls-13 {
        opacity: .5;
      }

      .cls-14 {
        fill: url(#_未命名漸層_577);
      }

      .cls-15 {
        fill: #84bf79;
      }

      .cls-15, .cls-16 {
        opacity: .7;
      }

      .cls-17 {
        fill: #768672;
      }

      .cls-18 {
        fill: url(#_未命名漸層_4-15);
      }

      .cls-16, .cls-19 {
        fill: #427251;
      }

      .cls-20 {
        fill: url(#_未命名漸層_477-3);
      }

      .cls-21 {
        fill: url(#_未命名漸層_477);
      }

      .cls-22 {
        fill: #c3d186;
      }

      .cls-22, .cls-23 {
        mix-blend-mode: multiply;
      }

      .cls-24 {
        fill: url(#_未命名漸層_4-8);
      }

      .cls-25 {
        fill: url(#_未命名漸層_577-2);
      }

      .cls-23 {
        fill: #ffe772;
      }

      .cls-26 {
        fill: none;
      }

      .cls-27 {
        fill: url(#_未命名漸層_576);
      }

      .cls-28 {
        fill: url(#_未命名漸層_477-2);
      }

      .cls-29 {
        fill: url(#_未命名漸層_469-2);
      }

      .cls-13 {
        fill: #a07635;
      }

      .cls-30 {
        fill: url(#_未命名漸層_4-11);
      }

      .cls-31 {
        fill: url(#_未命名漸層_4-5);
      }

      .cls-32 {
        fill: url(#_未命名漸層_4-3);
      }

      .cls-33 {
        fill: url(#_未命名漸層_4-14);
      }

      .cls-34 {
        fill: url(#_未命名漸層_469);
      }

      .cls-35 {
        fill: url(#_未命名漸層_4-13);
      }
    </style>
    <linearGradient id="_未命名漸層_4" data-name="未命名漸層 4" x1="116.87" y1="218.59" x2="116.87" y2="2.22" gradientUnits="userSpaceOnUse">
      <stop offset="0" stop-color="#cfdbd0" stop-opacity=".2"/>
      <stop offset="1" stop-color="#cddace"/>
    </linearGradient>
    <linearGradient id="_未命名漸層_4-2" data-name="未命名漸層 4" x1="41.3" y1="218.59" x2="41.3" y2="2.22" xlink:href="#_未命名漸層_4"/>
    <linearGradient id="_未命名漸層_4-3" data-name="未命名漸層 4" x1="85.91" y1="218.59" x2="85.91" y2="2.22" xlink:href="#_未命名漸層_4"/>
    <radialGradient id="_未命名漸層_576" data-name="未命名漸層 576" cx="377.07" cy="3939.45" fx="377.07" fy="3939.45" r="22.12" gradientTransform="translate(2875.78 -319.06) rotate(90) scale(1 .7)" gradientUnits="userSpaceOnUse">
      <stop offset="0" stop-color="#c8ddff"/>
      <stop offset=".12" stop-color="#cee1ff"/>
      <stop offset=".4" stop-color="#dce9ff"/>
      <stop offset=".73" stop-color="#e7f0ff"/>
      <stop offset="1" stop-color="#fff"/>
    </radialGradient>
    <linearGradient id="_未命名漸層_577" data-name="未命名漸層 577" x1="-173.93" y1="176.35" x2="-134.71" y2="176.35" gradientTransform="translate(226.41 -32.93) rotate(3.79) scale(.99 .57) skewX(-6.62)" gradientUnits="userSpaceOnUse">
      <stop offset="0" stop-color="#c8ebfa"/>
      <stop offset=".92" stop-color="#f7ffff"/>
    </linearGradient>
    <linearGradient id="_未命名漸層_577-2" data-name="未命名漸層 577" x1="138.46" y1="2417.66" x2="167.73" y2="2417.66" gradientTransform="translate(524.94 -1259.89) rotate(14.54) scale(.99 .57) skewX(-6.62)" xlink:href="#_未命名漸層_577"/>
    <linearGradient id="_未命名漸層_469" data-name="未命名漸層 469" x1="250.28" y1="2664.93" x2="250.28" y2="2552.53" gradientTransform="translate(814.1 -2429.55) rotate(21.05)" gradientUnits="userSpaceOnUse">
      <stop offset="0" stop-color="#cedbf5"/>
      <stop offset=".92" stop-color="#f7ffff"/>
    </linearGradient>
    <linearGradient id="_未命名漸層_4-4" data-name="未命名漸層 4" x1="105.39" y1="216.38" x2="105.39" y2=".02" xlink:href="#_未命名漸層_4"/>
    <linearGradient id="_未命名漸層_4-5" data-name="未命名漸層 4" x1="102.3" y1="216.38" x2="102.3" y2=".02" xlink:href="#_未命名漸層_4"/>
    <linearGradient id="_未命名漸層_4-6" data-name="未命名漸層 4" x1="114.97" y1="216.38" x2="114.97" y2=".02" xlink:href="#_未命名漸層_4"/>
    <linearGradient id="_未命名漸層_4-7" data-name="未命名漸層 4" x1="91.85" y1="216.38" x2="91.85" y2=".02" xlink:href="#_未命名漸層_4"/>
    <linearGradient id="_未命名漸層_4-8" data-name="未命名漸層 4" x1="93.81" y1="216.38" x2="93.81" y2=".02" xlink:href="#_未命名漸層_4"/>
    <linearGradient id="_未命名漸層_4-9" data-name="未命名漸層 4" x1="96.26" y1="216.38" x2="96.26" y2=".02" xlink:href="#_未命名漸層_4"/>
    <linearGradient id="_未命名漸層_4-10" data-name="未命名漸層 4" x1="90.54" y1="216.38" x2="90.54" y2=".02" gradientTransform="translate(180.38 -.54) rotate(75.96)" xlink:href="#_未命名漸層_4"/>
    <linearGradient id="_未命名漸層_4-11" data-name="未命名漸層 4" x1="86.92" y1="216.38" x2="86.92" y2=".02" xlink:href="#_未命名漸層_4"/>
    <linearGradient id="_未命名漸層_4-12" data-name="未命名漸層 4" x1="110.04" y1="216.38" x2="110.04" y2=".02" xlink:href="#_未命名漸層_4"/>
    <linearGradient id="_未命名漸層_4-13" data-name="未命名漸層 4" x1="102.02" y1="216.38" x2="102.02" y2=".02" xlink:href="#_未命名漸層_4"/>
    <linearGradient id="_未命名漸層_4-14" data-name="未命名漸層 4" x1="107.31" y1="216.38" x2="107.31" y2=".02" xlink:href="#_未命名漸層_4"/>
    <linearGradient id="_未命名漸層_4-15" data-name="未命名漸層 4" x1="104.42" y1="216.38" x2="104.42" y2=".02" xlink:href="#_未命名漸層_4"/>
    <linearGradient id="_未命名漸層_469-2" data-name="未命名漸層 469" x1="235.96" x2="235.96" y2="2552.53" xlink:href="#_未命名漸層_469"/>
    <linearGradient id="_未命名漸層_477" data-name="未命名漸層 477" x1="86.43" y1="118.85" x2="113.64" y2="118.85" gradientTransform="translate(-45.04 63.29) rotate(-28.96)" gradientUnits="userSpaceOnUse">
      <stop offset="0" stop-color="#fff" stop-opacity="0"/>
      <stop offset=".5" stop-color="#fcffff" stop-opacity=".19"/>
      <stop offset=".92" stop-color="#f7ffff"/>
    </linearGradient>
    <linearGradient id="_未命名漸層_477-2" data-name="未命名漸層 477" x1="92.24" y1="104.15" x2="108.76" y2="104.15" gradientTransform="translate(-31.02 43.74) rotate(-21.35)" xlink:href="#_未命名漸層_477"/>
    <linearGradient id="_未命名漸層_477-3" data-name="未命名漸層 477" x1="83.48" y1="115.25" x2="97.59" y2="115.25" gradientTransform="translate(-25.17 25.3) rotate(-13.99)" xlink:href="#_未命名漸層_477"/>
    <linearGradient id="_未命名漸層_577-3" data-name="未命名漸層 577" x1="138.46" y1="2417.66" x2="167.73" y2="2417.66" gradientTransform="translate(524.94 -1259.89) rotate(14.54) scale(.99 .57) skewX(-6.62)" xlink:href="#_未命名漸層_577"/>
  </defs>
  <g class="cls-7">
    <g id="_圖層_2" data-name="圖層 2">
      <g id="_拆開的花" data-name="拆開的花">
        <g>
          <g>
            <g>
              <path class="cls-1" d="M105.34,169.12c-5.64,4.29-11.18,9.2-16.05,14.7v.64c7.56-5.5,41.66-30.14,55.18-37.24-36.68,3.14-50.93,25.75-55.18,34.7v1.88c4.78-5.46,10.34-10.37,16.05-14.68Z"/>
              <path class="cls-12" d="M105.34,169.12c-5.64,4.29-11.18,9.2-16.05,14.7v.64c7.56-5.5,41.66-30.14,55.18-37.24-36.68,3.14-50.93,25.75-55.18,34.7v1.88c4.78-5.46,10.34-10.37,16.05-14.68Z"/>
            </g>
            <path class="cls-17" d="M87.79,185.54s41.44-30.33,56.68-38.34c0,0-35.57,13.19-56.68,38.34Z"/>
            <path class="cls-19" d="M87.79,185.54s10.8-34.42,56.68-38.34c0,0-36.46,13.86-56.68,38.34Z"/>
          </g>
          <g>
            <g>
              <path class="cls-26" d="M0,151.96c13.9,5.72,26.16,12.41,36.76,19.25-10.67-6.93-22.97-13.66-36.76-19.25Z"/>
              <path class="cls-1" d="M0,151.96c13.79,5.59,26.09,12.31,36.76,19.25-10.6-6.84-22.87-13.53-36.76-19.25,0,0,60.83,40.73,82.54,59.28l.06-8.04C65.44,161.99,0,151.96,0,151.96Z"/>
              <path class="cls-8" d="M0,151.96c13.79,5.59,26.09,12.31,36.76,19.25-10.6-6.84-22.87-13.53-36.76-19.25,0,0,60.83,40.73,82.54,59.28l.06-8.04C65.44,161.99,0,151.96,0,151.96Z"/>
            </g>
            <path class="cls-15" d="M0,151.95s67.88,45.45,85.82,62.19c0,0-29.63-39.06-85.82-62.19Z"/>
            <path class="cls-16" d="M0,151.95s76.8,11.77,85.82,62.19c0,0-31.12-40.03-85.82-62.19Z"/>
          </g>
          <g>
            <path class="cls-32" d="M82.62,145.91s.03,.05,.05,.07v57.37s-.04-.1-.06-.15l-.06,8.04s.08,.07,.13,.11v7.24h6.61v-34.12s0,0,0,0v-.64s0,0,0,.01v-.02s0,0,0-.01v-1.88s0,.01,0,.02v-35.45c-3.5,1.15-5.63,.19-6.66-.58Z"/>
            <path class="cls-19" d="M85.84,142.71h.27c1.75,0,3.17,1.42,3.17,3.17v72.69h-6.61v-72.69c0-1.75,1.42-3.17,3.17-3.17Z"/>
          </g>
          <g>
            <g>
              <path class="cls-2" d="M105.14,62.77c-1.38-.74-2.87-1.34-3.78-1.69-4.31-1.68-9.54-2.63-14.42-3.67-13.83-2.94-31.27,1.57-39.63,10.24-6.7,6.95-11.94,13.78-13.82,21.36-.28,1.13-.46,2.3,.05,3.32,.51,1.02,1.86,1.88,3.73,1.96,2.51,.11,4.99-1.14,6.95-2.34,4.53-2.77,7.8-6.06,12.02-8.97,4.39-3.02,9.06-5.06,14.27-7.54,4.32-2.06,9.47-3.29,14.55-3.46,0,0,9.69-.34,9.71-.34,3.43-.12,7.74-.62,10.84-2.02,4.77-2.16,2.48-5.26-.45-6.84Z"/>
              <path class="cls-2" d="M95.94,67.96c1.3-1.63,2.74-3.04,3.61-3.88,4.14-4,9.25-6.94,14.02-9.95,13.5-8.52,31.32-4.95,40.49,8.12,0,0,22.19,31.63,22.2,31.64,1.39,1.99,.97,4.88-.48,6.69-3.8,4.75-9.85,.21-13.71-1.96-5.1-2.87-10.21-5.75-15.31-8.62-5.02-2.83-10.04-5.65-15.07-8.48-4.5-2.54-9.75-3.41-14.84-2.47,0,0-9.69,1.8-9.71,1.8-3.43,.64-7.78,.82-11-.86-4.96-2.59-2.98-8.57-.21-12.04Z"/>
              <path class="cls-2" d="M83.06,58.77c-2.28-1.57-4.28-3.45-6.31-5.23-7.03-6.19-14.87-11.74-23.33-16.52-4.46-2.51-9.21-4.57-13.77-6.93-4.59-2.38-10.06-3.91-15.06-5.7-1.86-.67-4-1.62-4.21-3.3-.15-1.19,.8-2.32,2.03-2.94,1.22-.62,2.68-.82,4.1-.97,9.06-1,18.3-.79,27.28,.62,7.89,1.24,16.02,1.93,22.55,6.25,9.09,6.02,16.51,13.64,22.11,22.1,2.88,4.35,1.55,9.81-3.18,12.83-2.85,1.82-6.87,2.86-10.01,1.14-.76-.41-1.48-.87-2.18-1.35Z"/>
              <path class="cls-2" d="M117.09,52.98c5.63-5.95,13.1-11.37,22.22-15.55,6.12-2.81,11.17-4.24,18.91-4.47,7.55-.22,15.18,.54,22.16,2.25,1.31,.32,2.63,.69,3.62,1.29,.99,.6,1.61,1.49,1.23,2.3-.39,.85-1.72,1.41-2.95,1.89-15.25,6.02-29.79,11.75-42.91,19.45-3.47,2.04-5.76,3.97-11.03,4.02-3.98,.04-7.84-1.06-10.26-2.94-3.07-2.38-3.46-5.62-.99-8.24Z"/>
              <path class="cls-2" d="M94.55,48.97c-2.47-10.15-3.33-20.65-1.98-30.58,.68-5.01,.86-12.78,4.27-16.49,2.97-3.24,8.99-1.62,12.93-.25,5.68,1.97,8.02,3.68,9.15,9.88,2.57,14.2,1.75,28.19-2.44,41.18-1.69,5.25-7.05,7.9-12.64,6.19-4.5-1.37-8.15-5.28-9.28-9.93Z"/>
              <g>
                <path class="cls-1" d="M100.58,59.66c-.56-2.01-1.32-3.87-1.79-4.98-2.23-5.3-5.78-10.02-8.99-14.66-9.07-13.14-26.86-16.86-40.43-8.44-10.87,6.74-20.46,14.21-27.86,24.91-1.11,1.6-2.16,3.31-2.52,5.22-.37,1.91,.07,4.09,1.54,5.36,1.98,1.72,4.98,1.3,7.51,.63,5.85-1.54,11.09-4.68,16.8-6.62,5.94-2.02,11.34-2.33,17.54-3,5.14-.56,10.31,.7,14.61,3.56,0,0,8.21,5.46,8.23,5.47,2.91,1.93,6.83,3.81,10.45,3.53,5.58-.43,6.11-6.71,4.92-10.99Z"/>
                <path class="cls-1" d="M93.19,60.49c1.84-.98,3.71-1.71,4.84-2.14,5.38-2.04,11.24-2.72,16.81-3.6,15.77-2.5,30.73,7.83,33.99,23.46,0,0,7.89,37.83,7.89,37.84,.5,2.38-1.04,4.87-3.09,5.96-5.37,2.86-9.13-3.7-11.82-7.22-3.55-4.66-7.11-9.31-10.66-13.97s-6.99-9.16-10.49-13.74c-3.14-4.11-7.62-6.98-12.66-8.13,0,0-9.61-2.18-9.63-2.18-3.4-.77-7.47-2.32-9.76-5.13-3.53-4.34,.64-9.05,4.56-11.14Z"/>
                <path class="cls-1" d="M96.24,55.7c-1.83-2.13-3.31-4.49-4.85-6.78-5.31-7.92-11.57-15.38-18.62-22.22-3.72-3.59-7.83-6.79-11.68-10.26-3.87-3.49-8.81-6.33-13.24-9.32-1.65-1.11-3.49-2.58-3.28-4.34,.14-1.24,1.35-2.16,2.69-2.5s2.8-.19,4.22-.02c9.05,1.12,17.98,3.51,26.36,7.06,7.36,3.12,15.1,5.73,20.38,11.64,7.36,8.23,12.7,17.69,16.06,27.57,1.73,5.08-.9,10.29-6.24,12.23-3.22,1.17-7.38,1.27-10.01-1.2-.64-.6-1.23-1.23-1.79-1.88Z"/>
                <path class="cls-1" d="M115.38,54.61c10.47-4.73,21.9-7.66,33.41-7.92,7.73-.18,13.23,.86,19.69,5.15,6.3,4.17,11.68,9.73,15.6,16.19,.74,1.21,1.43,2.49,1.63,3.89s-.19,2.97-1.3,3.85c-1.17,.92-2.79,.89-4.27,.82-18.29-.87-35.71-1.72-53.97,.94-4.83,.7-8.6,1.96-12.9-1.09-3.25-2.3-5.26-6.08-5.33-10.06-.1-5.05,2.82-9.68,7.43-11.76Z"/>
                <path class="cls-1" d="M102.11,45.71c-11.18,3.3-42.75,16.94-46.95,66.32-.55,6.43,7.55,9.71,11.69,4.77,12.86-15.36,34.42-37.07,55.89-40.57,5.3-.86,7.36-7.42,3.55-11.22l-17.65-17.63c-1.71-1.71-4.22-2.36-6.54-1.68Z"/>
                <path class="cls-1" d="M100.96,50.02c3.55-10.16,8.87-19.86,16.03-28.02,3.61-4.11,8.36-10.9,13.89-12.57,4.83-1.46,9.78,2.84,12.84,5.93,4.42,4.45,5.72,7.07,3.17,13.09-5.83,13.79-14.85,25.79-26.61,35.3-4.75,3.84-11.56,3.64-16.05-.53-3.61-3.35-4.9-8.54-3.27-13.2Z"/>
              </g>
              <ellipse class="cls-27" cx="109.78" cy="58.01" rx="13.41" ry="24.78" transform="translate(10.82 133.01) rotate(-65.01)"/>
              <path class="cls-23" d="M105.19,61.51c11.55-6.36,17.54-19.64,14.66-32.51-.28-1.25,.29-2.55,1.39-2.9h0c1.09-.36,2.36,.53,2.69,1.99,3.28,14.68-3.54,29.82-16.72,37.07-1.31,.72-2.81,.36-3.27-.69h0c-.46-1.06,.14-2.34,1.26-2.96Z"/>
              <path class="cls-22" d="M104.8,62.2c8.12-10.4,8.4-24.96,.69-35.66-.75-1.04-.74-2.45,.13-3.21h0c.87-.76,2.38-.44,3.25,.78,8.79,12.2,8.47,28.81-.79,40.66-.92,1.18-2.45,1.44-3.28,.65h0c-.84-.79-.8-2.21,0-3.22Z"/>
              <path class="cls-22" d="M103.34,63.88c.96-10.81-5.86-18.44-16.7-18.69-1.05-.03-1.73-.76-1.45-1.73h0c.27-.97,1.54-1.83,2.77-1.8,12.37,.29,20.15,8.99,19.05,21.32-.11,1.23-1.11,2.39-2.1,2.55h0c-1,.16-1.65-.59-1.56-1.64Z"/>
              <path class="cls-23" d="M104.11,63.21c4.88-10.7,1.22-22.12-8.98-27.98-.99-.57-1.36-1.67-.74-2.54h0c.62-.87,2.14-1.11,3.29-.44,11.63,6.68,15.81,19.71,10.24,31.91-.55,1.21-1.93,1.9-2.93,1.56h0c-1.01-.35-1.35-1.46-.88-2.5Z"/>
              <path class="cls-22" d="M108.08,64.26c9.73-3.54,16.28-13.13,16.05-23.48-.02-1,.61-1.94,1.49-2.09h0c.88-.14,1.71,.7,1.74,1.87,.27,11.8-7.21,22.74-18.3,26.77-1.1,.4-2.19-.06-2.38-.94h0c-.19-.88,.46-1.8,1.4-2.15Z"/>
              <path class="cls-23" d="M106.55,63.33c10.86,1.08,21.09-5.2,25.04-15.37,.39-.99,1.37-1.61,2.29-1.33h0c.92,.27,1.38,1.48,.93,2.63-4.51,11.6-16.17,18.76-28.56,17.53-1.23-.12-2.1-1.08-1.93-2.02h0c.17-.94,1.17-1.54,2.23-1.44Z"/>
              <path class="cls-23" d="M117.34,22.75c-.5-2.32-5.51-3.21-11.19-1.98-5.68,1.23-9.87,4.1-9.37,6.42,0,.01,0,.02,0,.03l20.56-4.44s0-.02,0-.03Z"/>
              <path class="cls-13" d="M90.61,38.79c-1.24-.79-3.81,1.02-5.75,4.04-1.94,3.03-2.51,6.12-1.27,6.92,0,0,.01,0,.02,0l7.02-10.96s-.01,0-.02-.01Z"/>
              <path class="cls-13" d="M132.57,40.72c.19-1.46-2.55-3.01-6.12-3.47s-6.61,.35-6.79,1.81c0,0,0,.01,0,.02l12.91,1.66s0-.01,0-.02Z"/>
              <path class="cls-13" d="M101.53,30.24c-.72-1.28-3.85-.89-6.98,.88-3.13,1.77-5.08,4.23-4.36,5.51,0,0,0,.01,.01,.02l11.34-6.39s0-.01,0-.02Z"/>
              <path class="cls-13" d="M139.45,47.18c-.14-1.46-3.16-2.37-6.74-2.02-3.58,.35-6.36,1.81-6.22,3.28,0,0,0,.01,0,.02l12.96-1.26s0-.01,0-.02Z"/>
              <path class="cls-13" d="M127.99,27.22c0-1.47-2.91-2.66-6.51-2.66-3.59,0-6.51,1.19-6.51,2.66,0,0,0,.01,0,.02h13.02s0-.01,0-.02Z"/>
              <path class="cls-13" d="M106.45,40.04c-.75-1.26-3.86-.8-6.96,1.03-3.09,1.83-4.99,4.35-4.24,5.61,0,0,0,.01,.01,.02l11.19-6.64s0-.01,0-.02Z"/>
              <g>
                <path class="cls-14" d="M25.66,62.67s11.01-12.95,42.8-12.4c0,0-26.39,3.76-42.8,12.4Z"/>
                <path class="cls-25" d="M38.56,51.09s9.88-7.96,33.11-3.14c0,0-19.87-.91-33.11,3.14Z"/>
              </g>
              <path class="cls-34" d="M91.93,140.28s0,0,0-.01c3.35-6.1,6.7-12.2,10.06-18.3h0c-3.35,6.11-6.71,12.21-10.07,18.32Z"/>
              <path class="cls-2" d="M109.04,124.72c-.07,.22-.16,.42-.26,.6,.11-.18,.2-.39,.27-.62,0,0,8.82-28.75,8.82-28.75,.02-.06,.03-.13,.05-.19-.02,.07-.04,.14-.06,.2,0,0-8.82,28.75-8.82,28.75Z"/>
              <path class="cls-1" d="M105.13,126.03c-1.57-.84-2.52-2.34-3.12-4.09,0,0,0,.01,0,.02,.6,1.75,1.56,3.24,3.12,4.08,1.39,.75,2.93,.55,3.66-.73-.74,1.26-2.27,1.46-3.65,.71Z"/>
              <path class="cls-9" d="M105.13,126.03c-1.57-.84-2.52-2.34-3.12-4.09,0,0,0,.01,0,.02,.6,1.75,1.56,3.24,3.12,4.08,1.39,.75,2.93,.55,3.66-.73-.74,1.26-2.27,1.46-3.65,.71Z"/>
              <path class="cls-1" d="M185.71,71.94c-.2-1.4-.9-2.68-1.63-3.89-3.92-6.46-9.31-12.02-15.6-16.19-2.04-1.35-3.98-2.38-5.93-3.15,6.4-2.74,12.99-5.34,19.73-8,1.23-.49,2.56-1.05,2.95-1.89,.38-.81-.24-1.7-1.23-2.3s-2.31-.97-3.62-1.29c-6.99-1.71-14.62-2.47-22.16-2.25-5.94,.17-10.3,1.06-14.77,2.74,1.25-2.35,2.4-4.77,3.45-7.24,2.55-6.03,1.25-8.65-3.17-13.09-3.06-3.08-8.02-7.38-12.84-5.93-4.15,1.26-7.86,5.4-10.98,9.12-.24-2.33-.56-4.68-.99-7.03-1.12-6.21-3.46-7.91-9.15-9.88-3.94-1.37-9.96-3-12.93,.25-2.62,2.85-3.33,8.1-3.83,12.65-4.58-3.04-9.97-5-15.17-7.21C69.45,3.8,60.51,1.41,51.47,.29c-1.42-.18-2.88-.32-4.22,.02-1.34,.34-2.55,1.26-2.69,2.5-.2,1.75,1.64,3.22,3.28,4.34,4.43,2.99,9.37,5.83,13.24,9.32,1.18,1.06,2.38,2.1,3.59,3.13-3.57-.75-7.27-1.21-10.91-1.79-8.98-1.41-18.22-1.63-27.28-.62-1.42,.16-2.87,.36-4.1,.97-1.22,.62-2.18,1.75-2.03,2.94,.22,1.68,2.35,2.64,4.21,3.3,5.01,1.79,10.48,3.32,15.06,5.7,2.24,1.16,4.53,2.25,6.8,3.36-9.67,6.27-18.22,13.32-24.95,23.06-1.11,1.6-2.16,3.31-2.52,5.22-.37,1.91,.07,4.09,1.54,5.36,1.98,1.72,4.98,1.3,7.51,.63,5.85-1.54,11.09-4.68,16.8-6.62,5.94-2.02,11.34-2.33,17.54-3,1.15-.13,2.3-.16,3.45-.1-7.43,1.8-14.19,5.17-18.51,9.66-6.7,6.95-11.94,13.78-13.82,21.36-.28,1.13-.46,2.3,.05,3.32,.51,1.02,1.86,1.88,3.73,1.96,2.51,.11,4.99-1.14,6.95-2.34,4.53-2.77,7.8-6.06,12.02-8.97,2.49-1.71,5.07-3.11,7.79-4.45-4.39,8.76-7.69,19.75-8.85,33.51-.55,6.43,7.55,9.71,11.69,4.77,6.51-7.77,15.25-17.17,25.08-25.02-1.73,15.73-5.31,31.32-9.66,46.45-.33,1.16-.67,2.36-.57,3.57,.02,.19,.05,.37,.09,.55,.03,.13,.07,.25,.11,.37,.01,.04,.02,.09,.04,.13,.06,.15,.13,.3,.21,.44,0,0,0,0,0,.01,.03,.05,.06,.09,.09,.13-.29-.46-.48-1.01-.53-1.64-.1-1.21,.23-2.4,.57-3.57,4.4-15.3,8.02-31.07,9.72-46.98,.1-.97,.2-1.95,.29-2.92,.99-10.78-1.09-22.75-4.68-32.98-.5-1.02-.97-2.1-1.38-3.18-2.27-4.11-7.2-10.94-6.91-13.6,.57-5.2,8.2-5.48,12.19-5.09,10.5,1.01,20.89,3.11,30.97,6.22,5.19,1.6,10.29,3.48,15.28,5.61,2.42,1.04,4.82,2.13,7.19,3.29,1.8,.88,4.05,1.25,5.69,2.18-1.72,3.02-4.19,5.81-6.26,8.62-8.77,11.91-17.54,23.82-26.31,35.74-.06,.21-.1,.42-.16,.63,.06-.22,.13-.44,.18-.66,1.42-1.93,2.84-3.86,4.26-5.79,2.93,3.84,5.86,7.68,8.8,11.52,3.55,4.66,7.11,9.31,10.66,13.97,2.69,3.52,6.45,10.08,11.82,7.22,2.05-1.09,3.58-3.58,3.09-5.96,0,0-2.61-12.51-4.83-23.14,3.39,1.91,6.78,3.81,10.16,5.72,3.86,2.17,9.9,6.71,13.71,1.96,1.45-1.81,1.88-4.7,.48-6.69,0,0-6.62-9.44-12.63-18,5.46,.16,10.95,.43,16.52,.69,1.48,.07,3.11,.1,4.27-.82,1.11-.88,1.5-2.44,1.3-3.85Z"/>
              <path class="cls-31" d="M185.71,71.94c-.2-1.4-.9-2.68-1.63-3.89-3.92-6.46-9.31-12.02-15.6-16.19-2.04-1.35-3.98-2.38-5.93-3.15,6.4-2.74,12.99-5.34,19.73-8,1.23-.49,2.56-1.05,2.95-1.89,.38-.81-.24-1.7-1.23-2.3s-2.31-.97-3.62-1.29c-6.99-1.71-14.62-2.47-22.16-2.25-5.94,.17-10.3,1.06-14.77,2.74,1.25-2.35,2.4-4.77,3.45-7.24,2.55-6.03,1.25-8.65-3.17-13.09-3.06-3.08-8.02-7.38-12.84-5.93-4.15,1.26-7.86,5.4-10.98,9.12-.24-2.33-.56-4.68-.99-7.03-1.12-6.21-3.46-7.91-9.15-9.88-3.94-1.37-9.96-3-12.93,.25-2.62,2.85-3.33,8.1-3.83,12.65-4.58-3.04-9.97-5-15.17-7.21C69.45,3.8,60.51,1.41,51.47,.29c-1.42-.18-2.88-.32-4.22,.02-1.34,.34-2.55,1.26-2.69,2.5-.2,1.75,1.64,3.22,3.28,4.34,4.43,2.99,9.37,5.83,13.24,9.32,1.18,1.06,2.38,2.1,3.59,3.13-3.57-.75-7.27-1.21-10.91-1.79-8.98-1.41-18.22-1.63-27.28-.62-1.42,.16-2.87,.36-4.1,.97-1.22,.62-2.18,1.75-2.03,2.94,.22,1.68,2.35,2.64,4.21,3.3,5.01,1.79,10.48,3.32,15.06,5.7,2.24,1.16,4.53,2.25,6.8,3.36-9.67,6.27-18.22,13.32-24.95,23.06-1.11,1.6-2.16,3.31-2.52,5.22-.37,1.91,.07,4.09,1.54,5.36,1.98,1.72,4.98,1.3,7.51,.63,5.85-1.54,11.09-4.68,16.8-6.62,5.94-2.02,11.34-2.33,17.54-3,1.15-.13,2.3-.16,3.45-.1-7.43,1.8-14.19,5.17-18.51,9.66-6.7,6.95-11.94,13.78-13.82,21.36-.28,1.13-.46,2.3,.05,3.32,.51,1.02,1.86,1.88,3.73,1.96,2.51,.11,4.99-1.14,6.95-2.34,4.53-2.77,7.8-6.06,12.02-8.97,2.49-1.71,5.07-3.11,7.79-4.45-4.39,8.76-7.69,19.75-8.85,33.51-.55,6.43,7.55,9.71,11.69,4.77,6.51-7.77,15.25-17.17,25.08-25.02-1.73,15.73-5.31,31.32-9.66,46.45-.33,1.16-.67,2.36-.57,3.57,.02,.19,.05,.37,.09,.55,.03,.13,.07,.25,.11,.37,.01,.04,.02,.09,.04,.13,.06,.15,.13,.3,.21,.44,0,0,0,0,0,.01,.03,.05,.06,.09,.09,.13-.29-.46-.48-1.01-.53-1.64-.1-1.21,.23-2.4,.57-3.57,4.4-15.3,8.02-31.07,9.72-46.98,.1-.97,.2-1.95,.29-2.92,.99-10.78-1.09-22.75-4.68-32.98-.5-1.02-.97-2.1-1.38-3.18-2.27-4.11-7.2-10.94-6.91-13.6,.57-5.2,8.2-5.48,12.19-5.09,10.5,1.01,20.89,3.11,30.97,6.22,5.19,1.6,10.29,3.48,15.28,5.61,2.42,1.04,4.82,2.13,7.19,3.29,1.8,.88,4.05,1.25,5.69,2.18-1.72,3.02-4.19,5.81-6.26,8.62-8.77,11.91-17.54,23.82-26.31,35.74-.06,.21-.1,.42-.16,.63,.06-.22,.13-.44,.18-.66,1.42-1.93,2.84-3.86,4.26-5.79,2.93,3.84,5.86,7.68,8.8,11.52,3.55,4.66,7.11,9.31,10.66,13.97,2.69,3.52,6.45,10.08,11.82,7.22,2.05-1.09,3.58-3.58,3.09-5.96,0,0-2.61-12.51-4.83-23.14,3.39,1.91,6.78,3.81,10.16,5.72,3.86,2.17,9.9,6.71,13.71,1.96,1.45-1.81,1.88-4.7,.48-6.69,0,0-6.62-9.44-12.63-18,5.46,.16,10.95,.43,16.52,.69,1.48,.07,3.11,.1,4.27-.82,1.11-.88,1.5-2.44,1.3-3.85Z"/>
              <path class="cls-1" d="M91.67,44.11c1.42,.76,2.77,1.71,3.59,2.28,3.86,2.74,7.53,6.65,11.09,10.23,9.87,9.91,14.91,26.65,11.73,38.5,8.76-11.92,17.54-23.83,26.31-35.74,2.07-2.81,4.54-5.6,6.26-8.62-1.64-.93-3.89-1.3-5.69-2.18-2.37-1.16-4.77-2.26-7.19-3.29-4.99-2.13-10.1-4.01-15.28-5.61-10.08-3.11-20.47-5.21-30.97-6.22-3.99-.38-11.62-.11-12.19,5.09-.29,2.66,4.64,9.48,6.91,13.6-.59-1.57-1.03-3.17-1.18-4.66-.52-5.24,3.59-5.01,6.62-3.38Z"/>
              <path class="cls-5" d="M91.67,44.11c1.42,.76,2.77,1.71,3.59,2.28,3.86,2.74,7.53,6.65,11.09,10.23,9.87,9.91,14.91,26.65,11.73,38.5,8.76-11.92,17.54-23.83,26.31-35.74,2.07-2.81,4.54-5.6,6.26-8.62-1.64-.93-3.89-1.3-5.69-2.18-2.37-1.16-4.77-2.26-7.19-3.29-4.99-2.13-10.1-4.01-15.28-5.61-10.08-3.11-20.47-5.21-30.97-6.22-3.99-.38-11.62-.11-12.19,5.09-.29,2.66,4.64,9.48,6.91,13.6-.59-1.57-1.03-3.17-1.18-4.66-.52-5.24,3.59-5.01,6.62-3.38Z"/>
              <path class="cls-1" d="M101.19,118.07l-13.58,24.55c-.16,.29-.53,.4-.82,.24l-.05-.03c-.29-.16-.4-.53-.24-.82l14.48-26.17c-.07-1.04-.12-2.03-.19-2.91-.17-2.23-.35-4.47-.52-6.7l-6.98,17.86c-.11,.27-.41,.4-.68,.3l-.04-.02c-.27-.11-.4-.41-.3-.68l7.81-19.97c-.18-2.37-.37-4.75-.55-7.12l-1.25-16.07c-.37-4.8-1.97-9.86-4.5-14.27,0,0-4.84-8.42-4.85-8.44-.44-.77-.89-1.6-1.32-2.48,3.59,10.24,5.67,22.21,4.68,32.98-.09,.97-.19,1.95-.29,2.92-1.7,15.91-5.32,31.68-9.72,46.98-.33,1.16-.67,2.36-.57,3.57,.05,.63,.25,1.17,.53,1.64,.02,.03,.03,.05,.05,.08,.05,.08,.11,.15,.17,.23,1.02,.75,3.08,1.65,6.44,.61,.2-.15,.38-.33,.56-.5,.14-.13,.28-.26,.41-.41,.15-.16,.28-.34,.41-.52,.12-.16,.25-.31,.37-.48,.13-.19,.26-.4,.38-.6,.1-.16,.2-.31,.3-.47,.21-.36,.41-.72,.61-1.08,3.36-6.11,6.71-12.21,10.07-18.32h0s0-.01,0-.02c-.42-1.21-.66-2.55-.82-3.88Zm-16.61,23.39c-.07,.29-.36,.46-.65,.39h-.04c-.29-.08-.46-.37-.39-.66l12.99-52.16c.07-.29,.36-.46,.65-.39h.04c.29,.08,.46,.37,.39,.66l-12.99,52.16Z"/>
              <path class="cls-6" d="M101.19,118.07l-13.58,24.55c-.16,.29-.53,.4-.82,.24l-.05-.03c-.29-.16-.4-.53-.24-.82l14.48-26.17c-.07-1.04-.12-2.03-.19-2.91-.17-2.23-.35-4.47-.52-6.7l-6.98,17.86c-.11,.27-.41,.4-.68,.3l-.04-.02c-.27-.11-.4-.41-.3-.68l7.81-19.97c-.18-2.37-.37-4.75-.55-7.12l-1.25-16.07c-.37-4.8-1.97-9.86-4.5-14.27,0,0-4.84-8.42-4.85-8.44-.44-.77-.89-1.6-1.32-2.48,3.59,10.24,5.67,22.21,4.68,32.98-.09,.97-.19,1.95-.29,2.92-1.7,15.91-5.32,31.68-9.72,46.98-.33,1.16-.67,2.36-.57,3.57,.05,.63,.25,1.17,.53,1.64,.02,.03,.03,.05,.05,.08,.05,.08,.11,.15,.17,.23,1.02,.75,3.08,1.65,6.44,.61,.2-.15,.38-.33,.56-.5,.14-.13,.28-.26,.41-.41,.15-.16,.28-.34,.41-.52,.12-.16,.25-.31,.37-.48,.13-.19,.26-.4,.38-.6,.1-.16,.2-.31,.3-.47,.21-.36,.41-.72,.61-1.08,3.36-6.11,6.71-12.21,10.07-18.32h0s0-.01,0-.02c-.42-1.21-.66-2.55-.82-3.88Zm-16.61,23.39c-.07,.29-.36,.46-.65,.39h-.04c-.29-.08-.46-.37-.39-.66l12.99-52.16c.07-.29,.36-.46,.65-.39h.04c.29,.08,.46,.37,.39,.66l-12.99,52.16Z"/>
              <path class="cls-1" d="M86.5,142.01c-.16,.29-.06,.66,.24,.82l.05,.03c.29,.16,.66,.06,.82-.24l13.58-24.55c-.09-.75-.15-1.5-.2-2.23l-14.48,26.17Z"/>
              <path class="cls-24" d="M86.5,142.01c-.16,.29-.06,.66,.24,.82l.05,.03c.29,.16,.66,.06,.82-.24l13.58-24.55c-.09-.75-.15-1.5-.2-2.23l-14.48,26.17Z"/>
              <path class="cls-1" d="M92.27,123.69c-.11,.27,.03,.57,.3,.68l.04,.02c.27,.11,.57-.03,.68-.3l6.98-17.86c-.06-.84-.13-1.67-.19-2.51l-7.81,19.97Z"/>
              <path class="cls-11" d="M92.27,123.69c-.11,.27,.03,.57,.3,.68l.04,.02c.27,.11,.57-.03,.68-.3l6.98-17.86c-.06-.84-.13-1.67-.19-2.51l-7.81,19.97Z"/>
              <path class="cls-1" d="M63.66,114.69h53.75c.3,0,.53,.24,.53,.53v.05c0,.3-.24,.54-.54,.54H63.66c-.3,0-.53-.24-.53-.53v-.05c0-.3,.24-.54,.54-.54Z" transform="translate(-43.23 175.13) rotate(-75.96)"/>
              <path class="cls-4" d="M63.66,114.69h53.75c.3,0,.53,.24,.53,.53v.05c0,.3-.24,.54-.54,.54H63.66c-.3,0-.53-.24-.53-.53v-.05c0-.3,.24-.54,.54-.54Z" transform="translate(-43.23 175.13) rotate(-75.96)"/>
              <path class="cls-1" d="M86.23,52.16c.4,1.09,.87,2.16,1.38,3.18-.15-.43-.3-.86-.45-1.28-.19-.52-.52-1.18-.93-1.91Z"/>
              <path class="cls-30" d="M86.23,52.16c.4,1.09,.87,2.16,1.38,3.18-.15-.43-.3-.86-.45-1.28-.19-.52-.52-1.18-.93-1.91Z"/>
              <path class="cls-1" d="M115.43,98.73c-4.61,6.27-8.04,13.42-11.8,20.26-.54,.98-1.08,1.97-1.62,2.95,.6,1.75,1.56,3.24,3.12,4.09,1.38,.74,2.91,.55,3.65-.71,.1-.18,.19-.38,.26-.6,0,0,8.82-28.75,8.82-28.75,.02-.07,.04-.14,.06-.2,.06-.2,.1-.42,.16-.63-.88,1.2-1.77,2.4-2.65,3.6Z"/>
              <path class="cls-3" d="M115.43,98.73c-4.61,6.27-8.04,13.42-11.8,20.26-.54,.98-1.08,1.97-1.62,2.95,.6,1.75,1.56,3.24,3.12,4.09,1.38,.74,2.91,.55,3.65-.71,.1-.18,.19-.38,.26-.6,0,0,8.82-28.75,8.82-28.75,.02-.07,.04-.14,.06-.2,.06-.2,.1-.42,.16-.63-.88,1.2-1.77,2.4-2.65,3.6Z"/>
              <path class="cls-1" d="M93.78,66.25c2.54,4.41,4.13,9.47,4.5,14.27l1.25,16.07c.18,2.37,.37,4.75,.55,7.12l7.63-19.51c.11-.27,.41-.4,.68-.3l.04,.02c.27,.11,.4,.41,.3,.68l-8.45,21.62c.17,2.23,.35,4.47,.52,6.7,.07,.87,.12,1.87,.19,2.91l11.48-20.74c.16-.29,.53-.4,.82-.24l.05,.03c.29,.16,.4,.53,.24,.82l-12.37,22.36c.16,1.33,.4,2.67,.82,3.88,.54-.98,1.08-1.97,1.62-2.95,3.76-6.84,7.19-13.99,11.8-20.26,.88-1.2,1.77-2.4,2.65-3.6,3.19-11.85-1.85-28.59-11.73-38.5-3.57-3.58-7.23-7.5-11.09-10.23-.81-.58-2.17-1.52-3.59-2.28-3.03-1.62-7.14-1.86-6.62,3.38,.15,1.49,.59,3.09,1.18,4.66,.4,.73,.73,1.39,.93,1.91,.15,.42,.3,.85,.45,1.28,.43,.87,.88,1.71,1.32,2.48,.01,.02,4.85,8.44,4.85,8.44Z"/>
              <path class="cls-35" d="M93.78,66.25c2.54,4.41,4.13,9.47,4.5,14.27l1.25,16.07c.18,2.37,.37,4.75,.55,7.12l7.63-19.51c.11-.27,.41-.4,.68-.3l.04,.02c.27,.11,.4,.41,.3,.68l-8.45,21.62c.17,2.23,.35,4.47,.52,6.7,.07,.87,.12,1.87,.19,2.91l11.48-20.74c.16-.29,.53-.4,.82-.24l.05,.03c.29,.16,.4,.53,.24,.82l-12.37,22.36c.16,1.33,.4,2.67,.82,3.88,.54-.98,1.08-1.97,1.62-2.95,3.76-6.84,7.19-13.99,11.8-20.26,.88-1.2,1.77-2.4,2.65-3.6,3.19-11.85-1.85-28.59-11.73-38.5-3.57-3.58-7.23-7.5-11.09-10.23-.81-.58-2.17-1.52-3.59-2.28-3.03-1.62-7.14-1.86-6.62,3.38,.15,1.49,.59,3.09,1.18,4.66,.4,.73,.73,1.39,.93,1.91,.15,.42,.3,.85,.45,1.28,.43,.87,.88,1.71,1.32,2.48,.01,.02,4.85,8.44,4.85,8.44Z"/>
              <path class="cls-1" d="M113.33,94.88l-.05-.03c-.29-.16-.66-.06-.82,.24l-11.48,20.74c.05,.73,.11,1.48,.2,2.23l12.37-22.36c.16-.29,.06-.66-.24-.82Z"/>
              <path class="cls-33" d="M113.33,94.88l-.05-.03c-.29-.16-.66-.06-.82,.24l-11.48,20.74c.05,.73,.11,1.48,.2,2.23l12.37-22.36c.16-.29,.06-.66-.24-.82Z"/>
              <path class="cls-1" d="M108.43,83.93l-.04-.02c-.27-.11-.57,.03-.68,.3l-7.63,19.51c.06,.84,.13,1.67,.19,2.51l8.45-21.62c.11-.27-.03-.57-.3-.68Z"/>
              <path class="cls-18" d="M108.43,83.93l-.04-.02c-.27-.11-.57,.03-.68,.3l-7.63,19.51c.06,.84,.13,1.67,.19,2.51l8.45-21.62c.11-.27-.03-.57-.3-.68Z"/>
            </g>
            <g>
              <g>
                <path class="cls-29" d="M92,91.24c-1.7,15.91-5.32,31.68-9.72,46.98-.33,1.16-.67,2.36-.57,3.57,.3,3.41,4.58,4.49,7.08,2.64,1.42-1.04,2.3-2.63,3.15-4.17,3.9-7.09,7.79-14.18,11.69-21.27,3.76-6.84,7.19-13.99,11.8-20.26,9.64-13.12,19.3-26.23,28.96-39.34,2.07-2.81,4.54-5.6,6.26-8.62-1.64-.93-3.89-1.3-5.69-2.18-2.37-1.16-4.77-2.26-7.19-3.29-4.99-2.13-10.1-4.01-15.28-5.61-10.08-3.11-20.47-5.21-30.97-6.22-3.99-.38-11.62-.11-12.19,5.09-.34,3.13,6.57,12.06,7.84,15.5,3.86,10.51,6.16,23.03,5.13,34.26-.09,.97-.19,1.95-.29,2.92Z"/>
                <rect class="cls-21" x="99.4" y="91.44" width="1.26" height="54.82" rx=".6" ry=".6" transform="translate(70.05 -33.57) rotate(28.96)"/>
                <rect class="cls-28" x="99.95" y="82.43" width="1.09" height="43.44" rx=".52" ry=".52" transform="translate(44.82 -29.44) rotate(21.35)"/>
                <rect class="cls-20" x="89.98" y="87.84" width="1.12" height="54.82" rx=".54" ry=".54" transform="translate(30.54 -18.47) rotate(13.99)"/>
              </g>
              <path class="cls-2" d="M105.14,62.77c-1.38-.74-2.87-1.34-3.78-1.69-4.31-1.68-9.54-2.63-14.42-3.67-13.83-2.94-31.27,1.57-39.63,10.24-6.7,6.95-11.94,13.78-13.82,21.36-.28,1.13-.46,2.3,.05,3.32,.51,1.02,1.86,1.88,3.73,1.96,2.51,.11,4.99-1.14,6.95-2.34,4.53-2.77,7.8-6.06,12.02-8.97,4.39-3.02,9.06-5.06,14.27-7.54,4.32-2.06,9.47-3.29,14.55-3.46,0,0,9.69-.34,9.71-.34,3.43-.12,7.74-.62,10.84-2.02,4.77-2.16,2.48-5.26-.45-6.84Z"/>
              <path class="cls-2" d="M95.94,67.96c1.3-1.63,2.74-3.04,3.61-3.88,4.14-4,9.25-6.94,14.02-9.95,13.5-8.52,31.32-4.95,40.49,8.12,0,0,22.19,31.63,22.2,31.64,1.39,1.99,.97,4.88-.48,6.69-3.8,4.75-9.85,.21-13.71-1.96-5.1-2.87-10.21-5.75-15.31-8.62-5.02-2.83-10.04-5.65-15.07-8.48-4.5-2.54-9.75-3.41-14.84-2.47,0,0-9.69,1.8-9.71,1.8-3.43,.64-7.78,.82-11-.86-4.96-2.59-2.98-8.57-.21-12.04Z"/>
              <path class="cls-2" d="M91.67,44.11c1.42,.76,2.77,1.71,3.59,2.28,3.86,2.74,7.53,6.65,11.09,10.23,10.1,10.14,15.16,27.44,11.52,39.32,0,0-8.82,28.75-8.82,28.75-.55,1.81-2.33,2.18-3.92,1.33-4.15-2.23-4.02-8.98-4.34-13.1-.42-5.44-.84-10.89-1.27-16.33-.42-5.36-.83-10.72-1.25-16.07-.37-4.8-1.97-9.86-4.5-14.27,0,0-4.84-8.42-4.85-8.44-1.71-2.98-3.54-6.92-3.88-10.32-.52-5.24,3.59-5.01,6.62-3.38Z"/>
              <path class="cls-2" d="M83.06,58.77c-2.28-1.57-4.28-3.45-6.31-5.23-7.03-6.19-14.87-11.74-23.33-16.52-4.46-2.51-9.21-4.57-13.77-6.93-4.59-2.38-10.06-3.91-15.06-5.7-1.86-.67-4-1.62-4.21-3.3-.15-1.19,.8-2.32,2.03-2.94,1.22-.62,2.68-.82,4.1-.97,9.06-1,18.3-.79,27.28,.62,7.89,1.24,16.02,1.93,22.55,6.25,9.09,6.02,16.51,13.64,22.11,22.1,2.88,4.35,1.55,9.81-3.18,12.83-2.85,1.82-6.87,2.86-10.01,1.14-.76-.41-1.48-.87-2.18-1.35Z"/>
              <path class="cls-2" d="M117.09,52.98c5.63-5.95,13.1-11.37,22.22-15.55,6.12-2.81,11.17-4.24,18.91-4.47,7.55-.22,15.18,.54,22.16,2.25,1.31,.32,2.63,.69,3.62,1.29,.99,.6,1.61,1.49,1.23,2.3-.39,.85-1.72,1.41-2.95,1.89-15.25,6.02-29.79,11.75-42.91,19.45-3.47,2.04-5.76,3.97-11.03,4.02-3.98,.04-7.84-1.06-10.26-2.94-3.07-2.38-3.46-5.62-.99-8.24Z"/>
              <path class="cls-2" d="M94.55,48.97c-2.47-10.15-3.33-20.65-1.98-30.58,.68-5.01,.86-12.78,4.27-16.49,2.97-3.24,8.99-1.62,12.93-.25,5.68,1.97,8.02,3.68,9.15,9.88,2.57,14.2,1.75,28.19-2.44,41.18-1.69,5.25-7.05,7.9-12.64,6.19-4.5-1.37-8.15-5.28-9.28-9.93Z"/>
              <g>
                <path class="cls-1" d="M100.58,59.66c-.56-2.01-1.32-3.87-1.79-4.98-2.23-5.3-5.78-10.02-8.99-14.66-9.07-13.14-26.86-16.86-40.43-8.44-10.87,6.74-20.46,14.21-27.86,24.91-1.11,1.6-2.16,3.31-2.52,5.22-.37,1.91,.07,4.09,1.54,5.36,1.98,1.72,4.98,1.3,7.51,.63,5.85-1.54,11.09-4.68,16.8-6.62,5.94-2.02,11.34-2.33,17.54-3,5.14-.56,10.31,.7,14.61,3.56,0,0,8.21,5.46,8.23,5.47,2.91,1.93,6.83,3.81,10.45,3.53,5.58-.43,6.11-6.71,4.92-10.99Z"/>
                <path class="cls-1" d="M93.19,60.49c1.84-.98,3.71-1.71,4.84-2.14,5.38-2.04,11.24-2.72,16.81-3.6,15.77-2.5,30.73,7.83,33.99,23.46,0,0,7.89,37.83,7.89,37.84,.5,2.38-1.04,4.87-3.09,5.96-5.37,2.86-9.13-3.7-11.82-7.22-3.55-4.66-7.11-9.31-10.66-13.97s-6.99-9.16-10.49-13.74c-3.14-4.11-7.62-6.98-12.66-8.13,0,0-9.61-2.18-9.63-2.18-3.4-.77-7.47-2.32-9.76-5.13-3.53-4.34,.64-9.05,4.56-11.14Z"/>
                <path class="cls-1" d="M96.24,55.7c-1.83-2.13-3.31-4.49-4.85-6.78-5.31-7.92-11.57-15.38-18.62-22.22-3.72-3.59-7.83-6.79-11.68-10.26-3.87-3.49-8.81-6.33-13.24-9.32-1.65-1.11-3.49-2.58-3.28-4.34,.14-1.24,1.35-2.16,2.69-2.5s2.8-.19,4.22-.02c9.05,1.12,17.98,3.51,26.36,7.06,7.36,3.12,15.1,5.73,20.38,11.64,7.36,8.23,12.7,17.69,16.06,27.57,1.73,5.08-.9,10.29-6.24,12.23-3.22,1.17-7.38,1.27-10.01-1.2-.64-.6-1.23-1.23-1.79-1.88Z"/>
                <path class="cls-1" d="M115.38,54.61c10.47-4.73,21.9-7.66,33.41-7.92,7.73-.18,13.23,.86,19.69,5.15,6.3,4.17,11.68,9.73,15.6,16.19,.74,1.21,1.43,2.49,1.63,3.89s-.19,2.97-1.3,3.85c-1.17,.92-2.79,.89-4.27,.82-18.29-.87-35.71-1.72-53.97,.94-4.83,.7-8.6,1.96-12.9-1.09-3.25-2.3-5.26-6.08-5.33-10.06-.1-5.05,2.82-9.68,7.43-11.76Z"/>
                <path class="cls-1" d="M102.11,45.71c-11.18,3.3-42.75,16.94-46.95,66.32-.55,6.43,7.55,9.71,11.69,4.77,12.86-15.36,34.42-37.07,55.89-40.57,5.3-.86,7.36-7.42,3.55-11.22l-17.65-17.63c-1.71-1.71-4.22-2.36-6.54-1.68Z"/>
                <path class="cls-1" d="M100.96,50.02c3.55-10.16,8.87-19.86,16.03-28.02,3.61-4.11,8.36-10.9,13.89-12.57,4.83-1.46,9.78,2.84,12.84,5.93,4.42,4.45,5.72,7.07,3.17,13.09-5.83,13.79-14.85,25.79-26.61,35.3-4.75,3.84-11.56,3.64-16.05-.53-3.61-3.35-4.9-8.54-3.27-13.2Z"/>
              </g>
              <ellipse class="cls-27" cx="109.78" cy="58.01" rx="13.41" ry="24.78" transform="translate(10.82 133.01) rotate(-65.01)"/>
              <path class="cls-23" d="M105.19,61.51c11.55-6.36,17.54-19.64,14.66-32.51-.28-1.25,.29-2.55,1.39-2.9h0c1.09-.36,2.36,.53,2.69,1.99,3.28,14.68-3.54,29.82-16.72,37.07-1.31,.72-2.81,.36-3.27-.69h0c-.46-1.06,.14-2.34,1.26-2.96Z"/>
              <path class="cls-22" d="M104.8,62.2c8.12-10.4,8.4-24.96,.69-35.66-.75-1.04-.74-2.45,.13-3.21h0c.87-.76,2.38-.44,3.25,.78,8.79,12.2,8.47,28.81-.79,40.66-.92,1.18-2.45,1.44-3.28,.65h0c-.84-.79-.8-2.21,0-3.22Z"/>
              <path class="cls-22" d="M103.34,63.88c.96-10.81-5.86-18.44-16.7-18.69-1.05-.03-1.73-.76-1.45-1.73h0c.27-.97,1.54-1.83,2.77-1.8,12.37,.29,20.15,8.99,19.05,21.32-.11,1.23-1.11,2.39-2.1,2.55h0c-1,.16-1.65-.59-1.56-1.64Z"/>
              <path class="cls-23" d="M104.11,63.21c4.88-10.7,1.22-22.12-8.98-27.98-.99-.57-1.36-1.67-.74-2.54h0c.62-.87,2.14-1.11,3.29-.44,11.63,6.68,15.81,19.71,10.24,31.91-.55,1.21-1.93,1.9-2.93,1.56h0c-1.01-.35-1.35-1.46-.88-2.5Z"/>
              <path class="cls-22" d="M108.08,64.26c9.73-3.54,16.28-13.13,16.05-23.48-.02-1,.61-1.94,1.49-2.09h0c.88-.14,1.71,.7,1.74,1.87,.27,11.8-7.21,22.74-18.3,26.77-1.1,.4-2.19-.06-2.38-.94h0c-.19-.88,.46-1.8,1.4-2.15Z"/>
              <path class="cls-23" d="M106.55,63.33c10.86,1.08,21.09-5.2,25.04-15.37,.39-.99,1.37-1.61,2.29-1.33h0c.92,.27,1.38,1.48,.93,2.63-4.51,11.6-16.17,18.76-28.56,17.53-1.23-.12-2.1-1.08-1.93-2.02h0c.17-.94,1.17-1.54,2.23-1.44Z"/>
              <path class="cls-23" d="M117.34,22.75c-.5-2.32-5.51-3.21-11.19-1.98-5.68,1.23-9.87,4.1-9.37,6.42,0,.01,0,.02,0,.03l20.56-4.44s0-.02,0-.03Z"/>
              <path class="cls-13" d="M90.61,38.79c-1.24-.79-3.81,1.02-5.75,4.04-1.94,3.03-2.51,6.12-1.27,6.92,0,0,.01,0,.02,0l7.02-10.96s-.01,0-.02-.01Z"/>
              <path class="cls-13" d="M132.57,40.72c.19-1.46-2.55-3.01-6.12-3.47s-6.61,.35-6.79,1.81c0,0,0,.01,0,.02l12.91,1.66s0-.01,0-.02Z"/>
              <path class="cls-13" d="M101.53,30.24c-.72-1.28-3.85-.89-6.98,.88-3.13,1.77-5.08,4.23-4.36,5.51,0,0,0,.01,.01,.02l11.34-6.39s0-.01,0-.02Z"/>
              <path class="cls-13" d="M139.45,47.18c-.14-1.46-3.16-2.37-6.74-2.02-3.58,.35-6.36,1.81-6.22,3.28,0,0,0,.01,0,.02l12.96-1.26s0-.01,0-.02Z"/>
              <path class="cls-13" d="M127.99,27.22c0-1.47-2.91-2.66-6.51-2.66-3.59,0-6.51,1.19-6.51,2.66,0,0,0,.01,0,.02h13.02s0-.01,0-.02Z"/>
              <path class="cls-13" d="M106.45,40.04c-.75-1.26-3.86-.8-6.96,1.03-3.09,1.83-4.99,4.35-4.24,5.61,0,0,0,.01,.01,.02l11.19-6.64s0-.01,0-.02Z"/>
              <g>
                <path class="cls-14" d="M25.66,62.67s11.01-12.95,42.8-12.4c0,0-26.39,3.76-42.8,12.4Z"/>
                <path class="cls-10" d="M38.56,51.09s9.88-7.96,33.11-3.14c0,0-19.87-.91-33.11,3.14Z"/>
              </g>
            </g>
          </g>
        </g>
      </g>
    </g>
  </g>
</svg>