<?xml version="1.0" encoding="UTF-8"?>
<svg id="_圖層_2" data-name="圖層 2" xmlns="http://www.w3.org/2000/svg" viewBox="0 0 129.75 96.9">
  <defs>
    <style>
      .cls-1 {
        fill: #4e5e2c;
      }
    </style>
  </defs>
  <g id="Layer_1" data-name="Layer 1">
    <g>
      <g>
        <path class="cls-1" d="M15.95,80.75c0-3.09,2.46-5.28,5.64-5.28,4.03,0,5.57,3.54,5.57,5.43,0,3.14-2.77,5.21-5.75,5.21s-5.47-2.25-5.47-5.35Zm4.97-3.11c-.82,0-1.23,.85-1.23,1.56,0,1.24,.88,4.72,2.45,4.72,.89,0,1.27-.77,1.27-1.56,0-1.33-.79-4.72-2.49-4.72Z"/>
        <path class="cls-1" d="M29.15,85.9c-.47,0-1.21,.03-1.21-.64,0-.91,1.14-.15,1.18-1.84,.03-1.06,.03-2,.03-2.86s-.07-1.69-.1-2.51c-.03-1.23-1.31-.58-1.31-1.41,0-1.06,2.29-1.12,3-1.12,2.92,0,3.06,.5,3.06,.99,0,.85-1.15,.2-1.15,1.57v4.64c0,1.05,.17,1.56,1.21,1.56,2.48,0,1.63-2.03,2.57-2.03,.65,0,.9,.7,.9,1.25,0,1.14-.82,2.6-1.49,2.6-.26,0-.47-.06-.73-.1-.28-.06-.6-.1-1.09-.1h-4.87Z"/>
        <path class="cls-1" d="M38.65,80.07c0-1.85-.15-2.28-.31-2.48-.33-.42-.9-.47-.9-1.02,0-1.05,2.97-1.05,3.27-1.05,.88,0,2.67,.03,2.67,1.02,0,.53-.55,.5-.89,.88-.28,.32-.29,1.63-.29,2.66v1.44c0,2.6,.17,2.54,.47,2.71,.36,.22,.71,.29,.71,.74s-.13,1.09-3.32,1.09c-.61,0-2.45-.02-2.45-.95,0-.47,.5-.54,.73-.82,.17-.2,.32-.74,.32-2.79v-1.44Z"/>
        <path class="cls-1" d="M50.83,84.79c-.31,.6-.6,1.27-1.39,1.27-.85,0-1.06-.48-1.39-1.17l-2.9-6.42c-.44-.95-.57-1.12-1.14-1.21-.29-.04-.44-.26-.44-.57,0-1.12,2.32-1.18,3.06-1.18,3.06,0,2.95,.73,2.95,.95,0,.55-.7,.58-.7,.98,0,.31,.57,1.44,.92,2.2,.13,.25,.29,.82,.61,.83,.48,.03,.73-.79,.9-1.09,.18-.35,.85-1.66,.85-2.01,0-.53-.74-.38-.74-.96,0-.9,1.84-.89,2.42-.89,1.84,0,2.14,.33,2.14,.85,0,.39-.29,.58-.64,.63-.63,.07-.69,.03-1.24,1.15l-3.28,6.65Z"/>
        <path class="cls-1" d="M62.13,75.68c1.95,0,2.23-.29,2.47-.29,.83,0,1.18,1.43,1.18,2.07,0,.48-.19,1.05-.76,1.05-1.15,0-.22-1.4-2.99-1.4-1.62,0-1.46,.29-1.46,1.97,0,.85,.04,.88,.93,.88,1.11,0,.28-1.62,1.31-1.62,.85,0,.9,1.65,.9,2.22s-.1,2.35-.98,2.35,0-1.53-1.47-1.53c-.61,0-.6,.55-.6,1.02,0,2.13,.14,2.03,1.68,2.03,2.99,0,2.14-2.06,3.34-2.06,.47,0,.7,.52,.7,.93,0,.99-.79,2.77-1.37,2.77-.1,0-.34-.05-.64-.09-.32-.03-.73-.07-1.22-.07h-5.99c-.96,0-.98-.44-.98-.63,0-.8,.99-.16,1.09-1.71,.18-2.65,.19-2.39,.04-5.03-.1-2.23-1.21-1.08-1.21-2.11,0-.89,1.23-.74,1.82-.74h4.2Z"/>
        <path class="cls-1" d="M78.36,75.68c.63,0,.92-.06,1.14-.1,.2-.06,.32-.1,.6-.1,.57,0,1.75,1.12,1.75,2.7,0,.73-.38,1.21-1.12,1.21-1.27,0-1.26-1.72-2-1.72-.57,0-.51,.79-.51,.9v4.48c0,1.73,1.34,.9,1.34,1.92,0,.45-.28,1.09-3,1.09-.74,0-3.47,.03-3.47-1.09,0-.77,.9-.47,1.2-1.02,.15-.31,.2-1.18,.22-1.55l.12-3.22c.06-1.53-.25-1.52-.45-1.52-.66,0-.98,1.72-2.16,1.72-.57,0-.9-.52-.9-1.05,0-1.24,1.05-2.86,1.88-2.86,.1,0,.26,.04,.54,.1,.28,.04,.67,.1,1.25,.1h3.59Z"/>
        <path class="cls-1" d="M83.16,78.71c0-2.26-1.11-1.33-1.11-2.23,0-.8,1.14-.9,1.72-.9,.31,0,.6,.03,.9,.04,.29,.03,.6,.06,.89,.06,.47,0,.93-.03,1.41-.06,.47-.01,.95-.04,1.41-.04,1.65,0,3.56,.73,3.56,2.67,0,.88-.42,1.72-1.24,2.12-.13,.07-.23,.12-.23,.29,0,.22,.19,.28,.36,.35,1.02,.38,1.47,1.05,1.68,2.62,.18,1.36,1.12,.54,1.12,1.43,0,.55-.67,1.14-2.32,1.14-2.33,0-2.63-1.34-3.08-3.27-.16-.67-.41-1.33-1.21-1.33-.32,0-.44,.05-.44,.96,0,.42,.03,1.01,.1,1.41,.12,.67,.86,.47,.86,1.17,0,.53-.36,.92-2.73,.92-.7,0-2.77,0-2.77-1.06,0-.76,1.09-.23,1.09-2.13v-4.16Zm3.38,.64c-.03,.38-.1,.7,.38,.7,.95,0,1.25-.52,1.25-1.43,0-.72-.17-1.45-1.02-1.45-.54,0-.52,.34-.55,.79l-.06,1.39Z"/>
        <path class="cls-1" d="M99.98,75.68c1.95,0,2.23-.29,2.47-.29,.83,0,1.18,1.43,1.18,2.07,0,.48-.19,1.05-.76,1.05-1.15,0-.22-1.4-2.99-1.4-1.62,0-1.46,.29-1.46,1.97,0,.85,.04,.88,.93,.88,1.11,0,.28-1.62,1.31-1.62,.85,0,.9,1.65,.9,2.22s-.1,2.35-.98,2.35,0-1.53-1.47-1.53c-.61,0-.6,.55-.6,1.02,0,2.13,.15,2.03,1.68,2.03,2.99,0,2.14-2.06,3.34-2.06,.47,0,.7,.52,.7,.93,0,.99-.79,2.77-1.37,2.77-.1,0-.34-.05-.64-.09-.32-.03-.73-.07-1.22-.07h-6c-.96,0-.98-.44-.98-.63,0-.8,.99-.16,1.09-1.71,.18-2.65,.19-2.39,.05-5.03-.1-2.23-1.21-1.08-1.21-2.11,0-.89,1.23-.74,1.82-.74h4.2Z"/>
        <path class="cls-1" d="M110.57,75.68c1.95,0,2.23-.29,2.47-.29,.83,0,1.18,1.43,1.18,2.07,0,.48-.19,1.05-.76,1.05-1.15,0-.22-1.4-2.99-1.4-1.62,0-1.46,.29-1.46,1.97,0,.85,.04,.88,.93,.88,1.11,0,.28-1.62,1.31-1.62,.85,0,.91,1.65,.91,2.22s-.1,2.35-.98,2.35,0-1.53-1.47-1.53c-.61,0-.6,.55-.6,1.02,0,2.13,.15,2.03,1.68,2.03,2.99,0,2.14-2.06,3.34-2.06,.47,0,.7,.52,.7,.93,0,.99-.79,2.77-1.37,2.77-.1,0-.34-.05-.64-.09-.32-.03-.73-.07-1.22-.07h-6c-.96,0-.98-.44-.98-.63,0-.8,.99-.16,1.09-1.71,.18-2.65,.19-2.39,.04-5.03-.1-2.23-1.21-1.08-1.21-2.11,0-.89,1.23-.74,1.82-.74h4.2Z"/>
      </g>
      <g>
        <g>
          <path class="cls-1" d="M79.51,11.71c.4-1.52,.98-2.81,1.56-3.62,.09,.99-.05,2.4-.46,3.92-.05,.21-.14,.39-.2,.6,1.55-.93,2.77-2.4,3.27-4.27,.57-2.14,.11-4.31-1.08-5.99-1.87,.86-3.35,2.51-3.93,4.65-.51,1.88-.18,3.75,.7,5.33,.05-.21,.06-.4,.12-.62Z"/>
          <path class="cls-1" d="M81.93,15.33c-1.88,2.45-2.53,5.41-2.2,8.25,.2-.28,.33-.55,.55-.83,1.52-1.97,3.15-3.53,4.48-4.36-.46,1.51-1.53,3.49-3.04,5.47-.21,.28-.44,.48-.65,.75,2.82-.42,5.5-1.82,7.39-4.27,2.15-2.79,2.78-6.26,2.06-9.45-3.27,.13-6.45,1.66-8.59,4.45Z"/>
          <path class="cls-1" d="M61.7,48.15c-.76-2.76-2.47-5.27-5.12-6.84-3.03-1.8-6.55-2.03-9.63-.93,.52,3.23,2.4,6.21,5.44,8,2.66,1.57,5.67,1.88,8.44,1.22-.29-.17-.58-.26-.88-.46-2.14-1.26-3.87-2.71-4.86-3.94,1.55,.28,3.64,1.11,5.78,2.38,.31,.18,.53,.38,.82,.57Z"/>
          <path class="cls-1" d="M72.28,29.99c-.51,1.88-.18,3.76,.71,5.33,.05-.21,.06-.4,.12-.62,.4-1.52,.98-2.81,1.56-3.62,.09,.99-.05,2.4-.46,3.92-.05,.21-.14,.39-.2,.6,1.55-.93,2.77-2.4,3.28-4.27,.57-2.14,.12-4.31-1.08-5.99-1.87,.86-3.35,2.51-3.92,4.65Z"/>
          <path class="cls-1" d="M67.24,16.34c-3.01,1.29-5.44,3.84-6.45,7.22-.88,2.96-.45,5.95,.87,8.49,.1-.33,.11-.64,.23-.97,.71-2.38,1.69-4.41,2.64-5.68,.11,1.57-.19,3.8-.9,6.2-.1,.34-.24,.6-.35,.93,2.49-1.4,4.51-3.67,5.39-6.62,1.01-3.37,.38-6.85-1.43-9.57Z"/>
          <path class="cls-1" d="M73.44,22.05c-.07-.34-.19-.62-.25-.97-.48-2.44-.56-4.7-.29-6.25,.81,1.35,1.6,3.45,2.08,5.9,.07,.35,.07,.65,.13,.99,1.56-2.39,2.28-5.33,1.68-8.36-.67-3.46-2.84-6.24-5.71-7.81-2.06,2.53-3.03,5.93-2.35,9.38,.59,3.03,2.38,5.49,4.73,7.12Z"/>
          <path class="cls-1" d="M55.74,35.6c-.06-.21-.14-.39-.2-.6-.41-1.52-.55-2.93-.46-3.92,.58,.81,1.15,2.11,1.56,3.62,.06,.22,.07,.4,.12,.62,.88-1.58,1.21-3.45,.71-5.33-.57-2.14-2.06-3.79-3.93-4.65-1.19,1.68-1.65,3.85-1.08,5.99,.51,1.88,1.73,3.35,3.27,4.27Z"/>
          <path class="cls-1" d="M54.78,20.74c.48-2.44,1.27-4.55,2.08-5.9,.26,1.55,.19,3.8-.29,6.25-.07,.35-.18,.63-.25,.97,2.35-1.63,4.14-4.09,4.73-7.12,.67-3.45-.29-6.84-2.36-9.38-2.87,1.57-5.04,4.35-5.71,7.81-.6,3.03,.13,5.97,1.68,8.36,.05-.34,.06-.64,.13-.99Z"/>
          <path class="cls-1" d="M49.34,12.6c-.06-.21-.14-.39-.2-.6-.41-1.52-.55-2.93-.46-3.92,.58,.81,1.16,2.11,1.56,3.62,.06,.22,.07,.4,.12,.62,.89-1.58,1.21-3.46,.7-5.33-.57-2.14-2.06-3.79-3.93-4.65-1.19,1.68-1.65,3.85-1.08,5.99,.5,1.88,1.73,3.35,3.27,4.27Z"/>
          <path class="cls-1" d="M64.3,9.85c0-1.57,.23-2.97,.57-3.9,.35,.93,.57,2.34,.57,3.9,0,.22-.04,.41-.04,.63,1.26-1.29,2.06-3.02,2.06-4.97,0-2.22-1-4.19-2.59-5.51-1.58,1.32-2.59,3.29-2.59,5.51,0,1.95,.8,3.68,2.06,4.97,0-.22-.04-.4-.04-.63Z"/>
          <path class="cls-1" d="M105.31,25.95c1.17-1.06,2.35-1.83,3.29-2.19-.46,.88-1.35,1.99-2.52,3.03-.17,.15-.34,.25-.49,.39,1.8,.06,3.62-.5,5.07-1.8,1.64-1.48,2.45-3.55,2.36-5.61-2.04-.3-4.19,.28-5.83,1.76-1.44,1.3-2.2,3.05-2.32,4.86,.16-.16,.28-.3,.44-.44Z"/>
          <path class="cls-1" d="M101.84,36.52c2.3-.96,4.49-1.48,6.07-1.53-1.16,1.06-3.07,2.25-5.37,3.2-.33,.14-.63,.2-.94,.33,2.65,1.06,5.68,1.18,8.53,0,3.25-1.35,5.54-4.03,6.51-7.15-2.89-1.52-6.4-1.79-9.65-.44-2.85,1.18-4.91,3.41-6.05,6.03,.31-.14,.56-.3,.9-.43Z"/>
          <path class="cls-1" d="M114.83,39.84c.2-.08,.36-.18,.58-.25,1.47-.54,2.85-.8,3.85-.78-.76,.63-1.99,1.32-3.47,1.85-.21,.08-.39,.11-.6,.18,1.64,.74,3.54,.9,5.37,.24,2.09-.75,3.61-2.37,4.3-4.3-1.77-1.04-3.98-1.32-6.06-.57-1.84,.66-3.19,2-3.97,3.63Z"/>
          <path class="cls-1" d="M94.64,24.6c-.85,2.97-.38,5.97,.97,8.49,.09-.34,.12-.63,.22-.98,.67-2.39,1.62-4.43,2.56-5.71,.11,1.58-.15,3.82-.82,6.2-.1,.35-.24,.63-.34,.94,2.48-1.42,4.45-3.72,5.3-6.69,.96-3.38,.28-6.84-1.56-9.54-2.99,1.33-5.39,3.91-6.34,7.29Z"/>
          <path class="cls-1" d="M94.64,17.58c.23-1.55,.66-2.89,1.15-3.76,.19,.96,.21,2.38-.03,3.94-.03,.22-.09,.4-.12,.61,1.43-1.08,2.48-2.68,2.78-4.61,.34-2.18-.35-4.3-1.73-5.84-1.76,1.07-3.06,2.87-3.39,5.06-.3,1.93,.23,3.76,1.28,5.22,.02-.21,.02-.4,.05-.63Z"/>
          <path class="cls-1" d="M69.79,49.13c-.3,.19-.58,.29-.88,.46,2.77,.66,5.79,.36,8.45-1.22,3.03-1.79,4.92-4.77,5.44-8-3.08-1.1-6.6-.87-9.63,.93-2.65,1.56-4.36,4.08-5.12,6.84,.29-.19,.51-.39,.82-.57,2.14-1.27,4.24-2.1,5.78-2.38-.99,1.23-2.71,2.67-4.86,3.94Z"/>
          <path class="cls-1" d="M67.46,40.24c0-2.22-1-4.19-2.59-5.51-1.58,1.32-2.59,3.29-2.59,5.51,0,1.95,.8,3.68,2.06,4.97,0-.22-.04-.4-.04-.63,0-1.57,.23-2.97,.57-3.9,.35,.93,.57,2.34,.57,3.9,0,.22-.04,.41-.04,.63,1.26-1.29,2.06-3.02,2.06-4.97Z"/>
          <path class="cls-1" d="M82.27,28.37c-1.88,2.45-2.53,5.41-2.2,8.25,.2-.28,.33-.55,.55-.83,1.52-1.98,3.16-3.53,4.48-4.36-.46,1.51-1.53,3.49-3.04,5.47-.21,.28-.44,.49-.65,.75,2.82-.42,5.5-1.83,7.38-4.27,2.15-2.79,2.79-6.26,2.06-9.45-3.26,.13-6.45,1.65-8.59,4.45Z"/>
          <path class="cls-1" d="M86.81,39.96c2.47,.38,4.61,1.07,5.98,1.84-1.54,.31-3.8,.34-6.25-.04-.36-.05-.65-.16-.98-.22,1.72,2.28,4.24,3.95,7.3,4.43,3.48,.54,6.83-.57,9.28-2.74-1.68-2.79-4.55-4.85-8.02-5.38-3.05-.47-5.97,.37-8.31,2.02,.34,.04,.64,.03,.99,.09Z"/>
          <path class="cls-1" d="M35.31,49c.08,.18,.19,.35,.28,.55,.63,1.43,.99,2.82,1.05,3.8-.7-.7-1.46-1.91-2.08-3.34-.1-.21-.14-.39-.22-.58-.64,1.67-.69,3.59,.11,5.37,.88,2.02,2.59,3.44,4.58,4.01,.93-1.83,1.05-4.05,.16-6.09-.78-1.77-2.21-3.05-3.87-3.72Z"/>
          <path class="cls-1" d="M30.19,50.31c-1.05,1.17-2.17,2.06-3.03,2.52,.35-.93,1.14-2.12,2.19-3.27,.15-.17,.3-.29,.44-.44-1.79,.1-3.55,.85-4.86,2.3-1.48,1.64-2.07,3.79-1.77,5.82,2.05,.09,4.12-.7,5.62-2.35,1.3-1.43,1.87-3.26,1.8-5.06-.13,.15-.24,.32-.39,.48Z"/>
          <path class="cls-1" d="M99.96,49.12c.14,.15,.29,.26,.44,.44,1.05,1.15,1.83,2.34,2.19,3.27-.87-.46-1.99-1.35-3.03-2.52-.15-.16-.26-.33-.39-.48-.06,1.79,.51,3.62,1.81,5.06,1.5,1.65,3.57,2.45,5.62,2.35,.29-2.03-.3-4.18-1.78-5.82-1.3-1.45-3.07-2.2-4.86-2.3Z"/>
          <path class="cls-1" d="M125.36,52.09c-1.85-.63-3.75-.43-5.36,.36,.2,.06,.38,.08,.6,.17,1.48,.49,2.74,1.15,3.5,1.78-.98,.02-2.39-.2-3.88-.71-.21-.07-.39-.17-.58-.23,.82,1.6,2.21,2.91,4.05,3.54,2.11,.71,4.31,.4,6.05-.69-.73-1.92-2.3-3.51-4.39-4.21Z"/>
          <path class="cls-1" d="M95.19,50.01c-.62,1.43-1.38,2.64-2.08,3.34,.06-.98,.42-2.37,1.05-3.8,.08-.21,.2-.37,.28-.55-1.66,.67-3.1,1.95-3.87,3.72-.89,2.05-.77,4.26,.16,6.09,1.98-.57,3.7-1.99,4.57-4.01,.8-1.78,.75-3.69,.11-5.37-.08,.19-.12,.37-.22,.58Z"/>
          <path class="cls-1" d="M114.2,42.91c-2.99-.77-5.97-.23-8.46,1.18,.34,.07,.63,.1,.98,.19,2.41,.61,4.47,1.52,5.77,2.42-1.57,.16-3.81-.03-6.22-.66-.35-.08-.62-.22-.95-.31,1.49,2.44,3.83,4.36,6.83,5.13,3.4,.88,6.85,.11,9.5-1.8-1.39-2.95-4.05-5.29-7.45-6.15Z"/>
          <path class="cls-1" d="M23.47,46.04c-2.41,.63-4.65,.82-6.22,.66,1.29-.9,3.35-1.81,5.77-2.42,.35-.09,.65-.12,.98-.19-2.49-1.41-5.47-1.95-8.46-1.18-3.4,.87-6.05,3.2-7.44,6.15,2.65,1.91,6.1,2.68,9.5,1.8,2.99-.78,5.34-2.69,6.82-5.13-.33,.1-.6,.23-.95,.31Z"/>
          <path class="cls-1" d="M19.09,25.38c1.45,1.3,3.28,1.87,5.07,1.8-.16-.14-.33-.24-.49-.39-1.16-1.05-2.05-2.15-2.52-3.03,.93,.36,2.11,1.13,3.29,2.19,.16,.14,.28,.29,.44,.44-.12-1.8-.87-3.56-2.32-4.86-1.64-1.49-3.79-2.06-5.83-1.76-.08,2.06,.72,4.13,2.36,5.61Z"/>
          <path class="cls-1" d="M32.5,33.55c-.1-.31-.24-.59-.34-.94-.68-2.38-.93-4.62-.82-6.2,.94,1.28,1.89,3.32,2.56,5.71,.1,.34,.13,.64,.22,.98,1.35-2.52,1.82-5.51,.97-8.49-.95-3.38-3.35-5.96-6.34-7.29-1.85,2.7-2.53,6.16-1.57,9.54,.85,2.97,2.82,5.27,5.3,6.69Z"/>
          <path class="cls-1" d="M34.11,18.36c-.03-.22-.09-.4-.12-.61-.24-1.55-.22-2.97-.03-3.94,.49,.87,.92,2.22,1.16,3.76,.04,.22,.03,.41,.05,.63,1.05-1.46,1.58-3.3,1.28-5.22-.33-2.19-1.63-3.99-3.39-5.06-1.37,1.54-2.06,3.65-1.73,5.84,.29,1.92,1.35,3.52,2.78,4.61Z"/>
          <path class="cls-1" d="M27.6,43.24c2.45,2.17,5.8,3.27,9.28,2.74,3.05-.48,5.58-2.15,7.3-4.43-.34,.06-.62,.16-.98,.22-2.45,.38-4.71,.35-6.25,.04,1.37-.77,3.51-1.46,5.98-1.84,.35-.06,.65-.05,.99-.09-2.34-1.65-5.26-2.49-8.31-2.02-3.47,.53-6.34,2.59-8.02,5.38Z"/>
          <path class="cls-1" d="M5.65,54.39c.77-.63,2.02-1.29,3.5-1.78,.22-.09,.4-.11,.6-.17-1.62-.78-3.52-.99-5.36-.36-2.09,.71-3.65,2.29-4.39,4.21,1.75,1.09,3.94,1.4,6.06,.69,1.83-.63,3.23-1.94,4.04-3.54-.19,.06-.37,.16-.58,.23-1.49,.51-2.9,.73-3.88,.71Z"/>
          <path class="cls-1" d="M48.33,37.65c-.21-.26-.44-.47-.65-.75-1.51-1.97-2.58-3.96-3.04-5.47,1.33,.84,2.97,2.38,4.49,4.36,.22,.28,.35,.55,.55,.83,.33-2.84-.33-5.8-2.2-8.25-2.14-2.79-5.32-4.32-8.59-4.45-.72,3.19-.08,6.66,2.07,9.45,1.88,2.44,4.56,3.85,7.38,4.27Z"/>
          <path class="cls-1" d="M48.68,24.6c-.21-.26-.44-.46-.65-.75-1.51-1.97-2.58-3.96-3.04-5.47,1.33,.83,2.97,2.38,4.48,4.36,.22,.28,.35,.55,.55,.83,.33-2.84-.32-5.8-2.2-8.25-2.14-2.79-5.32-4.32-8.59-4.45-.72,3.19-.08,6.65,2.06,9.45,1.88,2.45,4.56,3.85,7.39,4.27Z"/>
          <path class="cls-1" d="M9.19,41.08c1.83,.66,3.73,.5,5.37-.24-.2-.07-.38-.1-.6-.18-1.48-.53-2.72-1.22-3.47-1.85,1-.02,2.38,.25,3.85,.78,.22,.07,.38,.17,.58,.25-.78-1.62-2.14-2.97-3.97-3.63-2.08-.75-4.28-.48-6.06,.57,.69,1.94,2.22,3.56,4.3,4.3Z"/>
          <path class="cls-1" d="M19.62,38.52c2.85,1.18,5.88,1.06,8.53,0-.32-.13-.61-.19-.94-.33-2.3-.95-4.21-2.14-5.37-3.2,1.58,.05,3.77,.57,6.07,1.53,.33,.13,.58,.29,.9,.43-1.14-2.62-3.2-4.85-6.05-6.03-3.25-1.35-6.76-1.08-9.65,.44,.97,3.12,3.26,5.8,6.51,7.15Z"/>
        </g>
        <path class="cls-1" d="M65.56,57.61l1.36,11.61h-2.97l1.61-11.61Zm-13.74,2.57c-10.86,0-8.32-9.42-8.32-14.1,0,0,1.03,9.69,5.85,9.69h3.15c1.85,0,3.47,.74,4.85,1.78,3.41-1.33,6.23-6.72,6.23-6.72-.96,2.49-1.84,6.55-4.21,8.94,.84,1.32,1.45,2.81,1.45,4.5v4.95h-4.31v-4.95c0-2.26-1.79-4.09-4.01-4.09h-.69Zm27.21,0h-.69c-2.2,0-4.01,1.83-4.01,4.09v4.95h-4.31v-4.95c0-1.69,.61-3.18,1.45-4.5-2.36-2.38-3.24-6.45-4.2-8.93,0,0,2.82,5.39,6.23,6.72,1.38-1.04,3-1.78,4.84-1.78h3.15c4.82,0,5.85-9.69,5.85-9.69,0,4.68,2.55,14.1-8.32,14.1Z"/>
      </g>
      <g>
        <path class="cls-1" d="M32.98,93.89c0-2.2,1.93-3.44,3.96-3.44,2.15,0,3.38,1.69,3.38,3.21,0,2.02-2.16,3.25-3.97,3.25s-3.37-1.07-3.37-3.01Zm3.43-1.99c-.41,0-.63,.38-.6,.74,.05,.77,.27,2.67,1.12,2.72,.47,.02,.57-.37,.57-.76,0-.55-.25-2.69-1.08-2.69Z"/>
        <path class="cls-1" d="M43.07,94.67c-.29,0-.6-.1-.9-.1-1.07,0-1.14,.05-1.25,.05-.2,0-.37-.15-.37-.37,0-.31,.38-1.3,.49-1.52,.16-.31,.31-.44,.66-.44,.29,0,.6,.1,.9,.1,1.07,0,1.14-.05,1.25-.05,.2,0,.37,.15,.37,.37,0,.31-.38,1.3-.49,1.53-.16,.31-.31,.44-.66,.44Z"/>
        <path class="cls-1" d="M48.21,94.08c0,.82,.34,1.02,.68,1.02,.38,0,.6-.28,.82-.28,.25,0,.42,.34,.42,.57,0,.81-1.4,1.53-2.64,1.53-.63,0-2.2-.27-2.2-2.23v-2.53c0-.22,0-.31-.06-.34-.06-.04-.2-.01-.48-.01-.32,0-.48,.01-.54-.05-.09-.09-.06-.21-.06-.49,0-.17-.04-.31,.11-.41l2.8-1.78c.28-.17,.27-.14,.64-.14,.49,0,.52-.05,.52,.52,0,.38-.02,.76,.04,.91,.04,.1,.12,.1,.44,.1h.86c.53,0,.53,.04,.53,.59,0,.7-.09,.75-.57,.75h-.85c-.43,0-.46,.01-.46,.45v1.83Z"/>
        <path class="cls-1" d="M52.15,96.9c-.82,0-1.49-.66-1.49-1.49s.66-1.49,1.49-1.49,1.49,.66,1.49,1.49-.66,1.49-1.49,1.49Z"/>
        <path class="cls-1" d="M57.9,90.45c1.84,0,2.82,1.02,2.82,1.88,0,.69-.52,1.22-1.21,1.22-1.33,0-.71-1.52-1.69-1.52-.54,0-.84,.55-.84,1.05,0,.91,.68,1.83,1.65,1.83,.77,0,1.03-.32,1.29-.32,.33,0,.55,.37,.55,.66,0,.73-1.11,1.66-2.83,1.66-1.86,0-3.36-1.37-3.36-3.25,0-1.77,1.54-3.21,3.6-3.21Z"/>
        <path class="cls-1" d="M61.12,93.89c0-2.2,1.93-3.44,3.96-3.44,2.15,0,3.38,1.69,3.38,3.21,0,2.02-2.16,3.25-3.97,3.25s-3.37-1.07-3.37-3.01Zm3.43-1.99c-.41,0-.63,.38-.6,.74,.05,.77,.27,2.67,1.12,2.72,.47,.02,.57-.37,.57-.76,0-.55-.25-2.69-1.08-2.69Z"/>
        <path class="cls-1" d="M69.54,93.3c0-.79-.16-1.01-.28-1.12-.16-.14-.33-.12-.33-.44,0-.91,3.05-1.25,3.07-1.25,.31,0,.33,.27,.33,.53,0,.15-.05,.57,.21,.57,.12,0,.32-.27,.66-.55,.34-.27,.84-.54,1.56-.54,1.46,0,1.48,1.09,1.73,1.09,.1,0,.32-.27,.68-.55,.37-.27,.86-.54,1.49-.54,1.17,0,1.89,.64,1.89,1.84v2.59c0,.71,.46,.77,.46,1.13,0,.77-1.4,.81-1.88,.81-.41,0-1.83-.09-1.83-.73,0-.46,.43-.44,.43-1.16v-1.11c0-.52,.06-1.55-.64-1.55s-.63,.84-.63,1.29v.76c0,1.51,.44,1.25,.44,1.71,0,.76-1.48,.77-1.92,.77-1.86,0-1.96-.34-1.94-.69,.01-.65,.63-.14,.59-1.6v-.7c0-.44,.06-1.55-.64-1.55s-.63,.84-.63,1.29v1c0,1.13,.33,1.06,.33,1.5,0,.32-.28,.75-1.97,.75-.48,0-1.93,.01-1.93-.64,0-.55,.74-.26,.74-1.8v-1.13Z"/>
        <path class="cls-1" d="M83.09,96.9c-.82,0-1.49-.66-1.49-1.49s.66-1.49,1.49-1.49,1.49,.66,1.49,1.49-.66,1.49-1.49,1.49Z"/>
        <path class="cls-1" d="M89.02,94.08c0,.82,.34,1.02,.68,1.02,.38,0,.6-.28,.82-.28,.25,0,.42,.34,.42,.57,0,.81-1.4,1.53-2.64,1.53-.63,0-2.2-.27-2.2-2.23v-2.53c0-.22,0-.31-.06-.34-.06-.04-.2-.01-.48-.01-.32,0-.48,.01-.54-.05-.09-.09-.06-.21-.06-.49,0-.17-.04-.31,.11-.41l2.8-1.78c.28-.17,.27-.14,.64-.14,.49,0,.52-.05,.52,.52,0,.38-.02,.76,.04,.91,.04,.1,.12,.1,.44,.1h.86c.53,0,.53,.04,.53,.59,0,.7-.09,.75-.57,.75h-.85c-.43,0-.45,.01-.45,.45v1.83Z"/>
        <path class="cls-1" d="M97.81,94.51c-.09-.14-.22-.41-.41-.41-.26,0-.43,.36-.54,.55l-.9,1.56c-.17,.28-.38,.65-.76,.65-.45,0-.73-.49-.94-.84l-2.34-3.8c-.39-.65-1-.27-1-.9,0-.79,1.88-.85,2.45-.85,.48,0,1.97,.01,1.97,.74,0,.28-.23,.39-.23,.55,0,.21,.57,1.3,.87,1.3,.22,0,.57-.64,.57-.81,0-.59-.76-.59-.76-1.05,0-.25,.06-.74,2.47-.74,.47,0,1.78-.02,1.78,.65,0,.44-.39,.48-.39,.76,0,.25,.47,1.21,.74,1.21,.37,0,.84-1.12,.84-1.21,0-.31-.34-.38-.34-.79,0-.61,1.09-.63,1.5-.63s1.5,0,1.5,.61c0,.69-.75,.2-1.3,1.23l-1.57,3.09c-.21,.39-.75,1.45-1.29,1.45-.48,0-1.06-1-1.28-1.35l-.63-1.01Z"/>
      </g>
    </g>
  </g>
</svg>