<?xml version="1.0" encoding="UTF-8"?>
<svg id="_圖層_2" data-name="圖層 2" xmlns="http://www.w3.org/2000/svg" viewBox="0 0 16.8 22.27">
  <defs>
    <style>
      .cls-1 {
        fill: #979797;
      }
    </style>
  </defs>
  <g id="txt">
    <g>
      <path class="cls-1" d="M1.07,7.13c-.05-.01-.11,.03-.11,.08-.03,1.08,.3,2.18,1,3.12,.7,.93,1.67,1.55,2.73,1.81,.05,.01,.11-.03,.11-.08,.03-1.08-.3-2.18-1-3.12-.7-.93-1.67-1.54-2.73-1.81Z"/>
      <path class="cls-1" d="M.06,12.54c-.05,.01-.08,.08-.05,.12,.51,.95,1.34,1.75,2.42,2.21s2.22,.51,3.27,.22c.05-.01,.08-.08,.05-.12-.51-.95-1.34-1.75-2.42-2.21-1.08-.46-2.22-.51-3.27-.22Z"/>
      <path class="cls-1" d="M10.15,11.41c0-.05-.06-.09-.11-.07-.98,.32-1.86,.95-2.47,1.88-.61,.92-.86,1.98-.77,3.01,0,.05,.06,.09,.11,.07,.98-.32,1.86-.95,2.47-1.88,.61-.92,.86-1.98,.77-3.01Z"/>
      <path class="cls-1" d="M10.28,5.64c.02-.05-.01-.11-.07-.12-1.02-.16-2.09,.02-3.05,.57s-1.65,1.39-2.03,2.35c-.02,.05,.01,.11,.07,.12,1.02,.16,2.09-.02,3.05-.57,.96-.55,1.65-1.39,2.03-2.35Z"/>
      <path class="cls-1" d="M8.62,0c-.9,.42-1.67,1.14-2.13,2.11-.46,.97-.53,2.02-.28,2.98,.9-.42,1.67-1.14,2.13-2.11,.46-.97,.53-2.02,.28-2.98Z"/>
      <path class="cls-1" d="M7.16,11.22c0,.51-.41,.93-.93,.93s-.93-.41-.93-.93,.41-.93,.93-.93,.93,.41,.93,.93Z"/>
      <path class="cls-1" d="M5.15,6.32c0,.51-.41,.93-.93,.93s-.93-.41-.93-.93,.41-.93,.93-.93,.93,.41,.93,.93Z"/>
      <path class="cls-1" d="M6.07,16.77c0,.51-.41,.93-.93,.93s-.93-.41-.93-.93,.41-.93,.93-.93,.93,.41,.93,.93Z"/>
      <path class="cls-1" d="M16.25,22.25s-.02,0-.07-.02c-.04-.01-.11-.03-.19-.06-.17-.05-.41-.13-.72-.23-.61-.21-1.48-.54-2.48-1.01-.5-.24-1.04-.51-1.59-.82-.55-.32-1.12-.67-1.69-1.08-.28-.2-.56-.42-.84-.64-.27-.23-.55-.46-.81-.72-.53-.5-1.03-1.06-1.47-1.66l-.16-.23-.08-.11-.07-.12-.15-.24-.14-.24-.07-.12-.06-.12-.13-.25-.12-.25c-.04-.08-.08-.17-.11-.25-.28-.68-.47-1.37-.56-2.06-.1-.69-.1-1.36-.05-1.99,.05-.63,.17-1.22,.3-1.75,.08-.26,.14-.52,.23-.75,.04-.12,.08-.23,.12-.35,.04-.11,.08-.22,.12-.32,.08-.21,.16-.4,.24-.57,.07-.18,.15-.34,.22-.48,.13-.29,.26-.51,.34-.66,.08-.15,.12-.23,.12-.23,0,0-.04,.08-.11,.24-.07,.15-.19,.38-.31,.67-.06,.15-.14,.31-.2,.49-.07,.18-.15,.37-.22,.58-.04,.1-.07,.21-.11,.32-.03,.11-.07,.23-.1,.35-.08,.24-.13,.49-.2,.75-.11,.53-.2,1.11-.23,1.73-.03,.62,0,1.27,.12,1.93,.11,.66,.33,1.33,.62,1.97,.03,.08,.07,.16,.11,.24l.12,.24,.13,.23,.07,.12,.07,.11,.14,.23,.15,.22,.08,.11,.08,.11,.16,.21c.44,.56,.94,1.08,1.47,1.54,.26,.23,.54,.45,.81,.66,.28,.21,.55,.41,.83,.59,.56,.37,1.12,.69,1.67,.98,.55,.29,1.08,.53,1.57,.74,.99,.42,1.84,.71,2.44,.89,.3,.09,.54,.16,.7,.2,.08,.02,.14,.04,.18,.05,.04,0,.06,.01,.06,.01h0c.23,.06,.37,.29,.32,.52-.06,.23-.29,.37-.52,.32,0,0-.01,0-.02,0Z"/>
    </g>
  </g>
</svg>