<?xml version="1.0" encoding="UTF-8"?>
<svg id="_圖層_2" data-name="圖層 2" xmlns="http://www.w3.org/2000/svg" xmlns:xlink="http://www.w3.org/1999/xlink" viewBox="0 0 975.96 748.4">
  <defs>
    <style>
      .cls-1 {
        fill: url(#_未命名漸層_49-5);
      }

      .cls-1, .cls-2, .cls-3, .cls-4, .cls-5, .cls-6, .cls-7, .cls-8, .cls-9, .cls-10, .cls-11, .cls-12, .cls-13, .cls-14, .cls-15 {
        opacity: .7;
      }

      .cls-2 {
        fill: url(#_未命名漸層_49-12);
      }

      .cls-16 {
        fill: url(#_未命名漸層_469-2);
      }

      .cls-16, .cls-17, .cls-18, .cls-19, .cls-20, .cls-21, .cls-22, .cls-23, .cls-24, .cls-25, .cls-26, .cls-27, .cls-28, .cls-29, .cls-30, .cls-31, .cls-32, .cls-33, .cls-34, .cls-35, .cls-36, .cls-37, .cls-38, .cls-39, .cls-40, .cls-41, .cls-42 {
        opacity: .5;
      }

      .cls-43, .cls-44, .cls-8 {
        fill: #fff;
      }

      .cls-17 {
        fill: url(#_未命名漸層_94-14);
      }

      .cls-18 {
        fill: url(#_未命名漸層_94-13);
      }

      .cls-19 {
        fill: url(#_未命名漸層_94-7);
      }

      .cls-20 {
        fill: url(#_未命名漸層_94-4);
      }

      .cls-3 {
        fill: url(#_未命名漸層_49-8);
      }

      .cls-4 {
        fill: url(#_未命名漸層_49-13);
      }

      .cls-21 {
        fill: url(#_未命名漸層_469-7);
      }

      .cls-22 {
        fill: url(#_未命名漸層_94-3);
      }

      .cls-23 {
        fill: url(#_未命名漸層_94-12);
      }

      .cls-44 {
        opacity: .4;
      }

      .cls-45 {
        opacity: .6;
      }

      .cls-5 {
        fill: url(#_未命名漸層_49-3);
      }

      .cls-6 {
        fill: url(#_未命名漸層_49-4);
      }

      .cls-7 {
        fill: url(#_未命名漸層_49-7);
      }

      .cls-24 {
        fill: url(#_未命名漸層_94-2);
      }

      .cls-25 {
        fill: url(#_未命名漸層_94-9);
      }

      .cls-46 {
        fill: url(#_未命名漸層_25-2);
      }

      .cls-26 {
        fill: url(#_未命名漸層_94-18);
      }

      .cls-27 {
        fill: url(#_未命名漸層_94-6);
      }

      .cls-28 {
        fill: url(#_未命名漸層_94-16);
      }

      .cls-47 {
        fill: #768672;
      }

      .cls-9 {
        fill: url(#_未命名漸層_49-6);
      }

      .cls-29 {
        fill: url(#_未命名漸層_94);
      }

      .cls-30 {
        fill: url(#_未命名漸層_94-20);
      }

      .cls-31 {
        fill: url(#_未命名漸層_94-17);
      }

      .cls-10 {
        fill: url(#_未命名漸層_49);
      }

      .cls-11 {
        fill: url(#_未命名漸層_49-11);
      }

      .cls-32 {
        fill: url(#_未命名漸層_94-15);
      }

      .cls-12 {
        fill: url(#_未命名漸層_49-9);
      }

      .cls-33 {
        fill: url(#_未命名漸層_94-11);
      }

      .cls-34 {
        fill: url(#_未命名漸層_94-8);
      }

      .cls-35 {
        fill: url(#_未命名漸層_469-6);
      }

      .cls-36 {
        fill: url(#_未命名漸層_469-3);
      }

      .cls-48 {
        fill: url(#_未命名漸層_35);
      }

      .cls-37 {
        fill: url(#_未命名漸層_94-19);
      }

      .cls-13 {
        fill: url(#_未命名漸層_49-2);
      }

      .cls-38 {
        fill: url(#_未命名漸層_469-4);
      }

      .cls-39 {
        fill: url(#_未命名漸層_94-5);
      }

      .cls-49 {
        fill: #427251;
      }

      .cls-14 {
        fill: url(#_未命名漸層_3);
      }

      .cls-50 {
        fill: #8da995;
      }

      .cls-40 {
        fill: url(#_未命名漸層_469);
      }

      .cls-51 {
        fill: url(#_未命名漸層_25);
      }

      .cls-15 {
        fill: url(#_未命名漸層_49-10);
      }

      .cls-41 {
        fill: url(#_未命名漸層_94-10);
      }

      .cls-42 {
        fill: url(#_未命名漸層_469-5);
      }
    </style>
    <linearGradient id="_未命名漸層_25" data-name="未命名漸層 25" x1="56.72" y1="382.9" x2="56.72" y2="332.12" gradientUnits="userSpaceOnUse">
      <stop offset="0" stop-color="#f4f5ed"/>
      <stop offset="1" stop-color="#d8e2bc"/>
    </linearGradient>
    <linearGradient id="_未命名漸層_25-2" data-name="未命名漸層 25" x1="487.98" y1="546.06" x2="487.98" y2="13.97" xlink:href="#_未命名漸層_25"/>
    <linearGradient id="_未命名漸層_94" data-name="未命名漸層 94" x1="-15333.84" y1="11260.15" x2="-15180.95" y2="11260.15" gradientTransform="translate(-17311.37 -4976.98) rotate(-126.98)" gradientUnits="userSpaceOnUse">
      <stop offset="0" stop-color="#fff" stop-opacity="0"/>
      <stop offset=".37" stop-color="#faffd0" stop-opacity=".54"/>
      <stop offset=".92" stop-color="#f7ffaf"/>
    </linearGradient>
    <linearGradient id="_未命名漸層_94-2" data-name="未命名漸層 94" x1="-15042.71" y1="11033.43" x2="-14889.83" y2="11033.43" xlink:href="#_未命名漸層_94"/>
    <linearGradient id="_未命名漸層_94-3" data-name="未命名漸層 94" x1="-14895.62" y1="10757.14" x2="-14742.74" y2="10757.14" xlink:href="#_未命名漸層_94"/>
    <linearGradient id="_未命名漸層_94-4" data-name="未命名漸層 94" x1="-15009.83" y1="11208.71" x2="-14856.94" y2="11208.71" xlink:href="#_未命名漸層_94"/>
    <linearGradient id="_未命名漸層_94-5" data-name="未命名漸層 94" x1="-14819.97" y1="11032.7" x2="-14667.09" y2="11032.7" xlink:href="#_未命名漸層_94"/>
    <linearGradient id="_未命名漸層_94-6" data-name="未命名漸層 94" x1="-15192.53" y1="11291.01" x2="-15071.2" y2="11291.01" xlink:href="#_未命名漸層_94"/>
    <linearGradient id="_未命名漸層_49" data-name="未命名漸層 49" x1="599.67" y1="157.71" x2="685.26" y2="157.71" gradientUnits="userSpaceOnUse">
      <stop offset="0" stop-color="#84bf79" stop-opacity=".46"/>
      <stop offset=".47" stop-color="#96c981" stop-opacity=".53"/>
      <stop offset=".92" stop-color="#f7ffaf"/>
    </linearGradient>
    <linearGradient id="_未命名漸層_49-2" data-name="未命名漸層 49" x1="562.45" y1="316.54" x2="562.45" y2="225.3" xlink:href="#_未命名漸層_49"/>
    <linearGradient id="_未命名漸層_49-3" data-name="未命名漸層 49" x1="-2202.92" y1="-3622.12" x2="-2202.92" y2="-3713.36" gradientTransform="translate(1100.38 4704.23) rotate(24.99)" xlink:href="#_未命名漸層_49"/>
    <linearGradient id="_未命名漸層_469" data-name="未命名漸層 469" x1="389.35" y1="270.92" x2="431.42" y2="270.92" gradientUnits="userSpaceOnUse">
      <stop offset="0" stop-color="#cedbf5"/>
      <stop offset=".92" stop-color="#f7ffff"/>
    </linearGradient>
    <linearGradient id="_未命名漸層_469-2" data-name="未命名漸層 469" x1="427.8" y1="493.96" x2="469.88" y2="493.96" xlink:href="#_未命名漸層_469"/>
    <linearGradient id="_未命名漸層_469-3" data-name="未命名漸層 469" x1="-25051.97" y1="491.39" x2="-25009.89" y2="491.39" gradientTransform="translate(-24484.67) rotate(-180) scale(1 -1)" xlink:href="#_未命名漸層_469"/>
    <linearGradient id="_未命名漸層_49-4" data-name="未命名漸層 49" x1="393.51" y1="122.73" x2="458.6" y2="122.73" xlink:href="#_未命名漸層_49"/>
    <linearGradient id="_未命名漸層_469-4" data-name="未命名漸層 469" x1="340.27" y1="66.38" x2="382.35" y2="66.38" xlink:href="#_未命名漸層_469"/>
    <linearGradient id="_未命名漸層_49-5" data-name="未命名漸層 49" x1="908.07" y1="368.94" x2="908.07" y2="318.16" xlink:href="#_未命名漸層_49"/>
    <linearGradient id="_未命名漸層_49-6" data-name="未命名漸層 49" x1="745.1" y1="298.24" x2="745.1" y2="153.91" xlink:href="#_未命名漸層_49"/>
    <linearGradient id="_未命名漸層_469-5" data-name="未命名漸層 469" x1="695.72" y1="117.83" x2="751" y2="117.83" xlink:href="#_未命名漸層_469"/>
    <linearGradient id="_未命名漸層_49-7" data-name="未命名漸層 49" x1="510.74" y1="398.45" x2="623.86" y2="398.45" xlink:href="#_未命名漸層_49"/>
    <linearGradient id="_未命名漸層_49-8" data-name="未命名漸層 49" x1="194.66" y1="509" x2="194.66" y2="436.73" xlink:href="#_未命名漸層_49"/>
    <linearGradient id="_未命名漸層_469-6" data-name="未命名漸層 469" x1="749.38" y1="472.87" x2="806.96" y2="472.87" xlink:href="#_未命名漸層_469"/>
    <linearGradient id="_未命名漸層_49-9" data-name="未命名漸層 49" x1="50.94" y1="416.9" x2="176.18" y2="416.9" xlink:href="#_未命名漸層_49"/>
    <linearGradient id="_未命名漸層_49-10" data-name="未命名漸層 49" x1="117.08" y1="208.43" x2="179.64" y2="208.43" xlink:href="#_未命名漸層_49"/>
    <linearGradient id="_未命名漸層_49-11" data-name="未命名漸層 49" x1="295.39" y1="449" x2="357.95" y2="449" xlink:href="#_未命名漸層_49"/>
    <linearGradient id="_未命名漸層_49-12" data-name="未命名漸層 49" x1="248.74" y1="163.28" x2="248.74" y2="70.42" xlink:href="#_未命名漸層_49"/>
    <linearGradient id="_未命名漸層_49-13" data-name="未命名漸層 49" x1="284.89" y1="273.73" x2="370.48" y2="273.73" xlink:href="#_未命名漸層_49"/>
    <linearGradient id="_未命名漸層_469-7" data-name="未命名漸層 469" x1="26.28" y1="343.55" x2="103.23" y2="343.55" xlink:href="#_未命名漸層_469"/>
    <linearGradient id="_未命名漸層_94-7" data-name="未命名漸層 94" x1="-14817.86" y1="10834.75" x2="-14664.97" y2="10834.75" xlink:href="#_未命名漸層_94"/>
    <linearGradient id="_未命名漸層_94-8" data-name="未命名漸層 94" x1="-14885.74" y1="10641.51" x2="-14732.85" y2="10641.51" xlink:href="#_未命名漸層_94"/>
    <linearGradient id="_未命名漸層_94-9" data-name="未命名漸層 94" x1="-14761.9" y1="11012.87" x2="-14669.85" y2="11012.87" xlink:href="#_未命名漸層_94"/>
    <linearGradient id="_未命名漸層_94-10" data-name="未命名漸層 94" x1="-15088.88" y1="10897" x2="-14985.91" y2="10897" xlink:href="#_未命名漸層_94"/>
    <linearGradient id="_未命名漸層_94-11" data-name="未命名漸層 94" x1="-14841.5" y1="11281.79" x2="-14749.45" y2="11281.79" xlink:href="#_未命名漸層_94"/>
    <linearGradient id="_未命名漸層_94-12" data-name="未命名漸層 94" x1="-15256.97" y1="11142.45" x2="-15164.92" y2="11142.45" xlink:href="#_未命名漸層_94"/>
    <linearGradient id="_未命名漸層_94-13" data-name="未命名漸層 94" x1="-14964.6" y1="10715.72" x2="-14872.55" y2="10715.72" xlink:href="#_未命名漸層_94"/>
    <linearGradient id="_未命名漸層_94-14" data-name="未命名漸層 94" x1="-14686.69" y1="10932.17" x2="-14594.64" y2="10932.17" xlink:href="#_未命名漸層_94"/>
    <linearGradient id="_未命名漸層_94-15" data-name="未命名漸層 94" x1="-15142.4" y1="11111.69" x2="-15050.35" y2="11111.69" xlink:href="#_未命名漸層_94"/>
    <linearGradient id="_未命名漸層_94-16" data-name="未命名漸層 94" x1="-15166.99" y1="10981.15" x2="-15074.94" y2="10981.15" xlink:href="#_未命名漸層_94"/>
    <linearGradient id="_未命名漸層_94-17" data-name="未命名漸層 94" x1="-14949.91" y1="11282.58" x2="-14857.86" y2="11282.58" xlink:href="#_未命名漸層_94"/>
    <linearGradient id="_未命名漸層_94-18" data-name="未命名漸層 94" x1="-14815.38" y1="11151.14" x2="-14662.49" y2="11151.14" xlink:href="#_未命名漸層_94"/>
    <linearGradient id="_未命名漸層_94-19" data-name="未命名漸層 94" x1="-15135.96" y1="11270.6" x2="-14983.07" y2="11270.6" xlink:href="#_未命名漸層_94"/>
    <linearGradient id="_未命名漸層_94-20" data-name="未命名漸層 94" x1="-14978.98" y1="10859.21" x2="-14826.09" y2="10859.21" xlink:href="#_未命名漸層_94"/>
    <linearGradient id="_未命名漸層_3" data-name="未命名漸層 3" x1="486.42" y1="748.4" x2="486.42" y2="460.48" gradientUnits="userSpaceOnUse">
      <stop offset=".08" stop-color="#f7ffaf"/>
      <stop offset=".63" stop-color="#faffd0" stop-opacity=".54"/>
      <stop offset="1" stop-color="#fff" stop-opacity="0"/>
    </linearGradient>
    <linearGradient id="_未命名漸層_35" data-name="未命名漸層 35" x1="486.16" y1="748.03" x2="486.16" y2="518.15" gradientUnits="userSpaceOnUse">
      <stop offset="0" stop-color="#b0ba77"/>
      <stop offset=".49" stop-color="#b0ba77" stop-opacity=".46"/>
      <stop offset="1" stop-color="#768672" stop-opacity="0"/>
    </linearGradient>
  </defs>
  <g id="BG">
    <g>
      <g>
        <path class="cls-51" d="M51.26,379.2c14.02,5.88,28.62,4.45,41.17-2.13-1.57-.65-2.95-.92-4.57-1.61-11.35-4.72-20.87-10.87-26.64-16.47,7.67-.16,18.28,2.19,29.55,6.95,1.66,.64,2.91,1.49,4.43,2.25-6-14.45-16.38-26.44-30.46-32.27-15.92-6.68-32.86-4.23-46.49,5.03,5.31,17.23,16.99,31.63,33.01,38.26Z"/>
        <path class="cls-46" d="M942.95,468.15c-4.53-1.79-9.08-2.8-13.61-3.12,5.02-18.93,2.55-40.04-9.59-58.51l-3.86-5.88c-7.34-11.18-16.84-19.42-27.38-24.86,6.08,.07,12.27-1.08,18.36-3.62,15.7-6.5,27.15-20.62,32.36-37.52-13.35-9.07-29.97-11.48-45.58-4.93-13.81,5.72-24,17.47-29.87,31.65,1.49-.74,2.7-1.58,4.34-2.21,11.03-4.67,21.46-6.97,28.97-6.82-5.67,5.5-14.99,11.53-26.12,16.16-.6,.26-1.17,.45-1.72,.63-5.77-1.12-11.63-1.54-17.47-1.27,9.86-11.29,15.13-26.2,14.32-41.35,9.12-11.16,15.84-24.57,19.73-39.06-14.81-9.04-31.8-13.02-48.84-10.92-4.85-3.19-10.07-5.56-15.47-7.11-1.64-7.27-4.47-14.47-8.57-21.33,6.97-2.54,13.6-6.75,19.42-12.81,12.37-12.9,18.41-30.97,17.76-48.91-15.32-2.58-31.49,2.41-43.87,15.37-5.93,6.19-10.3,13.57-13.2,21.53-5.78-4.84-12.12-8.61-18.78-11.33-1.36-16.97-6.49-33.16-14.68-47.03-18.27,9.42-33.64,26.05-42.58,47.8-5.92,2.57-11.52,5.95-16.64,10.09,0-10.71-2.4-21.59-7.51-31.91,8.34-6.25,14.11-15.29,16.45-25.24,10.35-4.93,19.84-13.03,26.92-24.11,10.35-16.18,13.44-35.13,9.72-51.63-15.95,2.83-31.42,12.97-41.72,29.21-1.59,2.49-2.99,5.04-4.22,7.63-5.02-7.09-11.52-12.07-18.64-15.07-.17-.97-.33-1.93-.52-2.87-2.19,.1-4.38,.3-6.56,.6-20.28-4.65-43.17,5.32-51.32,27.86l-.86,2.38c-1.26,1.54-2.48,3.14-3.67,4.79-14.3,1.02-28.28,6.16-39.86,15.17,.92-9.47,.63-19.25-1.05-29.13-1.46-8.78-3.88-17.03-7.11-24.68,6.68,5.49,15.01,9.07,24.21,9.77,.75,1.98,1.58,3.93,2.5,5.82,.36-1.84,.45-3.47,.91-5.37,.02-.11,.06-.22,.08-.33,2.13,0,4.3-.16,6.5-.48l2.52-.38c-.26,1.25-.53,2.51-.82,3.78-.42,1.82-1.05,3.37-1.49,5.19,4.45-3.09,8.53-6.87,12.09-11.27,25.94-9.26,37.69-41.11,21.74-65.38l-2.32-3.53c-19.85-30.22-65.67-24.81-77.94,9.19l-1.48,4.1c-2.91,8.06-3.32,16.16-1.77,23.67-6.03-7.22-12.98-13.36-20.58-18.18-1.32,1.89-2.59,3.85-3.8,5.84-.71-1.22-1.45-2.43-2.23-3.63l-3.87-5.87c-5.99-9.12-13.42-16.29-21.67-21.57-3.38-9.02-8.55-16.95-15.02-23.19-3.94,3.81-7.4,8.25-10.27,13.18-32.99-6.24-69.33,10.41-82.49,46.85l-2.46,6.81c-2.42,6.68-3.78,13.39-4.24,19.98-1.09-.23-2.17-.42-3.27-.58,1.14-8.19,.87-16.75-1.12-25.3-4.3-18.7-15.49-33.08-29.52-40.58-8.96,14.65-12.4,33.59-8.1,52.22,1.34,5.78,3.37,11.1,5.92,15.94-9.62,2.88-18.69,7.74-26.5,14.48-9.77-4.92-20.22-7.67-30.81-8.16-3.38,17.31-2.79,35.55,2.02,52.74-.98,6.34-.52,12.58,1.13,18.39,.19,18.17,7.32,35.16,19.01,48.07-7.99-3.21-16.35-5.03-24.79-5.42-5.42,27.82-.62,58.04,15.54,82.39,5.7,8.57,12.37,15.69,19.7,21.37-15.49,.84-30.67,6.51-42.92,16.67-3.46-.2-6.96-.15-10.49,.17,21.79-23.31,27.44-60.11,7.81-90.01l-3.86-5.88c-3.92-5.97-8.45-11.08-13.42-15.39-.24-1.15-.5-2.3-.78-3.45-2.77-11.41-7.17-21.76-12.82-30.83,25.52-8.79,37.56-39.34,23.47-63.47-.07-2.32-.25-4.67-.56-7.04-2.49-19.06-12.24-34.79-25.5-44.09-5.64,7.32-9.74,16.17-11.9,25.79-18.07-.88-36.47,9.22-43.58,28.93l-1.48,4.1c-6.8,18.83,.03,37.93,13.71,49.06-2.24,8.12-3.6,16.62-3.97,25.29-6.46,1.42-12.72,3.72-18.62,6.84-2.9-7.87-7.24-15.16-13.12-21.29-12.36-12.97-28.52-17.96-43.88-15.37-.62,17.94,5.41,36.01,17.76,48.91,4.25,4.42,8.93,7.85,13.86,10.37-3.47,5.06-6.38,10.7-8.63,16.92l-2.46,6.81c-.82,2.28-1.52,4.56-2.1,6.83-15.97-1.27-31.78,2.75-45.67,11.23,7.05,26.32,23.46,49.1,46.67,61.19-4.68,5.96-8.57,12.85-11.37,20.64l-2.46,6.82c-1.09,3.02-1.97,6.03-2.64,9.04-35.07-11.34-76.99,4.88-91.33,44.61l-2.46,6.81c-3.97,10.98-5.13,21.99-4.02,32.48-14.68,6.52-25.67,19.86-30.95,35.85,13.13,9.5,29.65,12.24,45.55,6.03,1.12-.43,2.2-.93,3.28-1.45,15.41,17.52,39.1,27.82,65.38,23.92l6.32-.93c24.6-3.65,43.56-18.65,53.79-38.13-.86,6.23-.92,12.55-.13,18.76,3.48,.18,6.96-.04,10.4-.64,5.07,20.85,25.35,36.66,49.15,33.13l3.81-.57c18.04-2.67,31.03-15.49,35.64-30.97,5.92,5.93,12.88,10.27,20.35,12.75,6.97-15.97,7.92-35.28,1.21-53.12-.57-1.52-1.21-2.97-1.87-4.41,10.22,5.9,22.03,9.38,34.71,9.58,8.98,5.92,19.06,8.5,29.03,8.08-1.18-1.22-2.45-2.1-3.71-3.42-2.08-2.18-4.03-4.37-5.87-6.57,3.49-.56,6.87-1.35,10.12-2.35,.51,.52,1.02,1.04,1.53,1.58,1.23,1.25,2.08,2.51,3.3,3.87-.13-2.3-.37-4.59-.72-6.86,17.11-6.42,30.4-18.78,38.43-33.88,3.77,2.15,7.63,3.94,11.53,5.38-6.15,4.62-11.32,10.82-14.87,18.52-1.04-5.43-1.42-9.25-1.42-9.25,0,4.22-.4,9.26-.73,14.64,0,0-1.17,3.26-1.18,3.27-9.66,26.84,6.28,57.27,34.05,64.3,7.63,1.93,14.82,.84,22.58,.65,10.14-.25,20.28-.06,30.4,.59,7.47,.47,14.73,3.21,22.32,3.72,8.92,.59,17.89-.04,26.69-1.54,15.56-2.66,30.54-7.96,45.17-13.87,10.81-4.37,19.48-9.73,25.59-19.95,4.87-8.14,.08-18.99-4.74-26.21,0,0-2.32-3.54-2.32-3.54-1.82-2.77-3.87-5.24-6.07-7.42-.32-5.38-.73-10.41-.73-14.62,0,0-.52,5.23-2.02,12.14-6.96-5.77-15.27-8.95-23.75-9.71-.88-1.79-1.83-3.54-2.87-5.22-2.95,1.58-5.78,3.48-8.44,5.65-14.68,2.43-28.2,12.13-34.07,28.37l-1.47,4.11c-.85,2.34-1.48,4.68-1.92,7.02-7.48-8.94-12.62-19.31-12.92-19.94,3.08,8.62,5.98,21.23,11.38,31.76h-21.74c6.57-14.51,6.19-32.14-3.69-47.18l-2.6-3.96c-9.9-15.07-25.58-22.22-41.14-22.13-11.36-8.97-20.52-18.45-26.3-26.78,11.64,2.47,27.4,9.66,43.52,20.74,2.32,1.57,3.99,3.3,6.17,4.98-2.19-9.3-5.47-18.28-9.81-26.58,15.24,13.84,36.4,21.44,59.56,18.01l.33-.05c-.89,2.83-1.69,5.72-2.37,8.62,2.17-1.68,3.85-3.42,6.17-4.98,3.07-2.12,6.12-4.07,9.14-5.9,10-2.46,18.92-6.86,26.53-12.67,2.77-.92,5.39-1.66,7.82-2.17-7.42,10.72-20.42,23.32-36.53,34.32-2.26,1.68-4.38,2.52-6.62,3.99,20.87,5.78,43.52,3.1,63.53-10.6,6.82-4.67,12.86-10.27,18.08-16.56,4.01,14.87,15.77,27.01,30.97,31.11-6.79,11.51-9.89,24.37-9.71,36.87,1.09-1.53,1.87-2.95,3.08-4.48,8.34-10.71,17.04-19.08,23.97-23.68-3.01,8.1-9.18,18.83-17.55,29.52-1.14,1.48-2.36,2.62-3.55,4.07,13.96-2.41,27.71-10.12,38.07-23.37,7.86-10.05,12.63-21.69,14.37-33.39,5.55-6.55,9.11-14.63,10.18-23.15,2.83,.88,5.74,1.59,8.72,2.13,26.16,4.68,51.37-4.97,69.82-23.87-6.57-12.65-15.56-23.57-26.33-31.79,3.53,.07,7.13-.1,10.78-.55,9.98,17.75,29.09,30.07,51.36,29.64-3.11,3.03-5.97,6.37-8.56,10.04-.06,.04-.12,.07-.17,.11,.02,0,.05,.02,.08,.02-3.64,5.19-6.71,11.02-9.04,17.48l-2.46,6.81c-3.74,10.37-5,20.77-4.18,30.73-3.53-2.9-7.31-5.22-11.23-6.99-17.17-19.81-47.29-19.38-64.43-1.77-9.82,6.34-18.09,16.17-22.92,28.97-6.69,17.84-5.76,37.16,1.23,53.12,1.06-.35,2.1-.74,3.13-1.17,1,2.5,2.17,4.91,3.55,7.18,7.96-3.84,15.31-9.36,21.47-16.19,8.41,5.37,18.79,7.97,29.95,6.32l3.8-.57c12.28-1.82,22.22-8.33,28.77-17.19,8.84,5.77,18.79,8.44,28.69,7.92,.52-4.26,.67-8.57,.42-12.87,15.34,14.69,37.11,22.89,61.01,19.35l6.32-.93c16.84-2.5,31.02-10.32,41.58-21.25,5.36,5.9,11.83,10.6,19.3,13.54,15.87,6.21,32.4,3.47,45.54-6.03-5.52-16.73-17.31-30.58-33.01-36.73Zm-229.89-332.15c-1.48,5.4-4.17,12.1-7.9,19.32-.23-3.24-.82-6.49-1.79-9.7,3.38-3.92,6.67-7.19,9.7-9.62ZM151.11,238.72c-3.48-4.82-6.23-9.46-8.09-13.54,4.05,1.83,8.72,4.82,13.64,8.78-1.92,1.49-3.77,3.08-5.55,4.77Zm89.52,232.76c-1.89-1.41-3.87-2.64-5.92-3.7,2.56-1.85,4.98-3.85,7.25-5.99-.65,3.18-1.1,6.42-1.33,9.69Zm5.22-12.86c-.08-.2-.14-.37-.2-.57,2.22-2.4,4.27-4.95,6.14-7.61,.3,.52,.59,1.04,.91,1.55,.37,.81,.76,1.65,1.08,2.57,4.86,12.74,7.58,25.04,8.05,33.77-5.36-6.26-11.22-16.97-15.97-29.7ZM797.92,235.76c5.71-4.86,11.16-8.49,15.8-10.59-2.3,5.09-6.01,11.03-10.76,17.11-1.6-2.3-3.28-4.48-5.05-6.53Zm120.61,260.26c1.33-2.02,2.57-4.11,3.7-6.25,4.15,2.53,7.7,5.18,10.43,7.79-3.93,.11-8.78-.4-14.12-1.55Z"/>
      </g>
      <g>
        <path class="cls-29" d="M924.96,397.64h0c-34.52-52.55-114.22-43.15-135.58,15.99h0c-19.61,54.31,25.86,109.88,82.98,101.41h0c55.15-8.18,83.2-70.81,52.59-117.4Z"/>
        <path class="cls-24" d="M568.74,301.42h0c-34.52-52.55-114.22-43.15-135.58,15.99h0c-19.61,54.31,25.86,109.88,82.98,101.41h0c55.15-8.18,83.2-70.81,52.59-117.4Z"/>
        <path class="cls-22" d="M259.54,350.09h0c-34.52-52.55-114.22-43.15-135.58,15.99h0c-19.61,54.31,25.86,109.88,82.98,101.41h0c55.15-8.18,83.2-70.81,52.59-117.4Z"/>
        <path class="cls-20" d="M688.98,169.73h0c-34.52-52.55-114.22-43.15-135.58,15.99h0c-19.61,54.31,25.86,109.88,82.98,101.41h0c55.15-8.18,83.2-70.81,52.59-117.4Z"/>
        <path class="cls-39" d="M434.18,123.92h0c-34.52-52.55-114.22-43.15-135.58,15.99h0c-19.61,54.31,25.86,109.88,82.98,101.41h0c55.15-8.18,83.2-70.81,52.59-117.4Z"/>
        <path class="cls-27" d="M860.94,287.44h0c-27.4-41.7-90.64-34.24-107.59,12.69h0c-15.56,43.1,20.53,87.2,65.85,80.48h0c43.76-6.49,66.03-56.19,41.74-93.17Z"/>
        <path class="cls-10" d="M617.2,136.3c-14.4,21.74-19.44,48.06-16.9,73.32,1.54-2.47,2.55-4.88,4.21-7.39,11.63-17.55,24.19-31.35,34.39-38.75-3.55,13.38-11.72,31.04-23.32,48.59-1.61,2.51-3.37,4.29-4.97,6.64,21.65-3.74,42.2-16.22,56.65-37.99,16.47-24.84,21.36-55.66,15.82-84.01-25.05,1.17-49.48,14.76-65.88,39.59Z"/>
        <path class="cls-13" d="M543.24,266.66c-3.88,16.71-1.39,33.39,5.41,47.43,.36-1.88,.46-3.53,.92-5.47,3.1-13.49,7.53-24.98,11.95-32.21,.7,8.78-.37,21.35-3.51,34.84-.42,1.86-1.06,3.43-1.53,5.29,11.86-8.24,21.25-21.29,25.12-38,4.39-18.99,.89-38.32-8.27-53.24-14.32,7.66-25.71,22.32-30.1,41.36Z"/>
        <path class="cls-5" d="M637.41,437.25c-10.57,13.51-15.37,29.68-15.13,45.27,1.12-1.55,1.91-3.01,3.14-4.57,8.51-10.91,17.37-19.46,24.44-24.14-3.07,8.26-9.36,19.2-17.9,30.1-1.17,1.51-2.41,2.66-3.62,4.15,14.23-2.45,28.26-10.32,38.82-23.84,12-15.36,16.99-34.35,15-51.75-16.21,.9-32.73,9.37-44.75,24.78Z"/>
        <path class="cls-43" d="M504.6,145.29c-23.08,11.45-41.73,34.14-49.45,64.17-6.74,26.34-3.42,52.93,6.7,75.51,.74-2.94,.88-5.66,1.75-8.62,5.46-21.13,12.97-39.22,20.22-50.46,.84,13.98-1.43,33.82-6.88,55.12-.78,3-1.84,5.35-2.68,8.25,19.07-12.42,34.58-32.61,41.32-58.87,7.72-29.98,2.92-60.91-10.98-85.09Z"/>
        <path class="cls-8" d="M552.11,196.08c-.55-2.99-1.44-5.5-1.94-8.61-3.7-21.74-4.29-41.75-2.26-55.56,6.19,11.99,12.23,30.71,15.92,52.45,.51,3.11,.56,5.77,.98,8.77,11.94-21.25,17.49-47.41,12.92-74.32-5.13-30.77-21.8-55.44-43.82-69.42-15.83,22.54-23.22,52.72-18.05,83.38,4.53,26.97,18.24,48.8,36.24,63.31Z"/>
        <path class="cls-40" d="M416.34,316.54c-.46-1.86-1.11-3.43-1.52-5.29-3.15-13.49-4.2-26.06-3.51-34.84,4.43,7.23,8.85,18.72,11.95,32.21,.46,1.94,.55,3.59,.92,5.47,6.79-14.03,9.29-30.72,5.41-47.43-4.39-19.05-15.79-33.7-30.11-41.36-9.15,14.92-12.64,34.25-8.25,53.24,3.88,16.71,13.24,29.77,25.11,38Z"/>
        <path class="cls-16" d="M454.79,539.58c-.46-1.86-1.11-3.43-1.52-5.29-3.15-13.49-4.2-26.06-3.51-34.84,4.43,7.23,8.85,18.72,11.95,32.21,.46,1.94,.55,3.59,.92,5.47,6.79-14.03,9.29-30.72,5.41-47.43-4.39-19.05-15.79-33.7-30.11-41.36-9.15,14.92-12.64,34.25-8.25,53.24,3.88,16.71,13.24,29.77,25.11,38Z"/>
        <path class="cls-36" d="M540.31,537.01c.46-1.86,1.11-3.43,1.52-5.29,3.15-13.49,4.2-26.06,3.51-34.84-4.43,7.23-8.85,18.72-11.95,32.21-.46,1.94-.55,3.59-.92,5.47-6.79-14.03-9.29-30.72-5.41-47.43,4.39-19.05,15.79-33.7,30.11-41.36,9.15,14.92,12.64,34.25,8.25,53.24-3.88,16.71-13.24,29.77-25.11,38Z"/>
        <path class="cls-6" d="M409,184.36c3.69-21.74,9.75-40.46,15.92-52.45,2.03,13.81,1.43,33.82-2.26,55.56-.51,3.11-1.39,5.62-1.94,8.61,18-14.51,31.71-36.33,36.24-63.31,5.17-30.66-2.22-60.84-18.06-83.38-22.02,13.98-38.68,38.64-43.8,69.42-4.58,26.92,.97,53.07,12.91,74.32,.42-3,.47-5.66,.98-8.77Z"/>
        <path class="cls-38" d="M367.26,112.01c-.46-1.86-1.11-3.43-1.52-5.29-3.14-13.49-4.2-26.07-3.51-34.84,4.43,7.22,8.87,18.74,11.95,32.21,.46,1.94,.55,3.59,.93,5.47,6.79-14.04,9.28-30.73,5.4-47.41-4.39-19.06-15.79-33.73-30.11-41.38-9.13,14.94-12.64,34.25-8.25,53.25,3.87,16.7,13.24,29.74,25.11,37.99Z"/>
        <path class="cls-43" d="M482.04,87.61c0-13.92,1.75-26.38,4.38-34.68,2.68,8.3,4.39,20.76,4.39,34.68,0,1.98-.28,3.64-.32,5.56,9.64-11.45,15.78-26.86,15.78-44.2,0-19.7-7.71-37.24-19.85-48.96-12.15,11.73-19.85,29.27-19.85,48.96,0,17.35,6.14,32.76,15.79,44.2-.05-1.92-.32-3.58-.32-5.56Z"/>
        <path class="cls-43" d="M796.55,230.71c9.01-9.42,18.05-16.27,25.21-19.49-3.55,7.82-10.39,17.67-19.3,26.97-1.29,1.35-2.58,2.25-3.78,3.49,13.8,.58,27.78-4.45,38.9-16.02,12.62-13.15,18.77-31.57,18.1-49.87-15.63-2.63-32.11,2.45-44.73,15.68-11.07,11.56-16.84,27.14-17.77,43.18,1.25-1.39,2.13-2.68,3.37-3.95Z"/>
        <path class="cls-1" d="M869.6,354.22c1.52-.75,2.76-1.61,4.43-2.25,11.25-4.76,21.88-7.11,29.55-6.95-5.79,5.6-15.28,11.76-26.64,16.47-1.62,.7-3.01,.96-4.58,1.61,12.57,6.58,27.15,8.02,41.19,2.13,16.01-6.63,27.68-21.03,32.99-38.26-13.61-9.26-30.55-11.71-46.47-5.03-14.08,5.83-24.47,17.82-30.46,32.27Z"/>
        <path class="cls-9" d="M714.75,218.72c-6.5,26.44-2.91,53.07,7.43,75.46,.7-3,.93-5.64,1.71-8.68,5.17-21.23,12.46-39.38,19.67-50.72,.88,14.02-1.12,33.92-6.28,55.12-.74,3.11-1.84,5.56-2.59,8.35,19.02-12.64,34.16-33.08,40.67-59.52,7.4-30.02,2.18-60.79-11.99-84.81-22.9,11.82-41.33,34.72-48.62,64.8Z"/>
        <path class="cls-42" d="M698.94,148.61c7.44-11.71,15.46-21.18,22.16-26.58-2.29,8.38-7.49,19.89-15.01,31.62-1.01,1.65-2.15,2.88-3.17,4.54,14.02-4.09,27.36-13.58,36.63-28.11,10.55-16.51,13.7-35.82,9.91-52.65-16.26,2.88-32.03,13.23-42.53,29.78-9.29,14.56-12.55,31.04-10.72,46.25,.96-1.63,1.65-3.2,2.73-4.86Z"/>
        <path class="cls-7" d="M524.13,436.84c-2.31,1.72-4.48,2.57-6.75,4.07,21.28,5.89,44.37,3.17,64.78-10.81,23.27-15.94,37.71-42.38,41.69-71.12-23.64-9.75-50.65-7.7-73.88,8.3-20.31,13.9-33.46,36.23-39.24,60.79,2.22-1.72,3.93-3.49,6.29-5.09,16.43-11.3,32.49-18.63,44.36-21.15-7.56,10.93-20.82,23.78-37.25,35Z"/>
        <path class="cls-43" d="M506.26,357.75c0-19.7-7.71-37.25-19.85-48.98-12.15,11.73-19.85,29.28-19.85,48.98,0,17.33,6.14,32.74,15.79,44.2-.05-1.94-.32-3.59-.32-5.58,0-13.92,1.75-26.38,4.38-34.68,2.68,8.3,4.39,20.76,4.39,34.68,0,1.98-.28,3.64-.32,5.58,9.64-11.46,15.78-26.87,15.78-44.2Z"/>
        <path class="cls-8" d="M654.69,355.28c18.93,3.37,35.36,9.52,45.87,16.39-11.8,2.77-29.11,2.99-47.9-.38-2.77-.47-4.95-1.39-7.54-1.92,13.16,20.28,32.56,35.15,55.96,39.38,26.68,4.78,52.38-5.07,71.19-24.34-12.89-24.83-34.92-43.14-61.49-47.84-23.41-4.19-45.81,3.25-63.71,17.92,2.64,.37,4.94,.27,7.62,.8Z"/>
        <path class="cls-43" d="M259.69,435.67c.61,1.6,1.48,3.09,2.12,4.92,4.86,12.73,7.58,25.04,8.05,33.76-5.36-6.26-11.23-16.96-15.97-29.69-.74-1.83-1.07-3.43-1.67-5.15-4.94,14.89-5.27,31.9,.83,47.74,6.75,17.98,19.9,30.61,35.1,35.65,7.11-16.28,8.08-35.98,1.24-54.17-5.96-15.73-16.94-27.08-29.68-33.07Z"/>
        <path class="cls-43" d="M726.76,444.32c-.58,1.61-.89,3.31-1.6,5.12-4.61,12.83-10.56,23.93-15.89,30.86,.01-8.24,2.53-20.18,7.23-32.93,.63-1.87,1.42-3.3,2.09-4.99-13.45,8.08-24.78,20.77-30.47,36.76-6.6,18.04-4.85,36.19,3.4,49.91,16-7.72,29.57-22.03,36.23-40.29,5.73-15.82,4.79-31.58-.98-44.43Z"/>
        <path class="cls-3" d="M220.41,447.34c-8.04,10.37-16.62,18.29-23.27,22.36,2.72-8.24,8.73-18.84,16.76-29.06,1.15-1.55,2.31-2.56,3.41-3.9-13.7,.92-27.24,7.54-37.25,20.44-11.35,14.57-15.88,33.67-13.61,51.76,15.74,.84,31.61-6.21,43.12-20.92,9.96-12.75,14.35-29.01,13.84-44.96-1.02,1.33-1.85,2.84-3,4.29Z"/>
        <path class="cls-35" d="M755.52,436.73c1.08,1.35,2.26,2.35,3.41,3.9,8.02,10.22,14.03,20.82,16.76,29.06-6.65-4.07-15.23-11.99-23.27-22.36-1.16-1.45-1.99-2.96-3.01-4.29-.48,15.94,3.89,32.21,13.85,44.96,11.51,14.71,27.38,21.77,43.13,20.92,2.24-18.09-2.27-37.19-13.64-51.76-10-12.9-23.54-19.52-37.24-20.44Z"/>
        <path class="cls-43" d="M864.78,381.5c-22.94-6.85-45.82-2.03-64.9,10.5,2.58,.64,4.85,.86,7.53,1.7,18.51,5.46,34.3,13.49,44.23,21.52-12.01,1.39-29.23-.31-47.7-5.88-2.67-.75-4.75-1.92-7.3-2.78,11.4,21.72,29.41,38.74,52.37,45.64,26.08,7.82,52.52,1.02,72.88-15.99-10.69-26.23-31.03-47-57.11-54.7Z"/>
        <path class="cls-12" d="M168.88,409.33c-18.46,5.57-35.68,7.27-47.69,5.88,9.93-8.03,25.72-16.06,44.22-21.52,2.69-.84,4.95-1.07,7.54-1.7-19.07-12.52-41.97-17.35-64.91-10.5-26.09,7.7-46.4,28.47-57.1,54.7,20.35,17.01,46.81,23.81,72.89,15.99,22.94-6.89,40.94-23.91,52.34-45.64-2.54,.86-4.62,2.03-7.3,2.78Z"/>
        <path class="cls-15" d="M135.23,225.67c11.13,11.56,25.12,16.59,38.92,16.02-1.2-1.24-2.5-2.14-3.79-3.49-8.9-9.3-15.74-19.15-19.3-26.97,7.16,3.22,16.21,10.07,25.21,19.49,1.25,1.27,2.13,2.56,3.37,3.95-.92-16.04-6.69-31.62-17.77-43.18-12.6-13.22-29.09-18.31-44.74-15.68-.64,18.29,5.51,36.72,18.1,49.87Z"/>
        <path class="cls-11" d="M313.54,466.24c11.13,11.56,25.12,16.59,38.92,16.02-1.2-1.24-2.5-2.14-3.79-3.49-8.9-9.3-15.74-19.15-19.3-26.97,7.16,3.22,16.21,10.07,25.21,19.49,1.25,1.27,2.13,2.56,3.37,3.95-.92-16.04-6.69-31.62-17.77-43.18-12.6-13.22-29.09-18.31-44.74-15.68-.64,18.29,5.51,36.72,18.1,49.87Z"/>
        <path class="cls-43" d="M238.14,298.24c-.75-2.79-1.86-5.25-2.59-8.35-5.18-21.19-7.16-41.1-6.29-55.12,7.21,11.34,14.5,29.49,19.67,50.72,.79,3.05,1.02,5.68,1.71,8.68,10.35-22.39,13.94-49.02,7.44-75.46-7.3-30.08-25.7-52.98-48.62-64.8-14.17,24.02-19.39,54.79-12.01,84.81,6.52,26.44,21.66,46.88,40.68,59.52Z"/>
        <path class="cls-2" d="M250.45,163.28c-.23-1.94-.73-3.53-.96-5.46-1.85-13.81-1.71-26.44-.23-35,3.78,7.72,7.06,19.7,8.87,33.45,.27,1.96,.22,3.68,.41,5.56,8.08-13.01,12.09-29.33,9.84-46.45-2.54-19.43-12.48-35.48-26-44.96-10.53,13.65-15.83,32.49-13.24,51.91,2.26,17.08,10.33,31.32,21.32,40.95Z"/>
        <path class="cls-43" d="M200.56,384.4c18.79,19.27,44.5,29.12,71.18,24.34,23.41-4.23,42.8-19.11,55.95-39.38-2.59,.53-4.74,1.45-7.53,1.92-18.79,3.37-36.1,3.15-47.92,.38,10.53-6.86,26.96-13.01,45.89-16.39,2.67-.53,4.98-.43,7.62-.8-17.91-14.67-40.31-22.11-63.71-17.92-26.59,4.7-48.62,23.01-61.49,47.84Z"/>
        <path class="cls-4" d="M359.55,334.73c-1.62-2.35-3.37-4.17-4.99-6.68-11.58-17.55-19.76-35.21-23.32-48.59,10.21,7.44,22.76,21.19,34.41,38.8,1.66,2.45,2.67,4.87,4.2,7.38,2.54-25.26-2.5-51.58-16.9-73.36-16.38-24.83-40.81-38.38-65.88-39.54-5.54,28.36-.64,59.18,15.84,84.01,14.44,21.72,34.99,34.25,56.64,37.99Z"/>
        <path class="cls-21" d="M59.3,365.24c14.02,5.88,28.62,4.45,41.17-2.13-1.57-.65-2.95-.92-4.57-1.61-11.35-4.72-20.87-10.87-26.64-16.47,7.67-.16,18.28,2.19,29.55,6.95,1.66,.64,2.91,1.49,4.43,2.25-6-14.45-16.38-26.44-30.46-32.27-15.92-6.68-32.86-4.23-46.49,5.03,5.31,17.23,16.99,31.63,33.02,38.26Z"/>
        <path class="cls-8" d="M598.65,104.08c3.09-13.47,7.53-24.99,11.95-32.21,.69,8.77-.37,21.35-3.51,34.84-.42,1.86-1.07,3.43-1.52,5.29,11.86-8.25,21.21-21.29,25.11-37.99,4.39-19,.87-38.32-8.25-53.25-14.33,7.65-25.72,22.32-30.11,41.38-3.89,16.68-1.39,33.38,5.4,47.41,.37-1.88,.46-3.53,.93-5.47Z"/>
        <path class="cls-8" d="M462.1,428.07c-5.79-24.56-18.94-46.89-39.25-60.79-23.22-16-50.22-18.04-73.86-8.3,3.97,28.73,18.42,55.17,41.69,71.12,20.41,13.97,43.48,16.7,64.77,10.81-2.26-1.49-4.43-2.35-6.74-4.07-16.43-11.22-29.69-24.08-37.26-35,11.86,2.51,27.94,9.85,44.37,21.15,2.36,1.6,4.07,3.37,6.29,5.09Z"/>
        <path class="cls-8" d="M778.57,324.67c17.62-8.5,34.43-13.16,46.53-13.59-8.87,9.42-23.55,20.02-41.18,28.47-2.54,1.24-4.8,1.76-7.25,2.9,20.36,9.42,43.58,10.48,65.46,0,24.93-11.99,42.52-35.86,49.96-63.59-22.16-13.53-49.11-15.94-74.02-3.95-21.88,10.48-37.66,30.35-46.39,53.62,2.4-1.29,4.33-2.68,6.89-3.86Z"/>
        <path class="cls-8" d="M628.47,252.27c-14.4,21.78-19.44,48.11-16.89,73.36,1.52-2.51,2.54-4.92,4.2-7.38,11.63-17.61,24.2-31.37,34.39-38.8-3.56,13.38-11.72,31.04-23.32,48.59-1.59,2.51-3.37,4.33-4.97,6.68,21.65-3.74,42.19-16.27,56.64-37.99,16.48-24.83,21.38-55.65,15.82-84.01-25.04,1.17-49.47,14.71-65.86,39.54Z"/>
        <path class="cls-44" d="M919.37,466.21c-14.19-5.62-28.77-3.8-41.13,3.17,1.52,.53,2.95,.74,4.6,1.49,11.37,4.39,21,10.22,26.88,15.84-7.53,.21-18.33-1.82-29.74-6.31-1.61-.64-2.96-1.49-4.43-2.04,6.26,14.24,16.93,25.91,31.03,31.47,16.19,6.33,33.04,3.53,46.44-6.15-5.63-17.07-17.64-31.19-33.65-37.46Z"/>
        <path class="cls-44" d="M718.95,444.66c-4.76,12.73-10.61,23.44-15.97,29.69,.47-8.72,3.19-21.03,8.02-33.76,.65-1.83,1.52-3.33,2.14-4.92-12.75,5.99-23.76,17.33-29.7,33.07-6.83,18.19-5.87,37.89,1.25,54.17,15.19-5.04,28.35-17.67,35.08-35.65,6.1-15.84,5.77-32.85,.84-47.74-.6,1.72-.93,3.31-1.67,5.15Z"/>
        <path class="cls-44" d="M61.34,483.61c5.87-5.62,15.51-11.45,26.88-15.84,1.66-.76,3.09-.96,4.62-1.49-12.39-6.97-26.97-8.79-41.14-3.17-16.02,6.27-28.03,20.39-33.65,37.46,13.4,9.69,30.23,12.48,46.45,6.15,14.07-5.56,24.74-17.23,31.01-31.47-1.47,.55-2.81,1.41-4.43,2.04-11.4,4.49-22.21,6.52-29.74,6.31Z"/>
        <path class="cls-8" d="M362.23,218.72c-1.62-2.35-3.37-4.13-4.99-6.64-11.58-17.55-19.76-35.21-23.31-48.59,10.19,7.39,22.75,21.19,34.38,38.75,1.67,2.51,2.68,4.92,4.21,7.39,2.54-25.26-2.49-51.58-16.9-73.32-16.38-24.83-40.8-38.42-65.88-39.59-5.54,28.35-.64,59.17,15.83,84.01,14.45,21.77,35.01,34.25,56.66,37.99Z"/>
        <path class="cls-8" d="M139.3,342.45c21.88,10.48,45.1,9.42,65.46,0-2.45-1.14-4.71-1.66-7.25-2.9-17.64-8.44-32.31-19.05-41.18-28.47,12.09,.43,28.9,5.09,46.54,13.59,2.52,1.18,4.48,2.57,6.88,3.86-8.73-23.28-24.52-43.14-46.4-53.62-24.89-11.99-51.85-9.58-74.01,3.95,7.43,27.73,25.03,51.6,49.96,63.59Z"/>
        <g class="cls-45">
          <path class="cls-19" d="M274.77,241.29h0c-34.52-52.55-114.22-43.15-135.58,15.99h0c-19.61,54.31,25.86,109.88,82.98,101.41h0c55.15-8.18,83.2-70.81,52.59-117.4Z"/>
          <path class="cls-34" d="M161.21,411.75h0c-34.52-52.55-114.22-43.15-135.58,15.99h0c-19.61,54.31,25.86,109.88,82.98,101.41h0c55.15-8.18,83.2-70.81,52.59-117.4Z"/>
          <path class="cls-25" d="M376.32,130.41h0c-20.79-31.64-68.77-25.98-81.63,9.63h0c-11.81,32.7,15.57,66.16,49.96,61.06h0c33.2-4.92,50.1-42.63,31.66-70.69Z"/>
          <path class="cls-41" d="M481.69,453.98h0c-23.25-35.39-76.93-29.06-91.31,10.77h0c-13.21,36.58,17.42,74.01,55.89,68.3h0c37.14-5.51,56.04-47.69,35.42-79.07Z"/>
          <path class="cls-33" d="M639.03,32.26h0c-20.79-31.64-68.77-25.98-81.63,9.63h0c-11.81,32.7,15.57,66.16,49.96,61.06h0c33.2-4.92,50.1-42.63,31.66-70.69Z"/>
          <path class="cls-23" d="M777.61,447.98h0c-20.79-31.64-68.77-25.98-81.63,9.63h0c-11.81,32.7,15.57,66.16,49.96,61.06h0c33.2-4.92,50.1-42.63,31.66-70.69Z"/>
          <path class="cls-18" d="M260.84,471.08h0c-20.79-31.64-68.77-25.98-81.63,9.63h0c-11.81,32.7,15.57,66.16,49.96,61.06h0c33.2-4.92,50.1-42.63,31.66-70.69Z"/>
          <path class="cls-17" d="M266.61,118.87h0c-20.79-31.64-68.77-25.98-81.63,9.63h0c-11.81,32.7,15.57,66.16,49.96,61.06h0c33.2-4.92,50.1-42.63,31.66-70.69Z"/>
          <path class="cls-32" d="M684.12,374.96h0c-20.79-31.64-68.77-25.98-81.63,9.63h0c-11.81,32.7,15.57,66.16,49.96,61.06h0c33.2-4.92,50.1-42.63,31.66-70.69Z"/>
          <path class="cls-28" d="M594.62,473.12h0c-20.79-31.64-68.77-25.98-81.63,9.63h0c-11.81,32.7,15.57,66.16,49.96,61.06h0c33.2-4.92,50.1-42.63,31.66-70.69Z"/>
          <path class="cls-31" d="M704.87,118.39h0c-20.79-31.64-68.77-25.98-81.63,9.63h0c-11.81,32.7,15.57,66.16,49.96,61.06h0c33.2-4.92,50.1-42.63,31.66-70.69Z"/>
          <path class="cls-26" d="M526.04,49.01h0c-34.52-52.55-114.22-43.15-135.58,15.99h0c-19.61,54.31,25.86,109.88,82.98,101.41h0c55.15-8.18,83.2-70.81,52.59-117.4Z"/>
          <path class="cls-37" d="M814.29,233.27h0c-34.52-52.55-114.22-43.15-135.58,15.99h0c-19.61,54.31,25.86,109.88,82.98,101.41h0c55.15-8.18,83.2-70.81,52.59-117.4Z"/>
          <path class="cls-30" d="M391.21,355.29h0c-34.52-52.55-114.22-43.15-135.58,15.99h0c-19.61,54.31,25.86,109.88,82.98,101.41h0c55.15-8.18,83.2-70.81,52.59-117.4Z"/>
        </g>
        <g>
          <path class="cls-14" d="M556.62,531.16h3.73c59.08,0,45.21-47.23,45.21-70.68,0,0-5.63,48.58-31.81,48.58h-17.14c-10.04,0-18.85,3.7-26.33,8.93-18.5-6.68-33.84-33.68-33.84-33.68,2.84,6.77,5,13.81,7.78,20.61,2.36,5.79,9.09,13.61,3.43,19.33-2.17,2.19-5.21,3.27-8.2,4.02-10.01,2.48-20.77,1.83-30.4-1.85-1.96-.75-3.94-1.67-5.29-3.27-2.51-2.97-.91-6.03,.62-8.96,1.76-3.36,3.28-6.85,4.69-10.37,2.58-6.45,4.65-13.1,7.33-19.51,0,0-15.34,27.03-33.86,33.68-7.52-5.23-16.33-8.93-26.37-8.93h-17.14c-26.17,0-31.8-48.58-31.8-48.58,0,23.45-13.82,70.68,45.21,70.68h3.72c3.01,0,5.88,.57,8.49,1.61,.52,39.16-1.98,146.31-41.38,215.26h41.54c-.03,.12-.07,.26-.1,.37h36.67v-.37h16.31l-.02,.37h17.44v-.37s16.25,0,16.25,0v.37h36.21c-.03-.12-.07-.25-.1-.37h12.32c.06,.23,.1,.37,.1,.37h28.84c-25.34-44.34-35.42-104.49-39.24-152.2-1.18-19.45-1.87-40.55-1.83-63.23,2.73-1.16,5.74-1.81,8.91-1.81Z"/>
          <g>
            <path class="cls-48" d="M399.21,748.03h173.89s-27.53-85.87-25.27-229.88h-113.92s-.68,136.45-34.7,229.88Z"/>
            <path class="cls-47" d="M424.26,517.77s7.99,144.61-40.95,230.25h28.84s26.85-96.97,21.95-212.28c0,0,4.19-14.66-9.84-17.97Z"/>
            <path class="cls-47" d="M547.84,518.15s-7.99,144.61,40.95,230.25h-28.84s-26.85-96.97-21.95-212.28c0,0-4.19-14.66,9.84-17.97Z"/>
            <polygon class="cls-49" points="487.19 518.26 495.16 748.4 477.72 748.4 487.19 518.26"/>
            <g>
              <path class="cls-50" d="M412.47,531.16c-59.03,0-45.21-47.22-45.21-70.68,0,0,5.62,48.58,31.8,48.58h17.14c10.04,0,18.85,3.7,26.37,8.93,18.52-6.65,33.86-33.68,33.86-33.68-5.23,12.46-10.01,32.81-22.86,44.79,4.55,6.62,7.86,14.07,7.86,22.54v196.76h-23.43v-196.76c0-11.3-9.75-20.48-21.79-20.48h-3.72Zm147.88,0h-3.73c-11.97,0-21.79,9.18-21.79,20.48v196.76h-23.42v-196.76c0-8.47,3.3-15.92,7.88-22.57-12.82-11.94-17.6-32.3-22.84-44.76,0,0,15.34,27,33.84,33.68,7.48-5.23,16.28-8.93,26.33-8.93h17.14c26.17,0,31.81-48.58,31.81-48.58,0,23.45,13.87,70.68-45.21,70.68Z"/>
              <path class="cls-50" d="M438.54,611.35s-4.93,106.7-13.79,137.04h13.23l.55-137.04Z"/>
              <path class="cls-50" d="M534.39,748.4l-.55-137.04s4.93,106.7,13.79,137.04"/>
            </g>
          </g>
        </g>
      </g>
    </g>
  </g>
</svg>