<?xml version="1.0" encoding="UTF-8"?>
<svg id="_圖層_2" data-name="圖層 2" xmlns="http://www.w3.org/2000/svg" xmlns:xlink="http://www.w3.org/1999/xlink" viewBox="0 0 215.27 208.48">
  <defs>
    <style>
      .cls-1 {
        fill: url(#_未命名漸層_49-5);
      }

      .cls-1, .cls-2, .cls-3, .cls-4, .cls-5, .cls-6, .cls-7, .cls-8, .cls-9, .cls-10, .cls-11, .cls-12, .cls-13, .cls-14, .cls-15, .cls-16, .cls-17, .cls-18, .cls-19, .cls-20, .cls-21 {
        opacity: .7;
      }

      .cls-2 {
        fill: url(#_未命名漸層_49-12);
      }

      .cls-22 {
        fill: url(#_未命名漸層_469-2);
      }

      .cls-22, .cls-23, .cls-24, .cls-25, .cls-26, .cls-27, .cls-28, .cls-29, .cls-30, .cls-31, .cls-32, .cls-33, .cls-34, .cls-35, .cls-36, .cls-37, .cls-38, .cls-39, .cls-40, .cls-41, .cls-42, .cls-43, .cls-44, .cls-45, .cls-46, .cls-47, .cls-48, .cls-49, .cls-50, .cls-51, .cls-52, .cls-53, .cls-54, .cls-55, .cls-56, .cls-57, .cls-58, .cls-59, .cls-60, .cls-61, .cls-62, .cls-63, .cls-64, .cls-65, .cls-66, .cls-67, .cls-68, .cls-69, .cls-70 {
        opacity: .5;
      }

      .cls-23 {
        fill: url(#_未命名漸層_94-33);
      }

      .cls-71, .cls-72, .cls-37, .cls-9 {
        fill: #fff;
      }

      .cls-24 {
        fill: url(#_未命名漸層_94-14);
      }

      .cls-73 {
        fill: url(#_未命名漸層_94-11);
      }

      .cls-73, .cls-74, .cls-75, .cls-76, .cls-77 {
        opacity: .3;
      }

      .cls-25 {
        fill: url(#_未命名漸層_94-13);
      }

      .cls-26 {
        fill: url(#_未命名漸層_94-7);
      }

      .cls-3 {
        fill: url(#_未命名漸層_49-8);
      }

      .cls-78 {
        fill: url(#_未命名漸層_2);
      }

      .cls-79 {
        fill: url(#_未命名漸層_61);
      }

      .cls-4 {
        fill: url(#_未命名漸層_49-13);
      }

      .cls-27 {
        fill: url(#_未命名漸層_469-7);
      }

      .cls-28 {
        fill: url(#_未命名漸層_94-12);
      }

      .cls-72 {
        opacity: .4;
      }

      .cls-29 {
        fill: url(#_未命名漸層_469-8);
      }

      .cls-30 {
        fill: url(#_未命名漸層_94-39);
      }

      .cls-74 {
        fill: url(#_未命名漸層_94-5);
      }

      .cls-31 {
        fill: url(#_未命名漸層_94-34);
      }

      .cls-32 {
        fill: url(#_未命名漸層_94-29);
      }

      .cls-5 {
        fill: url(#_未命名漸層_49-3);
      }

      .cls-6 {
        fill: url(#_未命名漸層_49-4);
      }

      .cls-7 {
        fill: url(#_未命名漸層_49-7);
      }

      .cls-33 {
        fill: url(#_未命名漸層_94-2);
      }

      .cls-34 {
        fill: url(#_未命名漸層_94-9);
      }

      .cls-35 {
        fill: url(#_未命名漸層_469-11);
      }

      .cls-36 {
        fill: url(#_未命名漸層_94-26);
      }

      .cls-38 {
        fill: url(#_未命名漸層_94-18);
      }

      .cls-39 {
        fill: url(#_未命名漸層_94-6);
      }

      .cls-40 {
        fill: url(#_未命名漸層_94-16);
      }

      .cls-8 {
        fill: url(#_未命名漸層_49-18);
      }

      .cls-41 {
        fill: url(#_未命名漸層_94-22);
      }

      .cls-80 {
        fill: #768672;
      }

      .cls-10 {
        fill: url(#_未命名漸層_49-19);
      }

      .cls-42 {
        fill: url(#_未命名漸層_66-2);
      }

      .cls-43 {
        fill: url(#_未命名漸層_94-24);
      }

      .cls-11 {
        fill: url(#_未命名漸層_49-6);
      }

      .cls-44 {
        fill: url(#_未命名漸層_94-28);
      }

      .cls-45 {
        fill: url(#_未命名漸層_94-27);
      }

      .cls-46 {
        fill: url(#_未命名漸層_94);
      }

      .cls-12 {
        fill: url(#_未命名漸層_49-14);
      }

      .cls-47 {
        fill: url(#_未命名漸層_94-20);
      }

      .cls-48 {
        fill: url(#_未命名漸層_94-17);
      }

      .cls-49 {
        fill: url(#_未命名漸層_66);
      }

      .cls-50 {
        fill: url(#_未命名漸層_94-36);
      }

      .cls-51 {
        fill: url(#_未命名漸層_94-35);
      }

      .cls-13 {
        fill: url(#_未命名漸層_49);
      }

      .cls-14 {
        fill: url(#_未命名漸層_49-11);
      }

      .cls-52 {
        fill: url(#_未命名漸層_94-15);
      }

      .cls-53 {
        fill: url(#_未命名漸層_94-38);
      }

      .cls-15 {
        fill: url(#_未命名漸層_49-17);
      }

      .cls-16 {
        fill: url(#_未命名漸層_49-9);
      }

      .cls-54 {
        fill: url(#_未命名漸層_94-8);
      }

      .cls-55 {
        fill: url(#_未命名漸層_469-6);
      }

      .cls-56 {
        fill: url(#_未命名漸層_469-3);
      }

      .cls-57 {
        fill: url(#_未命名漸層_469-10);
      }

      .cls-58 {
        fill: url(#_未命名漸層_94-23);
      }

      .cls-59 {
        fill: url(#_未命名漸層_94-19);
      }

      .cls-60 {
        fill: url(#_未命名漸層_94-21);
      }

      .cls-17 {
        fill: url(#_未命名漸層_49-2);
      }

      .cls-76 {
        fill: url(#_未命名漸層_94-3);
      }

      .cls-18 {
        fill: url(#_未命名漸層_49-16);
      }

      .cls-61 {
        fill: url(#_未命名漸層_94-31);
      }

      .cls-62 {
        fill: url(#_未命名漸層_94-30);
      }

      .cls-63 {
        fill: url(#_未命名漸層_469-4);
      }

      .cls-81 {
        fill: #427251;
      }

      .cls-19 {
        fill: url(#_未命名漸層_3);
      }

      .cls-64 {
        fill: url(#_未命名漸層_94-25);
      }

      .cls-65 {
        fill: url(#_未命名漸層_94-32);
      }

      .cls-82 {
        fill: #8da995;
      }

      .cls-66 {
        fill: url(#_未命名漸層_469);
      }

      .cls-67 {
        fill: url(#_未命名漸層_469-9);
      }

      .cls-20 {
        fill: url(#_未命名漸層_49-10);
      }

      .cls-68 {
        fill: url(#_未命名漸層_94-10);
      }

      .cls-69 {
        fill: url(#_未命名漸層_469-5);
      }

      .cls-77 {
        fill: url(#_未命名漸層_94-4);
      }

      .cls-21 {
        fill: url(#_未命名漸層_49-15);
      }

      .cls-70 {
        fill: url(#_未命名漸層_94-37);
      }
    </style>
    <linearGradient id="_未命名漸層_66" data-name="未命名漸層 66" x1="99.36" y1="-53.39" x2="99.36" y2="253.19" gradientUnits="userSpaceOnUse">
      <stop offset="0" stop-color="#657a5c"/>
      <stop offset=".21" stop-color="#808d67"/>
      <stop offset=".41" stop-color="#91986e"/>
      <stop offset=".74" stop-color="#a7ad91"/>
      <stop offset="1" stop-color="#d0d3c4"/>
    </linearGradient>
    <linearGradient id="_未命名漸層_66-2" data-name="未命名漸層 66" x1="201.88" y1="-53.39" x2="201.88" y2="253.19" xlink:href="#_未命名漸層_66"/>
    <linearGradient id="_未命名漸層_2" data-name="未命名漸層 2" x1="107.64" y1="-53.39" x2="107.64" y2="253.19" gradientUnits="userSpaceOnUse">
      <stop offset="0" stop-color="#d0d3c4"/>
      <stop offset=".26" stop-color="#a7ad91"/>
      <stop offset=".59" stop-color="#91986e"/>
      <stop offset=".79" stop-color="#808d67"/>
      <stop offset="1" stop-color="#657a5c"/>
    </linearGradient>
    <linearGradient id="_未命名漸層_94" data-name="未命名漸層 94" x1="-4560.25" y1="-565.52" x2="-4521.37" y2="-565.52" gradientTransform="translate(-2085.25 -3848.52) rotate(-126.98)" gradientUnits="userSpaceOnUse">
      <stop offset="0" stop-color="#fff" stop-opacity="0"/>
      <stop offset=".37" stop-color="#faffd0" stop-opacity=".54"/>
      <stop offset=".92" stop-color="#f7ffaf"/>
    </linearGradient>
    <linearGradient id="_未命名漸層_94-2" data-name="未命名漸層 94" x1="-4491.19" y1="-618.78" x2="-4456.21" y2="-618.78" xlink:href="#_未命名漸層_94"/>
    <linearGradient id="_未命名漸層_94-3" data-name="未命名漸層 94" x1="-4465" y1="-632.89" x2="-4430.01" y2="-632.89" xlink:href="#_未命名漸層_94"/>
    <linearGradient id="_未命名漸層_94-4" data-name="未命名漸層 94" x1="-4503.58" y1="-593.81" x2="-4468.59" y2="-593.81" xlink:href="#_未命名漸層_94"/>
    <linearGradient id="_未命名漸層_94-5" data-name="未命名漸層 94" x1="-4483.68" y1="-557.32" x2="-4459.36" y2="-557.32" xlink:href="#_未命名漸層_94"/>
    <linearGradient id="_未命名漸層_94-6" data-name="未命名漸層 94" x1="-4430.49" y1="-643.29" x2="-4406.17" y2="-643.29" xlink:href="#_未命名漸層_94"/>
    <linearGradient id="_未命名漸層_94-7" data-name="未命名漸層 94" x1="-4468.18" y1="-600.3" x2="-4433.2" y2="-600.3" xlink:href="#_未命名漸層_94"/>
    <linearGradient id="_未命名漸層_94-8" data-name="未命名漸層 94" x1="-4534.72" y1="-583.64" x2="-4499.73" y2="-583.64" xlink:href="#_未命名漸層_94"/>
    <linearGradient id="_未命名漸層_94-9" data-name="未命名漸層 94" x1="-4457.53" y1="-682" x2="-4422.55" y2="-682" xlink:href="#_未命名漸層_94"/>
    <linearGradient id="_未命名漸層_94-10" data-name="未命名漸層 94" x1="-4466.39" y1="-571.63" x2="-4431.4" y2="-571.63" xlink:href="#_未命名漸層_94"/>
    <linearGradient id="_未命名漸層_94-11" data-name="未命名漸層 94" x1="-4434.38" y1="-605.46" x2="-4399.4" y2="-605.46" xlink:href="#_未命名漸層_94"/>
    <linearGradient id="_未命名漸層_94-12" data-name="未命名漸層 94" x1="-4513.06" y1="-551.75" x2="-4485.29" y2="-551.75" xlink:href="#_未命名漸層_94"/>
    <linearGradient id="_未命名漸層_49" data-name="未命名漸層 49" x1="132.86" y1="55.22" x2="152.45" y2="55.22" gradientUnits="userSpaceOnUse">
      <stop offset="0" stop-color="#84bf79" stop-opacity=".46"/>
      <stop offset=".47" stop-color="#96c981" stop-opacity=".53"/>
      <stop offset=".92" stop-color="#f7ffaf"/>
    </linearGradient>
    <linearGradient id="_未命名漸層_49-2" data-name="未命名漸層 49" x1="124.35" y1="91.56" x2="124.35" y2="70.69" xlink:href="#_未命名漸層_49"/>
    <linearGradient id="_未命名漸層_49-3" data-name="未命名漸層 49" x1="391.02" y1="209.39" x2="391.02" y2="192.34" gradientTransform="translate(-315.67 10.57) rotate(-11.33)" xlink:href="#_未命名漸層_49"/>
    <linearGradient id="_未命名漸層_49-4" data-name="未命名漸層 49" x1="901.35" y1="445.52" x2="901.35" y2="428.46" gradientTransform="translate(-939.41 219.32) rotate(-37.04)" xlink:href="#_未命名漸層_49"/>
    <linearGradient id="_未命名漸層_49-5" data-name="未命名漸層 49" x1="156.61" y1="75.74" x2="156.61" y2="58.69" gradientTransform="translate(-12.57 -51.81)" xlink:href="#_未命名漸層_49"/>
    <linearGradient id="_未命名漸層_49-6" data-name="未命名漸層 49" x1="406.57" y1="91.59" x2="406.57" y2="74.53" gradientTransform="translate(-315.67 10.57) rotate(-11.33)" xlink:href="#_未命名漸層_49"/>
    <linearGradient id="_未命名漸層_49-7" data-name="未命名漸層 49" x1="-710.5" y1="257.52" x2="-710.5" y2="240.47" gradientTransform="translate(918.67 298.22) rotate(37.14)" xlink:href="#_未命名漸層_49"/>
    <linearGradient id="_未命名漸層_49-8" data-name="未命名漸層 49" x1="-696.68" y1="-707.21" x2="-696.68" y2="-728.09" gradientTransform="translate(473.38 1066.7) rotate(24.99)" xlink:href="#_未命名漸層_49"/>
    <linearGradient id="_未命名漸層_469" data-name="未命名漸層 469" x1="84.74" y1="81.12" x2="94.36" y2="81.12" gradientUnits="userSpaceOnUse">
      <stop offset="0" stop-color="#cedbf5"/>
      <stop offset=".92" stop-color="#f7ffff"/>
    </linearGradient>
    <linearGradient id="_未命名漸層_469-2" data-name="未命名漸層 469" x1="677.44" y1="340.39" x2="687.07" y2="340.39" gradientTransform="translate(-668.19 94.24) rotate(-24.11)" xlink:href="#_未命名漸層_469"/>
    <linearGradient id="_未命名漸層_469-3" data-name="未命名漸層 469" x1="-7930.47" y1="277.03" x2="-7922.02" y2="277.03" gradientTransform="translate(-6180.11 -4687.36) rotate(-144.63) scale(1 -1)" xlink:href="#_未命名漸層_469"/>
    <linearGradient id="_未命名漸層_49-9" data-name="未命名漸層 49" x1="85.69" y1="47.22" x2="100.58" y2="47.22" xlink:href="#_未命名漸層_49"/>
    <linearGradient id="_未命名漸層_469-4" data-name="未命名漸層 469" x1="73.51" y1="34.32" x2="83.14" y2="34.32" xlink:href="#_未命名漸層_469"/>
    <linearGradient id="_未命名漸層_469-5" data-name="未命名漸層 469" x1="-155.55" y1="-1.78" x2="-147.82" y2="-1.78" gradientTransform="translate(263.49 42.31) rotate(10.35)" xlink:href="#_未命名漸層_469"/>
    <linearGradient id="_未命名漸層_94-13" data-name="未命名漸層 94" x1="-656.23" y1="111.98" x2="-645.69" y2="111.98" gradientTransform="translate(742.85 255.86) rotate(30.96)" xlink:href="#_未命名漸層_94"/>
    <linearGradient id="_未命名漸層_469-6" data-name="未命名漸層 469" x1="996.79" y1="678.29" x2="1003.65" y2="678.29" gradientTransform="translate(-1177.79 269.74) rotate(-43.63)" xlink:href="#_未命名漸層_469"/>
    <linearGradient id="_未命名漸層_469-7" data-name="未命名漸層 469" x1="-1430.74" y1="1239.94" x2="-1422.29" y2="1239.94" gradientTransform="translate(1705.38 1239.08) rotate(78.22)" xlink:href="#_未命名漸層_469"/>
    <linearGradient id="_未命名漸層_469-8" data-name="未命名漸層 469" x1="-947.72" y1="554.38" x2="-940.86" y2="554.38" gradientTransform="translate(1239.7 368.33) rotate(47.46)" xlink:href="#_未命名漸層_469"/>
    <linearGradient id="_未命名漸層_49-10" data-name="未命名漸層 49" x1="203.43" y1="118.14" x2="203.43" y2="106.52" xlink:href="#_未命名漸層_49"/>
    <linearGradient id="_未命名漸層_49-11" data-name="未命名漸層 49" x1="166.14" y1="87.38" x2="166.14" y2="54.35" xlink:href="#_未命名漸層_49"/>
    <linearGradient id="_未命名漸層_469-9" data-name="未命名漸層 469" x1="154.84" y1="46.09" x2="167.49" y2="46.09" xlink:href="#_未命名漸層_469"/>
    <linearGradient id="_未命名漸層_49-12" data-name="未命名漸層 49" x1="112.51" y1="110.31" x2="138.4" y2="110.31" xlink:href="#_未命名漸層_49"/>
    <linearGradient id="_未命名漸層_49-13" data-name="未命名漸層 49" x1="40.19" y1="135.6" x2="40.19" y2="119.07" xlink:href="#_未命名漸層_49"/>
    <linearGradient id="_未命名漸層_469-10" data-name="未命名漸層 469" x1="167.12" y1="127.34" x2="180.3" y2="127.34" xlink:href="#_未命名漸層_469"/>
    <linearGradient id="_未命名漸層_49-14" data-name="未命名漸層 49" x1="7.3" y1="114.53" x2="35.96" y2="114.53" xlink:href="#_未命名漸層_49"/>
    <linearGradient id="_未命名漸層_49-15" data-name="未命名漸層 49" x1="22.44" y1="66.83" x2="36.75" y2="66.83" xlink:href="#_未命名漸層_49"/>
    <linearGradient id="_未命名漸層_49-16" data-name="未命名漸層 49" x1="63.24" y1="121.87" x2="77.55" y2="121.87" xlink:href="#_未命名漸層_49"/>
    <linearGradient id="_未命名漸層_49-17" data-name="未命名漸層 49" x1="52.56" y1="56.49" x2="52.56" y2="35.25" xlink:href="#_未命名漸層_49"/>
    <linearGradient id="_未命名漸層_49-18" data-name="未命名漸層 49" x1="60.83" y1="81.77" x2="80.42" y2="81.77" xlink:href="#_未命名漸層_49"/>
    <linearGradient id="_未命名漸層_49-19" data-name="未命名漸層 49" x1="22.3" y1="39.02" x2="38.35" y2="39.02" xlink:href="#_未命名漸層_49"/>
    <linearGradient id="_未命名漸層_469-11" data-name="未命名漸層 469" x1="1.66" y1="97.74" x2="19.27" y2="97.74" xlink:href="#_未命名漸層_469"/>
    <linearGradient id="_未命名漸層_94-14" data-name="未命名漸層 94" x1="51.58" y1="23.78" x2="67.32" y2="23.78" gradientTransform="matrix(1, 0, 0, 1, 0, 0)" xlink:href="#_未命名漸層_94"/>
    <linearGradient id="_未命名漸層_94-15" data-name="未命名漸層 94" x1="-4441.01" y1="-665.77" x2="-4406.03" y2="-665.77" xlink:href="#_未命名漸層_94"/>
    <linearGradient id="_未命名漸層_94-16" data-name="未命名漸層 94" x1="-4456.55" y1="-709.99" x2="-4421.56" y2="-709.99" xlink:href="#_未命名漸層_94"/>
    <linearGradient id="_未命名漸層_94-17" data-name="未命名漸層 94" x1="-4430.53" y1="-636.49" x2="-4409.47" y2="-636.49" xlink:href="#_未命名漸層_94"/>
    <linearGradient id="_未命名漸層_94-18" data-name="未命名漸層 94" x1="-4492.71" y1="-670.84" x2="-4466.81" y2="-670.84" xlink:href="#_未命名漸層_94"/>
    <linearGradient id="_未命名漸層_94-19" data-name="未命名漸層 94" x1="34.61" y1="148.96" x2="34.61" y2="123.09" gradientTransform="matrix(1, 0, 0, 1, 0, 0)" xlink:href="#_未命名漸層_94"/>
    <linearGradient id="_未命名漸層_94-20" data-name="未命名漸層 94" x1="-4506.9" y1="-656.44" x2="-4477.31" y2="-656.44" xlink:href="#_未命名漸層_94"/>
    <linearGradient id="_未命名漸層_94-21" data-name="未命名漸層 94" x1="-4496.13" y1="-530.08" x2="-4470.23" y2="-530.08" xlink:href="#_未命名漸層_94"/>
    <linearGradient id="_未命名漸層_94-22" data-name="未命名漸層 94" x1="-4461.35" y1="-545.46" x2="-4437.94" y2="-545.46" xlink:href="#_未命名漸層_94"/>
    <linearGradient id="_未命名漸層_94-23" data-name="未命名漸層 94" x1="-4397.84" y1="-641.11" x2="-4374.44" y2="-641.11" xlink:href="#_未命名漸層_94"/>
    <linearGradient id="_未命名漸層_94-24" data-name="未命名漸層 94" x1="-4403.8" y1="-596.33" x2="-4380.39" y2="-596.33" xlink:href="#_未命名漸層_94"/>
    <linearGradient id="_未命名漸層_94-25" data-name="未命名漸層 94" x1="-4479.54" y1="-531.21" x2="-4456.13" y2="-531.21" xlink:href="#_未命名漸層_94"/>
    <linearGradient id="_未命名漸層_94-26" data-name="未命名漸層 94" x1="-4537.28" y1="-542.19" x2="-4513.87" y2="-542.19" xlink:href="#_未命名漸層_94"/>
    <linearGradient id="_未命名漸層_94-27" data-name="未命名漸層 94" x1="-4423.01" y1="-692.57" x2="-4399.61" y2="-692.57" xlink:href="#_未命名漸層_94"/>
    <linearGradient id="_未命名漸層_94-28" data-name="未命名漸層 94" x1="-4403.49" y1="-667.5" x2="-4380.09" y2="-667.5" xlink:href="#_未命名漸層_94"/>
    <linearGradient id="_未命名漸層_94-29" data-name="未命名漸層 94" x1="-4431.01" y1="-554.69" x2="-4407.61" y2="-554.69" xlink:href="#_未命名漸層_94"/>
    <linearGradient id="_未命名漸層_94-30" data-name="未命名漸層 94" x1="-4541.49" y1="-595.36" x2="-4520.43" y2="-595.36" xlink:href="#_未命名漸層_94"/>
    <linearGradient id="_未命名漸層_94-31" data-name="未命名漸層 94" x1="-4471.78" y1="-682.61" x2="-4450.71" y2="-682.61" xlink:href="#_未命名漸層_94"/>
    <linearGradient id="_未命名漸層_94-32" data-name="未命名漸層 94" x1="-4412.71" y1="-623.52" x2="-4388.25" y2="-623.52" xlink:href="#_未命名漸層_94"/>
    <linearGradient id="_未命名漸層_94-33" data-name="未命名漸層 94" x1="-4515.28" y1="-602.4" x2="-4494.21" y2="-602.4" xlink:href="#_未命名漸層_94"/>
    <linearGradient id="_未命名漸層_94-34" data-name="未命名漸層 94" x1="-4527.15" y1="-614.03" x2="-4501.05" y2="-614.03" xlink:href="#_未命名漸層_94"/>
    <linearGradient id="_未命名漸層_94-35" data-name="未命名漸層 94" x1="-4471.23" y1="-563.29" x2="-4450.17" y2="-563.29" xlink:href="#_未命名漸層_94"/>
    <linearGradient id="_未命名漸層_94-36" data-name="未命名漸層 94" x1="-4452.36" y1="-591.87" x2="-4417.38" y2="-591.87" xlink:href="#_未命名漸層_94"/>
    <linearGradient id="_未命名漸層_94-37" data-name="未命名漸層 94" x1="-4499.11" y1="-572.9" x2="-4464.12" y2="-572.9" xlink:href="#_未命名漸層_94"/>
    <linearGradient id="_未命名漸層_94-38" data-name="未命名漸層 94" x1="-4480.84" y1="-646.48" x2="-4445.86" y2="-646.48" xlink:href="#_未命名漸層_94"/>
    <linearGradient id="_未命名漸層_94-39" data-name="未命名漸層 94" x1="-4537.74" y1="-619.06" x2="-4502.75" y2="-619.06" xlink:href="#_未命名漸層_94"/>
    <linearGradient id="_未命名漸層_3" data-name="未命名漸層 3" x1="108.98" y1="208.48" x2="108.98" y2="129.09" gradientUnits="userSpaceOnUse">
      <stop offset=".08" stop-color="#f7ffaf"/>
      <stop offset=".63" stop-color="#faffd0" stop-opacity=".54"/>
      <stop offset="1" stop-color="#fff" stop-opacity="0"/>
    </linearGradient>
    <linearGradient id="_未命名漸層_61" data-name="未命名漸層 61" x1="108.91" y1="208.38" x2="108.91" y2="144.99" gradientUnits="userSpaceOnUse">
      <stop offset="0" stop-color="#b0ba77"/>
      <stop offset=".49" stop-color="#c7cf9e"/>
      <stop offset="1" stop-color="#cdd1bb"/>
    </linearGradient>
  </defs>
  <g id="_花" data-name="花">
    <g>
      <path class="cls-49" d="M98.33,19.51c.07-2.59,.46-4.85,1.01-6.34,.45,1.58,.72,3.93,.64,6.51,0,.36-.07,.67-.09,1.03,1.87-1.95,3.11-4.68,3.21-7.89,.11-3.64-1.24-7.06-3.47-9.45-2.34,1.93-3.89,5.03-4,8.69-.1,3.21,.97,6.17,2.73,8.49,0-.36-.05-.66-.03-1.04Z"/>
      <path class="cls-42" d="M195.03,72.58c.27-.24,.47-.47,.75-.71,1.98-1.66,3.94-2.87,5.42-3.45-.89,1.39-2.47,3.14-4.46,4.8-.27,.23-.55,.39-.83,.62,2.7,.11,5.57-.77,8.03-2.83,2.8-2.33,4.46-5.61,4.78-8.87-3-.47-6.35,.42-9.15,2.77-2.46,2.05-3.98,4.82-4.55,7.68Z"/>
      <path class="cls-78" d="M212.24,108.54c-.95-.65-1.98-1.13-3.05-1.47-.81-1.01-1.68-1.92-2.62-2.71,7.59-1.98,11.23-10.93,6.78-17.7h0c-1.04-1.59-2.36-2.79-3.82-3.66,1.72-1.69,2.66-3.92,2.74-6.08-2.04-.19-4.27,.56-6.06,2.27-.71,.67-1.28,1.44-1.72,2.26-1.93-.14-3.87,.18-5.65,.96-1.65-.88-3.4-1.5-5.2-1.84,.72-3.42,.18-7.15-1.98-10.44h0c-.62-.94-1.32-1.77-2.09-2.5,.53-1,.96-2.05,1.27-3.15,8.55-2.07,12.69-12.1,7.73-19.65-.38-.57-.78-1.1-1.22-1.58,0-.75-.09-1.48-.27-2.18-.54,.11-1.08,.27-1.61,.46-1.87-1.4-4.02-2.2-6.23-2.44-.19-1.76-.77-3.52-1.84-5.15h0c-1.89-2.88-4.67-4.52-7.61-5.06,1.02-1.15,1.72-2.5,2.04-3.9-1.97-.57-4.3-.25-6.38,1.08-1.58,1.01-2.73,2.45-3.42,4.03-2.21,1.19-4.05,3.13-5.14,5.75,.3-2.32-.1-4.76-1.33-7.01,.13-.13,.27-.25,.39-.39,4.05-4.47,5.74-10.7,5.14-16.87-5.4-.85-10.92,.92-14.96,5.4-1.61,1.78-2.81,3.86-3.65,6.09-3.55,.88-6.72,3.38-8.16,7.37h0c-.55,1.53-.76,3.06-.69,4.53-1.04-.69-2.13-1.26-3.27-1.7,.19-3.39-.64-6.68-2.28-9.36-.04,.02-.08,.05-.12,.07,1.04-1.04,1.86-2.28,2.44-3.61,.23,1.1,.59,2.15,1.07,3.13,.07-.35,.09-.66,.17-1.02,.58-2.52,1.41-4.67,2.23-6.02,.13,1.64-.07,3.99-.66,6.51-.08,.35-.2,.64-.29,.99,2.22-1.54,3.97-3.98,4.7-7.1,.82-3.55,.17-7.16-1.55-9.95-2.21,1.18-4.04,3.27-5.07,5.97-.31-1.22-.81-2.43-1.56-3.57-5.28-8.04-17.49-6.61-20.75,2.45h0c-.21,.59-.37,1.18-.49,1.77,0-.11,0-.21,0-.32-.16-3.59-1.74-6.61-4.07-8.46-2.14,2.4-3.41,5.77-3.25,9.34,.15,3.14,1.41,5.81,3.28,7.69-.02-.35-.09-.66-.1-1.01-.12-2.54,.1-4.85,.52-6.41,.56,1.45,.98,3.68,1.1,6.21,.02,.36-.02,.67-.01,1.02,1.14-1.56,1.96-3.42,2.33-5.43,.11,2.95,1.35,5.68,3.32,7.71,.21,1.32,.59,2.57,1.11,3.74,.14-.46,.2-.88,.36-1.33,.1-.31,.2-.61,.31-.91,.61,.42,1.26,.78,1.95,1.08-.04,.12-.07,.23-.11,.35-.15,.47-.35,.84-.5,1.29,.57-.38,1.12-.8,1.66-1.24,1.63,.53,3.43,.7,5.3,.42h0c1.43-.21,2.74-.68,3.91-1.32-1.69,1.62-3.03,3.76-3.8,6.3-2.93,.41-5.75,1.54-8.16,3.36-1.57-2.09-3.44-3.84-5.52-5.16-.82,1.17-1.53,2.43-2.15,3.75-1.43-.55-2.92-.9-4.42-1.06,.16-.9,.24-1.83,.24-2.79,0-4.51-1.76-8.52-4.54-11.2-2.78,2.68-4.54,6.7-4.54,11.2,0,1.36,.18,2.67,.48,3.91-.25,.1-.49,.2-.73,.31-3.31-4.93-8.36-7.42-13.49-7.69,2.64-2.91,3.74-7.07,2.62-11.01,.09-1.25,.06-2.52-.11-3.79C90.46,6.54,87.46,2.25,83.33,0c-1.64,2.18-2.89,4.68-3.63,7.33-3.05,.1-6.05,1.35-8.21,3.69-.55-.63-1.17-1.17-1.85-1.6-1.2,1.67-1.68,3.97-1.12,6.37,.04,.18,.09,.35,.15,.52-1.21,5.09,1.14,10.04,5.2,12.59-.33,1.6-.43,3.28-.27,4.99-.18,.25-.35,.5-.52,.77-1.56-2.07-3.59-3.45-5.79-4.19-.14-3.78-1.24-7.54-3.49-10.69-3.07-4.3-7.5-6.56-11.96-6.61-.8,5.07,.27,10.51,3.36,14.82,.85,1.19,1.82,2.19,2.85,3.05-2.28,1.09-4.24,2.9-5.51,5.38-.45-.43-.92-.83-1.42-1.18-.07,.1-.14,.2-.21,.3-.15-.26-.28-.53-.45-.79h0c-.77-1.17-1.69-2.11-2.7-2.88,.59-2.38,.42-5.08-.75-7.71-1.48-3.33-4.18-5.82-7.23-7.01-1.27,2.75-1.32,6.22,.17,9.56,.46,1.04,1.05,1.99,1.73,2.84-3.12-.25-6.29,.74-8.7,2.86-2.89-2.99-6.53-4.65-10.26-4.82-1.04,5.32-.12,11.1,2.97,15.76,1.74,2.62,3.96,4.52,6.4,5.73,2.47,2.7,6.2,4.27,10.32,3.66h0c2.49-.37,4.6-1.47,6.24-3.01,.84,2.76,2.38,5.08,4.31,6.78-.05-.44-.17-.81-.22-1.25-.38-2.87-.39-5.5-.14-7.43,.26,.48,.54,.93,.86,1.37,.53,1.59,.97,3.55,1.26,5.7,.06,.45,.05,.84,.09,1.27,.75-1.21,1.34-2.55,1.75-3.97,1.75,1.18,3.82,1.93,6.07,2.06,.09,.29,.18,.58,.28,.86-1.07,.19-2.11,.53-3.08,1.04-3.58-.43-7.29,.71-9.96,3.29-1.8-2.15-3.94-3.88-6.29-5.09-2.45,4.16-3.73,9.2-3.48,14.39-1.29,.25-2.55,.65-3.76,1.18-.41-1.81-1.12-3.52-2.13-5.05,.93-3.12,.59-6.65-1.43-9.73h0c-2.16-3.28-5.47-4.96-8.85-5.21-.57-.57-1.2-1.1-1.91-1.57-2.98-1.98-6.53-2.62-9.69-2.02,.29,2.24,1.39,4.44,3.2,6.24-1.51,1.26-2.75,2.92-3.51,5.01h0c-1.1,3.06-.86,6.14,.33,8.76-1.57-.35-3.13-.33-4.56,.06,.6,2.79,2.36,5.46,5.02,7.21,2.33,1.54,4.91,2.02,7.24,1.66-.26-.17-.52-.28-.77-.45-1.89-1.24-3.43-2.6-4.33-3.72,1.33,.35,3.15,1.21,5.03,2.46,.27,.18,.47,.36,.73,.54-.13-.4-.29-.8-.46-1.19,1.41,.34,2.92,.43,4.49,.2h0c1.21-.18,2.33-.55,3.36-1.04,.9,.68,1.86,1.23,2.85,1.61-1.64,1.7-2.98,3.78-3.88,6.26h0c-.05,.13-.09,.27-.13,.4-2.64-.24-5.27,.14-7.73,1.08-5.77-2.36-13.04,.16-15.45,6.84-.59,1.65-.79,3.3-.67,4.88-.48,.24-.95,.5-1.4,.81,1.21,3.94,3.89,7.24,7.55,8.75,.46,.19,.93,.34,1.39,.47,1.77,.67,3.74,.92,5.82,.61h0c4.45-.66,7.73-3.65,9.17-7.36,.53,.33,1.08,.64,1.64,.92-1.35,1.56-2.46,3.41-3.23,5.55h0c-.35,.98-.6,1.96-.78,2.93-.95,.11-1.91,.31-2.86,.59-.88,.26-1.73,.59-2.56,.98-7-.11-14,3.9-16.75,11.53h0c-4.49,12.43,5.92,25.14,18.99,23.21h0c.99-.15,1.93-.38,2.84-.67,2.29,4.88,7.57,8.23,13.62,7.33h0c6.96-1.03,11.37-7.18,11.02-13.52,1.93,1.1,4.24,1.6,6.71,1.24,.92-.14,1.78-.39,2.58-.73,1.29,1.29,2.79,2.25,4.4,2.84,2.12,5.23,7.59,8.92,13.91,7.99,2.13-.32,4.01-1.11,5.6-2.24,3.11,3.8,8.07,6.09,13.61,5.27h0c8.37-1.24,13.51-8.96,12.49-16.58,.12-.5,.25-.95,.4-1.35,.45,1.58,.72,3.93,.64,6.51,0,.36-.07,.67-.09,1.03,1.87-1.95,3.11-4.68,3.21-7.89,.11-3.64-1.24-7.06-3.47-9.45-1.42,1.17-2.54,2.78-3.23,4.67-2.22-3.2-5.34-5.15-8.66-5.93,1.43-.05,2.85-.27,4.24-.65-.52-.34-1.01-.54-1.54-.93-.78-.53-1.51-1.08-2.22-1.63,.73-.86,1.38-1.79,1.93-2.77,.63,.39,1.27,.79,1.91,1.23,.54,.37,.93,.77,1.44,1.16-.45-1.92-1.12-3.78-1.97-5.53,.08-.25,.16-.5,.23-.76,3.49,3.09,8.23,4.83,13.43,4.25-.21,.67-.4,1.35-.56,2.04,.51-.39,.9-.8,1.44-1.16,.82-.57,1.64-1.08,2.45-1.56,1.8-.56,3.45-1.38,4.9-2.42,1-.39,1.95-.69,2.8-.86-1.73,2.5-4.76,5.44-8.52,8.01-.53,.39-1.02,.59-1.54,.93,4.87,1.35,10.15,.72,14.82-2.47,1.37-.94,2.61-2.05,3.7-3.27,.08,.5,.19,.99,.33,1.46-1.82,1.01-3.42,2.47-4.61,4.37-2.7,.13-5.49,1.22-7.87,3.33-2.58,2.29-4.11,5.31-4.63,8.4,.28-.26,.49-.53,.79-.79,2.08-1.85,4.14-3.22,5.7-3.89-.91,1.52-2.54,3.46-4.63,5.3-.28,.26-.57,.44-.86,.69,1.64,.02,3.33-.33,4.95-1.03-1.99,11.38,7.76,21.99,19.78,20.21h0c7.59-1.13,12.93-6.76,14.46-13.38,.62-.43,1.22-.89,1.78-1.4,2.15,1.74,5,2.67,8.12,2.21h0c3.68-.55,6.47-2.86,7.91-5.82,1.98,1.21,4.18,1.77,6.38,1.65,.11-.9,.14-1.8,.1-2.71,2.64,2.7,6.07,4.65,9.94,5.43,.76,.53,1.57,.99,2.44,1.34,3.7,1.45,7.56,.81,10.63-1.41-.17-.53-.38-1.04-.6-1.53,9.44-4.61,13.73-16.37,8.77-26.14,.3-.65,.58-1.32,.8-2.02Zm-154.29-4.36c1.97-1.29,4.86-2.46,8.22-3.27-.38,1.21-.62,2.43-.73,3.63-2.92,.24-5.53,.09-7.49-.36Zm134.12-9.05c.11,.63,.28,1.24,.49,1.83-.4,.61-.74,1.24-1.02,1.89,.35-.17,.63-.36,.98-.52,.17-.08,.34-.15,.52-.23,.26,.53,.55,1.04,.89,1.52-.17,.08-.34,.17-.52,.25-4.3,.16-8.53,1.72-11.9,4.58-.4-.93-.88-1.84-1.46-2.73h0c-.7-1.06-1.47-2-2.31-2.84,3.47,.65,7.12,.27,10.61-1.4,1.34-.64,2.58-1.44,3.72-2.36Zm-18.27-1.71c1.63-.79,3.22-1.42,4.73-1.91,1.15,.12,2.34,.11,3.56-.07h0c.53-.08,1.05-.19,1.55-.32-2.03,1.92-5.01,3.97-8.51,5.66-5.45-3.65-12.48-3.79-18.06-.79-.45-.05-.9-.07-1.34-.09,.15-.77,.26-1.56,.3-2.35,5.45-1.08,9.65-4.52,11.99-8.94,1.41,2.44,3.53,4.45,6.12,5.68-.75,1.27-1.4,2.62-1.93,4.03,.55-.29,.99-.61,1.58-.88Zm-19.44,32.66c-.07,.12-.13,.24-.2,.36-.19-.33-.39-.66-.6-.99-.57-.87-1.2-1.66-1.87-2.38-.24-.72-.54-1.42-.92-2.12,.01-.04,.03-.08,.04-.12,1.06,1.63,2.39,3.08,3.93,4.28-.1,.22-.21,.42-.29,.65-.04,.1-.05,.2-.09,.3ZM73.53,59.67h0c-.25-.39-.53-.73-.82-1.07-.26-.72-.49-1.41-.66-2.05,2.33,1.69,5.21,4.85,7.87,8.87,.38,.58,.61,1.13,.96,1.69,.22-2.24,.18-4.51-.14-6.75,2.27,.98,4.79,1.49,7.45,1.4,.25,.54,.52,1.07,.8,1.58,.08-.56,.11-1.08,.18-1.64,.34-.03,.69-.07,1.04-.12h0c.78-.12,1.54-.28,2.28-.49-.05,.32-.09,.63-.15,.95-.12,.71-.32,1.29-.44,1.97,1.18-.95,2.27-2.06,3.27-3.28,.24,.33,.49,.64,.74,.95-.08,.2-.16,.39-.24,.59h0c-1.13,3.14-1.31,6.29-.75,9.22-4.83-3.82-11.19-4.61-16.68-2.67-.29-.38-.59-.72-.87-1.15-.83-1.26-1.58-2.52-2.25-3.76-.21-1.45-.72-2.89-1.61-4.23Zm4.21,9.34c-1.59,.62-3.1,1.48-4.47,2.56,.73-1.03,1.28-2.18,1.61-3.4,.93,.37,1.89,.63,2.85,.84Zm46.39,13.38c0,.11,.01,.23,.02,.34-.43,.65-.83,1.33-1.19,2.06,0,0,0,0-.01-.01,.38-.93,.78-1.74,1.18-2.39Zm31.59-35.21c-.34-.41-.7-.78-1.08-1.12,.5,.03,1,.02,1.52-.02-.16,.38-.31,.76-.44,1.14Zm-22.73,19.79s0,.09,0,.14c.03-.05,.05-.09,.08-.13,1.11,.05,2.26,0,3.42-.17h0c.21-.03,.42-.08,.63-.11-.21,.33-.41,.66-.63,.98-.37,.58-.77,.98-1.14,1.52,.51-.09,1.01-.21,1.51-.34-.25,.53-.49,1.08-.7,1.65h0c-.6,1.66-.93,3.32-1.02,4.96-2.13,.42-4.19,1.24-6.04,2.42-.09-1.21-.32-2.38-.65-3.51,.95-2.5,1.32-5.21,1.05-7.93,1.12,.29,2.29,.47,3.49,.53Zm-75.23,28.94c3.1-4.45,4.11-10.27,2.24-15.69,.03,0,.06,0,.09,0h0c.57-.08,1.12-.21,1.65-.36,.68,2.53,1.74,4.97,3.22,7.19,.73,1.1,1.54,2.08,2.39,2.97,.48,1.69,1.22,3.29,2.17,4.75-.87,1.03-1.63,2.2-2.27,3.48-2.88-1.63-6.11-2.49-9.48-2.33Zm23.22,27.56c.62,.06,1.24,.1,1.88,.09-.3,.24-.58,.49-.86,.76-.33-.3-.66-.59-1.01-.85Zm20.75-41.1s.02-.07,.03-.1c.18,.13,.36,.25,.54,.38-.25,.14-.49,.29-.73,.45,.04-.24,.09-.47,.16-.72Zm105.72-.89c-.08,.15-.19,.31-.29,.46-.12-.04-.23-.09-.35-.12,.22-.13,.44-.25,.64-.34Zm-31.22-52.94c-.06,.07-.15,.16-.22,.24-.33,.05-.65,.11-.97,.18,.43-.18,.84-.33,1.19-.41Zm-2.36,22.87c-.09,.1-.19,.2-.28,.32,.24-.05,.48-.12,.72-.18,.17,.05,.33,.1,.51,.14-.1,4.71,2.44,9.02,6.33,11.35-.26,.27-.5,.55-.73,.84-2.3-.05-4.6,.46-6.66,1.51-.31-3.98-1.5-7.78-3.42-11.03-.04,.02-.08,.04-.11,.06-.29-.71-.63-1.42-1.08-2.09h0c-1.1-1.67-2.48-2.94-4.02-3.84,.73-1.21,1.29-2.48,1.68-3.77,1.27,3.1,3.84,5.6,7.08,6.7Zm-13.73-27.69s-.08-.04-.11-.06c.06-.03,.12-.07,.18-.09-.02,.05-.04,.1-.06,.15Zm-53.19,7.52c.18,.55,.33,1.19,.47,1.89-.32,.04-.64,.08-.96,.14,.14-.75,.31-1.44,.49-2.03Zm-46.83-6.49c1.56,1.05,3.45,2.9,5.3,5.26-.99-.16-2-.21-2.99-.13-1.07-1.87-1.86-3.65-2.31-5.13Zm-16.35,1.35c1.03,1.16,2.21,3.02,3.22,5.21-.7-.45-1.43-.8-2.19-1.08-.57-1.58-.92-3.02-1.03-4.14Zm-9.02,44.61c-.59,.34-1.16,.71-1.71,1.12-.6-.74-1.15-1.48-1.61-2.19,.3-.31,.58-.63,.84-.97,.79,.56,1.63,1.25,2.48,2.04Zm28.46,54.95c-.08-1.8-.62-3.63-1.72-5.3h0c-1.35-2.06-3.21-3.4-5.25-4.12,.53-1.13,.94-2.31,1.22-3.52,.12-.02,.24-.03,.36-.05,2.89-.52,5.52-1.76,7.79-3.52,.34,1.92,1.01,3.74,1.94,5.41-1.42-.33-2.88-.38-4.31-.14-.11,3.17,.67,6.35,2.3,9.01-.86,.63-1.65,1.38-2.34,2.24Z"/>
    </g>
    <g>
      <path class="cls-46" d="M210.33,108.62h0c-8.78-13.36-29.05-10.97-34.48,4.07h0c-4.99,13.81,6.58,27.94,21.1,25.79h0c14.02-2.08,21.16-18.01,13.37-29.86Z"/>
      <path class="cls-33" d="M125.79,88.11h0c-7.9-12.03-26.14-9.87-31.02,3.66h0c-4.49,12.43,5.92,25.14,18.99,23.21h0c12.62-1.87,19.04-16.2,12.03-26.86Z"/>
      <path class="cls-76" d="M98.76,75.66h0c-7.9-12.03-26.14-9.87-31.02,3.66h0c-4.49,12.43,5.92,25.14,18.99,23.21h0c12.62-1.87,19.04-16.2,12.03-26.86Z"/>
      <path class="cls-77" d="M153.19,82.98h0c-7.9-12.03-26.14-9.87-31.02,3.66h0c-4.49,12.43,5.92,25.14,18.99,23.21h0c12.62-1.87,19.04-16.2,12.03-26.86Z"/>
      <path class="cls-74" d="M169.13,52.32h0c-5.49-8.36-18.17-6.86-21.57,2.54h0c-3.12,8.64,4.11,17.48,13.2,16.13h0c8.77-1.3,13.24-11.26,8.37-18.68Z"/>
      <path class="cls-39" d="M68.46,61.53h0c-5.49-8.36-18.17-6.86-21.57,2.54h0c-3.12,8.64,4.11,17.48,13.2,16.13h0c8.77-1.3,13.24-11.26,8.37-18.68Z"/>
      <path class="cls-26" d="M126.71,58.6h0c-7.9-12.03-26.14-9.87-31.02,3.66h0c-4.49,12.43,5.92,25.14,18.99,23.21h0c12.62-1.87,19.04-16.2,12.03-26.86Z"/>
      <path class="cls-54" d="M180.04,101.74h0c-7.9-12.03-26.14-9.87-31.02,3.66h0c-4.49,12.43,5.92,25.14,18.99,23.21h0c12.62-1.87,19.04-16.2,12.03-26.86Z"/>
      <path class="cls-34" d="M55.03,99.24h0c-7.9-12.03-26.14-9.87-31.02,3.66h0c-4.49,12.43,5.92,25.14,18.99,23.21h0c12.62-1.87,19.04-16.2,12.03-26.86Z"/>
      <path class="cls-68" d="M148.54,39.92h0c-7.9-12.03-26.14-9.87-31.02,3.66h0c-4.49,12.43,5.92,25.14,18.99,23.21h0c12.62-1.87,19.04-16.2,12.03-26.86Z"/>
      <path class="cls-73" d="M102.26,34.71h0c-7.9-12.03-26.14-9.87-31.02,3.66h0c-4.49,12.43,5.92,25.14,18.99,23.21h0c12.62-1.87,19.04-16.2,12.03-26.86Z"/>
      <path class="cls-28" d="M191.65,70.12h0c-6.27-9.54-20.74-7.84-24.62,2.9h0c-3.56,9.86,4.7,19.95,15.07,18.42h0c10.01-1.49,15.11-12.86,9.55-21.32Z"/>
      <path class="cls-13" d="M136.88,50.32c-3.3,4.97-4.45,11-3.87,16.78,.35-.56,.58-1.12,.96-1.69,2.66-4.02,5.53-7.17,7.87-8.87-.81,3.06-2.68,7.1-5.34,11.12-.37,.58-.77,.98-1.14,1.52,4.95-.86,9.66-3.71,12.96-8.69,3.77-5.68,4.89-12.74,3.62-19.22-5.73,.27-11.32,3.38-15.07,9.06Z"/>
      <path class="cls-17" d="M119.95,80.15c-.89,3.82-.32,7.64,1.24,10.85,.08-.43,.11-.81,.21-1.25,.71-3.09,1.72-5.72,2.74-7.37,.16,2.01-.08,4.89-.8,7.97-.1,.43-.24,.79-.35,1.21,2.71-1.88,4.86-4.87,5.75-8.7,1-4.34,.2-8.77-1.89-12.18-3.28,1.75-5.88,5.11-6.89,9.46Z"/>
      <path class="cls-5" d="M103.52,130.62c-.1,3.21,.97,6.17,2.73,8.49,0-.36-.05-.66-.03-1.04,.07-2.59,.46-4.85,1.01-6.34,.45,1.58,.72,3.93,.64,6.51,0,.36-.07,.67-.09,1.03,1.87-1.95,3.11-4.68,3.21-7.89,.11-3.64-1.24-7.06-3.47-9.45-2.34,1.93-3.89,5.03-4,8.69Z"/>
      <path class="cls-6" d="M39.94,26.71c1.3,2.93,3.55,5.14,6.15,6.47-.16-.32-.33-.58-.48-.92-1.06-2.36-1.69-4.57-1.84-6.15,1.09,1.23,2.35,3.23,3.4,5.59,.15,.33,.23,.63,.37,.96,.84-2.56,.77-5.57-.53-8.5-1.48-3.33-4.18-5.82-7.23-7.01-1.27,2.75-1.32,6.22,.17,9.56Z"/>
      <path class="cls-1" d="M140.45,14.61c-.72,3.12-.26,6.24,1.01,8.87,.07-.35,.09-.66,.17-1.02,.58-2.52,1.41-4.67,2.23-6.02,.13,1.64-.07,3.99-.66,6.51-.08,.35-.2,.64-.29,.99,2.22-1.54,3.97-3.98,4.7-7.1,.82-3.55,.17-7.16-1.55-9.95-2.68,1.43-4.81,4.17-5.63,7.73Z"/>
      <path class="cls-11" d="M95.62,12.06c-.1,3.21,.97,6.17,2.73,8.49,0-.36-.05-.66-.03-1.04,.07-2.59,.46-4.85,1.01-6.34,.45,1.58,.72,3.93,.64,6.51,0,.36-.07,.67-.09,1.03,1.87-1.95,3.11-4.68,3.21-7.89,.11-3.64-1.24-7.06-3.47-9.45-2.34,1.93-3.89,5.03-4,8.69Z"/>
      <path class="cls-7" d="M199.58,64.9c-2.46,2.05-3.98,4.82-4.55,7.68,.27-.24,.47-.47,.75-.71,1.98-1.66,3.94-2.87,5.42-3.45-.89,1.39-2.47,3.14-4.46,4.8-.27,.23-.55,.39-.83,.62,2.7,.11,5.57-.77,8.03-2.83,2.8-2.33,4.46-5.61,4.78-8.87-3-.47-6.35,.42-9.15,2.77Z"/>
      <path class="cls-3" d="M141.5,119.19c-2.42,3.09-3.52,6.79-3.46,10.36,.26-.35,.44-.69,.72-1.05,1.95-2.5,3.98-4.45,5.59-5.52-.7,1.89-2.14,4.39-4.1,6.89-.27,.35-.55,.61-.83,.95,3.26-.56,6.47-2.36,8.88-5.45,2.75-3.51,3.89-7.86,3.43-11.84-3.71,.2-7.49,2.14-10.24,5.67Z"/>
      <path class="cls-71" d="M111.11,52.38c-5.28,2.62-9.55,7.81-11.31,14.68-1.54,6.03-.78,12.11,1.53,17.28,.17-.67,.2-1.3,.4-1.97,1.25-4.84,2.97-8.97,4.63-11.55,.19,3.2-.33,7.74-1.57,12.61-.18,.69-.42,1.22-.61,1.89,4.36-2.84,7.91-7.46,9.46-13.47,1.77-6.86,.67-13.94-2.51-19.47Z"/>
      <path class="cls-9" d="M121.98,64c-.13-.68-.33-1.26-.44-1.97-.85-4.97-.98-9.55-.52-12.71,1.42,2.74,2.8,7.03,3.64,12,.12,.71,.13,1.32,.22,2.01,2.73-4.86,4-10.85,2.96-17.01-1.17-7.04-4.99-12.69-10.03-15.88-3.62,5.16-5.31,12.06-4.13,19.08,1.04,6.17,4.17,11.17,8.29,14.49Z"/>
      <path class="cls-66" d="M90.91,91.56c-.11-.43-.25-.78-.35-1.21-.72-3.09-.96-5.96-.8-7.97,1.01,1.65,2.03,4.28,2.74,7.37,.1,.44,.13,.82,.21,1.25,1.55-3.21,2.13-7.03,1.24-10.85-1-4.36-3.61-7.71-6.89-9.46-2.09,3.41-2.89,7.84-1.89,12.18,.89,3.82,3.03,6.81,5.75,8.7Z"/>
      <path class="cls-22" d="M99.11,135.17c-.27-.35-.55-.61-.81-.96-1.92-2.52-3.31-5.05-3.99-6.95,1.6,1.1,3.6,3.08,5.51,5.61,.28,.36,.45,.7,.7,1.06,.11-3.57-.93-7.28-3.3-10.41-2.7-3.57-6.45-5.56-10.15-5.82-.52,3.97,.56,8.33,3.25,11.89,2.37,3.13,5.55,4.98,8.8,5.59Z"/>
      <path class="cls-56" d="M116.79,133.15c.29-.25,.58-.43,.86-.69,2.08-1.84,3.72-3.78,4.63-5.3-1.57,.67-3.63,2.04-5.7,3.89-.3,.26-.51,.52-.79,.79,.52-3.09,2.05-6.11,4.63-8.4,2.93-2.61,6.51-3.68,9.74-3.27-.24,3.51-1.91,7.08-4.84,9.68-2.58,2.29-5.63,3.34-8.53,3.31Z"/>
      <path class="cls-16" d="M89.23,61.32c.84-4.97,2.23-9.26,3.64-12,.46,3.16,.33,7.74-.52,12.71-.12,.71-.32,1.29-.44,1.97,4.12-3.32,7.26-8.31,8.29-14.49,1.18-7.01-.51-13.92-4.13-19.08-5.04,3.2-8.85,8.84-10.02,15.88-1.05,6.16,.22,12.14,2.95,17.01,.1-.69,.11-1.3,.22-2.01Z"/>
      <path class="cls-63" d="M79.68,44.76c-.11-.43-.25-.79-.35-1.21-.72-3.09-.96-5.97-.8-7.97,1.01,1.65,2.03,4.29,2.74,7.37,.11,.44,.13,.82,.21,1.25,1.55-3.21,2.12-7.03,1.23-10.85-1-4.36-3.61-7.72-6.89-9.47-2.09,3.42-2.89,7.84-1.89,12.19,.88,3.82,3.03,6.81,5.75,8.69Z"/>
      <path class="cls-69" d="M114.17,21.74c-.02-.35-.09-.66-.1-1.01-.12-2.54,.1-4.85,.52-6.41,.56,1.45,.98,3.68,1.1,6.21,.02,.36-.02,.67-.01,1.02,1.69-2.31,2.69-5.24,2.54-8.38-.16-3.59-1.74-6.61-4.07-8.46-2.14,2.4-3.41,5.77-3.25,9.34,.15,3.14,1.41,5.81,3.28,7.69Z"/>
      <path class="cls-25" d="M122.43,27.58c.14-.46,.2-.88,.36-1.33,1.06-3.3,2.46-6.14,3.73-7.93,.02,2.12-.51,5.16-1.58,8.45-.15,.47-.35,.84-.5,1.29,3.26-2.14,5.95-5.4,7.26-9.48,1.51-4.66,.95-9.28-1.13-12.76-3.88,2.03-7.13,5.72-8.63,10.37-1.32,4.08-.99,8.09,.5,11.39Z"/>
      <path class="cls-55" d="M20.04,75.28c-.26-.17-.52-.28-.77-.45-1.89-1.24-3.43-2.6-4.33-3.72,1.33,.35,3.15,1.21,5.03,2.46,.27,.18,.47,.36,.73,.54-.78-2.42-2.36-4.67-4.7-6.2-2.66-1.76-5.66-2.2-8.21-1.5,.6,2.79,2.36,5.46,5.02,7.21,2.33,1.54,4.91,2.02,7.24,1.66Z"/>
      <path class="cls-27" d="M191.54,98.86c.35-.17,.63-.36,.98-.52,2.52-1.17,4.96-1.89,6.71-2.12-1.24,1.17-3.32,2.51-5.84,3.67-.36,.17-.68,.26-1.04,.41,3.04,.76,6.42,.56,9.55-.88,3.57-1.64,5.99-4.49,6.9-7.62-3.31-1.18-7.25-1.08-10.81,.56-3.13,1.45-5.31,3.82-6.44,6.5Z"/>
      <path class="cls-29" d="M187.97,53.14c.17-.26,.29-.51,.47-.77,1.27-1.86,2.67-3.38,3.8-4.26-.38,1.33-1.27,3.13-2.55,4.99-.18,.27-.37,.46-.55,.71,2.43-.73,4.71-2.27,6.29-4.58,1.81-2.63,2.31-5.62,1.65-8.18-2.8,.55-5.51,2.26-7.31,4.88-1.58,2.3-2.11,4.87-1.8,7.2Z"/>
      <path class="cls-71" d="M105.95,39.18c0-3.18,.4-6.04,1-7.94,.61,1.9,1,4.75,1,7.94,0,.45-.06,.83-.07,1.27,2.21-2.62,3.61-6.15,3.61-10.11,0-4.51-1.76-8.52-4.54-11.2-2.78,2.68-4.54,6.7-4.54,11.2,0,3.97,1.4,7.5,3.61,10.11-.01-.44-.07-.82-.07-1.27Z"/>
      <path class="cls-71" d="M177.92,71.92c2.06-2.16,4.13-3.72,5.77-4.46-.81,1.79-2.38,4.04-4.42,6.17-.29,.31-.59,.51-.86,.8,3.16,.13,6.36-1.02,8.9-3.66,2.89-3.01,4.29-7.22,4.14-11.41-3.58-.6-7.35,.56-10.23,3.59-2.53,2.65-3.85,6.21-4.07,9.88,.29-.32,.49-.61,.77-.9Z"/>
      <path class="cls-20" d="M194.63,114.77c.35-.17,.63-.37,1.01-.51,2.58-1.09,5.01-1.63,6.76-1.59-1.33,1.28-3.5,2.69-6.1,3.77-.37,.16-.69,.22-1.05,.37,2.88,1.51,6.21,1.83,9.43,.49,3.66-1.52,6.33-4.81,7.55-8.75-3.11-2.12-6.99-2.68-10.63-1.15-3.22,1.33-5.6,4.08-6.97,7.38Z"/>
      <path class="cls-14" d="M159.2,69.18c-1.49,6.05-.67,12.14,1.7,17.27,.16-.69,.21-1.29,.39-1.99,1.18-4.86,2.85-9.01,4.5-11.61,.2,3.21-.26,7.76-1.44,12.61-.17,.71-.42,1.27-.59,1.91,4.35-2.89,7.82-7.57,9.31-13.62,1.69-6.87,.5-13.91-2.74-19.41-5.24,2.7-9.46,7.95-11.13,14.83Z"/>
      <path class="cls-67" d="M155.58,53.14c1.7-2.68,3.54-4.85,5.07-6.08-.52,1.92-1.72,4.55-3.43,7.24-.23,.38-.49,.66-.73,1.04,3.21-.94,6.26-3.11,8.38-6.43,2.41-3.78,3.13-8.2,2.27-12.05-3.72,.66-7.33,3.03-9.73,6.81-2.13,3.33-2.87,7.1-2.45,10.58,.22-.37,.38-.73,.62-1.11Z"/>
      <path class="cls-2" d="M115.58,119.09c-.53,.39-1.02,.59-1.54,.93,4.87,1.35,10.15,.72,14.82-2.47,5.32-3.65,8.63-9.7,9.54-16.27-5.41-2.23-11.59-1.76-16.9,1.9-4.65,3.18-7.66,8.29-8.98,13.91,.51-.39,.9-.8,1.44-1.16,3.76-2.58,7.44-4.26,10.15-4.84-1.73,2.5-4.76,5.44-8.52,8.01Z"/>
      <path class="cls-9" d="M154.2,32.71c-.4,.47-.8,.76-1.2,1.18,4.72,.17,9.39-1.55,12.94-5.47,4.05-4.47,5.74-10.7,5.14-16.87-5.4-.85-10.92,.92-14.96,5.4-3.53,3.9-5.16,9.2-5.14,14.6,.38-.47,.64-.92,1.06-1.37,2.86-3.17,5.83-5.49,8.18-6.61-1.03,2.65-3.15,5.98-6.01,9.14Z"/>
      <path class="cls-71" d="M111.49,100.99c0-4.51-1.76-8.52-4.54-11.21-2.78,2.68-4.54,6.7-4.54,11.21,0,3.97,1.4,7.49,3.61,10.11-.01-.44-.07-.82-.07-1.28,0-3.18,.4-6.04,1-7.93,.61,1.9,1,4.75,1,7.93,0,.45-.06,.83-.07,1.28,2.21-2.62,3.61-6.15,3.61-10.11Z"/>
      <path class="cls-71" d="M182.68,46.01c2.79-3.54,3.89-7.79,3.36-11.62-3.84,.39-7.71,2.45-10.5,6-2.45,3.12-3.53,6.75-3.42,10.18,.27-.36,.45-.69,.73-1.05,1.97-2.5,4.05-4.5,5.7-5.62-.69,1.87-2.15,4.35-4.12,6.86-.28,.36-.57,.61-.85,.96,3.36-.7,6.64-2.6,9.09-5.71Z"/>
      <path class="cls-9" d="M145.45,100.43c4.33,.77,8.09,2.18,10.5,3.75-2.7,.63-6.66,.68-10.96-.09-.63-.11-1.13-.32-1.73-.44,3.01,4.64,7.45,8.04,12.81,9.01,6.1,1.09,11.99-1.16,16.29-5.57-2.95-5.68-7.99-9.87-14.07-10.95-5.36-.96-10.48,.74-14.58,4.1,.6,.08,1.13,.06,1.74,.18Z"/>
      <path class="cls-71" d="M55.07,118.82c.14,.37,.34,.71,.48,1.13,1.11,2.91,1.73,5.73,1.84,7.73-1.23-1.43-2.57-3.88-3.65-6.79-.17-.42-.25-.79-.38-1.18-1.13,3.41-1.21,7.3,.19,10.92,1.54,4.11,4.55,7,8.03,8.16,1.63-3.73,1.85-8.23,.28-12.4-1.36-3.6-3.88-6.2-6.79-7.57Z"/>
      <path class="cls-71" d="M161.95,120.8c-.13,.37-.2,.76-.37,1.17-1.05,2.94-2.42,5.48-3.64,7.06,0-1.88,.58-4.62,1.65-7.54,.15-.43,.33-.76,.48-1.14-3.08,1.85-5.67,4.75-6.97,8.41-1.51,4.13-1.11,8.28,.78,11.42,3.66-1.77,6.77-5.04,8.29-9.22,1.31-3.62,1.1-7.23-.22-10.17Z"/>
      <path class="cls-4" d="M46.08,121.49c-1.84,2.37-3.8,4.19-5.32,5.12,.62-1.88,2-4.31,3.84-6.65,.26-.36,.53-.59,.78-.89-3.14,.21-6.23,1.73-8.52,4.68-2.6,3.33-3.63,7.7-3.11,11.84,3.6,.19,7.23-1.42,9.87-4.79,2.28-2.92,3.28-6.64,3.17-10.29-.23,.3-.42,.65-.69,.98Z"/>
      <path class="cls-57" d="M168.53,119.07c.25,.31,.52,.54,.78,.89,1.84,2.34,3.21,4.76,3.84,6.65-1.52-.93-3.49-2.74-5.32-5.12-.27-.33-.46-.68-.69-.98-.11,3.65,.89,7.37,3.17,10.29,2.63,3.37,6.26,4.98,9.87,4.79,.51-4.14-.52-8.51-3.12-11.84-2.29-2.95-5.39-4.47-8.52-4.68Z"/>
      <path class="cls-71" d="M193.53,106.43c-5.25-1.57-10.49-.46-14.85,2.4,.59,.15,1.11,.2,1.72,.39,4.24,1.25,7.85,3.09,10.12,4.92-2.75,.32-6.69-.07-10.91-1.35-.61-.17-1.09-.44-1.67-.64,2.61,4.97,6.73,8.87,11.98,10.44,5.97,1.79,12.02,.23,16.68-3.66-2.45-6-7.1-10.75-13.07-12.52Z"/>
      <path class="cls-12" d="M34.29,112.8c-4.22,1.28-8.16,1.66-10.91,1.35,2.27-1.84,5.89-3.67,10.12-4.92,.62-.19,1.13-.24,1.73-.39-4.36-2.87-9.6-3.97-14.85-2.4-5.97,1.76-10.62,6.51-13.07,12.52,4.66,3.89,10.71,5.45,16.68,3.66,5.25-1.58,9.37-5.47,11.98-10.44-.58,.2-1.06,.46-1.67,.64Z"/>
      <path class="cls-21" d="M26.59,70.77c2.55,2.65,5.75,3.8,8.91,3.66-.27-.28-.57-.49-.87-.8-2.04-2.13-3.6-4.38-4.42-6.17,1.64,.74,3.71,2.3,5.77,4.46,.29,.29,.49,.59,.77,.9-.21-3.67-1.53-7.23-4.07-9.88-2.88-3.03-6.66-4.19-10.24-3.59-.15,4.19,1.26,8.4,4.14,11.41Z"/>
      <path class="cls-18" d="M67.39,125.82c2.55,2.65,5.75,3.8,8.91,3.66-.27-.28-.57-.49-.87-.8-2.04-2.13-3.6-4.38-4.42-6.17,1.64,.74,3.71,2.3,5.77,4.46,.29,.29,.49,.59,.77,.9-.21-3.67-1.53-7.23-4.07-9.88-2.88-3.03-6.66-4.19-10.24-3.59-.15,4.19,1.26,8.4,4.14,11.41Z"/>
      <path class="cls-71" d="M50.14,87.38c-.17-.64-.43-1.2-.59-1.91-1.19-4.85-1.64-9.4-1.44-12.61,1.65,2.6,3.32,6.75,4.5,11.61,.18,.7,.23,1.3,.39,1.99,2.37-5.12,3.19-11.22,1.7-17.27-1.67-6.88-5.88-12.12-11.12-14.83-3.24,5.5-4.44,12.54-2.75,19.41,1.49,6.05,4.96,10.73,9.31,13.62Z"/>
      <path class="cls-15" d="M52.95,56.49c-.05-.44-.17-.81-.22-1.25-.42-3.16-.39-6.05-.05-8.01,.86,1.77,1.61,4.51,2.03,7.65,.06,.45,.05,.84,.09,1.27,1.85-2.98,2.77-6.71,2.25-10.63-.58-4.45-2.85-8.12-5.95-10.29-2.41,3.12-3.62,7.43-3.03,11.88,.52,3.91,2.36,7.17,4.88,9.37Z"/>
      <path class="cls-71" d="M41.54,107.09c4.3,4.41,10.18,6.66,16.29,5.57,5.36-.97,9.79-4.37,12.8-9.01-.59,.12-1.09,.33-1.72,.44-4.3,.77-8.26,.72-10.96,.09,2.41-1.57,6.17-2.98,10.5-3.75,.61-.12,1.14-.1,1.74-.18-4.1-3.36-9.22-5.06-14.58-4.1-6.08,1.08-11.12,5.27-14.07,10.95Z"/>
      <path class="cls-8" d="M77.92,95.73c-.37-.54-.77-.95-1.14-1.53-2.65-4.02-4.52-8.06-5.34-11.12,2.34,1.7,5.21,4.85,7.87,8.88,.38,.56,.61,1.11,.96,1.69,.58-5.78-.57-11.8-3.87-16.79-3.75-5.68-9.34-8.78-15.07-9.05-1.27,6.49-.15,13.54,3.63,19.22,3.3,4.97,8.01,7.84,12.96,8.69Z"/>
      <path class="cls-10" d="M36.3,50.46c-.3-.44-.63-.78-.94-1.25-2.17-3.29-3.71-6.6-4.37-9.11,1.91,1.4,4.27,3.97,6.45,7.28,.31,.46,.5,.91,.79,1.38,.48-4.74-.47-9.67-3.17-13.76-3.07-4.66-7.65-7.2-12.36-7.42-1.04,5.32-.12,11.1,2.97,15.76,2.71,4.07,6.56,6.42,10.62,7.12Z"/>
      <path class="cls-35" d="M9.21,102.71c3.21,1.35,6.55,1.02,9.42-.49-.36-.15-.67-.21-1.04-.37-2.6-1.08-4.78-2.49-6.1-3.77,1.75-.04,4.18,.5,6.76,1.59,.38,.15,.67,.34,1.01,.51-1.37-3.31-3.75-6.05-6.97-7.38-3.64-1.53-7.52-.97-10.64,1.15,1.21,3.94,3.89,7.24,7.55,8.75Z"/>
      <path class="cls-9" d="M132.63,42.95c.71-3.08,1.72-5.72,2.74-7.37,.16,2.01-.08,4.89-.8,7.97-.1,.43-.25,.79-.35,1.21,2.71-1.89,4.85-4.87,5.75-8.69,1-4.35,.2-8.77-1.89-12.19-3.28,1.75-5.89,5.11-6.89,9.47-.89,3.82-.32,7.64,1.23,10.85,.08-.43,.1-.81,.21-1.25Z"/>
      <path class="cls-9" d="M25.1,55.81c-2.12-1.4-3.81-2.91-4.76-4.13,1.55,.45,3.65,1.44,5.76,2.85,.29,.19,.52,.41,.81,.6-.65-2.57-2.29-5.02-4.91-6.77-2.98-1.98-6.53-2.62-9.69-2.02,.39,2.96,2.18,5.86,5.17,7.85,2.62,1.75,5.65,2.39,8.5,2.13-.3-.18-.58-.31-.88-.51Z"/>
      <path class="cls-9" d="M71.58,20.21c-.4-1.7-.54-3.26-.43-4.32,.57,.96,1.15,2.45,1.54,4.15,.06,.23,.07,.45,.12,.69,.89-1.6,1.22-3.6,.74-5.71-.56-2.4-2.03-4.4-3.9-5.59-1.2,1.67-1.68,3.97-1.12,6.37,.49,2.11,1.7,3.87,3.25,5.08-.06-.23-.14-.43-.2-.67Z"/>
      <path class="cls-9" d="M172.31,30.4c1.47-.95,2.89-1.6,3.93-1.86-.71,.85-1.92,1.9-3.4,2.84-.2,.13-.4,.22-.61,.34,1.8,.3,3.8-.05,5.63-1.22,2.08-1.33,3.46-3.39,3.96-5.55-1.97-.57-4.3-.25-6.38,1.08-1.83,1.17-3.07,2.9-3.7,4.77,.2-.14,.35-.28,.57-.41Z"/>
      <path class="cls-37" d="M203.94,84.05c1.26-1.21,2.54-2.11,3.51-2.56-.54,.97-1.53,2.23-2.8,3.43-.17,.17-.35,.29-.53,.45,1.83-.04,3.72-.77,5.3-2.26,1.79-1.7,2.76-3.98,2.84-6.19-2.04-.19-4.27,.56-6.06,2.27-1.57,1.49-2.47,3.42-2.74,5.38,.17-.17,.29-.34,.48-.51Z"/>
      <path class="cls-9" d="M101.38,117.09c-1.33-5.62-4.33-10.73-8.98-13.91-5.31-3.66-11.49-4.13-16.9-1.9,.91,6.57,4.22,12.62,9.54,16.27,4.67,3.2,9.95,3.82,14.82,2.47-.52-.34-1.01-.54-1.54-.93-3.76-2.57-6.79-5.51-8.53-8.01,2.71,.58,6.39,2.25,10.15,4.84,.54,.37,.93,.77,1.44,1.16Z"/>
      <path class="cls-9" d="M173.8,93.43c4.03-1.95,7.88-3.01,10.65-3.11-2.03,2.16-5.39,4.58-9.42,6.51-.58,.28-1.1,.4-1.66,.66,4.66,2.16,9.97,2.4,14.98,0,5.7-2.74,9.73-8.21,11.43-14.55-5.07-3.1-11.24-3.65-16.94-.9-5.01,2.4-8.62,6.94-10.61,12.27,.55-.29,.99-.61,1.58-.88Z"/>
      <path class="cls-9" d="M139.45,76.86c-3.3,4.98-4.45,11.01-3.87,16.79,.35-.58,.58-1.13,.96-1.69,2.66-4.03,5.54-7.18,7.87-8.88-.81,3.06-2.68,7.1-5.34,11.12-.36,.58-.77,.99-1.14,1.53,4.95-.86,9.65-3.72,12.96-8.69,3.77-5.68,4.89-12.73,3.62-19.22-5.73,.27-11.32,3.37-15.07,9.05Z"/>
      <path class="cls-72" d="M195.58,129.67c-3.25-1.29-6.58-.87-9.41,.72,.35,.12,.67,.17,1.05,.34,2.6,1,4.81,2.34,6.15,3.62-1.72,.05-4.19-.42-6.8-1.44-.37-.15-.68-.34-1.01-.47,1.43,3.26,3.87,5.93,7.1,7.2,3.7,1.45,7.56,.81,10.63-1.41-1.29-3.91-4.04-7.14-7.7-8.57Z"/>
      <path class="cls-72" d="M20.54,133.6c1.34-1.29,3.55-2.62,6.15-3.62,.38-.17,.71-.22,1.06-.34-2.83-1.59-6.17-2.01-9.41-.72-3.67,1.43-6.41,4.67-7.7,8.57,3.07,2.22,6.92,2.86,10.63,1.41,3.22-1.27,5.66-3.94,7.1-7.2-.34,.13-.64,.32-1.01,.47-2.61,1.03-5.08,1.49-6.8,1.44Z"/>
      <path class="cls-9" d="M78.53,69.18c-.37-.54-.77-.94-1.14-1.52-2.65-4.02-4.52-8.06-5.33-11.12,2.33,1.69,5.2,4.85,7.87,8.87,.38,.58,.61,1.13,.96,1.69,.58-5.78-.57-11.8-3.87-16.78-3.75-5.68-9.34-8.79-15.07-9.06-1.27,6.49-.15,13.54,3.62,19.22,3.31,4.98,8.01,7.84,12.96,8.69Z"/>
      <path class="cls-9" d="M85.54,26.47c-.08-.53-.23-.97-.3-1.53-.51-3.9-.44-7.55,.06-10.09,1.11,2.08,2.09,5.43,2.61,9.34,.08,.56,.05,1.05,.1,1.59,2.5-4.04,3.81-8.89,3.16-13.73-.72-5.52-3.72-9.81-7.84-12.06-3.26,4.32-4.96,9.91-4.22,15.44,.65,4.85,3.09,8.63,6.42,11.04Z"/>
      <path class="cls-24" d="M65.5,34.38c-.3-.41-.62-.71-.93-1.15-2.17-3.04-3.74-6.13-4.46-8.48,1.86,1.25,4.18,3.62,6.36,6.66,.31,.44,.51,.86,.8,1.29,.29-4.5-.78-9.15-3.48-12.91-3.07-4.3-7.5-6.56-11.96-6.61-.8,5.07,.27,10.51,3.36,14.82,2.71,3.77,6.44,5.86,10.31,6.38Z"/>
      <path class="cls-9" d="M27.52,97.49c5.01,2.4,10.32,2.16,14.98,0-.56-.26-1.08-.38-1.66-.66-4.04-1.93-7.39-4.36-9.42-6.51,2.77,.1,6.61,1.16,10.65,3.11,.58,.27,1.02,.59,1.57,.88-2-5.33-5.61-9.87-10.62-12.27-5.7-2.74-11.86-2.19-16.93,.9,1.7,6.34,5.73,11.81,11.43,14.55Z"/>
      <g class="cls-75">
        <path class="cls-52" d="M58.07,76.28h0c-7.9-12.03-26.14-9.87-31.02,3.66h0c-4.49,12.43,5.92,25.14,18.99,23.21h0c12.62-1.87,19.04-16.2,12.03-26.86Z"/>
        <path class="cls-40" d="M32.08,115.29h0c-7.9-12.03-26.14-9.87-31.02,3.66h0c-4.49,12.43,5.92,25.14,18.99,23.21h0c12.62-1.87,19.04-16.2,12.03-26.86Z"/>
        <path class="cls-48" d="M73.53,59.67h0c-4.76-7.24-15.74-5.95-18.68,2.2h0c-2.7,7.48,3.56,15.14,11.43,13.97h0c7.6-1.13,11.46-9.75,7.25-16.17Z"/>
        <path class="cls-38" d="M84.05,126.74h0c-5.85-8.9-19.35-7.31-22.97,2.71h0c-3.32,9.2,4.38,18.62,14.06,17.18h0c9.34-1.39,14.1-12,8.91-19.89Z"/>
        <path class="cls-59" d="M45.42,128.92h0c-5.85-8.9-19.35-7.31-22.97,2.71h0c-3.32,9.2,4.38,18.62,14.06,17.18h0c9.34-1.39,14.1-12,8.91-19.89Z"/>
        <path class="cls-47" d="M104.52,126.94h0c-6.68-10.17-22.11-8.35-26.24,3.09h0c-3.79,10.51,5.01,21.27,16.06,19.63h0c10.67-1.58,16.1-13.7,10.18-22.72Z"/>
        <path class="cls-60" d="M198.56,44.82h0c-5.85-8.9-19.35-7.31-22.97,2.71h0c-3.32,9.2,4.38,18.62,14.06,17.18h0c9.34-1.39,14.1-12,8.91-19.89Z"/>
        <path class="cls-41" d="M165.06,27.96h0c-5.29-8.04-17.49-6.61-20.75,2.45h0c-3,8.31,3.96,16.82,12.7,15.52h0c8.44-1.25,12.74-10.84,8.05-17.97Z"/>
        <path class="cls-58" d="M50.45,34.76h0c-5.29-8.04-17.49-6.61-20.75,2.45h0c-3,8.31,3.96,16.82,12.7,15.52h0c8.44-1.25,12.74-10.84,8.05-17.97Z"/>
        <path class="cls-43" d="M89.81,12.58h0c-5.29-8.04-17.49-6.61-20.75,2.45h0c-3,8.31,3.96,16.82,12.7,15.52h0c8.44-1.25,12.74-10.84,8.05-17.97Z"/>
        <path class="cls-64" d="M187.39,33.92h0c-5.29-8.04-17.49-6.61-20.75,2.45h0c-3,8.31,3.96,16.82,12.7,15.52h0c8.44-1.25,12.74-10.84,8.05-17.97Z"/>
        <path class="cls-36" d="M213.34,86.65h0c-5.29-8.04-17.49-6.61-20.75,2.45h0c-3,8.31,3.96,16.82,12.7,15.52h0c8.44-1.25,12.74-10.84,8.05-17.97Z"/>
        <path class="cls-45" d="M24.48,85.81h0c-5.29-8.04-17.49-6.61-20.75,2.45h0c-3,8.31,3.96,16.82,12.7,15.52h0c8.44-1.25,12.74-10.84,8.05-17.97Z"/>
        <path class="cls-44" d="M32.77,55.14h0c-5.29-8.04-17.49-6.61-20.75,2.45h0c-3,8.31,3.96,16.82,12.7,15.52h0c8.44-1.25,12.74-10.84,8.05-17.97Z"/>
        <path class="cls-32" d="M139.45,9.28h0c-5.29-8.04-17.49-6.61-20.75,2.45h0c-3,8.31,3.96,16.82,12.7,15.52h0c8.44-1.25,12.74-10.84,8.05-17.97Z"/>
        <path class="cls-62" d="M173.13,123.58h0c-4.76-7.24-15.74-5.95-18.68,2.2h0c-2.7,7.48,3.56,15.14,11.43,13.97h0c7.6-1.13,11.46-9.75,7.25-16.17Z"/>
        <path class="cls-61" d="M61.49,120.36h0c-4.76-7.24-15.74-5.95-18.68,2.2h0c-2.7,7.48,3.56,15.14,11.43,13.97h0c7.6-1.13,11.46-9.75,7.25-16.17Z"/>
        <path class="cls-65" d="M73.56,35.35h0c-5.52-8.4-18.27-6.9-21.68,2.56h0c-3.14,8.69,4.14,17.57,13.27,16.22h0c8.82-1.31,13.31-11.32,8.41-18.78Z"/>
        <path class="cls-23" d="M151.74,106.87h0c-4.76-7.24-15.74-5.95-18.68,2.2h0c-2.7,7.48,3.56,15.14,11.43,13.97h0c7.6-1.13,11.46-9.75,7.25-16.17Z"/>
        <path class="cls-31" d="M150.18,119.96h0c-5.89-8.97-19.5-7.37-23.14,2.73h0c-3.35,9.27,4.42,18.76,14.17,17.31h0c9.41-1.4,14.2-12.09,8.98-20.04Z"/>
        <path class="cls-51" d="M156.49,48.16h0c-4.76-7.24-15.74-5.95-18.68,2.2h0c-2.7,7.48,3.56,15.14,11.43,13.97h0c7.6-1.13,11.46-9.75,7.25-16.17Z"/>
        <path class="cls-50" d="M123.93,40.9h0c-7.9-12.03-26.14-9.87-31.02,3.66h0c-4.49,12.43,5.92,25.14,18.99,23.21h0c12.62-1.87,19.04-16.2,12.03-26.86Z"/>
        <path class="cls-70" d="M167.2,66.83h0c-7.9-12.03-26.14-9.87-31.02,3.66h0c-4.49,12.43,5.92,25.14,18.99,23.21h0c12.62-1.87,19.04-16.2,12.03-26.86Z"/>
        <path class="cls-53" d="M97.43,96.5h0c-7.9-12.03-26.14-9.87-31.02,3.66h0c-4.49,12.43,5.92,25.14,18.99,23.21h0c12.62-1.87,19.04-16.2,12.03-26.86Z"/>
        <path class="cls-30" d="M153.56,125.46h0c-7.9-12.03-26.14-9.87-31.02,3.66h0c-4.49,12.43,5.92,25.14,18.99,23.21h0c12.62-1.87,19.04-16.2,12.03-26.86Z"/>
      </g>
    </g>
    <g>
      <path class="cls-19" d="M128.34,148.58h1.03c16.29,0,12.47-13.02,12.47-19.49,0,0-1.55,13.4-8.77,13.4h-4.73c-2.77,0-5.2,1.02-7.26,2.46-5.1-1.84-9.33-9.29-9.33-9.29,.78,1.87,1.38,3.81,2.15,5.68,.65,1.6,2.51,3.75,.95,5.33-.6,.6-1.44,.9-2.26,1.11-2.76,.68-5.73,.5-8.38-.51-.54-.21-1.09-.46-1.46-.9-.69-.82-.25-1.66,.17-2.47,.49-.93,.91-1.89,1.29-2.86,.71-1.78,1.28-3.61,2.02-5.38,0,0-4.23,7.45-9.34,9.29-2.07-1.44-4.5-2.46-7.27-2.46h-4.73c-7.22,0-8.77-13.4-8.77-13.4,0,6.47-3.81,19.49,12.47,19.49h1.03c.83,0,1.62,.16,2.34,.44,.14,10.8-.55,40.35-11.41,59.36h11.46s-.02,.07-.03,.1h10.11v-.1h4.5v.1s4.81,0,4.81,0v-.1s4.48,0,4.48,0v.1h9.99s-.02-.07-.03-.1h3.4c.02,.06,.03,.1,.03,.1h7.95c-6.99-12.23-9.77-28.82-10.82-41.97-.32-5.36-.52-11.18-.5-17.44,.75-.32,1.58-.5,2.46-.5Z"/>
      <g>
        <path class="cls-79" d="M84.93,208.38h47.95s-7.59-23.68-6.97-63.39h-31.41s-.19,37.63-9.57,63.39Z"/>
        <path class="cls-80" d="M91.84,144.89s2.2,39.88-11.29,63.49h7.95s7.41-26.74,6.05-58.54c0,0,1.16-4.04-2.71-4.96Z"/>
        <path class="cls-80" d="M125.91,144.99s-2.2,39.88,11.29,63.49h-7.95s-7.41-26.74-6.05-58.54c0,0-1.16-4.04,2.71-4.96Z"/>
        <polygon class="cls-81" points="109.19 145.02 111.39 208.48 106.58 208.48 109.19 145.02"/>
        <g>
          <path class="cls-82" d="M88.59,148.58c-16.28,0-12.47-13.02-12.47-19.49,0,0,1.55,13.4,8.77,13.4h4.73c2.77,0,5.2,1.02,7.27,2.46,5.11-1.83,9.34-9.29,9.34-9.29-1.44,3.44-2.76,9.05-6.31,12.35,1.25,1.83,2.17,3.88,2.17,6.21v54.26h-6.46v-54.26c0-3.12-2.69-5.65-6.01-5.65h-1.03Zm40.78,0h-1.03c-3.3,0-6.01,2.53-6.01,5.65v54.26h-6.46v-54.26c0-2.34,.91-4.39,2.17-6.22-3.54-3.29-4.85-8.91-6.3-12.34,0,0,4.23,7.44,9.33,9.29,2.06-1.44,4.49-2.46,7.26-2.46h4.73c7.22,0,8.77-13.4,8.77-13.4,0,6.47,3.82,19.49-12.47,19.49Z"/>
          <path class="cls-82" d="M95.77,170.69s-1.36,29.42-3.8,37.79h3.65l.15-37.79Z"/>
          <path class="cls-82" d="M122.21,208.48l-.15-37.79s1.36,29.42,3.8,37.79"/>
        </g>
      </g>
    </g>
  </g>
</svg>