<?xml version="1.0" encoding="UTF-8"?>
<svg id="_圖層_2" data-name="圖層 2" xmlns="http://www.w3.org/2000/svg" viewBox="0 0 65.58 86.93">
  <defs>
    <style>
      .cls-1 {
        fill: #768672;
      }
    </style>
  </defs>
  <g id="BG">
    <g>
      <path class="cls-1" d="M4.18,27.82c-.21-.05-.42,.1-.42,.32-.11,4.23,1.15,8.53,3.9,12.17,2.75,3.64,6.54,6.03,10.64,7.08,.21,.05,.42-.1,.42-.32,.11-4.23-1.15-8.53-3.9-12.17-2.75-3.64-6.54-6.03-10.64-7.08Z"/>
      <path class="cls-1" d="M.25,48.95c-.21,.06-.31,.3-.21,.49,2.01,3.73,5.25,6.82,9.44,8.61,4.2,1.79,8.67,1.98,12.75,.84,.21-.06,.31-.3,.21-.49-2.01-3.73-5.25-6.82-9.44-8.61-4.2-1.79-8.67-1.98-12.75-.84Z"/>
      <path class="cls-1" d="M39.64,44.53c-.02-.21-.24-.36-.44-.29-3.82,1.23-7.26,3.72-9.66,7.32-2.39,3.6-3.34,7.74-3,11.74,.02,.21,.24,.36,.44,.29,3.82-1.23,7.26-3.72,9.66-7.32,2.39-3.6,3.34-7.74,3-11.74Z"/>
      <path class="cls-1" d="M40.14,22.01c.08-.2-.05-.42-.26-.46-3.97-.61-8.16,.08-11.91,2.23-3.75,2.15-6.45,5.43-7.93,9.16-.08,.2,.05,.42,.26,.46,3.97,.61,8.16-.08,11.91-2.23,3.75-2.15,6.45-5.43,7.93-9.16Z"/>
      <path class="cls-1" d="M33.65,0c-3.52,1.63-6.51,4.46-8.3,8.25-1.79,3.78-2.07,7.89-1.09,11.65,3.52-1.63,6.51-4.46,8.3-8.25,1.79-3.78,2.07-7.89,1.09-11.65Z"/>
      <path class="cls-1" d="M27.93,43.8c0,2-1.62,3.61-3.61,3.61s-3.61-1.62-3.61-3.61,1.62-3.61,3.61-3.61,3.61,1.62,3.61,3.61Z"/>
      <path class="cls-1" d="M20.1,24.67c0,2-1.62,3.61-3.61,3.61s-3.61-1.62-3.61-3.61,1.62-3.61,3.61-3.61,3.61,1.62,3.61,3.61Z"/>
      <path class="cls-1" d="M23.71,65.45c0,2-1.62,3.61-3.61,3.61s-3.61-1.62-3.61-3.61,1.62-3.61,3.61-3.61,3.61,1.62,3.61,3.61Z"/>
      <path class="cls-1" d="M63.45,86.87s-.09-.03-.27-.07c-.17-.05-.43-.12-.76-.22-.66-.2-1.61-.5-2.81-.91-2.39-.83-5.77-2.1-9.69-3.94-1.96-.93-4.05-1.99-6.2-3.22-2.15-1.23-4.38-2.61-6.58-4.2-1.11-.78-2.2-1.63-3.28-2.5-1.07-.89-2.15-1.81-3.18-2.8-2.08-1.95-4.01-4.14-5.72-6.48l-.62-.89-.31-.45-.29-.46-.58-.92-.54-.94-.27-.47-.25-.48-.5-.96-.45-.98c-.15-.32-.3-.65-.43-.98-1.09-2.64-1.84-5.37-2.2-8.05-.37-2.68-.4-5.31-.19-7.77,.21-2.46,.65-4.75,1.18-6.83,.3-1.03,.55-2.03,.88-2.94,.16-.46,.31-.91,.46-1.35,.17-.43,.33-.85,.48-1.25,.3-.82,.64-1.56,.93-2.24,.29-.69,.59-1.31,.86-1.87,.53-1.13,1-1.99,1.31-2.57,.31-.59,.48-.9,.48-.9,0,0-.15,.32-.45,.92-.29,.6-.73,1.47-1.21,2.62-.25,.57-.53,1.2-.79,1.9-.27,.7-.58,1.45-.85,2.27-.14,.41-.29,.83-.43,1.26-.13,.44-.27,.89-.4,1.35-.29,.92-.51,1.92-.77,2.94-.45,2.07-.8,4.34-.91,6.76-.12,2.41,0,4.97,.46,7.55,.44,2.58,1.27,5.18,2.4,7.67,.13,.32,.28,.62,.44,.93l.47,.92,.51,.9,.25,.45,.28,.44,.55,.88,.59,.86,.29,.43,.31,.42,.63,.83c1.73,2.18,3.65,4.21,5.72,6.01,1.02,.92,2.09,1.76,3.16,2.58,1.08,.8,2.16,1.58,3.26,2.3,2.18,1.45,4.39,2.71,6.52,3.82,2.13,1.11,4.2,2.07,6.13,2.89,3.86,1.65,7.19,2.76,9.52,3.47,1.17,.36,2.09,.61,2.72,.77,.31,.08,.55,.14,.71,.18,.15,.04,.23,.06,.23,.06h.02c.9,.22,1.46,1.13,1.25,2.03-.21,.9-1.12,1.46-2.03,1.25-.02,0-.04-.01-.06-.02Z"/>
    </g>
  </g>
</svg>