<?xml version="1.0" encoding="UTF-8"?>
<svg id="_圖層_2" data-name="圖層 2" xmlns="http://www.w3.org/2000/svg" viewBox="0 0 30.66 14.54">
  <defs>
    <style>
      .cls-1 {
        fill: #b7c497;
      }
    </style>
  </defs>
  <g id="_圖層_2-2" data-name="圖層 2">
    <g>
      <path class="cls-1" d="M.98,14.21s-.04,0-.06-.02c-.02-.02-.04-.04-.04-.07-.02-.17-.03-.34-.03-.51V2.8c-.01-.43-.06-.83-.13-1.17-.12-.59-.42-.59-.52-.59,0,0-.01,0-.02,0-.03,0-.08,0-.1-.02-.02-.02-.08-.04-.08-.07v-.19s.02-.08,.06-.09c.51-.22,1.02-.34,1.52-.34,.04,0,.08,.02,.09,.06L5.71,9.44c.19,.42,.34,.8,.46,1.14,.05,.14,.09,.28,.14,.45V2.08c0-.41-.08-.7-.25-.86-.13-.13-.32-.19-.57-.19-.07,0-.15,0-.23,.01,0,0,0,0-.01,0-.05,0-.09-.04-.1-.09l-.03-.19s.02-.09,.06-.11c.47-.2,1.01-.32,1.59-.34,0,0,0,0,0,0,.04,0,.08,.03,.09,.06,.06,.17,.1,.35,.1,.53V14.06c0,.06-.04,.1-.1,.1h-.22s-.08-.02-.09-.06c-.24-.58-.94-2.14-2.09-4.68-1.15-2.55-1.98-4.39-2.47-5.53-.15-.35-.31-.75-.45-1.19V12.85c0,.22,.03,.38,.11,.5,.08,.11,.16,.19,.25,.23,.1,.05,.25,.1,.43,.15,.19,.06,.3,.09,.33,.11,.04,.01,.06,.05,.06,.09v.19s-.01,.06-.03,.07c-.02,.02-.04,.03-.07,.03,0,0,0,0-.01,0-.33-.04-.64-.06-.9-.06s-.5,.02-.69,.05c0,0-.01,0-.02,0Z"/>
      <path class="cls-1" d="M9.85,14.16s-.08-.03-.1-.07c-.07-.27-.1-.58-.1-.95V3.15c0-.41-.01-.75-.03-1.01-.02-.25-.06-.46-.11-.61-.05-.14-.12-.23-.2-.28-.09-.05-.2-.08-.34-.08,0,0-.02,0-.04,0-.04,0-.09,0-.11-.02-.02-.02-.11-.04-.11-.07l-.02-.27s.03-.09,.07-.1c1.02-.28,2.17-.43,3.4-.43,.63,0,1.29,.04,1.98,.11,.04,0,.08,.04,.09,.08l.04,.16-.51,2.39s-.03,.06-.06,.07c-.01,0-.03,0-.04,0-.02,0-.03,0-.05-.01l-.17-.09s-.06-.06-.05-.1c.03-.24,.05-.45,.06-.65,.01-.2,.02-.39,.02-.58,0-.16,0-.31-.03-.45-.24-.04-.48-.07-.71-.09-.26-.02-.51-.03-.77-.03-.43,0-.86,.03-1.28,.1V6.29s2.83-.27,2.84-.27c.04,0,.07,.02,.09,.05l.05,.1-.25,.85s-.05,.07-.1,.07c0,0-.33-.02-.49-.03-.16,0-.33,0-.5,0-.28,0-.56,0-.85,.03-.26,.02-.53,.04-.8,.07v6.23l1.79-.1c.25-.01,.45-.06,.62-.15,.17-.09,.31-.21,.43-.37,.12-.16,.23-.37,.33-.61,.1-.25,.19-.54,.29-.87,0-.03,.03-.06,.06-.07,.01,0,.02,0,.03,0,.02,0,.04,0,.06,.02l.16,.11s.05,.06,.04,.1l-.53,2.51-.1,.17s-.05,.05-.08,.05h-3.91Z"/>
      <path class="cls-1" d="M18.48,14.35s-.03,0-.05-.01l-.37-.19L15.99,2.6c-.07-.41-.16-.71-.27-.9-.09-.16-.19-.24-.28-.24-.12,0-.23,0-.33,.02-.11,.02-.17,.02-.19,.02-.04,0-.08-.03-.1-.07l-.05-.19s0-.08,.03-.1c.62-.54,1.18-.81,1.68-.81,.05,0,.09,.03,.1,.08l1.65,9.39c.09,.56,.16,1.08,.19,1.56L20.43,.47s.05-.08,.1-.08c0,0,0,0,.01,0,.23,.03,.39,.12,.48,.26l1.79,9.85c.07,.4,.12,.76,.15,1.07l1.68-10.08c.02-.19-.03-.33-.14-.4-.07-.05-.19-.08-.33-.08-.08,0-.18,0-.28,.02,0,0-.01,0-.02,0-.05,0-.09-.03-.1-.08l-.03-.17s.01-.09,.05-.11c.47-.24,.97-.36,1.47-.36,.04,0,.14,.09,.15,.13,.02,.05,.02,.11,.01,.17-.29,1.78-1.11,6.37-2.44,13.63,0,.03-.03,.06-.05,.07-.01,0-.03,.01-.04,.01s-.03,0-.04-.01l-.38-.19-1.96-10.69-1.94,10.81s-.03,.06-.05,.07c-.01,0-.03,.01-.04,.01Z"/>
      <path class="cls-1" d="M28.08,14.54c-.62,0-1.27-.22-1.91-.66-.03-.02-.05-.06-.04-.09,.11-1.01,.29-1.96,.53-2.84,0-.03,.04-.06,.07-.07,0,0,.02,0,.03,0,.03,0,.05,.01,.07,.03l.14,.14c-.01,.43-.03,.86-.03,1.36,0,.61,.03,.83,.05,.91,.34,.29,.71,.45,1.07,.45,.21,0,.41-.06,.6-.17,.18-.11,.35-.29,.48-.52,.14-.23,.25-.53,.33-.88,.08-.35,.12-.77,.12-1.23,0-.35-.02-.66-.06-.92-.04-.26-.12-.51-.24-.75-.12-.24-.28-.51-.5-.8-.22-.29-.5-.63-.85-1.03-.57-.65-.99-1.28-1.26-1.89-.26-.61-.4-1.23-.4-1.85s.07-1.15,.22-1.61c.15-.47,.34-.86,.58-1.17,.24-.31,.52-.55,.83-.71,.31-.16,.63-.24,.95-.24,.57,0,1.09,.23,1.54,.69-.07,1.05-.25,2.01-.5,2.93,0,.03-.04,.06-.07,.07,0,0-.02,0-.03,0-.02,0-.05,0-.07-.03l-.15-.13c-.01-.32,0-.55,.02-.76,.01-.21,.02-.42,.02-.61s0-.36-.02-.52c-.01-.16-.02-.31-.04-.45-.24-.22-.52-.35-.82-.35-.19,0-.37,.05-.54,.15-.17,.1-.33,.25-.46,.45-.14,.2-.25,.46-.33,.76-.08,.3-.12,.65-.12,1.04,0,.27,.03,.53,.08,.77,.05,.23,.14,.47,.26,.71,.12,.24,.27,.49,.44,.75,.18,.26,.39,.55,.64,.87,.15,.19,.28,.36,.41,.51,.13,.15,.25,.3,.36,.44,.11,.14,.22,.28,.31,.41,.1,.14,.19,.28,.27,.43,.4,.74,.61,1.62,.61,2.6,0,.66-.07,1.23-.2,1.71-.13,.48-.32,.88-.55,1.19-.23,.31-.51,.55-.83,.69-.31,.15-.65,.22-1,.22Z"/>
    </g>
  </g>
</svg>