<?xml version="1.0" encoding="UTF-8"?>
<svg id="_圖層_2" data-name="圖層 2" xmlns="http://www.w3.org/2000/svg" viewBox="0 0 229.91 66.4">
  <defs>
    <style>
      .cls-1 {
        fill: #b8c598;
      }
    </style>
  </defs>
  <g id="_圖層_2-2" data-name="圖層 2">
    <g>
      <path class="cls-1" d="M17.51,66.4c-2.53,0-4.9-.81-7.05-2.41-2.13-1.58-4-3.85-5.54-6.74-1.54-2.87-2.75-6.39-3.62-10.46-.86-4.06-1.3-8.63-1.3-13.58s.48-9.7,1.44-13.76c.95-4.07,2.29-7.58,3.98-10.44,1.69-2.87,3.72-5.11,6.02-6.66,2.32-1.55,4.86-2.34,7.56-2.34,3.42,0,6.72,1.49,9.83,4.44,.07,.06,.1,.16,.09,.25-.52,4.61-1.34,8.95-2.43,12.91-.03,.1-.11,.18-.21,.21-.03,0-.05,.01-.08,.01-.08,0-.15-.03-.21-.08l-.63-.6c-.07-.06-.1-.15-.09-.25,.19-2.06,.29-4.13,.29-6.17,0-1.72-.07-2.97-.22-3.73-2.53-2.2-5.06-3.32-7.54-3.32-1.98,0-3.78,.56-5.37,1.68-1.59,1.12-2.98,2.91-4.11,5.33-1.15,2.44-2.04,5.6-2.65,9.4-.61,3.81-.92,8.45-.92,13.8,0,2.71,.16,5.34,.46,7.82,.31,2.48,.75,4.83,1.32,6.99,.57,2.15,1.28,4.13,2.11,5.89,.82,1.75,1.77,3.27,2.8,4.51,1.03,1.23,2.17,2.2,3.39,2.88,1.21,.67,2.51,1.01,3.87,1.01,1,0,1.92-.08,2.74-.25,.8-.16,1.57-.46,2.29-.88,.72-.42,1.45-1.02,2.15-1.78,.72-.77,1.5-1.77,2.31-2.98,.06-.08,.15-.13,.25-.13,0,0,.01,0,.02,0,.11,0,.2,.07,.25,.17l1,2.01c.05,.1,.04,.23-.03,.32-.96,1.26-1.91,2.33-2.81,3.2-.91,.87-1.85,1.59-2.8,2.16-.96,.57-1.98,.98-3.05,1.23-1.06,.25-2.24,.37-3.51,.37Z"/>
      <path class="cls-1" d="M50.12,66.4c-2.46,0-4.78-.77-6.89-2.3-2.09-1.52-3.94-3.7-5.47-6.49-1.53-2.77-2.74-6.32-3.61-10.53-.86-4.2-1.3-8.93-1.3-14.05,0-4.53,.47-8.88,1.39-12.93,.92-4.05,2.17-7.56,3.71-10.44,1.55-2.88,3.41-5.21,5.53-6.91,2.14-1.72,4.43-2.59,6.78-2.59,5.54,0,9.85,3.09,12.82,9.18,2.94,6.02,4.42,14.46,4.42,25.08,0,4.5-.46,8.79-1.37,12.76-.91,3.97-2.17,7.39-3.72,10.16-1.56,2.79-3.42,5.01-5.54,6.61-2.14,1.61-4.41,2.43-6.76,2.43Zm-.42-63.02c-1.91,0-3.66,.78-5.2,2.33-1.56,1.57-2.86,3.73-3.85,6.41-1,2.7-1.77,5.84-2.3,9.32-.53,3.49-.8,7.24-.8,11.17,0,4.15,.26,8.01,.77,11.47,.51,3.45,1.2,6.4,2.05,8.76,.85,2.36,1.86,4.38,3,6,1.13,1.61,2.34,2.8,3.58,3.52,1.23,.72,2.53,1.09,3.85,1.09,1.91,0,3.65-.75,5.17-2.22,1.55-1.5,2.83-3.58,3.8-6.19,.98-2.63,1.74-5.69,2.26-9.1,.52-3.41,.78-7.14,.78-11.06,0-5.11-.37-9.78-1.11-13.88-.73-4.08-1.73-7.43-2.96-9.94-1.23-2.5-2.64-4.43-4.18-5.73-1.52-1.29-3.16-1.94-4.85-1.94Z"/>
      <path class="cls-1" d="M82.82,64.9c-1.52-.17-2.91-.25-4.12-.25s-2.28,.08-3.19,.25c-.02,0-.04,0-.05,0-.06,0-.13-.02-.18-.06-.07-.05-.11-.12-.12-.2-.1-.78-.15-1.55-.15-2.3V13.16c-.05-1.98-.25-3.79-.6-5.36-.4-1.88-1.22-2.79-2.5-2.79-.13,0-.27,0-.42,.03-.01,0-.03,0-.04,0-.07,0-.14-.03-.2-.07-.07-.06-.1-.14-.1-.23v-.85c0-.12,.07-.23,.18-.27,2.31-1.01,4.61-1.52,6.83-1.52,.12,0,.23,.07,.27,.18l18.38,41.14c.86,1.9,1.56,3.65,2.07,5.17,.31,.92,.62,1.98,.92,3.18V9.91c0-1.9-.4-3.26-1.19-4.04-.61-.6-1.52-.91-2.71-.91-.33,0-.69,.02-1.06,.07-.01,0-.02,0-.04,0-.15,0-.28-.11-.3-.26l-.12-.85c-.02-.13,.05-.26,.18-.32,2.14-.92,4.55-1.43,7.16-1.52,0,0,0,0,0,0,.12,0,.24,.08,.28,.2,.29,.77,.43,1.57,.43,2.37v59.69c0,.17-.13,.3-.3,.3h-1c-.12,0-.23-.07-.28-.18-1.1-2.61-4.3-9.77-9.52-21.29-5.22-11.54-9-20-11.23-25.15-.82-1.86-1.62-4.02-2.38-6.42V58.83c0,1.02,.18,1.81,.55,2.35,.36,.55,.77,.92,1.19,1.11,.47,.21,1.13,.44,1.95,.69,.86,.26,1.36,.42,1.51,.48,.12,.04,.19,.16,.19,.28v.85c0,.09-.04,.17-.1,.22-.06,.05-.13,.08-.2,.08-.01,0-.02,0-.03,0Z"/>
      <path class="cls-1" d="M118.51,65.33c-.12,0-.24-.08-.28-.2l-.15-.43c-.02-.07-.02-.14,0-.21,.31-.79,.47-2.27,.47-4.42V5.05c-1.15,.03-2.5,.1-4.03,.21-1.58,.11-3.41,.27-5.43,.49-.08,.86-.12,1.77-.12,2.72,0,1.49,.11,3.21,.34,5.09,.01,.12-.05,.24-.16,.3l-.81,.43s-.09,.03-.14,.03c-.04,0-.09,0-.13-.03-.08-.04-.15-.12-.17-.21l-2.29-10.38s0-.1,0-.15l.29-.98c.03-.11,.13-.19,.24-.21,2.38-.37,4.71-.64,6.93-.79,2.23-.16,4.46-.24,6.64-.24s4.57,.09,7.13,.28c2.55,.18,5.37,.47,8.39,.83,.12,.01,.21,.09,.25,.2l.29,.9c.02,.05,.02,.11,0,.16l-2.29,10.38c-.02,.09-.08,.17-.17,.21-.04,.02-.08,.03-.13,.03-.05,0-.1-.01-.14-.03l-.81-.43c-.11-.06-.17-.18-.16-.3,.11-.99,.2-1.92,.25-2.78,.06-.86,.08-1.68,.08-2.44,0-.94-.04-1.81-.12-2.59-1.96-.21-3.75-.38-5.33-.49-1.52-.1-2.89-.17-4.09-.21V56.65c0,1.15,.06,2.14,.18,2.95,.12,.79,.32,1.46,.59,2,.27,.53,.63,.96,1.08,1.28,.46,.33,1.05,.61,1.77,.83,.15,.04,.24,.19,.21,.34l-.2,1.03c-.02,.08-.06,.15-.13,.2-.05,.03-.11,.05-.16,.05-.02,0-.05,0-.07,0-.97-.23-1.81-.4-2.52-.51-.7-.11-1.29-.17-1.76-.17-.44,0-.93,.06-1.47,.16-.55,.11-1.16,.28-1.83,.5-.03,.01-.06,.02-.1,.02Z"/>
      <path class="cls-1" d="M161.71,65.41c-.11,0-.22-.07-.27-.18l-.2-.43c-.04-.08-.04-.17,0-.25,.3-.69,.37-1.89,.21-3.57-.17-1.72-.67-4.36-1.5-7.86l-3.98-17.46c-1.89-.05-3.68-.08-5.3-.08-2.28,0-4.32,.05-6.08,.16l-5.59,22.73c-.32,1.22-.21,2.25,.34,3.05,.55,.82,1.68,1.53,3.35,2.11,.13,.05,.22,.18,.2,.32l-.1,.77c-.01,.08-.05,.15-.11,.2-.05,.04-.12,.06-.18,.06-.01,0-.03,0-.04,0-2.03-.26-3.8-.4-5.29-.4-.57,0-1.1,.02-1.59,.06,0,0-.02,0-.02,0-.11,0-.21-.06-.26-.15-.11-.2-.22-.5-.35-.92-.01-.05-.02-.11,0-.16l14.92-58.36s.04-.09,.07-.13c.53-.57,1.15-1.69,1.85-3.33,.05-.11,.16-.18,.28-.18h.24c.14,0,.26,.1,.29,.23l13.45,56.7c.58,2.44,1.77,4.17,3.54,5.15,.1,.05,.15,.15,.15,.26v.77c0,.09-.04,.17-.11,.23-.05,.04-.12,.07-.19,.07-.02,0-.04,0-.06,0-.62-.12-1.34-.18-2.12-.18-.5,0-1.05,.02-1.61,.07-1.46,.13-2.76,.36-3.87,.69-.03,0-.06,.01-.09,.01Zm-16.32-32.75c1.11,.05,2.46,.07,4.04,.07,1.66,0,3.61-.03,5.8-.08l-4.74-20.71-5.1,20.72Z"/>
      <path class="cls-1" d="M187.12,66.4c-2.53,0-4.9-.81-7.05-2.41-2.13-1.58-4-3.85-5.54-6.74-1.54-2.87-2.75-6.39-3.62-10.46-.86-4.06-1.3-8.63-1.3-13.58s.48-9.7,1.44-13.76c.95-4.07,2.29-7.58,3.98-10.44,1.69-2.87,3.72-5.11,6.02-6.66,2.32-1.55,4.86-2.34,7.56-2.34,3.42,0,6.72,1.49,9.83,4.44,.07,.06,.1,.16,.09,.25-.52,4.61-1.34,8.95-2.43,12.91-.03,.1-.11,.18-.21,.21-.03,0-.05,.01-.08,.01-.08,0-.15-.03-.21-.08l-.63-.6c-.07-.06-.1-.15-.09-.25,.19-2.06,.29-4.13,.29-6.17,0-1.72-.07-2.97-.22-3.73-2.53-2.2-5.06-3.32-7.54-3.32-1.98,0-3.78,.56-5.37,1.68-1.59,1.12-2.98,2.91-4.11,5.33-1.15,2.44-2.04,5.6-2.65,9.4-.61,3.81-.92,8.45-.92,13.8,0,2.71,.16,5.34,.46,7.82,.31,2.48,.75,4.83,1.32,6.99,.57,2.15,1.28,4.13,2.11,5.89,.82,1.75,1.77,3.27,2.8,4.51,1.03,1.23,2.17,2.2,3.39,2.88,1.21,.67,2.51,1.01,3.87,1.01,1,0,1.92-.08,2.74-.25,.8-.16,1.57-.46,2.29-.88,.72-.42,1.45-1.02,2.15-1.78,.72-.77,1.5-1.77,2.31-2.98,.06-.08,.15-.13,.25-.13,0,0,.01,0,.02,0,.11,0,.2,.07,.25,.17l1,2.01c.05,.1,.04,.23-.03,.32-.96,1.26-1.91,2.33-2.81,3.2-.91,.87-1.85,1.59-2.8,2.16-.96,.57-1.98,.98-3.05,1.23-1.06,.25-2.24,.37-3.51,.37Z"/>
      <path class="cls-1" d="M212.62,65.33c-.12,0-.24-.08-.28-.2l-.15-.43c-.02-.07-.02-.14,0-.21,.31-.79,.47-2.27,.47-4.42V5.05c-1.15,.03-2.5,.1-4.03,.21-1.58,.11-3.41,.27-5.43,.49-.08,.86-.12,1.77-.12,2.72,0,1.49,.11,3.21,.34,5.09,.01,.12-.05,.24-.16,.3l-.81,.43s-.09,.03-.14,.03c-.04,0-.09,0-.13-.03-.08-.04-.15-.12-.17-.21l-2.29-10.38s0-.1,0-.15l.29-.98c.03-.11,.13-.19,.24-.21,2.38-.37,4.71-.64,6.93-.79,2.23-.16,4.46-.24,6.64-.24s4.57,.09,7.13,.28c2.55,.18,5.37,.47,8.39,.83,.12,.01,.21,.09,.25,.2l.29,.9c.02,.05,.02,.11,0,.16l-2.29,10.38c-.02,.09-.08,.17-.17,.21-.04,.02-.08,.03-.13,.03-.05,0-.1-.01-.14-.03l-.81-.43c-.11-.06-.17-.18-.16-.3,.11-.99,.2-1.92,.25-2.78,.06-.86,.08-1.68,.08-2.44,0-.94-.04-1.81-.12-2.59-1.96-.21-3.75-.38-5.33-.49-1.52-.1-2.89-.17-4.09-.21V56.65c0,1.15,.06,2.14,.18,2.95,.12,.79,.32,1.46,.59,2,.27,.53,.63,.96,1.08,1.28,.46,.33,1.05,.61,1.77,.83,.15,.04,.24,.19,.21,.34l-.2,1.03c-.02,.08-.06,.15-.13,.2-.05,.03-.11,.05-.16,.05-.02,0-.05,0-.07,0-.97-.23-1.81-.4-2.52-.51-.7-.11-1.29-.17-1.76-.17-.44,0-.93,.06-1.47,.16-.55,.11-1.16,.28-1.83,.5-.03,.01-.06,.02-.1,.02Z"/>
    </g>
  </g>
</svg>