<?xml version="1.0" encoding="UTF-8"?>
<svg id="_圖層_2" data-name="圖層 2" xmlns="http://www.w3.org/2000/svg" viewBox="0 0 27.45 14.71">
  <defs>
    <style>
      .cls-1 {
        fill: #b7c497;
      }
    </style>
  </defs>
  <g id="_圖層_5" data-name="圖層 5">
    <g id="refer">
      <g>
        <path class="cls-1" d="M3.89,14.69c-.56,0-1.09-.18-1.57-.54-.47-.35-.89-.85-1.23-1.49-.34-.64-.61-1.41-.8-2.31-.19-.89-.29-1.9-.29-3s.11-2.14,.32-3.04c.21-.9,.51-1.68,.88-2.31,.37-.64,.82-1.13,1.34-1.48,.52-.34,1.08-.52,1.68-.52,.76,0,1.5,.33,2.19,.99-.08,1.1-.26,2.06-.5,2.93,0,.03-.04,.06-.07,.07h-.03s-.05,0-.07-.03l-.14-.13c.01-.54,.03-.99,.03-1.44,0-.39-.02-.67-.05-.83-.52-.43-1.08-.68-1.62-.68-.43,0-.82,.12-1.16,.36-.35,.24-.65,.63-.89,1.16-.25,.53-.45,1.23-.58,2.06-.13,.84-.2,1.85-.2,3.03,0,.6,.03,1.17,.1,1.72,.07,.54,.16,1.06,.29,1.53,.12,.47,.28,.91,.46,1.29,.18,.38,.39,.71,.61,.98,.22,.27,.47,.48,.74,.63,.26,.14,.54,.22,.84,.22,.22,0,.42-.02,.59-.05,.17-.04,.34-.1,.49-.19,.16-.09,.31-.22,.47-.39s.33-.39,.51-.65c.02-.03,.05-.04,.08-.04h0s.07,.02,.08,.06l.22,.44s.01,.08-.01,.11c-.21,.28-.42,.52-.62,.71-.2,.19-.41,.35-.62,.48-.21,.13-.44,.22-.68,.27s-.5,.08-.78,.08h0Z"/>
        <path class="cls-1" d="M13.26,14.47s-.07-.02-.09-.06l-.04-.09c.06-.23,.08-.49,.04-.85-.04-.38-.15-.96-.33-1.73l-.87-3.82c-.41-.01-.79-.02-1.14-.02-.49,0-.93,.01-1.31,.03l-1.22,4.98c-.07,.26-.05,.47,.07,.64,.12,.18,.36,.33,.72,.45,.04,.02,.07,.06,.07,.11l-.02,.17s-.02,.05-.04,.07c-.02,.01-.04,.02-.06,.02h-.01c-.44-.06-.83-.09-1.16-.09-.12,0-.24,0-.35,.01h0s-.07-.02-.09-.05c-.03-.05-.05-.11-.08-.21L10.62,1.15c.14-.17,.27-.41,.42-.77,.02-.04,.05-.06,.09-.06,.05,0,.14,.03,.15,.08l2.96,12.47c.12,.53,.38,.9,.76,1.11,.03,.02,.05,.05,.05,.09v.17s-.01,.06-.04,.08c-.02,.02-.04,.02-.06,.02h-.02c-.14-.03-.29-.04-.46-.04-.11,0-.23,0-.35,.02-.32,.03-.6,.08-.84,.15h-.02Zm-3.55-7.27c.24,0,.52,.01,.85,.01,.36,0,.77,0,1.23-.02l-1-4.38-1.08,4.38h0Z"/>
        <path class="cls-1" d="M17.65,14.69c-.62,0-1.27-.22-1.91-.66-.03-.02-.05-.06-.04-.09,.11-1.01,.29-1.97,.53-2.84,0-.03,.04-.06,.07-.07h.03s.05,.01,.07,.03l.15,.14c-.01,.43-.03,.86-.03,1.36,0,.62,.03,.84,.05,.91,.34,.29,.71,.46,1.07,.46,.21,0,.41-.06,.59-.17s.35-.29,.48-.52c.14-.23,.25-.53,.33-.88s.12-.77,.12-1.23c0-.35-.02-.66-.06-.92-.04-.26-.12-.51-.24-.75-.12-.25-.29-.51-.5-.8-.22-.29-.5-.63-.85-1.03-.57-.65-.99-1.29-1.25-1.89s-.4-1.23-.4-1.85,.07-1.15,.22-1.61,.34-.86,.58-1.17c.24-.31,.52-.55,.83-.71,.31-.16,.63-.24,.95-.24,.57,0,1.09,.23,1.54,.69-.07,1.05-.25,2.01-.5,2.93,0,.03-.04,.06-.07,.07h-.03s-.05,0-.07-.03l-.15-.13c-.01-.32,0-.55,.02-.76,.01-.21,.02-.42,.02-.6s0-.36-.02-.52-.02-.31-.04-.45c-.24-.22-.52-.35-.82-.35-.19,0-.37,.05-.54,.15s-.33,.25-.46,.45c-.14,.2-.25,.46-.33,.76s-.13,.65-.13,1.04c0,.27,.03,.53,.08,.77,.06,.24,.14,.48,.26,.71,.12,.24,.27,.49,.44,.75,.18,.26,.39,.55,.64,.87,.15,.19,.28,.36,.41,.51,.13,.15,.25,.3,.36,.44s.22,.28,.31,.41c.1,.14,.19,.28,.27,.43,.4,.75,.61,1.62,.61,2.6,0,.66-.07,1.23-.2,1.71-.13,.48-.32,.88-.55,1.19-.23,.31-.51,.55-.83,.69-.31,.15-.65,.22-1,.22v-.02Z"/>
        <path class="cls-1" d="M22.83,14.3s-.09-.03-.1-.07c-.07-.26-.11-.58-.11-.95V3.29c0-.41-.01-.75-.03-1.01s-.06-.46-.11-.61c-.05-.14-.12-.23-.2-.28-.09-.05-.2-.08-.34-.08h-.04s-.09,0-.11-.02-.11-.04-.11-.07l-.02-.27s.03-.09,.07-.1c1.02-.28,2.17-.43,3.4-.43,.63,0,1.29,.04,1.98,.11,.04,0,.08,.04,.09,.08l.04,.16-.51,2.38s-.03,.06-.06,.07h-.04s-.03,0-.05,0l-.17-.09s-.06-.06-.05-.1c.03-.24,.05-.45,.06-.65,.01-.2,.02-.39,.02-.58,0-.16-.01-.31-.03-.45-.24-.04-.48-.07-.71-.09-.26-.02-.51-.03-.77-.03-.43,0-.86,.03-1.28,.1V6.43s2.83-.27,2.84-.27c.04,0,.07,.02,.09,.05l.05,.1-.25,.85s-.05,.07-.1,.07h0c-.16-.01-.32-.02-.48-.03h-.5c-.28,0-.56,0-.85,.03-.26,.02-.53,.04-.8,.07v6.23l1.79-.1c.25-.01,.45-.06,.62-.15s.31-.21,.43-.37,.23-.37,.32-.61c.1-.25,.19-.54,.29-.87,0-.03,.03-.06,.06-.07h.03s.04,0,.06,.02l.16,.11s.05,.06,.04,.1l-.53,2.51-.1,.17s-.05,.05-.08,.05h-3.9v-.02Z"/>
      </g>
    </g>
  </g>
</svg>