<?xml version="1.0" encoding="UTF-8"?>
<svg id="_圖層_2" data-name="圖層 2" xmlns="http://www.w3.org/2000/svg" xmlns:xlink="http://www.w3.org/1999/xlink" viewBox="0 0 199.04 174.21">
  <defs>
    <style>
      .cls-1 {
        fill: url(#_未命名漸層_49-5);
      }

      .cls-1, .cls-2, .cls-3, .cls-4, .cls-5, .cls-6, .cls-7, .cls-8, .cls-9, .cls-10, .cls-11, .cls-12, .cls-13 {
        opacity: .7;
      }

      .cls-2 {
        fill: url(#_未命名漸層_49-12);
      }

      .cls-14 {
        fill: url(#_未命名漸層_469-2);
      }

      .cls-14, .cls-15, .cls-16, .cls-17, .cls-18, .cls-19, .cls-20, .cls-21, .cls-22, .cls-23, .cls-24, .cls-25, .cls-26, .cls-27, .cls-28, .cls-29, .cls-30, .cls-31, .cls-32, .cls-33, .cls-34, .cls-35, .cls-36, .cls-37, .cls-38, .cls-39, .cls-40, .cls-41 {
        opacity: .5;
      }

      .cls-42, .cls-43, .cls-7 {
        fill: #fff;
      }

      .cls-15 {
        fill: url(#_未命名漸層_94-14);
      }

      .cls-16 {
        fill: url(#_未命名漸層_94-13);
      }

      .cls-17 {
        fill: url(#_未命名漸層_94-7);
      }

      .cls-18 {
        fill: url(#_未命名漸層_94-4);
      }

      .cls-3 {
        fill: url(#_未命名漸層_49-8);
      }

      .cls-19 {
        fill: url(#_未命名漸層_469-7);
      }

      .cls-20 {
        fill: url(#_未命名漸層_94-3);
      }

      .cls-21 {
        fill: url(#_未命名漸層_94-12);
      }

      .cls-43 {
        opacity: .4;
      }

      .cls-44 {
        opacity: .6;
      }

      .cls-22 {
        fill: #4f563f;
      }

      .cls-4 {
        fill: url(#_未命名漸層_49-3);
      }

      .cls-5 {
        fill: url(#_未命名漸層_49-4);
      }

      .cls-6 {
        fill: url(#_未命名漸層_49-7);
      }

      .cls-23 {
        fill: url(#_未命名漸層_94-2);
      }

      .cls-24 {
        fill: url(#_未命名漸層_94-9);
      }

      .cls-25 {
        fill: url(#_未命名漸層_94-18);
      }

      .cls-26 {
        fill: url(#_未命名漸層_94-6);
      }

      .cls-27 {
        fill: url(#_未命名漸層_94-16);
      }

      .cls-45 {
        fill: #768672;
      }

      .cls-8 {
        fill: url(#_未命名漸層_49-6);
      }

      .cls-28 {
        fill: url(#_未命名漸層_94);
      }

      .cls-29 {
        fill: url(#_未命名漸層_94-20);
      }

      .cls-30 {
        fill: url(#_未命名漸層_94-17);
      }

      .cls-9 {
        fill: url(#_未命名漸層_49);
      }

      .cls-10 {
        fill: url(#_未命名漸層_49-11);
      }

      .cls-31 {
        fill: url(#_未命名漸層_94-15);
      }

      .cls-11 {
        fill: url(#_未命名漸層_49-9);
      }

      .cls-32 {
        fill: url(#_未命名漸層_94-11);
      }

      .cls-33 {
        fill: url(#_未命名漸層_94-8);
      }

      .cls-34 {
        fill: url(#_未命名漸層_469-6);
      }

      .cls-35 {
        fill: url(#_未命名漸層_469-3);
      }

      .cls-46 {
        clip-path: url(#clippath);
      }

      .cls-47 {
        fill: url(#_未命名漸層_35);
      }

      .cls-48 {
        fill: none;
      }

      .cls-36 {
        fill: url(#_未命名漸層_94-19);
      }

      .cls-12 {
        fill: url(#_未命名漸層_49-2);
      }

      .cls-37 {
        fill: url(#_未命名漸層_469-4);
      }

      .cls-38 {
        fill: url(#_未命名漸層_94-5);
      }

      .cls-49 {
        fill: #427251;
      }

      .cls-50 {
        fill: #8da995;
      }

      .cls-39 {
        fill: url(#_未命名漸層_469);
      }

      .cls-13 {
        fill: url(#_未命名漸層_49-10);
      }

      .cls-40 {
        fill: url(#_未命名漸層_94-10);
      }

      .cls-41 {
        fill: url(#_未命名漸層_469-5);
      }
    </style>
    <clipPath id="clippath">
      <circle class="cls-48" cx="104.92" cy="87.1" r="87.1"/>
    </clipPath>
    <linearGradient id="_未命名漸層_94" data-name="未命名漸層 94" x1="-2250.8" y1="-4591.8" x2="-2217.92" y2="-4591.8" gradientTransform="translate(2507.1 -4414.52) rotate(-126.98)" gradientUnits="userSpaceOnUse">
      <stop offset="0" stop-color="#fff" stop-opacity="0"/>
      <stop offset=".37" stop-color="#faffd0" stop-opacity=".54"/>
      <stop offset=".92" stop-color="#f7ffaf"/>
    </linearGradient>
    <linearGradient id="_未命名漸層_94-2" data-name="未命名漸層 94" x1="-2188.85" y1="-4638.42" x2="-2155.97" y2="-4638.42" xlink:href="#_未命名漸層_94"/>
    <linearGradient id="_未命名漸層_94-3" data-name="未命名漸層 94" x1="-2158.62" y1="-4696.61" x2="-2125.74" y2="-4696.61" xlink:href="#_未命名漸層_94"/>
    <linearGradient id="_未命名漸層_94-4" data-name="未命名漸層 94" x1="-2180.51" y1="-4600.66" x2="-2147.63" y2="-4600.66" xlink:href="#_未命名漸層_94"/>
    <linearGradient id="_未命名漸層_94-5" data-name="未命名漸層 94" x1="-2140.3" y1="-4637.09" x2="-2107.42" y2="-4637.09" xlink:href="#_未命名漸層_94"/>
    <linearGradient id="_未命名漸層_94-6" data-name="未命名漸層 94" x1="-2219.72" y1="-4584.32" x2="-2193.63" y2="-4584.32" xlink:href="#_未命名漸層_94"/>
    <linearGradient id="_未命名漸層_49" data-name="未命名漸層 49" x1="127.75" y1="68.92" x2="145.65" y2="68.92" gradientUnits="userSpaceOnUse">
      <stop offset="0" stop-color="#84bf79" stop-opacity=".46"/>
      <stop offset=".47" stop-color="#96c981" stop-opacity=".53"/>
      <stop offset=".92" stop-color="#f7ffaf"/>
    </linearGradient>
    <linearGradient id="_未命名漸層_49-2" data-name="未命名漸層 49" x1="119.97" y1="104.34" x2="119.97" y2="83.99" xlink:href="#_未命名漸層_49"/>
    <linearGradient id="_未命名漸層_49-3" data-name="未命名漸層 49" x1="107.95" y1="82.48" x2="107.95" y2="62.45" gradientTransform="translate(71.68 22.66) rotate(24.99)" xlink:href="#_未命名漸層_49"/>
    <linearGradient id="_未命名漸層_469" data-name="未命名漸層 469" x1="83.76" y1="94.16" x2="92.56" y2="94.16" gradientUnits="userSpaceOnUse">
      <stop offset="0" stop-color="#cedbf5"/>
      <stop offset=".92" stop-color="#f7ffff"/>
    </linearGradient>
    <linearGradient id="_未命名漸層_469-2" data-name="未命名漸層 469" x1="91.81" y1="143.9" x2="100.61" y2="143.9" xlink:href="#_未命名漸層_469"/>
    <linearGradient id="_未命名漸層_469-3" data-name="未命名漸層 469" x1="-4506.61" y1="143.33" x2="-4497.81" y2="143.33" gradientTransform="translate(-4385.62) rotate(-180) scale(1 -1)" xlink:href="#_未命名漸層_469"/>
    <linearGradient id="_未命名漸層_49-4" data-name="未命名漸層 49" x1="84.63" y1="61.12" x2="98.25" y2="61.12" xlink:href="#_未命名漸層_49"/>
    <linearGradient id="_未命名漸層_469-4" data-name="未命名漸層 469" x1="73.5" y1="48.56" x2="82.3" y2="48.56" xlink:href="#_未命名漸層_469"/>
    <linearGradient id="_未命名漸層_49-5" data-name="未命名漸層 49" x1="158.17" y1="100.26" x2="158.17" y2="68.07" xlink:href="#_未命名漸層_49"/>
    <linearGradient id="_未命名漸層_469-5" data-name="未命名漸層 469" x1="147.84" y1="60.03" x2="159.4" y2="60.03" xlink:href="#_未命名漸層_469"/>
    <linearGradient id="_未命名漸層_49-6" data-name="未命名漸層 49" x1="109.15" y1="122.6" x2="132.81" y2="122.6" xlink:href="#_未命名漸層_49"/>
    <linearGradient id="_未命名漸層_49-7" data-name="未命名漸層 49" x1="43.05" y1="147.25" x2="43.05" y2="131.14" xlink:href="#_未命名漸層_49"/>
    <linearGradient id="_未命名漸層_469-6" data-name="未命名漸層 469" x1="159.06" y1="139.2" x2="171.1" y2="139.2" xlink:href="#_未命名漸層_469"/>
    <linearGradient id="_未命名漸層_49-8" data-name="未命名漸層 49" x1="12.99" y1="126.72" x2="39.18" y2="126.72" xlink:href="#_未命名漸層_49"/>
    <linearGradient id="_未命名漸層_49-9" data-name="未命名漸層 49" x1="26.82" y1="80.23" x2="39.9" y2="80.23" xlink:href="#_未命名漸層_49"/>
    <linearGradient id="_未命名漸層_49-10" data-name="未命名漸層 49" x1="64.11" y1="133.88" x2="77.2" y2="133.88" xlink:href="#_未命名漸層_49"/>
    <linearGradient id="_未命名漸層_49-11" data-name="未命名漸層 49" x1="54.36" y1="70.16" x2="54.36" y2="49.46" xlink:href="#_未命名漸層_49"/>
    <linearGradient id="_未命名漸層_49-12" data-name="未命名漸層 49" x1="61.92" y1="94.79" x2="79.82" y2="94.79" xlink:href="#_未命名漸層_49"/>
    <linearGradient id="_未命名漸層_469-7" data-name="未命名漸層 469" x1="7.83" y1="110.36" x2="23.92" y2="110.36" xlink:href="#_未命名漸層_469"/>
    <linearGradient id="_未命名漸層_94-7" data-name="未命名漸層 94" x1="-2142.41" y1="-4680.93" x2="-2109.53" y2="-4680.93" xlink:href="#_未命名漸層_94"/>
    <linearGradient id="_未命名漸層_94-8" data-name="未命名漸層 94" x1="-2158.49" y1="-4722.77" x2="-2125.61" y2="-4722.77" xlink:href="#_未命名漸層_94"/>
    <linearGradient id="_未命名漸層_94-9" data-name="未命名漸層 94" x1="-2128.9" y1="-4642.54" x2="-2109.1" y2="-4642.54" xlink:href="#_未命名漸層_94"/>
    <linearGradient id="_未命名漸層_94-10" data-name="未命名漸層 94" x1="-2200.97" y1="-4669.5" x2="-2178.83" y2="-4669.5" xlink:href="#_未命名漸層_94"/>
    <linearGradient id="_未命名漸層_94-11" data-name="未命名漸層 94" x1="-2144.46" y1="-4585.48" x2="-2124.67" y2="-4585.48" xlink:href="#_未命名漸層_94"/>
    <linearGradient id="_未命名漸層_94-12" data-name="未命名漸層 94" x1="-2235.95" y1="-4618.08" x2="-2216.16" y2="-4618.08" xlink:href="#_未命名漸層_94"/>
    <linearGradient id="_未命名漸層_94-13" data-name="未命名漸層 94" x1="-2175.06" y1="-4707.52" x2="-2155.27" y2="-4707.52" xlink:href="#_未命名漸層_94"/>
    <linearGradient id="_未命名漸層_94-14" data-name="未命名漸層 94" x1="-2113.04" y1="-4659.32" x2="-2093.25" y2="-4659.32" xlink:href="#_未命名漸層_94"/>
    <linearGradient id="_未命名漸層_94-15" data-name="未命名漸層 94" x1="-2211.19" y1="-4623.91" x2="-2191.39" y2="-4623.91" xlink:href="#_未命名漸層_94"/>
    <linearGradient id="_未命名漸層_94-16" data-name="未命名漸層 94" x1="-2217.41" y1="-4652.03" x2="-2197.62" y2="-4652.03" xlink:href="#_未命名漸層_94"/>
    <linearGradient id="_未命名漸層_94-17" data-name="未命名漸層 94" x1="-2168.09" y1="-4586.03" x2="-2148.29" y2="-4586.03" xlink:href="#_未命名漸層_94"/>
    <linearGradient id="_未命名漸層_94-18" data-name="未命名漸層 94" x1="-2139.77" y1="-4613.16" x2="-2106.89" y2="-4613.16" xlink:href="#_未命名漸層_94"/>
    <linearGradient id="_未命名漸層_94-19" data-name="未命名漸層 94" x1="-2208.85" y1="-4589.71" x2="-2175.97" y2="-4589.71" xlink:href="#_未命名漸層_94"/>
    <linearGradient id="_未命名漸層_94-20" data-name="未命名漸層 94" x1="-2177.37" y1="-4676.77" x2="-2144.49" y2="-4676.77" xlink:href="#_未命名漸層_94"/>
    <linearGradient id="_未命名漸層_35" data-name="未命名漸層 35" x1="104.46" y1="172.17" x2="104.46" y2="144.36" gradientUnits="userSpaceOnUse">
      <stop offset="0" stop-color="#b0ba77"/>
      <stop offset=".49" stop-color="#b0ba77" stop-opacity=".46"/>
      <stop offset="1" stop-color="#768672" stop-opacity="0"/>
    </linearGradient>
  </defs>
  <g id="txt">
    <circle class="cls-22" cx="104.92" cy="87.1" r="87.1"/>
    <g class="cls-46">
      <g>
        <path class="cls-28" d="M196.58,123.72h0c-7.29-11.83-25.06-9.82-29.52,3.35h0c-3.96,11.69,5.92,23.4,18.11,21.48h0c11.57-1.83,17.56-14.85,11.41-24.82Z"/>
        <path class="cls-23" d="M122.08,102.26h0c-7.29-11.83-25.06-9.82-29.52,3.35h0c-3.96,11.69,5.92,23.4,18.11,21.48h0c11.57-1.83,17.56-14.85,11.41-24.82Z"/>
        <path class="cls-20" d="M57.41,113.12h0c-7.29-11.83-25.06-9.82-29.52,3.35h0c-3.96,11.69,5.92,23.4,18.11,21.48h0c11.57-1.83,17.56-14.85,11.41-24.82Z"/>
        <path class="cls-18" d="M147.23,72.9h0c-7.29-11.83-25.06-9.82-29.52,3.35h0c-3.96,11.69,5.92,23.4,18.11,21.48h0c11.57-1.83,17.56-14.85,11.41-24.82Z"/>
        <path class="cls-38" d="M93.94,62.68h0c-7.29-11.83-25.06-9.82-29.52,3.35h0c-3.96,11.69,5.92,23.4,18.11,21.48h0c11.57-1.83,17.56-14.85,11.41-24.82Z"/>
        <path class="cls-26" d="M183.03,98.88h0c-5.78-9.39-19.89-7.79-23.42,2.65h0c-3.14,9.28,4.7,18.57,14.37,17.04h0c9.18-1.45,13.93-11.78,9.05-19.7Z"/>
        <path class="cls-9" d="M131.42,64.15c-3.01,4.85-4.07,10.72-3.54,16.35,.32-.55,.53-1.09,.88-1.65,2.43-3.91,5.06-6.99,7.19-8.64-.74,2.98-2.45,6.92-4.88,10.84-.34,.56-.7,.96-1.04,1.48,4.53-.83,8.83-3.62,11.85-8.47,3.44-5.54,4.47-12.41,3.31-18.73-5.24,.26-10.35,3.29-13.78,8.83Z"/>
        <path class="cls-12" d="M115.95,93.21c-.81,3.73-.29,7.45,1.13,10.58,.07-.42,.1-.79,.19-1.22,.65-3.01,1.57-5.57,2.5-7.18,.15,1.96-.08,4.76-.73,7.77-.09,.42-.22,.77-.32,1.18,2.48-1.84,4.45-4.75,5.25-8.47,.92-4.23,.19-8.54-1.73-11.87-2.99,1.71-5.38,4.98-6.29,9.22Z"/>
        <path class="cls-4" d="M135.64,131.26c-2.21,3.01-3.21,6.62-3.16,10.1,.23-.35,.4-.67,.66-1.02,1.78-2.43,3.63-4.34,5.11-5.38-.64,1.84-1.96,4.28-3.74,6.71-.24,.34-.5,.59-.76,.93,2.98-.55,5.91-2.3,8.12-5.32,2.51-3.42,3.55-7.66,3.14-11.54-3.39,.2-6.84,2.09-9.36,5.52Z"/>
        <path class="cls-42" d="M107.87,66.15c-4.83,2.55-8.73,7.61-10.34,14.31-1.41,5.87-.71,11.8,1.4,16.84,.15-.66,.18-1.26,.37-1.92,1.14-4.71,2.71-8.75,4.23-11.25,.18,3.12-.3,7.54-1.44,12.29-.16,.67-.38,1.19-.56,1.84,3.99-2.77,7.23-7.27,8.64-13.13,1.61-6.68,.61-13.58-2.3-18.97Z"/>
        <path class="cls-7" d="M117.8,77.48c-.11-.67-.3-1.23-.41-1.92-.77-4.85-.9-9.31-.47-12.39,1.29,2.67,2.56,6.85,3.33,11.7,.11,.69,.12,1.29,.21,1.96,2.5-4.74,3.66-10.57,2.7-16.57-1.07-6.86-4.56-12.36-9.16-15.48-3.31,5.03-4.86,11.76-3.78,18.59,.95,6.01,3.82,10.88,7.58,14.12Z"/>
        <path class="cls-39" d="M89.41,104.34c-.1-.42-.23-.76-.32-1.18-.66-3.01-.88-5.81-.73-7.77,.93,1.61,1.85,4.17,2.5,7.18,.1,.43,.11,.8,.19,1.22,1.42-3.13,1.94-6.85,1.13-10.58-.92-4.25-3.3-7.52-6.3-9.22-1.91,3.33-2.64,7.64-1.73,11.87,.81,3.73,2.77,6.64,5.25,8.47Z"/>
        <path class="cls-14" d="M97.45,154.07c-.1-.42-.23-.76-.32-1.18-.66-3.01-.88-5.81-.73-7.77,.93,1.61,1.85,4.17,2.5,7.18,.1,.43,.11,.8,.19,1.22,1.42-3.13,1.94-6.85,1.13-10.58-.92-4.25-3.3-7.52-6.3-9.22-1.91,3.33-2.64,7.64-1.73,11.87,.81,3.73,2.77,6.64,5.25,8.47Z"/>
        <path class="cls-35" d="M115.34,153.5c.1-.42,.23-.76,.32-1.18,.66-3.01,.88-5.81,.73-7.77-.93,1.61-1.85,4.17-2.5,7.18-.1,.43-.11,.8-.19,1.22-1.42-3.13-1.94-6.85-1.13-10.58,.92-4.25,3.3-7.52,6.3-9.22,1.91,3.33,2.64,7.64,1.73,11.87-.81,3.73-2.77,6.64-5.25,8.47Z"/>
        <path class="cls-5" d="M87.87,74.86c.77-4.85,2.04-9.02,3.33-11.7,.42,3.08,.3,7.54-.47,12.39-.11,.69-.29,1.25-.41,1.92,3.76-3.23,6.63-8.1,7.58-14.12,1.08-6.84-.46-13.57-3.78-18.59-4.61,3.12-8.09,8.62-9.16,15.48-.96,6,.2,11.84,2.7,16.57,.09-.67,.1-1.26,.21-1.96Z"/>
        <path class="cls-37" d="M79.14,58.73c-.1-.42-.23-.77-.32-1.18-.66-3.01-.88-5.81-.73-7.77,.93,1.61,1.85,4.18,2.5,7.18,.1,.43,.11,.8,.19,1.22,1.42-3.13,1.94-6.85,1.13-10.57-.92-4.25-3.3-7.52-6.3-9.23-1.91,3.33-2.64,7.64-1.73,11.87,.81,3.72,2.77,6.63,5.25,8.47Z"/>
        <path class="cls-42" d="M103.15,53.29c0-3.1,.37-5.88,.92-7.73,.56,1.85,.92,4.63,.92,7.73,0,.44-.06,.81-.07,1.24,2.02-2.55,3.3-5.99,3.3-9.86,0-4.39-1.61-8.3-4.15-10.92-2.54,2.61-4.15,6.53-4.15,10.92,0,3.87,1.28,7.3,3.3,9.86-.01-.43-.07-.8-.07-1.24Z"/>
        <path class="cls-42" d="M168.93,85.2c1.88-2.1,3.78-3.63,5.27-4.35-.74,1.74-2.17,3.94-4.04,6.01-.27,.3-.54,.5-.79,.78,2.89,.13,5.81-.99,8.13-3.57,2.64-2.93,3.92-7.04,3.79-11.12-3.27-.59-6.72,.55-9.35,3.5-2.32,2.58-3.52,6.05-3.72,9.63,.26-.31,.45-.6,.7-.88Z"/>
        <path class="cls-1" d="M151.82,82.52c-1.36,5.9-.61,11.84,1.55,16.83,.15-.67,.19-1.26,.36-1.94,1.08-4.74,2.61-8.78,4.11-11.31,.18,3.13-.23,7.56-1.31,12.29-.15,.69-.38,1.24-.54,1.86,3.98-2.82,7.15-7.38,8.51-13.27,1.55-6.69,.46-13.56-2.51-18.91-4.79,2.63-8.64,7.74-10.17,14.45Z"/>
        <path class="cls-41" d="M148.51,66.89c1.56-2.61,3.23-4.72,4.63-5.93-.48,1.87-1.57,4.43-3.14,7.05-.21,.37-.45,.64-.66,1.01,2.93-.91,5.72-3.03,7.66-6.27,2.21-3.68,2.86-7.99,2.07-11.74-3.4,.64-6.7,2.95-8.9,6.64-1.94,3.25-2.63,6.92-2.24,10.31,.2-.36,.34-.71,.57-1.08Z"/>
        <path class="cls-8" d="M111.95,131.16c-.48,.38-.94,.57-1.41,.91,4.45,1.31,9.28,.71,13.55-2.41,4.87-3.56,7.89-9.45,8.72-15.86-4.94-2.17-10.59-1.72-15.45,1.85-4.25,3.1-7,8.08-8.21,13.56,.46-.38,.82-.78,1.32-1.13,3.44-2.52,6.8-4.15,9.28-4.72-1.58,2.44-4.35,5.3-7.79,7.81Z"/>
        <path class="cls-42" d="M108.22,113.53c0-4.39-1.61-8.31-4.15-10.92-2.54,2.61-4.15,6.53-4.15,10.92,0,3.87,1.28,7.3,3.3,9.86-.01-.43-.07-.8-.07-1.24,0-3.1,.37-5.88,.92-7.73,.56,1.85,.92,4.63,.92,7.73,0,.44-.06,.81-.07,1.24,2.02-2.56,3.3-5.99,3.3-9.86Z"/>
        <path class="cls-7" d="M139.26,112.98c3.96,.75,7.4,2.12,9.59,3.65-2.47,.62-6.09,.67-10.02-.09-.58-.11-1.04-.31-1.58-.43,2.75,4.52,6.81,7.84,11.7,8.78,5.58,1.07,10.96-1.13,14.89-5.43-2.7-5.54-7.3-9.62-12.86-10.67-4.9-.93-9.58,.73-13.32,4,.55,.08,1.03,.06,1.59,.18Z"/>
        <path class="cls-42" d="M56.65,130.9c.13,.36,.31,.69,.44,1.1,1.02,2.84,1.58,5.58,1.68,7.53-1.12-1.39-2.35-3.78-3.34-6.62-.15-.41-.22-.77-.35-1.15-1.03,3.32-1.1,7.11,.17,10.64,1.41,4.01,4.16,6.83,7.34,7.95,1.49-3.63,1.69-8.02,.26-12.08-1.25-3.51-3.54-6.04-6.21-7.37Z"/>
        <path class="cls-42" d="M154.33,132.83c-.12,.36-.19,.74-.34,1.14-.96,2.86-2.21,5.34-3.32,6.88,0-1.84,.53-4.5,1.51-7.34,.13-.42,.3-.74,.44-1.11-2.81,1.8-5.18,4.63-6.37,8.2-1.38,4.02-1.01,8.07,.71,11.13,3.35-1.72,6.18-4.91,7.58-8.98,1.2-3.53,1-7.04-.2-9.91Z"/>
        <path class="cls-6" d="M48.43,133.5c-1.68,2.31-3.48,4.08-4.87,4.99,.57-1.84,1.83-4.2,3.51-6.48,.24-.35,.48-.57,.71-.87-2.87,.2-5.7,1.68-7.79,4.56-2.37,3.25-3.32,7.51-2.85,11.54,3.29,.19,6.61-1.38,9.02-4.67,2.08-2.84,3-6.47,2.89-10.02-.21,.3-.39,.63-.63,.96Z"/>
        <path class="cls-34" d="M160.35,131.14c.23,.3,.47,.52,.71,.87,1.68,2.28,2.93,4.64,3.51,6.48-1.39-.91-3.19-2.67-4.87-4.99-.24-.32-.42-.66-.63-.96-.1,3.55,.81,7.18,2.9,10.02,2.41,3.28,5.73,4.85,9.02,4.67,.47-4.03-.47-8.29-2.85-11.54-2.09-2.88-4.92-4.35-7.79-4.56Z"/>
        <path class="cls-42" d="M183.2,118.82c-4.8-1.53-9.58-.45-13.57,2.34,.54,.14,1.01,.19,1.57,.38,3.87,1.22,7.17,3.01,9.25,4.8-2.51,.31-6.11-.07-9.98-1.31-.56-.17-.99-.43-1.53-.62,2.39,4.84,6.15,8.64,10.95,10.18,5.45,1.74,10.98,.23,15.24-3.56-2.24-5.85-6.49-10.48-11.95-12.2Z"/>
        <path class="cls-3" d="M37.65,125.03c-3.86,1.24-7.46,1.62-9.97,1.31,2.08-1.79,5.38-3.58,9.25-4.8,.56-.19,1.04-.24,1.58-.38-3.99-2.79-8.78-3.87-13.58-2.34-5.46,1.72-9.7,6.35-11.94,12.2,4.26,3.79,9.79,5.31,15.25,3.56,4.8-1.54,8.56-5.33,10.95-10.18-.53,.19-.97,.45-1.53,.62Z"/>
        <path class="cls-11" d="M30.62,84.07c2.33,2.58,5.25,3.7,8.14,3.57-.25-.28-.52-.48-.79-.78-1.86-2.07-3.29-4.27-4.04-6.01,1.5,.72,3.39,2.25,5.27,4.35,.26,.28,.45,.57,.7,.88-.19-3.58-1.4-7.05-3.72-9.63-2.64-2.95-6.08-4.08-9.36-3.5-.13,4.08,1.15,8.19,3.79,11.12Z"/>
        <path class="cls-13" d="M67.91,137.72c2.33,2.58,5.25,3.7,8.14,3.57-.25-.28-.52-.48-.79-.78-1.86-2.07-3.29-4.27-4.04-6.01,1.5,.72,3.39,2.25,5.27,4.35,.26,.28,.45,.57,.7,.88-.19-3.58-1.4-7.05-3.72-9.63-2.64-2.95-6.08-4.08-9.36-3.5-.13,4.08,1.15,8.19,3.79,11.12Z"/>
        <path class="cls-42" d="M52.14,100.26c-.16-.62-.39-1.17-.54-1.86-1.08-4.73-1.5-9.16-1.32-12.29,1.51,2.53,3.03,6.58,4.11,11.31,.17,.68,.21,1.27,.36,1.94,2.16-4.99,2.92-10.93,1.56-16.83-1.53-6.71-5.38-11.82-10.17-14.45-2.96,5.36-4.06,12.22-2.51,18.91,1.36,5.9,4.53,10.45,8.51,13.27Z"/>
        <path class="cls-10" d="M54.71,70.16c-.05-.43-.15-.79-.2-1.22-.39-3.08-.36-5.9-.05-7.81,.79,1.72,1.48,4.39,1.85,7.46,.06,.44,.05,.82,.09,1.24,1.69-2.9,2.53-6.54,2.06-10.36-.53-4.33-2.61-7.91-5.44-10.02-2.2,3.04-3.31,7.24-2.77,11.57,.47,3.81,2.16,6.98,4.46,9.13Z"/>
        <path class="cls-42" d="M44.28,119.47c3.93,4.3,9.31,6.49,14.89,5.43,4.9-.94,8.95-4.26,11.7-8.78-.54,.12-.99,.32-1.57,.43-3.93,.75-7.55,.7-10.02,.09,2.2-1.53,5.64-2.9,9.6-3.65,.56-.12,1.04-.1,1.59-.18-3.75-3.27-8.43-4.93-13.32-4-5.56,1.05-10.17,5.13-12.86,10.67Z"/>
        <path class="cls-2" d="M77.53,108.39c-.34-.52-.7-.93-1.04-1.49-2.42-3.91-4.13-7.85-4.88-10.84,2.13,1.66,4.76,4.73,7.2,8.65,.35,.55,.56,1.09,.88,1.65,.53-5.63-.52-11.5-3.53-16.36-3.43-5.54-8.54-8.56-13.78-8.82-1.16,6.32-.13,13.2,3.31,18.73,3.02,4.84,7.32,7.64,11.85,8.47Z"/>
        <path class="cls-19" d="M14.74,115.2c2.93,1.31,5.98,.99,8.61-.48-.33-.14-.62-.2-.96-.36-2.37-1.05-4.37-2.42-5.57-3.67,1.6-.04,3.82,.49,6.18,1.55,.35,.14,.61,.33,.93,.5-1.25-3.22-3.43-5.9-6.37-7.2-3.33-1.49-6.87-.94-9.72,1.12,1.11,3.84,3.55,7.05,6.9,8.53Z"/>
        <path class="cls-7" d="M127.54,56.96c.65-3,1.57-5.57,2.5-7.18,.14,1.96-.08,4.76-.73,7.77-.09,.42-.22,.77-.32,1.18,2.48-1.84,4.44-4.75,5.25-8.47,.92-4.24,.18-8.54-1.73-11.87-3,1.7-5.38,4.98-6.3,9.23-.81,3.72-.29,7.44,1.13,10.57,.08-.42,.1-.79,.19-1.22Z"/>
        <path class="cls-7" d="M98.98,129.21c-1.21-5.48-3.96-10.46-8.21-13.56-4.86-3.57-10.5-4.02-15.45-1.85,.83,6.41,3.85,12.3,8.72,15.86,4.27,3.12,9.09,3.72,13.55,2.41-.47-.33-.93-.52-1.41-.91-3.44-2.5-6.21-5.37-7.79-7.81,2.48,.56,5.84,2.2,9.28,4.72,.49,.36,.85,.75,1.32,1.13Z"/>
        <path class="cls-7" d="M165.17,106.15c3.68-1.9,7.2-2.93,9.73-3.03-1.85,2.1-4.93,4.46-8.61,6.35-.53,.28-1,.39-1.52,.65,4.26,2.1,9.11,2.34,13.69,0,5.21-2.67,8.89-8,10.45-14.18-4.63-3.02-10.27-3.55-15.48-.88-4.58,2.34-7.88,6.77-9.7,11.96,.5-.29,.9-.6,1.44-.86Z"/>
        <path class="cls-7" d="M133.77,90.01c-3.01,4.86-4.07,10.73-3.53,16.36,.32-.56,.53-1.1,.88-1.65,2.43-3.93,5.06-6.99,7.19-8.65-.74,2.98-2.45,6.92-4.88,10.84-.33,.56-.7,.97-1.04,1.49,4.53-.83,8.82-3.63,11.85-8.47,3.45-5.54,4.47-12.41,3.31-18.73-5.24,.26-10.35,3.28-13.78,8.82Z"/>
        <path class="cls-43" d="M152.7,132.91c-1,2.84-2.22,5.23-3.34,6.62,.1-1.95,.67-4.69,1.68-7.53,.14-.41,.32-.74,.45-1.1-2.67,1.34-4.97,3.87-6.21,7.37-1.43,4.06-1.23,8.45,.26,12.08,3.18-1.12,5.93-3.94,7.34-7.95,1.28-3.53,1.21-7.32,.18-10.64-.13,.38-.19,.74-.35,1.15Z"/>
        <path class="cls-43" d="M9.06,141.59c1.23-1.25,3.24-2.55,5.62-3.53,.35-.17,.65-.21,.97-.33-2.59-1.55-5.64-1.96-8.6-.71-3.35,1.4-5.86,4.55-7.04,8.35,2.8,2.16,6.32,2.78,9.71,1.37,2.94-1.24,5.17-3.84,6.49-7.02-.31,.12-.59,.31-.93,.46-2.39,1-4.65,1.45-6.22,1.41Z"/>
        <path class="cls-7" d="M78.09,82.52c-.34-.52-.7-.92-1.04-1.48-2.42-3.91-4.13-7.85-4.87-10.84,2.13,1.65,4.76,4.73,7.19,8.64,.35,.56,.56,1.1,.88,1.65,.53-5.63-.52-11.5-3.54-16.35-3.43-5.54-8.53-8.57-13.78-8.83-1.16,6.32-.13,13.19,3.31,18.73,3.02,4.85,7.32,7.64,11.85,8.47Z"/>
        <path class="cls-7" d="M31.47,110.11c4.58,2.34,9.43,2.1,13.69,0-.51-.25-.98-.37-1.52-.65-3.69-1.88-6.76-4.25-8.61-6.35,2.53,.1,6.04,1.13,9.73,3.03,.53,.26,.94,.57,1.44,.86-1.82-5.19-5.13-9.62-9.7-11.96-5.21-2.67-10.84-2.14-15.48,.88,1.55,6.18,5.24,11.51,10.45,14.18Z"/>
        <g class="cls-44">
          <path class="cls-17" d="M60.19,90.74h0c-7.29-11.83-25.06-9.82-29.52,3.35h0c-3.96,11.69,5.92,23.4,18.11,21.48h0c11.57-1.83,17.56-14.85,11.41-24.82Z"/>
          <path class="cls-33" d="M36.44,128.75h0c-7.29-11.83-25.06-9.82-29.52,3.35h0c-3.96,11.69,5.92,23.4,18.11,21.48h0c11.57-1.83,17.56-14.85,11.41-24.82Z"/>
          <path class="cls-24" d="M81.11,65.5h0c-4.39-7.12-15.09-5.91-17.77,2.01h0c-2.38,7.04,3.56,14.09,10.9,12.93h0c6.97-1.1,10.57-8.94,6.87-14.94Z"/>
          <path class="cls-40" d="M103.2,137.75h0c-4.91-7.97-16.88-6.61-19.88,2.25h0c-2.67,7.87,3.99,15.76,12.2,14.46h0c7.79-1.23,11.82-10,7.68-16.72Z"/>
          <path class="cls-32" d="M136.05,43.61h0c-4.39-7.12-15.09-5.91-17.77,2.01h0c-2.38,7.04,3.56,14.09,10.9,12.93h0c6.97-1.1,10.57-8.94,6.87-14.94Z"/>
          <path class="cls-21" d="M165.04,136.32h0c-4.39-7.12-15.09-5.91-17.77,2.01h0c-2.38,7.04,3.56,14.09,10.9,12.93h0c6.97-1.1,10.57-8.94,6.87-14.94Z"/>
          <path class="cls-16" d="M56.96,141.47h0c-4.39-7.12-15.09-5.91-17.77,2.01h0c-2.38,7.04,3.56,14.09,10.9,12.93h0c6.97-1.1,10.57-8.94,6.87-14.94Z"/>
          <path class="cls-15" d="M58.16,62.93h0c-4.39-7.12-15.09-5.91-17.77,2.01h0c-2.38,7.04,3.56,14.09,10.9,12.93h0c6.97-1.1,10.57-8.94,6.87-14.94Z"/>
          <path class="cls-31" d="M145.48,120.03h0c-4.39-7.12-15.09-5.91-17.77,2.01h0c-2.38,7.04,3.56,14.09,10.9,12.93h0c6.97-1.1,10.57-8.94,6.87-14.94Z"/>
          <path class="cls-27" d="M126.76,141.92h0c-4.39-7.12-15.09-5.91-17.77,2.01h0c-2.38,7.04,3.56,14.09,10.9,12.93h0c6.97-1.1,10.57-8.94,6.87-14.94Z"/>
          <path class="cls-30" d="M149.82,62.82h0c-4.39-7.12-15.09-5.91-17.77,2.01h0c-2.38,7.04,3.56,14.09,10.9,12.93h0c6.97-1.1,10.57-8.94,6.87-14.94Z"/>
          <path class="cls-25" d="M112.74,47.86h0c-7.29-11.83-25.06-9.82-29.52,3.35h0c-3.96,11.69,5.92,23.4,18.11,21.48h0c11.57-1.83,17.56-14.85,11.41-24.82Z"/>
          <path class="cls-36" d="M173.02,88.95h0c-7.29-11.83-25.06-9.82-29.52,3.35h0c-3.96,11.69,5.92,23.4,18.11,21.48h0c11.57-1.83,17.56-14.85,11.41-24.82Z"/>
          <path class="cls-29" d="M84.54,116.16h0c-7.29-11.83-25.06-9.82-29.52,3.35h0c-3.96,11.69,5.92,23.4,18.11,21.48h0c11.57-1.83,17.56-14.85,11.41-24.82Z"/>
        </g>
        <g>
          <path class="cls-47" d="M90.03,172.14h28.86s-4.57,2.08-4.19-27.78h-18.91s-.11,8.4-5.76,27.78Z"/>
          <path class="cls-45" d="M94.19,144.28s1.33,10.1-6.8,27.86h4.79s4.46-.22,3.64-24.13c0,0,.7-3.04-1.63-3.73Z"/>
          <path class="cls-45" d="M114.7,144.36s-1.33,10.1,6.8,27.86h-4.79s-4.46-.22-3.64-24.13c0,0-.7-3.04,1.63-3.73Z"/>
          <polygon class="cls-49" points="104.63 144.38 105.95 172.21 103.06 172.21 104.63 144.38"/>
          <g>
            <path class="cls-50" d="M92.23,147.06c-9.8,0-7.5-9.79-7.5-14.66,0,0,.93,10.07,5.28,10.07h2.85c1.67,0,3.13,.77,4.38,1.85,3.07-1.38,5.62-6.98,5.62-6.98-.87,2.58-1.66,6.8-3.8,9.29,.75,1.37,1.3,2.92,1.3,4.67v20.91h-3.89v-20.91c0-2.34-1.62-4.25-3.62-4.25h-.62Zm24.55,0h-.62c-1.99,0-3.62,1.9-3.62,4.25v20.91h-3.89v-20.91c0-1.76,.55-3.3,1.31-4.68-2.13-2.48-2.92-6.7-3.79-9.28,0,0,2.55,5.6,5.62,6.98,1.24-1.09,2.7-1.85,4.37-1.85h2.85c4.34,0,5.28-10.07,5.28-10.07,0,4.86,2.3,14.66-7.5,14.66Z"/>
            <path class="cls-50" d="M96.56,163.69s-.82,2.23-2.29,8.53h2.2l.09-8.53Z"/>
            <path class="cls-50" d="M112.46,172.21l-.09-8.53s.82,2.23,2.29,8.53"/>
          </g>
        </g>
      </g>
    </g>
  </g>
</svg>