<?xml version="1.0" encoding="UTF-8"?>
<svg id="_圖層_2" data-name="圖層 2" xmlns="http://www.w3.org/2000/svg" viewBox="0 0 174.21 174.21">
  <defs>
    <style>
      .cls-1, .cls-2 {
        fill: #fff;
      }

      .cls-2, .cls-3 {
        opacity: .5;
      }

      .cls-3 {
        fill: #b5bc9f;
      }
    </style>
  </defs>
  <g id="txt">
    <circle class="cls-3" cx="87.1" cy="87.1" r="87.1"/>
    <g>
      <path class="cls-2" d="M89.39,93.68l30.53-30.21c-1.93-1.54-4.39-2.51-7.11-2.51H63.05c-2.72,0-5.18,.97-7.11,2.51l30.53,30.21c.81,.8,2.12,.8,2.93,0Z"/>
      <path class="cls-1" d="M122,65.34l-29.72,31.37c-2.39,2.53-6.31,2.53-8.71,0l-29.72-31.37c-2.52,2.16-4.16,5.32-4.16,8.88v36.81c0,2.85,2.33,5.17,5.17,5.17H120.99c2.85,0,5.17-2.33,5.17-5.17v-36.81c0-3.56-1.64-6.72-4.16-8.88Z"/>
    </g>
  </g>
</svg>