<?xml version="1.0" encoding="UTF-8"?>
<svg id="_圖層_2" data-name="圖層 2" xmlns="http://www.w3.org/2000/svg" xmlns:xlink="http://www.w3.org/1999/xlink" viewBox="0 0 174.21 175.42">
  <defs>
    <style>
      .cls-1 {
        fill: url(#_未命名漸層_469-2);
      }

      .cls-1, .cls-2, .cls-3, .cls-4, .cls-5, .cls-6, .cls-7, .cls-8, .cls-9, .cls-10, .cls-11, .cls-12, .cls-13, .cls-14, .cls-15, .cls-16, .cls-17, .cls-18, .cls-19, .cls-20, .cls-21, .cls-22, .cls-23, .cls-24, .cls-25, .cls-26, .cls-27, .cls-28, .cls-29, .cls-30, .cls-31, .cls-32, .cls-33, .cls-34, .cls-35, .cls-36 {
        opacity: .5;
      }

      .cls-37, .cls-15 {
        fill: #fff;
      }

      .cls-2 {
        fill: url(#_未命名漸層_94-14);
      }

      .cls-3 {
        fill: url(#_未命名漸層_94-13);
      }

      .cls-4 {
        fill: url(#_未命名漸層_94-7);
      }

      .cls-5 {
        fill: url(#_未命名漸層_94-4);
      }

      .cls-6 {
        fill: url(#_未命名漸層_469-7);
      }

      .cls-7 {
        fill: url(#_未命名漸層_94-3);
      }

      .cls-8 {
        fill: url(#_未命名漸層_94-12);
      }

      .cls-9 {
        fill: url(#_未命名漸層_469-8);
      }

      .cls-10 {
        fill: url(#_未命名漸層_469-15);
      }

      .cls-11 {
        fill: url(#_未命名漸層_94-2);
      }

      .cls-12 {
        fill: url(#_未命名漸層_469-16);
      }

      .cls-13 {
        fill: url(#_未命名漸層_94-9);
      }

      .cls-14 {
        fill: url(#_未命名漸層_469-11);
      }

      .cls-16 {
        fill: url(#_未命名漸層_94-6);
      }

      .cls-17 {
        fill: url(#_未命名漸層_94-16);
      }

      .cls-18 {
        fill: url(#_未命名漸層_469-13);
      }

      .cls-19 {
        fill: url(#_未命名漸層_469-14);
      }

      .cls-38 {
        fill: #768672;
      }

      .cls-39 {
        fill: url(#_未命名漸層_743);
      }

      .cls-20 {
        fill: #836e57;
      }

      .cls-21 {
        fill: url(#_未命名漸層_94);
      }

      .cls-22 {
        fill: #ffe772;
      }

      .cls-23 {
        fill: url(#_未命名漸層_94-15);
      }

      .cls-24 {
        fill: url(#_未命名漸層_94-11);
      }

      .cls-25 {
        fill: url(#_未命名漸層_94-8);
      }

      .cls-26 {
        fill: #acb27d;
      }

      .cls-27 {
        fill: url(#_未命名漸層_469-6);
      }

      .cls-28 {
        fill: url(#_未命名漸層_469-3);
      }

      .cls-29 {
        fill: url(#_未命名漸層_469-10);
      }

      .cls-30 {
        fill: url(#_未命名漸層_469-4);
      }

      .cls-31 {
        fill: url(#_未命名漸層_94-5);
      }

      .cls-32 {
        fill: url(#_未命名漸層_469-12);
      }

      .cls-40 {
        fill: #427251;
      }

      .cls-33 {
        fill: url(#_未命名漸層_469);
      }

      .cls-34 {
        fill: url(#_未命名漸層_469-9);
      }

      .cls-35 {
        fill: url(#_未命名漸層_94-10);
      }

      .cls-36 {
        fill: url(#_未命名漸層_469-5);
      }
    </style>
    <linearGradient id="_未命名漸層_743" data-name="未命名漸層 743" x1="94.47" y1="174.45" x2="94.47" y2="0" gradientUnits="userSpaceOnUse">
      <stop offset="0" stop-color="#d5d9ba" stop-opacity=".2"/>
      <stop offset="1" stop-color="#d8e3ba"/>
    </linearGradient>
    <linearGradient id="_未命名漸層_94" data-name="未命名漸層 94" x1="-1903.2" y1="-423.17" x2="-1888.91" y2="-423.17" gradientTransform="translate(1791.04 -873.82) rotate(-41.04)" gradientUnits="userSpaceOnUse">
      <stop offset="0" stop-color="#fff" stop-opacity="0"/>
      <stop offset=".37" stop-color="#faffd0" stop-opacity=".54"/>
      <stop offset=".92" stop-color="#f7ffaf"/>
    </linearGradient>
    <linearGradient id="_未命名漸層_94-2" data-name="未命名漸層 94" x1="-1891.78" y1="-420.1" x2="-1877.52" y2="-420.1" xlink:href="#_未命名漸層_94"/>
    <linearGradient id="_未命名漸層_94-3" data-name="未命名漸層 94" x1="-1890.16" y1="-431.73" x2="-1875.87" y2="-431.73" xlink:href="#_未命名漸層_94"/>
    <linearGradient id="_未命名漸層_94-4" data-name="未命名漸層 94" x1="-1901.55" y1="-434.8" x2="-1887.29" y2="-434.8" xlink:href="#_未命名漸層_94"/>
    <linearGradient id="_未命名漸層_469" data-name="未命名漸層 469" x1="-13.13" y1="54.15" x2="-7.39" y2="50.37" gradientTransform="translate(73.24 4.83) rotate(-.79)" gradientUnits="userSpaceOnUse">
      <stop offset="0" stop-color="#cedbf5"/>
      <stop offset=".92" stop-color="#f7ffff"/>
    </linearGradient>
    <linearGradient id="_未命名漸層_469-2" data-name="未命名漸層 469" x1="-3083.74" y1="-2454.27" x2="-3078.15" y2="-2457.94" gradientTransform="translate(2494.71 -3065.23) rotate(-91.1)" xlink:href="#_未命名漸層_469"/>
    <linearGradient id="_未命名漸層_469-3" data-name="未命名漸層 469" x1="35.13" y1="-5579.26" x2="40.71" y2="-5582.93" gradientTransform="translate(-955.98 -5449.59) rotate(168.65)" xlink:href="#_未命名漸層_469"/>
    <linearGradient id="_未命名漸層_469-4" data-name="未命名漸層 469" x1="2757.41" y1="-2685.33" x2="2763.1" y2="-2689.08" gradientTransform="translate(-2964.5 -2345.44) rotate(82.23)" xlink:href="#_未命名漸層_469"/>
    <linearGradient id="_未命名漸層_94-5" data-name="未命名漸層 94" x1="-535.2" y1="189.56" x2="-520.21" y2="189.56" gradientTransform="translate(597.16 -175.32) rotate(-11.8)" xlink:href="#_未命名漸層_94"/>
    <linearGradient id="_未命名漸層_94-6" data-name="未命名漸層 94" x1="-523.15" y1="192.06" x2="-508.19" y2="192.06" gradientTransform="translate(597.16 -175.32) rotate(-11.8)" xlink:href="#_未命名漸層_94"/>
    <linearGradient id="_未命名漸層_94-7" data-name="未命名漸層 94" x1="-520.65" y1="180.02" x2="-505.67" y2="180.02" gradientTransform="translate(597.16 -175.32) rotate(-11.8)" xlink:href="#_未命名漸層_94"/>
    <linearGradient id="_未命名漸層_94-8" data-name="未命名漸層 94" x1="-532.68" y1="177.52" x2="-517.72" y2="177.52" gradientTransform="translate(597.16 -175.32) rotate(-11.8)" xlink:href="#_未命名漸層_94"/>
    <linearGradient id="_未命名漸層_469-5" data-name="未命名漸層 469" x1="1427.93" y1="-362.6" x2="1433.83" y2="-366.49" gradientTransform="translate(-1330.96 -247.52) rotate(28.45)" xlink:href="#_未命名漸層_469"/>
    <linearGradient id="_未命名漸層_469-6" data-name="未命名漸層 469" x1="-2676.84" y1="-1010.8" x2="-2670.93" y2="-1014.69" gradientTransform="translate(2281.44 -1743.95) rotate(-61.87)" xlink:href="#_未命名漸層_469"/>
    <linearGradient id="_未命名漸層_469-7" data-name="未命名漸層 469" x1="-1457.23" y1="-5432.3" x2="-1451.33" y2="-5436.19" gradientTransform="translate(434.75 -5509.86) rotate(-162.12)" xlink:href="#_未命名漸層_469"/>
    <linearGradient id="_未命名漸層_469-8" data-name="未命名漸層 469" x1="2515.84" y1="-4165.52" x2="2521.74" y2="-4169.4" gradientTransform="translate(-2833.95 -3782.02) rotate(111.46)" xlink:href="#_未命名漸層_469"/>
    <linearGradient id="_未命名漸層_94-9" data-name="未命名漸層 94" x1="-1872.25" y1="-399.54" x2="-1856.97" y2="-399.54" gradientTransform="translate(1790.1 -867.26) rotate(-41.42)" xlink:href="#_未命名漸層_94"/>
    <linearGradient id="_未命名漸層_94-10" data-name="未命名漸層 94" x1="-1872.96" y1="-394.2" x2="-1857.67" y2="-394.2" gradientTransform="translate(1790.1 -867.26) rotate(-41.42)" xlink:href="#_未命名漸層_94"/>
    <linearGradient id="_未命名漸層_469-9" data-name="未命名漸層 469" x1="-1452.75" y1="-5548.35" x2="-1446.73" y2="-5552.32" gradientTransform="translate(152.36 -5671.85) rotate(-165.3)" xlink:href="#_未命名漸層_469"/>
    <linearGradient id="_未命名漸層_469-10" data-name="未命名漸層 469" x1="2182.27" y1="-5026.67" x2="2188.3" y2="-5030.64" gradientTransform="translate(-2705.86 -4643.03) rotate(125.36)" xlink:href="#_未命名漸層_469"/>
    <linearGradient id="_未命名漸層_94-11" data-name="未命名漸層 94" x1="-2618.7" y1="-1081.25" x2="-2603.42" y2="-1081.25" gradientTransform="translate(-2415.39 -1186.43) rotate(-129.46) scale(1 -1)" xlink:href="#_未命名漸層_94"/>
    <linearGradient id="_未命名漸層_94-12" data-name="未命名漸層 94" x1="-2619.41" y1="-1075.9" x2="-2604.12" y2="-1075.9" gradientTransform="translate(-2415.39 -1186.43) rotate(-129.46) scale(1 -1)" xlink:href="#_未命名漸層_94"/>
    <linearGradient id="_未命名漸層_469-11" data-name="未命名漸層 469" x1="-470.68" y1="-5788.02" x2="-464.65" y2="-5791.98" gradientTransform="translate(-36.82 -5670.71) rotate(-5.58) scale(1 -1)" xlink:href="#_未命名漸層_469"/>
    <linearGradient id="_未命名漸層_469-12" data-name="未命名漸層 469" x1="2753.01" y1="-4192.3" x2="2759.03" y2="-4196.26" gradientTransform="translate(2622.2 -4201.87) rotate(63.76) scale(1 -1)" xlink:href="#_未命名漸層_469"/>
    <linearGradient id="_未命名漸層_94-13" data-name="未命名漸層 94" x1="-2933.67" y1="-4277.89" x2="-2913.03" y2="-4277.89" gradientTransform="translate(1718.27 -4805.6) rotate(-126.98)" xlink:href="#_未命名漸層_94"/>
    <linearGradient id="_未命名漸層_94-14" data-name="未命名漸層 94" x1="-2934.62" y1="-4270.67" x2="-2913.98" y2="-4270.67" gradientTransform="translate(1718.27 -4805.6) rotate(-126.98)" xlink:href="#_未命名漸層_94"/>
    <linearGradient id="_未命名漸層_469-13" data-name="未命名漸層 469" x1="2091.96" y1="-4679.54" x2="2100.1" y2="-4684.89" gradientTransform="translate(-3029.64 -4017.29) rotate(118.82)" xlink:href="#_未命名漸層_469"/>
    <linearGradient id="_未命名漸層_469-14" data-name="未命名漸層 469" x1="2618.61" y1="-1394.32" x2="2626.74" y2="-1399.67" gradientTransform="translate(-2729.05 -994.46) rotate(49.47)" xlink:href="#_未命名漸層_469"/>
    <linearGradient id="_未命名漸層_94-15" data-name="未命名漸層 94" x1="-2985.54" y1="-1069.4" x2="-2964.9" y2="-1069.4" gradientTransform="translate(2317.96 -2246.88) rotate(-65.87)" xlink:href="#_未命名漸層_94"/>
    <linearGradient id="_未命名漸層_94-16" data-name="未命名漸層 94" x1="-2986.49" y1="-1062.18" x2="-2965.85" y2="-1062.18" gradientTransform="translate(2317.96 -2246.88) rotate(-65.87)" xlink:href="#_未命名漸層_94"/>
    <linearGradient id="_未命名漸層_469-15" data-name="未命名漸層 469" x1="-813.09" y1="-6042.56" x2="-804.95" y2="-6047.91" gradientTransform="translate(-666.27 -6022.93) rotate(179.92)" xlink:href="#_未命名漸層_469"/>
    <linearGradient id="_未命名漸層_469-16" data-name="未命名漸層 469" x1="2869.07" y1="-4593.44" x2="2877.2" y2="-4598.8" gradientTransform="translate(-3167.6 -4299.21) rotate(110.58)" xlink:href="#_未命名漸層_469"/>
  </defs>
  <g id="txt">
    <circle class="cls-26" cx="87.1" cy="88.32" r="87.1"/>
    <g>
      <g>
        <path class="cls-37" d="M144.21,99.43c-1.61-.64-3.35-.94-5.12-.85l3.6-3.61s0-.01,0-.02c-.67-1.14-3.21-.06-5.68,2.42-.13,.13-.26,.27-.39,.41-.01-2.47-.78-4.85-2.14-6.84-1.08-5.02-5.78-8.93-11.42-8.38,1.37-1.39,2.6-2.99,3.66-4.77,1,.58,2.13,.93,3.29,1.02,.18,.09,.36,.19,.55,.28h0c5.02,2.34,10.41,1.04,13.92-2.31,4.8-1.98,7.92-7.33,6.34-12.97-.21-.77-.5-1.48-.85-2.14,.02-.34,.03-.69,.02-1.05h0c-.17-6.66-5.29-11.46-11.15-12.12-1.2-1.44-2.78-2.58-4.65-3.24,.32,.07,.63,.15,.96,.21h0c7.36,1.32,13.95-2.23,17.38-7.81,5.58-4.23,7.82-12.3,3.82-19.12-.54-.93-1.17-1.76-1.85-2.51-.09-.46-.2-.91-.34-1.37h0c-2.52-8.63-10.85-13.13-18.72-11.98-2.99-2.12-6.8-3.16-10.91-2.46-7.09,1.22-11.64,7.04-12.14,13.35-2.5,5.02-2.56,11.27,.91,16.66h0c.65,1.02,1.39,1.93,2.19,2.75,.27,1.45,.86,2.88,1.82,4.2h0c.71,.97,1.54,1.76,2.44,2.39-.77-.15-1.72,.46-2.41,1.66-8.53,14.83-15.89,30.61-21.98,46.93-7.88-5.44-11.76-14.96-10.11-24.23,.99,.73,2.09,1.31,3.26,1.7,3.28,2.17,8.01,2.58,12.16,.27,6.12-3.42,7.03-10.59,2.74-14.72-.33-1.11-.83-2.18-1.49-3.16,.43,.06,.87,.1,1.33,.12,3.63,.14,6.72-1.17,6.9-2.92,0,0,0-.02,0-.02l-4.81-.18c1.29-1.13,2.3-2.53,2.99-4.08,4.03-3.47,4.91-9.33,.94-13.3-2.49-2.5-6.03-3.38-9.39-2.9-2.87-.55-5.9-.03-8.44,1.56l1.05-3.07s0,0-.01,0c-1.14-.57-2.91,1.44-3.95,4.5-.08,.22-.14,.45-.21,.67-1.3-2.3-3.34-4.06-5.73-5.05-3.58-3.03-9.54-3.55-14.14-.3-5.35,3.78-5.62,10.37-1.59,14.16,.27,1.01,.67,1.98,1.21,2.9l-6.48-2.51s0,.01-.01,.02c-.87,1.62,1.08,3.95,4.35,5.22,.04,.02,.08,.03,.12,.04-1.21,.83-2.23,1.88-3.04,3.07-4.46,2.84-6.39,8.38-3.41,12.89,1.89,2.85,5.1,4.29,8.42,4.39,3.64,1.57,7.95,1.2,11.27-1.09l-1.06,3.46s.01,0,.02,0c1.17,.5,2.88-1.6,3.83-4.7,.03-.1,.06-.21,.09-.31,.08,.13,.16,.25,.24,.38-3.09,11.42,1.44,23.64,11.34,30.26,.13,.09,.27,.16,.4,.22-3.67,10.17-6.85,20.54-9.49,31.02-1.66-1.41-3.78-2.34-6.23-2.52-2.26-.16-4.34,.36-6.09,1.35-2.67-3.1-4.78-6.69-6.01-10.42,.62-.18,1.41-.83,2.26-1.81,3.12-1.04,5.39-3.45,6.41-6.32,.39-.4,.78-.81,1.14-1.26h0c4.71-5.8,4.78-13.29,1.56-18.99-1.01-6.93-6.99-12.79-14.9-12.58-1.07,.03-2.1,.17-3.09,.41-.44-.14-.9-.26-1.36-.37h0c-8.78-1.97-16.74,3.15-19.53,10.6-3.3,1.59-6.06,4.43-7.42,8.37-2.36,6.8,.54,13.59,5.83,17.08,3.19,4.62,8.63,7.69,15.02,7.25h0c1.21-.08,2.37-.28,3.47-.59,1.4,.46,2.94,.64,4.56,.43h0c1.38-.18,2.63-.61,3.74-1.23,1.4,3.81,3.59,7.46,6.31,10.67-5.8-.15-11.46,3.75-12.67,10.21h0c-.07,.35-.11,.69-.15,1.04-.45,.6-.85,1.26-1.18,1.98-2.45,5.32-.22,11.1,4.21,13.82,2.94,3.86,8.05,6,13.38,4.49h0c.2-.06,.39-.12,.58-.19,1.37,.11,2.75-.15,3.99-.74-1.07,7.11-1.89,14.22-2.46,21.31h4.51c.69-8.72,1.8-17.53,3.3-26.35,.91-.78,1.65-1.81,2.13-3.05h0s.01-.03,.02-.05c1.16-1.01,2.16-2.26,2.93-3.76h0c1.6-3.14,1.74-6.48,.8-9.43,7.11-.41,14.25-2.7,20.59-6.37,.68,.06,1.36,.07,2.05,0l-3.71,3.94s0,0,0,.01c.73,1.08,3.27-.12,5.68-2.68,.04-.04,.08-.09,.12-.13,.08,2.54,.96,4.96,2.44,6.95,1.36,4.32,5.42,7.68,10.56,7.48,5.5-.21,9.46-4.37,10.14-9.18,1.09-2.1,1.58-4.51,1.32-6.93,2.98,1.94,6.25,2.2,7.31,.58,0,0,0-.01,.01-.02l-4.02-2.64c2.03-.43,3.91-1.37,5.48-2.7,4.8-1.67,8.15-6.74,6.91-12.35-1.15-5.21-5.7-8.34-10.4-8.35Zm-23.68-54.66c.89-1.55,.99-3.53,.2-4.45-.08-.09-.15-.18-.23-.27,.5,.29,1.02,.53,1.55,.72h-.19s0,.02,0,.03c.03,.74,1.19,1.34,3,1.72,1.16,1.08,2.51,1.82,3.93,2.25-4.06,.64-7.25,3.53-8.52,7.18-2.74,3.12-3.96,7.58-2.5,12.1h0c.52,1.6,1.31,3,2.3,4.18,0,.02,0,.03,0,.05h0c.42,2.03,1.56,3.63,3.06,4.68,.22,.92,.58,1.75,1.07,2.48-.04,.05-.08,.1-.11,.16-4.8,8.24-13.87,11.95-22.83,9.6,5.49-14.09,11.94-27.69,19.27-40.42Zm-32.12,83.27c-.08,0-.15,.01-.23,.02-.05-.17-.1-.35-.15-.52,3.16-13.25,7.19-26.38,12-39.14,5.05,1.49,10.17,1.27,14.74-.44-.72,1.3-1.18,2.75-1.31,4.24-.86,1.65-1.34,3.5-1.38,5.39l-3.01-4.12s-.01,0-.02,.01c-1.57,1.15-1.13,4.43,.98,7.32,.05,.07,.1,.13,.15,.2-1.66,.16-3.26,.66-4.71,1.45-5.05,.75-9.29,5.12-9.1,10.88,.17,5.07,3.69,8.84,8,9.96,.36,.25,.74,.48,1.12,.69-5.4,2.59-11.29,4.06-17.08,4.05Z"/>
        <path class="cls-39" d="M144.21,99.43c-1.61-.64-3.35-.94-5.12-.85l3.6-3.61s0-.01,0-.02c-.67-1.14-3.21-.06-5.68,2.42-.13,.13-.26,.27-.39,.41-.01-2.47-.78-4.85-2.14-6.84-1.08-5.02-5.78-8.93-11.42-8.38,1.37-1.39,2.6-2.99,3.66-4.77,1,.58,2.13,.93,3.29,1.02,.18,.09,.36,.19,.55,.28h0c5.02,2.34,10.41,1.04,13.92-2.31,4.8-1.98,7.92-7.33,6.34-12.97-.21-.77-.5-1.48-.85-2.14,.02-.34,.03-.69,.02-1.05h0c-.17-6.66-5.29-11.46-11.15-12.12-1.2-1.44-2.78-2.58-4.65-3.24,.32,.07,.63,.15,.96,.21h0c7.36,1.32,13.95-2.23,17.38-7.81,5.58-4.23,7.82-12.3,3.82-19.12-.54-.93-1.17-1.76-1.85-2.51-.09-.46-.2-.91-.34-1.37h0c-2.52-8.63-10.85-13.13-18.72-11.98-2.99-2.12-6.8-3.16-10.91-2.46-7.09,1.22-11.64,7.04-12.14,13.35-2.5,5.02-2.56,11.27,.91,16.66h0c.65,1.02,1.39,1.93,2.19,2.75,.27,1.45,.86,2.88,1.82,4.2h0c.71,.97,1.54,1.76,2.44,2.39-.77-.15-1.72,.46-2.41,1.66-8.53,14.83-15.89,30.61-21.98,46.93-7.88-5.44-11.76-14.96-10.11-24.23,.99,.73,2.09,1.31,3.26,1.7,3.28,2.17,8.01,2.58,12.16,.27,6.12-3.42,7.03-10.59,2.74-14.72-.33-1.11-.83-2.18-1.49-3.16,.43,.06,.87,.1,1.33,.12,3.63,.14,6.72-1.17,6.9-2.92,0,0,0-.02,0-.02l-4.81-.18c1.29-1.13,2.3-2.53,2.99-4.08,4.03-3.47,4.91-9.33,.94-13.3-2.49-2.5-6.03-3.38-9.39-2.9-2.87-.55-5.9-.03-8.44,1.56l1.05-3.07s0,0-.01,0c-1.14-.57-2.91,1.44-3.95,4.5-.08,.22-.14,.45-.21,.67-1.3-2.3-3.34-4.06-5.73-5.05-3.58-3.03-9.54-3.55-14.14-.3-5.35,3.78-5.62,10.37-1.59,14.16,.27,1.01,.67,1.98,1.21,2.9l-6.48-2.51s0,.01-.01,.02c-.87,1.62,1.08,3.95,4.35,5.22,.04,.02,.08,.03,.12,.04-1.21,.83-2.23,1.88-3.04,3.07-4.46,2.84-6.39,8.38-3.41,12.89,1.89,2.85,5.1,4.29,8.42,4.39,3.64,1.57,7.95,1.2,11.27-1.09l-1.06,3.46s.01,0,.02,0c1.17,.5,2.88-1.6,3.83-4.7,.03-.1,.06-.21,.09-.31,.08,.13,.16,.25,.24,.38-3.09,11.42,1.44,23.64,11.34,30.26,.13,.09,.27,.16,.4,.22-3.67,10.17-6.85,20.54-9.49,31.02-1.66-1.41-3.78-2.34-6.23-2.52-2.26-.16-4.34,.36-6.09,1.35-2.67-3.1-4.78-6.69-6.01-10.42,.62-.18,1.41-.83,2.26-1.81,3.12-1.04,5.39-3.45,6.41-6.32,.39-.4,.78-.81,1.14-1.26h0c4.71-5.8,4.78-13.29,1.56-18.99-1.01-6.93-6.99-12.79-14.9-12.58-1.07,.03-2.1,.17-3.09,.41-.44-.14-.9-.26-1.36-.37h0c-8.78-1.97-16.74,3.15-19.53,10.6-3.3,1.59-6.06,4.43-7.42,8.37-2.36,6.8,.54,13.59,5.83,17.08,3.19,4.62,8.63,7.69,15.02,7.25h0c1.21-.08,2.37-.28,3.47-.59,1.4,.46,2.94,.64,4.56,.43h0c1.38-.18,2.63-.61,3.74-1.23,1.4,3.81,3.59,7.46,6.31,10.67-5.8-.15-11.46,3.75-12.67,10.21h0c-.07,.35-.11,.69-.15,1.04-.45,.6-.85,1.26-1.18,1.98-2.45,5.32-.22,11.1,4.21,13.82,2.94,3.86,8.05,6,13.38,4.49h0c.2-.06,.39-.12,.58-.19,1.37,.11,2.75-.15,3.99-.74-1.07,7.11-1.89,14.22-2.46,21.31h4.51c.69-8.72,1.8-17.53,3.3-26.35,.91-.78,1.65-1.81,2.13-3.05h0s.01-.03,.02-.05c1.16-1.01,2.16-2.26,2.93-3.76h0c1.6-3.14,1.74-6.48,.8-9.43,7.11-.41,14.25-2.7,20.59-6.37,.68,.06,1.36,.07,2.05,0l-3.71,3.94s0,0,0,.01c.73,1.08,3.27-.12,5.68-2.68,.04-.04,.08-.09,.12-.13,.08,2.54,.96,4.96,2.44,6.95,1.36,4.32,5.42,7.68,10.56,7.48,5.5-.21,9.46-4.37,10.14-9.18,1.09-2.1,1.58-4.51,1.32-6.93,2.98,1.94,6.25,2.2,7.31,.58,0,0,0-.01,.01-.02l-4.02-2.64c2.03-.43,3.91-1.37,5.48-2.7,4.8-1.67,8.15-6.74,6.91-12.35-1.15-5.21-5.7-8.34-10.4-8.35Zm-23.68-54.66c.89-1.55,.99-3.53,.2-4.45-.08-.09-.15-.18-.23-.27,.5,.29,1.02,.53,1.55,.72h-.19s0,.02,0,.03c.03,.74,1.19,1.34,3,1.72,1.16,1.08,2.51,1.82,3.93,2.25-4.06,.64-7.25,3.53-8.52,7.18-2.74,3.12-3.96,7.58-2.5,12.1h0c.52,1.6,1.31,3,2.3,4.18,0,.02,0,.03,0,.05h0c.42,2.03,1.56,3.63,3.06,4.68,.22,.92,.58,1.75,1.07,2.48-.04,.05-.08,.1-.11,.16-4.8,8.24-13.87,11.95-22.83,9.6,5.49-14.09,11.94-27.69,19.27-40.42Zm-32.12,83.27c-.08,0-.15,.01-.23,.02-.05-.17-.1-.35-.15-.52,3.16-13.25,7.19-26.38,12-39.14,5.05,1.49,10.17,1.27,14.74-.44-.72,1.3-1.18,2.75-1.31,4.24-.86,1.65-1.34,3.5-1.38,5.39l-3.01-4.12s-.01,0-.02,.01c-1.57,1.15-1.13,4.43,.98,7.32,.05,.07,.1,.13,.15,.2-1.66,.16-3.26,.66-4.71,1.45-5.05,.75-9.29,5.12-9.1,10.88,.17,5.07,3.69,8.84,8,9.96,.36,.25,.74,.48,1.12,.69-5.4,2.59-11.29,4.06-17.08,4.05Z"/>
      </g>
      <path class="cls-38" d="M98.92,84.44c9.67,3.72,19.95,.11,25.17-8.85,.51-.87,1.5-1.23,2.29-.74h0c.79,.49,1.01,1.78,.42,2.79-5.95,10.21-17.67,14.33-28.7,10.09-1.1-.42-1.73-1.57-1.42-2.44h0c.31-.88,1.31-1.21,2.25-.86Z"/>
      <path class="cls-38" d="M95.65,88.37c-8.96-5.99-12.91-17.21-9.66-27.49,.31-1-.06-2.09-.93-2.46h0c-.87-.37-1.96,.27-2.33,1.43-3.7,11.72,.8,24.52,11.02,31.35,1.02,.68,2.27,.49,2.71-.34h0c.45-.83,.05-1.92-.82-2.5Z"/>
      <path class="cls-38" d="M123.02,108.36c-6.92,11.65-21.06,19.68-34.61,19.67-1.32,0-2.69,.77-3.09,1.83h0c-.4,1.05,.52,2.01,2.06,2.01,15.45,0,31.57-9.15,39.46-22.43,.79-1.32,.43-2.6-.68-2.8h0c-1.11-.2-2.48,.59-3.15,1.72Z"/>
      <path class="cls-38" d="M65.82,109.09c2.34,9.24,10.14,17.86,19.09,21.12,.87,.32,1.63,1.15,1.69,1.93h0c.06,.78-.73,1.18-1.75,.81-10.21-3.71-19.1-13.55-21.77-24.08-.27-1.05,.21-1.79,.98-1.66h0c.77,.14,1.52,.98,1.75,1.88Z"/>
      <path class="cls-40" d="M76.03,174.44h4.51c3.52-44.4,17.73-90.98,39.99-129.67,.89-1.55,.99-3.53,.2-4.45-.09-.11-.18-.21-.28-.32-.79-.92-2.19-.37-3.12,1.24-23.07,40.11-37.65,87.19-41.3,133.21Z"/>
      <g>
        <g>
          <path class="cls-20" d="M97.01,44.72c-.19,1.75,2.6,3.29,6.23,3.43,3.63,.14,6.72-1.17,6.9-2.92,0,0,0-.02,0-.02l-13.13-.5s0,.02,0,.02Z"/>
          <path class="cls-20" d="M78.25,65.59c1.17,.5,2.88-1.6,3.83-4.7,.95-3.1,.78-6.01-.38-6.51,0,0-.01,0-.02,0l-3.45,11.21s.01,0,.02,0Z"/>
          <path class="cls-20" d="M61.57,37.6c-.87,1.62,1.08,3.95,4.35,5.22,3.27,1.27,6.63,.98,7.5-.63,0,0,0-.01,.01-.02l-11.85-4.59s0,.01-.01,.02Z"/>
          <path class="cls-20" d="M92.47,23.22c-1.14-.57-2.91,1.44-3.95,4.5-1.04,3.05-.96,5.99,.18,6.56,0,0,.01,0,.02,0l3.77-11.06s0,0-.01,0Z"/>
          <g>
            <path class="cls-15" d="M72.19,40.82h0c-9.09,.38-14.28,10.54-9.25,18.12h0c4.67,7.04,15.03,6.95,19.57-.16h0c5.09-7.96-.88-18.35-10.32-17.96Z"/>
            <path class="cls-15" d="M80.53,54.5h0c-.05,8.92,9.51,14.6,17.32,10.29h0c8.34-4.6,7.96-16.72-.66-20.79h0c-7.72-3.64-16.62,1.96-16.67,10.5Z"/>
            <path class="cls-15" d="M98.13,47.87h0c9.09-.38,14.28-10.54,9.25-18.12h0c-4.67-7.04-15.03-6.95-19.57,.16h0c-5.09,7.96,.88,18.35,10.32,17.96Z"/>
            <path class="cls-15" d="M89.8,34.19h0c.05-8.92-9.51-14.6-17.32-10.29h0c-8.34,4.6-7.96,16.72,.66,20.79h0c7.72,3.64,16.62-1.96,16.67-10.5Z"/>
          </g>
          <g>
            <path class="cls-21" d="M78.64,46.26h0c-4.58,3.62-3.12,10.91,2.51,12.47h0c5.12,1.42,9.94-3.06,8.9-8.27h0c-1.04-5.22-7.23-7.5-11.41-4.2Z"/>
            <path class="cls-11" d="M88.61,51.69h0c3.6,3.65,9.76,2.41,11.68-2.34h0c2.13-5.26-2.45-10.78-8.02-9.66h0c-5.56,1.12-7.65,7.97-3.66,12Z"/>
            <path class="cls-7" d="M91.69,42.44h0c4.58-3.62,3.12-10.91-2.51-12.47h0c-5.12-1.42-9.94,3.06-8.9,8.27h0c1.04,5.22,7.23,7.5,11.41,4.2Z"/>
            <path class="cls-5" d="M81.72,37h0c-3.6-3.65-9.76-2.41-11.68,2.34h0c-2.13,5.26,2.45,10.78,8.02,9.66h0c5.56-1.12,7.65-7.97,3.66-12Z"/>
          </g>
          <g>
            <path class="cls-20" d="M82.94,46.07c1.42-.43,2.09-2.26,1.48-4.08s-2.25-2.95-3.67-2.52c0,0-.01,0-.02,0l2.19,6.6s.01,0,.02,0Z"/>
            <path class="cls-22" d="M83.35,45.74c1.48,.04,2.82-1.49,3-3.42s-.87-3.52-2.35-3.56c0,0-.01,0-.02,0l-.64,6.98s.01,0,.02,0Z"/>
            <path class="cls-22" d="M84.38,46.01c1.12,.8,3.18,.22,4.6-1.31,1.42-1.53,1.66-3.42,.53-4.22,0,0-.01,0-.02-.01l-5.13,5.53s0,0,.01,.01Z"/>
            <path class="cls-20" d="M83.9,45.8c1.37,.44,3.15-.67,3.99-2.49,.84-1.82,.41-3.65-.96-4.09,0,0-.01,0-.02,0l-3.04,6.58s.01,0,.02,0Z"/>
          </g>
        </g>
        <path class="cls-33" d="M63.21,51.47h0c.02-2.81,1.34-5.27,3.36-7.05-6.83,1.67-10.67,8.83-6.97,14.41h0c3.6,5.42,11.97,5.78,16.83,1.43-6.5,1.65-13.26-2.38-13.22-8.78Z"/>
        <path class="cls-1" d="M92.53,63.12h0c-3.17,.15-5.88-.89-7.8-2.59,1.56,5.98,9.47,8.98,15.92,5.37h0c6.28-3.51,7.08-10.97,2.39-15.04,1.56,5.69-3.3,11.92-10.52,12.25Z"/>
        <path class="cls-28" d="M107.21,35.38h0c.56,2.74-.24,5.35-1.88,7.42,6.43-2.74,8.76-10.34,3.94-15.16h0c-4.69-4.69-13.07-3.68-17,1.35,6.12-2.66,13.65,.16,14.94,6.39Z"/>
        <path class="cls-30" d="M76.92,24.94h0c3.15-.47,5.99,.27,8.13,1.75-2.34-5.74-10.64-7.89-16.62-3.66h0c-5.82,4.11-5.64,11.56-.42,15.1-2.3-5.45,1.74-12.11,8.91-13.18Z"/>
      </g>
      <g>
        <g>
          <path class="cls-20" d="M135.37,118.37c-1.07,1.63,.5,4.54,3.49,6.51s6.29,2.24,7.36,.61c0,0,0-.01,.01-.02l-10.86-7.12s0,.01-.01,.02Z"/>
          <path class="cls-20" d="M108.66,129.39c.73,1.08,3.27-.12,5.68-2.68,2.41-2.56,3.78-5.51,3.05-6.59,0,0,0,0-.01-.01l-8.74,9.27s0,0,0,.01Z"/>
          <path class="cls-20" d="M109.05,93.48c-1.57,1.15-1.13,4.43,.98,7.32,2.11,2.9,5.1,4.31,6.68,3.17,0,0,.01-.01,.02-.02l-7.66-10.49s-.01,0-.02,.01Z"/>
          <path class="cls-20" d="M142.68,94.96c-.67-1.14-3.21-.06-5.68,2.42s-3.92,5.4-3.25,6.54c0,0,0,0,0,.01l8.93-8.96s0-.01,0-.02Z"/>
          <g>
            <path class="cls-15" d="M117.11,102.41h0c-8.32-4.45-18.33,1.78-18.02,11.21h0c.31,9.43,10.71,14.99,18.72,10.01h0c8.01-4.98,7.63-16.76-.69-21.21Z"/>
            <path class="cls-15" d="M115.92,120.44h0c-4.45,8.32,1.78,18.33,11.21,18.02h0c9.43-.31,14.99-10.71,10.01-18.72h0c-4.98-8.01-16.76-7.63-21.21,.69Z"/>
            <path class="cls-15" d="M133.95,121.64h0c8.32,4.45,18.33-1.78,18.02-11.21h0c-.31-9.43-10.71-14.99-18.72-10.01h0c-8.01,4.98-7.63,16.76,.69,21.21Z"/>
            <path class="cls-15" d="M135.15,103.6h0c4.45-8.32-1.78-18.33-11.21-18.02h0c-9.43,.31-14.99,10.71-10.01,18.72h0c4.98,8.01,16.76,7.63,21.21-.69Z"/>
          </g>
          <g>
            <path class="cls-31" d="M117.82,110.86h0c-5.63,1.21-7.84,8.06-3.98,12.33h0c3.86,4.27,10.9,2.76,12.67-2.72h0c1.77-5.48-3.06-10.82-8.69-9.61Z"/>
            <path class="cls-16" d="M124.37,119.74h0c1.21,5.63,8.06,7.84,12.33,3.98h0c4.27-3.86,2.76-10.9-2.72-12.67h0c-5.48-1.77-10.82,3.06-9.61,8.69Z"/>
            <path class="cls-4" d="M133.24,113.18h0c5.63-1.21,7.84-8.06,3.98-12.33h0c-3.86-4.27-10.9-2.76-12.67,2.72h0c-1.77,5.48,3.06,10.82,8.69,9.61Z"/>
            <path class="cls-25" d="M126.69,104.31h0c-1.21-5.63-8.06-7.84-12.33-3.98h0c-4.27,3.86-2.76,10.9,2.72,12.67h0c5.48,1.77,10.82-3.06,9.61-8.69Z"/>
          </g>
          <g>
            <path class="cls-20" d="M122.76,112.59c1.43,.3,2.94-1.16,3.37-3.26,.43-2.1-.37-4.04-1.8-4.33,0,0-.01,0-.02,0l-1.57,7.59s.01,0,.02,0Z"/>
            <path class="cls-22" d="M123.27,112.48c1.23,.78,3.16-.04,4.31-1.85s1.09-3.9-.14-4.69c0,0-.01,0-.02-.01l-4.17,6.53s.01,0,.02,.01Z"/>
            <path class="cls-22" d="M124.01,113.26c.53,1.36,2.58,1.82,4.57,1.04,1.99-.78,3.17-2.52,2.64-3.88,0,0,0-.01,0-.02l-7.21,2.84s0,.01,0,.02Z"/>
            <path class="cls-20" d="M123.7,112.81c.93,1.13,3.02,.94,4.67-.42,1.65-1.36,2.24-3.38,1.31-4.5,0,0,0,0-.01-.01l-5.98,4.93s0,.01,.01,.02Z"/>
          </g>
        </g>
        <path class="cls-36" d="M103.24,107.93h0c1.47-2.75,3.87-4.5,6.51-5.23-6.65-1.81-13.62,3.29-13.38,10.63h0c.23,7.14,7.13,11.72,13.51,9.9-6.36-1.67-9.99-9.04-6.64-15.3Z"/>
        <path class="cls-27" d="M122.03,134.18h0c-2.76-1.46-4.52-3.84-5.26-6.48-1.78,6.66,3.36,13.6,10.7,13.32h0c7.14-.27,11.68-7.2,9.83-13.56-1.63,6.37-8.98,10.04-15.26,6.72Z"/>
        <path class="cls-6" d="M148.85,114.35h0c-.94,2.97-2.98,5.13-5.44,6.33,6.87,.56,12.78-5.73,11.2-12.9h0c-1.54-6.98-9.16-10.22-15.1-7.26,6.56,.47,11.48,7.05,9.33,13.82Z"/>
        <path class="cls-9" d="M128.61,88.8h0c2.91,1.13,4.94,3.29,5.98,5.82,.99-6.82-4.92-13.12-12.17-11.99h0c-7.06,1.1-10.77,8.51-8.19,14.61,.88-6.52,7.75-11.01,14.38-8.45Z"/>
      </g>
      <g>
        <path class="cls-15" d="M130.54,79.09h0c8.73,4.06,18.58-2.85,17.73-12.44h0c-.85-9.59-11.76-14.66-19.63-9.13h0c-7.88,5.53-6.82,17.51,1.91,21.57Z"/>
        <path class="cls-15" d="M149.98,60.61h0c-.25-9.62-10.82-15.36-19.03-10.34h0c-8.21,5.03-7.9,17.05,.56,21.65h0c8.46,4.59,18.72-1.69,18.47-11.31Z"/>
        <path class="cls-13" d="M132.63,72.42h0c4.38-3.91,2.89-11.1-2.69-12.94h0c-5.58-1.84-11.06,3.05-9.86,8.8h0c1.2,5.75,8.17,8.05,12.55,4.14Z"/>
        <path class="cls-35" d="M135.64,76.89h0c4.38-3.91,2.89-11.1-2.69-12.94h0c-5.58-1.84-11.06,3.05-9.86,8.8h0c1.2,5.75,8.17,8.05,12.55,4.14Z"/>
        <path class="cls-34" d="M145.31,70.82h0c-.79,3.08-2.74,5.4-5.18,6.76,7.03,.18,12.7-6.56,10.68-13.78h0c-1.96-7.02-9.91-9.89-15.79-6.54,6.71,.11,12.09,6.53,10.29,13.55Z"/>
        <path class="cls-15" d="M138.95,68.56h0c6.44-7.15,2.73-18.59-6.68-20.6h0c-9.41-2-17.47,6.93-14.5,16.09h0c2.97,9.15,14.74,11.66,21.18,4.51Z"/>
        <path class="cls-29" d="M136.1,52.3h0c2.61,1.83,4.08,4.47,4.5,7.23,2.65-6.51-1.66-14.2-9.12-14.85h0c-7.26-.64-12.75,5.79-11.69,12.47,2.47-6.24,10.38-9.01,16.31-4.85Z"/>
        <path class="cls-20" d="M134.9,65.82c-.72-.62-3.23,1.14-5.61,3.91-2.38,2.78-3.73,5.53-3.02,6.14,0,0,0,0,0,0l8.63-10.05s0,0,0,0Z"/>
        <path class="cls-20" d="M126.89,76.44c-.06,1.03,2.86,2.03,6.51,2.23,3.65,.21,6.66-.46,6.72-1.49,0,0,0,0,0-.01l-13.23-.75s0,0,0,.01Z"/>
        <path class="cls-20" d="M124.92,73.78c-1.01,.21-2.43-2.52-3.17-6.11-.74-3.58-.53-6.66,.48-6.87,0,0,0,0,.01,0l2.69,12.97s0,0-.01,0Z"/>
      </g>
      <g>
        <path class="cls-15" d="M73.92,154.06h0c-9.26,2.63-17.89-5.76-15.53-15.09h0c2.36-9.33,13.93-12.61,20.83-5.91h0c6.9,6.71,3.96,18.37-5.3,21Z"/>
        <path class="cls-15" d="M57.65,132.73h0c1.77-9.46,13.12-13.46,20.43-7.19h0c7.31,6.26,5.09,18.09-3.99,21.29h0c-9.08,3.2-18.21-4.63-16.44-14.09Z"/>
        <path class="cls-24" d="M72.91,147.14h0c-3.71-4.56-1.09-11.42,4.71-12.35h0c5.8-.93,10.44,4.76,8.35,10.25h0c-2.09,5.49-9.34,6.66-13.05,2.1Z"/>
        <path class="cls-8" d="M69.23,151.08h0c-3.71-4.56-1.09-11.42,4.71-12.35h0c5.8-.93,10.44,4.76,8.35,10.25h0c-2.09,5.49-9.34,6.66-13.05,2.1Z"/>
        <path class="cls-14" d="M60.65,143.55h0c.29,3.17,1.85,5.76,4.05,7.5-6.97-.93-11.5-8.49-8.36-15.29h0c3.05-6.62,11.36-8.19,16.63-3.95-6.64-.96-12.97,4.53-12.31,11.75Z"/>
        <path class="cls-15" d="M67.28,142.33h0c-5.23-8.08,.25-18.79,9.86-19.28h0c9.61-.49,16.15,9.61,11.76,18.18h0c-4.38,8.57-16.4,9.18-21.63,1.1Z"/>
        <path class="cls-32" d="M72.67,126.72h0c-2.86,1.39-4.74,3.77-5.59,6.43-1.59-6.85,3.89-13.75,11.36-13.22h0c7.27,.52,11.67,7.74,9.56,14.16-1.45-6.55-8.82-10.54-15.34-7.37Z"/>
        <path class="cls-20" d="M71.72,140.27c.81-.49,3.01,1.63,4.92,4.75,1.91,3.12,2.81,6.05,2,6.54,0,0,0,0-.01,0l-6.92-11.29s0,0,.01,0Z"/>
        <path class="cls-20" d="M77.94,152.02c-.11,1.02-3.14,1.55-6.78,1.17-3.64-.38-6.5-1.51-6.4-2.53,0,0,0,0,0-.01l13.18,1.36s0,0,0,.01Z"/>
        <path class="cls-20" d="M80.31,149.7c.96,.37,2.8-2.11,4.1-5.53,1.3-3.42,1.58-6.49,.61-6.86,0,0,0,0-.01,0l-4.72,12.38s0,0,.01,0Z"/>
      </g>
      <g>
        <path class="cls-15" d="M76.15,101.47h0c8.19-10.09,2.39-25.26-10.45-27.31h0c-12.83-2.05-23.07,10.56-18.42,22.7h0c4.64,12.14,20.68,14.7,28.87,4.61Z"/>
        <path class="cls-15" d="M58.36,69.94h0c-12.68-2.84-23.68,9.11-19.8,21.51h0c3.88,12.4,19.73,15.95,28.53,6.39h0c8.8-9.56,3.95-25.06-8.73-27.9Z"/>
        <path class="cls-3" d="M67.16,96.62h0c-4.81-6.31-14.64-5.05-17.7,2.26h0c-3.06,7.32,2.94,15.21,10.81,14.2h0c7.87-1.01,11.7-10.15,6.89-16.46Z"/>
        <path class="cls-2" d="M73.5,93.04h0c-4.81-6.31-14.64-5.05-17.7,2.26h0c-3.06,7.32,2.94,15.21,10.81,14.2h0c7.87-1.01,11.7-10.15,6.89-16.46Z"/>
        <path class="cls-18" d="M70.19,79.41h0c3.78,2.05,6.16,5.37,7.14,9.01,2.56-9.14-4.41-18.79-14.52-18.52h0c-9.84,.26-16.21,9.72-13.76,18.52,2.35-8.75,12.54-13.68,21.13-9.01Z"/>
        <path class="cls-15" d="M65.13,87h0c-7.24-10.79-23.45-9.7-29.17,1.97h0c-5.72,11.66,3.32,25.15,16.29,24.28h0c12.96-.87,20.12-15.46,12.88-26.25Z"/>
        <path class="cls-19" d="M42.91,85.37h0c3.25-2.81,7.2-3.87,10.95-3.51-7.65-5.62-19.13-2.51-22.45,7.05h0c-3.23,9.3,3.38,18.6,12.48,19.41-7.36-5.29-8.38-16.56-.97-22.95Z"/>
        <path class="cls-20" d="M57.02,94.22c-1.01,.53,.02,4.51,2.31,8.88,2.29,4.38,4.97,7.5,5.98,6.97,0,0,0,0,.01,0l-8.29-15.85s0,0-.01,0Z"/>
        <path class="cls-20" d="M65.64,110.85c1.25,.61,4.03-2.48,6.21-6.91s2.94-8.52,1.69-9.14c0,0-.01,0-.02,0l-7.91,16.04s.01,0,.02,0Z"/>
        <path class="cls-20" d="M64.76,110.68c-.3,1.32-4.44,1.52-9.26,.44-4.82-1.08-8.49-3.03-8.19-4.35,0,0,0-.01,0-.02l17.45,3.91s0,.01,0,.02Z"/>
      </g>
      <g>
        <path class="cls-15" d="M135.14,45.47h0c12.79,2.29,23.27-10.12,18.86-22.34h0c-4.41-12.22-20.39-15.09-28.78-5.16h0c-8.38,9.93-2.87,25.21,9.92,27.5Z"/>
        <path class="cls-15" d="M154.15,14.66h0c-3.64-12.47-19.42-16.33-28.4-6.94h0c-8.98,9.39-4.44,24.98,8.19,28.07h0c12.62,3.09,23.85-8.65,20.21-21.12Z"/>
        <path class="cls-23" d="M135.05,35.25h0c3.2-7.26-2.65-15.26-10.54-14.41h0c-7.89,.85-11.89,9.92-7.21,16.33h0c4.68,6.4,14.54,5.33,17.74-1.92Z"/>
        <path class="cls-17" d="M141.24,39.07h0c3.2-7.26-2.65-15.26-10.54-14.41h0c-7.89,.85-11.89,9.92-7.21,16.33h0c4.68,6.4,14.54,5.33,17.74-1.92Z"/>
        <path class="cls-10" d="M151.57,29.58h0c.03,4.3-1.72,7.99-4.44,10.61,9.24-2.18,14.32-12.93,9.2-21.66h0c-4.98-8.49-16.35-9.5-22.86-3.1,8.8-2.17,18.03,4.37,18.1,14.15Z"/>
        <path class="cls-15" d="M142.49,28.83h0c5.95-11.55-2.84-25.21-15.82-24.59h0c-12.98,.62-20.42,15.06-13.39,25.99h0c7.03,10.93,23.25,10.15,29.2-1.4Z"/>
        <path class="cls-12" d="M133.18,8.58h0c4.03,1.49,6.87,4.43,8.36,7.89,1.22-9.41-7.05-17.96-17.02-16.25h0c-9.7,1.66-14.65,11.95-10.97,20.3,1.08-9,10.45-15.33,19.63-11.94Z"/>
        <path class="cls-20" d="M132.24,25.21c-.95-.63-3.93,2.2-6.66,6.32s-4.16,7.97-3.21,8.6c0,0,0,0,.01,0l9.87-14.92s0,0-.01,0Z"/>
        <path class="cls-20" d="M121.85,40.8c.06,1.39,4.12,2.33,9.05,2.1s8.88-1.54,8.82-2.93c0,0,0-.01,0-.02l-17.87,.83s0,.01,0,.02Z"/>
        <path class="cls-20" d="M121.57,39.95c-1.3,.38-3.48-3.16-4.86-7.9-1.38-4.74-1.45-8.89-.15-9.27,0,0,.01,0,.02,0l5.01,17.17s-.01,0-.02,0Z"/>
      </g>
    </g>
  </g>
</svg>