<?xml version="1.0" encoding="UTF-8"?>
<svg xmlns="http://www.w3.org/2000/svg" xmlns:xlink="http://www.w3.org/1999/xlink" viewBox="0 0 174.21 174.31">
  <defs>
    <style>
      .cls-1 {
        fill: #788260;
      }

      .cls-1, .cls-2, .cls-3 {
        opacity: .5;
      }

      .cls-4, .cls-2 {
        fill: #fff;
      }

      .cls-5 {
        fill: url(#_未命名漸層_152);
      }

      .cls-6 {
        isolation: isolate;
      }

      .cls-7 {
        fill: url(#_未命名漸層_577);
      }

      .cls-8 {
        fill: #84bf79;
      }

      .cls-8, .cls-9 {
        opacity: .7;
      }

      .cls-10 {
        fill: #768672;
      }

      .cls-9, .cls-11 {
        fill: #427251;
      }

      .cls-12 {
        fill: url(#_未命名漸層_477-3);
      }

      .cls-13 {
        fill: url(#_未命名漸層_477);
      }

      .cls-14 {
        fill: #c3d186;
      }

      .cls-14, .cls-15 {
        mix-blend-mode: multiply;
      }

      .cls-16 {
        fill: url(#_未命名漸層_577-2);
      }

      .cls-15 {
        fill: #ffe772;
      }

      .cls-17 {
        fill: url(#_未命名漸層_576);
      }

      .cls-18 {
        fill: url(#_未命名漸層_477-2);
      }

      .cls-3 {
        fill: #a07635;
      }

      .cls-19 {
        fill: url(#_未命名漸層_469);
      }
    </style>
    <linearGradient id="_未命名漸層_152" data-name="未命名漸層 152" x1="93.26" y1="174.31" x2="93.26" y2="33.71" gradientUnits="userSpaceOnUse">
      <stop offset="0" stop-color="#cfdbd0" stop-opacity=".2"/>
      <stop offset="1" stop-color="#cddace"/>
    </linearGradient>
    <linearGradient id="_未命名漸層_469" data-name="未命名漸層 469" x1="879.38" y1="3549.88" x2="879.38" y2="3476.84" gradientTransform="translate(537.29 -3502.67) rotate(21.05)" gradientUnits="userSpaceOnUse">
      <stop offset="0" stop-color="#cedbf5"/>
      <stop offset=".92" stop-color="#f7ffff"/>
    </linearGradient>
    <linearGradient id="_未命名漸層_477" data-name="未命名漸層 477" x1="89.13" y1="110.93" x2="106.8" y2="110.93" gradientTransform="translate(-41.46 61.3) rotate(-28.96)" gradientUnits="userSpaceOnUse">
      <stop offset="0" stop-color="#fff" stop-opacity="0"/>
      <stop offset=".5" stop-color="#fcffff" stop-opacity=".19"/>
      <stop offset=".92" stop-color="#f7ffff"/>
    </linearGradient>
    <linearGradient id="_未命名漸層_477-2" data-name="未命名漸層 477" x1="92.91" y1="101.38" x2="103.64" y2="101.38" gradientTransform="translate(-30.17 42.74) rotate(-21.35)" xlink:href="#_未命名漸層_477"/>
    <linearGradient id="_未命名漸層_477-3" data-name="未命名漸層 477" x1="87.22" y1="108.59" x2="96.38" y2="108.59" gradientTransform="translate(-23.53 25.41) rotate(-13.99)" xlink:href="#_未命名漸層_477"/>
    <radialGradient id="_未命名漸層_576" data-name="未命名漸層 576" cx="1176.6" cy="5987.51" fx="1176.6" fy="5987.51" r="14.38" gradientTransform="translate(4308.3 -1105.2) rotate(90) scale(1 .7)" gradientUnits="userSpaceOnUse">
      <stop offset="0" stop-color="#c8ddff"/>
      <stop offset=".12" stop-color="#cee1ff"/>
      <stop offset=".4" stop-color="#dce9ff"/>
      <stop offset=".73" stop-color="#e7f0ff"/>
      <stop offset="1" stop-color="#fff"/>
    </radialGradient>
    <linearGradient id="_未命名漸層_577" data-name="未命名漸層 577" x1="212.95" y1="1465.9" x2="238.44" y2="1465.9" gradientTransform="translate(64.09 -771.43) rotate(3.79) scale(.99 .57) skewX(-6.62)" gradientUnits="userSpaceOnUse">
      <stop offset="0" stop-color="#c8ebfa"/>
      <stop offset=".92" stop-color="#f7ffff"/>
    </linearGradient>
    <linearGradient id="_未命名漸層_577-2" data-name="未命名漸層 577" x1="940.92" y1="4527.29" x2="959.95" y2="4527.29" gradientTransform="translate(312.41 -2551.08) rotate(14.54) scale(.99 .57) skewX(-6.62)" xlink:href="#_未命名漸層_577"/>
  </defs>
  <g class="cls-6">
    <g id="_圖層_2" data-name="圖層 2">
      <g id="txt">
        <circle class="cls-1" cx="87.1" cy="87.1" r="87.1"/>
        <g>
          <path class="cls-4" d="M153.64,80.44c-.13-.91-.58-1.74-1.06-2.53-2.55-4.2-6.05-7.81-10.14-10.52-1.32-.88-2.59-1.54-3.85-2.04,4.16-1.78,8.44-3.47,12.82-5.2,.8-.32,1.66-.68,1.92-1.23,.25-.53-.15-1.1-.8-1.49-.65-.39-1.5-.63-2.35-.84-4.54-1.11-9.5-1.61-14.4-1.46-3.86,.11-6.69,.69-9.6,1.78,.81-1.53,1.56-3.1,2.24-4.71,1.66-3.92,.81-5.62-2.06-8.51-1.99-2-5.21-4.8-8.35-3.85-2.7,.82-5.11,3.51-7.14,5.93-.16-1.52-.37-3.04-.64-4.57-.73-4.03-2.25-5.14-5.94-6.42-2.56-.89-6.47-1.95-8.4,.16-1.7,1.86-2.16,5.26-2.49,8.22-2.98-1.98-6.48-3.25-9.86-4.68-5.44-2.3-11.25-3.86-17.13-4.59-.92-.11-1.87-.21-2.74,.01s-1.65,.82-1.75,1.62c-.13,1.14,1.06,2.1,2.13,2.82,2.88,1.94,6.09,3.79,8.6,6.06,.77,.69,1.55,1.36,2.33,2.03-2.32-.49-4.72-.79-7.09-1.16-5.83-.92-11.84-1.06-17.73-.41-.92,.1-1.87,.23-2.66,.63-.8,.4-1.42,1.14-1.32,1.91,.14,1.09,1.53,1.71,2.74,2.15,3.25,1.16,6.81,2.16,9.79,3.7,1.46,.76,2.94,1.46,4.42,2.18-6.28,4.08-11.84,8.66-16.22,14.98-.72,1.04-1.4,2.15-1.64,3.4-.24,1.24,.05,2.66,1,3.49,1.29,1.12,3.23,.84,4.88,.41,3.8-1,7.21-3.04,10.91-4.3,3.86-1.31,7.37-1.51,11.4-1.95,.75-.08,1.5-.1,2.24-.07-4.83,1.17-9.22,3.36-12.03,6.28-4.35,4.51-7.76,8.96-8.98,13.88-.18,.74-.3,1.49,.03,2.16,.33,.66,1.21,1.22,2.42,1.27,1.63,.07,3.24-.74,4.52-1.52,2.94-1.8,5.07-3.94,7.81-5.83,1.62-1.11,3.3-2.02,5.06-2.89-2.85,5.69-4.99,12.83-5.75,21.78-.35,4.18,4.9,6.31,7.6,3.1,4.23-5.05,9.91-11.16,16.3-16.26-1.12,10.22-3.45,20.35-6.28,30.18-.22,.76-.44,1.53-.37,2.32,.04,.51,.23,.93,.5,1.28v37.28c-11.09-26.86-53.72-33.39-53.72-33.39,8.96,3.63,16.95,8,23.89,12.51-6.89-4.44-14.86-8.79-23.89-12.51,0,0,39.68,26.57,53.72,38.59v4.71h4.3v-22.17c4.9-3.56,27.08-19.59,35.86-24.21-23.85,2.04-33.11,16.75-35.86,22.56v-23.09c.81-.67,1.34-1.62,1.85-2.55,2.18-3.97,4.36-7.94,6.54-11.9,.39,1.14,1.01,2.11,2.03,2.65,1.03,.55,2.18,.31,2.54-.86,0,0,5.73-18.68,5.73-18.68,.06-.18,.11-.37,.16-.56,.92-1.26,1.85-2.51,2.77-3.77,1.91,2.5,3.81,4.99,5.72,7.49,2.31,3.03,4.62,6.05,6.93,9.08,1.75,2.29,4.19,6.55,7.68,4.69,1.33-.71,2.33-2.33,2-3.87,0,0-1.7-8.13-3.14-15.04,2.2,1.24,4.4,2.48,6.6,3.72,2.51,1.41,6.44,4.36,8.91,1.28,.94-1.18,1.22-3.06,.31-4.35,0,0-4.3-6.13-8.21-11.7,3.55,.11,7.11,.28,10.73,.45,.96,.05,2.02,.06,2.77-.53,.72-.57,.98-1.59,.85-2.5Zm-52.35,61.72c-3.67,2.79-7.27,5.98-10.44,9.56h0c3.11-3.57,6.72-6.76,10.44-9.56Z"/>
          <path class="cls-5" d="M153.64,80.44c-.13-.91-.58-1.74-1.06-2.53-2.55-4.2-6.05-7.81-10.14-10.52-1.32-.88-2.59-1.54-3.85-2.04,4.16-1.78,8.44-3.47,12.82-5.2,.8-.32,1.66-.68,1.92-1.23,.25-.53-.15-1.1-.8-1.49-.65-.39-1.5-.63-2.35-.84-4.54-1.11-9.5-1.61-14.4-1.46-3.86,.11-6.69,.69-9.6,1.78,.81-1.53,1.56-3.1,2.24-4.71,1.66-3.92,.81-5.62-2.06-8.51-1.99-2-5.21-4.8-8.35-3.85-2.7,.82-5.11,3.51-7.14,5.93-.16-1.52-.37-3.04-.64-4.57-.73-4.03-2.25-5.14-5.94-6.42-2.56-.89-6.47-1.95-8.4,.16-1.7,1.86-2.16,5.26-2.49,8.22-2.98-1.98-6.48-3.25-9.86-4.68-5.44-2.3-11.25-3.86-17.13-4.59-.92-.11-1.87-.21-2.74,.01s-1.65,.82-1.75,1.62c-.13,1.14,1.06,2.1,2.13,2.82,2.88,1.94,6.09,3.79,8.6,6.06,.77,.69,1.55,1.36,2.33,2.03-2.32-.49-4.72-.79-7.09-1.16-5.83-.92-11.84-1.06-17.73-.41-.92,.1-1.87,.23-2.66,.63-.8,.4-1.42,1.14-1.32,1.91,.14,1.09,1.53,1.71,2.74,2.15,3.25,1.16,6.81,2.16,9.79,3.7,1.46,.76,2.94,1.46,4.42,2.18-6.28,4.08-11.84,8.66-16.22,14.98-.72,1.04-1.4,2.15-1.64,3.4-.24,1.24,.05,2.66,1,3.49,1.29,1.12,3.23,.84,4.88,.41,3.8-1,7.21-3.04,10.91-4.3,3.86-1.31,7.37-1.51,11.4-1.95,.75-.08,1.5-.1,2.24-.07-4.83,1.17-9.22,3.36-12.03,6.28-4.35,4.51-7.76,8.96-8.98,13.88-.18,.74-.3,1.49,.03,2.16,.33,.66,1.21,1.22,2.42,1.27,1.63,.07,3.24-.74,4.52-1.52,2.94-1.8,5.07-3.94,7.81-5.83,1.62-1.11,3.3-2.02,5.06-2.89-2.85,5.69-4.99,12.83-5.75,21.78-.35,4.18,4.9,6.31,7.6,3.1,4.23-5.05,9.91-11.16,16.3-16.26-1.12,10.22-3.45,20.35-6.28,30.18-.22,.76-.44,1.53-.37,2.32,.04,.51,.23,.93,.5,1.28v37.28c-11.09-26.86-53.72-33.39-53.72-33.39,8.96,3.63,16.95,8,23.89,12.51-6.89-4.44-14.86-8.79-23.89-12.51,0,0,39.68,26.57,53.72,38.59v4.71h4.3v-22.17c4.9-3.56,27.08-19.59,35.86-24.21-23.85,2.04-33.11,16.75-35.86,22.56v-23.09c.81-.67,1.34-1.62,1.85-2.55,2.18-3.97,4.36-7.94,6.54-11.9,.39,1.14,1.01,2.11,2.03,2.65,1.03,.55,2.18,.31,2.54-.86,0,0,5.73-18.68,5.73-18.68,.06-.18,.11-.37,.16-.56,.92-1.26,1.85-2.51,2.77-3.77,1.91,2.5,3.81,4.99,5.72,7.49,2.31,3.03,4.62,6.05,6.93,9.08,1.75,2.29,4.19,6.55,7.68,4.69,1.33-.71,2.33-2.33,2-3.87,0,0-1.7-8.13-3.14-15.04,2.2,1.24,4.4,2.48,6.6,3.72,2.51,1.41,6.44,4.36,8.91,1.28,.94-1.18,1.22-3.06,.31-4.35,0,0-4.3-6.13-8.21-11.7,3.55,.11,7.11,.28,10.73,.45,.96,.05,2.02,.06,2.77-.53,.72-.57,.98-1.59,.85-2.5Zm-52.35,61.72c-3.67,2.79-7.27,5.98-10.44,9.56h0c3.11-3.57,6.72-6.76,10.44-9.56Z"/>
          <g>
            <path class="cls-10" d="M89.89,152.84s26.93-19.71,36.84-24.91c0,0-23.12,8.57-36.84,24.91Z"/>
            <path class="cls-11" d="M89.89,152.84s7.02-22.36,36.84-24.91c0,0-23.69,9.01-36.84,24.91Z"/>
            <path class="cls-8" d="M32.84,131s44.11,29.54,55.77,40.41c0,0-19.25-25.38-55.77-40.41Z"/>
            <path class="cls-9" d="M32.84,131s49.91,7.65,55.77,40.41c0,0-20.23-26.01-55.77-40.41Z"/>
            <path class="cls-11" d="M88.71,125h0c1.19,0,2.15,.96,2.15,2.15v47.15h-4.3v-47.15c0-1.19,.96-2.15,2.15-2.15Z"/>
          </g>
          <g>
            <path class="cls-19" d="M92.75,92.99c-1.11,10.34-3.46,20.59-6.32,30.53-.22,.76-.44,1.53-.37,2.32,.19,2.21,2.98,2.91,4.6,1.72,.92-.68,1.5-1.71,2.05-2.71,2.53-4.61,5.06-9.21,7.6-13.82,2.44-4.44,4.67-9.09,7.67-13.17,6.27-8.53,12.54-17.04,18.82-25.57,1.34-1.83,2.95-3.64,4.07-5.6-1.07-.6-2.53-.84-3.7-1.42-1.54-.75-3.1-1.47-4.67-2.14-3.24-1.39-6.56-2.6-9.93-3.65-6.55-2.02-13.3-3.38-20.13-4.04-2.6-.25-7.55-.07-7.92,3.31-.22,2.03,4.27,7.83,5.09,10.07,2.51,6.83,4.01,14.97,3.34,22.26-.06,.63-.12,1.27-.19,1.9Z"/>
            <rect class="cls-13" x="97.56" y="93.12" width=".82" height="35.62" rx=".41" ry=".41" transform="translate(65.96 -33.56) rotate(28.96)"/>
            <rect class="cls-18" x="97.92" y="87.27" width=".71" height="28.23" rx=".36" ry=".36" transform="translate(43.66 -28.82) rotate(21.35)"/>
            <rect class="cls-12" x="91.43" y="90.78" width=".73" height="35.62" rx=".36" ry=".36" transform="translate(28.97 -18.97) rotate(13.99)"/>
          </g>
          <path class="cls-2" d="M101.29,74.49c-.89-.48-1.87-.87-2.46-1.1-2.8-1.09-6.2-1.71-9.37-2.39-8.99-1.91-20.32,1.02-25.76,6.66-4.35,4.51-7.76,8.96-8.98,13.88-.18,.74-.3,1.49,.03,2.15s1.21,1.22,2.42,1.27c1.63,.07,3.24-.74,4.52-1.52,2.94-1.8,5.07-3.94,7.81-5.83,2.85-1.96,5.89-3.29,9.27-4.9,2.81-1.34,6.15-2.14,9.45-2.25,0,0,6.3-.22,6.31-.22,2.23-.08,5.03-.4,7.04-1.31,3.1-1.4,1.61-3.42-.29-4.44Z"/>
          <path class="cls-2" d="M95.31,77.86c.84-1.06,1.78-1.97,2.34-2.52,2.69-2.6,6.01-4.51,9.11-6.47,8.78-5.54,20.35-3.22,26.31,5.28,0,0,14.42,20.56,14.42,20.56,.91,1.29,.63,3.17-.31,4.35-2.47,3.08-6.4,.14-8.91-1.28-3.32-1.87-6.63-3.73-9.95-5.6-3.26-1.84-6.53-3.67-9.79-5.51-2.93-1.65-6.34-2.21-9.64-1.6,0,0-6.3,1.17-6.31,1.17-2.23,.41-5.06,.53-7.15-.56-3.22-1.68-1.94-5.57-.14-7.82Z"/>
          <path class="cls-2" d="M92.53,62.36c.92,.49,1.8,1.11,2.33,1.48,2.51,1.78,4.89,4.32,7.21,6.65,6.56,6.59,9.85,17.83,7.48,25.55,0,0-5.73,18.68-5.73,18.68-.36,1.17-1.52,1.42-2.54,.86-2.7-1.45-2.61-5.84-2.82-8.51-.27-3.54-.55-7.08-.82-10.61-.27-3.48-.54-6.96-.81-10.44-.24-3.12-1.28-6.4-2.93-9.27,0,0-3.14-5.47-3.15-5.48-1.11-1.94-2.3-4.5-2.52-6.71-.34-3.4,2.33-3.25,4.3-2.2Z"/>
          <path class="cls-2" d="M86.94,71.89c-1.48-1.02-2.78-2.24-4.1-3.4-4.57-4.02-9.67-7.63-15.16-10.74-2.9-1.63-5.99-2.97-8.95-4.51s-6.53-2.54-9.79-3.7c-1.21-.43-2.6-1.05-2.74-2.15-.1-.77,.52-1.51,1.32-1.91s1.74-.53,2.66-.63c5.88-.65,11.89-.51,17.73,.41,5.12,.81,10.41,1.26,14.65,4.06,5.91,3.91,10.73,8.86,14.37,14.36,1.87,2.83,1.01,6.37-2.07,8.34-1.85,1.18-4.46,1.86-6.51,.74-.49-.27-.96-.56-1.42-.88Z"/>
          <path class="cls-2" d="M109.05,68.12c3.66-3.87,8.51-7.39,14.44-10.11,3.98-1.82,7.26-2.76,12.29-2.9,4.9-.14,9.86,.35,14.4,1.46,.85,.21,1.71,.45,2.35,.84s1.04,.97,.8,1.49c-.26,.55-1.12,.91-1.92,1.23-9.91,3.91-19.36,7.63-27.89,12.64-2.26,1.32-3.74,2.58-7.17,2.61-2.59,.03-5.09-.69-6.67-1.91-2-1.55-2.25-3.65-.64-5.36Z"/>
          <path class="cls-2" d="M94.4,65.52c-1.6-6.6-2.16-13.42-1.29-19.87,.44-3.25,.56-8.3,2.77-10.72,1.93-2.11,5.84-1.05,8.4-.16,3.69,1.28,5.21,2.39,5.94,6.42,1.67,9.23,1.14,18.32-1.59,26.76-1.1,3.41-4.58,5.13-8.21,4.02-2.93-.89-5.3-3.43-6.03-6.45Z"/>
          <g>
            <path class="cls-4" d="M98.32,72.47c-.36-1.3-.86-2.51-1.17-3.24-1.45-3.44-3.76-6.51-5.84-9.53-5.89-8.54-17.45-10.95-26.27-5.48-7.06,4.38-13.29,9.23-18.11,16.18-.72,1.04-1.4,2.15-1.64,3.4-.24,1.24,.05,2.66,1,3.49,1.29,1.12,3.23,.84,4.88,.41,3.8-1,7.21-3.04,10.91-4.3,3.86-1.31,7.37-1.51,11.4-1.95,3.34-.37,6.7,.45,9.5,2.31,0,0,5.33,3.55,5.35,3.55,1.89,1.26,4.44,2.48,6.79,2.29,3.63-.28,3.97-4.36,3.2-7.14Z"/>
            <path class="cls-4" d="M93.52,73c1.19-.64,2.41-1.11,3.15-1.39,3.5-1.32,7.31-1.77,10.93-2.34,10.25-1.62,19.97,5.09,22.09,15.24,0,0,5.13,24.58,5.13,24.59,.32,1.54-.68,3.16-2,3.87-3.49,1.86-5.93-2.4-7.68-4.69-2.31-3.03-4.62-6.05-6.93-9.08-2.27-2.98-4.54-5.95-6.82-8.93-2.04-2.67-4.95-4.54-8.22-5.28,0,0-6.25-1.42-6.26-1.42-2.21-.5-4.86-1.51-6.34-3.33-2.3-2.82,.42-5.88,2.97-7.24Z"/>
            <path class="cls-4" d="M95.5,69.89c-1.19-1.38-2.15-2.92-3.15-4.41-3.45-5.15-7.52-10-12.1-14.44-2.42-2.33-5.09-4.42-7.59-6.67-2.52-2.27-5.73-4.11-8.6-6.06-1.07-.72-2.27-1.68-2.13-2.82,.09-.8,.88-1.4,1.75-1.62s1.82-.13,2.74-.01c5.88,.73,11.68,2.28,17.13,4.59,4.78,2.02,9.81,3.73,13.24,7.56,4.78,5.35,8.25,11.5,10.44,17.92,1.13,3.3-.58,6.69-4.05,7.95-2.09,.76-4.79,.83-6.5-.78-.41-.39-.8-.8-1.16-1.22Z"/>
            <path class="cls-4" d="M107.94,69.19c6.8-3.08,14.23-4.98,21.71-5.15,5.02-.12,8.6,.56,12.8,3.34,4.09,2.71,7.59,6.32,10.14,10.52,.48,.79,.93,1.62,1.06,2.53s-.12,1.93-.85,2.5c-.76,.6-1.81,.58-2.77,.53-11.89-.57-23.21-1.12-35.07,.61-3.14,.46-5.59,1.28-8.38-.71-2.11-1.5-3.42-3.95-3.46-6.54-.06-3.28,1.83-6.29,4.83-7.64Z"/>
            <path class="cls-4" d="M99.32,63.4c-7.27,2.15-27.78,11.01-30.51,43.1-.35,4.18,4.9,6.31,7.6,3.1,8.36-9.98,22.37-24.09,36.32-26.36,3.45-.56,4.78-4.82,2.31-7.29l-11.47-11.46c-1.11-1.11-2.74-1.53-4.25-1.09Z"/>
            <path class="cls-4" d="M98.57,66.2c2.31-6.6,5.77-12.9,10.42-18.21,2.35-2.67,5.43-7.08,9.02-8.17,3.14-.95,6.35,1.85,8.35,3.85,2.87,2.89,3.71,4.59,2.06,8.51-3.79,8.96-9.65,16.76-17.29,22.94-3.08,2.49-7.51,2.37-10.43-.34-2.35-2.18-3.18-5.55-2.13-8.58Z"/>
          </g>
          <ellipse class="cls-17" cx="104.3" cy="71.4" rx="8.71" ry="16.11" transform="translate(-4.47 135.77) rotate(-65.01)"/>
          <path class="cls-15" d="M101.32,73.67c7.51-4.13,11.4-12.76,9.53-21.13-.18-.81,.19-1.65,.9-1.89h0c.71-.23,1.53,.35,1.75,1.3,2.13,9.54-2.3,19.38-10.87,24.09-.85,.47-1.83,.23-2.13-.45h0c-.3-.69,.09-1.52,.82-1.92Z"/>
          <path class="cls-14" d="M101.07,74.12c5.28-6.76,5.46-16.22,.45-23.17-.48-.68-.48-1.59,.09-2.09h0c.56-.49,1.55-.29,2.11,.5,5.71,7.93,5.51,18.72-.51,26.42-.6,.77-1.59,.94-2.13,.42h0c-.55-.51-.52-1.43,0-2.09Z"/>
          <path class="cls-14" d="M100.12,75.21c.62-7.02-3.81-11.98-10.85-12.15-.68-.02-1.12-.49-.94-1.13h0c.18-.63,1-1.19,1.8-1.17,8.04,.19,13.09,5.84,12.38,13.85-.07,.8-.72,1.55-1.37,1.66h0c-.65,.11-1.07-.38-1.01-1.06Z"/>
          <path class="cls-15" d="M100.62,74.77c3.17-6.95,.79-14.38-5.83-18.18-.64-.37-.88-1.09-.48-1.65h0c.4-.56,1.39-.72,2.14-.29,7.55,4.34,10.27,12.81,6.65,20.74-.36,.79-1.25,1.24-1.91,1.01h0c-.66-.23-.88-.95-.57-1.62Z"/>
          <path class="cls-14" d="M103.2,75.46c6.32-2.3,10.58-8.53,10.43-15.26-.01-.65,.39-1.26,.97-1.36h0c.57-.09,1.11,.46,1.13,1.22,.17,7.67-4.68,14.78-11.89,17.4-.72,.26-1.42-.04-1.54-.61h0c-.12-.57,.3-1.17,.91-1.4Z"/>
          <path class="cls-15" d="M102.2,74.85c7.06,.7,13.71-3.38,16.27-9.99,.25-.64,.89-1.04,1.49-.87h0c.59,.18,.89,.96,.6,1.71-2.93,7.54-10.51,12.19-18.56,11.39-.8-.08-1.36-.7-1.25-1.31h0c.11-.61,.76-1,1.45-.93Z"/>
          <path class="cls-15" d="M109.21,48.48c-.33-1.51-3.58-2.08-7.27-1.29-3.69,.8-6.42,2.67-6.09,4.17,0,0,0,.01,0,.02l13.36-2.89s0-.01,0-.02Z"/>
          <path class="cls-3" d="M91.84,58.9c-.8-.52-2.48,.66-3.74,2.63-1.26,1.97-1.63,3.98-.83,4.49,0,0,0,0,.01,0l4.57-7.12s0,0-.01,0Z"/>
          <path class="cls-3" d="M119.11,60.16c.12-.95-1.66-1.96-3.97-2.25-2.32-.3-4.29,.23-4.42,1.17,0,0,0,0,0,.01l8.39,1.08s0,0,0-.01Z"/>
          <path class="cls-3" d="M98.94,53.35c-.47-.83-2.5-.58-4.53,.57s-3.3,2.75-2.84,3.58c0,0,0,0,0,.01l7.37-4.15s0,0,0-.01Z"/>
          <path class="cls-3" d="M123.58,64.35c-.09-.95-2.05-1.54-4.38-1.31s-4.14,1.18-4.04,2.13c0,0,0,0,0,.01l8.42-.82s0,0,0-.01Z"/>
          <path class="cls-3" d="M116.14,51.38c0-.95-1.89-1.73-4.23-1.73-2.34,0-4.23,.77-4.23,1.73,0,0,0,0,0,.01h8.46s0,0,0-.01Z"/>
          <path class="cls-3" d="M102.14,59.72c-.49-.82-2.51-.52-4.52,.67-2.01,1.19-3.24,2.82-2.76,3.65,0,0,0,0,0,.01l7.27-4.32s0,0,0-.01Z"/>
          <g>
            <path class="cls-7" d="M49.64,74.42s7.16-8.41,27.81-8.06c0,0-17.15,2.44-27.81,8.06Z"/>
            <path class="cls-16" d="M58.02,66.89s6.42-5.17,21.51-2.04c0,0-12.91-.59-21.51,2.04Z"/>
          </g>
        </g>
      </g>
    </g>
  </g>
</svg>