<?xml version="1.0" encoding="UTF-8"?>
<svg id="_圖層_2" data-name="圖層 2" xmlns="http://www.w3.org/2000/svg" viewBox="0 0 174.21 174.21">
  <defs>
    <style>
      .cls-1 {
        fill: #fff;
      }

      .cls-2 {
        fill: #6f7064;
        opacity: .5;
      }
    </style>
  </defs>
  <g id="txt">
    <circle class="cls-2" cx="87.1" cy="87.1" r="87.1"/>
    <path class="cls-1" d="M87.74,53.5c-22.95,0-41.56,14.86-41.56,33.2,0,10.53,6.15,19.9,15.73,25.99-1.28,7.3-1.04,7.59-7.21,15.81,0,0,10.2,2.23,24.86-9.24,2.65,.42,5.37,.65,8.17,.65,22.95,0,41.56-14.87,41.56-33.2s-18.61-33.21-41.56-33.21Zm-16.95,44.55h-11.8v-20.52h4.82v16.01h6.98v4.51Zm7.74,0h-4.82v-20.52h4.82v20.52Zm21.83,0h-4.69l-7.61-12.12v12.12h-4.74v-20.52h4.87l7.41,11.93v-11.93h4.75v20.52Zm16.73,0h-11.95v-20.52h11.54v4.51h-6.72v3.38h6.24v4.5h-6.24v3.62h7.13v4.51Z"/>
  </g>
</svg>