<?xml version="1.0" encoding="UTF-8"?>
<svg id="_圖層_2" data-name="圖層 2" xmlns="http://www.w3.org/2000/svg" xmlns:xlink="http://www.w3.org/1999/xlink" viewBox="0 0 186.43 175.88">
  <defs>
    <style>
      .cls-1 {
        fill: url(#_未命名漸層_469-2);
      }

      .cls-1, .cls-2, .cls-3, .cls-4, .cls-5, .cls-6, .cls-7, .cls-8, .cls-9, .cls-10, .cls-11, .cls-12, .cls-13, .cls-14, .cls-15, .cls-16 {
        opacity: .5;
      }

      .cls-17, .cls-18 {
        fill: #fff;
      }

      .cls-19 {
        fill: url(#_未命名漸層_152);
      }

      .cls-20 {
        fill: #84bf79;
      }

      .cls-2 {
        fill: url(#_未命名漸層_94-7);
      }

      .cls-3 {
        fill: url(#_未命名漸層_94-4);
      }

      .cls-5 {
        fill: url(#_未命名漸層_94-3);
      }

      .cls-6 {
        fill: url(#_未命名漸層_94-2);
      }

      .cls-7 {
        fill: url(#_未命名漸層_94-9);
      }

      .cls-8 {
        fill: url(#_未命名漸層_94-6);
      }

      .cls-18 {
        opacity: .7;
      }

      .cls-21 {
        fill: #768672;
      }

      .cls-9 {
        fill: url(#_未命名漸層_94);
      }

      .cls-10 {
        fill: url(#_未命名漸層_94-8);
      }

      .cls-11 {
        fill: #acb27d;
      }

      .cls-12 {
        fill: url(#_未命名漸層_469-3);
      }

      .cls-22 {
        clip-path: url(#clippath);
      }

      .cls-23 {
        fill: none;
      }

      .cls-13 {
        fill: url(#_未命名漸層_469-4);
      }

      .cls-14 {
        fill: url(#_未命名漸層_94-5);
      }

      .cls-24 {
        fill: #427251;
      }

      .cls-15 {
        fill: url(#_未命名漸層_469);
      }

      .cls-16 {
        fill: url(#_未命名漸層_469-5);
      }
    </style>
    <linearGradient id="_未命名漸層_152" data-name="未命名漸層 152" x1="82.82" y1="175.87" x2="82.82" y2="22.91" gradientUnits="userSpaceOnUse">
      <stop offset="0" stop-color="#cfdbd0" stop-opacity=".2"/>
      <stop offset="1" stop-color="#cddace"/>
    </linearGradient>
    <linearGradient id="_未命名漸層_469" data-name="未命名漸層 469" x1="52.31" y1="112.16" x2="69.46" y2="112.16" gradientUnits="userSpaceOnUse">
      <stop offset="0" stop-color="#cedbf5"/>
      <stop offset=".92" stop-color="#f7ffff"/>
    </linearGradient>
    <linearGradient id="_未命名漸層_94" data-name="未命名漸層 94" x1="3379.52" y1="-1255.2" x2="3387.69" y2="-1255.2" gradientTransform="translate(-2508.54 -2435.23) rotate(65.1)" gradientUnits="userSpaceOnUse">
      <stop offset="0" stop-color="#fff" stop-opacity="0"/>
      <stop offset=".37" stop-color="#faffd0" stop-opacity=".54"/>
      <stop offset=".92" stop-color="#f7ffaf"/>
    </linearGradient>
    <linearGradient id="_未命名漸層_469-2" data-name="未命名漸層 469" x1="59.74" y1="139.9" x2="76.89" y2="139.9" xlink:href="#_未命名漸層_469"/>
    <linearGradient id="_未命名漸層_94-2" data-name="未命名漸層 94" x1="3407.8" y1="-1250.27" x2="3415.98" y2="-1250.27" xlink:href="#_未命名漸層_94"/>
    <linearGradient id="_未命名漸層_469-3" data-name="未命名漸層 469" x1="1.29" y1="41.02" x2="18.45" y2="41.02" xlink:href="#_未命名漸層_469"/>
    <linearGradient id="_未命名漸層_94-3" data-name="未命名漸層 94" x1="3293.51" y1="-1238.88" x2="3301.68" y2="-1238.88" xlink:href="#_未命名漸層_94"/>
    <linearGradient id="_未命名漸層_469-4" data-name="未命名漸層 469" x1="22.59" y1="61.73" x2="39.74" y2="61.73" xlink:href="#_未命名漸層_469"/>
    <linearGradient id="_未命名漸層_94-4" data-name="未命名漸層 94" x1="3321.26" y1="-1249.48" x2="3329.44" y2="-1249.48" xlink:href="#_未命名漸層_94"/>
    <linearGradient id="_未命名漸層_469-5" data-name="未命名漸層 469" x1="40.92" y1="85.42" x2="58.07" y2="85.42" xlink:href="#_未命名漸層_469"/>
    <linearGradient id="_未命名漸層_94-5" data-name="未命名漸層 94" x1="3350.46" y1="-1256.13" x2="3358.63" y2="-1256.13" xlink:href="#_未命名漸層_94"/>
    <clipPath id="clippath">
      <polygon class="cls-23" points="98.79 174.19 102.12 174.19 170.33 122.76 160.3 97.71 109.93 135.95 98.79 174.19"/>
    </clipPath>
    <linearGradient id="_未命名漸層_94-6" data-name="未命名漸層 94" x1="-677.09" y1=".34" x2="-661.3" y2=".34" gradientTransform="translate(681.28 -83.46) rotate(-11.8)" xlink:href="#_未命名漸層_94"/>
    <linearGradient id="_未命名漸層_94-7" data-name="未命名漸層 94" x1="-662.94" y1="27.08" x2="-647.15" y2="27.08" gradientTransform="translate(681.28 -83.46) rotate(-11.8)" xlink:href="#_未命名漸層_94"/>
    <linearGradient id="_未命名漸層_94-8" data-name="未命名漸層 94" x1="-659.4" y1="56.15" x2="-643.61" y2="56.15" gradientTransform="translate(681.28 -83.46) rotate(-11.8)" xlink:href="#_未命名漸層_94"/>
    <linearGradient id="_未命名漸層_94-9" data-name="未命名漸層 94" x1="-657.42" y1="85.41" x2="-641.63" y2="85.41" gradientTransform="translate(681.28 -83.46) rotate(-11.8)" xlink:href="#_未命名漸層_94"/>
  </defs>
  <g id="txt">
    <circle class="cls-11" cx="99.33" cy="87.1" r="87.1"/>
    <g>
      <g>
        <path class="cls-17" d="M165.64,66.22c-21.48,4-36.61,13.45-47.25,25.2,6.72-19.44,13.78-38.16,18.98-47.68-32.79,13.96-42.71,41.86-44.44,66.3-1.7-5.99-3.69-11.77-5.95-17.3-12.36-30.51-32.73-53.42-55.37-67.42-.24-.15-.48-.28-.72-.38-.05-.06-.1-.12-.15-.18-1.09-1.2-2.59-1.42-4.12-1.67-4.79-.78-9.51,.95-12.79,4.34-4.28-1.96-9.77-.65-12.42,3.95h0c-1.85,3.21-1.63,6.82-.01,9.63l-1.41,4.01c.07,.17,.08,.19,.15,.36,.76,.1,1.65-.72,2.1-1.98,.07,.17,.15,.34,.24,.51l-1.28,3.66c.05,.13,.07,.18,.11,.28l-.04,.13c.06,.17,.07,.19,.13,.36,.4,.06,.84-.22,1.21-.71,.3-.19,.58-.46,.84-.8l-1.14,3.69c.06,.16,.07,.2,.13,.36,.93,.23,2.06-.91,2.6-2.7,.09-.3,.16-.6,.21-.9,.08,.06,.17,.12,.25,.18l-.53,2.2c.07,.16,.08,.18,.15,.34,.36,0,.73-.26,1.06-.7,.06,.08,.09,.12,.16,.23,.22-.03,.43-.12,.64-.26l-.33,2.91c.08,.14,.1,.16,.19,.3,.92-.14,1.79-1.65,2.01-3.55,0-.07,.01-.13,.02-.2,.08,.01,.17,.02,.25,.03l-.04,2.12c.1,.12,.12,.14,.22,.25,.55-.26,1-1.21,1.13-2.36,.15-.01,.29-.03,.43-.05,.25,1.81,1.09,3.24,1.98,3.37,.08-.14,.1-.16,.18-.3l-.32-2.84c.16,.09,.33,.16,.5,.18,.1-.14,.12-.16,.21-.3v-.06c.33,.52,.75,.84,1.14,.83,.07-.16,.08-.18,.15-.34l-.45-1.87c.08-.06,.16-.12,.24-.18,.04,.19,.09,.37,.15,.56,.55,1.79,1.68,2.93,2.6,2.7,.06-.16,.07-.2,.13-.36l-1.06-3.45c.28,.31,.58,.54,.88,.7,.35,.41,.74,.62,1.1,.57,.06-.17,.07-.19,.13-.36l-.1-.31s.02-.06,.04-.09l-.54-1.55-.56-1.82c.07-.15,.14-.29,.2-.44,.47,1.06,1.27,1.72,1.95,1.63,.07-.17,.08-.19,.15-.36l-1.33-3.78c1.54-2.79,1.72-6.33-.1-9.48h0c-.56-.97-1.25-1.8-2.03-2.47,1.12-.74,2.37-1.29,3.68-1.58,2.51-.56,5.22-.21,7.52,.95,.58,.29,1.14,.62,1.76,.82,.47,.59,1.05,1.13,1.71,1.56,5.96,3.89,11.76,8.45,17.27,13.65-5-.92-10.25,.25-14.39,3.31-1.36-.37-2.79-.44-4.18-.21-.43-.24-.9-.45-1.4-.61-5.42-1.75-10.7,3.03-9.51,8.6h0c.46,2.15,1.76,3.79,3.41,4.78,.19,.54,.43,1.06,.72,1.56l-1.41,4.01c.07,.17,.08,.19,.15,.36,.76,.1,1.65-.72,2.1-1.98,.07,.17,.15,.34,.24,.51l-1.28,3.66c.05,.13,.07,.18,.11,.28l-.04,.13c.06,.17,.07,.19,.13,.36,.4,.06,.84-.22,1.21-.71,.3-.19,.58-.46,.84-.8l-1.14,3.69c.06,.16,.07,.2,.13,.36,.93,.23,2.06-.91,2.6-2.7,.09-.3,.16-.6,.21-.9,.08,.06,.17,.12,.25,.18l-.53,2.2c.07,.16,.08,.18,.15,.34,.36,0,.73-.26,1.06-.7,.06,.08,.09,.12,.16,.23,.22-.03,.43-.12,.64-.26l-.33,2.91c.08,.14,.1,.16,.18,.3,.92-.14,1.79-1.65,2.01-3.55,0-.07,.01-.13,.02-.2,.08,.01,.17,.02,.25,.03l-.04,2.12c.1,.12,.12,.14,.22,.25,.55-.26,1-1.21,1.13-2.36,.15-.01,.29-.03,.43-.05,.25,1.81,1.09,3.24,1.98,3.37,.08-.14,.1-.16,.18-.3l-.32-2.84c.16,.09,.33,.16,.5,.18,.1-.14,.12-.16,.21-.3v-.06c.33,.52,.75,.84,1.14,.83,.07-.16,.08-.18,.15-.34l-.45-1.87c.08-.06,.16-.12,.24-.18,.04,.19,.09,.37,.15,.56,.55,1.79,1.68,2.93,2.6,2.7,.06-.16,.07-.2,.13-.36l-1.06-3.45c.28,.31,.58,.54,.88,.7,.35,.41,.74,.62,1.1,.57,.06-.17,.07-.19,.13-.36l-.1-.31s.02-.06,.04-.09l-.54-1.55-.56-1.82c.07-.15,.14-.29,.2-.44,.47,1.06,1.27,1.72,1.95,1.63,.07-.17,.08-.19,.15-.36l-1.33-3.78c1.54-2.79,1.72-6.33-.1-9.48h0c-.88-1.52-2.06-2.67-3.41-3.47,4.59-2.87,10.44-3.29,15.44-.96,6.41,6.5,12.37,13.9,17.69,22.14-5.24-2.03-11.05-1.23-15.54,2.11-1.37-.66-2.88-.98-4.38-.95-.55-.36-1.17-.66-1.84-.88h0c-5.42-1.75-10.7,3.03-9.51,8.6h0c.32,1.5,1.05,2.74,2.02,3.7,.2,1.07,.58,2.1,1.12,3.04l-1.41,4.01c.07,.17,.08,.19,.15,.36,.76,.1,1.65-.72,2.1-1.98,.07,.17,.15,.34,.24,.51l-1.28,3.66c.05,.13,.07,.18,.11,.28l-.04,.13c.06,.17,.07,.19,.13,.36,.4,.06,.84-.22,1.21-.71,.3-.19,.58-.46,.84-.8l-1.14,3.69c.06,.16,.07,.2,.13,.36,.93,.23,2.06-.91,2.6-2.7,.09-.3,.16-.6,.21-.9,.08,.06,.17,.12,.25,.18l-.53,2.2c.07,.16,.08,.18,.15,.34,.36,0,.73-.26,1.06-.7,.06,.08,.09,.12,.16,.23,.22-.03,.43-.12,.64-.26l-.33,2.91c.08,.14,.1,.16,.18,.3,.92-.14,1.79-1.65,2.01-3.55,0-.07,.01-.13,.02-.2,.08,.01,.17,.02,.25,.03l-.04,2.12c.1,.12,.12,.14,.22,.25,.55-.26,1-1.21,1.13-2.36,.15-.01,.29-.03,.43-.05,.25,1.81,1.09,3.24,1.98,3.37,.08-.14,.1-.16,.19-.3l-.32-2.84c.16,.09,.33,.16,.5,.18,.1-.14,.12-.16,.21-.3v-.06c.33,.52,.75,.84,1.14,.83,.07-.16,.08-.18,.15-.34l-.45-1.87c.08-.06,.16-.12,.24-.18,.04,.19,.09,.37,.15,.56,.55,1.79,1.68,2.93,2.6,2.7,.06-.16,.07-.2,.13-.36l-1.06-3.45c.28,.31,.58,.54,.88,.7,.35,.41,.74,.62,1.1,.57,.06-.17,.07-.19,.13-.36l-.1-.31s.02-.06,.04-.09l-.54-1.55-.56-1.82c.07-.15,.14-.29,.2-.44,.47,1.06,1.27,1.72,1.95,1.63,.07-.17,.08-.19,.15-.36l-1.33-3.78c1.54-2.79,1.72-6.33-.1-9.48h0c-.59-1.02-1.32-1.88-2.14-2.57,4.45-2.88,10.16-3.09,14.95-.29,.21,.12,.43,.18,.65,.19,4.44,7.3,8.38,15.23,11.67,23.74-5.88-2.62-12.55-1.85-17.64,1.95-2.32-1.2-5.06-1.41-7.52-.6-.3-.14-.61-.27-.94-.37h0c-5.42-1.75-10.7,3.03-9.51,8.6h0c.6,2.79,2.6,4.73,4.98,5.49,.05,.08,.09,.17,.14,.26l-1.41,4.01c.07,.17,.08,.19,.15,.36,.76,.1,1.65-.72,2.1-1.98,.07,.17,.15,.34,.24,.51l-1.28,3.66c.05,.13,.07,.18,.11,.28l-.04,.13c.06,.17,.07,.19,.13,.36,.4,.06,.84-.22,1.21-.71,.3-.19,.58-.46,.84-.8l-1.14,3.69c.06,.16,.07,.2,.13,.36,.93,.23,2.06-.91,2.6-2.7,.09-.3,.16-.6,.21-.9,.08,.06,.17,.12,.25,.18l-.53,2.2c.07,.16,.08,.18,.15,.34,.36,0,.73-.26,1.06-.7,.06,.08,.09,.12,.16,.23,.22-.03,.43-.12,.64-.26l-.33,2.91c.08,.14,.1,.16,.19,.3,.92-.14,1.79-1.65,2.01-3.55,0-.07,.01-.13,.02-.2,.08,.01,.17,.02,.25,.03l-.04,2.12c.1,.12,.12,.14,.22,.25,.55-.26,1-1.21,1.13-2.36,.15-.01,.29-.03,.43-.05,.25,1.81,1.09,3.24,1.98,3.37,.08-.14,.1-.16,.19-.3l-.32-2.84c.16,.09,.33,.16,.5,.18,.1-.14,.12-.16,.21-.3v-.06c.33,.52,.75,.84,1.14,.83,.07-.16,.08-.18,.15-.34l-.45-1.87c.08-.06,.16-.12,.24-.18,.04,.19,.09,.37,.15,.56,.55,1.79,1.68,2.93,2.6,2.7,.06-.16,.07-.2,.13-.36l-1.06-3.45c.28,.31,.58,.54,.88,.7,.35,.41,.74,.62,1.1,.57,.06-.17,.07-.19,.13-.36l-.1-.31s.02-.06,.04-.09l-.54-1.55-.56-1.82c.07-.15,.14-.29,.2-.44,.47,1.06,1.27,1.72,1.95,1.63,.07-.17,.08-.19,.15-.36l-1.33-3.78c1.54-2.79,1.72-6.33-.1-9.48h0c-.51-.88-1.13-1.64-1.82-2.28,4.82-3.18,11.04-3.43,16.26-.39,.16,.09,.33,.15,.5,.18,3.12,8.5,5.59,17.54,7.34,27.01-5.5-2.67-11.78-2.3-16.83,.8-2.73-2.42-6.56-3.01-9.84-1.78-.02,0-.03-.01-.05-.02h0c-5.42-1.75-10.7,3.03-9.51,8.6h0c.57,2.64,2.38,4.51,4.59,5.35l-1.37,3.91c.07,.17,.08,.19,.15,.36,.76,.1,1.65-.72,2.1-1.98,.07,.17,.15,.34,.24,.51l-1.28,3.66c.05,.13,.07,.18,.11,.28l-.04,.13c.06,.17,.07,.19,.13,.36,.4,.06,.84-.22,1.21-.71,.3-.19,.58-.46,.84-.8l-1.14,3.69c.06,.16,.07,.2,.13,.36,.93,.23,2.06-.91,2.6-2.7,.09-.3,.16-.6,.21-.9,.08,.06,.17,.12,.25,.18l-.53,2.2c.07,.16,.08,.18,.15,.34,.36,0,.73-.26,1.06-.7,.06,.08,.09,.12,.16,.23,.22-.03,.43-.12,.64-.26l-.33,2.91c.08,.14,.1,.16,.19,.3,.92-.14,1.79-1.65,2.01-3.55,0-.07,.01-.13,.02-.2,.08,.01,.17,.02,.25,.03l-.04,2.12c.1,.12,.12,.14,.22,.25,.55-.26,1-1.21,1.13-2.36,.15-.01,.29-.03,.43-.05,.25,1.81,1.09,3.24,1.98,3.37,.08-.14,.1-.16,.18-.3l-.32-2.84c.16,.09,.33,.16,.5,.18,.1-.14,.12-.16,.21-.3v-.06c.33,.52,.75,.84,1.14,.83,.07-.16,.08-.18,.15-.34l-.45-1.87c.08-.06,.16-.12,.24-.18,.04,.19,.09,.37,.15,.56,.55,1.79,1.68,2.93,2.6,2.7,.06-.16,.07-.2,.13-.36l-1.06-3.45c.28,.31,.58,.54,.88,.7,.35,.41,.74,.62,1.1,.57,.06-.17,.07-.19,.13-.36l-.1-.31s.02-.06,.04-.09l-.54-1.55-.56-1.82c.07-.15,.14-.29,.2-.44,.47,1.06,1.27,1.72,1.95,1.63,.07-.17,.08-.19,.15-.36l-1.33-3.78c1.54-2.79,1.72-6.33-.1-9.48h0c-.11-.2-.23-.39-.36-.57,4.69-2.67,10.49-2.73,15.4,.13,.11,.06,.22,.11,.33,.14,1.17,6.97,1.94,14.16,2.29,21.5-1.3,12.83-.52,22.02-.53,22.65h.23s0,.05,0,.07h5.24s0-.03,0-.04h1.02s.51,0,.51,0c-.32,.57-.64,1.14-.96,1.72,.32-.58,.65-1.15,.97-1.72l7.05,.04c.93-3.47,2.1-7.11,3.48-10.87,14.32-15.48,38.22-40.78,49.02-49.09-12.84-.2-23.27,4.67-31.61,11.76,15.15-27.96,32.76-53.69,36.32-58.83,.42-.61,.65-.93,.65-.93Zm-62.83,50.16c-.02,.05-.04,.1-.06,.15,.51-2.08,1.04-4.14,1.61-6.15-.54,1.96-1.05,3.96-1.54,6Z"/>
        <path class="cls-19" d="M165.64,66.22c-21.48,4-36.61,13.45-47.25,25.2,6.72-19.44,13.78-38.16,18.98-47.68-32.79,13.96-42.71,41.86-44.44,66.3-1.7-5.99-3.69-11.77-5.95-17.3-12.36-30.51-32.73-53.42-55.37-67.42-.24-.15-.48-.28-.72-.38-.05-.06-.1-.12-.15-.18-1.09-1.2-2.59-1.42-4.12-1.67-4.79-.78-9.51,.95-12.79,4.34-4.28-1.96-9.77-.65-12.42,3.95h0c-1.85,3.21-1.63,6.82-.01,9.63l-1.41,4.01c.07,.17,.08,.19,.15,.36,.76,.1,1.65-.72,2.1-1.98,.07,.17,.15,.34,.24,.51l-1.28,3.66c.05,.13,.07,.18,.11,.28l-.04,.13c.06,.17,.07,.19,.13,.36,.4,.06,.84-.22,1.21-.71,.3-.19,.58-.46,.84-.8l-1.14,3.69c.06,.16,.07,.2,.13,.36,.93,.23,2.06-.91,2.6-2.7,.09-.3,.16-.6,.21-.9,.08,.06,.17,.12,.25,.18l-.53,2.2c.07,.16,.08,.18,.15,.34,.36,0,.73-.26,1.06-.7,.06,.08,.09,.12,.16,.23,.22-.03,.43-.12,.64-.26l-.33,2.91c.08,.14,.1,.16,.19,.3,.92-.14,1.79-1.65,2.01-3.55,0-.07,.01-.13,.02-.2,.08,.01,.17,.02,.25,.03l-.04,2.12c.1,.12,.12,.14,.22,.25,.55-.26,1-1.21,1.13-2.36,.15-.01,.29-.03,.43-.05,.25,1.81,1.09,3.24,1.98,3.37,.08-.14,.1-.16,.18-.3l-.32-2.84c.16,.09,.33,.16,.5,.18,.1-.14,.12-.16,.21-.3v-.06c.33,.52,.75,.84,1.14,.83,.07-.16,.08-.18,.15-.34l-.45-1.87c.08-.06,.16-.12,.24-.18,.04,.19,.09,.37,.15,.56,.55,1.79,1.68,2.93,2.6,2.7,.06-.16,.07-.2,.13-.36l-1.06-3.45c.28,.31,.58,.54,.88,.7,.35,.41,.74,.62,1.1,.57,.06-.17,.07-.19,.13-.36l-.1-.31s.02-.06,.04-.09l-.54-1.55-.56-1.82c.07-.15,.14-.29,.2-.44,.47,1.06,1.27,1.72,1.95,1.63,.07-.17,.08-.19,.15-.36l-1.33-3.78c1.54-2.79,1.72-6.33-.1-9.48h0c-.56-.97-1.25-1.8-2.03-2.47,1.12-.74,2.37-1.29,3.68-1.58,2.51-.56,5.22-.21,7.52,.95,.58,.29,1.14,.62,1.76,.82,.47,.59,1.05,1.13,1.71,1.56,5.96,3.89,11.76,8.45,17.27,13.65-5-.92-10.25,.25-14.39,3.31-1.36-.37-2.79-.44-4.18-.21-.43-.24-.9-.45-1.4-.61-5.42-1.75-10.7,3.03-9.51,8.6h0c.46,2.15,1.76,3.79,3.41,4.78,.19,.54,.43,1.06,.72,1.56l-1.41,4.01c.07,.17,.08,.19,.15,.36,.76,.1,1.65-.72,2.1-1.98,.07,.17,.15,.34,.24,.51l-1.28,3.66c.05,.13,.07,.18,.11,.28l-.04,.13c.06,.17,.07,.19,.13,.36,.4,.06,.84-.22,1.21-.71,.3-.19,.58-.46,.84-.8l-1.14,3.69c.06,.16,.07,.2,.13,.36,.93,.23,2.06-.91,2.6-2.7,.09-.3,.16-.6,.21-.9,.08,.06,.17,.12,.25,.18l-.53,2.2c.07,.16,.08,.18,.15,.34,.36,0,.73-.26,1.06-.7,.06,.08,.09,.12,.16,.23,.22-.03,.43-.12,.64-.26l-.33,2.91c.08,.14,.1,.16,.18,.3,.92-.14,1.79-1.65,2.01-3.55,0-.07,.01-.13,.02-.2,.08,.01,.17,.02,.25,.03l-.04,2.12c.1,.12,.12,.14,.22,.25,.55-.26,1-1.21,1.13-2.36,.15-.01,.29-.03,.43-.05,.25,1.81,1.09,3.24,1.98,3.37,.08-.14,.1-.16,.18-.3l-.32-2.84c.16,.09,.33,.16,.5,.18,.1-.14,.12-.16,.21-.3v-.06c.33,.52,.75,.84,1.14,.83,.07-.16,.08-.18,.15-.34l-.45-1.87c.08-.06,.16-.12,.24-.18,.04,.19,.09,.37,.15,.56,.55,1.79,1.68,2.93,2.6,2.7,.06-.16,.07-.2,.13-.36l-1.06-3.45c.28,.31,.58,.54,.88,.7,.35,.41,.74,.62,1.1,.57,.06-.17,.07-.19,.13-.36l-.1-.31s.02-.06,.04-.09l-.54-1.55-.56-1.82c.07-.15,.14-.29,.2-.44,.47,1.06,1.27,1.72,1.95,1.63,.07-.17,.08-.19,.15-.36l-1.33-3.78c1.54-2.79,1.72-6.33-.1-9.48h0c-.88-1.52-2.06-2.67-3.41-3.47,4.59-2.87,10.44-3.29,15.44-.96,6.41,6.5,12.37,13.9,17.69,22.14-5.24-2.03-11.05-1.23-15.54,2.11-1.37-.66-2.88-.98-4.38-.95-.55-.36-1.17-.66-1.84-.88h0c-5.42-1.75-10.7,3.03-9.51,8.6h0c.32,1.5,1.05,2.74,2.02,3.7,.2,1.07,.58,2.1,1.12,3.04l-1.41,4.01c.07,.17,.08,.19,.15,.36,.76,.1,1.65-.72,2.1-1.98,.07,.17,.15,.34,.24,.51l-1.28,3.66c.05,.13,.07,.18,.11,.28l-.04,.13c.06,.17,.07,.19,.13,.36,.4,.06,.84-.22,1.21-.71,.3-.19,.58-.46,.84-.8l-1.14,3.69c.06,.16,.07,.2,.13,.36,.93,.23,2.06-.91,2.6-2.7,.09-.3,.16-.6,.21-.9,.08,.06,.17,.12,.25,.18l-.53,2.2c.07,.16,.08,.18,.15,.34,.36,0,.73-.26,1.06-.7,.06,.08,.09,.12,.16,.23,.22-.03,.43-.12,.64-.26l-.33,2.91c.08,.14,.1,.16,.18,.3,.92-.14,1.79-1.65,2.01-3.55,0-.07,.01-.13,.02-.2,.08,.01,.17,.02,.25,.03l-.04,2.12c.1,.12,.12,.14,.22,.25,.55-.26,1-1.21,1.13-2.36,.15-.01,.29-.03,.43-.05,.25,1.81,1.09,3.24,1.98,3.37,.08-.14,.1-.16,.19-.3l-.32-2.84c.16,.09,.33,.16,.5,.18,.1-.14,.12-.16,.21-.3v-.06c.33,.52,.75,.84,1.14,.83,.07-.16,.08-.18,.15-.34l-.45-1.87c.08-.06,.16-.12,.24-.18,.04,.19,.09,.37,.15,.56,.55,1.79,1.68,2.93,2.6,2.7,.06-.16,.07-.2,.13-.36l-1.06-3.45c.28,.31,.58,.54,.88,.7,.35,.41,.74,.62,1.1,.57,.06-.17,.07-.19,.13-.36l-.1-.31s.02-.06,.04-.09l-.54-1.55-.56-1.82c.07-.15,.14-.29,.2-.44,.47,1.06,1.27,1.72,1.95,1.63,.07-.17,.08-.19,.15-.36l-1.33-3.78c1.54-2.79,1.72-6.33-.1-9.48h0c-.59-1.02-1.32-1.88-2.14-2.57,4.45-2.88,10.16-3.09,14.95-.29,.21,.12,.43,.18,.65,.19,4.44,7.3,8.38,15.23,11.67,23.74-5.88-2.62-12.55-1.85-17.64,1.95-2.32-1.2-5.06-1.41-7.52-.6-.3-.14-.61-.27-.94-.37h0c-5.42-1.75-10.7,3.03-9.51,8.6h0c.6,2.79,2.6,4.73,4.98,5.49,.05,.08,.09,.17,.14,.26l-1.41,4.01c.07,.17,.08,.19,.15,.36,.76,.1,1.65-.72,2.1-1.98,.07,.17,.15,.34,.24,.51l-1.28,3.66c.05,.13,.07,.18,.11,.28l-.04,.13c.06,.17,.07,.19,.13,.36,.4,.06,.84-.22,1.21-.71,.3-.19,.58-.46,.84-.8l-1.14,3.69c.06,.16,.07,.2,.13,.36,.93,.23,2.06-.91,2.6-2.7,.09-.3,.16-.6,.21-.9,.08,.06,.17,.12,.25,.18l-.53,2.2c.07,.16,.08,.18,.15,.34,.36,0,.73-.26,1.06-.7,.06,.08,.09,.12,.16,.23,.22-.03,.43-.12,.64-.26l-.33,2.91c.08,.14,.1,.16,.19,.3,.92-.14,1.79-1.65,2.01-3.55,0-.07,.01-.13,.02-.2,.08,.01,.17,.02,.25,.03l-.04,2.12c.1,.12,.12,.14,.22,.25,.55-.26,1-1.21,1.13-2.36,.15-.01,.29-.03,.43-.05,.25,1.81,1.09,3.24,1.98,3.37,.08-.14,.1-.16,.19-.3l-.32-2.84c.16,.09,.33,.16,.5,.18,.1-.14,.12-.16,.21-.3v-.06c.33,.52,.75,.84,1.14,.83,.07-.16,.08-.18,.15-.34l-.45-1.87c.08-.06,.16-.12,.24-.18,.04,.19,.09,.37,.15,.56,.55,1.79,1.68,2.93,2.6,2.7,.06-.16,.07-.2,.13-.36l-1.06-3.45c.28,.31,.58,.54,.88,.7,.35,.41,.74,.62,1.1,.57,.06-.17,.07-.19,.13-.36l-.1-.31s.02-.06,.04-.09l-.54-1.55-.56-1.82c.07-.15,.14-.29,.2-.44,.47,1.06,1.27,1.72,1.95,1.63,.07-.17,.08-.19,.15-.36l-1.33-3.78c1.54-2.79,1.72-6.33-.1-9.48h0c-.51-.88-1.13-1.64-1.82-2.28,4.82-3.18,11.04-3.43,16.26-.39,.16,.09,.33,.15,.5,.18,3.12,8.5,5.59,17.54,7.34,27.01-5.5-2.67-11.78-2.3-16.83,.8-2.73-2.42-6.56-3.01-9.84-1.78-.02,0-.03-.01-.05-.02h0c-5.42-1.75-10.7,3.03-9.51,8.6h0c.57,2.64,2.38,4.51,4.59,5.35l-1.37,3.91c.07,.17,.08,.19,.15,.36,.76,.1,1.65-.72,2.1-1.98,.07,.17,.15,.34,.24,.51l-1.28,3.66c.05,.13,.07,.18,.11,.28l-.04,.13c.06,.17,.07,.19,.13,.36,.4,.06,.84-.22,1.21-.71,.3-.19,.58-.46,.84-.8l-1.14,3.69c.06,.16,.07,.2,.13,.36,.93,.23,2.06-.91,2.6-2.7,.09-.3,.16-.6,.21-.9,.08,.06,.17,.12,.25,.18l-.53,2.2c.07,.16,.08,.18,.15,.34,.36,0,.73-.26,1.06-.7,.06,.08,.09,.12,.16,.23,.22-.03,.43-.12,.64-.26l-.33,2.91c.08,.14,.1,.16,.19,.3,.92-.14,1.79-1.65,2.01-3.55,0-.07,.01-.13,.02-.2,.08,.01,.17,.02,.25,.03l-.04,2.12c.1,.12,.12,.14,.22,.25,.55-.26,1-1.21,1.13-2.36,.15-.01,.29-.03,.43-.05,.25,1.81,1.09,3.24,1.98,3.37,.08-.14,.1-.16,.18-.3l-.32-2.84c.16,.09,.33,.16,.5,.18,.1-.14,.12-.16,.21-.3v-.06c.33,.52,.75,.84,1.14,.83,.07-.16,.08-.18,.15-.34l-.45-1.87c.08-.06,.16-.12,.24-.18,.04,.19,.09,.37,.15,.56,.55,1.79,1.68,2.93,2.6,2.7,.06-.16,.07-.2,.13-.36l-1.06-3.45c.28,.31,.58,.54,.88,.7,.35,.41,.74,.62,1.1,.57,.06-.17,.07-.19,.13-.36l-.1-.31s.02-.06,.04-.09l-.54-1.55-.56-1.82c.07-.15,.14-.29,.2-.44,.47,1.06,1.27,1.72,1.95,1.63,.07-.17,.08-.19,.15-.36l-1.33-3.78c1.54-2.79,1.72-6.33-.1-9.48h0c-.11-.2-.23-.39-.36-.57,4.69-2.67,10.49-2.73,15.4,.13,.11,.06,.22,.11,.33,.14,1.17,6.97,1.94,14.16,2.29,21.5-1.3,12.83-.52,22.02-.53,22.65h.23s0,.05,0,.07h5.24s0-.03,0-.04h1.02s.51,0,.51,0c-.32,.57-.64,1.14-.96,1.72,.32-.58,.65-1.15,.97-1.72l7.05,.04c.93-3.47,2.1-7.11,3.48-10.87,14.32-15.48,38.22-40.78,49.02-49.09-12.84-.2-23.27,4.67-31.61,11.76,15.15-27.96,32.76-53.69,36.32-58.83,.42-.61,.65-.93,.65-.93Zm-62.83,50.16c-.02,.05-.04,.1-.06,.15,.51-2.08,1.04-4.14,1.61-6.15-.54,1.96-1.05,3.96-1.54,6Z"/>
      </g>
      <path class="cls-21" d="M64.45,102.72c5-5.39,12.83-6.55,19.17-2.86,.62,.36,1.38,.25,1.72-.3h0c.34-.55,.06-1.4-.66-1.82-7.24-4.22-16.17-2.89-21.87,3.26-.57,.61-.59,1.51-.1,1.93h0c.49,.43,1.25,.31,1.73-.22Z"/>
      <g>
        <path class="cls-15" d="M68.3,114.97c1.35-2.79,1.51-6.33-.08-9.48h0c-3.26-6.44-11.4-6.44-14.66,0h0c-1.62,3.21-1.43,6.82-.01,9.63l-1.23,4.01c.06,.17,.07,.19,.13,.36,.67,.1,1.45-.72,1.84-1.99,.09-.3,.15-.6,.19-.89,.1,.14,.21,.27,.32,.41l-1.43,4.66c.06,.16,.07,.2,.13,.36,.93,.23,2.06-.91,2.6-2.7,.09-.3,.16-.6,.21-.9,.08,.06,.17,.12,.25,.18l-.53,2.2c.07,.16,.08,.18,.15,.34,.61,.01,1.27-.74,1.62-1.86,.11,.05,.23,.1,.35,.15l-.45,3.9c.08,.14,.1,.16,.18,.3,.92-.14,1.79-1.65,2.01-3.55,0-.07,.01-.13,.02-.2,.08,.01,.17,.02,.25,.03l-.04,2.12c.1,.12,.12,.14,.22,.25,.55-.26,1-1.21,1.13-2.36,.15-.01,.29-.03,.43-.05,.25,1.81,1.09,3.24,1.98,3.37,.08-.14,.1-.16,.18-.3l-.4-3.53c.14-.06,.28-.12,.42-.18,.37,.93,.96,1.54,1.5,1.53,.07-.16,.08-.18,.15-.34l-.45-1.87c.08-.06,.16-.12,.24-.18,.04,.19,.09,.37,.15,.56,.55,1.79,1.68,2.93,2.6,2.7,.06-.16,.07-.2,.13-.36l-1.34-4.38c.1-.12,.19-.24,.29-.37,.04,.19,.08,.38,.14,.58,.39,1.26,1.17,2.09,1.84,1.99,.06-.17,.07-.19,.13-.36l-1.16-3.78Z"/>
        <path class="cls-18" d="M69.28,112.01c1.54-2.79,1.72-6.33-.1-9.48h0c-3.72-6.44-13.01-6.44-16.73,0h0c-1.85,3.21-1.63,6.82-.01,9.63l-1.41,4.01c.07,.17,.08,.19,.15,.36,.76,.1,1.65-.72,2.1-1.99,.11-.3,.17-.6,.21-.89,.12,.14,.24,.27,.37,.41l-1.63,4.66c.07,.16,.08,.2,.14,.36,1.06,.23,2.35-.91,2.97-2.7,.11-.3,.18-.6,.24-.9,.1,.06,.19,.12,.29,.18l-.61,2.2c.08,.16,.09,.18,.18,.34,.69,.01,1.45-.74,1.85-1.86,.13,.05,.26,.1,.39,.15l-.51,3.9c.1,.14,.12,.16,.21,.3,1.05-.14,2.04-1.65,2.29-3.55,0-.07,.01-.13,.02-.2,.1,.01,.19,.02,.29,.03l-.04,2.12c.12,.12,.13,.14,.25,.25,.63-.26,1.14-1.21,1.29-2.36,.17-.01,.33-.03,.49-.05,.29,1.81,1.25,3.24,2.26,3.37,.1-.14,.12-.16,.21-.3l-.46-3.53c.16-.06,.32-.12,.48-.18,.42,.93,1.09,1.54,1.72,1.53,.08-.16,.09-.18,.18-.34l-.52-1.87c.09-.06,.18-.12,.27-.18,.05,.19,.1,.37,.17,.56,.63,1.79,1.91,2.93,2.97,2.7,.07-.16,.08-.2,.14-.36l-1.53-4.38c.11-.12,.22-.24,.33-.37,.04,.19,.09,.38,.16,.58,.44,1.26,1.34,2.09,2.1,1.99,.07-.17,.08-.19,.15-.36l-1.33-3.78Z"/>
        <path class="cls-9" d="M54.74,108.74c1.87-2.65,2.17-5.76,1.31-8.46-1.99,1.55-3.4,3.88-3.66,6.74h0c-.12,1.34,.03,2.61,.4,3.78,.72-.57,1.38-1.25,1.95-2.06h0Z"/>
      </g>
      <path class="cls-21" d="M72.48,132.68c5-5.39,12.83-6.55,19.17-2.86,.62,.36,1.38,.25,1.72-.3h0c.34-.55,.06-1.4-.66-1.82-7.24-4.22-16.17-2.89-21.87,3.26-.57,.61-.59,1.51-.1,1.93h0c.49,.43,1.25,.31,1.73-.22Z"/>
      <g>
        <path class="cls-1" d="M75.73,142.71c1.35-2.79,1.51-6.33-.08-9.48h0c-3.26-6.44-11.4-6.44-14.66,0h0c-1.62,3.21-1.43,6.82-.01,9.63l-1.23,4.01c.06,.17,.07,.19,.13,.36,.67,.1,1.45-.72,1.84-1.99,.09-.3,.15-.6,.19-.89,.1,.14,.21,.27,.32,.41l-1.43,4.66c.06,.16,.07,.2,.13,.36,.93,.23,2.06-.91,2.6-2.7,.09-.3,.16-.6,.21-.9,.08,.06,.17,.12,.25,.18l-.53,2.2c.07,.16,.08,.18,.15,.34,.61,.01,1.27-.74,1.62-1.86,.11,.05,.23,.1,.35,.15l-.45,3.9c.08,.14,.1,.16,.18,.3,.92-.14,1.79-1.65,2.01-3.55,0-.07,.01-.13,.02-.2,.08,.01,.17,.02,.25,.03l-.04,2.12c.1,.12,.12,.14,.22,.25,.55-.26,1-1.21,1.13-2.36,.15-.01,.29-.03,.43-.05,.25,1.81,1.09,3.24,1.98,3.37,.08-.14,.1-.16,.18-.3l-.4-3.53c.14-.06,.28-.12,.42-.18,.37,.93,.96,1.54,1.5,1.53,.07-.16,.08-.18,.15-.34l-.45-1.87c.08-.06,.16-.12,.24-.18,.04,.19,.09,.37,.15,.56,.55,1.79,1.68,2.93,2.6,2.7,.06-.16,.07-.2,.13-.36l-1.34-4.38c.1-.12,.19-.24,.29-.37,.04,.19,.08,.38,.14,.58,.39,1.26,1.17,2.09,1.84,1.99,.06-.17,.07-.19,.13-.36l-1.16-3.78Z"/>
        <path class="cls-18" d="M76.71,139.75c1.54-2.79,1.72-6.33-.1-9.48h0c-3.72-6.44-13.01-6.44-16.73,0h0c-1.85,3.21-1.63,6.82-.01,9.63l-1.41,4.01c.07,.17,.08,.19,.15,.36,.76,.1,1.65-.72,2.1-1.99,.11-.3,.17-.6,.21-.89,.12,.14,.24,.27,.37,.41l-1.63,4.66c.07,.16,.08,.2,.14,.36,1.06,.23,2.35-.91,2.97-2.7,.11-.3,.18-.6,.24-.9,.1,.06,.19,.12,.29,.18l-.61,2.2c.08,.16,.09,.18,.18,.34,.69,.01,1.45-.74,1.85-1.86,.13,.05,.26,.1,.39,.15l-.51,3.9c.1,.14,.12,.16,.21,.3,1.05-.14,2.04-1.65,2.29-3.55,0-.07,.01-.13,.02-.2,.1,.01,.19,.02,.29,.03l-.04,2.12c.12,.12,.13,.14,.25,.25,.63-.26,1.14-1.21,1.29-2.36,.17-.01,.33-.03,.49-.05,.29,1.81,1.25,3.24,2.26,3.37,.1-.14,.12-.16,.21-.3l-.46-3.53c.16-.06,.32-.12,.48-.18,.42,.93,1.09,1.54,1.72,1.53,.08-.16,.09-.18,.18-.34l-.52-1.87c.09-.06,.18-.12,.27-.18,.05,.19,.1,.37,.17,.56,.63,1.79,1.91,2.93,2.97,2.7,.07-.16,.08-.2,.14-.36l-1.53-4.38c.11-.12,.22-.24,.33-.37,.04,.19,.09,.38,.16,.58,.44,1.26,1.34,2.09,2.1,1.99,.07-.17,.08-.19,.15-.36l-1.33-3.78Z"/>
        <path class="cls-6" d="M62.17,136.48c1.87-2.65,2.17-5.76,1.31-8.46-1.99,1.55-3.4,3.88-3.66,6.74h0c-.12,1.34,.03,2.61,.4,3.78,.72-.57,1.38-1.25,1.95-2.06h0Z"/>
      </g>
      <path class="cls-21" d="M13.71,31.06c.06-.07,.13-.14,.18-.21,.52-.6,1.1-1.13,1.73-1.6,1.24-.92,2.68-1.59,4.19-1.92,2.51-.56,5.22-.21,7.52,.95,.67,.33,1.31,.74,2.04,.91,.73,.17,1.58,.06,2.07-.5,1-1.14,.19-2.97-.67-3.92-1.09-1.2-2.59-1.42-4.12-1.67-5.74-.93-11.41,1.74-14.58,6.56-.41,.62-.31,1.44,.17,1.78,.59,.41,1.08,.04,1.48-.38Z"/>
      <path class="cls-21" d="M33.31,50.78c4.97-4.88,12.65-6.02,18.82-2.8,.6,.31,1.35,.21,1.69-.29h0c.34-.5,.08-1.25-.62-1.62-7.04-3.67-15.8-2.37-21.46,3.2-.56,.55-.6,1.35-.13,1.73h0c.47,.38,1.22,.26,1.7-.22Z"/>
      <path class="cls-21" d="M52.85,75.56c4.62-4.99,11.87-6.06,17.75-2.64,.57,.33,1.28,.23,1.59-.28h0c.32-.51,.05-1.3-.61-1.68-6.7-3.9-14.97-2.67-20.24,3.01-.53,.57-.55,1.39-.1,1.79h0c.45,.4,1.16,.28,1.61-.2Z"/>
      <g class="cls-4">
        <path class="cls-20" d="M97.75,155.56s26.13-87.05,39.64-111.81c0,0-38.33,45.09-39.64,111.81Z"/>
        <path class="cls-24" d="M97.75,155.56s-26.01-83.85,39.64-111.81c0,0-38.86,47-39.64,111.81Z"/>
      </g>
      <path class="cls-24" d="M87.01,92.75c-12.36-30.51-32.73-53.42-55.37-67.42-1.83-1.13-3.44-.89-3.6,.45-.02,.16-.04,.31-.06,.47-.16,1.34,1.1,3.28,2.82,4.41,21.44,13.99,40.78,36.67,52.25,66.51,8.76,22.48,12.98,49.08,10.91,77.02h5.24c2.21-29.85-2.58-57.93-12.2-81.44Z"/>
      <path class="cls-24" d="M165.01,67.16c.42-.61,.65-.93,.65-.93-80.15,14.91-71.87,105.86-71.92,107.89l6.49,.03c2.9-65.68,52.73-99.71,64.78-107Z"/>
      <path class="cls-21" d="M165.01,67.16c-12.05,7.29-61.88,41.31-64.78,107l7.57,.04c10.28-38.51,51.54-98.85,57.21-107.04Z"/>
      <g>
        <path class="cls-12" d="M17.28,43.82c1.35-2.79,1.51-6.33-.08-9.48h0c-3.26-6.44-11.4-6.44-14.66,0h0c-1.62,3.21-1.43,6.82-.01,9.63l-1.23,4.01c.06,.17,.07,.19,.13,.36,.67,.1,1.45-.72,1.84-1.99,.09-.3,.15-.6,.19-.89,.1,.14,.21,.27,.32,.41l-1.43,4.66c.06,.16,.07,.2,.13,.36,.93,.23,2.06-.91,2.6-2.7,.09-.3,.16-.6,.21-.9,.08,.06,.17,.12,.25,.18l-.53,2.2c.07,.16,.08,.18,.15,.34,.61,.01,1.27-.74,1.62-1.86,.11,.05,.23,.1,.35,.15l-.45,3.9c.08,.14,.1,.16,.18,.3,.92-.14,1.79-1.65,2.01-3.55,0-.07,.01-.13,.02-.2,.08,.01,.17,.02,.25,.03l-.04,2.12c.1,.12,.12,.14,.22,.25,.55-.26,1-1.21,1.13-2.36,.15-.01,.29-.03,.43-.05,.25,1.81,1.09,3.24,1.98,3.37,.08-.14,.1-.16,.18-.3l-.4-3.53c.14-.06,.28-.12,.42-.18,.37,.93,.96,1.54,1.5,1.53,.07-.16,.08-.18,.15-.34l-.45-1.87c.08-.06,.16-.12,.24-.18,.04,.19,.09,.37,.15,.56,.55,1.79,1.68,2.93,2.6,2.7,.06-.16,.07-.2,.13-.36l-1.34-4.38c.1-.12,.19-.24,.29-.37,.04,.19,.08,.38,.14,.58,.39,1.26,1.17,2.09,1.84,1.99,.06-.17,.07-.19,.13-.36l-1.16-3.78Z"/>
        <path class="cls-18" d="M18.26,40.87c1.54-2.79,1.72-6.33-.1-9.48h0c-3.72-6.44-13.01-6.44-16.73,0h0c-1.85,3.21-1.63,6.82-.01,9.63L.02,45.03c.07,.17,.08,.19,.15,.36,.76,.1,1.65-.72,2.1-1.99,.11-.3,.17-.6,.21-.89,.12,.14,.24,.27,.37,.41l-1.63,4.66c.07,.16,.08,.2,.14,.36,1.06,.23,2.35-.91,2.97-2.7,.11-.3,.18-.6,.24-.9,.1,.06,.19,.12,.29,.18l-.61,2.2c.08,.16,.09,.18,.18,.34,.69,.01,1.45-.74,1.85-1.86,.13,.05,.26,.1,.39,.15l-.51,3.9c.1,.14,.12,.16,.21,.3,1.05-.14,2.04-1.65,2.29-3.55,0-.07,.01-.13,.02-.2,.1,.01,.19,.02,.29,.03l-.04,2.12c.12,.12,.13,.14,.25,.25,.63-.26,1.14-1.21,1.29-2.36,.17-.01,.33-.03,.49-.05,.29,1.81,1.25,3.24,2.26,3.37,.1-.14,.12-.16,.21-.3l-.46-3.53c.16-.06,.32-.12,.48-.18,.42,.93,1.09,1.54,1.72,1.53,.08-.16,.09-.18,.18-.34l-.52-1.87c.09-.06,.18-.12,.27-.18,.05,.19,.1,.37,.17,.56,.63,1.79,1.91,2.93,2.97,2.7,.07-.16,.08-.2,.14-.36l-1.53-4.38c.11-.12,.22-.24,.33-.37,.04,.19,.09,.38,.16,.58,.44,1.26,1.34,2.09,2.1,1.99,.07-.17,.08-.19,.15-.36l-1.33-3.78Z"/>
        <path class="cls-5" d="M3.73,37.6c1.87-2.65,2.17-5.76,1.31-8.46-1.99,1.55-3.4,3.88-3.66,6.74h0c-.12,1.34,.03,2.61,.4,3.78,.72-.57,1.38-1.25,1.95-2.06h0Z"/>
      </g>
      <g>
        <path class="cls-13" d="M38.58,64.54c1.35-2.79,1.51-6.33-.08-9.48h0c-3.26-6.44-11.4-6.44-14.66,0h0c-1.62,3.21-1.43,6.82-.01,9.63l-1.23,4.01c.06,.17,.07,.19,.13,.36,.67,.1,1.45-.72,1.84-1.99,.09-.3,.15-.6,.19-.89,.1,.14,.21,.27,.32,.41l-1.43,4.66c.06,.16,.07,.2,.13,.36,.93,.23,2.06-.91,2.6-2.7,.09-.3,.16-.6,.21-.9,.08,.06,.17,.12,.25,.18l-.53,2.2c.07,.16,.08,.18,.15,.34,.61,.01,1.27-.74,1.62-1.86,.11,.05,.23,.1,.35,.15l-.45,3.9c.08,.14,.1,.16,.18,.3,.92-.14,1.79-1.65,2.01-3.55,0-.07,.01-.13,.02-.2,.08,.01,.17,.02,.25,.03l-.04,2.12c.1,.12,.12,.14,.22,.25,.55-.26,1-1.21,1.13-2.36,.15-.01,.29-.03,.43-.05,.25,1.81,1.09,3.24,1.98,3.37,.08-.14,.1-.16,.18-.3l-.4-3.53c.14-.06,.28-.12,.42-.18,.37,.93,.96,1.54,1.5,1.53,.07-.16,.08-.18,.15-.34l-.45-1.87c.08-.06,.16-.12,.24-.18,.04,.19,.09,.37,.15,.56,.55,1.79,1.68,2.93,2.6,2.7,.06-.16,.07-.2,.13-.36l-1.34-4.38c.1-.12,.19-.24,.29-.37,.04,.19,.08,.38,.14,.58,.39,1.26,1.17,2.09,1.84,1.99,.06-.17,.07-.19,.13-.36l-1.16-3.78Z"/>
        <path class="cls-18" d="M39.56,61.59c1.54-2.79,1.72-6.33-.1-9.48h0c-3.72-6.44-13.01-6.44-16.73,0h0c-1.85,3.21-1.63,6.82-.01,9.63l-1.41,4.01c.07,.17,.08,.19,.15,.36,.76,.1,1.65-.72,2.1-1.99,.11-.3,.17-.6,.21-.89,.12,.14,.24,.27,.37,.41l-1.63,4.66c.07,.16,.08,.2,.14,.36,1.06,.23,2.35-.91,2.97-2.7,.11-.3,.18-.6,.24-.9,.1,.06,.19,.12,.29,.18l-.61,2.2c.08,.16,.09,.18,.18,.34,.69,.01,1.45-.74,1.85-1.86,.13,.05,.26,.1,.39,.15l-.51,3.9c.1,.14,.12,.16,.21,.3,1.05-.14,2.04-1.65,2.29-3.55,0-.07,.01-.13,.02-.2,.1,.01,.19,.02,.29,.03l-.04,2.12c.12,.12,.13,.14,.25,.25,.63-.26,1.14-1.21,1.29-2.36,.17-.01,.33-.03,.49-.05,.29,1.81,1.25,3.24,2.26,3.37,.1-.14,.12-.16,.21-.3l-.46-3.53c.16-.06,.32-.12,.48-.18,.42,.93,1.09,1.54,1.72,1.53,.08-.16,.09-.18,.18-.34l-.52-1.87c.09-.06,.18-.12,.27-.18,.05,.19,.1,.37,.17,.56,.63,1.79,1.91,2.93,2.97,2.7,.07-.16,.08-.2,.14-.36l-1.53-4.38c.11-.12,.22-.24,.33-.37,.04,.19,.09,.38,.16,.58,.44,1.26,1.34,2.09,2.1,1.99,.07-.17,.08-.19,.15-.36l-1.33-3.78Z"/>
        <path class="cls-3" d="M25.03,58.31c1.87-2.65,2.17-5.76,1.31-8.46-1.99,1.55-3.4,3.88-3.66,6.74h0c-.12,1.34,.03,2.61,.4,3.78,.72-.57,1.38-1.25,1.95-2.06h0Z"/>
      </g>
      <g>
        <path class="cls-16" d="M56.91,88.22c1.35-2.79,1.51-6.33-.08-9.48h0c-3.26-6.44-11.4-6.44-14.66,0h0c-1.62,3.21-1.43,6.82-.01,9.63l-1.23,4.01c.06,.17,.07,.19,.13,.36,.67,.1,1.45-.72,1.84-1.99,.09-.3,.15-.6,.19-.89,.1,.14,.21,.27,.32,.41l-1.43,4.66c.06,.16,.07,.2,.13,.36,.93,.23,2.06-.91,2.6-2.7,.09-.3,.16-.6,.21-.9,.08,.06,.17,.12,.25,.18l-.53,2.2c.07,.16,.08,.18,.15,.34,.61,.01,1.27-.74,1.62-1.86,.11,.05,.23,.1,.35,.15l-.45,3.9c.08,.14,.1,.16,.18,.3,.92-.14,1.79-1.65,2.01-3.55,0-.07,.01-.13,.02-.2,.08,.01,.17,.02,.25,.03l-.04,2.12c.1,.12,.12,.14,.22,.25,.55-.26,1-1.21,1.13-2.36,.15-.01,.29-.03,.43-.05,.25,1.81,1.09,3.24,1.98,3.37,.08-.14,.1-.16,.18-.3l-.4-3.53c.14-.06,.28-.12,.42-.18,.37,.93,.96,1.54,1.5,1.53,.07-.16,.08-.18,.15-.34l-.45-1.87c.08-.06,.16-.12,.24-.18,.04,.19,.09,.37,.15,.56,.55,1.79,1.68,2.93,2.6,2.7,.06-.16,.07-.2,.13-.36l-1.34-4.38c.1-.12,.19-.24,.29-.37,.04,.19,.08,.38,.14,.58,.39,1.26,1.17,2.09,1.84,1.99,.06-.17,.07-.19,.13-.36l-1.16-3.78Z"/>
        <path class="cls-18" d="M57.89,85.27c1.54-2.79,1.72-6.33-.1-9.48h0c-3.72-6.44-13.01-6.44-16.73,0h0c-1.85,3.21-1.63,6.82-.01,9.63l-1.41,4.01c.07,.17,.08,.19,.15,.36,.76,.1,1.65-.72,2.1-1.99,.11-.3,.17-.6,.21-.89,.12,.14,.24,.27,.37,.41l-1.63,4.66c.07,.16,.08,.2,.14,.36,1.06,.23,2.35-.91,2.97-2.7,.11-.3,.18-.6,.24-.9,.1,.06,.19,.12,.29,.18l-.61,2.2c.08,.16,.09,.18,.18,.34,.69,.01,1.45-.74,1.85-1.86,.13,.05,.26,.1,.39,.15l-.51,3.9c.1,.14,.12,.16,.21,.3,1.05-.14,2.04-1.65,2.29-3.55,0-.07,.01-.13,.02-.2,.1,.01,.19,.02,.29,.03l-.04,2.12c.12,.12,.13,.14,.25,.25,.63-.26,1.14-1.21,1.29-2.36,.17-.01,.33-.03,.49-.05,.29,1.81,1.25,3.24,2.26,3.37,.1-.14,.12-.16,.21-.3l-.46-3.53c.16-.06,.32-.12,.48-.18,.42,.93,1.09,1.54,1.72,1.53,.08-.16,.09-.18,.18-.34l-.52-1.87c.09-.06,.18-.12,.27-.18,.05,.19,.1,.37,.17,.56,.63,1.79,1.91,2.93,2.97,2.7,.07-.16,.08-.2,.14-.36l-1.53-4.38c.11-.12,.22-.24,.33-.37,.04,.19,.09,.38,.16,.58,.44,1.26,1.34,2.09,2.1,1.99,.07-.17,.08-.19,.15-.36l-1.33-3.78Z"/>
        <path class="cls-14" d="M43.35,82c1.87-2.65,2.17-5.76,1.31-8.46-1.99,1.55-3.4,3.88-3.66,6.74h0c-.12,1.34,.03,2.61,.4,3.78,.72-.57,1.38-1.25,1.95-2.06h0Z"/>
      </g>
      <g class="cls-22">
        <g class="cls-4">
          <path class="cls-20" d="M99.78,175.88s44.56-49.37,60.53-61.65c0,0-36.5,18.4-60.53,61.65Z"/>
          <path class="cls-24" d="M99.78,175.88s15.25-62.35,60.53-61.65c0,0-37.45,19.5-60.53,61.65Z"/>
        </g>
      </g>
      <path class="cls-8" d="M18.24,53.74l.71,3.32c1.04,4.83,6.91,6.73,10.58,3.41l2.52-2.28c3.66-3.31,2.37-9.35-2.33-10.87l-3.24-1.04c-4.7-1.52-9.28,2.62-8.25,7.46Z"/>
      <path class="cls-2" d="M37.56,77.02l.71,3.32c1.04,4.83,6.91,6.73,10.58,3.41l2.52-2.28c3.66-3.31,2.37-9.35-2.33-10.87l-3.24-1.04c-4.7-1.52-9.28,2.62-8.25,7.46Z"/>
      <path class="cls-10" d="M46.97,104.75l.71,3.32c1.04,4.83,6.91,6.73,10.58,3.41l2.52-2.28c3.66-3.31,2.37-9.35-2.33-10.87l-3.24-1.04c-4.7-1.52-9.28,2.62-8.25,7.46Z"/>
      <path class="cls-7" d="M54.89,132.99l.71,3.32c1.04,4.83,6.91,6.73,10.58,3.41l2.52-2.28c3.66-3.31,2.37-9.35-2.33-10.87l-3.24-1.04c-4.7-1.52-9.28,2.62-8.25,7.46Z"/>
    </g>
  </g>
</svg>